# Blender 5.2.1 LTS
# www.blender.org
mtllib t0.mtl
o Text
v -0.686141 0.250000 1.004684
v -1.320427 0.250000 1.004684
v -0.511856 0.250000 -0.995316
v 0.122430 0.250000 -0.995316
v -0.186141 0.250000 -0.235316
v 1.042430 0.250000 -0.235316
v 0.805287 0.250000 0.353255
v -0.423284 0.250000 0.353255
v 0.671001 0.250000 -0.295316
v 0.351001 0.250000 -0.295316
v 0.502430 0.250000 -0.672459
v 0.822430 0.250000 -0.672459
v 1.068144 0.250000 -0.295316
v 0.748144 0.250000 -0.295316
v 0.899573 0.250000 -0.672459
v 1.219573 0.250000 -0.672459
v -0.686141 -0.250000 1.004684
v -1.320427 -0.250000 1.004684
v -0.511856 -0.250000 -0.995316
v 0.122430 -0.250000 -0.995316
v -0.186141 -0.250000 -0.235316
v 1.042430 -0.250000 -0.235316
v 0.805287 -0.250000 0.353255
v -0.423284 -0.250000 0.353255
v 0.671001 -0.250000 -0.295316
v 0.351001 -0.250000 -0.295316
v 0.502430 -0.250000 -0.672459
v 0.822430 -0.250000 -0.672459
v 1.068144 -0.250000 -0.295316
v 0.748144 -0.250000 -0.295316
v 0.899573 -0.250000 -0.672459
v 1.219573 -0.250000 -0.672459
v -0.686141 -0.250000 1.004684
v -0.686141 0.250000 1.004684
v -1.320427 -0.250000 1.004684
v -1.320427 0.250000 1.004684
v -0.511856 -0.250000 -0.995316
v -0.511856 0.250000 -0.995316
v 0.122430 -0.250000 -0.995316
v 0.122430 0.250000 -0.995316
v -0.186141 -0.250000 -0.235316
v -0.186141 0.250000 -0.235316
v 1.042430 -0.250000 -0.235316
v 1.042430 0.250000 -0.235316
v 0.805287 -0.250000 0.353255
v 0.805287 0.250000 0.353255
v -0.423284 -0.250000 0.353255
v -0.423284 0.250000 0.353255
v 0.671001 -0.250000 -0.295316
v 0.671001 0.250000 -0.295316
v 0.351001 -0.250000 -0.295316
v 0.351001 0.250000 -0.295316
v 0.502430 -0.250000 -0.672459
v 0.502430 0.250000 -0.672459
v 0.822430 -0.250000 -0.672459
v 0.822430 0.250000 -0.672459
v 1.068144 -0.250000 -0.295316
v 1.068144 0.250000 -0.295316
v 0.748144 -0.250000 -0.295316
v 0.748144 0.250000 -0.295316
v 0.899573 -0.250000 -0.672459
v 0.899573 0.250000 -0.672459
v 1.219573 -0.250000 -0.672459
v 1.219573 0.250000 -0.672459
vn -0.0000 1.0000 -0.0000
vn -0.0000 -1.0000 -0.0000
vn -0.8291 -0.0000 0.5591
vn 0.5594 -0.0000 0.8289
vn -0.5591 -0.0000 -0.8291
vn 0.8295 -0.0000 -0.5585
vn 0.8288 -0.0000 -0.5596
vn 0.5596 -0.0000 0.8288
vn -0.8285 -0.0000 0.5601
vn 0.5601 -0.0000 0.8284
vn -0.5601 -0.0000 -0.8284
vn -0.8284 -0.0000 0.5601
vn 0.8285 -0.0000 -0.5601
vn 0.8284 -0.0000 -0.5601
vt 0.066667 0.000000
vt 0.000000 0.000000
vt 0.466667 0.000000
vt 0.133333 0.000000
vt 0.266667 0.000000
vt 0.400000 0.000000
vt 0.200000 0.000000
vt 0.800000 0.000000
vt 1.000000 0.000000
vt 0.933333 0.000000
vt 0.866667 0.000000
vt 0.666667 0.000000
vt 0.600000 0.000000
vt 0.533333 0.000000
vt 0.733333 0.000000
vt 0.333333 0.000000
vt 0.125000 1.000000
vt 0.000000 1.000000
vt 0.250000 1.000000
vt 0.125000 0.000000
vt 0.375000 1.000000
vt 0.250000 0.000000
vt 0.500000 1.000000
vt 0.375000 0.000000
vt 0.625000 1.000000
vt 0.500000 0.000000
vt 0.750000 1.000000
vt 0.625000 0.000000
vt 0.875000 1.000000
vt 0.750000 0.000000
vt 1.000000 1.000000
vt 0.875000 0.000000
s 0
usemtl TitleLogo.001
f 2/1/1 1/2/1 8/3/1
f 8/3/1 3/4/1 2/1/1
f 5/5/1 8/3/1 7/6/1
f 3/4/1 8/3/1 5/5/1
f 5/5/1 4/7/1 3/4/1
f 13/8/1 16/9/1 15/10/1
f 13/8/1 15/10/1 14/11/1
f 11/12/1 10/13/1 9/14/1
f 9/14/1 12/15/1 11/12/1
f 7/6/1 6/16/1 5/5/1
f 18/1/2 24/3/2 17/2/2
f 24/3/2 18/1/2 19/4/2
f 21/5/2 23/6/2 24/3/2
f 19/4/2 21/5/2 24/3/2
f 21/5/2 19/4/2 20/7/2
f 29/8/2 31/10/2 32/9/2
f 29/8/2 30/11/2 31/10/2
f 27/12/2 25/14/2 26/13/2
f 25/14/2 27/12/2 28/15/2
f 23/6/2 21/5/2 22/16/2
s 1
f 36/17/3 33/2/4 34/18/4
f 38/19/5 35/20/3 36/17/3
f 40/21/6 37/22/5 38/19/5
f 42/23/6 39/24/6 40/21/6
f 44/25/7 41/26/6 42/23/6
f 46/27/8 43/28/7 44/25/7
f 48/29/4 45/30/8 46/27/8
f 34/31/4 47/32/4 48/29/4
f 52/19/9 49/2/10 50/18/10
f 54/23/11 51/22/12 52/19/9
f 56/27/13 53/26/11 54/23/11
f 50/31/10 55/30/14 56/27/13
f 60/19/9 57/2/10 58/18/10
f 62/23/11 59/22/12 60/19/9
f 64/27/13 61/26/11 62/23/11
f 58/31/10 63/30/14 64/27/13
f 36/17/3 35/20/3 33/2/4
f 38/19/5 37/22/5 35/20/3
f 40/21/6 39/24/6 37/22/5
f 42/23/6 41/26/6 39/24/6
f 44/25/7 43/28/7 41/26/6
f 46/27/8 45/30/8 43/28/7
f 48/29/4 47/32/4 45/30/8
f 34/31/4 33/9/4 47/32/4
f 52/19/9 51/22/12 49/2/10
f 54/23/11 53/26/11 51/22/12
f 56/27/13 55/30/14 53/26/11
f 50/31/10 49/9/10 55/30/14
f 60/19/9 59/22/12 57/2/10
f 62/23/11 61/26/11 59/22/12
f 64/27/13 63/30/14 61/26/11
f 58/31/10 57/9/10 63/30/14
