# Blender 5.2.1 LTS
# www.blender.org
mtllib t1.mtl
o Text
v -0.686141 0.250000 1.004684
v -1.320427 0.250000 1.004684
v -0.511856 0.250000 -0.995316
v 0.122430 0.250000 -0.995316
v 2.002430 0.250000 -0.995316
v 1.848144 0.250000 -0.621030
v 1.133859 0.250000 -0.621030
v 1.285287 0.250000 -0.995316
v 1.773859 0.250000 -0.841030
v 1.391001 0.250000 -0.841030
v 1.362430 0.250000 -0.772459
v 1.745287 0.250000 -0.772459
v 1.033859 0.250000 1.004684
v 0.445287 0.250000 1.004684
v 0.445287 0.250000 -0.701030
v 1.033859 0.250000 -0.701030
v -0.686141 -0.250000 1.004684
v -1.320427 -0.250000 1.004684
v -0.511856 -0.250000 -0.995316
v 0.122430 -0.250000 -0.995316
v 2.002430 -0.250000 -0.995316
v 1.848144 -0.250000 -0.621030
v 1.133859 -0.250000 -0.621030
v 1.285287 -0.250000 -0.995316
v 1.773859 -0.250000 -0.841030
v 1.391001 -0.250000 -0.841030
v 1.362430 -0.250000 -0.772459
v 1.745287 -0.250000 -0.772459
v 1.033859 -0.250000 1.004684
v 0.445287 -0.250000 1.004684
v 0.445287 -0.250000 -0.701030
v 1.033859 -0.250000 -0.701030
v -0.686141 -0.250000 1.004684
v -0.686141 0.250000 1.004684
v -1.320427 -0.250000 1.004684
v -1.320427 0.250000 1.004684
v -0.511856 -0.250000 -0.995316
v -0.511856 0.250000 -0.995316
v 0.122430 -0.250000 -0.995316
v 0.122430 0.250000 -0.995316
v 2.002430 -0.250000 -0.995316
v 2.002430 0.250000 -0.995316
v 1.848144 -0.250000 -0.621030
v 1.848144 0.250000 -0.621030
v 1.133859 -0.250000 -0.621030
v 1.133859 0.250000 -0.621030
v 1.285287 -0.250000 -0.995316
v 1.285287 0.250000 -0.995316
v 1.773859 -0.250000 -0.841030
v 1.773859 0.250000 -0.841030
v 1.391001 -0.250000 -0.841030
v 1.391001 0.250000 -0.841030
v 1.362430 -0.250000 -0.772459
v 1.362430 0.250000 -0.772459
v 1.745287 -0.250000 -0.772459
v 1.745287 0.250000 -0.772459
v 1.033859 -0.250000 1.004684
v 1.033859 0.250000 1.004684
v 0.445287 -0.250000 1.004684
v 0.445287 0.250000 1.004684
v 0.445287 -0.250000 -0.701030
v 0.445287 0.250000 -0.701030
v 1.033859 -0.250000 -0.701030
v 1.033859 0.250000 -0.701030
vn -0.0000 1.0000 -0.0000
vn -0.0000 -1.0000 -0.0000
vn -0.8291 -0.0000 0.5591
vn 0.5591 -0.0000 0.8291
vn -0.5591 -0.0000 -0.8291
vn 0.8291 -0.0000 -0.5591
vn 0.5563 -0.0000 0.8310
vn 0.8310 -0.0000 -0.5563
vn -0.8292 -0.0000 0.5590
vn -0.5590 -0.0000 -0.8292
vn 0.5547 -0.0000 0.8320
vn -0.8321 -0.0000 0.5547
vn 0.8321 -0.0000 -0.5547
vn -0.5547 -0.0000 -0.8320
vn -0.7071 -0.0000 0.7071
vn 0.7071 -0.0000 0.7071
vn -0.7071 -0.0000 -0.7071
vn 0.7071 -0.0000 -0.7071
vt 0.066667 0.000000
vt 0.000000 0.000000
vt 0.133333 0.000000
vt 0.200000 0.000000
vt 0.666667 0.000000
vt 0.600000 0.000000
vt 0.466667 0.000000
vt 0.533333 0.000000
vt 0.733333 0.000000
vt 0.333333 0.000000
vt 0.266667 0.000000
vt 0.400000 0.000000
vt 0.933333 0.000000
vt 0.866667 0.000000
vt 0.800000 0.000000
vt 1.000000 0.000000
vt 0.250000 1.000000
vt 0.000000 1.000000
vt 0.500000 1.000000
vt 0.250000 0.000000
vt 0.750000 1.000000
vt 0.500000 0.000000
vt 1.000000 1.000000
vt 0.750000 0.000000
s 0
usemtl TitleLogo.001
f 2/1/1 1/2/1 3/3/1
f 4/4/1 3/3/1 1/2/1
f 11/5/1 10/6/1 8/7/1
f 9/8/1 12/9/1 6/10/1
f 6/10/1 5/11/1 9/8/1
f 11/5/1 7/12/1 6/10/1
f 6/10/1 12/9/1 11/5/1
f 8/7/1 10/6/1 9/8/1
f 9/8/1 5/11/1 8/7/1
f 15/13/1 14/14/1 13/15/1
f 7/12/1 11/5/1 8/7/1
f 16/16/1 15/13/1 13/15/1
f 18/1/2 19/3/2 17/2/2
f 20/4/2 17/2/2 19/3/2
f 27/5/2 24/7/2 26/6/2
f 25/8/2 22/10/2 28/9/2
f 22/10/2 25/8/2 21/11/2
f 27/5/2 22/10/2 23/12/2
f 22/10/2 27/5/2 28/9/2
f 24/7/2 25/8/2 26/6/2
f 25/8/2 24/7/2 21/11/2
f 31/13/2 29/15/2 30/14/2
f 23/12/2 24/7/2 27/5/2
f 32/16/2 29/15/2 31/13/2
s 1
f 36/17/3 33/2/4 34/18/4
f 38/19/5 35/20/3 36/17/3
f 40/21/6 37/22/5 38/19/5
f 34/23/4 39/24/6 40/21/6
f 44/17/7 41/2/8 42/18/8
f 46/19/9 43/20/7 44/17/7
f 48/21/10 45/22/9 46/19/9
f 42/23/8 47/24/10 48/21/10
f 52/17/11 49/2/12 50/18/12
f 54/19/13 51/20/11 52/17/11
f 56/21/14 53/22/13 54/19/13
f 50/23/12 55/24/14 56/21/14
f 60/17/15 57/2/16 58/18/16
f 62/19/17 59/20/15 60/17/15
f 64/21/18 61/22/17 62/19/17
f 58/23/16 63/24/18 64/21/18
f 36/17/3 35/20/3 33/2/4
f 38/19/5 37/22/5 35/20/3
f 40/21/6 39/24/6 37/22/5
f 34/23/4 33/16/4 39/24/6
f 44/17/7 43/20/7 41/2/8
f 46/19/9 45/22/9 43/20/7
f 48/21/10 47/24/10 45/22/9
f 42/23/8 41/16/8 47/24/10
f 52/17/11 51/20/11 49/2/12
f 54/19/13 53/22/13 51/20/11
f 56/21/14 55/24/14 53/22/13
f 50/23/12 49/16/12 55/24/14
f 60/17/15 59/20/15 57/2/16
f 62/19/17 61/22/17 59/20/15
f 64/21/18 63/24/18 61/22/17
f 58/23/16 57/16/16 63/24/18
