# Blender 5.2.1 LTS
# www.blender.org
mtllib t2.mtl
o Text
v 1.271001 0.250000 -0.581030
v -0.423284 0.250000 -0.712459
v -0.308999 0.250000 -0.995316
v 1.385287 0.250000 -0.863888
v 0.813859 0.250000 0.047541
v -0.683284 0.250000 -0.069602
v -0.568999 0.250000 -0.352459
v 0.928144 0.250000 -0.235316
v 0.628144 0.250000 1.004684
v -1.260427 0.250000 0.856112
v -1.031856 0.250000 0.290398
v 0.859573 0.250000 0.438970
v 1.271001 -0.250000 -0.581030
v -0.423284 -0.250000 -0.712459
v -0.308999 -0.250000 -0.995316
v 1.385287 -0.250000 -0.863888
v 0.813859 -0.250000 0.047541
v -0.683284 -0.250000 -0.069602
v -0.568999 -0.250000 -0.352459
v 0.928144 -0.250000 -0.235316
v 0.628144 -0.250000 1.004684
v -1.260427 -0.250000 0.856112
v -1.031856 -0.250000 0.290398
v 0.859573 -0.250000 0.438970
v 1.271001 -0.250000 -0.581030
v 1.271001 0.250000 -0.581030
v -0.423284 -0.250000 -0.712459
v -0.423284 0.250000 -0.712459
v -0.308999 -0.250000 -0.995316
v -0.308999 0.250000 -0.995316
v 1.385287 -0.250000 -0.863888
v 1.385287 0.250000 -0.863888
v 0.813859 -0.250000 0.047541
v 0.813859 0.250000 0.047541
v -0.683284 -0.250000 -0.069602
v -0.683284 0.250000 -0.069602
v -0.568999 -0.250000 -0.352459
v -0.568999 0.250000 -0.352459
v 0.928144 -0.250000 -0.235316
v 0.928144 0.250000 -0.235316
v 0.628144 -0.250000 1.004684
v 0.628144 0.250000 1.004684
v -1.260427 -0.250000 0.856112
v -1.260427 0.250000 0.856112
v -1.031856 -0.250000 0.290398
v -1.031856 0.250000 0.290398
v 0.859573 -0.250000 0.438970
v 0.859573 0.250000 0.438970
vn -0.0000 1.0000 -0.0000
vn -0.0000 -1.0000 -0.0000
vn -0.8501 -0.0000 0.5267
vn 0.5267 -0.0000 0.8501
vn -0.5267 -0.0000 -0.8501
vn -0.8500 -0.0000 0.5267
vn 0.8501 -0.0000 -0.5267
vn 0.8500 -0.0000 -0.5267
vn -0.8502 -0.0000 0.5264
vn 0.5264 -0.0000 0.8502
vn -0.5264 -0.0000 -0.8502
vn 0.8502 -0.0000 -0.5264
vn -0.8504 -0.0000 0.5262
vn 0.5244 -0.0000 0.8515
vn -0.5263 -0.0000 -0.8503
vn -0.8503 -0.0000 0.5262
vn 0.8515 -0.0000 -0.5244
vt 0.909091 0.000000
vt 0.818182 0.000000
vt 0.727273 0.000000
vt 1.000000 0.000000
vt 0.545455 0.000000
vt 0.454545 0.000000
vt 0.363636 0.000000
vt 0.636364 0.000000
vt 0.181818 0.000000
vt 0.090909 0.000000
vt 0.000000 0.000000
vt 0.272727 0.000000
vt 0.250000 1.000000
vt 0.000000 1.000000
vt 0.500000 1.000000
vt 0.250000 0.000000
vt 0.750000 1.000000
vt 0.500000 0.000000
vt 1.000000 1.000000
vt 0.750000 0.000000
s 0
usemtl TitleLogo.001
f 11/1/1 10/2/1 9/3/1
f 9/3/1 12/4/1 11/1/1
f 7/5/1 6/6/1 5/7/1
f 5/7/1 8/8/1 7/5/1
f 3/9/1 2/10/1 1/11/1
f 1/11/1 4/12/1 3/9/1
f 23/1/2 21/3/2 22/2/2
f 21/3/2 23/1/2 24/4/2
f 19/5/2 17/7/2 18/6/2
f 17/7/2 19/5/2 20/8/2
f 15/9/2 13/11/2 14/10/2
f 13/11/2 15/9/2 16/12/2
s 1
f 28/13/3 25/11/4 26/14/4
f 30/15/5 27/16/6 28/13/3
f 32/17/7 29/18/5 30/15/5
f 26/19/4 31/20/8 32/17/7
f 36/13/9 33/11/10 34/14/10
f 38/15/11 35/16/9 36/13/9
f 40/17/12 37/18/11 38/15/11
f 34/19/10 39/20/12 40/17/12
f 44/13/13 41/11/14 42/14/14
f 46/15/15 43/16/16 44/13/13
f 48/17/17 45/18/15 46/15/15
f 42/19/14 47/20/17 48/17/17
f 28/13/3 27/16/6 25/11/4
f 30/15/5 29/18/5 27/16/6
f 32/17/7 31/20/8 29/18/5
f 26/19/4 25/4/4 31/20/8
f 36/13/9 35/16/9 33/11/10
f 38/15/11 37/18/11 35/16/9
f 40/17/12 39/20/12 37/18/11
f 34/19/10 33/4/10 39/20/12
f 44/13/13 43/16/16 41/11/14
f 46/15/15 45/18/15 43/16/16
f 48/17/17 47/20/17 45/18/15
f 42/19/14 41/4/14 47/20/17
