# Blender 5.2.1 LTS
# www.blender.org
mtllib t3.mtl
o Text
v 0.565287 0.250000 -0.878173
v 0.422430 0.250000 -0.523888
v -0.703284 0.250000 -0.523888
v -0.557570 0.250000 -0.878173
v 0.831002 0.250000 1.004684
v -1.320427 0.250000 1.004684
v -1.080427 0.250000 0.416112
v 0.433859 0.250000 0.416112
v 0.696716 0.250000 -0.235316
v 1.331002 0.250000 -0.235316
v 0.565287 -0.250000 -0.878173
v 0.422430 -0.250000 -0.523888
v -0.703284 -0.250000 -0.523888
v -0.557570 -0.250000 -0.878173
v 0.831002 -0.250000 1.004684
v -1.320427 -0.250000 1.004684
v -1.080427 -0.250000 0.416112
v 0.433859 -0.250000 0.416112
v 0.696716 -0.250000 -0.235316
v 1.331002 -0.250000 -0.235316
v 0.565287 -0.250000 -0.878173
v 0.565287 0.250000 -0.878173
v 0.422430 -0.250000 -0.523888
v 0.422430 0.250000 -0.523888
v -0.703284 -0.250000 -0.523888
v -0.703284 0.250000 -0.523888
v -0.557570 -0.250000 -0.878173
v -0.557570 0.250000 -0.878173
v 0.831002 -0.250000 1.004684
v 0.831002 0.250000 1.004684
v -1.320427 -0.250000 1.004684
v -1.320427 0.250000 1.004684
v -1.080427 -0.250000 0.416112
v -1.080427 0.250000 0.416112
v 0.433859 -0.250000 0.416112
v 0.433859 0.250000 0.416112
v 0.696716 -0.250000 -0.235316
v 0.696716 0.250000 -0.235316
v 1.331002 -0.250000 -0.235316
v 1.331002 0.250000 -0.235316
vn -0.0000 1.0000 -0.0000
vn -0.0000 -1.0000 -0.0000
vn 0.5595 -0.0000 0.8289
vn 0.8288 -0.0000 -0.5595
vn -0.8308 -0.0000 0.5566
vn -0.5566 -0.0000 -0.8308
vn -0.8300 -0.0000 0.5578
vn 0.5595 -0.0000 0.8288
vn -0.5579 -0.0000 -0.8299
vn -0.8299 -0.0000 0.5579
vn -0.5594 -0.0000 -0.8289
vn 0.8289 -0.0000 -0.5595
vt 0.333333 0.000000
vt 0.222222 0.000000
vt 0.111111 0.000000
vt 0.444444 0.000000
vt 1.000000 0.000000
vt 0.777778 0.000000
vt 0.888889 0.000000
vt 0.555556 0.000000
vt 0.666667 0.000000
vt 0.000000 0.000000
vt 0.250000 1.000000
vt 0.000000 1.000000
vt 0.500000 1.000000
vt 0.250000 0.000000
vt 0.750000 1.000000
vt 0.500000 0.000000
vt 1.000000 1.000000
vt 0.750000 0.000000
vt 0.166667 1.000000
vt 0.333333 1.000000
vt 0.166667 0.000000
vt 0.666667 1.000000
vt 0.833333 1.000000
vt 0.833333 0.000000
s 0
usemtl TitleLogo.001
f 4/1/1 3/2/1 2/3/1
f 5/4/1 10/5/1 8/6/1
f 10/5/1 9/7/1 8/6/1
f 5/4/1 8/6/1 6/8/1
f 7/9/1 6/8/1 8/6/1
f 4/1/1 2/3/1 1/10/1
f 14/1/2 12/3/2 13/2/2
f 15/4/2 18/6/2 20/5/2
f 20/5/2 18/6/2 19/7/2
f 15/4/2 16/8/2 18/6/2
f 17/9/2 18/6/2 16/8/2
f 14/1/2 11/10/2 12/3/2
s 1
f 24/11/3 21/10/4 22/12/4
f 26/13/5 23/14/3 24/11/3
f 28/15/6 25/16/5 26/13/5
f 22/17/4 27/18/6 28/15/6
f 32/19/7 29/10/8 30/12/8
f 34/20/9 31/21/10 32/19/7
f 36/13/11 33/1/9 34/20/9
f 38/22/11 35/16/11 36/13/11
f 40/23/4 37/9/11 38/22/11
f 30/17/8 39/24/12 40/23/4
f 24/11/3 23/14/3 21/10/4
f 26/13/5 25/16/5 23/14/3
f 28/15/6 27/18/6 25/16/5
f 22/17/4 21/5/4 27/18/6
f 32/19/7 31/21/10 29/10/8
f 34/20/9 33/1/9 31/21/10
f 36/13/11 35/16/11 33/1/9
f 38/22/11 37/9/11 35/16/11
f 40/23/4 39/24/12 37/9/11
f 30/17/8 29/5/8 39/24/12
