{
	"asset":{
		"generator":"Khronos glTF Blender I/O v5.2.40",
		"version":"2.0"
	},
	"scene":0,
	"scenes":[
		{
			"name":"Scene",
			"nodes":[
				0
			]
		}
	],
	"nodes":[
		{
			"mesh":0,
			"name":"Main",
			"translation":[
				0,
				1.6876720190048218,
				0
			]
		}
	],
	"materials":[
		{
			"doubleSided":true,
			"name":"Metaric",
			"pbrMetallicRoughness":{
				"baseColorTexture":{
					"index":0
				},
				"metallicFactor":0.7846153974533081,
				"roughnessFactor":0.20000000298023224
			}
		}
	],
	"meshes":[
		{
			"name":"Sphere",
			"primitives":[
				{
					"attributes":{
						"POSITION":0,
						"NORMAL":1,
						"TEXCOORD_0":2,
						"TEXCOORD_1":3
					},
					"indices":4,
					"material":0
				}
			]
		}
	],
	"textures":[
		{
			"sampler":0,
			"source":0
		}
	],
	"images":[
		{
			"mimeType":"image/png",
			"name":"Rocket",
			"uri":"Rocket.png"
		}
	],
	"accessors":[
		{
			"bufferView":0,
			"componentType":5126,
			"count":14061,
			"max":[
				1.3494386672973633,
				2.73191499710083,
				1.4132697582244873
			],
			"min":[
				-1.4892349243164062,
				-1.914246678352356,
				-1.6124789714813232
			],
			"type":"VEC3"
		},
		{
			"bufferView":1,
			"componentType":5126,
			"count":14061,
			"type":"VEC3"
		},
		{
			"bufferView":2,
			"componentType":5126,
			"count":14061,
			"type":"VEC2"
		},
		{
			"bufferView":3,
			"componentType":5126,
			"count":14061,
			"type":"VEC2"
		},
		{
			"bufferView":4,
			"componentType":5123,
			"count":23232,
			"type":"SCALAR"
		}
	],
	"bufferViews":[
		{
			"buffer":0,
			"byteLength":168732,
			"byteOffset":0,
			"target":34962
		},
		{
			"buffer":0,
			"byteLength":168732,
			"byteOffset":168732,
			"target":34962
		},
		{
			"buffer":0,
			"byteLength":112488,
			"byteOffset":337464,
			"target":34962
		},
		{
			"buffer":0,
			"byteLength":112488,
			"byteOffset":449952,
			"target":34962
		},
		{
			"buffer":0,
			"byteLength":46464,
			"byteOffset":562440,
			"target":34963
		}
	],
	"samplers":[
		{
			"magFilter":9729,
			"minFilter":9987
		}
	],
	"buffers":[
		{
			"byteLength":608904,
			"uri":"Rocket.bin"
		}
	]
}
