{
	"asset":{
		"generator":"Khronos glTF Blender I/O v4.4.56",
		"version":"2.0"
	},
	"scene":0,
	"scenes":[
		{
			"name":"Scene",
			"nodes":[
				0
			]
		}
	],
	"nodes":[
		{
			"mesh":0,
			"name":"\u7acb\u65b9\u4f53"
		}
	],
	"materials":[
		{
			"doubleSided":true,
			"name":"\u30de\u30c6\u30ea\u30a2\u30eb.001"
		}
	],
	"meshes":[
		{
			"name":"\u7acb\u65b9\u4f53.001",
			"primitives":[
				{
					"attributes":{
						"POSITION":0,
						"NORMAL":1,
						"TEXCOORD_0":2
					},
					"indices":3,
					"material":0
				}
			]
		}
	],
	"accessors":[
		{
			"bufferView":0,
			"componentType":5126,
			"count":870,
			"max":[
				1.3984882831573486,
				1.447462558746338,
				1.3964210748672485
			],
			"min":[
				-1.485409140586853,
				-1.330234169960022,
				-1.2909934520721436
			],
			"type":"VEC3"
		},
		{
			"bufferView":1,
			"componentType":5126,
			"count":870,
			"type":"VEC3"
		},
		{
			"bufferView":2,
			"componentType":5126,
			"count":870,
			"type":"VEC2"
		},
		{
			"bufferView":3,
			"componentType":5123,
			"count":4356,
			"type":"SCALAR"
		}
	],
	"bufferViews":[
		{
			"buffer":0,
			"byteLength":10440,
			"byteOffset":0,
			"target":34962
		},
		{
			"buffer":0,
			"byteLength":10440,
			"byteOffset":10440,
			"target":34962
		},
		{
			"buffer":0,
			"byteLength":6960,
			"byteOffset":20880,
			"target":34962
		},
		{
			"buffer":0,
			"byteLength":8712,
			"byteOffset":27840,
			"target":34963
		}
	],
	"buffers":[
		{
			"byteLength":36552,
			"uri":"ice_lowPolygon.bin"
		}
	]
}
