# Blender 5.2.1 LTS
# www.blender.org
mtllib tutorialText15.mtl
o 球
v -6.234906 0.010971 0.084507
v -6.234906 0.010971 0.084507
v -6.234906 0.010971 0.084507
v -6.234906 0.010971 0.084507
v -6.234906 0.010971 0.084507
v -6.234906 0.010971 0.084507
v -6.179662 0.007172 0.279923
v -6.179662 0.007172 0.279923
v -6.179662 0.007172 0.279923
v -6.179662 0.007172 0.279923
v -6.179662 0.007172 0.279923
v -6.179662 0.007172 0.279923
v -6.114377 0.130610 0.239267
v -6.114377 0.130610 0.239267
v -6.114377 0.130610 0.239267
v -6.114377 0.130610 0.239267
v -6.114377 0.130610 0.239267
v -6.019157 0.084344 0.401208
v -6.019157 0.084344 0.401208
v -6.019157 0.084344 0.401208
v -6.019157 0.084344 0.401208
v -6.019157 0.084344 0.401208
v -6.019157 0.084344 0.401208
v -5.986935 0.213440 0.123646
v -5.986935 0.213440 0.123646
v -5.986935 0.213440 0.123646
v -5.986935 0.213440 0.123646
v -5.890007 0.196793 0.291164
v -5.890007 0.196793 0.291164
v -5.890007 0.196793 0.291164
v -5.890007 0.196793 0.291164
v -5.890007 0.196793 0.291164
v -5.890007 0.196793 0.291164
v -5.868332 0.036926 0.475014
v -5.868332 0.036926 0.475014
v -5.868332 0.036926 0.475014
v -5.868332 0.036926 0.475014
v -5.868332 0.036926 0.475014
v -6.219130 0.005731 -0.076962
v -6.219130 0.005731 -0.076962
v -6.219130 0.005731 -0.076962
v -6.219130 0.005731 -0.076962
v -6.219130 0.005731 -0.076962
v -6.156122 0.132879 0.020558
v -6.156122 0.132879 0.020558
v -6.156122 0.132879 0.020558
v -6.156122 0.132879 0.020558
v -6.156122 0.132879 0.020558
v -6.156122 0.132879 0.020558
v -6.122789 0.119974 -0.145936
v -6.122789 0.119974 -0.145936
v -6.122789 0.119974 -0.145936
v -6.122789 0.119974 -0.145936
v -6.122789 0.119974 -0.145936
v -6.122789 0.119974 -0.145936
v -6.084849 0.076441 -0.277490
v -6.084849 0.076441 -0.277490
v -6.084849 0.076441 -0.277490
v -6.084849 0.076441 -0.277490
v -6.084849 0.076441 -0.277490
v -6.084849 0.076441 -0.277490
v -6.084849 0.076441 -0.277490
v -5.953003 0.177183 -0.219968
v -5.953003 0.177183 -0.219968
v -5.953003 0.177183 -0.219968
v -5.953003 0.177183 -0.219968
v -5.953003 0.177183 -0.219968
v -5.918394 0.222392 -0.024005
v -5.918394 0.222392 -0.024005
v -5.918394 0.222392 -0.024005
v -5.918394 0.222392 -0.024005
v -5.918394 0.222392 -0.024005
v -5.918394 0.222392 -0.024005
v -5.918394 0.222392 -0.024005
v -5.888577 0.132601 -0.354621
v -5.888577 0.132601 -0.354621
v -5.888577 0.132601 -0.354621
v -5.888577 0.132601 -0.354621
v -5.888577 0.132601 -0.354621
v -5.888577 0.132601 -0.354621
v -5.888577 0.132601 -0.354621
v -5.962083 0.052364 -0.449084
v -5.962083 0.052364 -0.449084
v -5.962083 0.052364 -0.449084
v -5.962083 0.052364 -0.449084
v -5.875907 0.020801 -0.495724
v -5.875907 0.020801 -0.495724
v -5.875907 0.020801 -0.495724
v -5.875907 0.020801 -0.495724
v -5.875907 0.020801 -0.495724
v -5.875907 0.020801 -0.495724
v -5.875907 0.020801 -0.495724
v -5.875907 0.020801 -0.495724
v -6.171758 -0.082964 0.241307
v -6.171758 -0.082964 0.241307
v -6.171758 -0.082964 0.241307
v -6.171758 -0.082964 0.241307
v -6.171758 -0.082964 0.241307
v -6.171758 -0.082964 0.241307
v -6.129968 -0.152097 0.147027
v -6.129968 -0.152097 0.147027
v -6.129968 -0.152097 0.147027
v -6.129968 -0.152097 0.147027
v -6.129968 -0.152097 0.147027
v -6.040503 -0.035879 0.417667
v -6.040503 -0.035879 0.417667
v -6.040503 -0.035879 0.417667
v -6.040503 -0.035879 0.417667
v -6.040503 -0.035879 0.417667
v -6.040503 -0.035879 0.417667
v -6.024806 -0.124237 0.362116
v -6.024806 -0.124237 0.362116
v -6.024806 -0.124237 0.362116
v -6.024806 -0.124237 0.362116
v -6.024806 -0.124237 0.362116
v -6.024806 -0.124237 0.362116
v -5.991432 -0.190863 0.249927
v -5.991432 -0.190863 0.249927
v -5.991432 -0.190863 0.249927
v -5.991432 -0.190863 0.249927
v -5.991432 -0.190863 0.249927
v -5.991432 -0.190863 0.249927
v -5.995553 -0.215670 0.067085
v -5.995553 -0.215670 0.067085
v -5.995553 -0.215670 0.067085
v -5.995553 -0.215670 0.067085
v -5.863902 -0.070953 0.463308
v -5.863902 -0.070953 0.463308
v -5.863902 -0.070953 0.463308
v -5.863902 -0.070953 0.463308
v -5.863902 -0.070953 0.463308
v -5.863902 -0.070953 0.463308
v -5.860526 -0.217959 0.219857
v -5.860526 -0.217959 0.219857
v -5.860526 -0.217959 0.219857
v -5.860526 -0.217959 0.219857
v -5.860526 -0.217959 0.219857
v -5.860526 -0.217959 0.219857
v -6.213720 -0.077793 0.031545
v -6.213720 -0.077793 0.031545
v -6.213720 -0.077793 0.031545
v -6.213720 -0.077793 0.031545
v -6.213720 -0.077793 0.031545
v -6.213720 -0.077793 0.031545
v -6.213720 -0.077793 0.031545
v -6.167336 -0.037711 -0.191327
v -6.167336 -0.037711 -0.191327
v -6.167336 -0.037711 -0.191327
v -6.167336 -0.037711 -0.191327
v -6.167336 -0.037711 -0.191327
v -6.167336 -0.037711 -0.191327
v -6.137313 -0.102779 -0.174537
v -6.137313 -0.102779 -0.174537
v -6.137313 -0.102779 -0.174537
v -6.137313 -0.102779 -0.174537
v -6.137313 -0.102779 -0.174537
v -6.137313 -0.102779 -0.174537
v -6.125364 -0.151021 -0.039551
v -6.125364 -0.151021 -0.039551
v -6.125364 -0.151021 -0.039551
v -6.125364 -0.151021 -0.039551
v -6.125364 -0.151021 -0.039551
v -6.125364 -0.151021 -0.039551
v -6.125364 -0.151021 -0.039551
v -6.125364 -0.151021 -0.039551
v -6.125364 -0.151021 -0.039551
v -6.060524 -0.021897 -0.359544
v -6.060524 -0.021897 -0.359544
v -6.060524 -0.021897 -0.359544
v -6.060524 -0.021897 -0.359544
v -6.060524 -0.021897 -0.359544
v -6.060524 -0.021897 -0.359544
v -6.060524 -0.021897 -0.359544
v -6.057484 -0.123245 -0.252508
v -6.057484 -0.123245 -0.252508
v -6.057484 -0.123245 -0.252508
v -6.057484 -0.123245 -0.252508
v -6.057484 -0.123245 -0.252508
v -6.057484 -0.123245 -0.252508
v -6.014146 -0.178552 -0.163973
v -6.014146 -0.178552 -0.163973
v -6.014146 -0.178552 -0.163973
v -6.014146 -0.178552 -0.163973
v -6.014146 -0.178552 -0.163973
v -5.958807 -0.094653 -0.397012
v -5.958807 -0.094653 -0.397012
v -5.958807 -0.094653 -0.397012
v -5.958807 -0.094653 -0.397012
v -5.958807 -0.094653 -0.397012
v -5.915277 -0.165556 -0.275004
v -5.915277 -0.165556 -0.275004
v -5.915277 -0.165556 -0.275004
v -5.915277 -0.165556 -0.275004
v -5.915277 -0.165556 -0.275004
v -5.915277 -0.165556 -0.275004
v -5.910810 -0.223030 -0.038473
v -5.910810 -0.223030 -0.038473
v -5.910810 -0.223030 -0.038473
v -5.910810 -0.223030 -0.038473
v -5.910810 -0.223030 -0.038473
v -5.910810 -0.223030 -0.038473
v -5.910810 -0.223030 -0.038473
v -5.847416 -0.205492 -0.170763
v -5.847416 -0.205492 -0.170763
v -5.847416 -0.205492 -0.170763
v -5.847416 -0.205492 -0.170763
v -5.847416 -0.205492 -0.170763
v -5.783152 0.155338 0.374352
v -5.783152 0.155338 0.374352
v -5.783152 0.155338 0.374352
v -5.783152 0.155338 0.374352
v -5.783152 0.155338 0.374352
v -5.783152 0.155338 0.374352
v -5.783152 0.155338 0.374352
v -5.755824 0.227898 0.133025
v -5.755824 0.227898 0.133025
v -5.755824 0.227898 0.133025
v -5.755824 0.227898 0.133025
v -5.755824 0.227898 0.133025
v -5.755824 0.227898 0.133025
v -5.715298 0.070315 0.447442
v -5.715298 0.070315 0.447442
v -5.715298 0.070315 0.447442
v -5.715298 0.070315 0.447442
v -5.715298 0.070315 0.447442
v -5.651840 0.188098 0.241802
v -5.651840 0.188098 0.241802
v -5.651840 0.188098 0.241802
v -5.651840 0.188098 0.241802
v -5.651840 0.188098 0.241802
v -5.651840 0.188098 0.241802
v -5.571814 0.131832 0.299827
v -5.571814 0.131832 0.299827
v -5.571814 0.131832 0.299827
v -5.571814 0.131832 0.299827
v -5.589209 0.070540 0.377946
v -5.589209 0.070540 0.377946
v -5.589209 0.070540 0.377946
v -5.589209 0.070540 0.377946
v -5.589209 0.070540 0.377946
v -5.589209 0.070540 0.377946
v -5.589209 0.070540 0.377946
v -5.552933 0.163869 0.148637
v -5.552933 0.163869 0.148637
v -5.552933 0.163869 0.148637
v -5.552933 0.163869 0.148637
v -5.552933 0.163869 0.148637
v -5.490706 0.097448 0.214553
v -5.490706 0.097448 0.214553
v -5.490706 0.097448 0.214553
v -5.490706 0.097448 0.214553
v -5.490706 0.097448 0.214553
v -5.490706 0.097448 0.214553
v -5.439052 0.050482 0.097931
v -5.439052 0.050482 0.097931
v -5.439052 0.050482 0.097931
v -5.439052 0.050482 0.097931
v -5.439052 0.050482 0.097931
v -5.775311 0.211533 -0.126708
v -5.775311 0.211533 -0.126708
v -5.775311 0.211533 -0.126708
v -5.775311 0.211533 -0.126708
v -5.775311 0.211533 -0.126708
v -5.775311 0.211533 -0.126708
v -5.775311 0.211533 -0.126708
v -5.728186 0.159120 -0.282893
v -5.728186 0.159120 -0.282893
v -5.728186 0.159120 -0.282893
v -5.728186 0.159120 -0.282893
v -5.728186 0.159120 -0.282893
v -5.742762 0.101714 -0.409120
v -5.742762 0.101714 -0.409120
v -5.742762 0.101714 -0.409120
v -5.742762 0.101714 -0.409120
v -5.742762 0.101714 -0.409120
v -5.742762 0.101714 -0.409120
v -5.635950 0.204709 0.012150
v -5.635950 0.204709 0.012150
v -5.635950 0.204709 0.012150
v -5.635950 0.204709 0.012150
v -5.635950 0.204709 0.012150
v -5.635950 0.204709 0.012150
v -5.647558 0.167220 -0.191316
v -5.647558 0.167220 -0.191316
v -5.647558 0.167220 -0.191316
v -5.647558 0.167220 -0.191316
v -5.647558 0.167220 -0.191316
v -5.647558 0.167220 -0.191316
v -5.645699 0.042394 -0.405557
v -5.645699 0.042394 -0.405557
v -5.645699 0.042394 -0.405557
v -5.645699 0.042394 -0.405557
v -5.645699 0.042394 -0.405557
v -5.607985 0.107134 -0.283825
v -5.607985 0.107134 -0.283825
v -5.607985 0.107134 -0.283825
v -5.607985 0.107134 -0.283825
v -5.607985 0.107134 -0.283825
v -5.607985 0.107134 -0.283825
v -5.607985 0.107134 -0.283825
v -5.562276 0.030674 -0.308679
v -5.562276 0.030674 -0.308679
v -5.562276 0.030674 -0.308679
v -5.562276 0.030674 -0.308679
v -5.517181 0.137376 -0.033127
v -5.517181 0.137376 -0.033127
v -5.517181 0.137376 -0.033127
v -5.517181 0.137376 -0.033127
v -5.517181 0.137376 -0.033127
v -5.517181 0.137376 -0.033127
v -5.517181 0.137376 -0.033127
v -5.498974 0.074297 -0.162729
v -5.498974 0.074297 -0.162729
v -5.498974 0.074297 -0.162729
v -5.498974 0.074297 -0.162729
v -5.498974 0.074297 -0.162729
v -5.762901 0.030398 -0.510459
v -5.762901 0.030398 -0.510459
v -5.762901 0.030398 -0.510459
v -5.762901 0.030398 -0.510459
v -5.762901 0.030398 -0.510459
v -5.791798 -0.129068 0.410465
v -5.791798 -0.129068 0.410465
v -5.791798 -0.129068 0.410465
v -5.791798 -0.129068 0.410465
v -5.791798 -0.129068 0.410465
v -5.791798 -0.129068 0.410465
v -5.791798 -0.129068 0.410465
v -5.708637 -0.218279 0.163278
v -5.708637 -0.218279 0.163278
v -5.708637 -0.218279 0.163278
v -5.708637 -0.218279 0.163278
v -5.708637 -0.218279 0.163278
v -5.680370 -0.013127 0.454854
v -5.680370 -0.013127 0.454854
v -5.680370 -0.013127 0.454854
v -5.680370 -0.013127 0.454854
v -5.680370 -0.013127 0.454854
v -5.680370 -0.013127 0.454854
v -5.684160 -0.178789 0.296546
v -5.684160 -0.178789 0.296546
v -5.684160 -0.178789 0.296546
v -5.684160 -0.178789 0.296546
v -5.684160 -0.178789 0.296546
v -5.635351 -0.112209 0.381332
v -5.635351 -0.112209 0.381332
v -5.635351 -0.112209 0.381332
v -5.635351 -0.112209 0.381332
v -5.635351 -0.112209 0.381332
v -5.635351 -0.112209 0.381332
v -5.563272 -0.159194 0.195780
v -5.563272 -0.159194 0.195780
v -5.563272 -0.159194 0.195780
v -5.563272 -0.159194 0.195780
v -5.563272 -0.159194 0.195780
v -5.563272 -0.159194 0.195780
v -5.563272 -0.159194 0.195780
v -5.563272 -0.159194 0.195780
v -5.525520 -0.026577 0.334798
v -5.525520 -0.026577 0.334798
v -5.525520 -0.026577 0.334798
v -5.525520 -0.026577 0.334798
v -5.525520 -0.026577 0.334798
v -5.525520 -0.026577 0.334798
v -5.525520 -0.026577 0.334798
v -5.500238 -0.089098 0.259754
v -5.500238 -0.089098 0.259754
v -5.500238 -0.089098 0.259754
v -5.500238 -0.089098 0.259754
v -5.500238 -0.089098 0.259754
v -5.460995 -0.086709 0.149010
v -5.460995 -0.086709 0.149010
v -5.460995 -0.086709 0.149010
v -5.460995 -0.086709 0.149010
v -5.460995 -0.086709 0.149010
v -5.442571 -0.014220 0.194355
v -5.442571 -0.014220 0.194355
v -5.442571 -0.014220 0.194355
v -5.442571 -0.014220 0.194355
v -5.442571 -0.014220 0.194355
v -5.815927 -0.110569 -0.411559
v -5.815927 -0.110569 -0.411559
v -5.815927 -0.110569 -0.411559
v -5.815927 -0.110569 -0.411559
v -5.815927 -0.110569 -0.411559
v -5.815927 -0.110569 -0.411559
v -5.747333 -0.174560 -0.249501
v -5.747333 -0.174560 -0.249501
v -5.747333 -0.174560 -0.249501
v -5.747333 -0.174560 -0.249501
v -5.747333 -0.174560 -0.249501
v -5.747333 -0.174560 -0.249501
v -5.747333 -0.174560 -0.249501
v -5.697592 -0.216930 -0.019354
v -5.697592 -0.216930 -0.019354
v -5.697592 -0.216930 -0.019354
v -5.697592 -0.216930 -0.019354
v -5.697592 -0.216930 -0.019354
v -5.697592 -0.216930 -0.019354
v -5.697592 -0.216930 -0.019354
v -5.697592 -0.216930 -0.019354
v -5.668124 -0.112566 -0.339636
v -5.668124 -0.112566 -0.339636
v -5.668124 -0.112566 -0.339636
v -5.668124 -0.112566 -0.339636
v -5.668124 -0.112566 -0.339636
v -5.657023 -0.194235 -0.113417
v -5.657023 -0.194235 -0.113417
v -5.657023 -0.194235 -0.113417
v -5.657023 -0.194235 -0.113417
v -5.632807 -0.029687 -0.391488
v -5.632807 -0.029687 -0.391488
v -5.632807 -0.029687 -0.391488
v -5.632807 -0.029687 -0.391488
v -5.632807 -0.029687 -0.391488
v -5.632807 -0.029687 -0.391488
v -5.632807 -0.029687 -0.391488
v -5.632807 -0.029687 -0.391488
v -5.601687 -0.138191 -0.204898
v -5.601687 -0.138191 -0.204898
v -5.601687 -0.138191 -0.204898
v -5.601687 -0.138191 -0.204898
v -5.601687 -0.138191 -0.204898
v -5.601687 -0.138191 -0.204898
v -5.601687 -0.138191 -0.204898
v -5.575292 -0.171732 -0.073999
v -5.575292 -0.171732 -0.073999
v -5.575292 -0.171732 -0.073999
v -5.575292 -0.171732 -0.073999
v -5.575292 -0.171732 -0.073999
v -5.575292 -0.171732 -0.073999
v -5.555909 -0.077659 -0.294128
v -5.555909 -0.077659 -0.294128
v -5.555909 -0.077659 -0.294128
v -5.555909 -0.077659 -0.294128
v -5.562858 -0.177647 0.022388
v -5.562858 -0.177647 0.022388
v -5.562858 -0.177647 0.022388
v -5.562858 -0.177647 0.022388
v -5.524330 -0.096298 -0.174680
v -5.524330 -0.096298 -0.174680
v -5.524330 -0.096298 -0.174680
v -5.524330 -0.096298 -0.174680
v -5.524330 -0.096298 -0.174680
v -5.500478 -0.012464 -0.204889
v -5.500478 -0.012464 -0.204889
v -5.500478 -0.012464 -0.204889
v -5.500478 -0.012464 -0.204889
v -5.500478 -0.012464 -0.204889
v -5.500478 -0.012464 -0.204889
v -5.500478 -0.012464 -0.204889
v -5.500478 -0.012464 -0.204889
v -5.488666 -0.117328 -0.007493
v -5.488666 -0.117328 -0.007493
v -5.488666 -0.117328 -0.007493
v -5.488666 -0.117328 -0.007493
v -5.488666 -0.117328 -0.007493
v -5.488666 -0.117328 -0.007493
v -5.488666 -0.117328 -0.007493
v -5.438075 -0.005404 -0.017487
v -5.438075 -0.005404 -0.017487
v -5.438075 -0.005404 -0.017487
v -5.438075 -0.005404 -0.017487
v -5.438075 -0.005404 -0.017487
v -5.438075 -0.005404 -0.017487
v -5.438075 -0.005404 -0.017487
v -5.767343 -0.037877 -0.498765
v -5.767343 -0.037877 -0.498765
v -5.767343 -0.037877 -0.498765
v -5.767343 -0.037877 -0.498765
v -5.767343 -0.037877 -0.498765
v -5.922826 0.232177 -0.165787
v -5.922826 0.232177 -0.165787
v -5.922826 0.232177 -0.165787
v -5.922826 0.270651 -0.165787
v -5.922826 0.270651 -0.165787
v -5.922826 0.270651 -0.165787
v -5.911991 0.232177 -0.163796
v -5.911991 0.232177 -0.163796
v -5.911991 0.232177 -0.163796
v -5.911991 0.270651 -0.163796
v -5.911991 0.270651 -0.163796
v -5.911991 0.270651 -0.163796
v -5.901572 0.232177 -0.157900
v -5.901572 0.232177 -0.157900
v -5.901572 0.232177 -0.157900
v -5.901572 0.270651 -0.157900
v -5.901572 0.270651 -0.157900
v -5.901572 0.270651 -0.157900
v -5.891971 0.232177 -0.148324
v -5.891971 0.232177 -0.148324
v -5.891971 0.232177 -0.148324
v -5.891971 0.270651 -0.148324
v -5.891971 0.270651 -0.148324
v -5.891971 0.270651 -0.148324
v -5.883554 0.232177 -0.135439
v -5.883554 0.232177 -0.135439
v -5.883554 0.232177 -0.135439
v -5.883554 0.270651 -0.135439
v -5.883554 0.270651 -0.135439
v -5.883554 0.270651 -0.135439
v -5.876647 0.232177 -0.119737
v -5.876647 0.232177 -0.119737
v -5.876647 0.232177 -0.119737
v -5.876647 0.270651 -0.119737
v -5.876647 0.270651 -0.119737
v -5.876647 0.270651 -0.119737
v -5.871515 0.232177 -0.101824
v -5.871515 0.232177 -0.101824
v -5.871515 0.232177 -0.101824
v -5.871515 0.270651 -0.101824
v -5.871515 0.270651 -0.101824
v -5.871515 0.270651 -0.101824
v -5.868355 0.232177 -0.082386
v -5.868355 0.232177 -0.082386
v -5.868355 0.232177 -0.082386
v -5.868355 0.270651 -0.082386
v -5.868355 0.270651 -0.082386
v -5.868355 0.270651 -0.082386
v -5.867288 0.232177 -0.062172
v -5.867288 0.232177 -0.062172
v -5.867288 0.232177 -0.062172
v -5.867288 0.270651 -0.062172
v -5.867288 0.270651 -0.062172
v -5.867288 0.270651 -0.062172
v -5.868355 0.232177 -0.041957
v -5.868355 0.232177 -0.041957
v -5.868355 0.232177 -0.041957
v -5.868355 0.270651 -0.041957
v -5.868355 0.270651 -0.041957
v -5.868355 0.270651 -0.041957
v -5.871515 0.232177 -0.022520
v -5.871515 0.232177 -0.022520
v -5.871515 0.232177 -0.022520
v -5.871515 0.270651 -0.022520
v -5.871515 0.270651 -0.022520
v -5.871515 0.270651 -0.022520
v -5.876647 0.232177 -0.004607
v -5.876647 0.232177 -0.004607
v -5.876647 0.232177 -0.004607
v -5.876647 0.270651 -0.004607
v -5.876647 0.270651 -0.004607
v -5.876647 0.270651 -0.004607
v -5.883554 0.232177 0.011095
v -5.883554 0.232177 0.011095
v -5.883554 0.232177 0.011095
v -5.883554 0.270651 0.011095
v -5.883554 0.270651 0.011095
v -5.883554 0.270651 0.011095
v -5.891971 0.232177 0.023981
v -5.891971 0.232177 0.023981
v -5.891971 0.232177 0.023981
v -5.891971 0.270651 0.023981
v -5.891971 0.270651 0.023981
v -5.891971 0.270651 0.023981
v -5.901572 0.232177 0.033556
v -5.901572 0.232177 0.033556
v -5.901572 0.232177 0.033556
v -5.901572 0.270651 0.033556
v -5.901572 0.270651 0.033556
v -5.901572 0.270651 0.033556
v -5.911991 0.232177 0.039452
v -5.911991 0.232177 0.039452
v -5.911991 0.232177 0.039452
v -5.911991 0.270651 0.039452
v -5.911991 0.270651 0.039452
v -5.911991 0.270651 0.039452
v -5.922826 0.232177 0.041443
v -5.922826 0.232177 0.041443
v -5.922826 0.232177 0.041443
v -5.922826 0.270651 0.041443
v -5.922826 0.270651 0.041443
v -5.922826 0.270651 0.041443
v -5.933661 0.232177 0.039452
v -5.933661 0.232177 0.039452
v -5.933661 0.232177 0.039452
v -5.933661 0.270651 0.039452
v -5.933661 0.270651 0.039452
v -5.933661 0.270651 0.039452
v -5.944079 0.232177 0.033556
v -5.944079 0.232177 0.033556
v -5.944079 0.232177 0.033556
v -5.944079 0.270651 0.033556
v -5.944079 0.270651 0.033556
v -5.944079 0.270651 0.033556
v -5.953681 0.232177 0.023981
v -5.953681 0.232177 0.023981
v -5.953681 0.232177 0.023981
v -5.953681 0.270651 0.023981
v -5.953681 0.270651 0.023981
v -5.953681 0.270651 0.023981
v -5.962098 0.232177 0.011095
v -5.962098 0.232177 0.011095
v -5.962098 0.232177 0.011095
v -5.962098 0.270651 0.011095
v -5.962098 0.270651 0.011095
v -5.962098 0.270651 0.011095
v -5.969005 0.232177 -0.004607
v -5.969005 0.232177 -0.004607
v -5.969005 0.232177 -0.004607
v -5.969005 0.270651 -0.004607
v -5.969005 0.270651 -0.004607
v -5.969005 0.270651 -0.004607
v -5.974136 0.232177 -0.022520
v -5.974136 0.232177 -0.022520
v -5.974136 0.232177 -0.022520
v -5.974136 0.270651 -0.022520
v -5.974136 0.270651 -0.022520
v -5.974136 0.270651 -0.022520
v -5.977297 0.232177 -0.041957
v -5.977297 0.232177 -0.041957
v -5.977297 0.232177 -0.041957
v -5.977297 0.270651 -0.041957
v -5.977297 0.270651 -0.041957
v -5.977297 0.270651 -0.041957
v -5.978364 0.232177 -0.062172
v -5.978364 0.232177 -0.062172
v -5.978364 0.232177 -0.062172
v -5.978364 0.270651 -0.062172
v -5.978364 0.270651 -0.062172
v -5.978364 0.270651 -0.062172
v -5.977297 0.232177 -0.082386
v -5.977297 0.232177 -0.082386
v -5.977297 0.232177 -0.082386
v -5.977297 0.270651 -0.082386
v -5.977297 0.270651 -0.082386
v -5.977297 0.270651 -0.082386
v -5.974136 0.232177 -0.101824
v -5.974136 0.232177 -0.101824
v -5.974136 0.232177 -0.101824
v -5.974136 0.270651 -0.101824
v -5.974136 0.270651 -0.101824
v -5.974136 0.270651 -0.101824
v -5.969005 0.232177 -0.119737
v -5.969005 0.232177 -0.119737
v -5.969005 0.232177 -0.119737
v -5.969005 0.270651 -0.119737
v -5.969005 0.270651 -0.119737
v -5.969005 0.270651 -0.119737
v -5.962098 0.232177 -0.135439
v -5.962098 0.232177 -0.135439
v -5.962098 0.232177 -0.135439
v -5.962098 0.270651 -0.135439
v -5.962098 0.270651 -0.135439
v -5.962098 0.270651 -0.135439
v -5.953681 0.232177 -0.148324
v -5.953681 0.232177 -0.148324
v -5.953681 0.232177 -0.148324
v -5.953681 0.270651 -0.148324
v -5.953681 0.270651 -0.148324
v -5.953681 0.270651 -0.148324
v -5.944079 0.232177 -0.157900
v -5.944079 0.232177 -0.157900
v -5.944079 0.232177 -0.157900
v -5.944079 0.270651 -0.157900
v -5.944079 0.270651 -0.157900
v -5.944079 0.270651 -0.157900
v -5.933661 0.232177 -0.163796
v -5.933661 0.232177 -0.163796
v -5.933661 0.232177 -0.163796
v -5.933661 0.270651 -0.163796
v -5.933661 0.270651 -0.163796
v -5.933661 0.270651 -0.163796
v -5.712394 0.232177 -0.165787
v -5.712394 0.232177 -0.165787
v -5.712394 0.232177 -0.165787
v -5.712394 0.270651 -0.165787
v -5.712394 0.270651 -0.165787
v -5.712394 0.270651 -0.165787
v -5.701559 0.232177 -0.163796
v -5.701559 0.232177 -0.163796
v -5.701559 0.232177 -0.163796
v -5.701559 0.270651 -0.163796
v -5.701559 0.270651 -0.163796
v -5.701559 0.270651 -0.163796
v -5.691140 0.232177 -0.157900
v -5.691140 0.232177 -0.157900
v -5.691140 0.232177 -0.157900
v -5.691140 0.270651 -0.157900
v -5.691140 0.270651 -0.157900
v -5.691140 0.270651 -0.157900
v -5.681538 0.232177 -0.148324
v -5.681538 0.232177 -0.148324
v -5.681538 0.232177 -0.148324
v -5.681538 0.270651 -0.148324
v -5.681538 0.270651 -0.148324
v -5.681538 0.270651 -0.148324
v -5.673122 0.232177 -0.135439
v -5.673122 0.232177 -0.135439
v -5.673122 0.232177 -0.135439
v -5.673122 0.270651 -0.135439
v -5.673122 0.270651 -0.135439
v -5.673122 0.270651 -0.135439
v -5.666215 0.232177 -0.119737
v -5.666215 0.232177 -0.119737
v -5.666215 0.232177 -0.119737
v -5.666215 0.270651 -0.119737
v -5.666215 0.270651 -0.119737
v -5.666215 0.270651 -0.119737
v -5.661083 0.232177 -0.101824
v -5.661083 0.232177 -0.101824
v -5.661083 0.232177 -0.101824
v -5.661083 0.270651 -0.101824
v -5.661083 0.270651 -0.101824
v -5.661083 0.270651 -0.101824
v -5.657922 0.232177 -0.082386
v -5.657922 0.232177 -0.082386
v -5.657922 0.232177 -0.082386
v -5.657922 0.270651 -0.082386
v -5.657922 0.270651 -0.082386
v -5.657922 0.270651 -0.082386
v -5.656855 0.232177 -0.062172
v -5.656855 0.232177 -0.062172
v -5.656855 0.232177 -0.062172
v -5.656855 0.270651 -0.062172
v -5.656855 0.270651 -0.062172
v -5.656855 0.270651 -0.062172
v -5.657922 0.232177 -0.041957
v -5.657922 0.232177 -0.041957
v -5.657922 0.232177 -0.041957
v -5.657922 0.270651 -0.041957
v -5.657922 0.270651 -0.041957
v -5.657922 0.270651 -0.041957
v -5.661083 0.232177 -0.022520
v -5.661083 0.232177 -0.022520
v -5.661083 0.232177 -0.022520
v -5.661083 0.270651 -0.022520
v -5.661083 0.270651 -0.022520
v -5.661083 0.270651 -0.022520
v -5.666215 0.232177 -0.004607
v -5.666215 0.232177 -0.004607
v -5.666215 0.232177 -0.004607
v -5.666215 0.270651 -0.004607
v -5.666215 0.270651 -0.004607
v -5.666215 0.270651 -0.004607
v -5.673122 0.232177 0.011095
v -5.673122 0.232177 0.011095
v -5.673122 0.232177 0.011095
v -5.673122 0.270651 0.011095
v -5.673122 0.270651 0.011095
v -5.673122 0.270651 0.011095
v -5.681538 0.232177 0.023981
v -5.681538 0.232177 0.023981
v -5.681538 0.232177 0.023981
v -5.681538 0.270651 0.023981
v -5.681538 0.270651 0.023981
v -5.681538 0.270651 0.023981
v -5.691140 0.232177 0.033556
v -5.691140 0.232177 0.033556
v -5.691140 0.232177 0.033556
v -5.691140 0.270651 0.033556
v -5.691140 0.270651 0.033556
v -5.691140 0.270651 0.033556
v -5.701559 0.232177 0.039452
v -5.701559 0.232177 0.039452
v -5.701559 0.232177 0.039452
v -5.701559 0.270651 0.039452
v -5.701559 0.270651 0.039452
v -5.701559 0.270651 0.039452
v -5.712394 0.232177 0.041443
v -5.712394 0.232177 0.041443
v -5.712394 0.232177 0.041443
v -5.712394 0.270651 0.041443
v -5.712394 0.270651 0.041443
v -5.712394 0.270651 0.041443
v -5.723229 0.232177 0.039452
v -5.723229 0.232177 0.039452
v -5.723229 0.232177 0.039452
v -5.723229 0.270651 0.039452
v -5.723229 0.270651 0.039452
v -5.723229 0.270651 0.039452
v -5.733647 0.232177 0.033556
v -5.733647 0.232177 0.033556
v -5.733647 0.232177 0.033556
v -5.733647 0.270651 0.033556
v -5.733647 0.270651 0.033556
v -5.733647 0.270651 0.033556
v -5.743249 0.232177 0.023981
v -5.743249 0.232177 0.023981
v -5.743249 0.232177 0.023981
v -5.743249 0.270651 0.023981
v -5.743249 0.270651 0.023981
v -5.743249 0.270651 0.023981
v -5.751666 0.232177 0.011095
v -5.751666 0.232177 0.011095
v -5.751666 0.232177 0.011095
v -5.751666 0.270651 0.011095
v -5.751666 0.270651 0.011095
v -5.751666 0.270651 0.011095
v -5.758572 0.232177 -0.004607
v -5.758572 0.232177 -0.004607
v -5.758572 0.232177 -0.004607
v -5.758572 0.270651 -0.004607
v -5.758572 0.270651 -0.004607
v -5.758572 0.270651 -0.004607
v -5.763704 0.232177 -0.022520
v -5.763704 0.232177 -0.022520
v -5.763704 0.232177 -0.022520
v -5.763704 0.270651 -0.022520
v -5.763704 0.270651 -0.022520
v -5.763704 0.270651 -0.022520
v -5.766865 0.232177 -0.041957
v -5.766865 0.232177 -0.041957
v -5.766865 0.232177 -0.041957
v -5.766865 0.270651 -0.041957
v -5.766865 0.270651 -0.041957
v -5.766865 0.270651 -0.041957
v -5.767932 0.232177 -0.062172
v -5.767932 0.232177 -0.062172
v -5.767932 0.232177 -0.062172
v -5.767932 0.270651 -0.062172
v -5.767932 0.270651 -0.062172
v -5.767932 0.270651 -0.062172
v -5.766865 0.232177 -0.082386
v -5.766865 0.232177 -0.082386
v -5.766865 0.232177 -0.082386
v -5.766865 0.270651 -0.082386
v -5.766865 0.270651 -0.082386
v -5.766865 0.270651 -0.082386
v -5.763704 0.232177 -0.101824
v -5.763704 0.232177 -0.101824
v -5.763704 0.232177 -0.101824
v -5.763704 0.270651 -0.101824
v -5.763704 0.270651 -0.101824
v -5.763704 0.270651 -0.101824
v -5.758572 0.232177 -0.119737
v -5.758572 0.232177 -0.119737
v -5.758572 0.232177 -0.119737
v -5.758572 0.270651 -0.119737
v -5.758572 0.270651 -0.119737
v -5.758572 0.270651 -0.119737
v -5.751666 0.232177 -0.135439
v -5.751666 0.232177 -0.135439
v -5.751666 0.232177 -0.135439
v -5.751666 0.270651 -0.135439
v -5.751666 0.270651 -0.135439
v -5.751666 0.270651 -0.135439
v -5.743249 0.232177 -0.148324
v -5.743249 0.232177 -0.148324
v -5.743249 0.232177 -0.148324
v -5.743249 0.270651 -0.148324
v -5.743249 0.270651 -0.148324
v -5.743249 0.270651 -0.148324
v -5.733647 0.232177 -0.157900
v -5.733647 0.232177 -0.157900
v -5.733647 0.232177 -0.157900
v -5.733647 0.270651 -0.157900
v -5.733647 0.270651 -0.157900
v -5.733647 0.270651 -0.157900
v -5.723229 0.232177 -0.163796
v -5.723229 0.232177 -0.163796
v -5.723229 0.232177 -0.163796
v -5.723229 0.270651 -0.163796
v -5.723229 0.270651 -0.163796
v -5.723229 0.270651 -0.163796
vn -0.7595 0.6097 0.2266
vn -0.8478 0.5034 0.1670
vn -0.6591 0.5257 0.5378
vn -0.6525 0.2153 0.7265
vn -0.4768 0.8733 0.1001
vn -0.3307 0.9010 0.2809
vn -0.3462 0.8285 0.4402
vn -0.3821 0.1916 0.9040
vn 0.0370 0.9963 0.0776
vn -0.1662 0.7806 0.6025
vn -0.1283 0.6943 0.7082
vn -0.1216 0.9884 0.0912
vn -0.7889 0.6069 -0.0968
vn -0.8677 0.4513 -0.2087
vn -0.8072 0.4502 -0.3818
vn -0.8430 0.2495 -0.4766
vn -0.8330 0.2182 -0.5084
vn -0.3724 0.9166 -0.1456
vn -0.3689 0.9223 -0.1153
vn -0.3724 0.9166 -0.1457
vn -0.4432 0.8051 -0.3942
vn -0.7557 0.2992 -0.5826
vn -0.3935 0.8288 -0.3978
vn -0.4059 0.7918 -0.4564
vn -0.0776 0.9744 -0.2111
vn -0.0148 0.9471 -0.3206
vn -0.0513 0.7805 -0.6230
vn -0.0680 0.7790 -0.6233
vn -0.9280 -0.3275 0.1776
vn -0.9447 -0.1956 0.2633
vn -0.7554 -0.6412 0.1353
vn -0.7139 -0.3277 0.6188
vn -0.5091 -0.7860 0.3507
vn -0.6316 -0.4900 0.6009
vn -0.2612 -0.9652 -0.0120
vn -0.5233 -0.8427 0.1261
vn -0.4784 -0.8102 0.3388
vn -0.3096 -0.5449 0.7792
vn -0.2699 -0.1148 0.9560
vn -0.1473 -0.7592 0.6340
vn -0.1178 -0.8688 0.4809
vn -0.1707 -0.9759 0.1362
vn -0.0822 -0.8915 0.4454
vn -0.9795 -0.1802 -0.0899
vn -0.8861 -0.3875 -0.2541
vn -0.8497 -0.4590 -0.2594
vn -0.7097 -0.6810 -0.1806
vn 0.8979 0.4338 0.0755
vn -0.6477 -0.7617 -0.0204
vn -0.7266 -0.4656 -0.5052
vn -0.6469 -0.5628 -0.5146
vn -0.4701 -0.8435 -0.2599
vn -0.5027 -0.8221 -0.2675
vn -0.3170 -0.9455 -0.0741
vn -0.3118 -0.9319 -0.1854
vn -0.6131 -0.5822 -0.5339
vn -0.3186 -0.8661 -0.3851
vn -0.3187 -0.8645 -0.3887
vn -0.1643 -0.9645 -0.2066
vn -0.1643 -0.9521 -0.2578
vn -0.0501 -0.9983 0.0294
vn -0.1443 -0.8771 -0.4582
vn 0.0047 -0.9328 -0.3604
vn 0.0063 -0.9292 -0.3696
vn -0.5321 -0.2644 -0.8043
vn -0.5165 -0.3112 -0.7977
vn -0.1462 -0.5801 -0.8013
vn -0.3514 -0.6135 -0.7072
vn 0.1336 0.9448 0.2992
vn -0.0048 0.6497 0.7602
vn 0.1971 -0.0978 0.9755
vn 0.0582 0.9542 0.2935
vn 0.3177 0.7511 0.5788
vn 0.2742 0.9576 0.0882
vn 0.3331 0.7840 0.5238
vn 0.0894 0.7738 0.6271
vn 0.4645 0.2694 0.8436
vn 0.3163 0.9444 0.0902
vn 0.4370 0.8673 0.2384
vn 0.5801 0.7792 0.2375
vn 0.7310 0.4483 0.5145
vn 0.7982 0.2886 0.5287
vn 0.7105 0.7027 0.0373
vn 0.7155 0.6976 0.0360
vn 0.9240 0.0988 0.3694
vn 0.6512 0.6189 0.4391
vn 0.9995 -0.0242 0.0202
vn -0.0127 0.9468 -0.3216
vn 0.0290 0.9975 -0.0650
vn 0.1977 0.9458 -0.2577
vn 0.0364 0.9081 -0.4172
vn 0.1196 0.9903 -0.0714
vn 0.3574 0.8339 -0.4205
vn 0.2351 0.9534 -0.1891
vn 0.4581 0.7181 -0.5238
vn 0.4295 0.8835 -0.1873
vn 0.3623 0.8448 -0.3937
vn 0.4836 0.8747 -0.0324
vn 0.5465 0.7806 -0.3032
vn 0.5472 0.7893 -0.2786
vn 0.7501 0.2785 -0.5998
vn 0.7957 0.5547 -0.2432
vn 0.6609 0.5582 -0.5016
vn 0.8100 -0.1814 -0.5577
vn 0.7582 0.0084 -0.6519
vn 0.8643 0.4555 -0.2132
vn 0.8746 0.4728 -0.1073
vn 0.9381 0.1381 -0.3176
vn -0.1417 0.8226 -0.5507
vn 0.4425 0.6896 -0.5733
vn 0.6682 -0.0256 -0.7436
vn 0.6206 -0.1714 -0.7652
vn -0.1142 -0.1605 -0.9804
vn 0.0208 -0.9090 0.4164
vn 0.0049 -0.9998 0.0187
vn 0.0159 0.0951 0.9953
vn 0.1998 -0.5119 0.8355
vn 0.0291 -0.9996 -0.0056
vn 0.0972 -0.9590 0.2663
vn 0.1886 -0.8222 0.5371
vn 0.2102 -0.5192 0.8284
vn 0.3735 -0.9275 0.0157
vn 0.5655 -0.3101 0.7642
vn 0.6147 0.0535 0.7869
vn 0.3267 -0.9208 0.2129
vn 0.2488 -0.9630 0.1031
vn 0.4471 -0.8103 0.3789
vn 0.4822 -0.7863 0.3864
vn 0.6313 -0.4778 0.6108
vn 0.6484 -0.7569 0.0821
vn 0.6268 -0.7515 0.2059
vn 0.5932 -0.8033 0.0523
vn 0.8462 -0.2331 0.4793
vn 0.8642 -0.4057 0.2975
vn 0.9676 -0.2522 0.0100
vn 0.0385 -0.9928 -0.1131
vn 0.1360 -0.9687 -0.2077
vn 0.0862 -0.9763 -0.1984
vn 0.1980 -0.8802 -0.4314
vn 0.3251 -0.8812 -0.3432
vn 0.3222 -0.8881 -0.3278
vn 0.6868 -0.5727 -0.4476
vn 0.3063 -0.9469 -0.0976
vn 0.3070 -0.9468 -0.0960
vn 0.1210 -0.8492 -0.5140
vn 0.3854 -0.8722 -0.3012
vn 0.8058 0.1111 -0.5817
vn 0.8877 -0.3572 -0.2904
vn 0.5375 -0.7999 -0.2669
vn 0.5949 -0.7939 -0.1255
vn 0.5435 -0.7803 -0.3095
vn 0.6375 -0.7357 -0.2285
vn 0.9086 -0.3439 -0.2371
vn 0.8672 -0.4164 -0.2731
vn 0.9058 -0.4164 -0.0787
vn 0.5203 -0.6012 -0.6066
vn 0.2491 -0.8077 -0.5344
vn 0.1807 -0.0000 -0.9835
vn 0.4925 -0.0000 -0.8703
vn 0.7061 -0.0000 -0.7081
vn 0.8372 -0.0000 -0.5468
vn 0.9154 -0.0000 -0.4026
vn 0.9613 -0.0000 -0.2754
vn 0.9870 -0.0000 -0.1605
vn 0.9986 -0.0000 -0.0527
vn 0.9986 -0.0000 0.0527
vn 0.9870 -0.0000 0.1605
vn 0.9613 -0.0000 0.2754
vn 0.9154 -0.0000 0.4026
vn 0.8372 -0.0000 0.5468
vn 0.7061 -0.0000 0.7081
vn 0.4925 -0.0000 0.8703
vn 0.1807 -0.0000 0.9835
vn -0.1807 -0.0000 0.9835
vn -0.4925 -0.0000 0.8703
vn -0.7061 -0.0000 0.7081
vn -0.8372 -0.0000 0.5468
vn -0.9154 -0.0000 0.4026
vn -0.9613 -0.0000 0.2754
vn -0.9870 -0.0000 0.1605
vn -0.9986 -0.0000 0.0527
vn -0.9986 -0.0000 -0.0527
vn -0.9870 -0.0000 -0.1605
vn -0.9613 -0.0000 -0.2754
vn -0.9154 -0.0000 -0.4026
vn -0.8372 -0.0000 -0.5468
vn -0.7061 -0.0000 -0.7081
vn -0.0000 1.0000 -0.0000
vn -0.4925 -0.0000 -0.8703
vn -0.1807 -0.0000 -0.9835
vn -0.0000 -1.0000 -0.0000
vt 0.000000 0.000000
vt 1.000000 0.500000
vt 1.000000 1.000000
vt 0.968750 1.000000
vt 0.968750 0.500000
vt 0.937500 1.000000
vt 0.937500 0.500000
vt 0.906250 1.000000
vt 0.906250 0.500000
vt 0.875000 1.000000
vt 0.875000 0.500000
vt 0.843750 1.000000
vt 0.843750 0.500000
vt 0.812500 1.000000
vt 0.812500 0.500000
vt 0.781250 1.000000
vt 0.781250 0.500000
vt 0.750000 1.000000
vt 0.750000 0.500000
vt 0.718750 1.000000
vt 0.718750 0.500000
vt 0.687500 1.000000
vt 0.687500 0.500000
vt 0.656250 1.000000
vt 0.656250 0.500000
vt 0.625000 1.000000
vt 0.625000 0.500000
vt 0.593750 1.000000
vt 0.593750 0.500000
vt 0.562500 1.000000
vt 0.562500 0.500000
vt 0.531250 1.000000
vt 0.531250 0.500000
vt 0.500000 1.000000
vt 0.500000 0.500000
vt 0.468750 1.000000
vt 0.468750 0.500000
vt 0.437500 1.000000
vt 0.437500 0.500000
vt 0.406250 1.000000
vt 0.406250 0.500000
vt 0.375000 1.000000
vt 0.375000 0.500000
vt 0.343750 1.000000
vt 0.343750 0.500000
vt 0.312500 1.000000
vt 0.312500 0.500000
vt 0.281250 1.000000
vt 0.281250 0.500000
vt 0.250000 1.000000
vt 0.250000 0.500000
vt 0.218750 1.000000
vt 0.218750 0.500000
vt 0.187500 1.000000
vt 0.187500 0.500000
vt 0.156250 1.000000
vt 0.156250 0.500000
vt 0.125000 1.000000
vt 0.125000 0.500000
vt 0.093750 1.000000
vt 0.093750 0.500000
vt 0.062500 1.000000
vt 0.062500 0.500000
vt 0.341844 0.471731
vt 0.296822 0.485388
vt 0.250000 0.490000
vt 0.203178 0.485388
vt 0.158156 0.471731
vt 0.116663 0.449553
vt 0.080294 0.419706
vt 0.050447 0.383337
vt 0.028269 0.341844
vt 0.014612 0.296822
vt 0.010000 0.250000
vt 0.014612 0.203178
vt 0.028269 0.158156
vt 0.050447 0.116663
vt 0.080294 0.080294
vt 0.116663 0.050447
vt 0.158156 0.028269
vt 0.203178 0.014612
vt 0.250000 0.010000
vt 0.296822 0.014612
vt 0.341844 0.028269
vt 0.383337 0.050447
vt 0.419706 0.080294
vt 0.449553 0.116663
vt 0.471731 0.158156
vt 0.485388 0.203178
vt 0.490000 0.250000
vt 0.485388 0.296822
vt 0.471731 0.341844
vt 0.449553 0.383337
vt 0.419706 0.419706
vt 0.383337 0.449553
vt 0.031250 1.000000
vt 0.031250 0.500000
vt 0.000000 1.000000
vt 0.000000 0.500000
vt 0.703178 0.485388
vt 0.750000 0.490000
vt 0.796822 0.485388
vt 0.841844 0.471731
vt 0.883337 0.449553
vt 0.919706 0.419706
vt 0.949553 0.383337
vt 0.971731 0.341844
vt 0.985388 0.296822
vt 0.990000 0.250000
vt 0.985388 0.203178
vt 0.971731 0.158156
vt 0.949553 0.116663
vt 0.919706 0.080294
vt 0.883337 0.050447
vt 0.841844 0.028269
vt 0.796822 0.014612
vt 0.750000 0.010000
vt 0.703178 0.014612
vt 0.658156 0.028269
vt 0.616663 0.050447
vt 0.580294 0.080294
vt 0.550447 0.116663
vt 0.528269 0.158156
vt 0.514612 0.203178
vt 0.510000 0.250000
vt 0.514612 0.296822
vt 0.528269 0.341844
vt 0.550447 0.383337
vt 0.580294 0.419706
vt 0.616663 0.449553
vt 0.658156 0.471731
s 1
usemtl Material.008
f 1/1/1 10/1/1 47/1/1
f 11/1/2 17/1/2 48/1/2
f 8/1/3 23/1/3 16/1/3
f 7/1/4 108/1/4 22/1/4
f 27/1/5 46/1/5 15/1/5
f 25/1/6 14/1/6 33/1/6
f 32/1/7 13/1/7 21/1/7
f 107/1/8 38/1/8 20/1/8
f 69/1/9 24/1/9 28/1/9
f 31/1/10 19/1/10 214/1/10
f 18/1/11 36/1/11 213/1/11
f 71/1/12 30/1/12 220/1/12
f 41/1/13 2/1/13 54/1/13
f 55/1/14 3/1/14 49/1/14
f 62/1/15 40/1/15 53/1/15
f 149/1/16 39/1/16 61/1/16
f 173/1/17 148/1/17 60/1/17
f 51/1/18 45/1/18 74/1/18
f 72/1/19 44/1/19 26/1/19
f 66/1/20 50/1/20 73/1/20
f 67/1/21 58/1/21 52/1/21
f 171/1/22 59/1/22 85/1/22
f 83/1/23 57/1/23 81/1/23
f 80/1/24 56/1/24 65/1/24
f 265/1/25 64/1/25 70/1/25
f 77/1/26 63/1/26 264/1/26
f 86/1/27 82/1/27 78/1/27
f 87/1/28 79/1/28 275/1/28
f 144/1/29 99/1/29 5/1/29
f 98/1/30 12/1/30 4/1/30
f 141/1/31 104/1/31 97/1/31
f 96/1/32 110/1/32 9/1/32
f 102/1/33 115/1/33 94/1/33
f 95/1/34 116/1/34 109/1/34
f 100/1/35 159/1/35 120/1/35
f 164/1/36 126/1/36 122/1/36
f 121/1/37 114/1/37 101/1/37
f 113/1/38 132/1/38 106/1/38
f 131/1/39 37/1/39 105/1/39
f 112/1/40 328/1/40 130/1/40
f 118/1/41 327/1/41 111/1/41
f 124/1/42 138/1/42 119/1/42
f 117/1/43 137/1/43 326/1/43
f 145/1/44 6/1/44 43/1/44
f 151/1/45 143/1/45 42/1/45
f 157/1/46 142/1/46 150/1/46
f 166/1/47 140/1/47 156/1/47
f 158/1/48 152/1/48 146/1/48
f 139/1/49 165/1/49 103/1/49
f 155/1/50 147/1/50 172/1/50
f 179/1/51 154/1/51 170/1/51
f 176/1/52 162/1/52 153/1/52
f 184/1/53 163/1/53 177/1/53
f 202/1/54 161/1/54 183/1/54
f 201/1/55 125/1/55 160/1/55
f 169/1/56 189/1/56 178/1/56
f 175/1/57 195/1/57 182/1/57
f 187/1/58 194/1/58 174/1/58
f 207/1/59 200/1/59 181/1/59
f 206/1/60 180/1/60 193/1/60
f 136/1/61 123/1/61 199/1/61
f 186/1/62 385/1/62 192/1/62
f 190/1/63 387/1/63 203/1/63
f 388/1/64 191/1/64 381/1/64
f 93/1/65 168/1/65 84/1/65
f 92/1/66 188/1/66 167/1/66
f 89/1/67 384/1/67 185/1/67
f 386/1/68 91/1/68 471/1/68
f 218/1/69 29/1/69 209/1/69
f 35/1/70 225/1/70 212/1/70
f 128/1/71 222/1/71 34/1/71
f 208/1/72 226/1/72 216/1/72
f 223/1/73 237/1/73 210/1/73
f 279/1/74 219/1/74 229/1/74
f 238/1/75 228/1/75 211/1/75
f 236/1/76 232/1/76 227/1/76
f 337/1/77 239/1/77 224/1/77
f 280/1/78 230/1/78 243/1/78
f 233/1/79 244/1/79 231/1/79
f 234/1/80 248/1/80 246/1/80
f 241/1/81 249/1/81 235/1/81
f 242/1/82 363/1/82 250/1/82
f 251/1/83 308/1/83 247/1/83
f 255/1/84 309/1/84 252/1/84
f 365/1/85 256/1/85 253/1/85
f 362/1/86 376/1/86 254/1/86
f 380/1/87 466/1/87 258/1/87
f 270/1/88 76/1/88 263/1/88
f 259/1/89 68/1/89 215/1/89
f 283/1/90 267/1/90 261/1/90
f 271/1/91 75/1/91 266/1/91
f 277/1/92 260/1/92 217/1/92
f 294/1/93 272/1/93 268/1/93
f 284/1/94 262/1/94 278/1/94
f 290/1/95 274/1/95 296/1/95
f 305/1/96 286/1/96 281/1/96
f 295/1/97 269/1/97 285/1/97
f 306/1/98 282/1/98 245/1/98
f 312/1/99 287/1/99 307/1/99
f 297/1/100 288/1/100 313/1/100
f 314/1/101 445/1/101 299/1/101
f 304/1/102 300/1/102 448/1/102
f 301/1/103 292/1/103 298/1/103
f 447/1/104 418/1/104 303/1/104
f 415/1/105 293/1/105 302/1/105
f 257/1/106 461/1/106 310/1/106
f 463/1/107 316/1/107 311/1/107
f 462/1/108 451/1/108 315/1/108
f 321/1/109 90/1/109 276/1/109
f 289/1/110 317/1/110 273/1/110
f 414/1/111 319/1/111 291/1/111
f 413/1/112 469/1/112 318/1/112
f 470/1/113 88/1/113 320/1/113
f 134/1/114 340/1/114 322/1/114
f 196/1/115 329/1/115 133/1/115
f 127/1/116 334/1/116 221/1/116
f 129/1/117 323/1/117 335/1/117
f 197/1/118 394/1/118 330/1/118
f 135/1/119 331/1/119 341/1/119
f 325/1/120 342/1/120 346/1/120
f 324/1/121 345/1/121 336/1/121
f 401/1/122 353/1/122 333/1/122
f 347/1/123 359/1/123 338/1/123
f 339/1/124 360/1/124 240/1/124
f 332/1/125 352/1/125 343/1/125
f 398/1/126 436/1/126 351/1/126
f 344/1/127 354/1/127 348/1/127
f 355/1/128 366/1/128 349/1/128
f 350/1/129 367/1/129 361/1/129
f 439/1/130 456/1/130 358/1/130
f 357/1/131 372/1/131 368/1/131
f 356/1/132 454/1/132 371/1/132
f 369/1/133 377/1/133 364/1/133
f 370/1/134 373/1/134 378/1/134
f 375/1/135 465/1/135 379/1/135
f 204/1/136 395/1/136 198/1/136
f 205/1/137 390/1/137 397/1/137
f 389/1/138 407/1/138 396/1/138
f 391/1/139 382/1/139 402/1/139
f 393/1/140 421/1/140 408/1/140
f 392/1/141 404/1/141 420/1/141
f 425/1/142 406/1/142 416/1/142
f 399/1/143 426/1/143 437/1/143
f 400/1/144 409/1/144 427/1/144
f 419/1/145 411/1/145 432/1/145
f 428/1/146 410/1/146 422/1/146
f 417/1/147 446/1/147 434/1/147
f 443/1/148 435/1/148 450/1/148
f 424/1/149 433/1/149 441/1/149
f 438/1/150 430/1/150 453/1/150
f 429/1/151 423/1/151 440/1/151
f 455/1/152 431/1/152 442/1/152
f 458/1/153 444/1/153 452/1/153
f 457/1/154 449/1/154 460/1/154
f 374/1/155 459/1/155 464/1/155
f 405/1/156 468/1/156 412/1/156
f 403/1/157 383/1/157 467/1/157
usemtl Material.007
f 473/2/158 476/3/158 482/4/158
f 473/2/158 482/4/158 479/5/158
f 480/5/159 483/4/159 488/6/159
f 480/5/159 488/6/159 485/7/159
f 486/7/160 489/6/160 494/8/160
f 486/7/160 494/8/160 491/9/160
f 492/9/161 495/8/161 500/10/161
f 492/9/161 500/10/161 497/11/161
f 498/11/162 501/10/162 506/12/162
f 498/11/162 506/12/162 503/13/162
f 504/13/163 507/12/163 512/14/163
f 504/13/163 512/14/163 509/15/163
f 510/15/164 513/14/164 518/16/164
f 510/15/164 518/16/164 515/17/164
f 516/17/165 519/16/165 525/18/165
f 516/17/165 525/18/165 522/19/165
f 521/19/166 524/18/166 531/20/166
f 521/19/166 531/20/166 528/21/166
f 527/21/167 530/20/167 537/22/167
f 527/21/167 537/22/167 534/23/167
f 533/23/168 536/22/168 543/24/168
f 533/23/168 543/24/168 540/25/168
f 539/25/169 542/24/169 549/26/169
f 539/25/169 549/26/169 546/27/169
f 545/27/170 548/26/170 555/28/170
f 545/27/170 555/28/170 552/29/170
f 551/29/171 554/28/171 561/30/171
f 551/29/171 561/30/171 558/31/171
f 557/31/172 560/30/172 567/32/172
f 557/31/172 567/32/172 564/33/172
f 563/33/173 566/32/173 572/34/173
f 563/33/173 572/34/173 569/35/173
f 570/35/174 573/34/174 578/36/174
f 570/35/174 578/36/174 575/37/174
f 576/37/175 579/36/175 584/38/175
f 576/37/175 584/38/175 581/39/175
f 582/39/176 585/38/176 590/40/176
f 582/39/176 590/40/176 587/41/176
f 588/41/177 591/40/177 596/42/177
f 588/41/177 596/42/177 593/43/177
f 594/43/178 597/42/178 602/44/178
f 594/43/178 602/44/178 599/45/178
f 600/45/179 603/44/179 608/46/179
f 600/45/179 608/46/179 605/47/179
f 606/47/180 609/46/180 614/48/180
f 606/47/180 614/48/180 611/49/180
f 612/49/181 615/48/181 620/50/181
f 612/49/181 620/50/181 617/51/181
f 618/51/182 621/50/182 627/52/182
f 618/51/182 627/52/182 624/53/182
f 623/53/183 626/52/183 633/54/183
f 623/53/183 633/54/183 630/55/183
f 629/55/184 632/54/184 639/56/184
f 629/55/184 639/56/184 636/57/184
f 635/57/185 638/56/185 645/58/185
f 635/57/185 645/58/185 642/59/185
f 641/59/186 644/58/186 651/60/186
f 641/59/186 651/60/186 648/61/186
f 647/61/187 650/60/187 657/62/187
f 647/61/187 657/62/187 654/63/187
f 487/64/188 481/65/188 475/66/188
f 475/66/188 661/67/188 655/68/188
f 655/68/188 649/69/188 643/70/188
f 643/70/188 637/71/188 631/72/188
f 631/72/188 625/73/188 619/74/188
f 619/74/188 613/75/188 607/76/188
f 607/76/188 601/77/188 595/78/188
f 595/78/188 589/79/188 583/80/188
f 583/80/188 577/81/188 571/82/188
f 571/82/188 565/83/188 559/84/188
f 559/84/188 553/85/188 547/86/188
f 547/86/188 541/87/188 535/88/188
f 535/88/188 529/89/188 523/90/188
f 523/90/188 517/91/188 511/92/188
f 511/92/188 505/93/188 499/94/188
f 499/94/188 493/95/188 487/64/188
f 487/64/188 475/66/188 655/68/188
f 655/68/188 643/70/188 631/72/188
f 631/72/188 619/74/188 607/76/188
f 607/76/188 595/78/188 583/80/188
f 583/80/188 571/82/188 559/84/188
f 559/84/188 547/86/188 535/88/188
f 535/88/188 523/90/188 511/92/188
f 511/92/188 499/94/188 487/64/188
f 487/64/188 655/68/188 631/72/188
f 631/72/188 607/76/188 583/80/188
f 583/80/188 559/84/188 535/88/188
f 535/88/188 511/92/188 487/64/188
f 487/64/188 631/72/188 583/80/188
f 583/80/188 535/88/188 487/64/188
f 653/63/189 656/62/189 663/96/189
f 653/63/189 663/96/189 660/97/189
f 659/97/190 662/96/190 477/98/190
f 659/97/190 477/98/190 474/99/190
f 658/100/191 472/101/191 478/102/191
f 478/102/191 484/103/191 490/104/191
f 490/104/191 496/105/191 502/106/191
f 502/106/191 508/107/191 514/108/191
f 514/108/191 520/109/191 526/110/191
f 526/110/191 532/111/191 538/112/191
f 538/112/191 544/113/191 550/114/191
f 550/114/191 556/115/191 562/116/191
f 562/116/191 568/117/191 574/118/191
f 574/118/191 580/119/191 586/120/191
f 586/120/191 592/121/191 598/122/191
f 598/122/191 604/123/191 610/124/191
f 610/124/191 616/125/191 622/126/191
f 622/126/191 628/127/191 634/128/191
f 634/128/191 640/129/191 646/130/191
f 646/130/191 652/131/191 658/100/191
f 658/100/191 478/102/191 490/104/191
f 490/104/191 502/106/191 514/108/191
f 514/108/191 526/110/191 538/112/191
f 538/112/191 550/114/191 562/116/191
f 562/116/191 574/118/191 586/120/191
f 586/120/191 598/122/191 610/124/191
f 610/124/191 622/126/191 634/128/191
f 634/128/191 646/130/191 658/100/191
f 658/100/191 490/104/191 514/108/191
f 514/108/191 538/112/191 562/116/191
f 562/116/191 586/120/191 610/124/191
f 610/124/191 634/128/191 658/100/191
f 658/100/191 514/108/191 562/116/191
f 562/116/191 610/124/191 658/100/191
f 665/2/158 668/3/158 674/4/158
f 665/2/158 674/4/158 671/5/158
f 672/5/159 675/4/159 680/6/159
f 672/5/159 680/6/159 677/7/159
f 678/7/160 681/6/160 686/8/160
f 678/7/160 686/8/160 683/9/160
f 684/9/161 687/8/161 692/10/161
f 684/9/161 692/10/161 689/11/161
f 690/11/162 693/10/162 698/12/162
f 690/11/162 698/12/162 695/13/162
f 696/13/163 699/12/163 704/14/163
f 696/13/163 704/14/163 701/15/163
f 702/15/164 705/14/164 710/16/164
f 702/15/164 710/16/164 707/17/164
f 708/17/165 711/16/165 717/18/165
f 708/17/165 717/18/165 714/19/165
f 713/19/166 716/18/166 723/20/166
f 713/19/166 723/20/166 720/21/166
f 719/21/167 722/20/167 729/22/167
f 719/21/167 729/22/167 726/23/167
f 725/23/168 728/22/168 735/24/168
f 725/23/168 735/24/168 732/25/168
f 731/25/169 734/24/169 741/26/169
f 731/25/169 741/26/169 738/27/169
f 737/27/170 740/26/170 747/28/170
f 737/27/170 747/28/170 744/29/170
f 743/29/171 746/28/171 753/30/171
f 743/29/171 753/30/171 750/31/171
f 749/31/172 752/30/172 759/32/172
f 749/31/172 759/32/172 756/33/172
f 755/33/173 758/32/173 764/34/173
f 755/33/173 764/34/173 761/35/173
f 762/35/174 765/34/174 770/36/174
f 762/35/174 770/36/174 767/37/174
f 768/37/175 771/36/175 776/38/175
f 768/37/175 776/38/175 773/39/175
f 774/39/176 777/38/176 782/40/176
f 774/39/176 782/40/176 779/41/176
f 780/41/177 783/40/177 788/42/177
f 780/41/177 788/42/177 785/43/177
f 786/43/178 789/42/178 794/44/178
f 786/43/178 794/44/178 791/45/178
f 792/45/179 795/44/179 800/46/179
f 792/45/179 800/46/179 797/47/179
f 798/47/180 801/46/180 806/48/180
f 798/47/180 806/48/180 803/49/180
f 804/49/181 807/48/181 812/50/181
f 804/49/181 812/50/181 809/51/181
f 810/51/182 813/50/182 819/52/182
f 810/51/182 819/52/182 816/53/182
f 815/53/183 818/52/183 825/54/183
f 815/53/183 825/54/183 822/55/183
f 821/55/184 824/54/184 831/56/184
f 821/55/184 831/56/184 828/57/184
f 827/57/185 830/56/185 837/58/185
f 827/57/185 837/58/185 834/59/185
f 833/59/186 836/58/186 843/60/186
f 833/59/186 843/60/186 840/61/186
f 839/61/187 842/60/187 849/62/187
f 839/61/187 849/62/187 846/63/187
f 679/64/188 673/65/188 667/66/188
f 667/66/188 853/67/188 847/68/188
f 847/68/188 841/69/188 835/70/188
f 835/70/188 829/71/188 823/72/188
f 823/72/188 817/73/188 811/74/188
f 811/74/188 805/75/188 799/76/188
f 799/76/188 793/77/188 787/78/188
f 787/78/188 781/79/188 775/80/188
f 775/80/188 769/81/188 763/82/188
f 763/82/188 757/83/188 751/84/188
f 751/84/188 745/85/188 739/86/188
f 739/86/188 733/87/188 727/88/188
f 727/88/188 721/89/188 715/90/188
f 715/90/188 709/91/188 703/92/188
f 703/92/188 697/93/188 691/94/188
f 691/94/188 685/95/188 679/64/188
f 679/64/188 667/66/188 847/68/188
f 847/68/188 835/70/188 823/72/188
f 823/72/188 811/74/188 799/76/188
f 799/76/188 787/78/188 775/80/188
f 775/80/188 763/82/188 751/84/188
f 751/84/188 739/86/188 727/88/188
f 727/88/188 715/90/188 703/92/188
f 703/92/188 691/94/188 679/64/188
f 679/64/188 847/68/188 823/72/188
f 823/72/188 799/76/188 775/80/188
f 775/80/188 751/84/188 727/88/188
f 727/88/188 703/92/188 679/64/188
f 679/64/188 823/72/188 775/80/188
f 775/80/188 727/88/188 679/64/188
f 845/63/189 848/62/189 855/96/189
f 845/63/189 855/96/189 852/97/189
f 851/97/190 854/96/190 669/98/190
f 851/97/190 669/98/190 666/99/190
f 850/100/191 664/101/191 670/102/191
f 670/102/191 676/103/191 682/104/191
f 682/104/191 688/105/191 694/106/191
f 694/106/191 700/107/191 706/108/191
f 706/108/191 712/109/191 718/110/191
f 718/110/191 724/111/191 730/112/191
f 730/112/191 736/113/191 742/114/191
f 742/114/191 748/115/191 754/116/191
f 754/116/191 760/117/191 766/118/191
f 766/118/191 772/119/191 778/120/191
f 778/120/191 784/121/191 790/122/191
f 790/122/191 796/123/191 802/124/191
f 802/124/191 808/125/191 814/126/191
f 814/126/191 820/127/191 826/128/191
f 826/128/191 832/129/191 838/130/191
f 838/130/191 844/131/191 850/100/191
f 850/100/191 670/102/191 682/104/191
f 682/104/191 694/106/191 706/108/191
f 706/108/191 718/110/191 730/112/191
f 730/112/191 742/114/191 754/116/191
f 754/116/191 766/118/191 778/120/191
f 778/120/191 790/122/191 802/124/191
f 802/124/191 814/126/191 826/128/191
f 826/128/191 838/130/191 850/100/191
f 850/100/191 682/104/191 706/108/191
f 706/108/191 730/112/191 754/116/191
f 754/116/191 778/120/191 802/124/191
f 802/124/191 826/128/191 850/100/191
f 850/100/191 706/108/191 754/116/191
f 754/116/191 802/124/191 850/100/191
o Text.008
v -5.284193 0.050000 -0.875316
v -5.328351 0.050000 -0.875316
v -5.320070 0.050000 -1.020900
v -5.275912 0.050000 -1.020900
v -5.232675 0.050000 -0.875316
v -5.276833 0.050000 -0.875316
v -5.268552 0.050000 -1.020900
v -5.224394 0.050000 -1.020900
v -5.627799 0.050000 -0.961563
v -5.771312 0.050000 -0.961563
v -5.769012 0.050000 -1.002961
v -5.625498 0.050000 -1.002961
v -5.536723 0.050000 -0.606917
v -5.654478 0.050000 -0.606917
v -5.485664 0.050000 -0.986402
v -5.367909 0.050000 -0.986402
v -5.861010 0.050000 -0.945003
v -6.230834 0.050000 -0.968462
v -6.228534 0.050000 -1.009861
v -5.858709 0.050000 -0.986402
v -5.885387 0.050000 -0.801489
v -6.225774 0.050000 -0.824948
v -6.223475 0.050000 -0.866347
v -5.883089 0.050000 -0.842887
v -5.873888 0.050000 -0.605537
v -6.258433 0.050000 -0.628996
v -6.254293 0.050000 -0.703513
v -5.869749 0.050000 -0.680054
v -6.367909 0.050000 -0.875316
v -6.412067 0.050000 -0.875316
v -6.403788 0.050000 -1.020900
v -6.359630 0.050000 -1.020900
v -6.316391 0.050000 -0.875316
v -6.360549 0.050000 -0.875316
v -6.352270 0.050000 -1.020900
v -6.308112 0.050000 -1.020900
v -5.284193 -0.050000 -0.875316
v -5.328351 -0.050000 -0.875316
v -5.320070 -0.050000 -1.020900
v -5.275912 -0.050000 -1.020900
v -5.232675 -0.050000 -0.875316
v -5.276833 -0.050000 -0.875316
v -5.268552 -0.050000 -1.020900
v -5.224394 -0.050000 -1.020900
v -5.627799 -0.050000 -0.961563
v -5.771312 -0.050000 -0.961563
v -5.769012 -0.050000 -1.002961
v -5.625498 -0.050000 -1.002961
v -5.536723 -0.050000 -0.606917
v -5.654478 -0.050000 -0.606917
v -5.485664 -0.050000 -0.986402
v -5.367909 -0.050000 -0.986402
v -5.861010 -0.050000 -0.945003
v -6.230834 -0.050000 -0.968462
v -6.228534 -0.050000 -1.009861
v -5.858709 -0.050000 -0.986402
v -5.885387 -0.050000 -0.801489
v -6.225774 -0.050000 -0.824948
v -6.223475 -0.050000 -0.866347
v -5.883089 -0.050000 -0.842887
v -5.873888 -0.050000 -0.605537
v -6.258433 -0.050000 -0.628996
v -6.254293 -0.050000 -0.703513
v -5.869749 -0.050000 -0.680054
v -6.367909 -0.050000 -0.875316
v -6.412067 -0.050000 -0.875316
v -6.403788 -0.050000 -1.020900
v -6.359630 -0.050000 -1.020900
v -6.316391 -0.050000 -0.875316
v -6.360549 -0.050000 -0.875316
v -6.352270 -0.050000 -1.020900
v -6.308112 -0.050000 -1.020900
v -6.367909 -0.050000 -0.875316
v -6.367909 0.050000 -0.875316
v -6.412067 -0.050000 -0.875316
v -6.412067 0.050000 -0.875316
v -6.403788 -0.050000 -1.020900
v -6.403788 0.050000 -1.020900
v -6.359630 -0.050000 -1.020900
v -6.359630 0.050000 -1.020900
v -6.316391 -0.050000 -0.875316
v -6.316391 0.050000 -0.875316
v -6.360549 -0.050000 -0.875316
v -6.360549 0.050000 -0.875316
v -6.352270 -0.050000 -1.020900
v -6.352270 0.050000 -1.020900
v -6.308112 -0.050000 -1.020900
v -6.308112 0.050000 -1.020900
v -5.861010 -0.050000 -0.945003
v -5.861010 0.050000 -0.945003
v -6.230834 -0.050000 -0.968462
v -6.230834 0.050000 -0.968462
v -6.228534 -0.050000 -1.009861
v -6.228534 0.050000 -1.009861
v -5.858709 -0.050000 -0.986402
v -5.858709 0.050000 -0.986402
v -5.885387 -0.050000 -0.801489
v -5.885387 0.050000 -0.801489
v -6.225774 -0.050000 -0.824948
v -6.225774 0.050000 -0.824948
v -6.223475 -0.050000 -0.866347
v -6.223475 0.050000 -0.866347
v -5.883089 -0.050000 -0.842887
v -5.883089 0.050000 -0.842887
v -5.873888 -0.050000 -0.605537
v -5.873888 0.050000 -0.605537
v -6.258433 -0.050000 -0.628996
v -6.258433 0.050000 -0.628996
v -6.254293 -0.050000 -0.703513
v -6.254293 0.050000 -0.703513
v -5.869749 -0.050000 -0.680054
v -5.869749 0.050000 -0.680054
v -5.627799 -0.050000 -0.961563
v -5.627799 0.050000 -0.961563
v -5.771312 -0.050000 -0.961563
v -5.771312 0.050000 -0.961563
v -5.769012 -0.050000 -1.002961
v -5.769012 0.050000 -1.002961
v -5.625498 -0.050000 -1.002961
v -5.625498 0.050000 -1.002961
v -5.536723 -0.050000 -0.606917
v -5.536723 0.050000 -0.606917
v -5.654478 -0.050000 -0.606917
v -5.654478 0.050000 -0.606917
v -5.485664 -0.050000 -0.986402
v -5.485664 0.050000 -0.986402
v -5.367909 -0.050000 -0.986402
v -5.367909 0.050000 -0.986402
v -5.284193 -0.050000 -0.875316
v -5.284193 0.050000 -0.875316
v -5.328351 -0.050000 -0.875316
v -5.328351 0.050000 -0.875316
v -5.320070 -0.050000 -1.020900
v -5.320070 0.050000 -1.020900
v -5.275912 -0.050000 -1.020900
v -5.275912 0.050000 -1.020900
v -5.232675 -0.050000 -0.875316
v -5.232675 0.050000 -0.875316
v -5.276833 -0.050000 -0.875316
v -5.276833 0.050000 -0.875316
v -5.268552 -0.050000 -1.020900
v -5.268552 0.050000 -1.020900
v -5.224394 -0.050000 -1.020900
v -5.224394 0.050000 -1.020900
vn -0.0000 1.0000 -0.0000
vn -0.0000 -1.0000 -0.0000
vn -0.8528 -0.0000 0.5222
vn 0.8092 -0.0000 0.5875
vn -0.8092 -0.0000 -0.5875
vn -0.8529 -0.0000 0.5221
vn 0.8528 -0.0000 -0.5222
vn 0.8529 -0.0000 -0.5221
vn -0.8621 -0.0000 0.5068
vn 0.7977 -0.0000 0.6031
vn 0.7976 -0.0000 0.6031
vn -0.7976 -0.0000 -0.6031
vn -0.8621 0.0001 0.5068
vn 0.8621 -0.0000 -0.5068
vn -0.7977 -0.0000 -0.6031
vn -0.8629 -0.0000 0.5055
vn 0.7966 -0.0000 0.6045
vn 0.7966 -0.0001 0.6045
vn -0.7966 -0.0000 -0.6045
vn -0.8629 -0.0000 0.5054
vn 0.8629 -0.0000 -0.5054
vn 0.8629 0.0001 -0.5055
vn -0.8617 -0.0000 0.5075
vn 0.7982 -0.0000 0.6024
vn -0.7982 -0.0001 -0.6024
vn -0.8617 -0.0000 0.5074
vn 0.8617 -0.0000 -0.5075
vn -0.7982 -0.0000 -0.6024
vn 0.8617 -0.0000 -0.5074
vn -0.8524 -0.0000 0.5229
vn 0.8098 -0.0000 0.5868
vn -0.8098 -0.0001 -0.5867
vn -0.8524 -0.0000 0.5230
vn 0.8524 -0.0000 -0.5229
vn -0.8098 -0.0000 -0.5867
vn -0.9419 -0.0000 0.3360
vn 0.6258 -0.0000 0.7800
vn -0.6258 -0.0000 -0.7800
vn -0.9419 -0.0000 0.3359
vn 0.9419 -0.0000 -0.3360
vn 0.9419 -0.0000 -0.3359
vt 0.285714 0.000000
vt 0.142857 0.000000
vt 0.000000 0.000000
vt 0.571429 0.000000
vt 1.000000 0.000000
vt 0.857143 0.000000
vt 0.714286 0.000000
vt 0.428571 0.000000
vt 0.909091 0.000000
vt 0.818182 0.000000
vt 0.727273 0.000000
vt 0.545455 0.000000
vt 0.454545 0.000000
vt 0.363636 0.000000
vt 0.636364 0.000000
vt 0.181818 0.000000
vt 0.090909 0.000000
vt 0.272727 0.000000
vt 0.250000 1.000000
vt 0.000000 1.000000
vt 0.500000 1.000000
vt 0.250000 0.000000
vt 0.750000 1.000000
vt 0.500000 0.000000
vt 1.000000 1.000000
vt 0.750000 0.000000
s 1
usemtl Material.048
f 858/132/192 857/133/192 856/134/192
f 860/135/192 863/136/192 862/137/192
f 860/135/192 862/137/192 861/138/192
f 858/132/192 856/134/192 859/139/192
f 866/132/192 865/133/192 864/134/192
f 871/136/192 870/137/192 868/135/192
f 868/135/192 870/137/192 869/138/192
f 866/132/192 864/134/192 867/139/192
f 882/140/192 881/141/192 880/142/192
f 880/142/192 883/136/192 882/140/192
f 878/143/192 877/144/192 876/145/192
f 876/145/192 879/146/192 878/143/192
f 874/147/192 873/148/192 872/134/192
f 872/134/192 875/149/192 874/147/192
f 886/132/192 885/133/192 884/134/192
f 888/135/192 891/136/192 890/137/192
f 888/135/192 890/137/192 889/138/192
f 886/132/192 884/134/192 887/139/192
f 894/132/193 892/134/193 893/133/193
f 896/135/193 898/137/193 899/136/193
f 896/135/193 897/138/193 898/137/193
f 894/132/193 895/139/193 892/134/193
f 902/132/193 900/134/193 901/133/193
f 907/136/193 904/135/193 906/137/193
f 904/135/193 905/138/193 906/137/193
f 902/132/193 903/139/193 900/134/193
f 918/140/193 916/142/193 917/141/193
f 916/142/193 918/140/193 919/136/193
f 914/143/193 912/145/193 913/144/193
f 912/145/193 914/143/193 915/146/193
f 910/147/193 908/134/193 909/148/193
f 908/134/193 910/147/193 911/149/193
f 922/132/193 920/134/193 921/133/193
f 924/135/193 926/137/193 927/136/193
f 924/135/193 925/138/193 926/137/193
f 922/132/193 923/139/193 920/134/193
f 931/150/194 928/134/195 929/151/195
f 933/152/196 930/153/197 931/150/194
f 935/154/198 932/155/196 933/152/196
f 929/156/195 934/157/199 935/154/198
f 939/150/194 936/134/195 937/151/195
f 941/152/196 938/153/197 939/150/194
f 943/154/198 940/155/196 941/152/196
f 937/156/195 942/157/199 943/154/198
f 947/150/200 944/134/201 945/151/202
f 949/152/203 946/153/204 947/150/200
f 951/154/205 948/155/206 949/152/203
f 945/156/202 950/157/205 951/154/205
f 955/150/207 952/134/208 953/151/209
f 957/152/210 954/153/211 955/150/207
f 959/154/212 956/155/210 957/152/210
f 953/156/209 958/157/213 959/154/212
f 963/150/214 960/134/215 961/151/215
f 965/152/216 962/153/217 963/150/214
f 967/154/218 964/155/219 965/152/216
f 961/156/215 966/157/220 967/154/218
f 971/150/221 968/134/222 969/151/222
f 973/152/223 970/153/224 971/150/221
f 975/154/225 972/155/226 973/152/223
f 969/156/222 974/157/225 975/154/225
f 979/150/227 976/134/228 977/151/228
f 981/152/229 978/153/230 979/150/227
f 983/154/231 980/155/229 981/152/229
f 977/156/228 982/157/232 983/154/231
f 987/150/194 984/134/195 985/151/195
f 989/152/196 986/153/197 987/150/194
f 991/154/198 988/155/196 989/152/196
f 985/156/195 990/157/199 991/154/198
f 995/150/194 992/134/195 993/151/195
f 997/152/196 994/153/197 995/150/194
f 999/154/198 996/155/196 997/152/196
f 993/156/195 998/157/199 999/154/198
f 931/150/194 930/153/197 928/134/195
f 933/152/196 932/155/196 930/153/197
f 935/154/198 934/157/199 932/155/196
f 929/156/195 928/136/195 934/157/199
f 939/150/194 938/153/197 936/134/195
f 941/152/196 940/155/196 938/153/197
f 943/154/198 942/157/199 940/155/196
f 937/156/195 936/136/195 942/157/199
f 947/150/200 946/153/204 944/134/201
f 949/152/203 948/155/206 946/153/204
f 951/154/205 950/157/205 948/155/206
f 945/156/202 944/136/201 950/157/205
f 955/150/207 954/153/211 952/134/208
f 957/152/210 956/155/210 954/153/211
f 959/154/212 958/157/213 956/155/210
f 953/156/209 952/136/208 958/157/213
f 963/150/214 962/153/217 960/134/215
f 965/152/216 964/155/219 962/153/217
f 967/154/218 966/157/220 964/155/219
f 961/156/215 960/136/215 966/157/220
f 971/150/221 970/153/224 968/134/222
f 973/152/223 972/155/226 970/153/224
f 975/154/225 974/157/225 972/155/226
f 969/156/222 968/136/222 974/157/225
f 979/150/227 978/153/230 976/134/228
f 981/152/229 980/155/229 978/153/230
f 983/154/231 982/157/232 980/155/229
f 977/156/228 976/136/228 982/157/232
f 987/150/194 986/153/197 984/134/195
f 989/152/196 988/155/196 986/153/197
f 991/154/198 990/157/199 988/155/196
f 985/156/195 984/136/195 990/157/199
f 995/150/194 994/153/197 992/134/195
f 997/152/196 996/155/196 994/153/197
f 999/154/198 998/157/199 996/155/196
f 993/156/195 992/136/195 998/157/199
o Text.001
v 5.848539 0.000000 -0.211882
v 5.851529 0.000000 -0.266160
v 6.246791 0.000000 -0.266160
v 6.183407 0.000000 -0.078488
v 6.282670 0.000000 -0.078488
v 6.262937 0.000000 0.260059
v 5.803093 0.000000 0.260059
v 5.814455 0.000000 0.054907
v 6.068595 0.000000 0.054907
v 6.060223 0.000000 0.205781
v 6.134970 0.000000 0.205781
v 6.148125 0.000000 -0.025130
v 5.790536 0.000000 -0.025130
v 5.793526 0.000000 -0.078488
v 6.051851 0.000000 -0.078488
v 6.096699 0.000000 -0.211882
v 5.966340 0.000000 0.205781
v 5.971722 0.000000 0.109185
v 5.904749 0.000000 0.109185
v 5.899965 0.000000 0.205781
v 5.187777 0.000000 -0.198083
v 5.190765 0.000000 -0.252361
v 5.434142 0.000000 -0.252361
v 5.430554 0.000000 -0.280880
v 5.562110 0.000000 -0.280880
v 5.565698 0.000000 -0.252361
v 5.690076 0.000000 -0.252361
v 5.687087 0.000000 -0.198083
v 5.571677 0.000000 -0.198083
v 5.581244 0.000000 -0.118966
v 5.683498 0.000000 -0.118966
v 5.680509 0.000000 -0.064688
v 5.587823 0.000000 -0.064688
v 5.604566 0.000000 0.076066
v 5.322919 0.000000 0.076066
v 5.316341 0.000000 0.205781
v 5.624897 0.000000 0.205781
v 5.621906 0.000000 0.260059
v 5.182395 0.000000 0.260059
v 5.194354 0.000000 0.021788
v 5.467031 0.000000 0.021788
v 5.456865 0.000000 -0.064688
v 5.181198 0.000000 -0.064688
v 5.184189 0.000000 -0.118966
v 5.450288 0.000000 -0.118966
v 5.440721 0.000000 -0.198083
v 4.561696 0.000000 -0.190723
v 4.564686 0.000000 -0.245001
v 4.996424 0.000000 -0.245001
v 4.993434 0.000000 -0.190723
v 5.000011 0.000000 -0.190723
v 4.751852 0.000000 0.187382
v 5.028714 0.000000 0.205781
v 5.025724 0.000000 0.260059
v 4.598770 0.000000 0.231540
v 4.601760 0.000000 0.177262
v 4.844539 0.000000 -0.190723
v 5.083131 0.000000 -0.190723
v 5.057418 0.000000 -0.190723
v 5.062799 0.000000 -0.280880
v 5.088512 0.000000 -0.280880
v 5.038880 0.000000 -0.190723
v 5.013167 0.000000 -0.190723
v 5.017951 0.000000 -0.280880
v 5.044262 0.000000 -0.280880
v 3.943986 0.000000 -0.159444
v 3.946976 0.000000 -0.213722
v 4.036673 0.000000 -0.213722
v 4.050426 0.000000 -0.281799
v 4.172413 0.000000 -0.281799
v 4.158660 0.000000 -0.213722
v 4.350610 0.000000 -0.213722
v 4.324299 0.000000 0.260059
v 4.202312 0.000000 0.260059
v 4.225634 0.000000 -0.159444
v 4.147298 0.000000 -0.159444
v 4.061788 0.000000 0.260059
v 3.939800 0.000000 0.260059
v 4.025311 0.000000 -0.159444
v 4.374529 0.000000 0.191982
v 4.373333 0.000000 -0.190723
v 4.400242 0.000000 -0.190723
v 4.405624 0.000000 -0.280880
v 4.431337 0.000000 -0.280880
v 4.426553 0.000000 -0.190723
v 4.445089 0.000000 -0.190723
v 4.450472 0.000000 -0.280880
v 4.476185 0.000000 -0.280880
v 4.470802 0.000000 -0.190723
v 4.448678 0.000000 -0.190723
v 4.450472 0.000000 0.191982
v 3.334050 0.000000 0.260059
v 3.350196 0.000000 -0.021450
v 3.354382 0.000000 -0.021450
v 3.465008 0.000000 -0.049969
v 3.402818 0.000000 -0.280880
v 3.534372 0.000000 -0.280880
v 3.587592 0.000000 -0.081248
v 3.831567 0.000000 -0.143805
v 3.828577 0.000000 -0.089527
v 3.479957 0.000000 -0.000291
v 3.468596 0.000000 0.205781
v 3.814823 0.000000 0.205781
v 3.811833 0.000000 0.260059
v 2.751622 0.000000 -0.190723
v 2.754612 0.000000 -0.244081
v 3.207279 0.000000 -0.244081
v 3.204289 0.000000 -0.190723
v 3.198310 0.000000 0.206701
v 3.195320 0.000000 0.260059
v 2.712155 0.000000 0.260059
v 2.719929 0.000000 0.124824
v 2.851484 0.000000 0.124824
v 2.846700 0.000000 0.206701
v 2.633821 0.000000 -0.190723
v 2.608108 0.000000 -0.190723
v 2.613489 0.000000 -0.280880
v 2.639202 0.000000 -0.280880
v 2.589570 0.000000 -0.190723
v 2.563857 0.000000 -0.190723
v 2.568641 0.000000 -0.280880
v 2.594952 0.000000 -0.280880
v 2.583591 0.000000 0.260059
v 2.407785 0.000000 0.260059
v 2.117169 0.000000 -0.032489
v 2.473563 0.000000 -0.280880
v 2.548908 0.000000 -0.280880
v 2.545918 0.000000 -0.226602
v 2.279819 0.000000 -0.038929
v 1.620251 0.000000 0.260059
v 1.623241 0.000000 0.204861
v 1.755991 0.000000 0.204861
v 1.766755 0.000000 0.013509
v 1.648356 0.000000 0.013509
v 1.651346 0.000000 -0.041689
v 1.769745 0.000000 -0.041689
v 1.778117 0.000000 -0.185203
v 1.645964 0.000000 -0.185203
v 1.648954 0.000000 -0.240401
v 1.779313 0.000000 -0.240401
v 1.770343 0.000000 -0.291919
v 1.889938 0.000000 -0.291919
v 1.898908 0.000000 -0.240401
v 1.900702 0.000000 -0.240401
v 2.029865 0.000000 -0.240401
v 2.026875 0.000000 -0.185203
v 1.897712 0.000000 -0.185203
v 1.889340 0.000000 -0.041689
v 2.003554 0.000000 -0.041689
v 2.000564 0.000000 0.013509
v 1.886350 0.000000 0.013509
v 1.875587 0.000000 0.204861
v 2.004152 0.000000 0.204861
v 2.001162 0.000000 0.260059
v 1.872597 0.000000 0.260059
v 1.753002 0.000000 0.260059
v 1.492882 0.000000 -0.236721
v 1.495872 0.000000 -0.291919
v 1.628025 0.000000 -0.262480
v 1.625035 0.000000 -0.207282
v 1.485108 0.000000 -0.099647
v 1.488099 0.000000 -0.154845
v 1.620251 0.000000 -0.125406
v 1.617261 0.000000 -0.070208
v 1.463582 0.000000 0.260059
v 1.517997 0.000000 0.002469
v 1.613673 0.000000 0.002469
v 1.559258 0.000000 0.260059
v 0.911051 0.000000 -0.187963
v 0.914041 0.000000 -0.242241
v 1.046194 0.000000 -0.242241
v 1.073102 0.000000 -0.280880
v 1.194492 0.000000 -0.280880
v 1.167583 0.000000 -0.242241
v 1.378071 0.000000 -0.242241
v 1.375081 0.000000 -0.187963
v 1.129910 0.000000 -0.187963
v 1.062937 0.000000 -0.092287
v 1.253094 0.000000 -0.092287
v 1.248310 0.000000 -0.015010
v 1.391226 0.000000 -0.024210
v 1.388237 0.000000 0.030068
v 1.245320 0.000000 0.039268
v 1.239938 0.000000 0.124824
v 1.117951 0.000000 0.124824
v 1.122736 0.000000 0.046627
v 1.050978 0.000000 0.051227
v 1.042606 0.000000 0.205781
v 1.351161 0.000000 0.205781
v 1.348172 0.000000 0.260059
v 0.917629 0.000000 0.260059
v 0.931383 0.000000 0.005229
v 1.126323 0.000000 -0.007650
v 1.128117 0.000000 -0.038009
v 0.903278 0.000000 -0.038009
v 1.007923 0.000000 -0.187963
v 0.264041 0.000000 0.053987
v 0.267031 0.000000 -0.001211
v 0.781291 0.000000 -0.001211
v 0.778301 0.000000 0.053987
v 0.189893 0.000000 -0.199923
v 0.180325 0.000000 -0.199923
v 0.178531 0.000000 -0.166804
v -0.018203 0.000000 -0.166804
v -0.022389 0.000000 0.013509
v 0.171953 0.000000 0.013509
v 0.168963 0.000000 0.068706
v -0.023585 0.000000 0.068706
v -0.027771 0.000000 0.260059
v -0.161119 0.000000 0.260059
v -0.156934 0.000000 0.068706
v -0.350080 0.000000 0.068706
v -0.347090 0.000000 0.013509
v -0.155737 0.000000 0.013509
v -0.152150 0.000000 -0.166804
v -0.340512 0.000000 -0.166804
v -0.337522 0.000000 -0.222002
v -0.150954 0.000000 -0.222002
v -0.149160 0.000000 -0.291919
v -0.015213 0.000000 -0.291919
v -0.017007 0.000000 -0.222002
v 0.099000 0.000000 -0.222002
v 0.097805 0.000000 -0.199923
v 0.118135 0.000000 -0.199923
v 0.123518 0.000000 -0.291919
v 0.149828 0.000000 -0.291919
v 0.144446 0.000000 -0.199923
v 0.163581 0.000000 -0.199923
v 0.168963 0.000000 -0.291919
v 0.195274 0.000000 -0.291919
v -0.976161 0.000000 0.260059
v -0.916363 0.000000 -0.229362
v -0.791984 0.000000 -0.229362
v -0.851782 0.000000 0.260059
v -0.734578 0.000000 0.260059
v -0.703484 0.000000 -0.291919
v -0.569537 0.000000 -0.291919
v -0.598240 0.000000 0.204861
v -0.443962 0.000000 0.204861
v -0.446952 0.000000 0.260059
v -1.543640 0.000000 -0.185203
v -1.540650 0.000000 -0.240401
v -1.367237 0.000000 -0.240401
v -1.364845 0.000000 -0.291919
v -1.230899 0.000000 -0.291919
v -1.233291 0.000000 -0.240401
v -1.223723 0.000000 -0.240401
v -1.222527 0.000000 -0.241321
v -1.059877 0.000000 -0.241321
v -1.061073 0.000000 -0.240401
v -1.059877 0.000000 -0.240401
v -1.072435 0.000000 -0.229362
v -1.217743 0.000000 -0.084927
v -1.051506 0.000000 0.122064
v -1.184855 0.000000 0.122064
v -1.241064 0.000000 0.048467
v -1.253024 0.000000 0.260059
v -1.386372 0.000000 0.260059
v -1.375609 0.000000 0.070546
v -1.427633 0.000000 0.122064
v -1.589684 0.000000 0.122064
v -1.279335 0.000000 -0.185203
v -2.144008 0.000000 -0.210962
v -2.141018 0.000000 -0.266160
v -1.679381 0.000000 -0.266160
v -1.682370 0.000000 -0.210962
v -1.847412 0.000000 -0.210962
v -1.871331 0.000000 0.204861
v -1.681773 0.000000 0.204861
v -1.684762 0.000000 0.260059
v -2.198424 0.000000 0.260059
v -2.195434 0.000000 0.204861
v -2.004679 0.000000 0.204861
v -1.981359 0.000000 -0.210962
v -2.786234 0.000000 -0.190723
v -2.783244 0.000000 -0.245001
v -2.351506 0.000000 -0.245001
v -2.354496 0.000000 -0.190723
v -2.347918 0.000000 -0.190723
v -2.596078 0.000000 0.187382
v -2.319215 0.000000 0.205781
v -2.322205 0.000000 0.260059
v -2.749160 0.000000 0.231540
v -2.746170 0.000000 0.177262
v -2.503392 0.000000 -0.190723
v -2.264799 0.000000 -0.190723
v -2.290512 0.000000 -0.190723
v -2.285130 0.000000 -0.280880
v -2.259417 0.000000 -0.280880
v -2.309049 0.000000 -0.190723
v -2.334762 0.000000 -0.190723
v -2.329979 0.000000 -0.280880
v -2.303668 0.000000 -0.280880
v -3.406335 0.000000 -0.207282
v -3.403346 0.000000 -0.262480
v -3.369859 0.000000 -0.262480
v -3.366271 0.000000 -0.291919
v -3.265811 0.000000 -0.291919
v -3.269399 0.000000 -0.262480
v -3.240696 0.000000 -0.262480
v -3.135452 0.000000 -0.262480
v -3.164753 0.000000 0.260059
v -3.269997 0.000000 0.260059
v -3.243686 0.000000 -0.207282
v -3.275977 0.000000 -0.207282
v -3.330990 0.000000 0.260059
v -3.431450 0.000000 0.260059
v -3.376436 0.000000 -0.207282
v -3.136050 0.000000 0.260059
v -3.106151 0.000000 -0.266160
v -3.079242 0.000000 -0.266160
v -3.008083 0.000000 -0.266160
v -2.969813 0.000000 -0.266160
v -2.890282 0.000000 -0.266160
v -2.871745 0.000000 -0.266160
v -2.901644 0.000000 0.260059
v -2.920779 0.000000 0.260059
v -2.999712 0.000000 0.260059
v -3.037982 0.000000 0.260059
v -3.109739 0.000000 0.260059
v -3.034992 0.000000 0.204861
v -2.996722 0.000000 0.204861
v -2.972803 0.000000 -0.210962
v -3.011073 0.000000 -0.210962
v -3.871561 0.000000 0.134944
v -3.848838 0.000000 -0.262480
v -3.815949 0.000000 -0.262480
v -3.811763 0.000000 -0.262480
v -3.803391 0.000000 -0.291919
v -3.698148 0.000000 -0.291919
v -3.705921 0.000000 -0.262480
v -3.610245 0.000000 -0.262480
v -3.573769 0.000000 -0.262480
v -3.505001 0.000000 -0.262480
v -3.514569 0.000000 -0.093207
v -3.562407 0.000000 -0.093207
v -3.619813 0.000000 -0.093207
v -3.748378 0.000000 -0.093207
v -3.750770 0.000000 -0.049049
v -3.611441 0.000000 -0.049049
v -3.574965 0.000000 -0.049049
v -3.506197 0.000000 -0.049049
v -3.516961 0.000000 0.134944
v -3.564799 0.000000 0.134944
v -3.622205 0.000000 0.134944
v -3.761533 0.000000 0.134944
v -3.806381 0.000000 0.134944
v -4.030622 0.000000 -0.034329
v -4.027632 0.000000 -0.089527
v -3.994146 0.000000 -0.089527
v -3.893686 0.000000 -0.089527
v -3.906243 0.000000 0.141384
v -3.505599 0.000000 0.190142
v -3.509187 0.000000 0.260059
v -3.922987 0.000000 0.210381
v -4.047366 0.000000 0.260059
v -4.043778 0.000000 0.190142
v -4.008497 0.000000 0.176342
v -3.997136 0.000000 -0.034329
v -4.018663 0.000000 -0.222002
v -4.015673 0.000000 -0.291919
v -3.884118 0.000000 -0.255121
v -3.887108 0.000000 -0.185203
v -3.745388 0.000000 -0.148405
v -3.616823 0.000000 -0.148405
v -3.613235 0.000000 -0.207282
v -3.741800 0.000000 -0.207282
v -3.758543 0.000000 0.079746
v -3.619215 0.000000 0.079746
v -3.614431 0.000000 0.006149
v -3.754357 0.000000 0.006149
v -4.456979 0.000000 -0.159444
v -4.453990 0.000000 -0.213722
v -4.281772 0.000000 -0.213722
v -4.277586 0.000000 -0.280880
v -4.155600 0.000000 -0.280880
v -4.159785 0.000000 -0.213722
v -4.099988 0.000000 -0.213722
v -4.102977 0.000000 -0.159444
v -4.162775 0.000000 -0.159444
v -4.174137 0.000000 0.040188
v -4.114339 0.000000 0.040188
v -4.117329 0.000000 0.094465
v -4.177724 0.000000 0.094465
v -4.187292 0.000000 0.260059
v -4.475516 0.000000 0.260059
v -4.463557 0.000000 0.040188
v -4.296124 0.000000 0.040188
v -4.284762 0.000000 -0.159444
v -4.644744 0.000000 0.260059
v -4.613649 0.000000 -0.280880
v -4.482094 0.000000 -0.280880
v -4.513189 0.000000 0.260059
v -4.306289 0.000000 0.205781
v -4.299712 0.000000 0.094465
v -4.363097 0.000000 0.094465
v -4.369675 0.000000 0.205781
v -5.245111 0.000000 0.260059
v -5.215213 0.000000 -0.266160
v -5.083658 0.000000 -0.266160
v -5.114155 0.000000 0.260059
v -5.041202 0.000000 0.216821
v -5.038212 0.000000 0.148743
v -4.751781 0.000000 0.191982
v -4.755369 0.000000 0.260059
v -5.011303 0.000000 -0.176004
v -5.008911 0.000000 -0.230282
v -4.746400 0.000000 -0.230282
v -4.748792 0.000000 -0.176004
vn -0.0000 1.0000 -0.0000
vt 0.842105 0.000000
vt 1.000000 0.000000
vt 0.315789 0.000000
vt 0.368421 0.000000
vt 0.947368 0.000000
vt 0.894737 0.000000
vt 0.263158 0.000000
vt 0.210526 0.000000
vt 0.578947 0.000000
vt 0.157895 0.000000
vt 0.526316 0.000000
vt 0.473684 0.000000
vt 0.789474 0.000000
vt 0.736842 0.000000
vt 0.105263 0.000000
vt 0.421053 0.000000
vt 0.052632 0.000000
vt 0.000000 0.000000
vt 0.631579 0.000000
vt 0.684211 0.000000
vt 0.760000 0.000000
vt 0.720000 0.000000
vt 0.600000 0.000000
vt 0.560000 0.000000
vt 0.800000 0.000000
vt 0.080000 0.000000
vt 0.040000 0.000000
vt 0.520000 0.000000
vt 0.480000 0.000000
vt 0.440000 0.000000
vt 0.400000 0.000000
vt 0.360000 0.000000
vt 0.280000 0.000000
vt 0.240000 0.000000
vt 0.320000 0.000000
vt 0.200000 0.000000
vt 0.680000 0.000000
vt 0.840000 0.000000
vt 0.960000 0.000000
vt 0.160000 0.000000
vt 0.120000 0.000000
vt 0.640000 0.000000
vt 0.880000 0.000000
vt 0.920000 0.000000
vt 0.166667 0.000000
vt 0.111111 0.000000
vt 0.555556 0.000000
vt 0.500000 0.000000
vt 0.444444 0.000000
vt 0.277778 0.000000
vt 0.055556 0.000000
vt 0.722222 0.000000
vt 0.611111 0.000000
vt 0.777778 0.000000
vt 0.666667 0.000000
vt 0.944444 0.000000
vt 0.833333 0.000000
vt 0.388889 0.000000
vt 0.333333 0.000000
vt 0.888889 0.000000
vt 0.222222 0.000000
vt 0.083333 0.000000
vt 0.750000 0.000000
vt 0.583333 0.000000
vt 0.916667 0.000000
vt 0.250000 0.000000
vt 0.416667 0.000000
vt 0.714286 0.000000
vt 0.642857 0.000000
vt 0.928571 0.000000
vt 0.785714 0.000000
vt 0.857143 0.000000
vt 0.571429 0.000000
vt 0.285714 0.000000
vt 0.428571 0.000000
vt 0.142857 0.000000
vt 0.071429 0.000000
vt 0.214286 0.000000
vt 0.357143 0.000000
vt 0.921053 0.000000
vt 0.026316 0.000000
vt 0.973684 0.000000
vt 0.815789 0.000000
vt 0.868421 0.000000
vt 0.763158 0.000000
vt 0.710526 0.000000
vt 0.657895 0.000000
vt 0.078947 0.000000
vt 0.552632 0.000000
vt 0.184211 0.000000
vt 0.342105 0.000000
vt 0.447368 0.000000
vt 0.394737 0.000000
vt 0.605263 0.000000
vt 0.289474 0.000000
vt 0.131579 0.000000
vt 0.236842 0.000000
vt 0.851852 0.000000
vt 0.814815 0.000000
vt 0.703704 0.000000
vt 0.037037 0.000000
vt 0.629630 0.000000
vt 0.074074 0.000000
vt 0.259259 0.000000
vt 0.185185 0.000000
vt 0.407407 0.000000
vt 0.518519 0.000000
vt 0.481481 0.000000
vt 0.925926 0.000000
vt 0.370370 0.000000
vt 0.740741 0.000000
vt 0.592593 0.000000
vt 0.962963 0.000000
vt 0.296296 0.000000
vt 0.148148 0.000000
vt 0.413793 0.000000
vt 0.379310 0.000000
vt 0.344828 0.000000
vt 0.448276 0.000000
vt 0.137931 0.000000
vt 0.103448 0.000000
vt 0.482759 0.000000
vt 0.586207 0.000000
vt 0.689655 0.000000
vt 0.620690 0.000000
vt 0.310345 0.000000
vt 0.275862 0.000000
vt 0.241379 0.000000
vt 0.551724 0.000000
vt 0.517241 0.000000
vt 0.827586 0.000000
vt 0.793103 0.000000
vt 0.896552 0.000000
vt 0.862069 0.000000
vt 0.034483 0.000000
vt 0.068966 0.000000
vt 0.931035 0.000000
vt 0.965517 0.000000
vt 0.758621 0.000000
vt 0.206897 0.000000
vt 0.172414 0.000000
vt 0.724138 0.000000
vt 0.655172 0.000000
vt 0.952381 0.000000
vt 0.904762 0.000000
vt 0.761905 0.000000
vt 0.095238 0.000000
vt 0.809524 0.000000
vt 0.047619 0.000000
vt 0.238095 0.000000
vt 0.523810 0.000000
vt 0.476190 0.000000
vt 0.619048 0.000000
vt 0.190476 0.000000
vt 0.380952 0.000000
vt 0.818182 0.000000
vt 0.727273 0.000000
vt 0.909091 0.000000
vt 0.090909 0.000000
vt 0.454545 0.000000
vt 0.636364 0.000000
vt 0.545455 0.000000
vt 0.272727 0.000000
vt 0.181818 0.000000
vt 0.363636 0.000000
vt 0.466667 0.000000
vt 0.433333 0.000000
vt 0.033333 0.000000
vt 0.066667 0.000000
vt 0.266667 0.000000
vt 0.300000 0.000000
vt 0.366667 0.000000
vt 0.100000 0.000000
vt 0.133333 0.000000
vt 0.900000 0.000000
vt 0.866667 0.000000
vt 0.566667 0.000000
vt 0.533333 0.000000
vt 0.933333 0.000000
vt 0.766667 0.000000
vt 0.733333 0.000000
vt 0.966667 0.000000
vt 0.700000 0.000000
vt 0.633333 0.000000
vt 0.233333 0.000000
vt 0.652174 0.000000
vt 0.586957 0.000000
vt 0.717391 0.000000
vt 0.739130 0.000000
vt 0.673913 0.000000
vt 0.695652 0.000000
vt 0.521739 0.000000
vt 0.543478 0.000000
vt 0.456522 0.000000
vt 0.934783 0.000000
vt 0.478261 0.000000
vt 0.304348 0.000000
vt 0.630435 0.000000
vt 0.565217 0.000000
vt 0.826087 0.000000
vt 0.804348 0.000000
vt 0.760870 0.000000
vt 0.782609 0.000000
vt 0.847826 0.000000
vt 0.282609 0.000000
vt 0.260870 0.000000
vt 0.869565 0.000000
vt 0.130435 0.000000
vt 0.913043 0.000000
vt 0.891304 0.000000
vt 0.347826 0.000000
vt 0.413043 0.000000
vt 0.391304 0.000000
vt 0.369565 0.000000
vt 0.217391 0.000000
vt 0.195652 0.000000
vt 0.239130 0.000000
vt 0.173913 0.000000
vt 0.956522 0.000000
vt 0.434783 0.000000
vt 0.978261 0.000000
vt 0.326087 0.000000
vt 0.152174 0.000000
vt 0.065217 0.000000
vt 0.043478 0.000000
vt 0.086957 0.000000
vt 0.108696 0.000000
vt 0.021739 0.000000
vt 0.608696 0.000000
s 0
usemtl Material.050
f 1016/158/233 1019/159/233 1006/160/233
f 1007/161/233 1006/160/233 1019/159/233
f 1019/159/233 1018/162/233 1007/161/233
f 1018/162/233 1017/163/233 1007/161/233
f 1005/164/233 1004/165/233 1011/166/233
f 1003/167/233 1011/166/233 1004/165/233
f 1010/168/233 1009/169/233 1005/164/233
f 1005/164/233 1011/166/233 1010/168/233
f 1015/170/233 1014/171/233 1011/166/233
f 1011/166/233 1003/167/233 1015/170/233
f 1003/167/233 1002/172/233 1015/170/233
f 1005/164/233 1009/169/233 1006/160/233
f 1016/158/233 1006/160/233 1009/169/233
f 1017/163/233 1016/158/233 1009/169/233
f 1009/169/233 1008/173/233 1017/163/233
f 1001/174/233 1000/175/233 1015/170/233
f 1015/170/233 1002/172/233 1001/174/233
f 1017/163/233 1008/173/233 1007/161/233
f 1011/166/233 1014/171/233 1012/176/233
f 1013/177/233 1012/176/233 1014/171/233
f 1039/178/233 1038/179/233 1035/180/233
f 1035/180/233 1034/181/233 1039/178/233
f 1039/178/233 1034/181/233 1040/182/233
f 1045/159/233 1022/183/233 1020/175/233
f 1021/184/233 1020/175/233 1022/183/233
f 1033/185/233 1040/182/233 1034/181/233
f 1032/186/233 1040/182/233 1033/185/233
f 1031/187/233 1030/188/233 1032/186/233
f 1029/189/233 1032/186/233 1030/188/233
f 1027/190/233 1026/191/233 1028/192/233
f 1025/193/233 1028/192/233 1026/191/233
f 1035/180/233 1038/179/233 1037/194/233
f 1040/182/233 1032/186/233 1041/195/233
f 1032/186/233 1029/189/233 1041/195/233
f 1044/196/233 1041/195/233 1029/189/233
f 1029/189/233 1028/192/233 1044/196/233
f 1045/159/233 1044/196/233 1028/192/233
f 1028/192/233 1025/193/233 1045/159/233
f 1022/183/233 1045/159/233 1025/193/233
f 1025/193/233 1024/197/233 1022/183/233
f 1023/198/233 1022/183/233 1024/197/233
f 1037/194/233 1036/199/233 1035/180/233
f 1041/195/233 1044/196/233 1042/200/233
f 1043/201/233 1042/200/233 1044/196/233
f 1049/202/233 1048/203/233 1056/204/233
f 1055/205/233 1054/206/233 1051/207/233
f 1051/207/233 1056/204/233 1055/205/233
f 1047/208/233 1046/175/233 1056/204/233
f 1059/209/233 1057/210/233 1060/211/233
f 1057/210/233 1059/209/233 1058/212/233
f 1063/213/233 1061/214/233 1064/159/233
f 1051/207/233 1054/206/233 1053/215/233
f 1053/215/233 1052/216/233 1051/207/233
f 1056/204/233 1051/207/233 1049/202/233
f 1062/217/233 1061/214/233 1063/213/233
f 1056/204/233 1048/203/233 1047/208/233
f 1050/218/233 1049/202/233 1051/207/233
f 1066/184/233 1065/175/233 1078/185/233
f 1078/185/233 1067/183/233 1066/184/233
f 1070/193/233 1075/188/233 1074/189/233
f 1070/193/233 1074/189/233 1071/191/233
f 1078/185/233 1077/186/233 1076/187/233
f 1076/187/233 1075/188/233 1078/185/233
f 1067/183/233 1078/185/233 1075/188/233
f 1075/188/233 1070/193/233 1067/183/233
f 1068/198/233 1067/183/233 1070/193/233
f 1070/193/233 1069/197/233 1068/198/233
f 1082/194/233 1081/199/233 1084/178/233
f 1080/180/233 1079/181/233 1081/199/233
f 1088/201/233 1087/200/233 1086/195/233
f 1089/196/233 1085/182/233 1090/159/233
f 1088/201/233 1086/195/233 1089/196/233
f 1085/182/233 1089/196/233 1086/195/233
f 1081/199/233 1079/181/233 1090/159/233
f 1084/178/233 1081/199/233 1090/159/233
f 1090/159/233 1085/182/233 1084/178/233
f 1082/194/233 1084/178/233 1083/179/233
f 1073/192/233 1072/190/233 1074/189/233
f 1071/191/233 1074/189/233 1072/190/233
f 1092/219/233 1091/175/233 1093/202/233
f 1093/202/233 1091/175/233 1101/214/233
f 1097/205/233 1100/220/233 1099/212/233
f 1099/212/233 1098/221/233 1097/205/233
f 1101/214/233 1091/175/233 1103/159/233
f 1103/159/233 1102/222/233 1101/214/233
f 1093/202/233 1101/214/233 1100/220/233
f 1094/223/233 1093/202/233 1100/220/233
f 1100/220/233 1097/205/233 1094/223/233
f 1097/205/233 1096/224/233 1094/223/233
f 1095/216/233 1094/223/233 1096/224/233
f 1111/211/233 1110/212/233 1113/159/233
f 1113/159/233 1110/212/233 1109/204/233
f 1109/204/233 1108/206/233 1113/159/233
f 1111/211/233 1113/159/233 1112/217/233
f 1105/203/233 1104/175/233 1107/216/233
f 1107/216/233 1106/218/233 1105/203/233
f 1128/159/233 1124/225/233 1123/226/233
f 1127/227/233 1125/228/233 1128/159/233
f 1125/228/233 1127/227/233 1126/229/233
f 1128/159/233 1123/226/233 1122/230/233
f 1124/225/233 1128/159/233 1125/228/233
f 1118/231/233 1121/205/233 1120/232/233
f 1116/233/233 1115/234/233 1114/175/233
f 1114/175/233 1117/235/233 1116/233/233
f 1118/231/233 1120/232/233 1119/236/233
f 1167/159/233 1165/162/233 1164/237/233
f 1130/238/233 1129/175/233 1155/177/233
f 1165/162/233 1167/159/233 1166/239/233
f 1160/240/233 1163/163/233 1162/241/233
f 1161/158/233 1160/240/233 1162/241/233
f 1159/170/233 1158/242/233 1156/243/233
f 1157/171/233 1156/243/233 1158/242/233
f 1154/244/233 1151/166/233 1131/174/233
f 1132/245/233 1131/174/233 1151/166/233
f 1151/166/233 1150/246/233 1132/245/233
f 1135/167/233 1132/245/233 1150/246/233
f 1150/246/233 1147/169/233 1135/167/233
f 1136/247/233 1135/167/233 1147/169/233
f 1143/161/233 1142/248/233 1146/249/233
f 1143/161/233 1146/249/233 1145/173/233
f 1145/173/233 1144/250/233 1143/161/233
f 1151/166/233 1154/244/233 1153/176/233
f 1153/176/233 1152/251/233 1151/166/233
f 1147/169/233 1150/246/233 1149/168/233
f 1149/168/233 1148/205/233 1147/169/233
f 1136/247/233 1147/169/233 1146/249/233
f 1139/164/233 1136/247/233 1146/249/233
f 1146/249/233 1142/248/233 1139/164/233
f 1142/248/233 1141/160/233 1139/164/233
f 1140/252/233 1139/164/233 1141/160/233
f 1154/244/233 1131/174/233 1155/177/233
f 1130/238/233 1155/177/233 1131/174/233
f 1134/253/233 1133/172/233 1132/245/233
f 1132/245/233 1135/167/233 1134/253/233
f 1138/254/233 1137/165/233 1136/247/233
f 1136/247/233 1139/164/233 1138/254/233
f 1191/255/233 1190/256/233 1187/257/233
f 1169/258/233 1168/175/233 1195/159/233
f 1185/259/233 1192/217/233 1186/212/233
f 1191/255/233 1187/257/233 1186/212/233
f 1186/212/233 1192/217/233 1191/255/233
f 1177/216/233 1170/260/233 1195/159/233
f 1169/258/233 1195/159/233 1170/260/233
f 1175/261/233 1174/218/233 1173/262/233
f 1179/263/233 1182/264/233 1181/265/233
f 1181/265/233 1180/206/233 1179/263/233
f 1193/266/233 1179/263/233 1178/267/233
f 1187/257/233 1190/256/233 1189/211/233
f 1189/211/233 1188/268/233 1187/257/233
f 1185/259/233 1184/269/233 1183/204/233
f 1183/204/233 1182/264/233 1185/259/233
f 1192/217/233 1185/259/233 1182/264/233
f 1182/264/233 1179/263/233 1192/217/233
f 1179/263/233 1193/266/233 1192/217/233
f 1195/159/233 1194/270/233 1177/216/233
f 1193/266/233 1178/267/233 1177/216/233
f 1170/260/233 1177/216/233 1176/271/233
f 1171/203/233 1170/260/233 1176/271/233
f 1176/271/233 1173/262/233 1171/203/233
f 1173/262/233 1172/272/233 1171/203/233
f 1173/262/233 1176/271/233 1175/261/233
f 1193/266/233 1177/216/233 1194/270/233
f 1197/216/233 1196/175/233 1199/159/233
f 1199/159/233 1198/212/233 1197/216/233
f 1212/273/233 1211/274/233 1210/275/233
f 1210/275/233 1213/276/233 1212/273/233
f 1204/277/233 1203/278/233 1214/279/233
f 1217/280/233 1214/279/233 1203/278/233
f 1203/278/233 1220/281/233 1217/280/233
f 1218/282/233 1217/280/233 1220/281/233
f 1210/275/233 1209/283/233 1208/284/233
f 1208/284/233 1207/285/233 1210/275/233
f 1213/276/233 1210/275/233 1207/285/233
f 1207/285/233 1204/277/233 1213/276/233
f 1204/277/233 1214/279/233 1213/276/233
f 1216/286/233 1215/287/233 1214/279/233
f 1214/279/233 1217/280/233 1216/286/233
f 1224/288/233 1223/289/233 1226/290/233
f 1226/290/233 1225/291/233 1224/288/233
f 1200/175/233 1229/159/233 1201/292/233
f 1202/293/233 1201/292/233 1227/294/233
f 1228/295/233 1227/294/233 1201/292/233
f 1201/292/233 1229/159/233 1228/295/233
f 1223/289/233 1222/296/233 1202/293/233
f 1226/290/233 1223/289/233 1202/293/233
f 1202/293/233 1227/294/233 1226/290/233
f 1204/277/233 1207/285/233 1206/297/233
f 1206/297/233 1205/298/233 1204/277/233
f 1220/281/233 1203/278/233 1222/296/233
f 1222/296/233 1221/299/233 1220/281/233
f 1218/282/233 1220/281/233 1219/300/233
f 1222/296/233 1203/278/233 1202/293/233
f 1231/203/233 1230/175/233 1233/216/233
f 1233/216/233 1232/218/233 1231/203/233
f 1239/159/233 1238/217/233 1237/211/233
f 1235/204/233 1237/211/233 1236/212/233
f 1239/159/233 1237/211/233 1234/206/233
f 1237/211/233 1235/204/233 1234/206/233
f 1260/301/233 1259/302/233 1258/229/233
f 1256/303/233 1255/225/233 1258/229/233
f 1255/225/233 1261/159/233 1258/229/233
f 1243/233/233 1242/304/233 1261/159/233
f 1256/303/233 1258/229/233 1257/305/233
f 1241/306/233 1240/175/233 1242/304/233
f 1247/216/233 1246/231/233 1252/230/233
f 1252/230/233 1246/231/233 1245/307/233
f 1249/232/233 1251/308/233 1250/309/233
f 1254/212/233 1253/310/233 1252/230/233
f 1247/216/233 1252/230/233 1251/308/233
f 1251/308/233 1249/232/233 1247/216/233
f 1254/212/233 1252/230/233 1255/225/233
f 1261/159/233 1255/225/233 1252/230/233
f 1252/230/233 1245/307/233 1261/159/233
f 1245/307/233 1244/311/233 1261/159/233
f 1243/233/233 1261/159/233 1244/311/233
f 1249/232/233 1248/312/233 1247/216/233
f 1261/159/233 1242/304/233 1240/175/233
f 1258/229/233 1261/159/233 1260/301/233
f 1271/313/233 1270/314/233 1272/315/233
f 1273/159/233 1263/316/233 1262/175/233
f 1267/317/233 1269/318/233 1268/319/233
f 1265/320/233 1264/321/233 1266/322/233
f 1272/315/233 1270/314/233 1269/318/233
f 1269/318/233 1267/317/233 1272/315/233
f 1273/159/233 1272/315/233 1267/317/233
f 1267/317/233 1266/322/233 1273/159/233
f 1263/316/233 1273/159/233 1266/322/233
f 1266/322/233 1264/321/233 1263/316/233
f 1277/202/233 1276/203/233 1284/204/233
f 1283/205/233 1282/206/233 1279/207/233
f 1279/207/233 1284/204/233 1283/205/233
f 1275/208/233 1274/175/233 1284/204/233
f 1287/209/233 1285/210/233 1288/211/233
f 1285/210/233 1287/209/233 1286/212/233
f 1291/213/233 1289/214/233 1292/159/233
f 1279/207/233 1282/206/233 1281/215/233
f 1281/215/233 1280/216/233 1279/207/233
f 1284/204/233 1279/207/233 1277/202/233
f 1290/217/233 1289/214/233 1291/213/233
f 1284/204/233 1276/203/233 1275/208/233
f 1278/218/233 1277/202/233 1279/207/233
f 1305/188/233 1307/323/233 1306/324/233
f 1294/325/233 1293/175/233 1307/323/233
f 1307/323/233 1295/326/233 1294/325/233
f 1301/327/233 1303/216/233 1302/328/233
f 1298/202/233 1304/329/233 1303/216/233
f 1303/216/233 1299/193/233 1298/202/233
f 1307/323/233 1305/188/233 1304/329/233
f 1295/326/233 1307/323/233 1304/329/233
f 1304/329/233 1298/202/233 1295/326/233
f 1296/330/233 1295/326/233 1298/202/233
f 1298/202/233 1297/331/233 1296/330/233
f 1318/214/233 1320/332/233 1319/333/233
f 1310/334/233 1309/335/233 1323/159/233
f 1323/159/233 1311/180/233 1310/334/233
f 1321/336/233 1317/182/233 1316/337/233
f 1316/337/233 1315/338/233 1321/336/233
f 1322/339/233 1321/336/233 1315/338/233
f 1315/338/233 1314/340/233 1322/339/233
f 1314/340/233 1313/212/233 1322/339/233
f 1312/341/233 1322/339/233 1313/212/233
f 1320/332/233 1318/214/233 1317/182/233
f 1317/182/233 1321/336/233 1320/332/233
f 1311/180/233 1323/159/233 1322/339/233
f 1322/339/233 1312/341/233 1311/180/233
f 1319/333/233 1320/332/233 1308/205/233
f 1303/216/233 1301/327/233 1300/342/233
f 1299/193/233 1303/216/233 1300/342/233
f 1320/332/233 1323/159/233 1309/335/233
f 1308/205/233 1320/332/233 1309/335/233
f 1354/343/233 1351/344/233 1357/345/233
f 1358/346/233 1357/345/233 1351/344/233
f 1354/343/233 1357/345/233 1355/347/233
f 1356/348/233 1355/347/233 1357/345/233
f 1348/349/233 1347/205/233 1358/346/233
f 1358/346/233 1349/350/233 1348/349/233
f 1345/351/233 1367/352/233 1346/353/233
f 1367/352/233 1370/159/233 1346/353/233
f 1346/353/233 1370/159/233 1324/175/233
f 1324/175/233 1370/159/233 1338/354/233
f 1351/344/233 1354/343/233 1353/355/233
f 1358/346/233 1351/344/233 1350/356/233
f 1349/350/233 1358/346/233 1350/356/233
f 1362/357/233 1361/358/233 1359/359/233
f 1360/360/233 1359/359/233 1361/358/233
f 1363/361/233 1337/362/233 1336/363/233
f 1336/363/233 1364/364/233 1363/361/233
f 1330/365/233 1366/366/233 1365/367/233
f 1340/368/233 1343/369/233 1342/370/233
f 1342/370/233 1341/371/233 1340/368/233
f 1334/372/233 1333/373/233 1335/374/233
f 1332/375/233 1335/374/233 1333/373/233
f 1368/376/233 1344/377/233 1343/369/233
f 1369/378/233 1368/376/233 1343/369/233
f 1343/369/233 1340/368/233 1369/378/233
f 1340/368/233 1339/379/233 1369/378/233
f 1338/354/233 1369/378/233 1339/379/233
f 1364/364/233 1336/363/233 1335/374/233
f 1365/367/233 1364/364/233 1335/374/233
f 1335/374/233 1332/375/233 1365/367/233
f 1332/375/233 1331/380/233 1365/367/233
f 1330/365/233 1365/367/233 1331/380/233
f 1367/352/233 1345/351/233 1344/377/233
f 1344/377/233 1368/376/233 1367/352/233
f 1369/378/233 1338/354/233 1370/159/233
f 1327/381/233 1326/382/233 1363/361/233
f 1363/361/233 1366/366/233 1327/381/233
f 1328/383/233 1327/381/233 1366/366/233
f 1366/366/233 1330/365/233 1328/383/233
f 1330/365/233 1329/384/233 1328/383/233
f 1337/362/233 1363/361/233 1326/382/233
f 1325/385/233 1324/175/233 1338/354/233
f 1338/354/233 1337/362/233 1325/385/233
f 1326/382/233 1325/385/233 1337/362/233
f 1353/355/233 1352/386/233 1351/344/233
f 1394/201/233 1387/199/233 1395/196/233
f 1393/200/233 1396/159/233 1385/181/233
f 1386/180/233 1385/181/233 1396/159/233
f 1396/159/233 1395/196/233 1386/180/233
f 1395/196/233 1387/199/233 1386/180/233
f 1390/178/233 1389/179/233 1392/195/233
f 1376/193/233 1379/192/233 1378/190/233
f 1378/190/233 1377/191/233 1376/193/233
f 1380/189/233 1383/186/233 1382/187/233
f 1382/187/233 1381/188/233 1380/189/233
f 1388/194/233 1380/189/233 1379/192/233
f 1373/183/233 1388/194/233 1379/192/233
f 1379/192/233 1376/193/233 1373/183/233
f 1374/198/233 1373/183/233 1376/193/233
f 1376/193/233 1375/197/233 1374/198/233
f 1393/200/233 1385/181/233 1384/185/233
f 1384/185/233 1383/186/233 1393/200/233
f 1394/201/233 1393/200/233 1383/186/233
f 1387/199/233 1394/201/233 1383/186/233
f 1383/186/233 1380/189/233 1387/199/233
f 1380/189/233 1388/194/233 1387/199/233
f 1372/184/233 1371/175/233 1388/194/233
f 1388/194/233 1373/183/233 1372/184/233
f 1391/182/233 1390/178/233 1392/195/233
f 1398/316/233 1397/175/233 1400/320/233
f 1406/313/233 1405/314/233 1408/159/233
f 1408/159/233 1407/315/233 1406/313/233
f 1404/318/233 1403/319/233 1401/322/233
f 1402/317/233 1401/322/233 1403/319/233
f 1399/321/233 1398/316/233 1400/320/233
