# Blender 5.2.1 LTS
# www.blender.org
mtllib tutorialTextEnd.mtl
o Text.006
v 2.630239 0.050000 -0.264448
v 2.286402 0.050000 -0.264448
v 2.289392 0.050000 -0.319646
v 2.684654 0.050000 -0.319646
v 2.813817 0.050000 -0.319646
v 2.596154 0.050000 -0.099775
v 2.578214 0.050000 0.214852
v 2.571039 0.050000 0.214852
v 2.449051 0.050000 0.214852
v 2.367129 0.050000 0.214852
v 2.370119 0.050000 0.159655
v 2.452042 0.050000 0.159655
v 2.466991 0.050000 -0.099775
v 1.781112 0.050000 0.214852
v 1.699788 0.050000 0.214852
v 1.712345 0.050000 -0.016978
v 1.648960 0.050000 -0.016978
v 1.729686 0.050000 -0.143933
v 1.654939 0.050000 -0.143933
v 1.762575 0.050000 -0.337126
v 1.858251 0.050000 -0.337126
v 1.781112 0.050000 -0.199131
v 1.804433 0.050000 -0.199131
v 1.860045 0.050000 -0.199131
v 1.808619 0.050000 -0.110815
v 1.859447 0.050000 -0.110815
v 1.854065 0.050000 -0.016978
v 1.801444 0.050000 -0.016978
v 1.793670 0.050000 -0.016978
v 1.683642 0.050000 0.196453
v 1.635804 0.050000 0.196453
v 1.656136 0.050000 0.008781
v 1.703973 0.050000 0.008781
v 1.843900 0.050000 0.196453
v 1.796062 0.050000 0.196453
v 1.802041 0.050000 0.008781
v 1.849880 0.050000 0.008781
v 1.927019 0.050000 0.016140
v 1.866025 0.050000 0.016140
v 1.928214 0.050000 -0.085976
v 1.863035 0.050000 -0.114494
v 1.867221 0.050000 -0.184412
v 1.962299 0.050000 -0.142093
v 2.041830 0.050000 -0.272728
v 2.014921 0.050000 -0.272728
v 1.971269 0.050000 -0.197291
v 1.868417 0.050000 -0.197291
v 1.943762 0.050000 -0.327926
v 2.000569 0.050000 -0.327926
v 2.046614 0.050000 -0.327926
v 2.075316 0.050000 -0.327926
v 2.175179 0.050000 -0.327926
v 2.199696 0.050000 -0.327926
v 2.060367 0.050000 -0.098855
v 2.188932 0.050000 -0.042737
v 2.184746 0.050000 0.027180
v 2.026282 0.050000 -0.042737
v 1.996384 0.050000 0.006021
v 2.118371 0.050000 0.023500
v 2.114185 0.050000 0.093417
v 1.924626 0.050000 0.066738
v 2.133320 0.050000 0.214852
v 1.889346 0.050000 0.181734
v 1.893532 0.050000 0.111816
v 2.137506 0.050000 0.144935
v 1.806825 0.050000 -0.107135
v 1.786494 0.050000 -0.072176
v 1.804433 0.050000 -0.072176
v 1.156227 0.050000 0.214852
v 1.031848 0.050000 0.214852
v 1.091646 0.050000 -0.274568
v 1.216025 0.050000 -0.274568
v 1.561057 0.050000 0.214852
v 1.273431 0.050000 0.214852
v 1.304525 0.050000 -0.337126
v 1.438472 0.050000 -0.337126
v 1.409769 0.050000 0.159655
v 1.564047 0.050000 0.159655
v 0.928996 0.050000 0.008781
v 0.795050 0.050000 0.008781
v 0.829732 0.050000 -0.268128
v 0.445832 0.050000 -0.268128
v 0.448821 0.050000 -0.323326
v 0.970257 0.050000 -0.323326
v 0.673063 0.050000 0.214852
v 0.539116 0.050000 0.214852
v 0.621038 0.050000 -0.200051
v 0.754985 0.050000 -0.200051
v 0.287966 0.050000 0.214852
v 0.154019 0.050000 0.214852
v 0.207837 0.050000 -0.281928
v 0.144452 0.050000 -0.281928
v 0.147442 0.050000 -0.337126
v 0.347764 0.050000 -0.337126
v -0.028363 0.050000 0.008781
v -0.162310 0.050000 0.008781
v -0.142577 0.050000 -0.337126
v -0.008630 0.050000 -0.337126
v -0.643083 0.050000 0.214852
v -0.776432 0.050000 0.214852
v -0.745337 0.050000 -0.337126
v -0.611390 0.050000 -0.337126
v -0.623948 0.050000 -0.116334
v -0.286689 0.050000 -0.116334
v -0.289679 0.050000 -0.061137
v -0.626938 0.050000 -0.061137
v -0.887655 0.050000 0.008781
v -1.401914 0.050000 0.008781
v -1.398925 0.050000 -0.046417
v -0.884665 0.050000 -0.046417
v -1.697913 0.050000 -0.156813
v -1.966404 0.050000 -0.156813
v -1.963414 0.050000 -0.212011
v -1.557388 0.050000 -0.212011
v -1.600443 0.050000 0.159655
v -1.517922 0.050000 0.159655
v -1.520912 0.050000 0.214852
v -2.018428 0.050000 0.214852
v -2.015438 0.050000 0.159655
v -1.733791 0.050000 0.159655
v -2.433423 0.050000 -0.061137
v -2.625972 0.050000 -0.061137
v -2.622982 0.050000 -0.116334
v -2.428639 0.050000 -0.116334
v -2.413690 0.050000 -0.272728
v -2.609228 0.050000 -0.267208
v -2.606238 0.050000 -0.322406
v -2.099155 0.050000 -0.337126
v -2.102144 0.050000 -0.281928
v -2.279743 0.050000 -0.276408
v -2.294693 0.050000 -0.116334
v -2.103938 0.050000 -0.116334
v -2.106928 0.050000 -0.061137
v -2.300075 0.050000 -0.061137
v -2.325788 0.050000 0.214852
v -2.459136 0.050000 0.214852
v 2.630239 -0.050000 -0.264448
v 2.286402 -0.050000 -0.264448
v 2.289392 -0.050000 -0.319646
v 2.684654 -0.050000 -0.319646
v 2.813817 -0.050000 -0.319646
v 2.596154 -0.050000 -0.099775
v 2.578214 -0.050000 0.214852
v 2.571039 -0.050000 0.214852
v 2.449051 -0.050000 0.214852
v 2.367129 -0.050000 0.214852
v 2.370119 -0.050000 0.159655
v 2.452042 -0.050000 0.159655
v 2.466991 -0.050000 -0.099775
v 1.781112 -0.050000 0.214852
v 1.699788 -0.050000 0.214852
v 1.712345 -0.050000 -0.016978
v 1.648960 -0.050000 -0.016978
v 1.729686 -0.050000 -0.143933
v 1.654939 -0.050000 -0.143933
v 1.762575 -0.050000 -0.337126
v 1.858251 -0.050000 -0.337126
v 1.781112 -0.050000 -0.199131
v 1.804433 -0.050000 -0.199131
v 1.860045 -0.050000 -0.199131
v 1.808619 -0.050000 -0.110815
v 1.859447 -0.050000 -0.110815
v 1.854065 -0.050000 -0.016978
v 1.801444 -0.050000 -0.016978
v 1.793670 -0.050000 -0.016978
v 1.683642 -0.050000 0.196453
v 1.635804 -0.050000 0.196453
v 1.656136 -0.050000 0.008781
v 1.703973 -0.050000 0.008781
v 1.843900 -0.050000 0.196453
v 1.796062 -0.050000 0.196453
v 1.802041 -0.050000 0.008781
v 1.849880 -0.050000 0.008781
v 1.927019 -0.050000 0.016140
v 1.866025 -0.050000 0.016140
v 1.928214 -0.050000 -0.085976
v 1.863035 -0.050000 -0.114494
v 1.867221 -0.050000 -0.184412
v 1.962299 -0.050000 -0.142093
v 2.041830 -0.050000 -0.272728
v 2.014921 -0.050000 -0.272728
v 1.971269 -0.050000 -0.197291
v 1.868417 -0.050000 -0.197291
v 1.943762 -0.050000 -0.327926
v 2.000569 -0.050000 -0.327926
v 2.046614 -0.050000 -0.327926
v 2.075316 -0.050000 -0.327926
v 2.175179 -0.050000 -0.327926
v 2.199696 -0.050000 -0.327926
v 2.060367 -0.050000 -0.098855
v 2.188932 -0.050000 -0.042737
v 2.184746 -0.050000 0.027180
v 2.026282 -0.050000 -0.042737
v 1.996384 -0.050000 0.006021
v 2.118371 -0.050000 0.023500
v 2.114185 -0.050000 0.093417
v 1.924626 -0.050000 0.066738
v 2.133320 -0.050000 0.214852
v 1.889346 -0.050000 0.181734
v 1.893532 -0.050000 0.111816
v 2.137506 -0.050000 0.144935
v 1.806825 -0.050000 -0.107135
v 1.786494 -0.050000 -0.072176
v 1.804433 -0.050000 -0.072176
v 1.156227 -0.050000 0.214852
v 1.031848 -0.050000 0.214852
v 1.091646 -0.050000 -0.274568
v 1.216025 -0.050000 -0.274568
v 1.561057 -0.050000 0.214852
v 1.273431 -0.050000 0.214852
v 1.304525 -0.050000 -0.337126
v 1.438472 -0.050000 -0.337126
v 1.409769 -0.050000 0.159655
v 1.564047 -0.050000 0.159655
v 0.928996 -0.050000 0.008781
v 0.795050 -0.050000 0.008781
v 0.829732 -0.050000 -0.268128
v 0.445832 -0.050000 -0.268128
v 0.448821 -0.050000 -0.323326
v 0.970257 -0.050000 -0.323326
v 0.673063 -0.050000 0.214852
v 0.539116 -0.050000 0.214852
v 0.621038 -0.050000 -0.200051
v 0.754985 -0.050000 -0.200051
v 0.287966 -0.050000 0.214852
v 0.154019 -0.050000 0.214852
v 0.207837 -0.050000 -0.281928
v 0.144452 -0.050000 -0.281928
v 0.147442 -0.050000 -0.337126
v 0.347764 -0.050000 -0.337126
v -0.028363 -0.050000 0.008781
v -0.162310 -0.050000 0.008781
v -0.142577 -0.050000 -0.337126
v -0.008630 -0.050000 -0.337126
v -0.643083 -0.050000 0.214852
v -0.776432 -0.050000 0.214852
v -0.745337 -0.050000 -0.337126
v -0.611390 -0.050000 -0.337126
v -0.623948 -0.050000 -0.116334
v -0.286689 -0.050000 -0.116334
v -0.289679 -0.050000 -0.061137
v -0.626938 -0.050000 -0.061137
v -0.887655 -0.050000 0.008781
v -1.401914 -0.050000 0.008781
v -1.398925 -0.050000 -0.046417
v -0.884665 -0.050000 -0.046417
v -1.697913 -0.050000 -0.156813
v -1.966404 -0.050000 -0.156813
v -1.963414 -0.050000 -0.212011
v -1.557388 -0.050000 -0.212011
v -1.600443 -0.050000 0.159655
v -1.517922 -0.050000 0.159655
v -1.520912 -0.050000 0.214852
v -2.018428 -0.050000 0.214852
v -2.015438 -0.050000 0.159655
v -1.733791 -0.050000 0.159655
v -2.433423 -0.050000 -0.061137
v -2.625972 -0.050000 -0.061137
v -2.622982 -0.050000 -0.116334
v -2.428639 -0.050000 -0.116334
v -2.413690 -0.050000 -0.272728
v -2.609228 -0.050000 -0.267208
v -2.606238 -0.050000 -0.322406
v -2.099155 -0.050000 -0.337126
v -2.102144 -0.050000 -0.281928
v -2.279743 -0.050000 -0.276408
v -2.294693 -0.050000 -0.116334
v -2.103938 -0.050000 -0.116334
v -2.106928 -0.050000 -0.061137
v -2.300075 -0.050000 -0.061137
v -2.325788 -0.050000 0.214852
v -2.459136 -0.050000 0.214852
v -2.433423 -0.050000 -0.061137
v -2.433423 0.050000 -0.061137
v -2.625972 -0.050000 -0.061137
v -2.625972 0.050000 -0.061137
v -2.622982 -0.050000 -0.116334
v -2.622982 0.050000 -0.116334
v -2.428639 -0.050000 -0.116334
v -2.428639 0.050000 -0.116334
v -2.413690 -0.050000 -0.272728
v -2.413690 0.050000 -0.272728
v -2.609228 -0.050000 -0.267208
v -2.609228 0.050000 -0.267208
v -2.606238 -0.050000 -0.322406
v -2.606238 0.050000 -0.322406
v -2.099155 -0.050000 -0.337126
v -2.099155 0.050000 -0.337126
v -2.102144 -0.050000 -0.281928
v -2.102144 0.050000 -0.281928
v -2.279743 -0.050000 -0.276408
v -2.279743 0.050000 -0.276408
v -2.294693 -0.050000 -0.116334
v -2.294693 0.050000 -0.116334
v -2.103938 -0.050000 -0.116334
v -2.103938 0.050000 -0.116334
v -2.106928 -0.050000 -0.061137
v -2.106928 0.050000 -0.061137
v -2.300075 -0.050000 -0.061137
v -2.300075 0.050000 -0.061137
v -2.325788 -0.050000 0.214852
v -2.325788 0.050000 0.214852
v -2.459136 -0.050000 0.214852
v -2.459136 0.050000 0.214852
v -1.697913 -0.050000 -0.156813
v -1.697913 0.050000 -0.156813
v -1.966404 -0.050000 -0.156813
v -1.966404 0.050000 -0.156813
v -1.963414 -0.050000 -0.212011
v -1.963414 0.050000 -0.212011
v -1.557388 -0.050000 -0.212011
v -1.557388 0.050000 -0.212011
v -1.600443 -0.050000 0.159655
v -1.600443 0.050000 0.159655
v -1.517922 -0.050000 0.159655
v -1.517922 0.050000 0.159655
v -1.520912 -0.050000 0.214852
v -1.520912 0.050000 0.214852
v -2.018428 -0.050000 0.214852
v -2.018428 0.050000 0.214852
v -2.015438 -0.050000 0.159655
v -2.015438 0.050000 0.159655
v -1.733791 -0.050000 0.159655
v -1.733791 0.050000 0.159655
v -0.887655 -0.050000 0.008781
v -0.887655 0.050000 0.008781
v -1.401914 -0.050000 0.008781
v -1.401914 0.050000 0.008781
v -1.398925 -0.050000 -0.046417
v -1.398925 0.050000 -0.046417
v -0.884665 -0.050000 -0.046417
v -0.884665 0.050000 -0.046417
v -0.643083 -0.050000 0.214852
v -0.643083 0.050000 0.214852
v -0.776432 -0.050000 0.214852
v -0.776432 0.050000 0.214852
v -0.745337 -0.050000 -0.337126
v -0.745337 0.050000 -0.337126
v -0.611390 -0.050000 -0.337126
v -0.611390 0.050000 -0.337126
v -0.623948 -0.050000 -0.116334
v -0.623948 0.050000 -0.116334
v -0.286689 -0.050000 -0.116334
v -0.286689 0.050000 -0.116334
v -0.289679 -0.050000 -0.061137
v -0.289679 0.050000 -0.061137
v -0.626938 -0.050000 -0.061137
v -0.626938 0.050000 -0.061137
v 0.287966 -0.050000 0.214852
v 0.287966 0.050000 0.214852
v 0.154019 -0.050000 0.214852
v 0.154019 0.050000 0.214852
v 0.207837 -0.050000 -0.281928
v 0.207837 0.050000 -0.281928
v 0.144452 -0.050000 -0.281928
v 0.144452 0.050000 -0.281928
v 0.147442 -0.050000 -0.337126
v 0.147442 0.050000 -0.337126
v 0.347764 -0.050000 -0.337126
v 0.347764 0.050000 -0.337126
v -0.028363 -0.050000 0.008781
v -0.028363 0.050000 0.008781
v -0.162310 -0.050000 0.008781
v -0.162310 0.050000 0.008781
v -0.142577 -0.050000 -0.337126
v -0.142577 0.050000 -0.337126
v -0.008630 -0.050000 -0.337126
v -0.008630 0.050000 -0.337126
v 0.928996 -0.050000 0.008781
v 0.928996 0.050000 0.008781
v 0.795050 -0.050000 0.008781
v 0.795050 0.050000 0.008781
v 0.829732 -0.050000 -0.268128
v 0.829732 0.050000 -0.268128
v 0.445832 -0.050000 -0.268128
v 0.445832 0.050000 -0.268128
v 0.448821 -0.050000 -0.323326
v 0.448821 0.050000 -0.323326
v 0.970257 -0.050000 -0.323326
v 0.970257 0.050000 -0.323326
v 0.673063 -0.050000 0.214852
v 0.673063 0.050000 0.214852
v 0.539116 -0.050000 0.214852
v 0.539116 0.050000 0.214852
v 0.621038 -0.050000 -0.200051
v 0.621038 0.050000 -0.200051
v 0.754985 -0.050000 -0.200051
v 0.754985 0.050000 -0.200051
v 1.156227 -0.050000 0.214852
v 1.156227 0.050000 0.214852
v 1.031848 -0.050000 0.214852
v 1.031848 0.050000 0.214852
v 1.091646 -0.050000 -0.274568
v 1.091646 0.050000 -0.274568
v 1.216025 -0.050000 -0.274568
v 1.216025 0.050000 -0.274568
v 1.561057 -0.050000 0.214852
v 1.561057 0.050000 0.214852
v 1.273431 -0.050000 0.214852
v 1.273431 0.050000 0.214852
v 1.304525 -0.050000 -0.337126
v 1.304525 0.050000 -0.337126
v 1.438472 -0.050000 -0.337126
v 1.438472 0.050000 -0.337126
v 1.409769 -0.050000 0.159655
v 1.409769 0.050000 0.159655
v 1.564047 -0.050000 0.159655
v 1.564047 0.050000 0.159655
v 1.781112 -0.050000 0.214852
v 1.781112 0.050000 0.214852
v 1.699788 -0.050000 0.214852
v 1.699788 0.050000 0.214852
v 1.712345 -0.050000 -0.016978
v 1.712345 0.050000 -0.016978
v 1.648960 -0.050000 -0.016978
v 1.648960 0.050000 -0.016978
v 1.729686 -0.050000 -0.143933
v 1.729686 0.050000 -0.143933
v 1.654939 -0.050000 -0.143933
v 1.654939 0.050000 -0.143933
v 1.762575 -0.050000 -0.337126
v 1.762575 0.050000 -0.337126
v 1.858251 -0.050000 -0.337126
v 1.858251 0.050000 -0.337126
v 1.781112 -0.050000 -0.199131
v 1.781112 0.050000 -0.199131
v 1.804433 -0.050000 -0.199131
v 1.804433 0.050000 -0.199131
v 1.860045 -0.050000 -0.199131
v 1.860045 0.050000 -0.199131
v 1.808619 -0.050000 -0.110815
v 1.808619 0.050000 -0.110815
v 1.859447 -0.050000 -0.110815
v 1.859447 0.050000 -0.110815
v 1.854065 -0.050000 -0.016978
v 1.854065 0.050000 -0.016978
v 1.801444 -0.050000 -0.016978
v 1.801444 0.050000 -0.016978
v 1.793670 -0.050000 -0.016978
v 1.793670 0.050000 -0.016978
v 1.683642 -0.050000 0.196453
v 1.683642 0.050000 0.196453
v 1.635804 -0.050000 0.196453
v 1.635804 0.050000 0.196453
v 1.656136 -0.050000 0.008781
v 1.656136 0.050000 0.008781
v 1.703973 -0.050000 0.008781
v 1.703973 0.050000 0.008781
v 1.843900 -0.050000 0.196453
v 1.843900 0.050000 0.196453
v 1.796062 -0.050000 0.196453
v 1.796062 0.050000 0.196453
v 1.802041 -0.050000 0.008781
v 1.802041 0.050000 0.008781
v 1.849880 -0.050000 0.008781
v 1.849880 0.050000 0.008781
v 1.927019 -0.050000 0.016140
v 1.927019 0.050000 0.016140
v 1.866025 -0.050000 0.016140
v 1.866025 0.050000 0.016140
v 1.928214 -0.050000 -0.085976
v 1.928214 0.050000 -0.085976
v 1.863035 -0.050000 -0.114494
v 1.863035 0.050000 -0.114494
v 1.867221 -0.050000 -0.184412
v 1.867221 0.050000 -0.184412
v 1.962299 -0.050000 -0.142093
v 1.962299 0.050000 -0.142093
v 2.041830 -0.050000 -0.272728
v 2.041830 0.050000 -0.272728
v 2.014921 -0.050000 -0.272728
v 2.014921 0.050000 -0.272728
v 1.971269 -0.050000 -0.197291
v 1.971269 0.050000 -0.197291
v 1.868417 -0.050000 -0.197291
v 1.868417 0.050000 -0.197291
v 1.943762 -0.050000 -0.327926
v 1.943762 0.050000 -0.327926
v 2.000569 -0.050000 -0.327926
v 2.000569 0.050000 -0.327926
v 2.046614 -0.050000 -0.327926
v 2.046614 0.050000 -0.327926
v 2.075316 -0.050000 -0.327926
v 2.075316 0.050000 -0.327926
v 2.175179 -0.050000 -0.327926
v 2.175179 0.050000 -0.327926
v 2.199696 -0.050000 -0.327926
v 2.199696 0.050000 -0.327926
v 2.060367 -0.050000 -0.098855
v 2.060367 0.050000 -0.098855
v 2.188932 -0.050000 -0.042737
v 2.188932 0.050000 -0.042737
v 2.184746 -0.050000 0.027180
v 2.184746 0.050000 0.027180
v 2.026282 -0.050000 -0.042737
v 2.026282 0.050000 -0.042737
v 1.996384 -0.050000 0.006021
v 1.996384 0.050000 0.006021
v 2.118371 -0.050000 0.023500
v 2.118371 0.050000 0.023500
v 2.114185 -0.050000 0.093417
v 2.114185 0.050000 0.093417
v 1.924626 -0.050000 0.066738
v 1.924626 0.050000 0.066738
v 2.133320 -0.050000 0.214852
v 2.133320 0.050000 0.214852
v 1.889346 -0.050000 0.181734
v 1.889346 0.050000 0.181734
v 1.893532 -0.050000 0.111816
v 1.893532 0.050000 0.111816
v 2.137506 -0.050000 0.144935
v 2.137506 0.050000 0.144935
v 1.806825 -0.050000 -0.107135
v 1.806825 0.050000 -0.107135
v 1.786494 -0.050000 -0.072176
v 1.786494 0.050000 -0.072176
v 1.804433 -0.050000 -0.072176
v 1.804433 0.050000 -0.072176
v 2.630239 -0.050000 -0.264448
v 2.630239 0.050000 -0.264448
v 2.286402 -0.050000 -0.264448
v 2.286402 0.050000 -0.264448
v 2.289392 -0.050000 -0.319646
v 2.289392 0.050000 -0.319646
v 2.684654 -0.050000 -0.319646
v 2.684654 0.050000 -0.319646
v 2.813817 -0.050000 -0.319646
v 2.813817 0.050000 -0.319646
v 2.596154 -0.050000 -0.099775
v 2.596154 0.050000 -0.099775
v 2.578214 -0.050000 0.214852
v 2.578214 0.050000 0.214852
v 2.571039 -0.050000 0.214852
v 2.571039 0.050000 0.214852
v 2.449051 -0.050000 0.214852
v 2.449051 0.050000 0.214852
v 2.367129 -0.050000 0.214852
v 2.367129 0.050000 0.214852
v 2.370119 -0.050000 0.159655
v 2.370119 0.050000 0.159655
v 2.452042 -0.050000 0.159655
v 2.452042 0.050000 0.159655
v 2.466991 -0.050000 -0.099775
v 2.466991 0.050000 -0.099775
vn -0.0000 1.0000 -0.0000
vn -0.0000 -1.0000 -0.0000
vn -0.8582 -0.0000 0.5133
vn -0.8712 -0.0000 0.4909
vn -0.8168 -0.0000 -0.5770
vn -0.7990 -0.0000 -0.6013
vn -0.8681 -0.0000 0.4964
vn -0.8540 -0.0000 0.5202
vn -0.8219 -0.0000 -0.5697
vn -0.8540 -0.0000 0.5203
vn 0.8539 -0.0000 -0.5205
vn 0.8222 -0.0000 0.5692
vn 0.8058 -0.0000 0.5922
vn 0.8713 -0.0000 -0.4908
vn 0.8582 -0.0000 -0.5133
vn 0.8168 -0.0000 0.5770
vn 0.8001 -0.0000 0.5999
vn -0.8775 -0.0000 0.4795
vn 0.8783 -0.0000 -0.4781
vn 0.8783 -0.0000 -0.4782
vn -0.7911 -0.0000 -0.6117
vn -0.8590 -0.0000 0.5120
vn 0.8150 -0.0000 0.5795
vn 0.8149 -0.0000 0.5796
vn -0.8159 -0.0000 -0.5783
vn 0.8592 -0.0000 -0.5117
vn -0.8159 -0.0000 -0.5782
vn 0.8591 -0.0000 -0.5117
vn -0.8760 -0.0000 0.4823
vn 0.7934 -0.0000 0.6087
vn 0.7934 -0.0000 0.6088
vn -0.8760 -0.0000 0.4824
vn 0.8760 -0.0000 -0.4823
vn 0.8760 -0.0000 -0.4824
vn -0.8592 -0.0000 0.5116
vn 0.8156 -0.0000 0.5787
vn 0.8155 -0.0000 0.5787
vn -0.8155 -0.0000 -0.5787
vn 0.8592 -0.0000 -0.5116
vn -0.8156 -0.0000 -0.5787
vn -0.8811 -0.0000 0.4729
vn 0.7862 -0.0000 0.6180
vn 0.8808 -0.0000 -0.4735
vn -0.9009 -0.0000 0.4341
vn 0.7519 -0.0000 0.6593
vn -0.7519 -0.0000 -0.6593
vn 0.9009 -0.0000 -0.4341
vn -0.8802 -0.0000 0.4746
vn 0.7871 -0.0000 0.6168
vn -0.7871 -0.0000 -0.6168
vn 0.8802 -0.0000 -0.4746
vn 0.8595 -0.0000 -0.5112
vn 0.8167 -0.0000 0.5770
vn -0.9646 -0.0000 0.2638
vn -0.9581 -0.0000 0.2865
vn -0.5776 -0.0000 -0.8163
vn 0.9583 -0.0000 -0.2859
vn -0.0000 -0.0000 -1.0000
vn 0.9583 -0.0000 -0.2858
vn 0.9603 -0.0000 -0.2789
vn 0.9603 -0.0000 -0.2788
vn 0.8593 -0.0000 -0.5115
vn 0.8154 -0.0000 0.5788
vn 0.8593 -0.0000 -0.5114
vn -0.0000 -0.0000 1.0000
vn 0.8154 -0.0000 0.5789
vn -0.7934 -0.0000 -0.6088
vn -0.8503 -0.0000 0.5263
vn 0.8259 -0.0000 0.5638
vn -0.8259 -0.0000 -0.5638
vn 0.8503 -0.0000 -0.5263
vn -0.9625 -0.0000 0.2712
vn -0.8558 -0.0000 0.5173
vn -0.9842 -0.0000 0.1773
vn -0.9625 -0.0000 0.2711
vn -0.9134 -0.0000 0.4070
vn -0.9841 -0.0000 0.1774
vn -0.7240 -0.0000 -0.6898
vn -0.3895 -0.0000 -0.9210
vn 0.5680 -0.0000 0.8230
vn -0.9599 -0.0000 0.2805
vn -0.5689 -0.0000 -0.8224
vn 0.9625 -0.0000 -0.2713
vn 0.9841 -0.0000 -0.1778
vn 0.9625 -0.0000 -0.2714
vn 0.9133 -0.0000 -0.4072
vn 0.9841 -0.0000 -0.1777
vn 0.7248 -0.0000 0.6889
vn 0.3887 -0.0000 0.9214
vn 0.7249 -0.0000 0.6889
vn 0.9712 -0.0000 -0.2382
vn 0.8800 -0.0000 -0.4750
vn 0.7880 -0.0000 0.6157
vn -0.8757 -0.0000 0.4828
vn -0.8790 -0.0000 0.4768
vn 0.7890 -0.0000 0.6144
vn 0.7890 -0.0000 0.6145
vn -0.7890 -0.0000 -0.6145
vn 0.8790 -0.0000 -0.4768
vn 0.9603 -0.0000 -0.2791
vn -0.5636 -0.0000 0.8260
vn -0.5635 -0.0000 0.8261
vn -0.8108 -0.0000 -0.5854
vn 0.9603 -0.0000 -0.2790
vn -0.9817 -0.0000 0.1905
vn -0.9817 -0.0000 0.1906
vn 0.9816 -0.0000 -0.1907
vn 0.9321 -0.0000 0.3621
vn 0.9816 -0.0000 -0.1908
vn -0.8153 -0.0000 -0.5790
vn -0.9319 -0.0000 -0.3626
vt 0.833333 0.000000
vt 0.666667 0.000000
vt 0.916667 0.000000
vt 0.750000 0.000000
vt 0.333333 0.000000
vt 0.250000 0.000000
vt 0.416667 0.000000
vt 0.000000 0.000000
vt 0.583333 0.000000
vt 0.500000 0.000000
vt 1.000000 0.000000
vt 0.166667 0.000000
vt 0.083333 0.000000
vt 0.296296 0.000000
vt 0.314815 0.000000
vt 0.074074 0.000000
vt 0.037037 0.000000
vt 0.981481 0.000000
vt 0.148148 0.000000
vt 0.111111 0.000000
vt 0.351852 0.000000
vt 0.055556 0.000000
vt 0.092593 0.000000
vt 0.277778 0.000000
vt 0.259259 0.000000
vt 0.407407 0.000000
vt 0.388889 0.000000
vt 0.370370 0.000000
vt 0.425926 0.000000
vt 0.240741 0.000000
vt 0.222222 0.000000
vt 0.203704 0.000000
vt 0.962963 0.000000
vt 0.185185 0.000000
vt 0.018519 0.000000
vt 0.129630 0.000000
vt 0.925926 0.000000
vt 0.907407 0.000000
vt 0.888889 0.000000
vt 0.481481 0.000000
vt 0.444444 0.000000
vt 0.814815 0.000000
vt 0.870370 0.000000
vt 0.518519 0.000000
vt 0.537037 0.000000
vt 0.592593 0.000000
vt 0.629630 0.000000
vt 0.611111 0.000000
vt 0.685185 0.000000
vt 0.555556 0.000000
vt 0.574074 0.000000
vt 0.722222 0.000000
vt 0.703704 0.000000
vt 0.740741 0.000000
vt 0.777778 0.000000
vt 0.759259 0.000000
vt 0.851852 0.000000
vt 0.796296 0.000000
vt 0.648148 0.000000
vt 0.462963 0.000000
vt 0.944444 0.000000
vt 0.142857 0.000000
vt 0.285714 0.000000
vt 0.857143 0.000000
vt 0.714286 0.000000
vt 0.571429 0.000000
vt 0.428571 0.000000
vt 0.133333 0.000000
vt 0.066667 0.000000
vt 0.200000 0.000000
vt 0.400000 0.000000
vt 0.266667 0.000000
vt 0.866667 0.000000
vt 0.800000 0.000000
vt 0.733333 0.000000
vt 0.533333 0.000000
vt 0.466667 0.000000
vt 0.600000 0.000000
vt 0.933333 0.000000
vt 0.062500 1.000000
vt 0.000000 1.000000
vt 0.125000 1.000000
vt 0.062500 0.000000
vt 0.187500 1.000000
vt 0.125000 0.000000
vt 0.250000 1.000000
vt 0.187500 0.000000
vt 0.312500 1.000000
vt 0.375000 1.000000
vt 0.312500 0.000000
vt 0.437500 1.000000
vt 0.375000 0.000000
vt 0.500000 1.000000
vt 0.437500 0.000000
vt 0.562500 1.000000
vt 0.625000 1.000000
vt 0.562500 0.000000
vt 0.687500 1.000000
vt 0.625000 0.000000
vt 0.750000 1.000000
vt 0.687500 0.000000
vt 0.812500 1.000000
vt 0.875000 1.000000
vt 0.812500 0.000000
vt 0.937500 1.000000
vt 0.875000 0.000000
vt 1.000000 1.000000
vt 0.937500 0.000000
vt 0.100000 1.000000
vt 0.200000 1.000000
vt 0.100000 0.000000
vt 0.300000 1.000000
vt 0.400000 1.000000
vt 0.300000 0.000000
vt 0.600000 1.000000
vt 0.700000 1.000000
vt 0.800000 1.000000
vt 0.700000 0.000000
vt 0.900000 1.000000
vt 0.900000 0.000000
vt 0.166667 1.000000
vt 0.333333 1.000000
vt 0.666667 1.000000
vt 0.833333 1.000000
vt 0.041667 1.000000
vt 0.083333 1.000000
vt 0.041667 0.000000
vt 0.208333 1.000000
vt 0.208333 0.000000
vt 0.291667 1.000000
vt 0.291667 0.000000
vt 0.416667 1.000000
vt 0.458333 1.000000
vt 0.458333 0.000000
vt 0.541667 1.000000
vt 0.583333 1.000000
vt 0.541667 0.000000
vt 0.708333 1.000000
vt 0.708333 0.000000
vt 0.791667 1.000000
vt 0.791667 0.000000
vt 0.916667 1.000000
vt 0.958333 1.000000
vt 0.958333 0.000000
vt 0.076923 1.000000
vt 0.153846 1.000000
vt 0.076923 0.000000
vt 0.230769 1.000000
vt 0.153846 0.000000
vt 0.307692 1.000000
vt 0.230769 0.000000
vt 0.384615 1.000000
vt 0.307692 0.000000
vt 0.461538 1.000000
vt 0.384615 0.000000
vt 0.538462 1.000000
vt 0.461538 0.000000
vt 0.615385 1.000000
vt 0.538462 0.000000
vt 0.692308 1.000000
vt 0.615385 0.000000
vt 0.769231 1.000000
vt 0.692308 0.000000
vt 0.846154 1.000000
vt 0.769231 0.000000
vt 0.923077 1.000000
vt 0.846154 0.000000
vt 0.923077 0.000000
s 0
usemtl Material.020
f 11/1/1 9/2/1 12/3/1
f 9/2/1 11/1/1 10/4/1
f 5/5/1 4/6/1 6/7/1
f 1/8/1 6/7/1 4/6/1
f 8/9/1 7/10/1 6/7/1
f 6/7/1 1/8/1 13/11/1
f 12/3/1 9/2/1 8/9/1
f 8/9/1 6/7/1 12/3/1
f 6/7/1 13/11/1 12/3/1
f 3/12/1 2/13/1 1/8/1
f 1/8/1 4/6/1 3/12/1
f 30/14/1 32/5/1 31/15/1
f 18/16/1 16/17/1 67/18/1
f 22/19/1 20/20/1 18/16/1
f 32/5/1 30/14/1 33/21/1
f 16/17/1 18/16/1 17/22/1
f 18/16/1 20/20/1 19/23/1
f 29/24/1 28/25/1 68/11/1
f 36/26/1 35/27/1 34/28/1
f 34/28/1 37/29/1 36/26/1
f 68/11/1 28/25/1 27/30/1
f 27/30/1 26/31/1 68/11/1
f 26/31/1 25/32/1 68/11/1
f 66/33/1 68/11/1 25/32/1
f 25/32/1 24/34/1 23/12/1
f 15/35/1 14/8/1 16/17/1
f 67/18/1 16/17/1 29/24/1
f 29/24/1 68/11/1 67/18/1
f 18/16/1 67/18/1 66/33/1
f 22/19/1 18/16/1 66/33/1
f 66/33/1 25/32/1 22/19/1
f 25/32/1 23/12/1 22/19/1
f 20/20/1 22/19/1 21/36/1
f 64/37/1 63/38/1 62/39/1
f 40/40/1 38/41/1 58/42/1
f 58/42/1 38/41/1 61/43/1
f 42/44/1 41/10/1 40/40/1
f 40/40/1 43/45/1 42/44/1
f 46/46/1 48/47/1 47/48/1
f 51/49/1 50/2/1 44/50/1
f 45/51/1 44/50/1 50/2/1
f 53/52/1 52/53/1 54/54/1
f 56/55/1 55/56/1 54/54/1
f 44/50/1 54/54/1 52/53/1
f 51/49/1 44/50/1 52/53/1
f 58/42/1 61/43/1 60/57/1
f 60/57/1 59/1/1 58/42/1
f 40/40/1 58/42/1 57/58/1
f 43/45/1 40/40/1 57/58/1
f 57/58/1 54/54/1 43/45/1
f 54/54/1 44/50/1 43/45/1
f 48/47/1 46/46/1 45/51/1
f 49/59/1 48/47/1 45/51/1
f 45/51/1 50/2/1 49/59/1
f 38/41/1 40/40/1 39/60/1
f 29/24/1 16/17/1 14/8/1
f 54/54/1 57/58/1 56/55/1
f 62/39/1 65/61/1 64/37/1
f 71/31/1 70/20/1 69/8/1
f 69/8/1 72/5/1 71/31/1
f 73/41/1 78/11/1 77/39/1
f 75/2/1 77/39/1 76/55/1
f 73/41/1 77/39/1 74/50/1
f 77/39/1 75/2/1 74/50/1
f 87/39/1 86/55/1 85/2/1
f 81/31/1 79/8/1 84/50/1
f 79/8/1 81/31/1 80/20/1
f 87/39/1 85/2/1 88/11/1
f 83/41/1 82/5/1 81/31/1
f 81/31/1 84/50/1 83/41/1
f 97/39/1 96/55/1 95/2/1
f 95/2/1 98/11/1 97/39/1
f 91/31/1 89/8/1 94/50/1
f 89/8/1 91/31/1 90/20/1
f 91/31/1 94/50/1 93/41/1
f 91/31/1 93/41/1 92/5/1
f 99/8/1 106/11/1 100/62/1
f 101/63/1 100/62/1 106/11/1
f 105/64/1 104/65/1 103/66/1
f 105/64/1 103/66/1 106/11/1
f 101/63/1 106/11/1 103/66/1
f 103/66/1 102/67/1 101/63/1
f 109/2/1 108/5/1 107/8/1
f 107/8/1 110/11/1 109/2/1
f 119/39/1 118/55/1 120/11/1
f 117/2/1 116/50/1 115/41/1
f 111/8/1 115/41/1 114/5/1
f 120/11/1 118/55/1 117/2/1
f 117/2/1 115/41/1 120/11/1
f 115/41/1 111/8/1 120/11/1
f 113/31/1 112/20/1 111/8/1
f 111/8/1 114/5/1 113/31/1
f 123/68/1 122/69/1 121/8/1
f 121/8/1 124/70/1 123/68/1
f 127/71/1 126/5/1 125/72/1
f 131/2/1 134/73/1 133/74/1
f 133/74/1 132/75/1 131/2/1
f 129/76/1 128/77/1 130/78/1
f 121/8/1 136/11/1 135/79/1
f 135/79/1 134/73/1 121/8/1
f 124/70/1 121/8/1 134/73/1
f 134/73/1 131/2/1 124/70/1
f 125/72/1 124/70/1 131/2/1
f 131/2/1 130/78/1 125/72/1
f 130/78/1 128/77/1 125/72/1
f 127/71/1 125/72/1 128/77/1
f 147/1/2 148/3/2 145/2/2
f 145/2/2 146/4/2 147/1/2
f 141/5/2 142/7/2 140/6/2
f 137/8/2 140/6/2 142/7/2
f 144/9/2 142/7/2 143/10/2
f 142/7/2 149/11/2 137/8/2
f 148/3/2 144/9/2 145/2/2
f 144/9/2 148/3/2 142/7/2
f 142/7/2 148/3/2 149/11/2
f 139/12/2 137/8/2 138/13/2
f 137/8/2 139/12/2 140/6/2
f 166/14/2 167/15/2 168/5/2
f 154/16/2 203/18/2 152/17/2
f 158/19/2 154/16/2 156/20/2
f 168/5/2 169/21/2 166/14/2
f 152/17/2 153/22/2 154/16/2
f 154/16/2 155/23/2 156/20/2
f 165/24/2 204/11/2 164/25/2
f 172/26/2 170/28/2 171/27/2
f 170/28/2 172/26/2 173/29/2
f 204/11/2 163/30/2 164/25/2
f 163/30/2 204/11/2 162/31/2
f 162/31/2 204/11/2 161/32/2
f 202/33/2 161/32/2 204/11/2
f 161/32/2 159/12/2 160/34/2
f 151/35/2 152/17/2 150/8/2
f 203/18/2 165/24/2 152/17/2
f 165/24/2 203/18/2 204/11/2
f 154/16/2 202/33/2 203/18/2
f 158/19/2 202/33/2 154/16/2
f 202/33/2 158/19/2 161/32/2
f 161/32/2 158/19/2 159/12/2
f 156/20/2 157/36/2 158/19/2
f 200/37/2 198/39/2 199/38/2
f 176/40/2 194/42/2 174/41/2
f 194/42/2 197/43/2 174/41/2
f 178/44/2 176/40/2 177/10/2
f 176/40/2 178/44/2 179/45/2
f 182/46/2 183/48/2 184/47/2
f 187/49/2 180/50/2 186/2/2
f 181/51/2 186/2/2 180/50/2
f 189/52/2 190/54/2 188/53/2
f 192/55/2 190/54/2 191/56/2
f 180/50/2 188/53/2 190/54/2
f 187/49/2 188/53/2 180/50/2
f 194/42/2 196/57/2 197/43/2
f 196/57/2 194/42/2 195/1/2
f 176/40/2 193/58/2 194/42/2
f 179/45/2 193/58/2 176/40/2
f 193/58/2 179/45/2 190/54/2
f 190/54/2 179/45/2 180/50/2
f 184/47/2 181/51/2 182/46/2
f 185/59/2 181/51/2 184/47/2
f 181/51/2 185/59/2 186/2/2
f 174/41/2 175/60/2 176/40/2
f 165/24/2 150/8/2 152/17/2
f 190/54/2 192/55/2 193/58/2
f 198/39/2 200/37/2 201/61/2
f 207/31/2 205/8/2 206/20/2
f 205/8/2 207/31/2 208/5/2
f 209/41/2 213/39/2 214/11/2
f 211/2/2 212/55/2 213/39/2
f 209/41/2 210/50/2 213/39/2
f 213/39/2 210/50/2 211/2/2
f 223/39/2 221/2/2 222/55/2
f 217/31/2 220/50/2 215/8/2
f 215/8/2 216/20/2 217/31/2
f 223/39/2 224/11/2 221/2/2
f 219/41/2 217/31/2 218/5/2
f 217/31/2 219/41/2 220/50/2
f 233/39/2 231/2/2 232/55/2
f 231/2/2 233/39/2 234/11/2
f 227/31/2 230/50/2 225/8/2
f 225/8/2 226/20/2 227/31/2
f 227/31/2 229/41/2 230/50/2
f 227/31/2 228/5/2 229/41/2
f 235/8/2 236/62/2 242/11/2
f 237/63/2 242/11/2 236/62/2
f 241/64/2 239/66/2 240/65/2
f 241/64/2 242/11/2 239/66/2
f 237/63/2 239/66/2 242/11/2
f 239/66/2 237/63/2 238/67/2
f 245/2/2 243/8/2 244/5/2
f 243/8/2 245/2/2 246/11/2
f 255/39/2 256/11/2 254/55/2
f 253/2/2 251/41/2 252/50/2
f 247/8/2 250/5/2 251/41/2
f 256/11/2 253/2/2 254/55/2
f 253/2/2 256/11/2 251/41/2
f 251/41/2 256/11/2 247/8/2
f 249/31/2 247/8/2 248/20/2
f 247/8/2 249/31/2 250/5/2
f 259/68/2 257/8/2 258/69/2
f 257/8/2 259/68/2 260/70/2
f 263/71/2 261/72/2 262/5/2
f 267/2/2 269/74/2 270/73/2
f 269/74/2 267/2/2 268/75/2
f 265/76/2 266/78/2 264/77/2
f 257/8/2 271/79/2 272/11/2
f 271/79/2 257/8/2 270/73/2
f 260/70/2 270/73/2 257/8/2
f 270/73/2 260/70/2 267/2/2
f 261/72/2 267/2/2 260/70/2
f 267/2/2 261/72/2 266/78/2
f 266/78/2 261/72/2 264/77/2
f 263/71/2 264/77/2 261/72/2
s 1
f 276/80/3 273/8/4 274/81/4
f 278/82/5 275/83/3 276/80/3
f 280/84/6 277/85/5 278/82/5
f 282/86/7 279/87/6 280/84/6
f 284/88/8 281/6/7 282/86/7
f 286/89/9 283/90/10 284/88/8
f 288/91/11 285/92/9 286/89/9
f 290/93/12 287/94/11 288/91/11
f 292/95/13 289/10/12 290/93/12
f 294/96/14 291/97/13 292/95/13
f 296/98/15 293/99/14 294/96/14
f 298/100/16 295/101/15 296/98/15
f 300/102/17 297/4/16 298/100/16
f 302/103/17 299/104/17 300/102/17
f 304/105/4 301/106/17 302/103/17
f 274/107/4 303/108/4 304/105/4
f 308/109/3 305/8/18 306/81/18
f 310/110/5 307/111/3 308/109/3
f 312/112/19 309/70/5 310/110/5
f 314/113/20 311/114/20 312/112/19
f 316/93/15 313/71/20 314/113/20
f 318/115/16 315/10/15 316/93/15
f 320/116/3 317/78/16 318/115/16
f 322/117/5 319/118/3 320/116/3
f 324/119/21 321/74/5 322/117/5
f 306/107/18 323/120/21 324/119/21
f 328/86/3 325/8/16 326/81/16
f 330/93/5 327/6/3 328/86/3
f 332/100/15 329/10/5 330/93/5
f 326/107/16 331/4/15 332/100/15
f 336/82/22 333/8/23 334/81/24
f 338/86/25 335/85/22 336/82/22
f 340/89/26 337/6/27 338/86/25
f 342/93/28 339/92/28 340/89/26
f 344/96/15 341/10/26 342/93/28
f 346/100/16 343/99/15 344/96/15
f 348/103/23 345/4/16 346/100/16
f 334/107/24 347/106/24 348/103/23
f 352/121/29 349/8/30 350/81/31
f 354/122/32 351/12/32 352/121/29
f 356/93/3 353/5/32 354/122/32
f 358/123/5 355/10/3 356/93/3
f 360/124/33 357/2/5 358/123/5
f 350/107/31 359/1/34 360/124/33
f 364/86/35 361/8/36 362/81/37
f 366/93/38 363/6/35 364/86/35
f 368/100/39 365/10/40 366/93/38
f 362/107/37 367/4/39 368/100/39
f 372/121/41 369/8/42 370/81/42
f 374/122/41 371/12/41 372/121/41
f 376/93/3 373/5/41 374/122/41
f 378/123/5 375/10/3 376/93/3
f 380/124/43 377/2/5 378/123/5
f 370/107/42 379/1/43 380/124/43
f 384/86/44 381/8/45 382/81/45
f 386/93/46 383/6/44 384/86/44
f 388/100/47 385/10/46 386/93/46
f 382/107/45 387/4/47 388/100/47
f 392/86/48 389/8/49 390/81/49
f 394/93/50 391/6/48 392/86/48
f 396/100/51 393/10/50 394/93/50
f 390/107/49 395/4/51 396/100/51
f 400/121/22 397/8/16 398/81/16
f 402/122/25 399/12/22 400/121/22
f 404/93/52 401/5/27 402/122/25
f 406/123/52 403/10/52 404/93/52
f 408/124/15 405/2/52 406/123/52
f 398/107/16 407/1/15 408/124/15
f 412/80/3 409/8/53 410/81/53
f 414/82/3 411/83/3 412/80/3
f 416/84/54 413/85/3 414/82/3
f 418/86/54 415/87/54 416/84/54
f 420/88/55 417/6/54 418/86/54
f 422/89/56 419/90/55 420/88/55
f 424/91/57 421/92/56 422/89/56
f 426/93/57 423/94/57 424/91/57
f 428/95/58 425/10/59 426/93/57
f 430/96/60 427/97/58 428/95/58
f 432/98/61 429/99/61 430/96/60
f 434/100/62 431/101/60 432/98/61
f 436/102/63 433/4/64 434/100/62
f 438/103/65 435/104/66 436/102/63
f 440/105/16 437/106/65 438/103/65
f 410/107/53 439/108/16 440/105/16
f 444/86/32 441/8/31 442/81/31
f 446/93/67 443/6/32 444/86/32
f 448/100/34 445/10/67 446/93/67
f 442/107/31 447/4/34 448/100/34
f 452/86/68 449/8/69 450/81/69
f 454/93/70 451/6/68 452/86/68
f 456/100/71 453/10/70 454/93/70
f 450/107/69 455/4/71 456/100/71
f 460/125/72 457/8/73 458/81/73
f 462/126/74 459/127/75 460/125/72
f 464/82/76 461/13/77 462/126/74
f 466/121/78 463/85/76 464/82/76
f 468/128/79 465/12/78 466/121/78
f 470/86/72 467/129/79 468/128/79
f 472/130/80 469/6/72 470/86/72
f 474/122/80 471/131/80 472/130/80
f 476/89/81 473/5/80 474/122/80
f 478/132/82 475/92/81 476/89/81
f 480/133/58 477/7/82 478/132/82
f 482/93/58 479/134/58 480/133/58
f 484/135/58 481/10/58 482/93/58
f 486/136/58 483/137/58 484/135/58
f 488/96/83 485/9/58 486/136/58
f 490/123/84 487/99/85 488/96/83
f 492/138/86 489/2/87 490/123/84
f 494/100/88 491/139/86 492/138/86
f 496/140/89 493/4/90 494/100/88
f 498/124/91 495/141/89 496/140/89
f 500/103/92 497/1/91 498/124/91
f 502/142/93 499/106/92 500/103/92
f 504/143/94 501/3/93 502/142/93
f 458/107/73 503/144/94 504/143/94
f 508/86/95 505/8/96 506/81/97
f 510/93/98 507/6/95 508/86/95
f 512/100/99 509/10/98 510/93/98
f 506/107/97 511/4/99 512/100/99
f 516/122/100 513/8/101 514/81/102
f 518/123/103 515/5/104 516/122/100
f 514/107/102 517/2/103 518/123/103
f 522/145/3 519/8/105 520/81/106
f 524/146/5 521/147/3 522/145/3
f 526/148/58 523/149/5 524/146/5
f 528/150/107 525/151/58 526/148/58
f 530/152/108 527/153/109 528/150/107
f 532/154/36 529/155/108 530/152/108
f 534/156/65 531/157/36 532/154/36
f 536/158/65 533/159/65 534/156/65
f 538/160/3 535/161/65 536/158/65
f 540/162/5 537/163/3 538/160/3
f 542/164/110 539/165/5 540/162/5
f 544/166/111 541/167/110 542/164/110
f 520/107/106 543/168/111 544/166/111
f 276/80/3 275/83/3 273/8/4
f 278/82/5 277/85/5 275/83/3
f 280/84/6 279/87/6 277/85/5
f 282/86/7 281/6/7 279/87/6
f 284/88/8 283/90/10 281/6/7
f 286/89/9 285/92/9 283/90/10
f 288/91/11 287/94/11 285/92/9
f 290/93/12 289/10/12 287/94/11
f 292/95/13 291/97/13 289/10/12
f 294/96/14 293/99/14 291/97/13
f 296/98/15 295/101/15 293/99/14
f 298/100/16 297/4/16 295/101/15
f 300/102/17 299/104/17 297/4/16
f 302/103/17 301/106/17 299/104/17
f 304/105/4 303/108/4 301/106/17
f 274/107/4 273/11/4 303/108/4
f 308/109/3 307/111/3 305/8/18
f 310/110/5 309/70/5 307/111/3
f 312/112/19 311/114/20 309/70/5
f 314/113/20 313/71/20 311/114/20
f 316/93/15 315/10/15 313/71/20
f 318/115/16 317/78/16 315/10/15
f 320/116/3 319/118/3 317/78/16
f 322/117/5 321/74/5 319/118/3
f 324/119/21 323/120/21 321/74/5
f 306/107/18 305/11/18 323/120/21
f 328/86/3 327/6/3 325/8/16
f 330/93/5 329/10/5 327/6/3
f 332/100/15 331/4/15 329/10/5
f 326/107/16 325/11/16 331/4/15
f 336/82/22 335/85/22 333/8/23
f 338/86/25 337/6/27 335/85/22
f 340/89/26 339/92/28 337/6/27
f 342/93/28 341/10/26 339/92/28
f 344/96/15 343/99/15 341/10/26
f 346/100/16 345/4/16 343/99/15
f 348/103/23 347/106/24 345/4/16
f 334/107/24 333/11/23 347/106/24
f 352/121/29 351/12/32 349/8/30
f 354/122/32 353/5/32 351/12/32
f 356/93/3 355/10/3 353/5/32
f 358/123/5 357/2/5 355/10/3
f 360/124/33 359/1/34 357/2/5
f 350/107/31 349/11/30 359/1/34
f 364/86/35 363/6/35 361/8/36
f 366/93/38 365/10/40 363/6/35
f 368/100/39 367/4/39 365/10/40
f 362/107/37 361/11/36 367/4/39
f 372/121/41 371/12/41 369/8/42
f 374/122/41 373/5/41 371/12/41
f 376/93/3 375/10/3 373/5/41
f 378/123/5 377/2/5 375/10/3
f 380/124/43 379/1/43 377/2/5
f 370/107/42 369/11/42 379/1/43
f 384/86/44 383/6/44 381/8/45
f 386/93/46 385/10/46 383/6/44
f 388/100/47 387/4/47 385/10/46
f 382/107/45 381/11/45 387/4/47
f 392/86/48 391/6/48 389/8/49
f 394/93/50 393/10/50 391/6/48
f 396/100/51 395/4/51 393/10/50
f 390/107/49 389/11/49 395/4/51
f 400/121/22 399/12/22 397/8/16
f 402/122/25 401/5/27 399/12/22
f 404/93/52 403/10/52 401/5/27
f 406/123/52 405/2/52 403/10/52
f 408/124/15 407/1/15 405/2/52
f 398/107/16 397/11/16 407/1/15
f 412/80/3 411/83/3 409/8/53
f 414/82/3 413/85/3 411/83/3
f 416/84/54 415/87/54 413/85/3
f 418/86/54 417/6/54 415/87/54
f 420/88/55 419/90/55 417/6/54
f 422/89/56 421/92/56 419/90/55
f 424/91/57 423/94/57 421/92/56
f 426/93/57 425/10/59 423/94/57
f 428/95/58 427/97/58 425/10/59
f 430/96/60 429/99/61 427/97/58
f 432/98/61 431/101/60 429/99/61
f 434/100/62 433/4/64 431/101/60
f 436/102/63 435/104/66 433/4/64
f 438/103/65 437/106/65 435/104/66
f 440/105/16 439/108/16 437/106/65
f 410/107/53 409/11/53 439/108/16
f 444/86/32 443/6/32 441/8/31
f 446/93/67 445/10/67 443/6/32
f 448/100/34 447/4/34 445/10/67
f 442/107/31 441/11/31 447/4/34
f 452/86/68 451/6/68 449/8/69
f 454/93/70 453/10/70 451/6/68
f 456/100/71 455/4/71 453/10/70
f 450/107/69 449/11/69 455/4/71
f 460/125/72 459/127/75 457/8/73
f 462/126/74 461/13/77 459/127/75
f 464/82/76 463/85/76 461/13/77
f 466/121/78 465/12/78 463/85/76
f 468/128/79 467/129/79 465/12/78
f 470/86/72 469/6/72 467/129/79
f 472/130/80 471/131/80 469/6/72
f 474/122/80 473/5/80 471/131/80
f 476/89/81 475/92/81 473/5/80
f 478/132/82 477/7/82 475/92/81
f 480/133/58 479/134/58 477/7/82
f 482/93/58 481/10/58 479/134/58
f 484/135/58 483/137/58 481/10/58
f 486/136/58 485/9/58 483/137/58
f 488/96/83 487/99/85 485/9/58
f 490/123/84 489/2/87 487/99/85
f 492/138/86 491/139/86 489/2/87
f 494/100/88 493/4/90 491/139/86
f 496/140/89 495/141/89 493/4/90
f 498/124/91 497/1/91 495/141/89
f 500/103/92 499/106/92 497/1/91
f 502/142/93 501/3/93 499/106/92
f 504/143/94 503/144/94 501/3/93
f 458/107/73 457/11/73 503/144/94
f 508/86/95 507/6/95 505/8/96
f 510/93/98 509/10/98 507/6/95
f 512/100/99 511/4/99 509/10/98
f 506/107/97 505/11/96 511/4/99
f 516/122/100 515/5/104 513/8/101
f 518/123/103 517/2/103 515/5/104
f 514/107/102 513/11/101 517/2/103
f 522/145/3 521/147/3 519/8/105
f 524/146/5 523/149/5 521/147/3
f 526/148/58 525/151/58 523/149/5
f 528/150/107 527/153/109 525/151/58
f 530/152/108 529/155/108 527/153/109
f 532/154/36 531/157/36 529/155/108
f 534/156/65 533/159/65 531/157/36
f 536/158/65 535/161/65 533/159/65
f 538/160/3 537/163/3 535/161/65
f 540/162/5 539/165/5 537/163/3
f 542/164/110 541/167/110 539/165/5
f 544/166/111 543/168/111 541/167/110
f 520/107/106 519/11/105 543/168/111
