# Blender 5.2.1 LTS
# www.blender.org
mtllib tutorialText16.mtl
o Text.001
v 5.755261 0.000000 0.459998
v 5.758251 0.000000 0.405721
v 5.912529 0.000000 0.405721
v 6.022557 0.000000 0.279686
v 5.832400 0.000000 0.279686
v 5.835390 0.000000 0.225408
v 6.198960 0.000000 0.225408
v 6.198960 0.000000 0.229088
v 6.195971 0.000000 0.279686
v 6.163081 0.000000 0.279686
v 6.053652 0.000000 0.405721
v 6.276099 0.000000 0.405721
v 6.273109 0.000000 0.459998
v 6.157700 0.000000 0.459998
v 5.968739 0.000000 0.695509
v 6.178031 0.000000 0.712068
v 6.175041 0.000000 0.766346
v 5.818049 0.000000 0.737827
v 5.821039 0.000000 0.683550
v 6.002226 0.000000 0.459998
v 6.283873 0.000000 0.315564
v 6.258160 0.000000 0.315564
v 6.263541 0.000000 0.225408
v 6.289254 0.000000 0.225408
v 6.239622 0.000000 0.315564
v 6.213311 0.000000 0.315564
v 6.218694 0.000000 0.225408
v 6.244407 0.000000 0.225408
v 5.212299 0.000000 0.294405
v 5.215290 0.000000 0.240127
v 5.610551 0.000000 0.240127
v 5.547166 0.000000 0.427800
v 5.646430 0.000000 0.427800
v 5.626697 0.000000 0.766346
v 5.166853 0.000000 0.766346
v 5.178215 0.000000 0.561194
v 5.432354 0.000000 0.561194
v 5.423983 0.000000 0.712068
v 5.498730 0.000000 0.712068
v 5.511886 0.000000 0.481158
v 5.154295 0.000000 0.481158
v 5.157285 0.000000 0.427800
v 5.415611 0.000000 0.427800
v 5.460460 0.000000 0.294405
v 5.330101 0.000000 0.712068
v 5.335482 0.000000 0.615472
v 5.268509 0.000000 0.615472
v 5.263725 0.000000 0.712068
v 4.544958 0.000000 0.320164
v 4.547948 0.000000 0.265886
v 4.837966 0.000000 0.265886
v 4.840358 0.000000 0.223568
v 4.961747 0.000000 0.223568
v 4.959356 0.000000 0.265886
v 5.051444 0.000000 0.265886
v 5.048454 0.000000 0.320164
v 4.956365 0.000000 0.320164
v 4.938426 0.000000 0.629272
v 4.919889 0.000000 0.766346
v 4.797902 0.000000 0.766346
v 4.816439 0.000000 0.629272
v 4.570671 0.000000 0.629272
v 4.582630 0.000000 0.409400
v 4.829595 0.000000 0.409400
v 4.834379 0.000000 0.320164
v 4.826006 0.000000 0.463678
v 4.701628 0.000000 0.463678
v 4.695648 0.000000 0.574994
v 4.819429 0.000000 0.574994
v 4.311747 0.000000 0.766346
v 4.293210 0.000000 0.666070
v 4.208895 0.000000 0.761746
v 4.214875 0.000000 0.669750
v 4.279457 0.000000 0.596153
v 4.226237 0.000000 0.312804
v 4.043854 0.000000 0.312804
v 4.033688 0.000000 0.415840
v 4.100064 0.000000 0.415840
v 4.205307 0.000000 0.415840
v 4.187368 0.000000 0.740587
v 4.082125 0.000000 0.740587
v 4.097074 0.000000 0.471038
v 4.028307 0.000000 0.471038
v 3.999604 0.000000 0.766346
v 3.889576 0.000000 0.766346
v 3.939209 0.000000 0.257607
v 4.049236 0.000000 0.257607
v 4.216071 0.000000 0.257607
v 4.207700 0.000000 0.214368
v 4.322511 0.000000 0.214368
v 4.330883 0.000000 0.257607
v 4.374535 0.000000 0.257607
v 4.376329 0.000000 0.214368
v 4.428951 0.000000 0.214368
v 4.427157 0.000000 0.257607
v 4.446292 0.000000 0.257607
v 4.443302 0.000000 0.312804
v 4.341048 0.000000 0.312804
v 4.374535 0.000000 0.489437
v 4.435528 0.000000 0.419520
v 4.429549 0.000000 0.511516
v 4.387691 0.000000 0.559354
v 4.426558 0.000000 0.766346
v 3.278445 0.000000 0.766346
v 3.281435 0.000000 0.711148
v 3.500892 0.000000 0.711148
v 3.511057 0.000000 0.534516
v 3.341830 0.000000 0.534516
v 3.344820 0.000000 0.479318
v 3.514047 0.000000 0.479318
v 3.522419 0.000000 0.335803
v 3.426743 0.000000 0.335803
v 3.407607 0.000000 0.405721
v 3.298776 0.000000 0.405721
v 3.350800 0.000000 0.214368
v 3.459631 0.000000 0.214368
v 3.441692 0.000000 0.280606
v 3.525409 0.000000 0.280606
v 3.528997 0.000000 0.214368
v 3.648592 0.000000 0.214368
v 3.645004 0.000000 0.280606
v 3.822603 0.000000 0.280606
v 3.819613 0.000000 0.335803
v 3.642015 0.000000 0.335803
v 3.633643 0.000000 0.479318
v 3.781940 0.000000 0.479318
v 3.778951 0.000000 0.534516
v 3.630652 0.000000 0.534516
v 3.620487 0.000000 0.711148
v 3.816623 0.000000 0.711148
v 3.813633 0.000000 0.766346
v 3.617497 0.000000 0.766346
v 3.497902 0.000000 0.766346
v 2.724121 0.000000 0.318324
v 2.727111 0.000000 0.264046
v 2.859264 0.000000 0.264046
v 2.886173 0.000000 0.225408
v 3.007562 0.000000 0.225408
v 2.980653 0.000000 0.264046
v 3.191141 0.000000 0.264046
v 3.188151 0.000000 0.318324
v 2.942981 0.000000 0.318324
v 2.876007 0.000000 0.414000
v 3.066164 0.000000 0.414000
v 3.061380 0.000000 0.491277
v 3.204296 0.000000 0.482078
v 3.201306 0.000000 0.536355
v 3.058390 0.000000 0.545555
v 3.053008 0.000000 0.631112
v 2.931021 0.000000 0.631112
v 2.935805 0.000000 0.552915
v 2.864048 0.000000 0.557515
v 2.855676 0.000000 0.712068
v 3.164232 0.000000 0.712068
v 3.161242 0.000000 0.766346
v 2.730699 0.000000 0.766346
v 2.744452 0.000000 0.511516
v 2.939393 0.000000 0.498637
v 2.941186 0.000000 0.468278
v 2.716348 0.000000 0.468278
v 2.820993 0.000000 0.318324
v 2.077111 0.000000 0.560274
v 2.080101 0.000000 0.505077
v 2.594360 0.000000 0.505077
v 2.591371 0.000000 0.560274
v 2.002962 0.000000 0.306365
v 1.993394 0.000000 0.306365
v 1.991601 0.000000 0.339483
v 1.794866 0.000000 0.339483
v 1.790680 0.000000 0.519796
v 1.985023 0.000000 0.519796
v 1.982033 0.000000 0.574994
v 1.789485 0.000000 0.574994
v 1.785299 0.000000 0.766346
v 1.651950 0.000000 0.766346
v 1.656136 0.000000 0.574994
v 1.462990 0.000000 0.574994
v 1.465980 0.000000 0.519796
v 1.657332 0.000000 0.519796
v 1.660920 0.000000 0.339483
v 1.472557 0.000000 0.339483
v 1.475547 0.000000 0.284285
v 1.662116 0.000000 0.284285
v 1.663910 0.000000 0.214368
v 1.797856 0.000000 0.214368
v 1.796062 0.000000 0.284285
v 1.912070 0.000000 0.284285
v 1.910874 0.000000 0.306365
v 1.931205 0.000000 0.306365
v 1.936587 0.000000 0.214368
v 1.962897 0.000000 0.214368
v 1.957516 0.000000 0.306365
v 1.976651 0.000000 0.306365
v 1.982033 0.000000 0.214368
v 2.008344 0.000000 0.214368
v 0.836909 0.000000 0.766346
v 0.896706 0.000000 0.276926
v 1.021086 0.000000 0.276926
v 0.961288 0.000000 0.766346
v 1.078491 0.000000 0.766346
v 1.109586 0.000000 0.214368
v 1.243532 0.000000 0.214368
v 1.214830 0.000000 0.711148
v 1.369107 0.000000 0.711148
v 1.366117 0.000000 0.766346
v 0.269429 0.000000 0.321084
v 0.272419 0.000000 0.265886
v 0.445832 0.000000 0.265886
v 0.448224 0.000000 0.214368
v 0.582171 0.000000 0.214368
v 0.579779 0.000000 0.265886
v 0.589347 0.000000 0.265886
v 0.590543 0.000000 0.264966
v 0.753192 0.000000 0.264966
v 0.751996 0.000000 0.265886
v 0.753192 0.000000 0.265886
v 0.740635 0.000000 0.276926
v 0.595327 0.000000 0.421360
v 0.761564 0.000000 0.628352
v 0.628215 0.000000 0.628352
v 0.572006 0.000000 0.554755
v 0.560046 0.000000 0.766346
v 0.426697 0.000000 0.766346
v 0.437461 0.000000 0.576834
v 0.385437 0.000000 0.628352
v 0.223386 0.000000 0.628352
v 0.533735 0.000000 0.321084
v -0.330938 0.000000 0.295325
v -0.327948 0.000000 0.240127
v 0.133689 0.000000 0.240127
v 0.130699 0.000000 0.295325
v -0.034342 0.000000 0.295325
v -0.058261 0.000000 0.711148
v 0.131297 0.000000 0.711148
v 0.128307 0.000000 0.766346
v -0.385354 0.000000 0.766346
v -0.382364 0.000000 0.711148
v -0.191610 0.000000 0.711148
v -0.168289 0.000000 0.295325
v -0.976154 0.000000 0.347763
v -0.973763 0.000000 0.293485
v -0.890046 0.000000 0.293485
v -0.870313 0.000000 0.225408
v -0.739356 0.000000 0.225408
v -0.759089 0.000000 0.293485
v -0.452926 0.000000 0.293485
v -0.455915 0.000000 0.347763
v -0.774637 0.000000 0.347763
v -0.866725 0.000000 0.665150
v -0.997682 0.000000 0.665150
v -0.905593 0.000000 0.347763
v -0.758491 0.000000 0.463678
v -0.755501 0.000000 0.409400
v -0.469669 0.000000 0.409400
v -0.472659 0.000000 0.463678
v -0.516311 0.000000 0.463678
v -0.521693 0.000000 0.553835
v -0.464885 0.000000 0.553835
v -0.467875 0.000000 0.608113
v -0.524683 0.000000 0.608113
v -0.534250 0.000000 0.766346
v -0.842806 0.000000 0.766346
v -0.831444 0.000000 0.553835
v -0.643082 0.000000 0.553835
v -0.638298 0.000000 0.463678
v -0.646072 0.000000 0.608113
v -0.713045 0.000000 0.608113
v -0.718427 0.000000 0.712068
v -0.652051 0.000000 0.712068
v -1.604029 0.000000 0.464598
v -1.589678 0.000000 0.221728
v -1.562769 0.000000 0.221728
v -1.489218 0.000000 0.221728
v -1.403109 0.000000 0.221728
v -1.325970 0.000000 0.221728
v -1.302649 0.000000 0.221728
v -1.317001 0.000000 0.464598
v -1.340920 0.000000 0.464598
v -1.417461 0.000000 0.464598
v -1.459319 0.000000 0.464598
v -1.470083 0.000000 0.519796
v -1.422245 0.000000 0.519796
v -1.325970 0.000000 0.519796
v -1.321785 0.000000 0.519796
v -1.335538 0.000000 0.766346
v -1.435998 0.000000 0.766346
v -1.425235 0.000000 0.574994
v -1.481444 0.000000 0.574994
v -1.520313 0.000000 0.766346
v -1.620773 0.000000 0.766346
v -1.559779 0.000000 0.464598
v -1.577718 0.000000 0.464598
v -1.302051 0.000000 0.652271
v -1.278730 0.000000 0.243807
v -1.187838 0.000000 0.243807
v -1.211159 0.000000 0.652271
v -1.186044 0.000000 0.766346
v -1.154351 0.000000 0.214368
v -1.053891 0.000000 0.214368
v -1.085584 0.000000 0.766346
v -1.500579 0.000000 0.409400
v -1.414471 0.000000 0.409400
v -1.406099 0.000000 0.276926
v -1.492208 0.000000 0.276926
v -2.157755 0.000000 0.766346
v -2.146991 0.000000 0.576834
v -2.223532 0.000000 0.586953
v -2.219945 0.000000 0.524396
v -2.143404 0.000000 0.514276
v -2.134434 0.000000 0.351443
v -2.210377 0.000000 0.351443
v -2.203799 0.000000 0.232768
v -2.146394 0.000000 0.232768
v -2.149981 0.000000 0.296245
v -2.131444 0.000000 0.296245
v -2.126660 0.000000 0.214368
v -2.021417 0.000000 0.214368
v -2.026201 0.000000 0.296245
v -1.977764 0.000000 0.296245
v -1.980754 0.000000 0.351443
v -2.029190 0.000000 0.351443
v -2.037562 0.000000 0.501397
v -1.988528 0.000000 0.494957
v -1.992116 0.000000 0.557515
v -2.041150 0.000000 0.563954
v -2.052511 0.000000 0.766346
v -1.976568 0.000000 0.431480
v -1.973579 0.000000 0.376282
v -1.882088 0.000000 0.376282
v -1.878500 0.000000 0.306365
v -1.967599 0.000000 0.306365
v -1.964609 0.000000 0.251167
v -1.874913 0.000000 0.251167
v -1.873119 0.000000 0.214368
v -1.767875 0.000000 0.214368
v -1.769669 0.000000 0.251167
v -1.675189 0.000000 0.251167
v -1.678178 0.000000 0.306365
v -1.773257 0.000000 0.306365
v -1.776845 0.000000 0.376282
v -1.674591 0.000000 0.376282
v -1.677580 0.000000 0.431480
v -1.703891 0.000000 0.431480
v -1.708077 0.000000 0.501397
v -1.681766 0.000000 0.501397
v -1.684756 0.000000 0.556595
v -1.711067 0.000000 0.556595
v -1.723624 0.000000 0.766346
v -1.828868 0.000000 0.766346
v -1.816311 0.000000 0.556595
v -1.983744 0.000000 0.556595
v -1.980754 0.000000 0.501397
v -1.813321 0.000000 0.501397
v -1.809135 0.000000 0.431480
v -1.969991 0.000000 0.733227
v -1.973579 0.000000 0.600753
v -1.887470 0.000000 0.600753
v -1.883882 0.000000 0.733227
vn -0.0000 1.0000 -0.0000
vt 0.037037 0.000000
vt 0.000000 0.000000
vt 0.074074 0.000000
vt 0.370370 0.000000
vt 0.481481 0.000000
vt 0.407407 0.000000
vt 0.703704 0.000000
vt 0.111111 0.000000
vt 0.333333 0.000000
vt 0.592593 0.000000
vt 0.518519 0.000000
vt 0.629630 0.000000
vt 0.666667 0.000000
vt 0.185185 0.000000
vt 0.148148 0.000000
vt 0.888889 0.000000
vt 0.962963 0.000000
vt 0.925926 0.000000
vt 0.814815 0.000000
vt 0.777778 0.000000
vt 0.740741 0.000000
vt 0.851852 0.000000
vt 1.000000 0.000000
vt 0.555556 0.000000
vt 0.444444 0.000000
vt 0.296296 0.000000
vt 0.259259 0.000000
vt 0.222222 0.000000
vt 0.842105 0.000000
vt 0.315789 0.000000
vt 0.368421 0.000000
vt 0.947368 0.000000
vt 0.894737 0.000000
vt 0.263158 0.000000
vt 0.210526 0.000000
vt 0.578947 0.000000
vt 0.157895 0.000000
vt 0.526316 0.000000
vt 0.473684 0.000000
vt 0.789474 0.000000
vt 0.736842 0.000000
vt 0.105263 0.000000
vt 0.421053 0.000000
vt 0.052632 0.000000
vt 0.631579 0.000000
vt 0.684211 0.000000
vt 0.700000 0.000000
vt 0.650000 0.000000
vt 0.950000 0.000000
vt 0.600000 0.000000
vt 0.900000 0.000000
vt 0.750000 0.000000
vt 0.250000 0.000000
vt 0.400000 0.000000
vt 0.350000 0.000000
vt 0.300000 0.000000
vt 0.800000 0.000000
vt 0.100000 0.000000
vt 0.150000 0.000000
vt 0.200000 0.000000
vt 0.550000 0.000000
vt 0.500000 0.000000
vt 0.450000 0.000000
vt 0.850000 0.000000
vt 0.050000 0.000000
vt 0.424242 0.000000
vt 0.393939 0.000000
vt 0.454545 0.000000
vt 0.484848 0.000000
vt 0.212121 0.000000
vt 0.181818 0.000000
vt 0.515152 0.000000
vt 0.242424 0.000000
vt 0.363636 0.000000
vt 0.272727 0.000000
vt 0.303030 0.000000
vt 0.545455 0.000000
vt 0.636364 0.000000
vt 0.848485 0.000000
vt 0.818182 0.000000
vt 0.787879 0.000000
vt 0.757576 0.000000
vt 0.696970 0.000000
vt 0.727273 0.000000
vt 0.030303 0.000000
vt 0.969697 0.000000
vt 0.121212 0.000000
vt 0.878788 0.000000
vt 0.939394 0.000000
vt 0.909091 0.000000
vt 0.090909 0.000000
vt 0.060606 0.000000
vt 0.151515 0.000000
vt 0.606061 0.000000
vt 0.575758 0.000000
vt 0.172414 0.000000
vt 0.137931 0.000000
vt 0.103448 0.000000
vt 0.448276 0.000000
vt 0.275862 0.000000
vt 0.241379 0.000000
vt 0.034483 0.000000
vt 0.068966 0.000000
vt 0.344828 0.000000
vt 0.310345 0.000000
vt 0.379310 0.000000
vt 0.413793 0.000000
vt 0.655172 0.000000
vt 0.620690 0.000000
vt 0.586207 0.000000
vt 0.862069 0.000000
vt 0.965517 0.000000
vt 0.931035 0.000000
vt 0.896552 0.000000
vt 0.724138 0.000000
vt 0.827586 0.000000
vt 0.793103 0.000000
vt 0.758621 0.000000
vt 0.689655 0.000000
vt 0.482759 0.000000
vt 0.517241 0.000000
vt 0.551724 0.000000
vt 0.206897 0.000000
vt 0.952381 0.000000
vt 0.904762 0.000000
vt 0.857143 0.000000
vt 0.761905 0.000000
vt 0.714286 0.000000
vt 0.142857 0.000000
vt 0.095238 0.000000
vt 0.809524 0.000000
vt 0.047619 0.000000
vt 0.285714 0.000000
vt 0.571429 0.000000
vt 0.238095 0.000000
vt 0.428571 0.000000
vt 0.523810 0.000000
vt 0.476190 0.000000
vt 0.619048 0.000000
vt 0.190476 0.000000
vt 0.380952 0.000000
vt 0.647059 0.000000
vt 0.029412 0.000000
vt 0.058824 0.000000
vt 0.617647 0.000000
vt 0.911765 0.000000
vt 0.323529 0.000000
vt 0.529412 0.000000
vt 0.352941 0.000000
vt 0.588235 0.000000
vt 0.558824 0.000000
vt 0.294118 0.000000
vt 0.088235 0.000000
vt 0.970588 0.000000
vt 0.941176 0.000000
vt 0.235294 0.000000
vt 0.205882 0.000000
vt 0.147059 0.000000
vt 0.117647 0.000000
vt 0.882353 0.000000
vt 0.852941 0.000000
vt 0.823529 0.000000
vt 0.441176 0.000000
vt 0.382353 0.000000
vt 0.764706 0.000000
vt 0.735294 0.000000
vt 0.705882 0.000000
vt 0.176471 0.000000
vt 0.470588 0.000000
vt 0.264706 0.000000
vt 0.411765 0.000000
vt 0.676471 0.000000
vt 0.794118 0.000000
vt 0.169811 0.000000
vt 0.132075 0.000000
vt 0.113208 0.000000
vt 0.396226 0.000000
vt 0.018868 0.000000
vt 0.056604 0.000000
vt 0.037736 0.000000
vt 0.075472 0.000000
vt 0.094340 0.000000
vt 0.188679 0.000000
vt 0.150943 0.000000
vt 0.320755 0.000000
vt 0.377358 0.000000
vt 0.358491 0.000000
vt 0.339623 0.000000
vt 0.245283 0.000000
vt 0.301887 0.000000
vt 0.283019 0.000000
vt 0.264151 0.000000
vt 0.207547 0.000000
vt 0.226415 0.000000
vt 0.981132 0.000000
vt 0.943396 0.000000
vt 0.924528 0.000000
vt 0.452830 0.000000
vt 0.415094 0.000000
vt 0.509434 0.000000
vt 0.490566 0.000000
vt 0.471698 0.000000
vt 0.528302 0.000000
vt 0.698113 0.000000
vt 0.679245 0.000000
vt 0.716981 0.000000
vt 0.735849 0.000000
vt 0.792453 0.000000
vt 0.773585 0.000000
vt 0.754717 0.000000
vt 0.660377 0.000000
vt 0.584906 0.000000
vt 0.641509 0.000000
vt 0.622642 0.000000
vt 0.603774 0.000000
vt 0.849057 0.000000
vt 0.830189 0.000000
vt 0.811321 0.000000
vt 0.905660 0.000000
vt 0.547170 0.000000
vt 0.566038 0.000000
vt 0.962264 0.000000
vt 0.433962 0.000000
vt 0.886792 0.000000
vt 0.867925 0.000000
s 0
usemtl Material.050
f 2/1/1 1/2/1 3/3/1
f 11/4/1 14/5/1 12/6/1
f 14/5/1 11/4/1 20/7/1
f 4/8/1 20/7/1 11/4/1
f 11/4/1 10/9/1 4/8/1
f 17/10/1 15/11/1 18/12/1
f 19/13/1 18/12/1 15/11/1
f 15/11/1 20/7/1 19/13/1
f 20/7/1 4/8/1 3/3/1
f 6/14/1 5/15/1 4/8/1
f 25/16/1 27/17/1 26/18/1
f 23/19/1 22/20/1 21/21/1
f 21/21/1 24/22/1 23/19/1
f 27/17/1 25/16/1 28/23/1
f 15/11/1 17/10/1 16/24/1
f 20/7/1 15/11/1 14/5/1
f 13/25/1 12/6/1 14/5/1
f 9/26/1 8/27/1 10/9/1
f 8/27/1 7/28/1 10/9/1
f 4/8/1 10/9/1 7/28/1
f 6/14/1 4/8/1 7/28/1
f 3/3/1 1/2/1 20/7/1
f 45/29/1 48/23/1 35/30/1
f 36/31/1 35/30/1 48/23/1
f 48/23/1 47/32/1 36/31/1
f 47/32/1 46/33/1 36/31/1
f 34/34/1 33/35/1 40/36/1
f 32/37/1 40/36/1 33/35/1
f 39/38/1 38/39/1 34/34/1
f 34/34/1 40/36/1 39/38/1
f 44/40/1 43/41/1 40/36/1
f 40/36/1 32/37/1 44/40/1
f 32/37/1 31/42/1 44/40/1
f 34/34/1 38/39/1 35/30/1
f 45/29/1 35/30/1 38/39/1
f 46/33/1 45/29/1 38/39/1
f 38/39/1 37/43/1 46/33/1
f 30/44/1 29/2/1 44/40/1
f 44/40/1 31/42/1 30/44/1
f 46/33/1 37/43/1 36/31/1
f 40/36/1 43/41/1 41/45/1
f 42/46/1 41/45/1 43/41/1
f 63/47/1 62/48/1 68/49/1
f 68/49/1 62/48/1 61/50/1
f 61/50/1 69/23/1 68/49/1
f 63/47/1 68/49/1 67/51/1
f 63/47/1 67/51/1 64/52/1
f 54/53/1 57/54/1 56/55/1
f 56/55/1 55/56/1 54/53/1
f 65/57/1 64/52/1 57/54/1
f 51/58/1 65/57/1 57/54/1
f 57/54/1 54/53/1 51/58/1
f 52/59/1 51/58/1 54/53/1
f 54/53/1 53/60/1 52/59/1
f 61/50/1 60/61/1 59/62/1
f 59/62/1 58/63/1 61/50/1
f 69/23/1 61/50/1 58/63/1
f 66/64/1 69/23/1 58/63/1
f 58/63/1 57/54/1 66/64/1
f 57/54/1 64/52/1 66/64/1
f 67/51/1 66/64/1 64/52/1
f 65/57/1 51/58/1 50/65/1
f 50/65/1 49/2/1 65/57/1
f 84/66/1 83/67/1 85/68/1
f 86/69/1 85/68/1 83/67/1
f 86/69/1 83/67/1 77/70/1
f 77/70/1 76/71/1 86/69/1
f 76/71/1 87/72/1 86/69/1
f 78/73/1 82/74/1 79/75/1
f 81/9/1 80/76/1 82/74/1
f 87/72/1 76/71/1 88/77/1
f 77/70/1 83/67/1 82/74/1
f 82/74/1 78/73/1 77/70/1
f 91/78/1 98/79/1 92/13/1
f 97/80/1 96/81/1 95/82/1
f 93/83/1 95/82/1 94/84/1
f 71/85/1 70/2/1 103/23/1
f 103/23/1 102/86/1 71/85/1
f 74/87/1 71/85/1 102/86/1
f 99/88/1 74/87/1 102/86/1
f 102/86/1 101/89/1 99/88/1
f 101/89/1 100/90/1 99/88/1
f 92/13/1 98/79/1 97/80/1
f 97/80/1 95/82/1 92/13/1
f 95/82/1 93/83/1 92/13/1
f 73/91/1 72/92/1 71/85/1
f 71/85/1 74/87/1 73/91/1
f 99/88/1 98/79/1 75/93/1
f 98/79/1 91/78/1 75/93/1
f 88/77/1 75/93/1 91/78/1
f 91/78/1 90/94/1 88/77/1
f 89/95/1 88/77/1 90/94/1
f 74/87/1 99/88/1 75/93/1
f 75/93/1 88/77/1 76/71/1
f 79/75/1 82/74/1 80/76/1
f 109/96/1 108/97/1 107/98/1
f 117/99/1 112/100/1 111/101/1
f 105/102/1 104/2/1 133/23/1
f 133/23/1 106/103/1 105/102/1
f 114/104/1 113/105/1 112/100/1
f 115/106/1 114/104/1 112/100/1
f 112/100/1 117/99/1 115/106/1
f 117/99/1 116/107/1 115/106/1
f 123/108/1 122/109/1 121/110/1
f 129/111/1 132/112/1 131/113/1
f 131/113/1 130/114/1 129/111/1
f 125/115/1 128/116/1 127/117/1
f 127/117/1 126/118/1 125/115/1
f 123/108/1 121/110/1 124/119/1
f 118/120/1 124/119/1 121/110/1
f 119/121/1 118/120/1 121/110/1
f 121/110/1 120/122/1 119/121/1
f 106/103/1 133/23/1 132/112/1
f 132/112/1 129/111/1 106/103/1
f 107/98/1 106/103/1 129/111/1
f 129/111/1 128/116/1 107/98/1
f 110/123/1 107/98/1 128/116/1
f 128/116/1 125/115/1 110/123/1
f 111/101/1 110/123/1 125/115/1
f 125/115/1 124/119/1 111/101/1
f 124/119/1 118/120/1 111/101/1
f 117/99/1 111/101/1 118/120/1
f 107/98/1 110/123/1 109/96/1
f 157/22/1 156/19/1 153/7/1
f 135/1/1 134/2/1 161/23/1
f 151/12/1 158/16/1 152/13/1
f 157/22/1 153/7/1 152/13/1
f 152/13/1 158/16/1 157/22/1
f 143/9/1 136/3/1 161/23/1
f 135/1/1 161/23/1 136/3/1
f 141/27/1 140/28/1 139/14/1
f 145/6/1 148/11/1 147/5/1
f 147/5/1 146/25/1 145/6/1
f 159/18/1 145/6/1 144/4/1
f 153/7/1 156/19/1 155/20/1
f 155/20/1 154/21/1 153/7/1
f 151/12/1 150/10/1 149/24/1
f 149/24/1 148/11/1 151/12/1
f 158/16/1 151/12/1 148/11/1
f 148/11/1 145/6/1 158/16/1
f 145/6/1 159/18/1 158/16/1
f 161/23/1 160/17/1 143/9/1
f 159/18/1 144/4/1 143/9/1
f 136/3/1 143/9/1 142/26/1
f 137/8/1 136/3/1 142/26/1
f 142/26/1 139/14/1 137/8/1
f 139/14/1 138/15/1 137/8/1
f 139/14/1 142/26/1 141/27/1
f 159/18/1 143/9/1 160/17/1
f 163/9/1 162/2/1 165/23/1
f 165/23/1 164/13/1 163/9/1
f 178/107/1 177/106/1 176/104/1
f 176/104/1 179/99/1 178/107/1
f 170/97/1 169/98/1 180/120/1
f 183/110/1 180/120/1 169/98/1
f 169/98/1 186/119/1 183/110/1
f 184/109/1 183/110/1 186/119/1
f 176/104/1 175/105/1 174/100/1
f 174/100/1 173/101/1 176/104/1
f 179/99/1 176/104/1 173/101/1
f 173/101/1 170/97/1 179/99/1
f 170/97/1 180/120/1 179/99/1
f 182/122/1 181/121/1 180/120/1
f 180/120/1 183/110/1 182/122/1
f 190/116/1 189/117/1 192/114/1
f 192/114/1 191/111/1 190/116/1
f 166/2/1 195/23/1 167/102/1
f 168/103/1 167/102/1 193/113/1
f 194/112/1 193/113/1 167/102/1
f 167/102/1 195/23/1 194/112/1
f 189/117/1 188/118/1 168/103/1
f 192/114/1 189/117/1 168/103/1
f 168/103/1 193/113/1 192/114/1
f 170/97/1 173/101/1 172/123/1
f 172/123/1 171/96/1 170/97/1
f 186/119/1 169/98/1 188/118/1
f 188/118/1 187/115/1 186/119/1
f 184/109/1 186/119/1 185/108/1
f 188/118/1 169/98/1 168/103/1
f 197/8/1 196/2/1 199/9/1
f 199/9/1 198/28/1 197/8/1
f 205/23/1 204/16/1 203/20/1
f 201/24/1 203/20/1 202/13/1
f 205/23/1 203/20/1 200/25/1
f 203/20/1 201/24/1 200/25/1
f 226/124/1 225/125/1 224/126/1
f 222/127/1 221/128/1 224/126/1
f 221/128/1 227/23/1 224/126/1
f 209/129/1 208/130/1 227/23/1
f 222/127/1 224/126/1 223/131/1
f 207/132/1 206/2/1 208/130/1
f 213/9/1 212/133/1 218/134/1
f 218/134/1 212/133/1 211/135/1
f 215/136/1 217/137/1 216/138/1
f 220/13/1 219/139/1 218/134/1
f 213/9/1 218/134/1 217/137/1
f 217/137/1 215/136/1 213/9/1
f 220/13/1 218/134/1 221/128/1
f 227/23/1 221/128/1 218/134/1
f 218/134/1 211/135/1 227/23/1
f 211/135/1 210/140/1 227/23/1
f 209/129/1 227/23/1 210/140/1
f 215/136/1 214/141/1 213/9/1
f 227/23/1 208/130/1 206/2/1
f 224/126/1 227/23/1 226/124/1
f 237/80/1 236/84/1 238/90/1
f 239/23/1 229/91/1 228/2/1
f 233/68/1 235/78/1 234/77/1
f 231/75/1 230/71/1 232/74/1
f 238/90/1 236/84/1 235/78/1
f 235/78/1 233/68/1 238/90/1
f 239/23/1 238/90/1 233/68/1
f 233/68/1 232/74/1 239/23/1
f 229/91/1 239/23/1 232/74/1
f 232/74/1 230/71/1 229/91/1
f 241/102/1 240/2/1 251/106/1
f 251/106/1 242/103/1 241/102/1
f 262/118/1 268/112/1 263/117/1
f 242/103/1 251/106/1 248/100/1
f 243/98/1 242/103/1 248/100/1
f 248/100/1 245/96/1 243/98/1
f 245/96/1 244/97/1 243/98/1
f 261/115/1 260/119/1 269/23/1
f 266/114/1 269/23/1 260/119/1
f 260/119/1 264/116/1 266/114/1
f 267/113/1 266/114/1 264/116/1
f 255/121/1 254/120/1 256/122/1
f 259/108/1 258/109/1 257/110/1
f 247/101/1 246/123/1 245/96/1
f 259/108/1 257/110/1 260/119/1
f 264/116/1 260/119/1 257/110/1
f 265/111/1 264/116/1 257/110/1
f 257/110/1 256/122/1 265/111/1
f 268/112/1 262/118/1 261/115/1
f 261/115/1 269/23/1 268/112/1
f 263/117/1 268/112/1 267/113/1
f 267/113/1 264/116/1 263/117/1
f 253/99/1 252/107/1 265/111/1
f 256/122/1 254/120/1 265/111/1
f 245/96/1 248/100/1 247/101/1
f 248/100/1 251/106/1 249/105/1
f 250/104/1 249/105/1 251/106/1
f 253/99/1 265/111/1 254/120/1
f 292/142/1 271/143/1 270/2/1
f 272/144/1 291/145/1 301/146/1
f 291/145/1 272/144/1 292/142/1
f 271/143/1 292/142/1 272/144/1
f 281/147/1 288/148/1 287/62/1
f 287/62/1 282/149/1 281/147/1
f 290/150/1 289/151/1 288/148/1
f 290/150/1 288/148/1 291/145/1
f 288/148/1 281/147/1 291/145/1
f 301/146/1 291/145/1 281/147/1
f 281/147/1 280/152/1 301/146/1
f 272/144/1 301/146/1 304/23/1
f 304/23/1 273/153/1 272/144/1
f 303/154/1 302/155/1 278/156/1
f 277/157/1 275/158/1 278/156/1
f 303/154/1 278/156/1 275/158/1
f 274/159/1 303/154/1 275/158/1
f 300/160/1 299/161/1 298/162/1
f 287/62/1 285/163/1 283/164/1
f 296/165/1 295/166/1 294/167/1
f 275/158/1 277/157/1 276/168/1
f 287/62/1 286/169/1 285/163/1
f 282/149/1 287/62/1 283/164/1
f 278/156/1 302/155/1 279/170/1
f 280/152/1 279/170/1 302/155/1
f 301/146/1 280/152/1 302/155/1
f 273/153/1 304/23/1 303/154/1
f 303/154/1 274/159/1 273/153/1
f 284/171/1 283/164/1 285/163/1
f 293/172/1 296/165/1 294/167/1
f 297/173/1 300/160/1 298/162/1
f 314/174/1 312/175/1 311/176/1
f 326/177/1 306/178/1 305/2/1
f 308/179/1 307/180/1 306/178/1
f 306/178/1 309/181/1 308/179/1
f 314/174/1 311/176/1 310/182/1
f 310/182/1 315/183/1 314/174/1
f 312/175/1 314/174/1 313/184/1
f 322/185/1 325/186/1 324/187/1
f 324/187/1 323/188/1 322/185/1
f 318/189/1 321/190/1 320/191/1
f 320/191/1 319/192/1 318/189/1
f 306/178/1 326/177/1 325/186/1
f 309/181/1 306/178/1 325/186/1
f 325/186/1 322/185/1 309/181/1
f 310/182/1 309/181/1 322/185/1
f 322/185/1 321/190/1 310/182/1
f 315/183/1 310/182/1 321/190/1
f 321/190/1 318/189/1 315/183/1
f 316/193/1 315/183/1 318/189/1
f 318/189/1 317/194/1 316/193/1
f 358/23/1 357/195/1 355/196/1
f 354/197/1 329/198/1 327/199/1
f 332/200/1 331/201/1 330/202/1
f 330/202/1 333/203/1 332/200/1
f 342/204/1 341/205/1 343/206/1
f 344/207/1 347/208/1 346/209/1
f 346/209/1 345/210/1 344/207/1
f 343/206/1 341/205/1 340/211/1
f 336/212/1 339/213/1 338/214/1
f 338/214/1 337/215/1 336/212/1
f 350/216/1 349/217/1 348/218/1
f 348/218/1 347/208/1 350/216/1
f 353/219/1 350/216/1 347/208/1
f 347/208/1 344/207/1 353/219/1
f 354/197/1 353/219/1 344/207/1
f 344/207/1 343/206/1 354/197/1
f 343/206/1 340/211/1 354/197/1
f 329/198/1 354/197/1 340/211/1
f 330/202/1 329/198/1 340/211/1
f 340/211/1 339/213/1 330/202/1
f 333/203/1 330/202/1 339/213/1
f 339/213/1 336/212/1 333/203/1
f 334/220/1 333/203/1 336/212/1
f 336/212/1 335/221/1 334/220/1
f 355/196/1 357/195/1 356/222/1
f 328/223/1 327/199/1 329/198/1
f 352/224/1 351/225/1 350/216/1
f 350/216/1 353/219/1 352/224/1
o Text.002
v 4.934233 0.000000 -0.170285
v 4.951574 0.000000 -0.477553
v 5.098078 0.000000 -0.477553
v 5.107646 0.000000 -0.639467
v 4.961740 0.000000 -0.639467
v 4.964729 0.000000 -0.693744
v 5.232623 0.000000 -0.693744
v 5.220065 0.000000 -0.477553
v 5.297204 0.000000 -0.477553
v 5.307369 0.000000 -0.621987
v 5.429357 0.000000 -0.621987
v 5.419190 0.000000 -0.477553
v 5.455667 0.000000 -0.477553
v 5.452679 0.000000 -0.423275
v 5.415603 0.000000 -0.423275
v 5.398262 0.000000 -0.170285
v 5.276275 0.000000 -0.170285
v 5.293616 0.000000 -0.423275
v 5.216477 0.000000 -0.423275
v 5.201529 0.000000 -0.170285
v 5.082531 0.000000 -0.224563
v 5.094490 0.000000 -0.423275
v 5.049642 0.000000 -0.423275
v 5.037683 0.000000 -0.224563
v 4.742283 0.000000 -0.310120
v 4.669330 0.000000 -0.472953
v 4.577241 0.000000 -0.310120
v 4.471998 0.000000 -0.310120
v 4.618503 0.000000 -0.586109
v 4.623285 0.000000 -0.667066
v 4.532393 0.000000 -0.667066
v 4.535382 0.000000 -0.722263
v 4.626276 0.000000 -0.722263
v 4.664546 0.000000 -0.722263
v 4.741086 0.000000 -0.722263
v 4.733313 0.000000 -0.586109
v 4.847527 0.000000 -0.310120
v 4.318916 0.000000 -0.460994
v 4.321905 0.000000 -0.516192
v 4.364961 0.000000 -0.516192
v 4.465420 0.000000 -0.516192
v 4.452862 0.000000 -0.288041
v 4.843938 0.000000 -0.240203
v 4.840350 0.000000 -0.170285
v 4.435521 0.000000 -0.219963
v 4.302172 0.000000 -0.170285
v 4.305759 0.000000 -0.240203
v 4.350609 0.000000 -0.256762
v 4.361970 0.000000 -0.460994
v 4.330875 0.000000 -0.652346
v 4.333865 0.000000 -0.722263
v 4.465420 0.000000 -0.692824
v 4.462430 0.000000 -0.622907
v 3.709578 0.000000 -0.170285
v 3.726919 0.000000 -0.477553
v 3.873424 0.000000 -0.477553
v 3.882991 0.000000 -0.639467
v 3.737085 0.000000 -0.639467
v 3.740075 0.000000 -0.693744
v 4.007968 0.000000 -0.693744
v 3.995411 0.000000 -0.477553
v 4.072550 0.000000 -0.477553
v 4.082715 0.000000 -0.621987
v 4.204702 0.000000 -0.621987
v 4.194537 0.000000 -0.477553
v 4.231013 0.000000 -0.477553
v 4.228024 0.000000 -0.423275
v 4.190949 0.000000 -0.423275
v 4.173608 0.000000 -0.170285
v 4.051620 0.000000 -0.170285
v 4.068962 0.000000 -0.423275
v 3.991823 0.000000 -0.423275
v 3.976873 0.000000 -0.170285
v 3.857877 0.000000 -0.224563
v 3.869836 0.000000 -0.423275
v 3.824987 0.000000 -0.423275
v 3.813028 0.000000 -0.224563
v 3.101437 0.000000 -0.582429
v 3.106220 0.000000 -0.667066
v 3.234187 0.000000 -0.722263
v 3.360360 0.000000 -0.681785
v 3.355577 0.000000 -0.597148
v 3.229403 0.000000 -0.637627
v 3.080507 0.000000 -0.170285
v 3.083497 0.000000 -0.225483
v 3.102035 0.000000 -0.228243
v 3.121768 0.000000 -0.582429
v 3.140903 0.000000 -0.582429
v 3.191133 0.000000 -0.582429
v 3.192927 0.000000 -0.611868
v 3.269468 0.000000 -0.611868
v 3.267673 0.000000 -0.582429
v 3.303553 0.000000 -0.582429
v 3.353185 0.000000 -0.582429
v 3.338833 0.000000 -0.324839
v 3.302357 0.000000 -0.324839
v 3.252725 0.000000 -0.324839
v 3.198308 0.000000 -0.324839
v 3.193524 0.000000 -0.241123
v 3.248539 0.000000 -0.249402
v 3.244353 0.000000 -0.306440
v 3.325678 0.000000 -0.306440
v 3.335843 0.000000 -0.170285
v 3.254519 0.000000 -0.170285
v 3.252725 0.000000 -0.195124
v 3.360958 0.000000 -0.527231
v 3.385475 0.000000 -0.722263
v 3.481151 0.000000 -0.722263
v 3.473976 0.000000 -0.663386
v 3.548124 0.000000 -0.663386
v 3.643801 0.000000 -0.663386
v 3.636027 0.000000 -0.527231
v 3.540351 0.000000 -0.527231
v 3.545135 0.000000 -0.608188
v 3.466800 0.000000 -0.608188
v 3.456635 0.000000 -0.527231
v 3.344214 0.000000 -0.170285
v 3.434509 0.000000 -0.445354
v 3.438695 0.000000 -0.512512
v 3.548722 0.000000 -0.512512
v 3.544538 0.000000 -0.445354
v 3.614500 0.000000 -0.170285
v 3.514040 0.000000 -0.170285
v 3.485935 0.000000 -0.266882
v 3.454243 0.000000 -0.170285
v 3.207278 0.000000 -0.486753
v 3.261694 0.000000 -0.486753
v 3.264086 0.000000 -0.527231
v 3.209670 0.000000 -0.527231
v 3.201299 0.000000 -0.380037
v 3.255714 0.000000 -0.380037
v 3.258704 0.000000 -0.431555
v 3.204288 0.000000 -0.431555
v 2.524987 0.000000 -0.618307
v 2.527977 0.000000 -0.672585
v 2.660131 0.000000 -0.672585
v 2.687038 0.000000 -0.711224
v 2.808429 0.000000 -0.711224
v 2.781519 0.000000 -0.672585
v 2.992007 0.000000 -0.672585
v 2.989017 0.000000 -0.618307
v 2.743847 0.000000 -0.618307
v 2.676873 0.000000 -0.522631
v 2.867030 0.000000 -0.522631
v 2.862246 0.000000 -0.445354
v 3.005162 0.000000 -0.454554
v 3.002172 0.000000 -0.400276
v 2.859256 0.000000 -0.391077
v 2.853874 0.000000 -0.305520
v 2.731887 0.000000 -0.305520
v 2.736671 0.000000 -0.383717
v 2.664914 0.000000 -0.379117
v 2.656542 0.000000 -0.224563
v 2.965097 0.000000 -0.224563
v 2.962108 0.000000 -0.170285
v 2.531566 0.000000 -0.170285
v 2.545319 0.000000 -0.425115
v 2.740259 0.000000 -0.437995
v 2.742053 0.000000 -0.468354
v 2.517214 0.000000 -0.468354
v 2.621860 0.000000 -0.618307
v 1.889339 0.000000 -0.621067
v 1.892329 0.000000 -0.674425
v 2.410176 0.000000 -0.674425
v 2.407187 0.000000 -0.621067
v 2.327656 0.000000 -0.621067
v 2.079495 0.000000 -0.242963
v 2.356359 0.000000 -0.223643
v 2.353369 0.000000 -0.170285
v 1.926414 0.000000 -0.198804
v 1.929403 0.000000 -0.253082
v 2.172779 0.000000 -0.621067
v 1.798447 0.000000 -0.621067
v 1.772734 0.000000 -0.621067
v 1.778115 0.000000 -0.711224
v 1.803828 0.000000 -0.711224
v 1.753599 0.000000 -0.621067
v 1.727886 0.000000 -0.621067
v 1.733267 0.000000 -0.711224
v 1.758980 0.000000 -0.711224
v 1.640581 0.000000 -0.170285
v 1.470756 0.000000 -0.552070
v 1.378070 0.000000 -0.332199
v 1.256083 0.000000 -0.332199
v 1.408566 0.000000 -0.692824
v 1.544905 0.000000 -0.692824
v 1.776919 0.000000 -0.170285
v 0.671859 0.000000 -0.616468
v 0.674850 0.000000 -0.670745
v 0.964868 0.000000 -0.670745
v 0.967260 0.000000 -0.713064
v 1.088649 0.000000 -0.713064
v 1.086257 0.000000 -0.670745
v 1.178345 0.000000 -0.670745
v 1.175356 0.000000 -0.616468
v 1.083267 0.000000 -0.616468
v 1.065328 0.000000 -0.307360
v 1.046791 0.000000 -0.170285
v 0.924804 0.000000 -0.170285
v 0.943341 0.000000 -0.307360
v 0.697572 0.000000 -0.307360
v 0.709532 0.000000 -0.527231
v 0.956496 0.000000 -0.527231
v 0.961280 0.000000 -0.616468
v 0.952908 0.000000 -0.472953
v 0.828529 0.000000 -0.472953
v 0.822550 0.000000 -0.361638
v 0.946331 0.000000 -0.361638
v 0.041593 0.000000 -0.170285
v 0.072688 0.000000 -0.685465
v 0.560636 0.000000 -0.685465
v 0.530139 0.000000 -0.170285
v 0.412936 0.000000 -0.170285
v 0.439247 0.000000 -0.631187
v 0.371078 0.000000 -0.631187
v 0.317260 0.000000 -0.170285
v 0.254473 0.000000 -0.631187
v 0.186303 0.000000 -0.631187
v 0.161786 0.000000 -0.224563
v 0.207232 0.000000 -0.224563
v -0.586880 0.000000 -0.170285
v -0.556384 0.000000 -0.711224
v -0.546815 0.000000 -0.711224
v -0.446356 0.000000 -0.711224
v -0.147367 0.000000 -0.711224
v -0.037340 0.000000 -0.711224
v -0.067836 0.000000 -0.170285
v -0.073816 0.000000 -0.170285
v -0.177864 0.000000 -0.170285
v -0.476852 0.000000 -0.170285
v -0.574322 0.000000 -0.170285
v -0.443366 0.000000 -0.527231
v -0.439778 0.000000 -0.582429
v -0.408683 0.000000 -0.582429
v -0.403899 0.000000 -0.633947
v -0.313006 0.000000 -0.633947
v -0.317791 0.000000 -0.582429
v -0.284902 0.000000 -0.582429
v -0.281912 0.000000 -0.633947
v -0.191020 0.000000 -0.633947
v -0.194010 0.000000 -0.582429
v -0.167101 0.000000 -0.582429
v -0.170091 0.000000 -0.527231
v -0.197000 0.000000 -0.527231
v -0.204175 0.000000 -0.402116
v -0.176668 0.000000 -0.402116
v -0.179658 0.000000 -0.346918
v -0.207165 0.000000 -0.346918
v -0.212547 0.000000 -0.254922
v -0.303439 0.000000 -0.254922
v -0.298058 0.000000 -0.346918
v -0.338122 0.000000 -0.346918
v -0.346494 0.000000 -0.254922
v -0.437386 0.000000 -0.254922
v -0.429014 0.000000 -0.346918
v -0.452933 0.000000 -0.346918
v -0.449346 0.000000 -0.402116
v -0.424231 0.000000 -0.402116
v -0.413467 0.000000 -0.527231
v -0.150357 0.000000 -0.656026
v -0.449346 0.000000 -0.656026
v -0.473863 0.000000 -0.225483
v -0.174874 0.000000 -0.225483
v -0.322575 0.000000 -0.527231
v -0.333338 0.000000 -0.402116
v -0.295068 0.000000 -0.402116
v -0.287892 0.000000 -0.527231
v -1.202197 0.000000 -0.170285
v -1.160937 0.000000 -0.714904
v -1.139410 0.000000 -0.714904
v -1.050909 0.000000 -0.714904
v -0.759097 0.000000 -0.714904
v -0.668204 0.000000 -0.714904
v -0.644286 0.000000 -0.714904
v -0.674782 0.000000 -0.170285
v -0.789594 0.000000 -0.170285
v -0.762086 0.000000 -0.659706
v -0.852381 0.000000 -0.659706
v -0.854773 0.000000 -0.611868
v -0.779428 0.000000 -0.611868
v -0.782418 0.000000 -0.556670
v -0.858361 0.000000 -0.556670
v -0.861351 0.000000 -0.501472
v -0.783614 0.000000 -0.501472
v -0.786604 0.000000 -0.446274
v -1.056889 0.000000 -0.446274
v -1.053899 0.000000 -0.501472
v -0.971378 0.000000 -0.501472
v -0.968389 0.000000 -0.556670
v -1.050311 0.000000 -0.556670
v -1.047321 0.000000 -0.611868
v -0.964800 0.000000 -0.611868
v -0.962409 0.000000 -0.659706
v -1.055095 0.000000 -0.659706
v -1.092169 0.000000 -0.170285
v -1.066456 0.000000 -0.196044
v -1.054497 0.000000 -0.410396
v -1.047321 0.000000 -0.410396
v -0.958821 0.000000 -0.410396
v -0.889456 0.000000 -0.410396
v -0.800955 0.000000 -0.410396
v -0.793779 0.000000 -0.410396
v -0.805739 0.000000 -0.196044
v -0.812317 0.000000 -0.196044
v -0.901415 0.000000 -0.196044
v -0.970780 0.000000 -0.196044
v -1.058682 0.000000 -0.196044
v -0.967790 0.000000 -0.251242
v -0.898426 0.000000 -0.251242
v -0.892446 0.000000 -0.355198
v -0.961811 0.000000 -0.355198
v -1.787615 0.000000 -0.170285
v -1.771470 0.000000 -0.451794
v -1.767284 0.000000 -0.451794
v -1.656659 0.000000 -0.480313
v -1.718848 0.000000 -0.711224
v -1.587294 0.000000 -0.711224
v -1.534074 0.000000 -0.511592
v -1.290100 0.000000 -0.574149
v -1.293089 0.000000 -0.519871
v -1.641709 0.000000 -0.430635
v -1.653071 0.000000 -0.224563
v -1.306843 0.000000 -0.224563
v -1.309833 0.000000 -0.170285
v -2.334764 0.000000 -0.642227
v -2.331774 0.000000 -0.696504
v -1.936512 0.000000 -0.696504
v -1.999897 0.000000 -0.508832
v -1.900633 0.000000 -0.508832
v -1.920366 0.000000 -0.170285
v -2.380210 0.000000 -0.170285
v -2.368848 0.000000 -0.375437
v -2.114708 0.000000 -0.375437
v -2.123080 0.000000 -0.224563
v -2.048333 0.000000 -0.224563
v -2.035178 0.000000 -0.455474
v -2.392767 0.000000 -0.455474
v -2.389777 0.000000 -0.508832
v -2.131452 0.000000 -0.508832
v -2.086604 0.000000 -0.642227
v -2.216963 0.000000 -0.224563
v -2.211581 0.000000 -0.321159
v -2.278554 0.000000 -0.321159
v -2.283338 0.000000 -0.224563
v -3.031406 0.000000 -0.170285
v -3.000311 0.000000 -0.714904
v -2.990743 0.000000 -0.714904
v -2.885499 0.000000 -0.714904
v -2.605647 0.000000 -0.714904
v -2.490835 0.000000 -0.714904
v -2.521930 0.000000 -0.170285
v -2.527910 0.000000 -0.170285
v -2.636742 0.000000 -0.170285
v -2.916595 0.000000 -0.170285
v -3.018848 0.000000 -0.170285
v -2.878922 0.000000 -0.277001
v -2.860385 0.000000 -0.615548
v -2.850817 0.000000 -0.615548
v -2.767100 0.000000 -0.615548
v -2.736006 0.000000 -0.615548
v -2.642721 0.000000 -0.615548
v -2.661259 0.000000 -0.277001
v -2.667238 0.000000 -0.277001
v -2.754543 0.000000 -0.277001
v -2.785638 0.000000 -0.277001
v -2.866364 0.000000 -0.277001
v -2.608637 0.000000 -0.659706
v -2.888490 0.000000 -0.659706
v -2.913604 0.000000 -0.225483
v -2.633752 0.000000 -0.225483
v -2.738996 0.000000 -0.560350
v -2.770090 0.000000 -0.560350
v -2.782648 0.000000 -0.332199
v -2.751553 0.000000 -0.332199
v -3.647321 0.000000 -0.170285
v -3.644331 0.000000 -0.225483
v -3.466134 0.000000 -0.225483
v -3.438029 0.000000 -0.722263
v -3.313650 0.000000 -0.722263
v -3.322022 0.000000 -0.571389
v -3.139041 0.000000 -0.571389
v -3.142031 0.000000 -0.516192
v -3.325012 0.000000 -0.516192
v -3.341755 0.000000 -0.225483
v -3.127082 0.000000 -0.225483
v -3.130072 0.000000 -0.170285
v -3.344745 0.000000 -0.170285
v -3.469124 0.000000 -0.170285
v -4.210614 0.000000 -0.618307
v -4.207624 0.000000 -0.672585
v -4.075472 0.000000 -0.672585
v -4.048563 0.000000 -0.711224
v -3.927174 0.000000 -0.711224
v -3.954083 0.000000 -0.672585
v -3.743595 0.000000 -0.672585
v -3.746585 0.000000 -0.618307
v -3.991755 0.000000 -0.618307
v -4.058728 0.000000 -0.522631
v -3.868572 0.000000 -0.522631
v -3.873356 0.000000 -0.445354
v -3.730440 0.000000 -0.454554
v -3.733430 0.000000 -0.400276
v -3.876346 0.000000 -0.391077
v -3.881728 0.000000 -0.305520
v -4.003715 0.000000 -0.305520
v -3.998931 0.000000 -0.383717
v -4.070688 0.000000 -0.379117
v -4.079060 0.000000 -0.224563
v -3.770504 0.000000 -0.224563
v -3.773494 0.000000 -0.170285
v -4.204037 0.000000 -0.170285
v -4.190283 0.000000 -0.425115
v -3.995343 0.000000 -0.437995
v -3.993549 0.000000 -0.468354
v -4.218388 0.000000 -0.468354
v -4.113742 0.000000 -0.618307
v -4.864202 0.000000 -0.481233
v -4.861212 0.000000 -0.525391
v -4.323034 0.000000 -0.525391
v -4.326024 0.000000 -0.481233
v -4.840283 0.000000 -0.295400
v -4.830118 0.000000 -0.468354
v -4.809786 0.000000 -0.468354
v -4.724874 0.000000 -0.468354
v -4.467744 0.000000 -0.468354
v -4.372068 0.000000 -0.468354
v -4.362500 0.000000 -0.468354
v -4.372666 0.000000 -0.295400
v -4.382832 0.000000 -0.295400
v -4.477910 0.000000 -0.295400
v -4.546079 0.000000 -0.295400
v -4.547275 0.000000 -0.277001
v -4.360108 0.000000 -0.277001
v -4.363098 0.000000 -0.232843
v -4.549667 0.000000 -0.232843
v -4.550863 0.000000 -0.214444
v -4.343365 0.000000 -0.214444
v -4.346355 0.000000 -0.170285
v -4.553255 0.000000 -0.170285
v -4.672850 0.000000 -0.170285
v -4.880946 0.000000 -0.170285
v -4.877956 0.000000 -0.214444
v -4.670458 0.000000 -0.214444
v -4.669262 0.000000 -0.232843
v -4.852243 0.000000 -0.232843
v -4.849253 0.000000 -0.277001
v -4.666870 0.000000 -0.277001
v -4.665674 0.000000 -0.295400
v -4.735040 0.000000 -0.295400
v -4.820550 0.000000 -0.295400
v -4.830716 0.000000 -0.541951
v -4.821746 0.000000 -0.711224
v -4.801415 0.000000 -0.711224
v -4.711719 0.000000 -0.711224
v -4.454589 0.000000 -0.711224
v -4.354129 0.000000 -0.711224
v -4.344561 0.000000 -0.711224
v -4.353531 0.000000 -0.541951
v -4.363696 0.000000 -0.541951
v -4.463558 0.000000 -0.541951
v -4.720688 0.000000 -0.541951
v -4.810982 0.000000 -0.541951
v -4.728462 0.000000 -0.405796
v -4.659695 0.000000 -0.405796
v -4.658499 0.000000 -0.424195
v -4.727266 0.000000 -0.424195
v -4.732647 0.000000 -0.339559
v -4.663282 0.000000 -0.339559
v -4.662086 0.000000 -0.361638
v -4.730854 0.000000 -0.361638
v -4.473724 0.000000 -0.361638
v -4.542491 0.000000 -0.361638
v -4.543687 0.000000 -0.339559
v -4.475518 0.000000 -0.339559
v -4.470136 0.000000 -0.424195
v -4.538903 0.000000 -0.424195
v -4.540099 0.000000 -0.405796
v -4.471332 0.000000 -0.405796
v -4.715306 0.000000 -0.648666
v -4.458177 0.000000 -0.648666
v -4.456981 0.000000 -0.667066
v -4.714110 0.000000 -0.667066
v -4.718296 0.000000 -0.586109
v -4.461166 0.000000 -0.586109
v -4.459970 0.000000 -0.604508
v -4.717100 0.000000 -0.604508
v -5.455601 0.000000 -0.170285
v -5.443043 0.000000 -0.385557
v -5.481314 0.000000 -0.385557
v -5.275610 0.000000 -0.541951
v -5.134488 0.000000 -0.541951
v -4.945527 0.000000 -0.385557
v -4.982602 0.000000 -0.385557
v -4.995159 0.000000 -0.170285
v -5.011304 0.000000 -0.170285
v -5.109971 0.000000 -0.170285
v -5.340789 0.000000 -0.170285
v -5.445435 0.000000 -0.170285
v -5.469952 0.000000 -0.589789
v -5.463972 0.000000 -0.700184
v -5.363512 0.000000 -0.700184
v -5.252289 0.000000 -0.700184
v -5.251093 0.000000 -0.722263
v -5.136281 0.000000 -0.722263
v -5.137477 0.000000 -0.700184
v -5.028646 0.000000 -0.700184
v -4.929980 0.000000 -0.700184
v -4.928185 0.000000 -0.700184
v -4.934165 0.000000 -0.589789
v -5.020872 0.000000 -0.589789
v -4.937155 0.000000 -0.510672
v -5.044791 0.000000 -0.510672
v -5.151829 0.000000 -0.611868
v -5.044193 0.000000 -0.611868
v -5.034028 0.000000 -0.601748
v -5.031636 0.000000 -0.644986
v -5.366502 0.000000 -0.644986
v -5.368894 0.000000 -0.599908
v -5.355141 0.000000 -0.611868
v -5.247505 0.000000 -0.611868
v -5.367698 0.000000 -0.510672
v -5.475334 0.000000 -0.510672
v -5.381452 0.000000 -0.589789
v -5.337799 0.000000 -0.225483
v -5.106980 0.000000 -0.225483
v -5.099207 0.000000 -0.354278
v -5.330026 0.000000 -0.354278
v -5.107578 0.000000 -0.409476
v -5.208038 0.000000 -0.488593
v -5.316870 0.000000 -0.409476
v -5.858636 0.000000 -0.405796
v -5.855647 0.000000 -0.460994
v -5.742629 0.000000 -0.460994
v -5.732463 0.000000 -0.641307
v -5.751599 0.000000 -0.641307
v -5.766548 0.000000 -0.541951
v -5.850265 0.000000 -0.541951
v -5.823356 0.000000 -0.722263
v -5.739639 0.000000 -0.722263
v -5.743227 0.000000 -0.696504
v -5.540513 0.000000 -0.696504
v -5.543503 0.000000 -0.641307
v -5.622436 0.000000 -0.641307
v -5.632601 0.000000 -0.460994
v -5.552473 0.000000 -0.460994
v -5.555463 0.000000 -0.405796
v -5.635592 0.000000 -0.405796
v -5.649345 0.000000 -0.170285
v -5.759372 0.000000 -0.170285
v -5.745619 0.000000 -0.405796
v -6.063742 0.000000 -0.667066
v -6.060752 0.000000 -0.722263
v -5.859832 0.000000 -0.722263
v -5.862822 0.000000 -0.667066
v -6.081681 0.000000 -0.589789
v -6.078691 0.000000 -0.644986
v -5.851461 0.000000 -0.644986
v -5.854451 0.000000 -0.589789
v -6.071516 0.000000 -0.512512
v -6.068526 0.000000 -0.567710
v -5.867606 0.000000 -0.567710
v -5.870596 0.000000 -0.512512
v -6.075104 0.000000 -0.435235
v -6.072114 0.000000 -0.490433
v -5.871194 0.000000 -0.490433
v -5.874184 0.000000 -0.435235
v -6.100219 0.000000 -0.170285
v -6.085867 0.000000 -0.414076
v -6.078691 0.000000 -0.414076
v -5.994975 0.000000 -0.414076
v -5.961488 0.000000 -0.414076
v -5.877772 0.000000 -0.414076
v -5.870596 0.000000 -0.414076
v -5.884947 0.000000 -0.170285
v -5.891525 0.000000 -0.170285
v -5.975840 0.000000 -0.170285
v -6.009326 0.000000 -0.170285
v -6.092445 0.000000 -0.170285
v -6.006337 0.000000 -0.225483
v -5.972850 0.000000 -0.225483
v -5.964478 0.000000 -0.358878
v -5.997965 0.000000 -0.358878
vn -0.0000 1.0000 -0.0000
vt 0.043478 0.000000
vt 0.000000 0.000000
vt 1.000000 0.000000
vt 0.956522 0.000000
vt 0.086957 0.000000
vt 0.826087 0.000000
vt 0.782609 0.000000
vt 0.869565 0.000000
vt 0.913043 0.000000
vt 0.217391 0.000000
vt 0.173913 0.000000
vt 0.130435 0.000000
vt 0.739130 0.000000
vt 0.347826 0.000000
vt 0.304348 0.000000
vt 0.478261 0.000000
vt 0.608696 0.000000
vt 0.565217 0.000000
vt 0.521739 0.000000
vt 0.695652 0.000000
vt 0.652174 0.000000
vt 0.391304 0.000000
vt 0.434783 0.000000
vt 0.260870 0.000000
vt 0.785714 0.000000
vt 0.750000 0.000000
vt 0.821429 0.000000
vt 0.535714 0.000000
vt 0.857143 0.000000
vt 0.571429 0.000000
vt 0.714286 0.000000
vt 0.607143 0.000000
vt 0.500000 0.000000
vt 0.464286 0.000000
vt 0.964286 0.000000
vt 0.892857 0.000000
vt 0.928571 0.000000
vt 0.250000 0.000000
vt 0.214286 0.000000
vt 0.178571 0.000000
vt 0.285714 0.000000
vt 0.392857 0.000000
vt 0.357143 0.000000
vt 0.321429 0.000000
vt 0.035714 0.000000
vt 0.428571 0.000000
vt 0.142857 0.000000
vt 0.071429 0.000000
vt 0.678571 0.000000
vt 0.107143 0.000000
vt 0.642857 0.000000
vt 0.127273 0.000000
vt 0.109091 0.000000
vt 0.145455 0.000000
vt 0.381818 0.000000
vt 0.363636 0.000000
vt 0.945455 0.000000
vt 0.163636 0.000000
vt 0.181818 0.000000
vt 0.872727 0.000000
vt 0.909091 0.000000
vt 0.254545 0.000000
vt 0.927273 0.000000
vt 0.490909 0.000000
vt 0.400000 0.000000
vt 0.345455 0.000000
vt 0.963636 0.000000
vt 0.981818 0.000000
vt 0.890909 0.000000
vt 0.200000 0.000000
vt 0.218182 0.000000
vt 0.090909 0.000000
vt 0.036364 0.000000
vt 0.018182 0.000000
vt 0.709091 0.000000
vt 0.854545 0.000000
vt 0.836364 0.000000
vt 0.272727 0.000000
vt 0.054545 0.000000
vt 0.618182 0.000000
vt 0.654545 0.000000
vt 0.636364 0.000000
vt 0.600000 0.000000
vt 0.581818 0.000000
vt 0.818182 0.000000
vt 0.800000 0.000000
vt 0.781818 0.000000
vt 0.563636 0.000000
vt 0.672727 0.000000
vt 0.727273 0.000000
vt 0.745455 0.000000
vt 0.690909 0.000000
vt 0.509091 0.000000
vt 0.527273 0.000000
vt 0.545455 0.000000
vt 0.472727 0.000000
vt 0.454545 0.000000
vt 0.436364 0.000000
vt 0.418182 0.000000
vt 0.327273 0.000000
vt 0.309091 0.000000
vt 0.072727 0.000000
vt 0.236364 0.000000
vt 0.290909 0.000000
vt 0.763636 0.000000
vt 0.851852 0.000000
vt 0.814815 0.000000
vt 0.703704 0.000000
vt 0.037037 0.000000
vt 0.629630 0.000000
vt 0.888889 0.000000
vt 0.666667 0.000000
vt 0.333333 0.000000
vt 0.074074 0.000000
vt 0.259259 0.000000
vt 0.222222 0.000000
vt 0.185185 0.000000
vt 0.407407 0.000000
vt 0.518519 0.000000
vt 0.481481 0.000000
vt 0.444444 0.000000
vt 0.925926 0.000000
vt 0.370370 0.000000
vt 0.777778 0.000000
vt 0.740741 0.000000
vt 0.592593 0.000000
vt 0.555556 0.000000
vt 0.962963 0.000000
vt 0.296296 0.000000
vt 0.111111 0.000000
vt 0.148148 0.000000
vt 0.900000 0.000000
vt 0.300000 0.000000
vt 0.700000 0.000000
vt 0.100000 0.000000
vt 0.650000 0.000000
vt 0.950000 0.000000
vt 0.350000 0.000000
vt 0.150000 0.000000
vt 0.550000 0.000000
vt 0.450000 0.000000
vt 0.850000 0.000000
vt 0.050000 0.000000
vt 0.195652 0.000000
vt 0.891304 0.000000
vt 0.065217 0.000000
vt 0.282609 0.000000
vt 0.717391 0.000000
vt 0.673913 0.000000
vt 0.804348 0.000000
vt 0.934783 0.000000
vt 0.760870 0.000000
vt 0.239130 0.000000
vt 0.021739 0.000000
vt 0.630435 0.000000
vt 0.586957 0.000000
vt 0.978261 0.000000
vt 0.369565 0.000000
vt 0.847826 0.000000
vt 0.108696 0.000000
vt 0.152174 0.000000
vt 0.543478 0.000000
vt 0.456522 0.000000
vt 0.413043 0.000000
vt 0.326087 0.000000
vt 0.906977 0.000000
vt 0.674419 0.000000
vt 0.651163 0.000000
vt 0.604651 0.000000
vt 0.069767 0.000000
vt 0.046512 0.000000
vt 0.930233 0.000000
vt 0.697674 0.000000
vt 0.720930 0.000000
vt 0.534884 0.000000
vt 0.511628 0.000000
vt 0.488372 0.000000
vt 0.558140 0.000000
vt 0.883721 0.000000
vt 0.441860 0.000000
vt 0.418605 0.000000
vt 0.465116 0.000000
vt 0.023256 0.000000
vt 0.581395 0.000000
vt 0.837209 0.000000
vt 0.813953 0.000000
vt 0.767442 0.000000
vt 0.953488 0.000000
vt 0.860465 0.000000
vt 0.976744 0.000000
vt 0.744186 0.000000
vt 0.093023 0.000000
vt 0.209302 0.000000
vt 0.116279 0.000000
vt 0.139535 0.000000
vt 0.790698 0.000000
vt 0.395349 0.000000
vt 0.348837 0.000000
vt 0.372093 0.000000
vt 0.255814 0.000000
vt 0.325581 0.000000
vt 0.302326 0.000000
vt 0.279070 0.000000
vt 0.232558 0.000000
vt 0.186047 0.000000
vt 0.162791 0.000000
vt 0.627907 0.000000
vt 0.083333 0.000000
vt 0.166667 0.000000
vt 0.833333 0.000000
vt 0.583333 0.000000
vt 0.916667 0.000000
vt 0.416667 0.000000
vt 0.842105 0.000000
vt 0.315789 0.000000
vt 0.368421 0.000000
vt 0.947368 0.000000
vt 0.894737 0.000000
vt 0.263158 0.000000
vt 0.210526 0.000000
vt 0.578947 0.000000
vt 0.157895 0.000000
vt 0.526316 0.000000
vt 0.473684 0.000000
vt 0.789474 0.000000
vt 0.736842 0.000000
vt 0.105263 0.000000
vt 0.421053 0.000000
vt 0.052632 0.000000
vt 0.631579 0.000000
vt 0.684211 0.000000
vt 0.344828 0.000000
vt 0.034483 0.000000
vt 0.310345 0.000000
vt 0.827586 0.000000
vt 0.724138 0.000000
vt 0.413793 0.000000
vt 0.379310 0.000000
vt 0.965517 0.000000
vt 0.931035 0.000000
vt 0.448276 0.000000
vt 0.689655 0.000000
vt 0.275862 0.000000
vt 0.068966 0.000000
vt 0.793103 0.000000
vt 0.103448 0.000000
vt 0.620690 0.000000
vt 0.586207 0.000000
vt 0.896552 0.000000
vt 0.655172 0.000000
vt 0.517241 0.000000
vt 0.482759 0.000000
vt 0.862069 0.000000
vt 0.241379 0.000000
vt 0.206897 0.000000
vt 0.172414 0.000000
vt 0.758621 0.000000
vt 0.137931 0.000000
vt 0.551724 0.000000
vt 0.076923 0.000000
vt 0.923077 0.000000
vt 0.692308 0.000000
vt 0.153846 0.000000
vt 0.384615 0.000000
vt 0.615385 0.000000
vt 0.538462 0.000000
vt 0.461538 0.000000
vt 0.846154 0.000000
vt 0.769231 0.000000
vt 0.230769 0.000000
vt 0.307692 0.000000
vt 0.362319 0.000000
vt 0.463768 0.000000
vt 0.724638 0.000000
vt 0.768116 0.000000
vt 0.072464 0.000000
vt 0.507246 0.000000
vt 0.420290 0.000000
vt 0.405797 0.000000
vt 0.057971 0.000000
vt 0.492754 0.000000
vt 0.753623 0.000000
vt 0.681159 0.000000
vt 0.101449 0.000000
vt 0.710145 0.000000
vt 0.449275 0.000000
vt 0.637681 0.000000
vt 0.898551 0.000000
vt 0.942029 0.000000
vt 0.536232 0.000000
vt 0.840580 0.000000
vt 0.115942 0.000000
vt 0.855072 0.000000
vt 0.811594 0.000000
vt 0.202899 0.000000
vt 0.188406 0.000000
vt 0.797101 0.000000
vt 0.884058 0.000000
vt 0.159420 0.000000
vt 0.985507 0.000000
vt 0.594203 0.000000
vt 0.579710 0.000000
vt 0.144928 0.000000
vt 0.927536 0.000000
vt 0.550725 0.000000
vt 0.971014 0.000000
vt 0.623188 0.000000
vt 0.376812 0.000000
vt 0.318841 0.000000
vt 0.275362 0.000000
vt 0.028986 0.000000
vt 0.014493 0.000000
vt 0.246377 0.000000
vt 0.231884 0.000000
vt 0.289855 0.000000
vt 0.705882 0.000000
vt 0.921569 0.000000
vt 0.725490 0.000000
vt 0.745098 0.000000
vt 0.882353 0.000000
vt 0.960784 0.000000
vt 0.941176 0.000000
vt 0.764706 0.000000
vt 0.980392 0.000000
vt 0.686275 0.000000
vt 0.647059 0.000000
vt 0.862745 0.000000
vt 0.803922 0.000000
vt 0.784314 0.000000
vt 0.901961 0.000000
vt 0.098039 0.000000
vt 0.078431 0.000000
vt 0.117647 0.000000
vt 0.176471 0.000000
vt 0.058824 0.000000
vt 0.235294 0.000000
vt 0.254902 0.000000
vt 0.313726 0.000000
vt 0.294118 0.000000
vt 0.274510 0.000000
vt 0.215686 0.000000
vt 0.196078 0.000000
vt 0.372549 0.000000
vt 0.039216 0.000000
vt 0.352941 0.000000
vt 0.019608 0.000000
vt 0.137255 0.000000
vt 0.156863 0.000000
vt 0.843137 0.000000
vt 0.607843 0.000000
vt 0.588235 0.000000
vt 0.568627 0.000000
vt 0.411765 0.000000
vt 0.392157 0.000000
vt 0.450980 0.000000
vt 0.431373 0.000000
vt 0.529412 0.000000
vt 0.509804 0.000000
vt 0.490196 0.000000
vt 0.470588 0.000000
vt 0.549020 0.000000
vt 0.627451 0.000000
vt 0.823529 0.000000
s 0
usemtl Material.052
f 360/226/2 359/227/2 382/228/2
f 382/228/2 381/229/2 360/226/2
f 360/226/2 381/229/2 361/230/2
f 378/231/2 377/232/2 379/233/2
f 380/234/2 379/233/2 377/232/2
f 361/230/2 380/234/2 377/232/2
f 378/231/2 379/233/2 359/227/2
f 382/228/2 359/227/2 379/233/2
f 380/234/2 361/230/2 381/229/2
f 364/235/2 363/236/2 362/237/2
f 376/238/2 367/239/2 366/240/2
f 370/241/2 373/242/2 372/243/2
f 372/243/2 371/244/2 370/241/2
f 376/238/2 375/245/2 374/246/2
f 374/246/2 373/242/2 376/238/2
f 367/239/2 376/238/2 373/242/2
f 373/242/2 370/241/2 367/239/2
f 368/247/2 367/239/2 370/241/2
f 370/241/2 369/248/2 368/247/2
f 376/238/2 366/240/2 377/232/2
f 361/230/2 377/232/2 366/240/2
f 362/237/2 361/230/2 366/240/2
f 366/240/2 365/249/2 362/237/2
f 364/235/2 362/237/2 365/249/2
f 405/250/2 404/251/2 406/252/2
f 398/253/2 407/254/2 399/255/2
f 406/252/2 404/251/2 403/256/2
f 403/256/2 400/257/2 406/252/2
f 400/257/2 407/254/2 406/252/2
f 397/258/2 396/259/2 407/254/2
f 407/254/2 398/253/2 397/258/2
f 411/228/2 410/260/2 408/261/2
f 409/262/2 408/261/2 410/260/2
f 390/263/2 389/264/2 388/265/2
f 388/265/2 391/266/2 390/263/2
f 394/267/2 393/268/2 392/269/2
f 394/267/2 384/270/2 383/227/2
f 383/227/2 395/271/2 394/267/2
f 387/272/2 385/273/2 384/270/2
f 384/270/2 394/267/2 387/272/2
f 388/265/2 387/272/2 394/267/2
f 394/267/2 392/269/2 388/265/2
f 391/266/2 388/265/2 392/269/2
f 400/257/2 403/256/2 402/274/2
f 407/254/2 400/257/2 399/255/2
f 385/273/2 387/272/2 386/275/2
f 402/274/2 401/276/2 400/257/2
f 413/226/2 412/227/2 435/228/2
f 435/228/2 434/229/2 413/226/2
f 413/226/2 434/229/2 414/230/2
f 431/231/2 430/232/2 432/233/2
f 433/234/2 432/233/2 430/232/2
f 414/230/2 433/234/2 430/232/2
f 431/231/2 432/233/2 412/227/2
f 435/228/2 412/227/2 432/233/2
f 433/234/2 414/230/2 434/229/2
f 417/235/2 416/236/2 415/237/2
f 429/238/2 420/239/2 419/240/2
f 423/241/2 426/242/2 425/243/2
f 425/243/2 424/244/2 423/241/2
f 429/238/2 428/245/2 427/246/2
f 427/246/2 426/242/2 429/238/2
f 420/239/2 429/238/2 426/242/2
f 426/242/2 423/241/2 420/239/2
f 421/247/2 420/239/2 423/241/2
f 423/241/2 422/248/2 421/247/2
f 429/238/2 419/240/2 430/232/2
f 414/230/2 430/232/2 419/240/2
f 415/237/2 414/230/2 419/240/2
f 419/240/2 418/249/2 415/237/2
f 417/235/2 415/237/2 418/249/2
f 443/277/2 442/278/2 444/279/2
f 444/279/2 442/278/2 457/280/2
f 457/280/2 456/281/2 444/279/2
f 456/281/2 488/282/2 444/279/2
f 488/282/2 491/228/2 445/283/2
f 446/284/2 445/283/2 491/228/2
f 491/228/2 484/285/2 446/284/2
f 486/286/2 450/287/2 487/288/2
f 457/280/2 442/278/2 463/289/2
f 463/289/2 458/290/2 457/280/2
f 488/282/2 456/281/2 455/291/2
f 455/291/2 489/292/2 488/282/2
f 484/285/2 491/228/2 490/293/2
f 490/293/2 485/294/2 484/285/2
f 446/284/2 484/285/2 487/288/2
f 447/295/2 446/284/2 487/288/2
f 487/288/2 450/287/2 447/295/2
f 448/296/2 447/295/2 450/287/2
f 441/297/2 438/298/2 437/299/2
f 475/300/2 483/301/2 482/302/2
f 486/286/2 485/294/2 451/303/2
f 438/298/2 441/297/2 439/304/2
f 470/305/2 472/306/2 471/307/2
f 470/305/2 469/308/2 472/306/2
f 468/309/2 472/306/2 469/308/2
f 482/302/2 481/310/2 480/311/2
f 480/311/2 479/312/2 482/302/2
f 467/313/2 473/314/2 472/306/2
f 472/306/2 468/309/2 467/313/2
f 482/302/2 479/312/2 476/315/2
f 477/316/2 476/315/2 479/312/2
f 474/317/2 473/314/2 464/318/2
f 473/314/2 467/313/2 465/319/2
f 467/313/2 466/320/2 465/319/2
f 463/289/2 462/321/2 461/322/2
f 458/290/2 463/289/2 461/322/2
f 461/322/2 460/323/2 458/290/2
f 459/324/2 458/290/2 460/323/2
f 489/292/2 455/291/2 454/325/2
f 490/293/2 489/292/2 454/325/2
f 454/325/2 453/326/2 490/293/2
f 450/287/2 486/286/2 451/303/2
f 440/327/2 439/304/2 441/297/2
f 437/299/2 436/227/2 441/297/2
f 444/279/2 488/282/2 445/283/2
f 450/287/2 449/328/2 448/296/2
f 485/294/2 490/293/2 453/326/2
f 453/326/2 452/329/2 485/294/2
f 452/329/2 451/303/2 485/294/2
f 473/314/2 465/319/2 464/318/2
f 482/302/2 476/315/2 475/300/2
f 479/312/2 478/330/2 477/316/2
f 515/331/2 514/332/2 511/333/2
f 493/334/2 492/227/2 519/228/2
f 509/335/2 516/336/2 510/337/2
f 515/331/2 511/333/2 510/337/2
f 510/337/2 516/336/2 515/331/2
f 501/338/2 494/339/2 519/228/2
f 493/334/2 519/228/2 494/339/2
f 499/340/2 498/341/2 497/342/2
f 503/343/2 506/344/2 505/345/2
f 505/345/2 504/346/2 503/343/2
f 517/347/2 503/343/2 502/348/2
f 511/333/2 514/332/2 513/349/2
f 513/349/2 512/350/2 511/333/2
f 509/335/2 508/351/2 507/352/2
f 507/352/2 506/344/2 509/335/2
f 516/336/2 509/335/2 506/344/2
f 506/344/2 503/343/2 516/336/2
f 503/343/2 517/347/2 516/336/2
f 519/228/2 518/353/2 501/338/2
f 517/347/2 502/348/2 501/338/2
f 494/339/2 501/338/2 500/354/2
f 495/355/2 494/339/2 500/354/2
f 500/354/2 497/342/2 495/355/2
f 497/342/2 496/356/2 495/355/2
f 497/342/2 500/354/2 499/340/2
f 517/347/2 501/338/2 518/353/2
f 529/357/2 528/311/2 525/258/2
f 529/357/2 525/258/2 530/228/2
f 524/290/2 530/228/2 525/258/2
f 523/358/2 522/295/2 524/290/2
f 530/228/2 524/290/2 522/295/2
f 525/258/2 528/311/2 527/359/2
f 527/359/2 526/308/2 525/258/2
f 521/360/2 520/227/2 530/228/2
f 530/228/2 522/295/2 521/360/2
f 542/250/2 541/256/2 543/254/2
f 544/262/2 540/276/2 539/255/2
f 543/254/2 541/256/2 540/276/2
f 540/276/2 544/262/2 543/254/2
f 537/271/2 535/266/2 538/258/2
f 531/227/2 534/264/2 533/272/2
f 531/227/2 533/272/2 532/273/2
f 535/266/2 537/271/2 536/268/2
f 539/255/2 545/228/2 544/262/2
f 560/359/2 559/361/2 565/362/2
f 565/362/2 559/361/2 558/308/2
f 558/308/2 566/228/2 565/362/2
f 560/359/2 565/362/2 564/357/2
f 560/359/2 564/357/2 561/251/2
f 551/263/2 554/290/2 553/363/2
f 553/363/2 552/358/2 551/263/2
f 562/311/2 561/251/2 554/290/2
f 548/360/2 562/311/2 554/290/2
f 554/290/2 551/263/2 548/360/2
f 549/364/2 548/360/2 551/263/2
f 551/263/2 550/295/2 549/364/2
f 558/308/2 557/365/2 556/258/2
f 556/258/2 555/366/2 558/308/2
f 566/228/2 558/308/2 555/366/2
f 563/367/2 566/228/2 555/366/2
f 555/366/2 554/290/2 563/367/2
f 554/290/2 561/251/2 563/367/2
f 564/357/2 563/367/2 561/251/2
f 562/311/2 548/360/2 547/368/2
f 547/368/2 546/227/2 562/311/2
f 568/297/2 567/227/2 577/286/2
f 568/297/2 577/286/2 576/310/2
f 576/310/2 575/315/2 568/297/2
f 572/322/2 570/303/2 569/284/2
f 570/303/2 572/322/2 571/281/2
f 572/322/2 569/284/2 573/320/2
f 577/286/2 567/227/2 574/307/2
f 578/228/2 577/286/2 574/307/2
f 575/315/2 578/228/2 574/307/2
f 574/307/2 573/320/2 575/315/2
f 568/297/2 575/315/2 573/320/2
f 573/320/2 569/284/2 568/297/2
f 589/235/2 588/369/2 620/370/2
f 619/233/2 582/371/2 581/226/2
f 617/231/2 592/372/2 591/249/2
f 613/238/2 612/373/2 611/245/2
f 611/245/2 610/374/2 613/238/2
f 616/375/2 613/238/2 610/374/2
f 610/374/2 623/229/2 616/375/2
f 617/231/2 616/375/2 623/229/2
f 623/229/2 622/376/2 617/231/2
f 592/372/2 617/231/2 622/376/2
f 622/376/2 595/239/2 592/372/2
f 595/239/2 593/240/2 592/372/2
f 620/370/2 588/369/2 587/236/2
f 615/232/2 614/377/2 613/238/2
f 613/238/2 616/375/2 615/232/2
f 617/231/2 591/249/2 590/378/2
f 581/226/2 580/379/2 619/233/2
f 609/246/2 608/380/2 607/242/2
f 607/242/2 606/381/2 609/246/2
f 624/382/2 609/246/2 606/381/2
f 606/381/2 603/244/2 624/382/2
f 625/228/2 624/382/2 603/244/2
f 603/244/2 602/258/2 625/228/2
f 596/383/2 625/228/2 602/258/2
f 602/258/2 599/248/2 596/383/2
f 599/248/2 597/247/2 596/383/2
f 583/230/2 618/384/2 584/385/2
f 621/234/2 587/236/2 586/386/2
f 585/237/2 584/385/2 618/384/2
f 618/384/2 583/230/2 582/371/2
f 603/244/2 606/381/2 605/243/2
f 605/243/2 604/387/2 603/244/2
f 599/248/2 602/258/2 601/241/2
f 601/241/2 600/388/2 599/248/2
f 597/247/2 599/248/2 598/389/2
f 623/229/2 610/374/2 609/246/2
f 609/246/2 624/382/2 623/229/2
f 595/239/2 622/376/2 625/228/2
f 625/228/2 596/383/2 595/239/2
f 593/240/2 595/239/2 594/390/2
f 582/371/2 619/233/2 618/384/2
f 579/227/2 589/235/2 620/370/2
f 620/370/2 619/233/2 580/379/2
f 580/379/2 579/227/2 620/370/2
f 587/236/2 621/234/2 620/370/2
f 621/234/2 586/386/2 618/384/2
f 586/386/2 585/237/2 618/384/2
f 665/391/2 655/392/2 654/393/2
f 652/394/2 629/395/2 628/396/2
f 666/397/2 669/228/2 656/398/2
f 669/228/2 657/399/2 656/398/2
f 649/400/2 648/401/2 647/402/2
f 647/402/2 650/403/2 649/400/2
f 664/404/2 666/397/2 665/391/2
f 666/397/2 656/398/2 665/391/2
f 655/392/2 665/391/2 656/398/2
f 645/405/2 644/406/2 646/407/2
f 628/396/2 627/408/2 652/394/2
f 629/395/2 652/394/2 651/409/2
f 662/410/2 661/411/2 659/412/2
f 667/413/2 663/414/2 662/410/2
f 668/415/2 667/413/2 662/410/2
f 662/410/2 659/412/2 668/415/2
f 658/416/2 668/415/2 659/412/2
f 630/417/2 635/418/2 631/419/2
f 632/420/2 631/419/2 635/418/2
f 659/412/2 661/411/2 660/421/2
f 643/422/2 641/423/2 646/407/2
f 643/422/2 642/424/2 641/423/2
f 637/425/2 640/426/2 639/427/2
f 639/427/2 638/428/2 637/425/2
f 635/418/2 630/417/2 636/429/2
f 666/397/2 664/404/2 663/414/2
f 663/414/2 667/413/2 666/397/2
f 657/399/2 669/228/2 668/415/2
f 668/415/2 658/416/2 657/399/2
f 647/402/2 646/407/2 641/423/2
f 641/423/2 640/426/2 647/402/2
f 650/403/2 647/402/2 640/426/2
f 640/426/2 637/425/2 650/403/2
f 651/409/2 650/403/2 637/425/2
f 637/425/2 636/429/2 651/409/2
f 629/395/2 651/409/2 636/429/2
f 636/429/2 630/417/2 629/395/2
f 634/430/2 633/431/2 635/418/2
f 633/431/2 632/420/2 635/418/2
f 646/407/2 644/406/2 643/422/2
f 626/227/2 653/432/2 652/394/2
f 627/408/2 626/227/2 652/394/2
f 671/433/2 670/227/2 672/434/2
f 672/434/2 670/227/2 680/435/2
f 676/258/2 679/251/2 678/337/2
f 678/337/2 677/436/2 676/258/2
f 680/435/2 670/227/2 682/228/2
f 682/228/2 681/437/2 680/435/2
f 672/434/2 680/435/2 679/251/2
f 673/263/2 672/434/2 679/251/2
f 679/251/2 676/258/2 673/263/2
f 676/258/2 675/438/2 673/263/2
f 674/338/2 673/263/2 675/438/2
f 699/439/2 702/228/2 689/440/2
f 690/441/2 689/440/2 702/228/2
f 702/228/2 701/442/2 690/441/2
f 701/442/2 700/443/2 690/441/2
f 688/444/2 687/445/2 694/446/2
f 686/447/2 694/446/2 687/445/2
f 693/448/2 692/449/2 688/444/2
f 688/444/2 694/446/2 693/448/2
f 698/450/2 697/451/2 694/446/2
f 694/446/2 686/447/2 698/450/2
f 686/447/2 685/452/2 698/450/2
f 688/444/2 692/449/2 689/440/2
f 699/439/2 689/440/2 692/449/2
f 700/443/2 699/439/2 692/449/2
f 692/449/2 691/453/2 700/443/2
f 684/454/2 683/227/2 698/450/2
f 698/450/2 685/452/2 684/454/2
f 700/443/2 691/453/2 690/441/2
f 694/446/2 697/451/2 695/455/2
f 696/456/2 695/455/2 697/451/2
f 703/227/2 713/457/2 704/458/2
f 712/459/2 727/460/2 713/457/2
f 704/458/2 713/457/2 727/460/2
f 724/461/2 715/462/2 714/463/2
f 731/464/2 730/465/2 716/466/2
f 723/467/2 731/464/2 724/461/2
f 715/462/2 724/461/2 731/464/2
f 731/464/2 716/466/2 715/462/2
f 727/460/2 712/459/2 711/468/2
f 704/458/2 727/460/2 705/469/2
f 705/469/2 726/470/2 706/471/2
f 721/472/2 720/473/2 729/474/2
f 732/228/2 722/475/2 721/472/2
f 721/472/2 729/474/2 732/228/2
f 729/474/2 718/476/2 717/477/2
f 728/478/2 711/468/2 710/479/2
f 709/480/2 708/481/2 725/482/2
f 708/481/2 707/483/2 725/482/2
f 725/482/2 707/483/2 706/471/2
f 710/479/2 709/480/2 725/482/2
f 729/474/2 720/473/2 719/484/2
f 718/476/2 729/474/2 719/484/2
f 731/464/2 723/467/2 722/475/2
f 722/475/2 732/228/2 731/464/2
f 729/474/2 717/477/2 730/465/2
f 716/466/2 730/465/2 717/477/2
f 706/471/2 726/470/2 725/482/2
f 726/470/2 705/469/2 727/460/2
f 711/468/2 728/478/2 727/460/2
f 728/478/2 710/479/2 725/482/2
f 734/485/2 733/227/2 746/228/2
f 745/486/2 742/487/2 735/488/2
f 745/486/2 735/488/2 746/228/2
f 734/485/2 746/228/2 735/488/2
f 738/489/2 741/490/2 740/491/2
f 740/491/2 739/492/2 738/489/2
f 742/487/2 745/486/2 744/493/2
f 744/493/2 743/494/2 742/487/2
f 735/488/2 742/487/2 741/490/2
f 736/495/2 735/488/2 741/490/2
f 741/490/2 738/489/2 736/495/2
f 738/489/2 737/496/2 736/495/2
f 770/331/2 769/332/2 766/333/2
f 748/334/2 747/227/2 774/228/2
f 764/335/2 771/336/2 765/337/2
f 770/331/2 766/333/2 765/337/2
f 765/337/2 771/336/2 770/331/2
f 756/338/2 749/339/2 774/228/2
f 748/334/2 774/228/2 749/339/2
f 754/340/2 753/341/2 752/342/2
f 758/343/2 761/344/2 760/345/2
f 760/345/2 759/346/2 758/343/2
f 772/347/2 758/343/2 757/348/2
f 766/333/2 769/332/2 768/349/2
f 768/349/2 767/350/2 766/333/2
f 764/335/2 763/351/2 762/352/2
f 762/352/2 761/344/2 764/335/2
f 771/336/2 764/335/2 761/344/2
f 761/344/2 758/343/2 771/336/2
f 758/343/2 772/347/2 771/336/2
f 774/228/2 773/353/2 756/338/2
f 772/347/2 757/348/2 756/338/2
f 749/339/2 756/338/2 755/354/2
f 750/355/2 749/339/2 755/354/2
f 755/354/2 752/342/2 750/355/2
f 752/342/2 751/356/2 750/355/2
f 752/342/2 755/354/2 754/340/2
f 772/347/2 756/338/2 773/353/2
f 800/497/2 799/239/2 798/338/2
f 807/498/2 825/499/2 808/241/2
f 825/499/2 828/500/2 808/241/2
f 828/500/2 781/230/2 808/241/2
f 780/501/2 808/241/2 781/230/2
f 810/502/2 820/246/2 811/244/2
f 804/503/2 803/504/2 802/247/2
f 808/241/2 780/501/2 779/505/2
f 820/246/2 810/502/2 809/506/2
f 827/507/2 822/508/2 821/337/2
f 782/509/2 824/510/2 823/245/2
f 825/499/2 807/498/2 806/511/2
f 806/511/2 826/238/2 825/499/2
f 827/507/2 821/337/2 828/500/2
f 781/230/2 828/500/2 821/337/2
f 821/337/2 824/510/2 781/230/2
f 824/510/2 782/509/2 781/230/2
f 819/512/2 841/229/2 820/246/2
f 841/229/2 844/228/2 820/246/2
f 811/244/2 820/246/2 844/228/2
f 844/228/2 837/513/2 811/244/2
f 837/513/2 840/514/2 811/244/2
f 840/514/2 812/515/2 811/244/2
f 833/516/2 783/517/2 834/518/2
f 831/519/2 789/520/2 788/521/2
f 788/521/2 832/231/2 831/519/2
f 835/233/2 830/522/2 829/232/2
f 829/232/2 836/523/2 835/233/2
f 787/236/2 786/524/2 784/237/2
f 838/234/2 843/525/2 817/242/2
f 814/243/2 816/526/2 815/527/2
f 784/237/2 786/524/2 785/528/2
f 816/526/2 814/243/2 817/242/2
f 838/234/2 817/242/2 814/243/2
f 839/529/2 838/234/2 814/243/2
f 813/530/2 839/529/2 814/243/2
f 832/231/2 788/521/2 787/236/2
f 829/232/2 832/231/2 787/236/2
f 836/523/2 829/232/2 787/236/2
f 787/236/2 784/237/2 836/523/2
f 833/516/2 836/523/2 784/237/2
f 783/517/2 833/516/2 784/237/2
f 842/531/2 818/532/2 817/242/2
f 817/242/2 843/525/2 842/531/2
f 801/533/2 798/338/2 797/534/2
f 797/534/2 794/535/2 801/533/2
f 802/247/2 801/533/2 794/535/2
f 794/535/2 793/249/2 802/247/2
f 805/248/2 802/247/2 793/249/2
f 793/249/2 790/235/2 805/248/2
f 806/511/2 805/248/2 790/235/2
f 790/235/2 789/520/2 806/511/2
f 826/238/2 806/511/2 789/520/2
f 789/520/2 831/519/2 826/238/2
f 827/507/2 826/238/2 831/519/2
f 831/519/2 830/522/2 827/507/2
f 822/508/2 827/507/2 830/522/2
f 830/522/2 835/233/2 822/508/2
f 823/245/2 822/508/2 835/233/2
f 835/233/2 834/518/2 823/245/2
f 837/513/2 844/228/2 843/525/2
f 843/525/2 838/234/2 837/513/2
f 812/515/2 840/514/2 839/529/2
f 839/529/2 813/530/2 812/515/2
f 841/229/2 819/512/2 818/532/2
f 818/532/2 842/531/2 841/229/2
f 778/226/2 777/536/2 776/537/2
f 782/509/2 823/245/2 834/518/2
f 834/518/2 783/517/2 782/509/2
f 776/537/2 775/227/2 778/226/2
f 792/538/2 791/539/2 790/235/2
f 790/235/2 793/249/2 792/538/2
f 794/535/2 797/534/2 796/240/2
f 796/240/2 795/540/2 794/535/2
f 798/338/2 801/533/2 800/497/2
f 802/247/2 805/248/2 804/503/2
f 879/421/2 876/399/2 881/410/2
f 876/399/2 875/398/2 881/410/2
f 856/425/2 846/408/2 845/227/2
f 885/397/2 888/228/2 846/408/2
f 879/421/2 881/410/2 880/411/2
f 858/427/2 857/428/2 881/410/2
f 881/410/2 875/398/2 858/427/2
f 848/395/2 888/228/2 887/415/2
f 848/395/2 887/415/2 849/417/2
f 888/228/2 885/397/2 884/391/2
f 878/412/2 877/416/2 879/421/2
f 855/429/2 882/414/2 856/425/2
f 846/408/2 856/425/2 882/414/2
f 882/414/2 885/397/2 846/408/2
f 876/399/2 879/421/2 877/416/2
f 858/427/2 875/398/2 859/426/2
f 872/432/2 870/409/2 873/393/2
f 849/417/2 886/413/2 851/420/2
f 870/409/2 872/432/2 871/394/2
f 865/407/2 867/401/2 866/402/2
f 853/430/2 852/431/2 851/420/2
f 874/392/2 868/400/2 867/401/2
f 867/401/2 865/407/2 874/392/2
f 864/405/2 874/392/2 865/407/2
f 883/404/2 854/418/2 853/430/2
f 884/391/2 883/404/2 853/430/2
f 853/430/2 851/420/2 884/391/2
f 886/413/2 884/391/2 851/420/2
f 869/403/2 868/400/2 870/409/2
f 873/393/2 870/409/2 868/400/2
f 868/400/2 874/392/2 873/393/2
f 874/392/2 863/406/2 860/423/2
f 874/392/2 864/405/2 863/406/2
f 882/414/2 855/429/2 854/418/2
f 854/418/2 883/404/2 882/414/2
f 886/413/2 849/417/2 887/415/2
f 861/424/2 860/423/2 863/406/2
f 863/406/2 862/422/2 861/424/2
f 847/396/2 846/408/2 848/395/2
f 888/228/2 848/395/2 846/408/2
f 851/420/2 850/419/2 849/417/2
f 860/423/2 859/426/2 875/398/2
f 875/398/2 874/392/2 860/423/2
f 884/391/2 886/413/2 888/228/2
f 925/541/2 936/542/2 926/543/2
f 926/543/2 936/542/2 927/544/2
f 934/545/2 938/546/2 937/547/2
f 928/548/2 940/228/2 939/549/2
f 924/550/2 923/337/2 922/551/2
f 938/546/2 934/545/2 933/552/2
f 939/549/2 938/546/2 933/552/2
f 933/552/2 930/553/2 939/549/2
f 930/553/2 929/554/2 939/549/2
f 928/548/2 939/549/2 929/554/2
f 934/545/2 937/547/2 935/555/2
f 936/542/2 935/555/2 937/547/2
f 927/544/2 936/542/2 937/547/2
f 937/547/2 940/228/2 927/544/2
f 940/228/2 928/548/2 927/544/2
f 894/556/2 893/557/2 895/558/2
f 898/559/2 892/560/2 901/561/2
f 902/562/2 905/563/2 904/564/2
f 904/564/2 903/565/2 902/562/2
f 900/566/2 899/567/2 901/561/2
f 908/568/2 906/338/2 905/563/2
f 891/569/2 908/568/2 905/563/2
f 905/563/2 902/562/2 891/569/2
f 892/560/2 891/569/2 902/562/2
f 902/562/2 901/561/2 892/560/2
f 906/338/2 908/568/2 907/570/2
f 890/571/2 889/227/2 908/568/2
f 908/568/2 891/569/2 890/571/2
f 892/560/2 898/559/2 893/557/2
f 896/572/2 893/557/2 898/559/2
f 898/559/2 897/573/2 896/572/2
f 933/552/2 932/574/2 930/553/2
f 920/575/2 919/576/2 918/577/2
f 910/578/2 909/579/2 912/580/2
f 912/580/2 911/581/2 910/578/2
f 893/557/2 896/572/2 895/558/2
f 901/561/2 899/567/2 898/559/2
f 916/582/2 915/583/2 914/584/2
f 914/584/2 913/585/2 916/582/2
f 918/577/2 917/586/2 920/575/2
f 922/551/2 921/587/2 924/550/2
f 931/588/2 930/553/2 932/574/2
