{
	"asset":{
		"generator":"Khronos glTF Blender I/O v4.4.56",
		"version":"2.0"
	},
	"scene":0,
	"scenes":[
		{
			"name":"Scene",
			"nodes":[
				0,
				1,
				2,
				3,
				4,
				5,
				6,
				7,
				8,
				9,
				10,
				11,
				12,
				13,
				14,
				15,
				16,
				17,
				18,
				19,
				20,
				21,
				22,
				23,
				24,
				25,
				26,
				27,
				28,
				29,
				30,
				31,
				32,
				33,
				34,
				35,
				36,
				37,
				38,
				39,
				40,
				41,
				42,
				43,
				44,
				45,
				46,
				47,
				48,
				49
			]
		}
	],
	"nodes":[
		{
			"mesh":0,
			"name":"rock_cell",
			"translation":[
				0.03804122656583786,
				2.642084836959839,
				0.08009447157382965
			]
		},
		{
			"mesh":1,
			"name":"rock_cell.001",
			"translation":[
				0.06282280385494232,
				1.6126922369003296,
				0.4403805434703827
			]
		},
		{
			"mesh":2,
			"name":"rock_cell.002",
			"translation":[
				0.30200815200805664,
				1.7525832653045654,
				-0.18580172955989838
			]
		},
		{
			"mesh":3,
			"name":"rock_cell.003",
			"translation":[
				-0.3603692948818207,
				1.682864785194397,
				-0.10584463179111481
			]
		},
		{
			"mesh":4,
			"name":"rock_cell.004",
			"translation":[
				0.09982389956712723,
				0.43815138936042786,
				0.8831354379653931
			]
		},
		{
			"mesh":5,
			"name":"rock_cell.005",
			"translation":[
				0.5883060693740845,
				0.18095609545707703,
				0.1160542443394661
			]
		},
		{
			"mesh":6,
			"name":"rock_cell.006",
			"translation":[
				0.5975470542907715,
				0.42140692472457886,
				-0.6508020162582397
			]
		},
		{
			"mesh":7,
			"name":"rock_cell.007",
			"translation":[
				-0.2295665144920349,
				0.21429495513439178,
				-0.7433038949966431
			]
		},
		{
			"mesh":8,
			"name":"rock_cell.008",
			"translation":[
				-0.8959205746650696,
				0.48538461327552795,
				-0.3928943872451782
			]
		},
		{
			"mesh":9,
			"name":"rock_cell.009",
			"translation":[
				-0.5741149187088013,
				0.18960095942020416,
				0.31822848320007324
			]
		},
		{
			"mesh":10,
			"name":"rock_cell.010",
			"translation":[
				0.13093774020671844,
				2.380481481552124,
				0.004044197499752045
			]
		},
		{
			"mesh":11,
			"name":"rock_cell.011",
			"translation":[
				0.01714130863547325,
				2.2955715656280518,
				0.23463141918182373
			]
		},
		{
			"mesh":12,
			"name":"rock_cell.012",
			"translation":[
				0.21933779120445251,
				1.773471713066101,
				0.11759458482265472
			]
		},
		{
			"mesh":13,
			"name":"rock_cell.013",
			"translation":[
				-0.12800279259681702,
				2.341470718383789,
				0.04283278062939644
			]
		},
		{
			"mesh":14,
			"name":"rock_cell.014",
			"translation":[
				-0.052670419216156006,
				1.7892839908599854,
				-0.21380852162837982
			]
		},
		{
			"mesh":15,
			"name":"rock_cell.015",
			"translation":[
				-0.1655942052602768,
				1.726508617401123,
				0.2132664918899536
			]
		},
		{
			"mesh":16,
			"name":"rock_cell.016",
			"translation":[
				0.25889480113983154,
				1.1422146558761597,
				0.34475162625312805
			]
		},
		{
			"mesh":17,
			"name":"rock_cell.017",
			"translation":[
				0.031090743839740753,
				0.8538320064544678,
				0.41262322664260864
			]
		},
		{
			"mesh":18,
			"name":"rock_cell.018",
			"translation":[
				0.30589017271995544,
				0.2711030840873718,
				0.5050039887428284
			]
		},
		{
			"mesh":19,
			"name":"rock_cell.019",
			"translation":[
				0.3920968174934387,
				0.8539121150970459,
				0.02402988076210022
			]
		},
		{
			"mesh":20,
			"name":"rock_cell.020",
			"translation":[
				0.3668619692325592,
				1.1145707368850708,
				-0.3265225291252136
			]
		},
		{
			"mesh":21,
			"name":"rock_cell.021",
			"translation":[
				0.7794606685638428,
				0.20198944211006165,
				-0.3802941143512726
			]
		},
		{
			"mesh":22,
			"name":"rock_cell.022",
			"translation":[
				0.009515548124909401,
				0.9877848029136658,
				-0.275979220867157
			]
		},
		{
			"mesh":23,
			"name":"rock_cell.023",
			"translation":[
				0.1649344563484192,
				0.21674180030822754,
				-0.7369499802589417
			]
		},
		{
			"mesh":24,
			"name":"rock_cell.024",
			"translation":[
				-0.25507378578186035,
				1.0210089683532715,
				-0.22190067172050476
			]
		},
		{
			"mesh":25,
			"name":"rock_cell.025",
			"translation":[
				-0.630578875541687,
				1.0800367593765259,
				-0.19226360321044922
			]
		},
		{
			"mesh":26,
			"name":"rock_cell.026",
			"translation":[
				-0.6982574462890625,
				0.2622740566730499,
				-0.6987597942352295
			]
		},
		{
			"mesh":27,
			"name":"rock_cell.027",
			"translation":[
				-0.4630279839038849,
				0.9952703714370728,
				0.11622842401266098
			]
		},
		{
			"mesh":28,
			"name":"rock_cell.028",
			"translation":[
				-0.8925586342811584,
				0.2240714430809021,
				-0.04200015962123871
			]
		},
		{
			"mesh":29,
			"name":"rock_cell.029",
			"translation":[
				-0.31205034255981445,
				1.0018284320831299,
				0.41234463453292847
			]
		},
		{
			"mesh":30,
			"name":"rock_cell.030",
			"translation":[
				-0.23929670453071594,
				0.1843290627002716,
				0.6790482997894287
			]
		},
		{
			"mesh":31,
			"name":"rock_cell.031",
			"translation":[
				0.015352681279182434,
				-0.00101432204246521,
				0.4554232358932495
			]
		},
		{
			"mesh":32,
			"name":"rock_cell.032",
			"translation":[
				0.4622308611869812,
				0.10762288421392441,
				-0.4173728823661804
			]
		},
		{
			"mesh":33,
			"name":"rock_cell.033",
			"translation":[
				-0.5158511996269226,
				0.15623041987419128,
				-0.3491884469985962
			]
		},
		{
			"mesh":34,
			"name":"rock_cell.034",
			"translation":[
				0.18002833425998688,
				2.1142616271972656,
				0.16958793997764587
			]
		},
		{
			"mesh":35,
			"name":"rock_cell.035",
			"translation":[
				-0.005614900961518288,
				2.114003896713257,
				-0.06171578913927078
			]
		},
		{
			"mesh":36,
			"name":"rock_cell.036",
			"translation":[
				-0.15749746561050415,
				2.1433019638061523,
				0.1643807291984558
			]
		},
		{
			"mesh":37,
			"name":"rock_cell.037",
			"translation":[
				0.42621946334838867,
				0.6128836870193481,
				0.4621203541755676
			]
		},
		{
			"mesh":38,
			"name":"rock_cell.038",
			"translation":[
				0.25808900594711304,
				1.412090539932251,
				0.054761771112680435
			]
		},
		{
			"mesh":39,
			"name":"rock_cell.039",
			"translation":[
				0.5563221573829651,
				0.5897418260574341,
				-0.19381208717823029
			]
		},
		{
			"mesh":40,
			"name":"rock_cell.040",
			"translation":[
				0.11656402051448822,
				0.6369562149047852,
				-0.4910569489002228
			]
		},
		{
			"mesh":41,
			"name":"rock_cell.041",
			"translation":[
				0.0295436792075634,
				1.495194435119629,
				-0.24740074574947357
			]
		},
		{
			"mesh":42,
			"name":"rock_cell.042",
			"translation":[
				-0.4310281276702881,
				0.6899981498718262,
				-0.4714958965778351
			]
		},
		{
			"mesh":43,
			"name":"rock_cell.043",
			"translation":[
				-0.6378441452980042,
				0.6649208068847656,
				0.0886792242527008
			]
		},
		{
			"mesh":44,
			"name":"rock_cell.044",
			"translation":[
				-0.2547835111618042,
				1.2843568325042725,
				0.21437929570674896
			]
		},
		{
			"mesh":45,
			"name":"rock_cell.045",
			"translation":[
				-0.27211931347846985,
				0.6394070386886597,
				0.5023217797279358
			]
		},
		{
			"mesh":46,
			"name":"rock_cell.046",
			"translation":[
				0.12206687778234482,
				0.01246635615825653,
				0.9034596681594849
			]
		},
		{
			"mesh":47,
			"name":"rock_cell.047",
			"translation":[
				0.7434583306312561,
				0.08221803605556488,
				-0.7255179286003113
			]
		},
		{
			"mesh":48,
			"name":"rock_cell.048",
			"translation":[
				-1.036952257156372,
				0.09914135932922363,
				-0.4119894802570343
			]
		},
		{
			"mesh":49,
			"name":"rock_cell.049",
			"translation":[
				-0.02741825394332409,
				0.21045544743537903,
				-0.08780959248542786
			]
		}
	],
	"materials":[
		{
			"doubleSided":true,
			"name":"\u30de\u30c6\u30ea\u30a2\u30eb",
			"pbrMetallicRoughness":{
				"metallicFactor":0,
				"roughnessFactor":0.5
			}
		}
	],
	"meshes":[
		{
			"name":"rock_cell.050",
			"primitives":[
				{
					"attributes":{
						"POSITION":0,
						"NORMAL":1,
						"TEXCOORD_0":2
					},
					"indices":3,
					"material":0
				}
			]
		},
		{
			"name":"rock_cell.051",
			"primitives":[
				{
					"attributes":{
						"POSITION":4,
						"NORMAL":5,
						"TEXCOORD_0":6
					},
					"indices":7,
					"material":0
				}
			]
		},
		{
			"name":"rock_cell.001",
			"primitives":[
				{
					"attributes":{
						"POSITION":8,
						"NORMAL":9,
						"TEXCOORD_0":10
					},
					"indices":11,
					"material":0
				}
			]
		},
		{
			"name":"rock_cell.002",
			"primitives":[
				{
					"attributes":{
						"POSITION":12,
						"NORMAL":13,
						"TEXCOORD_0":14
					},
					"indices":15,
					"material":0
				}
			]
		},
		{
			"name":"rock_cell.003",
			"primitives":[
				{
					"attributes":{
						"POSITION":16,
						"NORMAL":17,
						"TEXCOORD_0":18
					},
					"indices":19,
					"material":0
				}
			]
		},
		{
			"name":"rock_cell.004",
			"primitives":[
				{
					"attributes":{
						"POSITION":20,
						"NORMAL":21,
						"TEXCOORD_0":22
					},
					"indices":23,
					"material":0
				}
			]
		},
		{
			"name":"rock_cell.005",
			"primitives":[
				{
					"attributes":{
						"POSITION":24,
						"NORMAL":25,
						"TEXCOORD_0":26
					},
					"indices":27,
					"material":0
				}
			]
		},
		{
			"name":"rock_cell.006",
			"primitives":[
				{
					"attributes":{
						"POSITION":28,
						"NORMAL":29,
						"TEXCOORD_0":30
					},
					"indices":31,
					"material":0
				}
			]
		},
		{
			"name":"rock_cell.007",
			"primitives":[
				{
					"attributes":{
						"POSITION":32,
						"NORMAL":33,
						"TEXCOORD_0":34
					},
					"indices":35,
					"material":0
				}
			]
		},
		{
			"name":"rock_cell.008",
			"primitives":[
				{
					"attributes":{
						"POSITION":36,
						"NORMAL":37,
						"TEXCOORD_0":38
					},
					"indices":39,
					"material":0
				}
			]
		},
		{
			"name":"rock_cell.009",
			"primitives":[
				{
					"attributes":{
						"POSITION":40,
						"NORMAL":41,
						"TEXCOORD_0":42
					},
					"indices":43,
					"material":0
				}
			]
		},
		{
			"name":"rock_cell.010",
			"primitives":[
				{
					"attributes":{
						"POSITION":44,
						"NORMAL":45,
						"TEXCOORD_0":46
					},
					"indices":47,
					"material":0
				}
			]
		},
		{
			"name":"rock_cell.011",
			"primitives":[
				{
					"attributes":{
						"POSITION":48,
						"NORMAL":49,
						"TEXCOORD_0":50
					},
					"indices":51,
					"material":0
				}
			]
		},
		{
			"name":"rock_cell.012",
			"primitives":[
				{
					"attributes":{
						"POSITION":52,
						"NORMAL":53,
						"TEXCOORD_0":54
					},
					"indices":55,
					"material":0
				}
			]
		},
		{
			"name":"rock_cell.013",
			"primitives":[
				{
					"attributes":{
						"POSITION":56,
						"NORMAL":57,
						"TEXCOORD_0":58
					},
					"indices":59,
					"material":0
				}
			]
		},
		{
			"name":"rock_cell.014",
			"primitives":[
				{
					"attributes":{
						"POSITION":60,
						"NORMAL":61,
						"TEXCOORD_0":62
					},
					"indices":63,
					"material":0
				}
			]
		},
		{
			"name":"rock_cell.015",
			"primitives":[
				{
					"attributes":{
						"POSITION":64,
						"NORMAL":65,
						"TEXCOORD_0":66
					},
					"indices":67,
					"material":0
				}
			]
		},
		{
			"name":"rock_cell.016",
			"primitives":[
				{
					"attributes":{
						"POSITION":68,
						"NORMAL":69,
						"TEXCOORD_0":70
					},
					"indices":71,
					"material":0
				}
			]
		},
		{
			"name":"rock_cell.017",
			"primitives":[
				{
					"attributes":{
						"POSITION":72,
						"NORMAL":73,
						"TEXCOORD_0":74
					},
					"indices":75,
					"material":0
				}
			]
		},
		{
			"name":"rock_cell.018",
			"primitives":[
				{
					"attributes":{
						"POSITION":76,
						"NORMAL":77,
						"TEXCOORD_0":78
					},
					"indices":79,
					"material":0
				}
			]
		},
		{
			"name":"rock_cell.019",
			"primitives":[
				{
					"attributes":{
						"POSITION":80,
						"NORMAL":81,
						"TEXCOORD_0":82
					},
					"indices":83,
					"material":0
				}
			]
		},
		{
			"name":"rock_cell.020",
			"primitives":[
				{
					"attributes":{
						"POSITION":84,
						"NORMAL":85,
						"TEXCOORD_0":86
					},
					"indices":87,
					"material":0
				}
			]
		},
		{
			"name":"rock_cell.021",
			"primitives":[
				{
					"attributes":{
						"POSITION":88,
						"NORMAL":89,
						"TEXCOORD_0":90
					},
					"indices":91,
					"material":0
				}
			]
		},
		{
			"name":"rock_cell.022",
			"primitives":[
				{
					"attributes":{
						"POSITION":92,
						"NORMAL":93,
						"TEXCOORD_0":94
					},
					"indices":95,
					"material":0
				}
			]
		},
		{
			"name":"rock_cell.023",
			"primitives":[
				{
					"attributes":{
						"POSITION":96,
						"NORMAL":97,
						"TEXCOORD_0":98
					},
					"indices":99,
					"material":0
				}
			]
		},
		{
			"name":"rock_cell.024",
			"primitives":[
				{
					"attributes":{
						"POSITION":100,
						"NORMAL":101,
						"TEXCOORD_0":102
					},
					"indices":103,
					"material":0
				}
			]
		},
		{
			"name":"rock_cell.025",
			"primitives":[
				{
					"attributes":{
						"POSITION":104,
						"NORMAL":105,
						"TEXCOORD_0":106
					},
					"indices":107,
					"material":0
				}
			]
		},
		{
			"name":"rock_cell.026",
			"primitives":[
				{
					"attributes":{
						"POSITION":108,
						"NORMAL":109,
						"TEXCOORD_0":110
					},
					"indices":111,
					"material":0
				}
			]
		},
		{
			"name":"rock_cell.027",
			"primitives":[
				{
					"attributes":{
						"POSITION":112,
						"NORMAL":113,
						"TEXCOORD_0":114
					},
					"indices":115,
					"material":0
				}
			]
		},
		{
			"name":"rock_cell.028",
			"primitives":[
				{
					"attributes":{
						"POSITION":116,
						"NORMAL":117,
						"TEXCOORD_0":118
					},
					"indices":119,
					"material":0
				}
			]
		},
		{
			"name":"rock_cell.029",
			"primitives":[
				{
					"attributes":{
						"POSITION":120,
						"NORMAL":121,
						"TEXCOORD_0":122
					},
					"indices":123,
					"material":0
				}
			]
		},
		{
			"name":"rock_cell.030",
			"primitives":[
				{
					"attributes":{
						"POSITION":124,
						"NORMAL":125,
						"TEXCOORD_0":126
					},
					"indices":127,
					"material":0
				}
			]
		},
		{
			"name":"rock_cell.031",
			"primitives":[
				{
					"attributes":{
						"POSITION":128,
						"NORMAL":129,
						"TEXCOORD_0":130
					},
					"indices":131,
					"material":0
				}
			]
		},
		{
			"name":"rock_cell.032",
			"primitives":[
				{
					"attributes":{
						"POSITION":132,
						"NORMAL":133,
						"TEXCOORD_0":134
					},
					"indices":135,
					"material":0
				}
			]
		},
		{
			"name":"rock_cell.033",
			"primitives":[
				{
					"attributes":{
						"POSITION":136,
						"NORMAL":137,
						"TEXCOORD_0":138
					},
					"indices":139,
					"material":0
				}
			]
		},
		{
			"name":"rock_cell.034",
			"primitives":[
				{
					"attributes":{
						"POSITION":140,
						"NORMAL":141,
						"TEXCOORD_0":142
					},
					"indices":143,
					"material":0
				}
			]
		},
		{
			"name":"rock_cell.035",
			"primitives":[
				{
					"attributes":{
						"POSITION":144,
						"NORMAL":145,
						"TEXCOORD_0":146
					},
					"indices":147,
					"material":0
				}
			]
		},
		{
			"name":"rock_cell.036",
			"primitives":[
				{
					"attributes":{
						"POSITION":148,
						"NORMAL":149,
						"TEXCOORD_0":150
					},
					"indices":151,
					"material":0
				}
			]
		},
		{
			"name":"rock_cell.037",
			"primitives":[
				{
					"attributes":{
						"POSITION":152,
						"NORMAL":153,
						"TEXCOORD_0":154
					},
					"indices":155,
					"material":0
				}
			]
		},
		{
			"name":"rock_cell.038",
			"primitives":[
				{
					"attributes":{
						"POSITION":156,
						"NORMAL":157,
						"TEXCOORD_0":158
					},
					"indices":159,
					"material":0
				}
			]
		},
		{
			"name":"rock_cell.039",
			"primitives":[
				{
					"attributes":{
						"POSITION":160,
						"NORMAL":161,
						"TEXCOORD_0":162
					},
					"indices":163,
					"material":0
				}
			]
		},
		{
			"name":"rock_cell.040",
			"primitives":[
				{
					"attributes":{
						"POSITION":164,
						"NORMAL":165,
						"TEXCOORD_0":166
					},
					"indices":167,
					"material":0
				}
			]
		},
		{
			"name":"rock_cell.041",
			"primitives":[
				{
					"attributes":{
						"POSITION":168,
						"NORMAL":169,
						"TEXCOORD_0":170
					},
					"indices":171,
					"material":0
				}
			]
		},
		{
			"name":"rock_cell.042",
			"primitives":[
				{
					"attributes":{
						"POSITION":172,
						"NORMAL":173,
						"TEXCOORD_0":174
					},
					"indices":175,
					"material":0
				}
			]
		},
		{
			"name":"rock_cell.043",
			"primitives":[
				{
					"attributes":{
						"POSITION":176,
						"NORMAL":177,
						"TEXCOORD_0":178
					},
					"indices":179,
					"material":0
				}
			]
		},
		{
			"name":"rock_cell.044",
			"primitives":[
				{
					"attributes":{
						"POSITION":180,
						"NORMAL":181,
						"TEXCOORD_0":182
					},
					"indices":183,
					"material":0
				}
			]
		},
		{
			"name":"rock_cell.045",
			"primitives":[
				{
					"attributes":{
						"POSITION":184,
						"NORMAL":185,
						"TEXCOORD_0":186
					},
					"indices":187,
					"material":0
				}
			]
		},
		{
			"name":"rock_cell.046",
			"primitives":[
				{
					"attributes":{
						"POSITION":188,
						"NORMAL":189,
						"TEXCOORD_0":190
					},
					"indices":191,
					"material":0
				}
			]
		},
		{
			"name":"rock_cell.047",
			"primitives":[
				{
					"attributes":{
						"POSITION":192,
						"NORMAL":193,
						"TEXCOORD_0":194
					},
					"indices":195,
					"material":0
				}
			]
		},
		{
			"name":"rock_cell.048",
			"primitives":[
				{
					"attributes":{
						"POSITION":196,
						"NORMAL":197,
						"TEXCOORD_0":198
					},
					"indices":199,
					"material":0
				}
			]
		}
	],
	"accessors":[
		{
			"bufferView":0,
			"componentType":5126,
			"count":30,
			"max":[
				0.09297611564397812,
				0.25995320081710815,
				0.1259453147649765
			],
			"min":[
				-0.13515928387641907,
				-0.06599098443984985,
				-0.07145169377326965
			],
			"type":"VEC3"
		},
		{
			"bufferView":1,
			"componentType":5126,
			"count":30,
			"type":"VEC3"
		},
		{
			"bufferView":2,
			"componentType":5126,
			"count":30,
			"type":"VEC2"
		},
		{
			"bufferView":3,
			"componentType":5123,
			"count":48,
			"type":"SCALAR"
		},
		{
			"bufferView":4,
			"componentType":5126,
			"count":126,
			"max":[
				0.20493580400943756,
				0.4579467177391052,
				0.1542399376630783
			],
			"min":[
				-0.2120005488395691,
				-0.23615126311779022,
				-0.2226008176803589
			],
			"type":"VEC3"
		},
		{
			"bufferView":5,
			"componentType":5126,
			"count":126,
			"type":"VEC3"
		},
		{
			"bufferView":6,
			"componentType":5126,
			"count":126,
			"type":"VEC2"
		},
		{
			"bufferView":7,
			"componentType":5123,
			"count":192,
			"type":"SCALAR"
		},
		{
			"bufferView":8,
			"componentType":5126,
			"count":122,
			"max":[
				0.15044772624969482,
				0.33681604266166687,
				0.1443394273519516
			],
			"min":[
				-0.18599489331245422,
				-0.3552300035953522,
				-0.1815340220928192
			],
			"type":"VEC3"
		},
		{
			"bufferView":9,
			"componentType":5126,
			"count":122,
			"type":"VEC3"
		},
		{
			"bufferView":10,
			"componentType":5126,
			"count":122,
			"type":"VEC2"
		},
		{
			"bufferView":11,
			"componentType":5123,
			"count":192,
			"type":"SCALAR"
		},
		{
			"bufferView":12,
			"componentType":5126,
			"count":140,
			"max":[
				0.22974440455436707,
				0.3970014452934265,
				0.1956019103527069
			],
			"min":[
				-0.2330005168914795,
				-0.2895369529724121,
				-0.18914182484149933
			],
			"type":"VEC3"
		},
		{
			"bufferView":13,
			"componentType":5126,
			"count":140,
			"type":"VEC3"
		},
		{
			"bufferView":14,
			"componentType":5126,
			"count":140,
			"type":"VEC2"
		},
		{
			"bufferView":15,
			"componentType":5123,
			"count":222,
			"type":"SCALAR"
		},
		{
			"bufferView":16,
			"componentType":5126,
			"count":70,
			"max":[
				0.25335004925727844,
				0.26461470127105713,
				0.23405753076076508
			],
			"min":[
				-0.23593157529830933,
				-0.3336420953273773,
				-0.21408866345882416
			],
			"type":"VEC3"
		},
		{
			"bufferView":17,
			"componentType":5126,
			"count":70,
			"type":"VEC3"
		},
		{
			"bufferView":18,
			"componentType":5126,
			"count":70,
			"type":"VEC2"
		},
		{
			"bufferView":19,
			"componentType":5123,
			"count":108,
			"type":"SCALAR"
		},
		{
			"bufferView":20,
			"componentType":5126,
			"count":94,
			"max":[
				0.32617050409317017,
				0.3735203444957733,
				0.3051527738571167
			],
			"min":[
				-0.23641949892044067,
				-0.2311764359474182,
				-0.27556928992271423
			],
			"type":"VEC3"
		},
		{
			"bufferView":21,
			"componentType":5126,
			"count":94,
			"type":"VEC3"
		},
		{
			"bufferView":22,
			"componentType":5126,
			"count":94,
			"type":"VEC2"
		},
		{
			"bufferView":23,
			"componentType":5123,
			"count":144,
			"type":"SCALAR"
		},
		{
			"bufferView":24,
			"componentType":5126,
			"count":84,
			"max":[
				0.25248104333877563,
				0.3285910487174988,
				0.21813583374023438
			],
			"min":[
				-0.328311026096344,
				-0.25583112239837646,
				-0.1699342131614685
			],
			"type":"VEC3"
		},
		{
			"bufferView":25,
			"componentType":5126,
			"count":84,
			"type":"VEC3"
		},
		{
			"bufferView":26,
			"componentType":5126,
			"count":84,
			"type":"VEC2"
		},
		{
			"bufferView":27,
			"componentType":5123,
			"count":132,
			"type":"SCALAR"
		},
		{
			"bufferView":28,
			"componentType":5126,
			"count":84,
			"max":[
				0.23574164509773254,
				0.3150877058506012,
				0.17253708839416504
			],
			"min":[
				-0.3548597991466522,
				-0.2736762762069702,
				-0.3436480760574341
			],
			"type":"VEC3"
		},
		{
			"bufferView":29,
			"componentType":5126,
			"count":84,
			"type":"VEC3"
		},
		{
			"bufferView":30,
			"componentType":5126,
			"count":84,
			"type":"VEC2"
		},
		{
			"bufferView":31,
			"componentType":5123,
			"count":132,
			"type":"SCALAR"
		},
		{
			"bufferView":32,
			"componentType":5126,
			"count":96,
			"max":[
				0.31256598234176636,
				0.2958173453807831,
				0.3175544738769531
			],
			"min":[
				-0.256765753030777,
				-0.3351247012615204,
				-0.27187424898147583
			],
			"type":"VEC3"
		},
		{
			"bufferView":33,
			"componentType":5126,
			"count":96,
			"type":"VEC3"
		},
		{
			"bufferView":34,
			"componentType":5126,
			"count":96,
			"type":"VEC2"
		},
		{
			"bufferView":35,
			"componentType":5123,
			"count":156,
			"type":"SCALAR"
		},
		{
			"bufferView":36,
			"componentType":5126,
			"count":102,
			"max":[
				0.23162904381752014,
				0.33726048469543457,
				0.3760097026824951
			],
			"min":[
				-0.3906956911087036,
				-0.2840319275856018,
				-0.21664215624332428
			],
			"type":"VEC3"
		},
		{
			"bufferView":37,
			"componentType":5126,
			"count":102,
			"type":"VEC3"
		},
		{
			"bufferView":38,
			"componentType":5126,
			"count":102,
			"type":"VEC2"
		},
		{
			"bufferView":39,
			"componentType":5123,
			"count":156,
			"type":"SCALAR"
		},
		{
			"bufferView":40,
			"componentType":5126,
			"count":74,
			"max":[
				0.20065376162528992,
				0.2647424042224884,
				0.1364540159702301
			],
			"min":[
				-0.1285201907157898,
				-0.36133721470832825,
				-0.19477161765098572
			],
			"type":"VEC3"
		},
		{
			"bufferView":41,
			"componentType":5126,
			"count":74,
			"type":"VEC3"
		},
		{
			"bufferView":42,
			"componentType":5126,
			"count":74,
			"type":"VEC2"
		},
		{
			"bufferView":43,
			"componentType":5123,
			"count":120,
			"type":"SCALAR"
		},
		{
			"bufferView":44,
			"componentType":5126,
			"count":86,
			"max":[
				0.16290712356567383,
				0.33691662549972534,
				0.22610090672969818
			],
			"min":[
				-0.1009647399187088,
				-0.3034120798110962,
				-0.14355096220970154
			],
			"type":"VEC3"
		},
		{
			"bufferView":45,
			"componentType":5126,
			"count":86,
			"type":"VEC3"
		},
		{
			"bufferView":46,
			"componentType":5126,
			"count":86,
			"type":"VEC2"
		},
		{
			"bufferView":47,
			"componentType":5123,
			"count":138,
			"type":"SCALAR"
		},
		{
			"bufferView":48,
			"componentType":5126,
			"count":94,
			"max":[
				0.196321040391922,
				0.25172585248947144,
				0.29704421758651733
			],
			"min":[
				-0.2531043291091919,
				-0.2905394434928894,
				-0.21317504346370697
			],
			"type":"VEC3"
		},
		{
			"bufferView":49,
			"componentType":5126,
			"count":94,
			"type":"VEC3"
		},
		{
			"bufferView":50,
			"componentType":5126,
			"count":94,
			"type":"VEC2"
		},
		{
			"bufferView":51,
			"componentType":5123,
			"count":138,
			"type":"SCALAR"
		},
		{
			"bufferView":52,
			"componentType":5126,
			"count":78,
			"max":[
				0.1601950228214264,
				0.28373050689697266,
				0.13634096086025238
			],
			"min":[
				-0.227554589509964,
				-0.33789268136024475,
				-0.15554144978523254
			],
			"type":"VEC3"
		},
		{
			"bufferView":53,
			"componentType":5126,
			"count":78,
			"type":"VEC3"
		},
		{
			"bufferView":54,
			"componentType":5126,
			"count":78,
			"type":"VEC2"
		},
		{
			"bufferView":55,
			"componentType":5123,
			"count":120,
			"type":"SCALAR"
		},
		{
			"bufferView":56,
			"componentType":5126,
			"count":66,
			"max":[
				0.2203916609287262,
				0.23267774283885956,
				0.2562461495399475
			],
			"min":[
				-0.2479359358549118,
				-0.27352508902549744,
				-0.18574871122837067
			],
			"type":"VEC3"
		},
		{
			"bufferView":57,
			"componentType":5126,
			"count":66,
			"type":"VEC3"
		},
		{
			"bufferView":58,
			"componentType":5126,
			"count":66,
			"type":"VEC2"
		},
		{
			"bufferView":59,
			"componentType":5123,
			"count":108,
			"type":"SCALAR"
		},
		{
			"bufferView":60,
			"componentType":5126,
			"count":132,
			"max":[
				0.20530401170253754,
				0.320657879114151,
				0.3125162124633789
			],
			"min":[
				-0.292539119720459,
				-0.32146817445755005,
				-0.21864622831344604
			],
			"type":"VEC3"
		},
		{
			"bufferView":61,
			"componentType":5126,
			"count":132,
			"type":"VEC3"
		},
		{
			"bufferView":62,
			"componentType":5126,
			"count":132,
			"type":"VEC2"
		},
		{
			"bufferView":63,
			"componentType":5123,
			"count":180,
			"type":"SCALAR"
		},
		{
			"bufferView":64,
			"componentType":5126,
			"count":94,
			"max":[
				0.3098453879356384,
				0.3235653340816498,
				0.2578772008419037
			],
			"min":[
				-0.2585349678993225,
				-0.5619687438011169,
				-0.28806251287460327
			],
			"type":"VEC3"
		},
		{
			"bufferView":65,
			"componentType":5126,
			"count":94,
			"type":"VEC3"
		},
		{
			"bufferView":66,
			"componentType":5126,
			"count":94,
			"type":"VEC2"
		},
		{
			"bufferView":67,
			"componentType":5123,
			"count":144,
			"type":"SCALAR"
		},
		{
			"bufferView":68,
			"componentType":5126,
			"count":152,
			"max":[
				0.26102209091186523,
				0.5423681139945984,
				0.4555308222770691
			],
			"min":[
				-0.205558642745018,
				-0.3962368667125702,
				-0.37535572052001953
			],
			"type":"VEC3"
		},
		{
			"bufferView":69,
			"componentType":5126,
			"count":152,
			"type":"VEC3"
		},
		{
			"bufferView":70,
			"componentType":5126,
			"count":152,
			"type":"VEC2"
		},
		{
			"bufferView":71,
			"componentType":5123,
			"count":210,
			"type":"SCALAR"
		},
		{
			"bufferView":72,
			"componentType":5126,
			"count":140,
			"max":[
				0.39276018738746643,
				0.26966503262519836,
				0.44168826937675476
			],
			"min":[
				-0.4248235523700714,
				-0.34953993558883667,
				-0.4435959458351135
			],
			"type":"VEC3"
		},
		{
			"bufferView":73,
			"componentType":5126,
			"count":140,
			"type":"VEC3"
		},
		{
			"bufferView":74,
			"componentType":5126,
			"count":140,
			"type":"VEC2"
		},
		{
			"bufferView":75,
			"componentType":5123,
			"count":204,
			"type":"SCALAR"
		},
		{
			"bufferView":76,
			"componentType":5126,
			"count":124,
			"max":[
				0.2791394889354706,
				0.4765191972255707,
				0.24761590361595154
			],
			"min":[
				-0.3465973138809204,
				-0.344295859336853,
				-0.2652934789657593
			],
			"type":"VEC3"
		},
		{
			"bufferView":77,
			"componentType":5126,
			"count":124,
			"type":"VEC3"
		},
		{
			"bufferView":78,
			"componentType":5126,
			"count":124,
			"type":"VEC2"
		},
		{
			"bufferView":79,
			"componentType":5123,
			"count":180,
			"type":"SCALAR"
		},
		{
			"bufferView":80,
			"componentType":5126,
			"count":76,
			"max":[
				0.2055821716785431,
				0.29752790927886963,
				0.262582004070282
			],
			"min":[
				-0.22045204043388367,
				-0.41699421405792236,
				-0.19547519087791443
			],
			"type":"VEC3"
		},
		{
			"bufferView":81,
			"componentType":5126,
			"count":76,
			"type":"VEC3"
		},
		{
			"bufferView":82,
			"componentType":5126,
			"count":76,
			"type":"VEC2"
		},
		{
			"bufferView":83,
			"componentType":5123,
			"count":120,
			"type":"SCALAR"
		},
		{
			"bufferView":84,
			"componentType":5126,
			"count":52,
			"max":[
				0.17969433963298798,
				0.23221048712730408,
				0.3167802393436432
			],
			"min":[
				-0.20794393122196198,
				-0.17110468447208405,
				-0.31617870926856995
			],
			"type":"VEC3"
		},
		{
			"bufferView":85,
			"componentType":5126,
			"count":52,
			"type":"VEC3"
		},
		{
			"bufferView":86,
			"componentType":5126,
			"count":52,
			"type":"VEC2"
		},
		{
			"bufferView":87,
			"componentType":5123,
			"count":84,
			"type":"SCALAR"
		},
		{
			"bufferView":88,
			"componentType":5126,
			"count":128,
			"max":[
				0.25261613726615906,
				0.39099347591400146,
				0.35940539836883545
			],
			"min":[
				-0.19392946362495422,
				-0.46488380432128906,
				-0.3971956968307495
			],
			"type":"VEC3"
		},
		{
			"bufferView":89,
			"componentType":5126,
			"count":128,
			"type":"VEC3"
		},
		{
			"bufferView":90,
			"componentType":5126,
			"count":128,
			"type":"VEC2"
		},
		{
			"bufferView":91,
			"componentType":5123,
			"count":174,
			"type":"SCALAR"
		},
		{
			"bufferView":92,
			"componentType":5126,
			"count":90,
			"max":[
				0.4817488491535187,
				0.283330500125885,
				0.2287234216928482
			],
			"min":[
				-0.3109177052974701,
				-0.2670194208621979,
				-0.27707624435424805
			],
			"type":"VEC3"
		},
		{
			"bufferView":93,
			"componentType":5126,
			"count":90,
			"type":"VEC3"
		},
		{
			"bufferView":94,
			"componentType":5126,
			"count":90,
			"type":"VEC2"
		},
		{
			"bufferView":95,
			"componentType":5123,
			"count":144,
			"type":"SCALAR"
		},
		{
			"bufferView":96,
			"componentType":5126,
			"count":152,
			"max":[
				0.20680353045463562,
				0.4536600112915039,
				0.2936623692512512
			],
			"min":[
				-0.25338491797447205,
				-0.5299916863441467,
				-0.39392948150634766
			],
			"type":"VEC3"
		},
		{
			"bufferView":97,
			"componentType":5126,
			"count":152,
			"type":"VEC3"
		},
		{
			"bufferView":98,
			"componentType":5126,
			"count":152,
			"type":"VEC2"
		},
		{
			"bufferView":99,
			"componentType":5123,
			"count":210,
			"type":"SCALAR"
		},
		{
			"bufferView":100,
			"componentType":5126,
			"count":74,
			"max":[
				0.20731721818447113,
				0.3611420691013336,
				0.159245103597641
			],
			"min":[
				-0.2791207432746887,
				-0.41194212436676025,
				-0.20013725757598877
			],
			"type":"VEC3"
		},
		{
			"bufferView":101,
			"componentType":5126,
			"count":74,
			"type":"VEC3"
		},
		{
			"bufferView":102,
			"componentType":5126,
			"count":74,
			"type":"VEC2"
		},
		{
			"bufferView":103,
			"componentType":5123,
			"count":120,
			"type":"SCALAR"
		},
		{
			"bufferView":104,
			"componentType":5126,
			"count":66,
			"max":[
				0.36015942692756653,
				0.3154318928718567,
				0.21885216236114502
			],
			"min":[
				-0.3635294735431671,
				-0.23773343861103058,
				-0.26913654804229736
			],
			"type":"VEC3"
		},
		{
			"bufferView":105,
			"componentType":5126,
			"count":66,
			"type":"VEC3"
		},
		{
			"bufferView":106,
			"componentType":5126,
			"count":66,
			"type":"VEC2"
		},
		{
			"bufferView":107,
			"componentType":5123,
			"count":108,
			"type":"SCALAR"
		},
		{
			"bufferView":108,
			"componentType":5126,
			"count":102,
			"max":[
				0.36972910165786743,
				0.47665995359420776,
				0.29378029704093933
			],
			"min":[
				-0.21480005979537964,
				-0.5258551239967346,
				-0.21327385306358337
			],
			"type":"VEC3"
		},
		{
			"bufferView":109,
			"componentType":5126,
			"count":102,
			"type":"VEC3"
		},
		{
			"bufferView":110,
			"componentType":5126,
			"count":102,
			"type":"VEC2"
		},
		{
			"bufferView":111,
			"componentType":5123,
			"count":150,
			"type":"SCALAR"
		},
		{
			"bufferView":112,
			"componentType":5126,
			"count":68,
			"max":[
				0.4198651909828186,
				0.3305087387561798,
				0.34089532494544983
			],
			"min":[
				-0.24331223964691162,
				-0.2562635540962219,
				-0.3334187865257263
			],
			"type":"VEC3"
		},
		{
			"bufferView":113,
			"componentType":5126,
			"count":68,
			"type":"VEC3"
		},
		{
			"bufferView":114,
			"componentType":5126,
			"count":68,
			"type":"VEC2"
		},
		{
			"bufferView":115,
			"componentType":5123,
			"count":120,
			"type":"SCALAR"
		},
		{
			"bufferView":116,
			"componentType":5126,
			"count":90,
			"max":[
				0.2400868684053421,
				0.4329984188079834,
				0.1696644425392151
			],
			"min":[
				-0.31483155488967896,
				-0.3882238566875458,
				-0.34062057733535767
			],
			"type":"VEC3"
		},
		{
			"bufferView":117,
			"componentType":5126,
			"count":90,
			"type":"VEC3"
		},
		{
			"bufferView":118,
			"componentType":5126,
			"count":90,
			"type":"VEC2"
		},
		{
			"bufferView":119,
			"componentType":5123,
			"count":144,
			"type":"SCALAR"
		},
		{
			"bufferView":120,
			"componentType":5126,
			"count":92,
			"max":[
				0.2974664568901062,
				0.36059504747390747,
				0.3306959867477417
			],
			"min":[
				-0.3824840188026428,
				-0.28447225689888,
				-0.4439133107662201
			],
			"type":"VEC3"
		},
		{
			"bufferView":121,
			"componentType":5126,
			"count":92,
			"type":"VEC3"
		},
		{
			"bufferView":122,
			"componentType":5126,
			"count":92,
			"type":"VEC2"
		},
		{
			"bufferView":123,
			"componentType":5123,
			"count":144,
			"type":"SCALAR"
		},
		{
			"bufferView":124,
			"componentType":5126,
			"count":88,
			"max":[
				0.3953965902328491,
				0.3804726004600525,
				0.3903937339782715
			],
			"min":[
				-0.4054436683654785,
				-0.19111263751983643,
				-0.2722054719924927
			],
			"type":"VEC3"
		},
		{
			"bufferView":125,
			"componentType":5126,
			"count":88,
			"type":"VEC3"
		},
		{
			"bufferView":126,
			"componentType":5126,
			"count":88,
			"type":"VEC2"
		},
		{
			"bufferView":127,
			"componentType":5123,
			"count":132,
			"type":"SCALAR"
		},
		{
			"bufferView":128,
			"componentType":5126,
			"count":92,
			"max":[
				0.30385830998420715,
				0.32867431640625,
				0.3885553181171417
			],
			"min":[
				-0.4812234044075012,
				-0.16881923377513885,
				-0.3938663601875305
			],
			"type":"VEC3"
		},
		{
			"bufferView":129,
			"componentType":5126,
			"count":92,
			"type":"VEC3"
		},
		{
			"bufferView":130,
			"componentType":5126,
			"count":92,
			"type":"VEC2"
		},
		{
			"bufferView":131,
			"componentType":5123,
			"count":144,
			"type":"SCALAR"
		},
		{
			"bufferView":132,
			"componentType":5126,
			"count":122,
			"max":[
				0.38734936714172363,
				0.33393704891204834,
				0.5277652740478516
			],
			"min":[
				-0.4112735688686371,
				-0.22172750532627106,
				-0.39406558871269226
			],
			"type":"VEC3"
		},
		{
			"bufferView":133,
			"componentType":5126,
			"count":122,
			"type":"VEC3"
		},
		{
			"bufferView":134,
			"componentType":5126,
			"count":122,
			"type":"VEC2"
		},
		{
			"bufferView":135,
			"componentType":5123,
			"count":180,
			"type":"SCALAR"
		},
		{
			"bufferView":136,
			"componentType":5126,
			"count":104,
			"max":[
				0.15718483924865723,
				0.2873021364212036,
				0.2596677839756012
			],
			"min":[
				-0.17905499041080475,
				-0.1744149923324585,
				-0.22402188181877136
			],
			"type":"VEC3"
		},
		{
			"bufferView":137,
			"componentType":5126,
			"count":104,
			"type":"VEC3"
		},
		{
			"bufferView":138,
			"componentType":5126,
			"count":104,
			"type":"VEC2"
		},
		{
			"bufferView":139,
			"componentType":5123,
			"count":156,
			"type":"SCALAR"
		},
		{
			"bufferView":140,
			"componentType":5126,
			"count":126,
			"max":[
				0.24838721752166748,
				0.36754894256591797,
				0.19923165440559387
			],
			"min":[
				-0.27991095185279846,
				-0.23496560752391815,
				-0.1929798424243927
			],
			"type":"VEC3"
		},
		{
			"bufferView":141,
			"componentType":5126,
			"count":126,
			"type":"VEC3"
		},
		{
			"bufferView":142,
			"componentType":5126,
			"count":126,
			"type":"VEC2"
		},
		{
			"bufferView":143,
			"componentType":5123,
			"count":180,
			"type":"SCALAR"
		},
		{
			"bufferView":144,
			"componentType":5126,
			"count":77,
			"max":[
				0.1756136417388916,
				0.26178473234176636,
				0.21030355989933014
			],
			"min":[
				-0.2051602154970169,
				-0.19391903281211853,
				-0.18216048181056976
			],
			"type":"VEC3"
		},
		{
			"bufferView":145,
			"componentType":5126,
			"count":77,
			"type":"VEC3"
		},
		{
			"bufferView":146,
			"componentType":5126,
			"count":77,
			"type":"VEC2"
		},
		{
			"bufferView":147,
			"componentType":5123,
			"count":120,
			"type":"SCALAR"
		},
		{
			"bufferView":148,
			"componentType":5126,
			"count":80,
			"max":[
				0.26334041357040405,
				0.29051297903060913,
				0.42917096614837646
			],
			"min":[
				-0.34192097187042236,
				-0.20926621556282043,
				-0.3490138053894043
			],
			"type":"VEC3"
		},
		{
			"bufferView":149,
			"componentType":5126,
			"count":80,
			"type":"VEC3"
		},
		{
			"bufferView":150,
			"componentType":5126,
			"count":80,
			"type":"VEC2"
		},
		{
			"bufferView":151,
			"componentType":5123,
			"count":126,
			"type":"SCALAR"
		},
		{
			"bufferView":152,
			"componentType":5126,
			"count":134,
			"max":[
				0.24342849850654602,
				0.21771648526191711,
				0.3878871202468872
			],
			"min":[
				-0.33048203587532043,
				-0.2757381200790405,
				-0.33446523547172546
			],
			"type":"VEC3"
		},
		{
			"bufferView":153,
			"componentType":5126,
			"count":134,
			"type":"VEC3"
		},
		{
			"bufferView":154,
			"componentType":5126,
			"count":134,
			"type":"VEC2"
		},
		{
			"bufferView":155,
			"componentType":5123,
			"count":192,
			"type":"SCALAR"
		},
		{
			"bufferView":156,
			"componentType":5126,
			"count":124,
			"max":[
				0.2778659760951996,
				0.30219823122024536,
				0.3819010853767395
			],
			"min":[
				-0.4183298349380493,
				-0.3447781205177307,
				-0.38841962814331055
			],
			"type":"VEC3"
		},
		{
			"bufferView":157,
			"componentType":5126,
			"count":124,
			"type":"VEC3"
		},
		{
			"bufferView":158,
			"componentType":5126,
			"count":124,
			"type":"VEC2"
		},
		{
			"bufferView":159,
			"componentType":5123,
			"count":192,
			"type":"SCALAR"
		},
		{
			"bufferView":160,
			"componentType":5126,
			"count":166,
			"max":[
				0.44305795431137085,
				0.4168611168861389,
				0.5355508923530579
			],
			"min":[
				-0.29555821418762207,
				-0.26772579550743103,
				-0.29369840025901794
			],
			"type":"VEC3"
		},
		{
			"bufferView":161,
			"componentType":5126,
			"count":166,
			"type":"VEC3"
		},
		{
			"bufferView":162,
			"componentType":5126,
			"count":166,
			"type":"VEC2"
		},
		{
			"bufferView":163,
			"componentType":5123,
			"count":240,
			"type":"SCALAR"
		},
		{
			"bufferView":164,
			"componentType":5126,
			"count":128,
			"max":[
				0.2821248173713684,
				0.2555968463420868,
				0.2972515821456909
			],
			"min":[
				-0.3667972981929779,
				-0.14541170001029968,
				-0.18451638519763947
			],
			"type":"VEC3"
		},
		{
			"bufferView":165,
			"componentType":5126,
			"count":128,
			"type":"VEC3"
		},
		{
			"bufferView":166,
			"componentType":5126,
			"count":128,
			"type":"VEC2"
		},
		{
			"bufferView":167,
			"componentType":5123,
			"count":180,
			"type":"SCALAR"
		},
		{
			"bufferView":168,
			"componentType":5126,
			"count":126,
			"max":[
				0.2938603162765503,
				0.4096241295337677,
				0.4517095386981964
			],
			"min":[
				-0.42363154888153076,
				-0.273840993642807,
				-0.29000943899154663
			],
			"type":"VEC3"
		},
		{
			"bufferView":169,
			"componentType":5126,
			"count":126,
			"type":"VEC3"
		},
		{
			"bufferView":170,
			"componentType":5126,
			"count":126,
			"type":"VEC2"
		},
		{
			"bufferView":171,
			"componentType":5123,
			"count":192,
			"type":"SCALAR"
		},
		{
			"bufferView":172,
			"componentType":5126,
			"count":134,
			"max":[
				0.3976290822029114,
				0.4273107051849365,
				0.3516928255558014
			],
			"min":[
				-0.2987062931060791,
				-0.28948330879211426,
				-0.35874056816101074
			],
			"type":"VEC3"
		},
		{
			"bufferView":173,
			"componentType":5126,
			"count":134,
			"type":"VEC3"
		},
		{
			"bufferView":174,
			"componentType":5126,
			"count":134,
			"type":"VEC2"
		},
		{
			"bufferView":175,
			"componentType":5123,
			"count":204,
			"type":"SCALAR"
		},
		{
			"bufferView":176,
			"componentType":5126,
			"count":138,
			"max":[
				0.2640078663825989,
				0.20958027243614197,
				0.3093217611312866
			],
			"min":[
				-0.25963929295539856,
				-0.4514464735984802,
				-0.24611662328243256
			],
			"type":"VEC3"
		},
		{
			"bufferView":177,
			"componentType":5126,
			"count":138,
			"type":"VEC3"
		},
		{
			"bufferView":178,
			"componentType":5126,
			"count":138,
			"type":"VEC2"
		},
		{
			"bufferView":179,
			"componentType":5123,
			"count":180,
			"type":"SCALAR"
		},
		{
			"bufferView":180,
			"componentType":5126,
			"count":126,
			"max":[
				0.3168624937534332,
				0.3978038430213928,
				0.39163142442703247
			],
			"min":[
				-0.38532477617263794,
				-0.27099594473838806,
				-0.4418483376502991
			],
			"type":"VEC3"
		},
		{
			"bufferView":181,
			"componentType":5126,
			"count":126,
			"type":"VEC3"
		},
		{
			"bufferView":182,
			"componentType":5126,
			"count":126,
			"type":"VEC2"
		},
		{
			"bufferView":183,
			"componentType":5123,
			"count":186,
			"type":"SCALAR"
		},
		{
			"bufferView":184,
			"componentType":5126,
			"count":46,
			"max":[
				0.16654469072818756,
				0.1190793514251709,
				0.16936655342578888
			],
			"min":[
				-0.19979572296142578,
				-0.22378136217594147,
				-0.11959107220172882
			],
			"type":"VEC3"
		},
		{
			"bufferView":185,
			"componentType":5126,
			"count":46,
			"type":"VEC3"
		},
		{
			"bufferView":186,
			"componentType":5126,
			"count":46,
			"type":"VEC2"
		},
		{
			"bufferView":187,
			"componentType":5123,
			"count":72,
			"type":"SCALAR"
		},
		{
			"bufferView":188,
			"componentType":5126,
			"count":38,
			"max":[
				0.1950877457857132,
				0.1270432472229004,
				0.17652560770511627
			],
			"min":[
				-0.14310221374034882,
				-0.18331703543663025,
				-0.13241878151893616
			],
			"type":"VEC3"
		},
		{
			"bufferView":189,
			"componentType":5126,
			"count":38,
			"type":"VEC3"
		},
		{
			"bufferView":190,
			"componentType":5126,
			"count":38,
			"type":"VEC2"
		},
		{
			"bufferView":191,
			"componentType":5123,
			"count":60,
			"type":"SCALAR"
		},
		{
			"bufferView":192,
			"componentType":5126,
			"count":38,
			"max":[
				0.11848717927932739,
				0.1322881579399109,
				0.22280536592006683
			],
			"min":[
				-0.1808897852897644,
				-0.1542433500289917,
				-0.1852012276649475
			],
			"type":"VEC3"
		},
		{
			"bufferView":193,
			"componentType":5126,
			"count":38,
			"type":"VEC3"
		},
		{
			"bufferView":194,
			"componentType":5126,
			"count":38,
			"type":"VEC2"
		},
		{
			"bufferView":195,
			"componentType":5123,
			"count":60,
			"type":"SCALAR"
		},
		{
			"bufferView":196,
			"componentType":5126,
			"count":222,
			"max":[
				0.47836142778396606,
				0.3699377775192261,
				0.3968663215637207
			],
			"min":[
				-0.43524402379989624,
				-0.35111090540885925,
				-0.5280816555023193
			],
			"type":"VEC3"
		},
		{
			"bufferView":197,
			"componentType":5126,
			"count":222,
			"type":"VEC3"
		},
		{
			"bufferView":198,
			"componentType":5126,
			"count":222,
			"type":"VEC2"
		},
		{
			"bufferView":199,
			"componentType":5123,
			"count":288,
			"type":"SCALAR"
		}
	],
	"bufferViews":[
		{
			"buffer":0,
			"byteLength":360,
			"byteOffset":0,
			"target":34962
		},
		{
			"buffer":0,
			"byteLength":360,
			"byteOffset":360,
			"target":34962
		},
		{
			"buffer":0,
			"byteLength":240,
			"byteOffset":720,
			"target":34962
		},
		{
			"buffer":0,
			"byteLength":96,
			"byteOffset":960,
			"target":34963
		},
		{
			"buffer":0,
			"byteLength":1512,
			"byteOffset":1056,
			"target":34962
		},
		{
			"buffer":0,
			"byteLength":1512,
			"byteOffset":2568,
			"target":34962
		},
		{
			"buffer":0,
			"byteLength":1008,
			"byteOffset":4080,
			"target":34962
		},
		{
			"buffer":0,
			"byteLength":384,
			"byteOffset":5088,
			"target":34963
		},
		{
			"buffer":0,
			"byteLength":1464,
			"byteOffset":5472,
			"target":34962
		},
		{
			"buffer":0,
			"byteLength":1464,
			"byteOffset":6936,
			"target":34962
		},
		{
			"buffer":0,
			"byteLength":976,
			"byteOffset":8400,
			"target":34962
		},
		{
			"buffer":0,
			"byteLength":384,
			"byteOffset":9376,
			"target":34963
		},
		{
			"buffer":0,
			"byteLength":1680,
			"byteOffset":9760,
			"target":34962
		},
		{
			"buffer":0,
			"byteLength":1680,
			"byteOffset":11440,
			"target":34962
		},
		{
			"buffer":0,
			"byteLength":1120,
			"byteOffset":13120,
			"target":34962
		},
		{
			"buffer":0,
			"byteLength":444,
			"byteOffset":14240,
			"target":34963
		},
		{
			"buffer":0,
			"byteLength":840,
			"byteOffset":14684,
			"target":34962
		},
		{
			"buffer":0,
			"byteLength":840,
			"byteOffset":15524,
			"target":34962
		},
		{
			"buffer":0,
			"byteLength":560,
			"byteOffset":16364,
			"target":34962
		},
		{
			"buffer":0,
			"byteLength":216,
			"byteOffset":16924,
			"target":34963
		},
		{
			"buffer":0,
			"byteLength":1128,
			"byteOffset":17140,
			"target":34962
		},
		{
			"buffer":0,
			"byteLength":1128,
			"byteOffset":18268,
			"target":34962
		},
		{
			"buffer":0,
			"byteLength":752,
			"byteOffset":19396,
			"target":34962
		},
		{
			"buffer":0,
			"byteLength":288,
			"byteOffset":20148,
			"target":34963
		},
		{
			"buffer":0,
			"byteLength":1008,
			"byteOffset":20436,
			"target":34962
		},
		{
			"buffer":0,
			"byteLength":1008,
			"byteOffset":21444,
			"target":34962
		},
		{
			"buffer":0,
			"byteLength":672,
			"byteOffset":22452,
			"target":34962
		},
		{
			"buffer":0,
			"byteLength":264,
			"byteOffset":23124,
			"target":34963
		},
		{
			"buffer":0,
			"byteLength":1008,
			"byteOffset":23388,
			"target":34962
		},
		{
			"buffer":0,
			"byteLength":1008,
			"byteOffset":24396,
			"target":34962
		},
		{
			"buffer":0,
			"byteLength":672,
			"byteOffset":25404,
			"target":34962
		},
		{
			"buffer":0,
			"byteLength":264,
			"byteOffset":26076,
			"target":34963
		},
		{
			"buffer":0,
			"byteLength":1152,
			"byteOffset":26340,
			"target":34962
		},
		{
			"buffer":0,
			"byteLength":1152,
			"byteOffset":27492,
			"target":34962
		},
		{
			"buffer":0,
			"byteLength":768,
			"byteOffset":28644,
			"target":34962
		},
		{
			"buffer":0,
			"byteLength":312,
			"byteOffset":29412,
			"target":34963
		},
		{
			"buffer":0,
			"byteLength":1224,
			"byteOffset":29724,
			"target":34962
		},
		{
			"buffer":0,
			"byteLength":1224,
			"byteOffset":30948,
			"target":34962
		},
		{
			"buffer":0,
			"byteLength":816,
			"byteOffset":32172,
			"target":34962
		},
		{
			"buffer":0,
			"byteLength":312,
			"byteOffset":32988,
			"target":34963
		},
		{
			"buffer":0,
			"byteLength":888,
			"byteOffset":33300,
			"target":34962
		},
		{
			"buffer":0,
			"byteLength":888,
			"byteOffset":34188,
			"target":34962
		},
		{
			"buffer":0,
			"byteLength":592,
			"byteOffset":35076,
			"target":34962
		},
		{
			"buffer":0,
			"byteLength":240,
			"byteOffset":35668,
			"target":34963
		},
		{
			"buffer":0,
			"byteLength":1032,
			"byteOffset":35908,
			"target":34962
		},
		{
			"buffer":0,
			"byteLength":1032,
			"byteOffset":36940,
			"target":34962
		},
		{
			"buffer":0,
			"byteLength":688,
			"byteOffset":37972,
			"target":34962
		},
		{
			"buffer":0,
			"byteLength":276,
			"byteOffset":38660,
			"target":34963
		},
		{
			"buffer":0,
			"byteLength":1128,
			"byteOffset":38936,
			"target":34962
		},
		{
			"buffer":0,
			"byteLength":1128,
			"byteOffset":40064,
			"target":34962
		},
		{
			"buffer":0,
			"byteLength":752,
			"byteOffset":41192,
			"target":34962
		},
		{
			"buffer":0,
			"byteLength":276,
			"byteOffset":41944,
			"target":34963
		},
		{
			"buffer":0,
			"byteLength":936,
			"byteOffset":42220,
			"target":34962
		},
		{
			"buffer":0,
			"byteLength":936,
			"byteOffset":43156,
			"target":34962
		},
		{
			"buffer":0,
			"byteLength":624,
			"byteOffset":44092,
			"target":34962
		},
		{
			"buffer":0,
			"byteLength":240,
			"byteOffset":44716,
			"target":34963
		},
		{
			"buffer":0,
			"byteLength":792,
			"byteOffset":44956,
			"target":34962
		},
		{
			"buffer":0,
			"byteLength":792,
			"byteOffset":45748,
			"target":34962
		},
		{
			"buffer":0,
			"byteLength":528,
			"byteOffset":46540,
			"target":34962
		},
		{
			"buffer":0,
			"byteLength":216,
			"byteOffset":47068,
			"target":34963
		},
		{
			"buffer":0,
			"byteLength":1584,
			"byteOffset":47284,
			"target":34962
		},
		{
			"buffer":0,
			"byteLength":1584,
			"byteOffset":48868,
			"target":34962
		},
		{
			"buffer":0,
			"byteLength":1056,
			"byteOffset":50452,
			"target":34962
		},
		{
			"buffer":0,
			"byteLength":360,
			"byteOffset":51508,
			"target":34963
		},
		{
			"buffer":0,
			"byteLength":1128,
			"byteOffset":51868,
			"target":34962
		},
		{
			"buffer":0,
			"byteLength":1128,
			"byteOffset":52996,
			"target":34962
		},
		{
			"buffer":0,
			"byteLength":752,
			"byteOffset":54124,
			"target":34962
		},
		{
			"buffer":0,
			"byteLength":288,
			"byteOffset":54876,
			"target":34963
		},
		{
			"buffer":0,
			"byteLength":1824,
			"byteOffset":55164,
			"target":34962
		},
		{
			"buffer":0,
			"byteLength":1824,
			"byteOffset":56988,
			"target":34962
		},
		{
			"buffer":0,
			"byteLength":1216,
			"byteOffset":58812,
			"target":34962
		},
		{
			"buffer":0,
			"byteLength":420,
			"byteOffset":60028,
			"target":34963
		},
		{
			"buffer":0,
			"byteLength":1680,
			"byteOffset":60448,
			"target":34962
		},
		{
			"buffer":0,
			"byteLength":1680,
			"byteOffset":62128,
			"target":34962
		},
		{
			"buffer":0,
			"byteLength":1120,
			"byteOffset":63808,
			"target":34962
		},
		{
			"buffer":0,
			"byteLength":408,
			"byteOffset":64928,
			"target":34963
		},
		{
			"buffer":0,
			"byteLength":1488,
			"byteOffset":65336,
			"target":34962
		},
		{
			"buffer":0,
			"byteLength":1488,
			"byteOffset":66824,
			"target":34962
		},
		{
			"buffer":0,
			"byteLength":992,
			"byteOffset":68312,
			"target":34962
		},
		{
			"buffer":0,
			"byteLength":360,
			"byteOffset":69304,
			"target":34963
		},
		{
			"buffer":0,
			"byteLength":912,
			"byteOffset":69664,
			"target":34962
		},
		{
			"buffer":0,
			"byteLength":912,
			"byteOffset":70576,
			"target":34962
		},
		{
			"buffer":0,
			"byteLength":608,
			"byteOffset":71488,
			"target":34962
		},
		{
			"buffer":0,
			"byteLength":240,
			"byteOffset":72096,
			"target":34963
		},
		{
			"buffer":0,
			"byteLength":624,
			"byteOffset":72336,
			"target":34962
		},
		{
			"buffer":0,
			"byteLength":624,
			"byteOffset":72960,
			"target":34962
		},
		{
			"buffer":0,
			"byteLength":416,
			"byteOffset":73584,
			"target":34962
		},
		{
			"buffer":0,
			"byteLength":168,
			"byteOffset":74000,
			"target":34963
		},
		{
			"buffer":0,
			"byteLength":1536,
			"byteOffset":74168,
			"target":34962
		},
		{
			"buffer":0,
			"byteLength":1536,
			"byteOffset":75704,
			"target":34962
		},
		{
			"buffer":0,
			"byteLength":1024,
			"byteOffset":77240,
			"target":34962
		},
		{
			"buffer":0,
			"byteLength":348,
			"byteOffset":78264,
			"target":34963
		},
		{
			"buffer":0,
			"byteLength":1080,
			"byteOffset":78612,
			"target":34962
		},
		{
			"buffer":0,
			"byteLength":1080,
			"byteOffset":79692,
			"target":34962
		},
		{
			"buffer":0,
			"byteLength":720,
			"byteOffset":80772,
			"target":34962
		},
		{
			"buffer":0,
			"byteLength":288,
			"byteOffset":81492,
			"target":34963
		},
		{
			"buffer":0,
			"byteLength":1824,
			"byteOffset":81780,
			"target":34962
		},
		{
			"buffer":0,
			"byteLength":1824,
			"byteOffset":83604,
			"target":34962
		},
		{
			"buffer":0,
			"byteLength":1216,
			"byteOffset":85428,
			"target":34962
		},
		{
			"buffer":0,
			"byteLength":420,
			"byteOffset":86644,
			"target":34963
		},
		{
			"buffer":0,
			"byteLength":888,
			"byteOffset":87064,
			"target":34962
		},
		{
			"buffer":0,
			"byteLength":888,
			"byteOffset":87952,
			"target":34962
		},
		{
			"buffer":0,
			"byteLength":592,
			"byteOffset":88840,
			"target":34962
		},
		{
			"buffer":0,
			"byteLength":240,
			"byteOffset":89432,
			"target":34963
		},
		{
			"buffer":0,
			"byteLength":792,
			"byteOffset":89672,
			"target":34962
		},
		{
			"buffer":0,
			"byteLength":792,
			"byteOffset":90464,
			"target":34962
		},
		{
			"buffer":0,
			"byteLength":528,
			"byteOffset":91256,
			"target":34962
		},
		{
			"buffer":0,
			"byteLength":216,
			"byteOffset":91784,
			"target":34963
		},
		{
			"buffer":0,
			"byteLength":1224,
			"byteOffset":92000,
			"target":34962
		},
		{
			"buffer":0,
			"byteLength":1224,
			"byteOffset":93224,
			"target":34962
		},
		{
			"buffer":0,
			"byteLength":816,
			"byteOffset":94448,
			"target":34962
		},
		{
			"buffer":0,
			"byteLength":300,
			"byteOffset":95264,
			"target":34963
		},
		{
			"buffer":0,
			"byteLength":816,
			"byteOffset":95564,
			"target":34962
		},
		{
			"buffer":0,
			"byteLength":816,
			"byteOffset":96380,
			"target":34962
		},
		{
			"buffer":0,
			"byteLength":544,
			"byteOffset":97196,
			"target":34962
		},
		{
			"buffer":0,
			"byteLength":240,
			"byteOffset":97740,
			"target":34963
		},
		{
			"buffer":0,
			"byteLength":1080,
			"byteOffset":97980,
			"target":34962
		},
		{
			"buffer":0,
			"byteLength":1080,
			"byteOffset":99060,
			"target":34962
		},
		{
			"buffer":0,
			"byteLength":720,
			"byteOffset":100140,
			"target":34962
		},
		{
			"buffer":0,
			"byteLength":288,
			"byteOffset":100860,
			"target":34963
		},
		{
			"buffer":0,
			"byteLength":1104,
			"byteOffset":101148,
			"target":34962
		},
		{
			"buffer":0,
			"byteLength":1104,
			"byteOffset":102252,
			"target":34962
		},
		{
			"buffer":0,
			"byteLength":736,
			"byteOffset":103356,
			"target":34962
		},
		{
			"buffer":0,
			"byteLength":288,
			"byteOffset":104092,
			"target":34963
		},
		{
			"buffer":0,
			"byteLength":1056,
			"byteOffset":104380,
			"target":34962
		},
		{
			"buffer":0,
			"byteLength":1056,
			"byteOffset":105436,
			"target":34962
		},
		{
			"buffer":0,
			"byteLength":704,
			"byteOffset":106492,
			"target":34962
		},
		{
			"buffer":0,
			"byteLength":264,
			"byteOffset":107196,
			"target":34963
		},
		{
			"buffer":0,
			"byteLength":1104,
			"byteOffset":107460,
			"target":34962
		},
		{
			"buffer":0,
			"byteLength":1104,
			"byteOffset":108564,
			"target":34962
		},
		{
			"buffer":0,
			"byteLength":736,
			"byteOffset":109668,
			"target":34962
		},
		{
			"buffer":0,
			"byteLength":288,
			"byteOffset":110404,
			"target":34963
		},
		{
			"buffer":0,
			"byteLength":1464,
			"byteOffset":110692,
			"target":34962
		},
		{
			"buffer":0,
			"byteLength":1464,
			"byteOffset":112156,
			"target":34962
		},
		{
			"buffer":0,
			"byteLength":976,
			"byteOffset":113620,
			"target":34962
		},
		{
			"buffer":0,
			"byteLength":360,
			"byteOffset":114596,
			"target":34963
		},
		{
			"buffer":0,
			"byteLength":1248,
			"byteOffset":114956,
			"target":34962
		},
		{
			"buffer":0,
			"byteLength":1248,
			"byteOffset":116204,
			"target":34962
		},
		{
			"buffer":0,
			"byteLength":832,
			"byteOffset":117452,
			"target":34962
		},
		{
			"buffer":0,
			"byteLength":312,
			"byteOffset":118284,
			"target":34963
		},
		{
			"buffer":0,
			"byteLength":1512,
			"byteOffset":118596,
			"target":34962
		},
		{
			"buffer":0,
			"byteLength":1512,
			"byteOffset":120108,
			"target":34962
		},
		{
			"buffer":0,
			"byteLength":1008,
			"byteOffset":121620,
			"target":34962
		},
		{
			"buffer":0,
			"byteLength":360,
			"byteOffset":122628,
			"target":34963
		},
		{
			"buffer":0,
			"byteLength":924,
			"byteOffset":122988,
			"target":34962
		},
		{
			"buffer":0,
			"byteLength":924,
			"byteOffset":123912,
			"target":34962
		},
		{
			"buffer":0,
			"byteLength":616,
			"byteOffset":124836,
			"target":34962
		},
		{
			"buffer":0,
			"byteLength":240,
			"byteOffset":125452,
			"target":34963
		},
		{
			"buffer":0,
			"byteLength":960,
			"byteOffset":125692,
			"target":34962
		},
		{
			"buffer":0,
			"byteLength":960,
			"byteOffset":126652,
			"target":34962
		},
		{
			"buffer":0,
			"byteLength":640,
			"byteOffset":127612,
			"target":34962
		},
		{
			"buffer":0,
			"byteLength":252,
			"byteOffset":128252,
			"target":34963
		},
		{
			"buffer":0,
			"byteLength":1608,
			"byteOffset":128504,
			"target":34962
		},
		{
			"buffer":0,
			"byteLength":1608,
			"byteOffset":130112,
			"target":34962
		},
		{
			"buffer":0,
			"byteLength":1072,
			"byteOffset":131720,
			"target":34962
		},
		{
			"buffer":0,
			"byteLength":384,
			"byteOffset":132792,
			"target":34963
		},
		{
			"buffer":0,
			"byteLength":1488,
			"byteOffset":133176,
			"target":34962
		},
		{
			"buffer":0,
			"byteLength":1488,
			"byteOffset":134664,
			"target":34962
		},
		{
			"buffer":0,
			"byteLength":992,
			"byteOffset":136152,
			"target":34962
		},
		{
			"buffer":0,
			"byteLength":384,
			"byteOffset":137144,
			"target":34963
		},
		{
			"buffer":0,
			"byteLength":1992,
			"byteOffset":137528,
			"target":34962
		},
		{
			"buffer":0,
			"byteLength":1992,
			"byteOffset":139520,
			"target":34962
		},
		{
			"buffer":0,
			"byteLength":1328,
			"byteOffset":141512,
			"target":34962
		},
		{
			"buffer":0,
			"byteLength":480,
			"byteOffset":142840,
			"target":34963
		},
		{
			"buffer":0,
			"byteLength":1536,
			"byteOffset":143320,
			"target":34962
		},
		{
			"buffer":0,
			"byteLength":1536,
			"byteOffset":144856,
			"target":34962
		},
		{
			"buffer":0,
			"byteLength":1024,
			"byteOffset":146392,
			"target":34962
		},
		{
			"buffer":0,
			"byteLength":360,
			"byteOffset":147416,
			"target":34963
		},
		{
			"buffer":0,
			"byteLength":1512,
			"byteOffset":147776,
			"target":34962
		},
		{
			"buffer":0,
			"byteLength":1512,
			"byteOffset":149288,
			"target":34962
		},
		{
			"buffer":0,
			"byteLength":1008,
			"byteOffset":150800,
			"target":34962
		},
		{
			"buffer":0,
			"byteLength":384,
			"byteOffset":151808,
			"target":34963
		},
		{
			"buffer":0,
			"byteLength":1608,
			"byteOffset":152192,
			"target":34962
		},
		{
			"buffer":0,
			"byteLength":1608,
			"byteOffset":153800,
			"target":34962
		},
		{
			"buffer":0,
			"byteLength":1072,
			"byteOffset":155408,
			"target":34962
		},
		{
			"buffer":0,
			"byteLength":408,
			"byteOffset":156480,
			"target":34963
		},
		{
			"buffer":0,
			"byteLength":1656,
			"byteOffset":156888,
			"target":34962
		},
		{
			"buffer":0,
			"byteLength":1656,
			"byteOffset":158544,
			"target":34962
		},
		{
			"buffer":0,
			"byteLength":1104,
			"byteOffset":160200,
			"target":34962
		},
		{
			"buffer":0,
			"byteLength":360,
			"byteOffset":161304,
			"target":34963
		},
		{
			"buffer":0,
			"byteLength":1512,
			"byteOffset":161664,
			"target":34962
		},
		{
			"buffer":0,
			"byteLength":1512,
			"byteOffset":163176,
			"target":34962
		},
		{
			"buffer":0,
			"byteLength":1008,
			"byteOffset":164688,
			"target":34962
		},
		{
			"buffer":0,
			"byteLength":372,
			"byteOffset":165696,
			"target":34963
		},
		{
			"buffer":0,
			"byteLength":552,
			"byteOffset":166068,
			"target":34962
		},
		{
			"buffer":0,
			"byteLength":552,
			"byteOffset":166620,
			"target":34962
		},
		{
			"buffer":0,
			"byteLength":368,
			"byteOffset":167172,
			"target":34962
		},
		{
			"buffer":0,
			"byteLength":144,
			"byteOffset":167540,
			"target":34963
		},
		{
			"buffer":0,
			"byteLength":456,
			"byteOffset":167684,
			"target":34962
		},
		{
			"buffer":0,
			"byteLength":456,
			"byteOffset":168140,
			"target":34962
		},
		{
			"buffer":0,
			"byteLength":304,
			"byteOffset":168596,
			"target":34962
		},
		{
			"buffer":0,
			"byteLength":120,
			"byteOffset":168900,
			"target":34963
		},
		{
			"buffer":0,
			"byteLength":456,
			"byteOffset":169020,
			"target":34962
		},
		{
			"buffer":0,
			"byteLength":456,
			"byteOffset":169476,
			"target":34962
		},
		{
			"buffer":0,
			"byteLength":304,
			"byteOffset":169932,
			"target":34962
		},
		{
			"buffer":0,
			"byteLength":120,
			"byteOffset":170236,
			"target":34963
		},
		{
			"buffer":0,
			"byteLength":2664,
			"byteOffset":170356,
			"target":34962
		},
		{
			"buffer":0,
			"byteLength":2664,
			"byteOffset":173020,
			"target":34962
		},
		{
			"buffer":0,
			"byteLength":1776,
			"byteOffset":175684,
			"target":34962
		},
		{
			"buffer":0,
			"byteLength":576,
			"byteOffset":177460,
			"target":34963
		}
	],
	"buffers":[
		{
			"byteLength":178036,
			"uri":"iceFallFracture.bin"
		}
	]
}
