# Blender 5.2.1 LTS
# www.blender.org
mtllib playStartLogo7.mtl
o Text.001
v 0.093612 0.250000 -0.229906
v -0.341531 0.250000 -0.229906
v -0.336931 0.250000 -0.284183
v 0.327282 0.250000 -0.284183
v 0.322682 0.250000 -0.229906
v 0.332802 0.250000 -0.229906
v -0.048983 0.250000 0.148199
v 0.376960 0.250000 0.166598
v 0.372360 0.250000 0.220876
v -0.284493 0.250000 0.192357
v -0.279893 0.250000 0.138080
v 0.468957 0.250000 -0.320062
v 0.460677 0.250000 -0.229906
v 0.421118 0.250000 -0.229906
v 0.429398 0.250000 -0.320062
v 0.400879 0.250000 -0.320062
v 0.392600 0.250000 -0.229906
v 0.353041 0.250000 -0.229906
v 0.360401 0.250000 -0.320062
v 0.093612 -0.250000 -0.229906
v -0.341531 -0.250000 -0.229906
v -0.336931 -0.250000 -0.284183
v 0.327282 -0.250000 -0.284183
v 0.322682 -0.250000 -0.229906
v 0.332802 -0.250000 -0.229906
v -0.048983 -0.250000 0.148199
v 0.376960 -0.250000 0.166598
v 0.372360 -0.250000 0.220876
v -0.284493 -0.250000 0.192357
v -0.279893 -0.250000 0.138080
v 0.468957 -0.250000 -0.320062
v 0.460677 -0.250000 -0.229906
v 0.421118 -0.250000 -0.229906
v 0.429398 -0.250000 -0.320062
v 0.400879 -0.250000 -0.320062
v 0.392600 -0.250000 -0.229906
v 0.353041 -0.250000 -0.229906
v 0.360401 -0.250000 -0.320062
v 0.093612 -0.250000 -0.229906
v 0.093612 0.250000 -0.229906
v -0.341531 -0.250000 -0.229906
v -0.341531 0.250000 -0.229906
v -0.336931 -0.250000 -0.284183
v -0.336931 0.250000 -0.284183
v 0.327282 -0.250000 -0.284183
v 0.327282 0.250000 -0.284183
v 0.322682 -0.250000 -0.229906
v 0.322682 0.250000 -0.229906
v 0.332802 -0.250000 -0.229906
v 0.332802 0.250000 -0.229906
v -0.048983 -0.250000 0.148199
v -0.048983 0.250000 0.148199
v 0.376960 -0.250000 0.166598
v 0.376960 0.250000 0.166598
v 0.372360 -0.250000 0.220876
v 0.372360 0.250000 0.220876
v -0.284493 -0.250000 0.192357
v -0.284493 0.250000 0.192357
v -0.279893 -0.250000 0.138080
v -0.279893 0.250000 0.138080
v 0.468957 -0.250000 -0.320062
v 0.468957 0.250000 -0.320062
v 0.460677 -0.250000 -0.229906
v 0.460677 0.250000 -0.229906
v 0.421118 -0.250000 -0.229906
v 0.421118 0.250000 -0.229906
v 0.429398 -0.250000 -0.320062
v 0.429398 0.250000 -0.320062
v 0.400879 -0.250000 -0.320062
v 0.400879 0.250000 -0.320062
v 0.392600 -0.250000 -0.229906
v 0.392600 0.250000 -0.229906
v 0.353041 -0.250000 -0.229906
v 0.353041 0.250000 -0.229906
v 0.360401 -0.250000 -0.320062
v 0.360401 0.250000 -0.320062
vn -0.0000 1.0000 -0.0000
vn -0.0000 -1.0000 -0.0000
vn -0.7363 -0.0000 0.6766
vn -0.9253 -0.0000 0.3793
vn -0.9253 -0.0000 0.3792
vn -0.6766 -0.0000 -0.7364
vn -0.7364 -0.0000 0.6766
vn 0.7363 -0.0000 -0.6766
vn 0.7364 -0.0000 -0.6766
vn 0.9248 -0.0000 -0.3805
vn 0.9328 -0.0000 -0.3603
vn 0.9248 -0.0000 -0.3804
vn 0.7508 -0.0000 -0.6606
vn 0.9328 -0.0000 -0.3604
vn 0.6605 -0.0000 0.7509
vn 0.7508 -0.0000 -0.6605
vn -0.7508 -0.0000 0.6605
vn 0.6604 -0.0000 0.7509
vn -0.9053 -0.0000 -0.4248
vn -0.7509 -0.0000 0.6605
vn 0.6740 -0.0000 0.7387
vn 0.7387 -0.0000 -0.6740
vn -0.7387 -0.0000 0.6740
vn -0.6740 -0.0000 -0.7387
vn -0.7353 -0.0000 0.6777
vn -0.6777 -0.0000 -0.7353
vt 0.222222 0.000000
vt 0.166667 0.000000
vt 0.000000 0.000000
vt 0.555556 0.000000
vt 0.500000 0.000000
vt 0.333333 0.000000
vt 0.111111 0.000000
vt 0.055556 0.000000
vt 0.777778 0.000000
vt 0.666667 0.000000
vt 0.611111 0.000000
vt 0.722222 0.000000
vt 1.000000 0.000000
vt 0.888889 0.000000
vt 0.833333 0.000000
vt 0.444444 0.000000
vt 0.388889 0.000000
vt 0.944444 0.000000
vt 0.277778 0.000000
vt 0.090909 1.000000
vt 0.000000 1.000000
vt 0.181818 1.000000
vt 0.090909 0.000000
vt 0.272727 1.000000
vt 0.181818 0.000000
vt 0.363636 1.000000
vt 0.272727 0.000000
vt 0.454545 1.000000
vt 0.363636 0.000000
vt 0.545455 1.000000
vt 0.454545 0.000000
vt 0.636364 1.000000
vt 0.545455 0.000000
vt 0.727273 1.000000
vt 0.636364 0.000000
vt 0.818182 1.000000
vt 0.727273 0.000000
vt 0.909091 1.000000
vt 0.818182 0.000000
vt 1.000000 1.000000
vt 0.909091 0.000000
vt 0.250000 1.000000
vt 0.500000 1.000000
vt 0.250000 0.000000
vt 0.750000 1.000000
vt 0.750000 0.000000
s 0
usemtl Material.006
f 5/1/1 4/2/1 1/3/1
f 11/4/1 10/5/1 7/6/1
f 7/6/1 1/3/1 11/4/1
f 3/7/1 2/8/1 1/3/1
f 15/9/1 13/10/1 12/11/1
f 13/10/1 15/9/1 14/12/1
f 19/13/1 17/14/1 16/15/1
f 7/6/1 10/5/1 9/16/1
f 9/16/1 8/17/1 7/6/1
f 1/3/1 7/6/1 5/1/1
f 18/18/1 17/14/1 19/13/1
f 1/3/1 4/2/1 3/7/1
f 6/19/1 5/1/1 7/6/1
f 24/1/2 20/3/2 23/2/2
f 30/4/2 26/6/2 29/5/2
f 26/6/2 30/4/2 20/3/2
f 22/7/2 20/3/2 21/8/2
f 34/9/2 31/11/2 32/10/2
f 32/10/2 33/12/2 34/9/2
f 38/13/2 35/15/2 36/14/2
f 26/6/2 28/16/2 29/5/2
f 28/16/2 26/6/2 27/17/2
f 20/3/2 24/1/2 26/6/2
f 37/18/2 38/13/2 36/14/2
f 20/3/2 22/7/2 23/2/2
f 25/19/2 26/6/2 24/1/2
s 1
f 42/20/3 39/3/4 40/21/5
f 44/22/6 41/23/7 42/20/3
f 46/24/8 43/25/6 44/22/6
f 48/26/9 45/27/9 46/24/8
f 50/28/10 47/29/9 48/26/9
f 52/30/11 49/31/12 50/28/10
f 54/32/13 51/33/14 52/30/11
f 56/34/15 53/35/16 54/32/13
f 58/36/17 55/37/18 56/34/15
f 60/38/19 57/39/20 58/36/17
f 40/40/5 59/41/19 60/38/19
f 64/42/21 61/3/22 62/21/22
f 66/43/23 63/44/21 64/42/21
f 68/45/24 65/5/23 66/43/23
f 62/40/22 67/46/24 68/45/24
f 72/42/21 69/3/22 70/21/22
f 74/43/25 71/44/21 72/42/21
f 76/45/26 73/5/25 74/43/25
f 70/40/22 75/46/26 76/45/26
f 42/20/3 41/23/7 39/3/4
f 44/22/6 43/25/6 41/23/7
f 46/24/8 45/27/9 43/25/6
f 48/26/9 47/29/9 45/27/9
f 50/28/10 49/31/12 47/29/9
f 52/30/11 51/33/14 49/31/12
f 54/32/13 53/35/16 51/33/14
f 56/34/15 55/37/18 53/35/16
f 58/36/17 57/39/20 55/37/18
f 60/38/19 59/41/19 57/39/20
f 40/40/5 39/13/4 59/41/19
f 64/42/21 63/44/21 61/3/22
f 66/43/23 65/5/23 63/44/21
f 68/45/24 67/46/24 65/5/23
f 62/40/22 61/13/22 67/46/24
f 72/42/21 71/44/21 69/3/22
f 74/43/25 73/5/25 71/44/21
f 76/45/26 75/46/26 73/5/25
f 70/40/22 69/13/22 75/46/26
