# Blender 5.2.1 LTS
# www.blender.org
mtllib playStartLogo2.mtl
o Text.001
v -0.293693 0.250000 -0.232666
v -0.354410 0.250000 -0.232666
v -0.261494 0.250000 -0.331102
v -0.084861 0.250000 -0.331102
v -0.115220 0.250000 -0.298903
v -0.111540 0.250000 -0.298903
v 0.024614 0.250000 -0.298903
v 0.028294 0.250000 -0.298903
v 0.054053 0.250000 -0.331102
v 0.230686 0.250000 -0.331102
v 0.204927 0.250000 -0.298903
v 0.456077 0.250000 -0.298903
v 0.451477 0.250000 -0.247385
v 0.196647 0.250000 -0.247385
v 0.194808 0.250000 -0.221626
v 0.410999 0.250000 -0.221626
v 0.406399 0.250000 -0.170108
v 0.190208 0.250000 -0.170108
v 0.187448 0.250000 -0.139749
v 0.403639 0.250000 -0.139749
v 0.399039 0.250000 -0.088231
v 0.182848 0.250000 -0.088231
v 0.180088 0.250000 -0.062472
v 0.434918 0.250000 -0.062472
v 0.430318 0.250000 -0.007275
v 0.175488 0.250000 -0.007275
v 0.124890 0.250000 -0.007275
v 0.122130 0.250000 0.022164
v 0.445957 0.250000 0.022164
v 0.441358 0.250000 0.077362
v 0.120291 0.250000 0.077362
v 0.434918 0.250000 0.143599
v 0.428478 0.250000 0.220876
v 0.111091 0.250000 0.153719
v 0.105571 0.250000 0.220876
v -0.071062 0.250000 0.220876
v -0.065542 0.250000 0.153719
v -0.392129 0.250000 0.220876
v -0.385689 0.250000 0.143599
v -0.064622 0.250000 0.077362
v -0.382929 0.250000 0.077362
v -0.378329 0.250000 0.022164
v -0.054502 0.250000 0.022164
v -0.051743 0.250000 -0.007275
v -0.137299 0.250000 -0.007275
v -0.309332 0.250000 -0.007275
v -0.313932 0.250000 -0.007275
v -0.116140 0.250000 -0.247385
v -0.117980 0.250000 -0.221626
v 0.018175 0.250000 -0.221626
v 0.020015 0.250000 -0.247385
v -0.122580 0.250000 -0.170108
v -0.125340 0.250000 -0.139749
v 0.010815 0.250000 -0.139749
v 0.013575 0.250000 -0.170108
v -0.129939 0.250000 -0.088231
v -0.132699 0.250000 -0.062472
v 0.003455 0.250000 -0.062472
v 0.006215 0.250000 -0.088231
v -0.293693 -0.250000 -0.232666
v -0.354410 -0.250000 -0.232666
v -0.261494 -0.250000 -0.331102
v -0.084861 -0.250000 -0.331102
v -0.115220 -0.250000 -0.298903
v -0.111540 -0.250000 -0.298903
v 0.024614 -0.250000 -0.298903
v 0.028294 -0.250000 -0.298903
v 0.054053 -0.250000 -0.331102
v 0.230686 -0.250000 -0.331102
v 0.204927 -0.250000 -0.298903
v 0.456077 -0.250000 -0.298903
v 0.451477 -0.250000 -0.247385
v 0.196647 -0.250000 -0.247385
v 0.194808 -0.250000 -0.221626
v 0.410999 -0.250000 -0.221626
v 0.406399 -0.250000 -0.170108
v 0.190208 -0.250000 -0.170108
v 0.187448 -0.250000 -0.139749
v 0.403639 -0.250000 -0.139749
v 0.399039 -0.250000 -0.088231
v 0.182848 -0.250000 -0.088231
v 0.180088 -0.250000 -0.062472
v 0.434918 -0.250000 -0.062472
v 0.430318 -0.250000 -0.007275
v 0.175488 -0.250000 -0.007275
v 0.124890 -0.250000 -0.007275
v 0.122130 -0.250000 0.022164
v 0.445957 -0.250000 0.022164
v 0.441358 -0.250000 0.077362
v 0.120291 -0.250000 0.077362
v 0.434918 -0.250000 0.143599
v 0.428478 -0.250000 0.220876
v 0.111091 -0.250000 0.153719
v 0.105571 -0.250000 0.220876
v -0.071062 -0.250000 0.220876
v -0.065542 -0.250000 0.153719
v -0.392129 -0.250000 0.220876
v -0.385689 -0.250000 0.143599
v -0.064622 -0.250000 0.077362
v -0.382929 -0.250000 0.077362
v -0.378329 -0.250000 0.022164
v -0.054502 -0.250000 0.022164
v -0.051743 -0.250000 -0.007275
v -0.137299 -0.250000 -0.007275
v -0.309332 -0.250000 -0.007275
v -0.313932 -0.250000 -0.007275
v -0.116140 -0.250000 -0.247385
v -0.117980 -0.250000 -0.221626
v 0.018175 -0.250000 -0.221626
v 0.020015 -0.250000 -0.247385
v -0.122580 -0.250000 -0.170108
v -0.125340 -0.250000 -0.139749
v 0.010815 -0.250000 -0.139749
v 0.013575 -0.250000 -0.170108
v -0.129939 -0.250000 -0.088231
v -0.132699 -0.250000 -0.062472
v 0.003455 -0.250000 -0.062472
v 0.006215 -0.250000 -0.088231
v -0.293693 -0.250000 -0.232666
v -0.293693 0.250000 -0.232666
v -0.354410 -0.250000 -0.232666
v -0.354410 0.250000 -0.232666
v -0.261494 -0.250000 -0.331102
v -0.261494 0.250000 -0.331102
v -0.084861 -0.250000 -0.331102
v -0.084861 0.250000 -0.331102
v -0.115220 -0.250000 -0.298903
v -0.115220 0.250000 -0.298903
v -0.111540 -0.250000 -0.298903
v -0.111540 0.250000 -0.298903
v 0.024614 -0.250000 -0.298903
v 0.024614 0.250000 -0.298903
v 0.028294 -0.250000 -0.298903
v 0.028294 0.250000 -0.298903
v 0.054053 -0.250000 -0.331102
v 0.054053 0.250000 -0.331102
v 0.230686 -0.250000 -0.331102
v 0.230686 0.250000 -0.331102
v 0.204927 -0.250000 -0.298903
v 0.204927 0.250000 -0.298903
v 0.456077 -0.250000 -0.298903
v 0.456077 0.250000 -0.298903
v 0.451477 -0.250000 -0.247385
v 0.451477 0.250000 -0.247385
v 0.196647 -0.250000 -0.247385
v 0.196647 0.250000 -0.247385
v 0.194808 -0.250000 -0.221626
v 0.194808 0.250000 -0.221626
v 0.410999 -0.250000 -0.221626
v 0.410999 0.250000 -0.221626
v 0.406399 -0.250000 -0.170108
v 0.406399 0.250000 -0.170108
v 0.190208 -0.250000 -0.170108
v 0.190208 0.250000 -0.170108
v 0.187448 -0.250000 -0.139749
v 0.187448 0.250000 -0.139749
v 0.403639 -0.250000 -0.139749
v 0.403639 0.250000 -0.139749
v 0.399039 -0.250000 -0.088231
v 0.399039 0.250000 -0.088231
v 0.182848 -0.250000 -0.088231
v 0.182848 0.250000 -0.088231
v 0.180088 -0.250000 -0.062472
v 0.180088 0.250000 -0.062472
v 0.434918 -0.250000 -0.062472
v 0.434918 0.250000 -0.062472
v 0.430318 -0.250000 -0.007275
v 0.430318 0.250000 -0.007275
v 0.175488 -0.250000 -0.007275
v 0.175488 0.250000 -0.007275
v 0.124890 -0.250000 -0.007275
v 0.124890 0.250000 -0.007275
v 0.122130 -0.250000 0.022164
v 0.122130 0.250000 0.022164
v 0.445957 -0.250000 0.022164
v 0.445957 0.250000 0.022164
v 0.441358 -0.250000 0.077362
v 0.441358 0.250000 0.077362
v 0.120291 -0.250000 0.077362
v 0.120291 0.250000 0.077362
v 0.434918 -0.250000 0.143599
v 0.434918 0.250000 0.143599
v 0.428478 -0.250000 0.220876
v 0.428478 0.250000 0.220876
v 0.111091 -0.250000 0.153719
v 0.111091 0.250000 0.153719
v 0.105571 -0.250000 0.220876
v 0.105571 0.250000 0.220876
v -0.071062 -0.250000 0.220876
v -0.071062 0.250000 0.220876
v -0.065542 -0.250000 0.153719
v -0.065542 0.250000 0.153719
v -0.392129 -0.250000 0.220876
v -0.392129 0.250000 0.220876
v -0.385689 -0.250000 0.143599
v -0.385689 0.250000 0.143599
v -0.064622 -0.250000 0.077362
v -0.064622 0.250000 0.077362
v -0.382929 -0.250000 0.077362
v -0.382929 0.250000 0.077362
v -0.378329 -0.250000 0.022164
v -0.378329 0.250000 0.022164
v -0.054502 -0.250000 0.022164
v -0.054502 0.250000 0.022164
v -0.051743 -0.250000 -0.007275
v -0.051743 0.250000 -0.007275
v -0.137299 -0.250000 -0.007275
v -0.137299 0.250000 -0.007275
v -0.309332 -0.250000 -0.007275
v -0.309332 0.250000 -0.007275
v -0.313932 -0.250000 -0.007275
v -0.313932 0.250000 -0.007275
v -0.116140 -0.250000 -0.247385
v -0.116140 0.250000 -0.247385
v -0.117980 -0.250000 -0.221626
v -0.117980 0.250000 -0.221626
v 0.018175 -0.250000 -0.221626
v 0.018175 0.250000 -0.221626
v 0.020015 -0.250000 -0.247385
v 0.020015 0.250000 -0.247385
v -0.122580 -0.250000 -0.170108
v -0.122580 0.250000 -0.170108
v -0.125340 -0.250000 -0.139749
v -0.125340 0.250000 -0.139749
v 0.010815 -0.250000 -0.139749
v 0.010815 0.250000 -0.139749
v 0.013575 -0.250000 -0.170108
v 0.013575 0.250000 -0.170108
v -0.129939 -0.250000 -0.088231
v -0.129939 0.250000 -0.088231
v -0.132699 -0.250000 -0.062472
v -0.132699 0.250000 -0.062472
v 0.003455 -0.250000 -0.062472
v 0.003455 0.250000 -0.062472
v 0.006215 -0.250000 -0.088231
v 0.006215 0.250000 -0.088231
vn -0.0000 1.0000 -0.0000
vn -0.0000 -1.0000 -0.0000
vn -0.9183 -0.0000 0.3960
vn -0.7380 -0.0000 0.6747
vn -0.7380 -0.0000 0.6748
vn -0.3960 -0.0000 -0.9183
vn -0.9182 -0.0000 0.3960
vn 0.9182 -0.0000 -0.3962
vn -0.0000 -0.0000 -1.0000
vn -0.4332 -0.0000 -0.9013
vn 0.9013 -0.0000 -0.4331
vn 0.9013 -0.0000 -0.4332
vn 0.7379 -0.0000 -0.6749
vn 0.6749 -0.0000 0.7379
vn 0.6815 -0.0000 0.7319
vn 0.7319 -0.0000 -0.6814
vn 0.6744 -0.0000 0.7384
vn 0.7384 -0.0000 -0.6743
vn 0.6743 -0.0000 0.7384
vn 0.6684 -0.0000 0.7438
vn 0.7438 -0.0000 -0.6684
vn 0.7359 -0.0000 -0.6771
vn 0.6771 -0.0000 0.7359
vn -0.0000 -0.0000 1.0000
vn 0.6733 -0.0000 0.7394
vn 0.7394 -0.0000 -0.6733
vn 0.9946 -0.0000 0.1036
vn 0.8020 -0.0000 -0.5973
vn 0.9946 -0.0000 0.1035
vn 0.5968 -0.0000 0.8024
vn 0.5973 -0.0000 0.8020
vn 0.6775 -0.0000 0.7355
vn -0.7355 -0.0000 0.6775
vn -0.6631 -0.0000 0.7485
vn -0.6636 -0.0000 0.7481
vn -0.7483 -0.0000 -0.6633
vn -0.9948 -0.0000 0.1015
vn -0.7359 -0.0000 0.6771
vn -0.9948 -0.0000 0.1016
vn -0.6771 -0.0000 -0.7359
vn -0.6733 -0.0000 -0.7394
vn -0.7394 -0.0000 0.6733
vn 0.6815 -0.0000 0.7318
vn -0.6815 -0.0000 -0.7318
vn -0.7319 -0.0000 0.6814
vn -0.6815 -0.0000 -0.7319
vn -0.6744 -0.0000 -0.7384
vn -0.7384 -0.0000 0.6743
vn -0.6743 -0.0000 -0.7384
vn -0.6684 -0.0000 -0.7438
vn -0.7438 -0.0000 0.6684
vt 0.706897 0.000000
vt 0.689655 0.000000
vt 0.672414 0.000000
vt 0.948276 0.000000
vt 0.896552 0.000000
vt 0.000000 0.000000
vt 0.879310 0.000000
vt 0.758621 0.000000
vt 0.965517 0.000000
vt 0.775862 0.000000
vt 0.793103 0.000000
vt 0.034483 0.000000
vt 0.017241 0.000000
vt 0.068966 0.000000
vt 0.810345 0.000000
vt 0.086207 0.000000
vt 0.982759 0.000000
vt 0.741379 0.000000
vt 0.724138 0.000000
vt 0.931035 0.000000
vt 0.844828 0.000000
vt 0.827586 0.000000
vt 0.655172 0.000000
vt 0.637931 0.000000
vt 0.620690 0.000000
vt 1.000000 0.000000
vt 0.913793 0.000000
vt 0.051724 0.000000
vt 0.103448 0.000000
vt 0.862069 0.000000
vt 0.120690 0.000000
vt 0.431034 0.000000
vt 0.379310 0.000000
vt 0.448276 0.000000
vt 0.362069 0.000000
vt 0.206897 0.000000
vt 0.189655 0.000000
vt 0.172414 0.000000
vt 0.551724 0.000000
vt 0.534483 0.000000
vt 0.568965 0.000000
vt 0.517241 0.000000
vt 0.413793 0.000000
vt 0.310345 0.000000
vt 0.344828 0.000000
vt 0.327586 0.000000
vt 0.241379 0.000000
vt 0.293103 0.000000
vt 0.275862 0.000000
vt 0.258621 0.000000
vt 0.224138 0.000000
vt 0.137931 0.000000
vt 0.155172 0.000000
vt 0.603448 0.000000
vt 0.586207 0.000000
vt 0.465517 0.000000
vt 0.396552 0.000000
vt 0.500000 0.000000
vt 0.482759 0.000000
vt 0.021277 1.000000
vt 0.000000 1.000000
vt 0.042553 1.000000
vt 0.021277 0.000000
vt 0.063830 1.000000
vt 0.042553 0.000000
vt 0.085106 1.000000
vt 0.063830 0.000000
vt 0.106383 1.000000
vt 0.085106 0.000000
vt 0.127660 1.000000
vt 0.106383 0.000000
vt 0.148936 1.000000
vt 0.127660 0.000000
vt 0.170213 1.000000
vt 0.148936 0.000000
vt 0.191489 1.000000
vt 0.170213 0.000000
vt 0.212766 1.000000
vt 0.191489 0.000000
vt 0.234043 1.000000
vt 0.212766 0.000000
vt 0.255319 1.000000
vt 0.234043 0.000000
vt 0.276596 1.000000
vt 0.255319 0.000000
vt 0.297872 1.000000
vt 0.276596 0.000000
vt 0.319149 1.000000
vt 0.297872 0.000000
vt 0.340426 1.000000
vt 0.319149 0.000000
vt 0.361702 1.000000
vt 0.340426 0.000000
vt 0.382979 1.000000
vt 0.361702 0.000000
vt 0.404255 1.000000
vt 0.382979 0.000000
vt 0.425532 1.000000
vt 0.404255 0.000000
vt 0.446809 1.000000
vt 0.425532 0.000000
vt 0.468085 1.000000
vt 0.446809 0.000000
vt 0.489362 1.000000
vt 0.468085 0.000000
vt 0.510638 1.000000
vt 0.489362 0.000000
vt 0.531915 1.000000
vt 0.510638 0.000000
vt 0.553191 1.000000
vt 0.531915 0.000000
vt 0.574468 1.000000
vt 0.553191 0.000000
vt 0.595745 1.000000
vt 0.574468 0.000000
vt 0.617021 1.000000
vt 0.595745 0.000000
vt 0.638298 1.000000
vt 0.617021 0.000000
vt 0.659574 1.000000
vt 0.638298 0.000000
vt 0.680851 1.000000
vt 0.659574 0.000000
vt 0.702128 1.000000
vt 0.680851 0.000000
vt 0.723404 1.000000
vt 0.702128 0.000000
vt 0.744681 1.000000
vt 0.723404 0.000000
vt 0.765957 1.000000
vt 0.744681 0.000000
vt 0.787234 1.000000
vt 0.765957 0.000000
vt 0.808511 1.000000
vt 0.787234 0.000000
vt 0.829787 1.000000
vt 0.808511 0.000000
vt 0.851064 1.000000
vt 0.829787 0.000000
vt 0.872340 1.000000
vt 0.851064 0.000000
vt 0.893617 1.000000
vt 0.872340 0.000000
vt 0.914894 1.000000
vt 0.893617 0.000000
vt 0.936170 1.000000
vt 0.914894 0.000000
vt 0.957447 1.000000
vt 0.936170 0.000000
vt 0.978723 1.000000
vt 0.957447 0.000000
vt 1.000000 1.000000
vt 0.978723 0.000000
vt 0.250000 1.000000
vt 0.500000 1.000000
vt 0.250000 0.000000
vt 0.750000 1.000000
vt 0.750000 0.000000
s 0
usemtl Material.006
f 42/1/1 41/2/1 40/3/1
f 56/4/1 53/5/1 1/6/1
f 53/5/1 52/7/1 1/6/1
f 45/8/1 57/9/1 46/10/1
f 57/9/1 56/4/1 46/10/1
f 56/4/1 1/6/1 46/10/1
f 47/11/1 46/10/1 1/6/1
f 1/6/1 3/12/1 2/13/1
f 5/14/1 48/15/1 6/16/1
f 58/17/1 44/18/1 43/19/1
f 55/20/1 50/21/1 49/22/1
f 39/23/1 38/24/1 37/25/1
f 37/25/1 40/3/1 39/23/1
f 57/9/1 45/8/1 44/18/1
f 44/18/1 58/17/1 57/9/1
f 53/5/1 56/4/1 59/26/1
f 59/26/1 54/27/1 53/5/1
f 55/20/1 49/22/1 52/7/1
f 1/6/1 52/7/1 49/22/1
f 49/22/1 48/15/1 1/6/1
f 3/12/1 1/6/1 48/15/1
f 48/15/1 5/14/1 3/12/1
f 5/14/1 4/28/1 3/12/1
f 7/29/1 51/30/1 8/31/1
f 26/32/1 23/33/1 27/34/1
f 27/34/1 23/33/1 22/35/1
f 13/36/1 12/37/1 11/38/1
f 33/39/1 32/40/1 34/41/1
f 31/42/1 34/41/1 32/40/1
f 23/33/1 26/32/1 25/43/1
f 19/44/1 22/35/1 21/45/1
f 21/45/1 20/46/1 19/44/1
f 15/47/1 18/48/1 17/49/1
f 17/49/1 16/50/1 15/47/1
f 51/30/1 15/47/1 14/51/1
f 8/31/1 51/30/1 14/51/1
f 9/52/1 8/31/1 14/51/1
f 14/51/1 11/38/1 9/52/1
f 11/38/1 10/53/1 9/52/1
f 37/25/1 36/54/1 35/55/1
f 35/55/1 34/41/1 37/25/1
f 40/3/1 37/25/1 34/41/1
f 34/41/1 31/42/1 40/3/1
f 43/19/1 40/3/1 31/42/1
f 31/42/1 28/56/1 43/19/1
f 58/17/1 43/19/1 28/56/1
f 28/56/1 27/34/1 58/17/1
f 59/26/1 58/17/1 27/34/1
f 27/34/1 22/35/1 59/26/1
f 54/27/1 59/26/1 22/35/1
f 22/35/1 19/44/1 54/27/1
f 55/20/1 54/27/1 19/44/1
f 19/44/1 18/48/1 55/20/1
f 50/21/1 55/20/1 18/48/1
f 18/48/1 15/47/1 50/21/1
f 15/47/1 51/30/1 50/21/1
f 6/16/1 48/15/1 51/30/1
f 51/30/1 7/29/1 6/16/1
f 11/38/1 14/51/1 13/36/1
f 25/43/1 24/57/1 23/33/1
f 30/58/1 29/59/1 28/56/1
f 28/56/1 31/42/1 30/58/1
f 40/3/1 43/19/1 42/1/1
f 101/1/2 99/3/2 100/2/2
f 115/4/2 60/6/2 112/5/2
f 112/5/2 60/6/2 111/7/2
f 104/8/2 105/10/2 116/9/2
f 116/9/2 105/10/2 115/4/2
f 115/4/2 105/10/2 60/6/2
f 106/11/2 60/6/2 105/10/2
f 60/6/2 61/13/2 62/12/2
f 64/14/2 65/16/2 107/15/2
f 117/17/2 102/19/2 103/18/2
f 114/20/2 108/22/2 109/21/2
f 98/23/2 96/25/2 97/24/2
f 96/25/2 98/23/2 99/3/2
f 116/9/2 103/18/2 104/8/2
f 103/18/2 116/9/2 117/17/2
f 112/5/2 118/26/2 115/4/2
f 118/26/2 112/5/2 113/27/2
f 114/20/2 111/7/2 108/22/2
f 60/6/2 108/22/2 111/7/2
f 108/22/2 60/6/2 107/15/2
f 62/12/2 107/15/2 60/6/2
f 107/15/2 62/12/2 64/14/2
f 64/14/2 62/12/2 63/28/2
f 66/29/2 67/31/2 110/30/2
f 85/32/2 86/34/2 82/33/2
f 86/34/2 81/35/2 82/33/2
f 72/36/2 70/38/2 71/37/2
f 92/39/2 93/41/2 91/40/2
f 90/42/2 91/40/2 93/41/2
f 82/33/2 84/43/2 85/32/2
f 78/44/2 80/45/2 81/35/2
f 80/45/2 78/44/2 79/46/2
f 74/47/2 76/49/2 77/48/2
f 76/49/2 74/47/2 75/50/2
f 110/30/2 73/51/2 74/47/2
f 67/31/2 73/51/2 110/30/2
f 68/52/2 73/51/2 67/31/2
f 73/51/2 68/52/2 70/38/2
f 70/38/2 68/52/2 69/53/2
f 96/25/2 94/55/2 95/54/2
f 94/55/2 96/25/2 93/41/2
f 99/3/2 93/41/2 96/25/2
f 93/41/2 99/3/2 90/42/2
f 102/19/2 90/42/2 99/3/2
f 90/42/2 102/19/2 87/56/2
f 117/17/2 87/56/2 102/19/2
f 87/56/2 117/17/2 86/34/2
f 118/26/2 86/34/2 117/17/2
f 86/34/2 118/26/2 81/35/2
f 113/27/2 81/35/2 118/26/2
f 81/35/2 113/27/2 78/44/2
f 114/20/2 78/44/2 113/27/2
f 78/44/2 114/20/2 77/48/2
f 109/21/2 77/48/2 114/20/2
f 77/48/2 109/21/2 74/47/2
f 74/47/2 109/21/2 110/30/2
f 65/16/2 110/30/2 107/15/2
f 110/30/2 65/16/2 66/29/2
f 70/38/2 72/36/2 73/51/2
f 84/43/2 82/33/2 83/57/2
f 89/58/2 87/56/2 88/59/2
f 87/56/2 89/58/2 90/42/2
f 99/3/2 101/1/2 102/19/2
s 1
f 122/60/3 119/6/4 120/61/5
f 124/62/6 121/63/7 122/60/3
f 126/64/8 123/65/6 124/62/6
f 128/66/8 125/67/8 126/64/8
f 130/68/9 127/69/8 128/66/8
f 132/70/9 129/71/9 130/68/9
f 134/72/10 131/73/9 132/70/9
f 136/74/10 133/75/10 134/72/10
f 138/76/11 135/77/10 136/74/10
f 140/78/12 137/79/12 138/76/11
f 142/80/13 139/81/12 140/78/12
f 144/82/14 141/83/13 142/80/13
f 146/84/15 143/85/14 144/82/14
f 148/86/16 145/87/15 146/84/15
f 150/88/13 147/89/16 148/86/16
f 152/90/14 149/91/13 150/88/13
f 154/92/17 151/93/14 152/90/14
f 156/94/18 153/95/19 154/92/17
f 158/96/13 155/97/18 156/94/18
f 160/98/14 157/99/13 158/96/13
f 162/100/20 159/101/14 160/98/14
f 164/102/21 161/103/20 162/100/20
f 166/104/22 163/105/21 164/102/21
f 168/106/23 165/107/22 166/104/22
f 170/108/24 167/109/23 168/106/23
f 172/110/25 169/111/24 170/108/24
f 174/112/26 171/113/25 172/110/25
f 176/114/22 173/115/26 174/112/26
f 178/116/23 175/117/22 176/114/22
f 180/118/27 177/119/23 178/116/23
f 182/120/28 179/121/29 180/118/27
f 184/122/30 181/123/28 182/120/28
f 186/124/31 183/125/30 184/122/30
f 188/126/32 185/127/31 186/124/31
f 190/128/33 187/129/32 188/126/32
f 192/130/34 189/131/33 190/128/33
f 194/132/35 191/133/34 192/130/34
f 196/134/36 193/135/35 194/132/35
f 198/136/37 195/137/36 196/134/36
f 200/138/38 197/139/39 198/136/37
f 202/140/40 199/141/38 200/138/38
f 204/142/41 201/143/40 202/140/40
f 206/144/42 203/145/41 204/142/41
f 208/146/24 205/147/42 206/144/42
f 210/148/24 207/149/24 208/146/24
f 212/150/4 209/151/24 210/148/24
f 120/152/5 211/153/5 212/150/4
f 216/154/16 213/6/15 214/61/43
f 218/155/44 215/156/16 216/154/16
f 220/157/45 217/58/46 218/155/44
f 214/152/43 219/158/45 220/157/45
f 224/154/18 221/6/19 222/61/17
f 226/155/47 223/156/18 224/154/18
f 228/157/48 225/58/49 226/155/47
f 222/152/17 227/158/48 228/157/48
f 232/154/21 229/6/20 230/61/20
f 234/155/50 231/156/21 232/154/21
f 236/157/51 233/58/50 234/155/50
f 230/152/20 235/158/51 236/157/51
f 122/60/3 121/63/7 119/6/4
f 124/62/6 123/65/6 121/63/7
f 126/64/8 125/67/8 123/65/6
f 128/66/8 127/69/8 125/67/8
f 130/68/9 129/71/9 127/69/8
f 132/70/9 131/73/9 129/71/9
f 134/72/10 133/75/10 131/73/9
f 136/74/10 135/77/10 133/75/10
f 138/76/11 137/79/12 135/77/10
f 140/78/12 139/81/12 137/79/12
f 142/80/13 141/83/13 139/81/12
f 144/82/14 143/85/14 141/83/13
f 146/84/15 145/87/15 143/85/14
f 148/86/16 147/89/16 145/87/15
f 150/88/13 149/91/13 147/89/16
f 152/90/14 151/93/14 149/91/13
f 154/92/17 153/95/19 151/93/14
f 156/94/18 155/97/18 153/95/19
f 158/96/13 157/99/13 155/97/18
f 160/98/14 159/101/14 157/99/13
f 162/100/20 161/103/20 159/101/14
f 164/102/21 163/105/21 161/103/20
f 166/104/22 165/107/22 163/105/21
f 168/106/23 167/109/23 165/107/22
f 170/108/24 169/111/24 167/109/23
f 172/110/25 171/113/25 169/111/24
f 174/112/26 173/115/26 171/113/25
f 176/114/22 175/117/22 173/115/26
f 178/116/23 177/119/23 175/117/22
f 180/118/27 179/121/29 177/119/23
f 182/120/28 181/123/28 179/121/29
f 184/122/30 183/125/30 181/123/28
f 186/124/31 185/127/31 183/125/30
f 188/126/32 187/129/32 185/127/31
f 190/128/33 189/131/33 187/129/32
f 192/130/34 191/133/34 189/131/33
f 194/132/35 193/135/35 191/133/34
f 196/134/36 195/137/36 193/135/35
f 198/136/37 197/139/39 195/137/36
f 200/138/38 199/141/38 197/139/39
f 202/140/40 201/143/40 199/141/38
f 204/142/41 203/145/41 201/143/40
f 206/144/42 205/147/42 203/145/41
f 208/146/24 207/149/24 205/147/42
f 210/148/24 209/151/24 207/149/24
f 212/150/4 211/153/5 209/151/24
f 120/152/5 119/26/4 211/153/5
f 216/154/16 215/156/16 213/6/15
f 218/155/44 217/58/46 215/156/16
f 220/157/45 219/158/45 217/58/46
f 214/152/43 213/26/15 219/158/45
f 224/154/18 223/156/18 221/6/19
f 226/155/47 225/58/49 223/156/18
f 228/157/48 227/158/48 225/58/49
f 222/152/17 221/26/19 227/158/48
f 232/154/21 231/156/21 229/6/20
f 234/155/50 233/58/50 231/156/21
f 236/157/51 235/158/51 233/58/50
f 230/152/20 229/26/20 235/158/51
