# Blender 5.2.1 LTS
# www.blender.org
mtllib playStartLogo9.mtl
o Text.001
v 0.334642 0.250000 0.220876
v -0.187897 0.250000 0.220876
v -0.183297 0.250000 0.167518
v 0.151569 0.250000 0.167518
v 0.178248 0.250000 -0.131470
v -0.271614 0.250000 -0.131470
v -0.266094 0.250000 -0.184827
v 0.370521 0.250000 -0.184827
v 0.334642 -0.250000 0.220876
v -0.187897 -0.250000 0.220876
v -0.183297 -0.250000 0.167518
v 0.151569 -0.250000 0.167518
v 0.178248 -0.250000 -0.131470
v -0.271614 -0.250000 -0.131470
v -0.266094 -0.250000 -0.184827
v 0.370521 -0.250000 -0.184827
v 0.334642 -0.250000 0.220876
v 0.334642 0.250000 0.220876
v -0.187897 -0.250000 0.220876
v -0.187897 0.250000 0.220876
v -0.183297 -0.250000 0.167518
v -0.183297 0.250000 0.167518
v 0.151569 -0.250000 0.167518
v 0.151569 0.250000 0.167518
v 0.178248 -0.250000 -0.131470
v 0.178248 0.250000 -0.131470
v -0.271614 -0.250000 -0.131470
v -0.271614 0.250000 -0.131470
v -0.266094 -0.250000 -0.184827
v -0.266094 0.250000 -0.184827
v 0.370521 -0.250000 -0.184827
v 0.370521 0.250000 -0.184827
vn -0.0000 1.0000 -0.0000
vn -0.0000 -1.0000 -0.0000
vn -0.7368 -0.0000 0.6761
vn 0.6752 -0.0000 0.7376
vn 0.6753 -0.0000 0.7376
vn -0.6761 -0.0000 -0.7368
vn -0.7369 -0.0000 0.6761
vn -0.6749 -0.0000 -0.7379
vn -0.6761 -0.0000 -0.7369
vn -0.7379 -0.0000 0.6750
vn -0.6750 -0.0000 -0.7379
vn -0.7426 -0.0000 0.6698
vn -0.7378 -0.0000 0.6750
vn -0.6697 -0.0000 -0.7426
vn -0.7426 -0.0000 0.6697
vn 0.7376 -0.0000 -0.6753
vn 0.7376 -0.0000 -0.6752
vt 0.571429 0.000000
vt 0.428571 0.000000
vt 0.000000 0.000000
vt 1.000000 0.000000
vt 0.142857 0.000000
vt 0.285714 0.000000
vt 0.857143 0.000000
vt 0.714286 0.000000
vt 0.125000 1.000000
vt 0.000000 1.000000
vt 0.250000 1.000000
vt 0.125000 0.000000
vt 0.375000 1.000000
vt 0.250000 0.000000
vt 0.500000 1.000000
vt 0.375000 0.000000
vt 0.625000 1.000000
vt 0.500000 0.000000
vt 0.750000 1.000000
vt 0.625000 0.000000
vt 0.875000 1.000000
vt 0.750000 0.000000
vt 1.000000 1.000000
vt 0.875000 0.000000
s 0
usemtl Material.006
f 5/1/1 4/2/1 1/3/1
f 1/3/1 8/4/1 5/1/1
f 1/3/1 4/2/1 2/5/1
f 3/6/1 2/5/1 4/2/1
f 7/7/1 6/8/1 5/1/1
f 5/1/1 8/4/1 7/7/1
f 13/1/2 9/3/2 12/2/2
f 9/3/2 13/1/2 16/4/2
f 9/3/2 10/5/2 12/2/2
f 11/6/2 12/2/2 10/5/2
f 15/7/2 13/1/2 14/8/2
f 13/1/2 15/7/2 16/4/2
s 1
f 20/9/3 17/3/4 18/10/5
f 22/11/6 19/12/7 20/9/3
f 24/13/8 21/14/9 22/11/6
f 26/15/10 23/16/11 24/13/8
f 28/17/12 25/18/13 26/15/10
f 30/19/14 27/20/15 28/17/12
f 32/21/16 29/22/14 30/19/14
f 18/23/5 31/24/17 32/21/16
f 20/9/3 19/12/7 17/3/4
f 22/11/6 21/14/9 19/12/7
f 24/13/8 23/16/11 21/14/9
f 26/15/10 25/18/13 23/16/11
f 28/17/12 27/20/15 25/18/13
f 30/19/14 29/22/14 27/20/15
f 32/21/16 31/24/17 29/22/14
f 18/23/5 17/4/4 31/24/17
