# Blender 5.2.1 LTS
# www.blender.org
mtllib playStartLogo5.mtl
o Text.001
v -0.183297 0.250000 0.220876
v -0.365450 0.250000 0.220876
v -0.283573 0.250000 -0.323742
v -0.230215 0.250000 -0.323742
v -0.101421 0.250000 -0.323742
v 0.264725 0.250000 -0.323742
v 0.415599 0.250000 -0.323742
v 0.446877 0.250000 -0.323742
v 0.398119 0.250000 0.220876
v 0.215967 0.250000 0.220876
v 0.232526 0.250000 0.040564
v -0.156618 0.250000 0.040564
v -0.109700 0.250000 -0.268544
v -0.124420 0.250000 -0.169188
v 0.250925 0.250000 -0.169188
v 0.260125 0.250000 -0.268544
v -0.132699 0.250000 -0.113990
v -0.148339 0.250000 -0.014634
v 0.237126 0.250000 -0.014634
v 0.246325 0.250000 -0.113990
v -0.183297 -0.250000 0.220876
v -0.365450 -0.250000 0.220876
v -0.283573 -0.250000 -0.323742
v -0.230215 -0.250000 -0.323742
v -0.101421 -0.250000 -0.323742
v 0.264725 -0.250000 -0.323742
v 0.415599 -0.250000 -0.323742
v 0.446877 -0.250000 -0.323742
v 0.398119 -0.250000 0.220876
v 0.215967 -0.250000 0.220876
v 0.232526 -0.250000 0.040564
v -0.156618 -0.250000 0.040564
v -0.109700 -0.250000 -0.268544
v -0.124420 -0.250000 -0.169188
v 0.250925 -0.250000 -0.169188
v 0.260125 -0.250000 -0.268544
v -0.132699 -0.250000 -0.113990
v -0.148339 -0.250000 -0.014634
v 0.237126 -0.250000 -0.014634
v 0.246325 -0.250000 -0.113990
v -0.183297 -0.250000 0.220876
v -0.183297 0.250000 0.220876
v -0.365450 -0.250000 0.220876
v -0.365450 0.250000 0.220876
v -0.283573 -0.250000 -0.323742
v -0.283573 0.250000 -0.323742
v -0.230215 -0.250000 -0.323742
v -0.230215 0.250000 -0.323742
v -0.101421 -0.250000 -0.323742
v -0.101421 0.250000 -0.323742
v 0.264725 -0.250000 -0.323742
v 0.264725 0.250000 -0.323742
v 0.415599 -0.250000 -0.323742
v 0.415599 0.250000 -0.323742
v 0.446877 -0.250000 -0.323742
v 0.446877 0.250000 -0.323742
v 0.398119 -0.250000 0.220876
v 0.398119 0.250000 0.220876
v 0.215967 -0.250000 0.220876
v 0.215967 0.250000 0.220876
v 0.232526 -0.250000 0.040564
v 0.232526 0.250000 0.040564
v -0.156618 -0.250000 0.040564
v -0.156618 0.250000 0.040564
v -0.109700 -0.250000 -0.268544
v -0.109700 0.250000 -0.268544
v -0.124420 -0.250000 -0.169188
v -0.124420 0.250000 -0.169188
v 0.250925 -0.250000 -0.169188
v 0.250925 0.250000 -0.169188
v 0.260125 -0.250000 -0.268544
v 0.260125 0.250000 -0.268544
v -0.132699 -0.250000 -0.113990
v -0.132699 0.250000 -0.113990
v -0.148339 -0.250000 -0.014634
v -0.148339 0.250000 -0.014634
v 0.237126 -0.250000 -0.014634
v 0.237126 0.250000 -0.014634
v 0.246325 -0.250000 -0.113990
v 0.246325 0.250000 -0.113990
vn -0.0000 1.0000 -0.0000
vn -0.0000 -1.0000 -0.0000
vn -0.7579 -0.0000 0.6524
vn 0.6533 -0.0000 0.7571
vn -0.6524 -0.0000 -0.7578
vn -0.0000 -0.0000 -1.0000
vn -0.6524 -0.0000 -0.7579
vn 0.7380 -0.0000 -0.6749
vn 0.6749 -0.0000 0.7379
vn 0.7380 -0.0000 -0.6748
vn -0.7388 -0.0000 0.6740
vn -0.7387 -0.0000 0.6740
vn 0.7571 -0.0000 -0.6533
vn 0.6532 -0.0000 0.7572
vn -0.6737 -0.0000 -0.7390
vn -0.7390 -0.0000 0.6737
vn 0.7601 -0.0000 -0.6498
vn 0.6498 -0.0000 0.7601
vt 0.000000 0.000000
vt 0.578947 0.000000
vt 0.052632 0.000000
vt 0.894737 0.000000
vt 0.105263 0.000000
vt 0.842105 0.000000
vt 0.684211 0.000000
vt 0.157895 0.000000
vt 0.631579 0.000000
vt 0.210526 0.000000
vt 0.263158 0.000000
vt 0.789474 0.000000
vt 0.315789 0.000000
vt 0.526316 0.000000
vt 0.473684 0.000000
vt 0.421053 0.000000
vt 0.947368 0.000000
vt 1.000000 0.000000
vt 0.368421 0.000000
vt 0.736842 0.000000
vt 0.083333 1.000000
vt 0.000000 1.000000
vt 0.166667 1.000000
vt 0.083333 0.000000
vt 0.250000 1.000000
vt 0.166667 0.000000
vt 0.333333 1.000000
vt 0.250000 0.000000
vt 0.416667 1.000000
vt 0.333333 0.000000
vt 0.500000 1.000000
vt 0.416667 0.000000
vt 0.583333 1.000000
vt 0.500000 0.000000
vt 0.666667 1.000000
vt 0.583333 0.000000
vt 0.750000 1.000000
vt 0.666667 0.000000
vt 0.833333 1.000000
vt 0.750000 0.000000
vt 0.916667 1.000000
vt 0.833333 0.000000
vt 1.000000 1.000000
vt 0.916667 0.000000
s 0
usemtl Material.006
f 1/1/1 12/2/1 2/3/1
f 2/3/1 12/2/1 18/4/1
f 3/5/1 2/3/1 18/4/1
f 18/4/1 17/6/1 3/5/1
f 17/6/1 14/7/1 3/5/1
f 4/8/1 3/5/1 14/7/1
f 14/7/1 13/9/1 4/8/1
f 13/9/1 5/10/1 4/8/1
f 6/11/1 16/12/1 7/13/1
f 11/14/1 10/15/1 9/16/1
f 19/17/1 11/14/1 9/16/1
f 20/18/1 19/17/1 9/16/1
f 9/16/1 8/19/1 20/18/1
f 15/20/1 20/18/1 8/19/1
f 8/19/1 7/13/1 15/20/1
f 7/13/1 16/12/1 15/20/1
f 18/4/1 12/2/1 11/14/1
f 11/14/1 19/17/1 18/4/1
f 14/7/1 17/6/1 20/18/1
f 20/18/1 15/20/1 14/7/1
f 5/10/1 13/9/1 16/12/1
f 16/12/1 6/11/1 5/10/1
f 21/1/2 22/3/2 32/2/2
f 22/3/2 38/4/2 32/2/2
f 23/5/2 38/4/2 22/3/2
f 38/4/2 23/5/2 37/6/2
f 37/6/2 23/5/2 34/7/2
f 24/8/2 34/7/2 23/5/2
f 34/7/2 24/8/2 33/9/2
f 33/9/2 24/8/2 25/10/2
f 26/11/2 27/13/2 36/12/2
f 31/14/2 29/16/2 30/15/2
f 39/17/2 29/16/2 31/14/2
f 40/18/2 29/16/2 39/17/2
f 29/16/2 40/18/2 28/19/2
f 35/20/2 28/19/2 40/18/2
f 28/19/2 35/20/2 27/13/2
f 27/13/2 35/20/2 36/12/2
f 38/4/2 31/14/2 32/2/2
f 31/14/2 38/4/2 39/17/2
f 34/7/2 40/18/2 37/6/2
f 40/18/2 34/7/2 35/20/2
f 25/10/2 36/12/2 33/9/2
f 36/12/2 25/10/2 26/11/2
s 1
f 44/21/3 41/1/4 42/22/4
f 46/23/5 43/24/3 44/21/3
f 48/25/6 45/26/7 46/23/5
f 50/27/6 47/28/6 48/25/6
f 52/29/6 49/30/6 50/27/6
f 54/31/6 51/32/6 52/29/6
f 56/33/8 53/34/6 54/31/6
f 58/35/9 55/36/10 56/33/8
f 60/37/11 57/38/9 58/35/9
f 62/39/12 59/40/12 60/37/11
f 64/41/4 61/42/12 62/39/12
f 42/43/4 63/44/4 64/41/4
f 68/25/13 65/1/14 66/22/14
f 70/31/15 67/28/13 68/25/13
f 72/37/16 69/34/15 70/31/15
f 66/43/14 71/40/16 72/37/16
f 76/25/17 73/1/18 74/22/18
f 78/31/15 75/28/17 76/25/17
f 80/37/16 77/34/15 78/31/15
f 74/43/18 79/40/16 80/37/16
f 44/21/3 43/24/3 41/1/4
f 46/23/5 45/26/7 43/24/3
f 48/25/6 47/28/6 45/26/7
f 50/27/6 49/30/6 47/28/6
f 52/29/6 51/32/6 49/30/6
f 54/31/6 53/34/6 51/32/6
f 56/33/8 55/36/10 53/34/6
f 58/35/9 57/38/9 55/36/10
f 60/37/11 59/40/12 57/38/9
f 62/39/12 61/42/12 59/40/12
f 64/41/4 63/44/4 61/42/12
f 42/43/4 41/18/4 63/44/4
f 68/25/13 67/28/13 65/1/14
f 70/31/15 69/34/15 67/28/13
f 72/37/16 71/40/16 69/34/15
f 66/43/14 65/18/14 71/40/16
f 76/25/17 75/28/17 73/1/18
f 78/31/15 77/34/15 75/28/17
f 80/37/16 79/40/16 77/34/15
f 74/43/18 73/18/18 79/40/16
