# Blender 5.2.1 LTS
# www.blender.org
mtllib playStartLogo0.mtl
o Sphere
v 0.006224 0.624637 0.003654
v 0.006224 0.624637 0.003654
v 0.006224 0.624637 0.003654
v 0.006224 0.624637 0.003654
v 0.006224 0.624637 0.003654
v 0.006224 0.086245 -0.642436
v 0.006224 0.086245 -0.642436
v 0.006224 0.086245 -0.642436
v 0.006224 0.086245 -0.642436
v 0.429540 -0.030860 -0.124372
v 0.429540 -0.030860 -0.124372
v 0.429540 -0.030860 -0.124372
v 0.429540 -0.030860 -0.124372
v 0.429540 -0.030860 -0.124372
v 0.429540 -0.030860 -0.124372
v 0.429540 -0.030860 -0.124372
v 0.006224 -0.043915 0.721144
v 0.006224 -0.043915 0.721144
v 0.006224 -0.043915 0.721144
v 0.006224 -0.043915 0.721144
v 0.006224 -0.043915 0.721144
v 0.006224 -0.043915 0.721144
v 0.006224 -0.043915 0.721144
v 0.006224 -0.463702 -0.100233
v 0.006224 -0.463702 -0.100233
v 0.006224 -0.463702 -0.100233
v 0.006224 -0.463702 -0.100233
v 0.006224 -0.463702 -0.100233
v 0.006224 -0.463702 -0.100233
v -0.383352 0.316493 0.198004
v -0.383352 0.316493 0.198004
v -0.383352 0.316493 0.198004
v -0.383352 0.316493 0.198004
v -0.383352 0.316493 0.198004
v 0.266350 -0.390940 0.128110
v 0.266350 -0.390940 0.128110
v 0.266350 -0.390940 0.128110
v 0.355669 0.317379 0.186467
v 0.355669 0.317379 0.186467
v 0.355669 0.317379 0.186467
v -0.342694 -0.252856 -0.243958
v -0.342694 -0.252856 -0.243958
v -0.342694 -0.252856 -0.243958
v -0.342694 -0.252856 -0.243958
v 0.002173 0.086737 -0.636945
v 0.002173 0.086737 -0.636945
v 0.002173 0.086737 -0.636945
v 0.002173 0.086737 -0.636945
v 0.006224 0.089710 -0.638279
v 0.006224 0.089710 -0.638279
v 0.006224 0.089710 -0.638279
v 0.006224 0.089710 -0.638279
v -0.376887 -0.418285 0.229554
v -0.376887 -0.418285 0.229554
v -0.376887 -0.418285 0.229554
v -0.376887 -0.418285 0.229554
vn 0.7057 0.5443 -0.4536
vn 0.2756 0.7033 0.6553
vn 0.5608 -0.5813 -0.5896
vn 0.8910 -0.0920 0.4447
vn -0.1368 -0.6921 -0.7087
vn -0.1368 -0.6921 -0.7088
vn -0.3854 -0.8621 -0.3290
vn -0.6123 0.6074 -0.5061
vn -0.2321 0.7116 0.6631
vn -0.1487 -0.8805 0.4500
vn 0.8768 -0.2030 0.4359
vn 0.7115 0.5459 -0.4425
vn 0.6076 -0.6218 -0.4941
vn -0.9970 -0.0120 -0.0762
vn -0.6793 0.5642 -0.4694
vn -0.6796 0.5637 -0.4694
vn -0.6793 0.5641 -0.4694
vn -0.8307 0.3032 -0.4670
vn 0.2751 -0.8561 0.4375
vn -0.7956 0.0190 0.6055
vt 0.750000 0.500212
vt 0.500000 0.500212
vt 0.625804 0.035351
vt 0.625000 0.032340
vt 0.750000 0.517319
vt 0.625000 0.977472
vt 0.637462 0.517319
vt 0.250000 0.500212
vt 0.375000 0.032340
vt 0.500000 0.517319
vt 0.375000 0.977472
vt 0.361167 0.517319
vt 0.125000 0.032340
vt 0.140581 0.500212
vt 0.124169 0.035452
vt 0.250000 0.517319
vt 0.136348 0.642329
vt 0.140581 0.517319
vt 0.875000 0.032340
vt 0.875831 0.035452
vt 0.874196 0.035351
vt 1.000000 0.517319
vt 0.875000 0.977472
vt 0.637462 0.500212
vt 0.361167 0.500212
vt 0.000000 0.517319
vt 1.000000 0.500212
vt 0.000000 0.500212
vt 0.125000 0.977472
s 0
usemtl マテリアル
f 2/1/1 12/2/1 49/3/1
f 13/2/1 7/4/1 50/3/1
f 1/5/2 18/6/2 38/7/2
f 10/2/3 25/8/3 6/9/3
f 16/10/4 20/11/4 36/12/4
s 1
f 8/13/5 27/8/6 41/14/6
f 8/13/5 41/14/6 45/15/5
s 0
f 29/16/7 54/17/7 42/18/7
f 9/19/8 46/20/8 51/21/8
f 30/22/9 22/23/9 4/5/9
f 37/12/10 21/11/10 28/16/10
f 40/7/11 19/6/11 15/10/11
f 3/1/12 39/24/12 14/2/12
f 11/2/13 35/25/13 26/8/13
f 44/18/14 56/17/14 34/26/14
s 1
f 52/21/15 47/20/15 31/27/16
f 52/21/15 31/27/16 5/1/17
s 0
f 48/15/18 43/14/18 33/28/18
f 53/17/19 24/16/19 17/29/19
f 32/26/20 55/17/20 23/29/20
o Text
v 0.247899 0.250000 -0.644082
v 0.104384 0.250000 -0.644082
v 0.223060 0.250000 -1.140863
v 0.366574 0.250000 -1.140863
v 0.700521 0.250000 -0.644082
v 0.557006 0.250000 -0.644082
v 0.499049 0.250000 -1.140863
v 0.642563 0.250000 -1.140863
v 0.749509 0.250000 -1.140863
v 0.743299 0.250000 -1.058066
v 0.660502 0.250000 -1.058066
v 0.666712 0.250000 -1.140863
v 0.715010 0.250000 -1.082905
v 0.717080 0.250000 -1.116024
v 0.695001 0.250000 -1.116024
v 0.692931 0.250000 -1.082905
v -0.415165 0.250000 -0.644082
v -0.569029 0.250000 -0.644082
v -0.533150 0.250000 -1.140863
v -0.378596 0.250000 -1.140863
v -0.393086 0.250000 -0.942151
v -0.003941 0.250000 -0.942151
v -0.007391 0.250000 -0.892473
v -0.396535 0.250000 -0.892473
v 0.042977 0.250000 -1.140863
v 0.036767 0.250000 -1.058066
v 0.006408 0.250000 -1.058066
v 0.012618 0.250000 -1.140863
v -0.009461 0.250000 -1.140863
v -0.015671 0.250000 -1.058066
v -0.046030 0.250000 -1.058066
v -0.039820 0.250000 -1.140863
v 0.247899 -0.250000 -0.644082
v 0.104384 -0.250000 -0.644082
v 0.223060 -0.250000 -1.140863
v 0.366574 -0.250000 -1.140863
v 0.700521 -0.250000 -0.644082
v 0.557006 -0.250000 -0.644082
v 0.499049 -0.250000 -1.140863
v 0.642563 -0.250000 -1.140863
v 0.749509 -0.250000 -1.140863
v 0.743299 -0.250000 -1.058066
v 0.660502 -0.250000 -1.058066
v 0.666712 -0.250000 -1.140863
v 0.715010 -0.250000 -1.082905
v 0.717080 -0.250000 -1.116024
v 0.695001 -0.250000 -1.116024
v 0.692931 -0.250000 -1.082905
v -0.415165 -0.250000 -0.644082
v -0.569029 -0.250000 -0.644082
v -0.533150 -0.250000 -1.140863
v -0.378596 -0.250000 -1.140863
v -0.393086 -0.250000 -0.942151
v -0.003941 -0.250000 -0.942151
v -0.007391 -0.250000 -0.892473
v -0.396535 -0.250000 -0.892473
v 0.042977 -0.250000 -1.140863
v 0.036767 -0.250000 -1.058066
v 0.006408 -0.250000 -1.058066
v 0.012618 -0.250000 -1.140863
v -0.009461 -0.250000 -1.140863
v -0.015671 -0.250000 -1.058066
v -0.046030 -0.250000 -1.058066
v -0.039820 -0.250000 -1.140863
v -0.415165 -0.250000 -0.644082
v -0.415165 0.250000 -0.644082
v -0.569029 -0.250000 -0.644082
v -0.569029 0.250000 -0.644082
v -0.533150 -0.250000 -1.140863
v -0.533150 0.250000 -1.140863
v -0.378596 -0.250000 -1.140863
v -0.378596 0.250000 -1.140863
v -0.393086 -0.250000 -0.942151
v -0.393086 0.250000 -0.942151
v -0.003941 -0.250000 -0.942151
v -0.003941 0.250000 -0.942151
v -0.007391 -0.250000 -0.892473
v -0.007391 0.250000 -0.892473
v -0.396535 -0.250000 -0.892473
v -0.396535 0.250000 -0.892473
v 0.042977 -0.250000 -1.140863
v 0.042977 0.250000 -1.140863
v 0.036767 -0.250000 -1.058066
v 0.036767 0.250000 -1.058066
v 0.006408 -0.250000 -1.058066
v 0.006408 0.250000 -1.058066
v 0.012618 -0.250000 -1.140863
v 0.012618 0.250000 -1.140863
v -0.009461 -0.250000 -1.140863
v -0.009461 0.250000 -1.140863
v -0.015671 -0.250000 -1.058066
v -0.015671 0.250000 -1.058066
v -0.046030 -0.250000 -1.058066
v -0.046030 0.250000 -1.058066
v -0.039820 -0.250000 -1.140863
v -0.039820 0.250000 -1.140863
v 0.247899 -0.250000 -0.644082
v 0.247899 0.250000 -0.644082
v 0.104384 -0.250000 -0.644082
v 0.104384 0.250000 -0.644082
v 0.223060 -0.250000 -1.140863
v 0.223060 0.250000 -1.140863
v 0.366574 -0.250000 -1.140863
v 0.366574 0.250000 -1.140863
v 0.700521 -0.250000 -0.644082
v 0.700521 0.250000 -0.644082
v 0.557006 -0.250000 -0.644082
v 0.557006 0.250000 -0.644082
v 0.499049 -0.250000 -1.140863
v 0.499049 0.250000 -1.140863
v 0.642563 -0.250000 -1.140863
v 0.642563 0.250000 -1.140863
v 0.749509 -0.250000 -1.140863
v 0.749509 0.250000 -1.140863
v 0.743299 -0.250000 -1.058066
v 0.743299 0.250000 -1.058066
v 0.660502 -0.250000 -1.058066
v 0.660502 0.250000 -1.058066
v 0.666712 -0.250000 -1.140863
v 0.666712 0.250000 -1.140863
v 0.715010 -0.250000 -1.082905
v 0.715010 0.250000 -1.082905
v 0.717080 -0.250000 -1.116024
v 0.717080 0.250000 -1.116024
v 0.695001 -0.250000 -1.116024
v 0.695001 0.250000 -1.116024
v 0.692931 -0.250000 -1.082905
v 0.692931 0.250000 -1.082905
vn -0.0000 1.0000 -0.0000
vn -0.0000 -1.0000 -0.0000
vn -0.7946 -0.0000 0.6072
vn 0.7390 -0.0000 0.6737
vn -0.7401 -0.0000 -0.6725
vn 0.7948 -0.0000 -0.6069
vn 0.7935 -0.0000 -0.6085
vn 0.7412 -0.0000 0.6713
vn 0.7936 -0.0000 -0.6085
vn 0.7955 -0.0000 -0.6059
vn -0.7955 -0.0000 0.6059
vn -0.7390 -0.0000 -0.6737
vn -0.8469 -0.0000 0.5318
vn 0.6708 -0.0000 0.7417
vn -0.6708 -0.0000 -0.7417
vn 0.8469 -0.0000 -0.5318
vn -0.7221 -0.0000 0.6918
vn 0.8097 -0.0000 0.5868
vn -0.8097 -0.0000 -0.5868
vn 0.7221 -0.0000 -0.6918
vn -0.7911 -0.0000 0.6117
vn -0.7440 -0.0000 -0.6682
vn 0.7440 -0.0000 0.6682
vn 0.7911 -0.0000 -0.6117
vt 0.133333 0.000000
vt 0.066667 0.000000
vt 0.000000 0.000000
vt 0.200000 0.000000
vt 0.400000 0.000000
vt 0.333333 0.000000
vt 0.466667 0.000000
vt 0.733333 0.000000
vt 1.000000 0.000000
vt 0.933333 0.000000
vt 0.866667 0.000000
vt 0.800000 0.000000
vt 0.600000 0.000000
vt 0.533333 0.000000
vt 0.666667 0.000000
vt 0.266667 0.000000
vt 0.125000 1.000000
vt 0.000000 1.000000
vt 0.250000 1.000000
vt 0.125000 0.000000
vt 0.375000 1.000000
vt 0.250000 0.000000
vt 0.500000 1.000000
vt 0.375000 0.000000
vt 0.625000 1.000000
vt 0.500000 0.000000
vt 0.750000 1.000000
vt 0.625000 0.000000
vt 0.875000 1.000000
vt 0.750000 0.000000
vt 1.000000 1.000000
vt 0.875000 0.000000
s 0
usemtl Material.004
f 59/30/21 58/31/21 57/32/21
f 57/32/21 60/33/21 59/30/21
f 63/34/21 62/35/21 64/36/21
f 68/37/21 72/38/21 71/39/21
f 70/40/21 69/41/21 66/42/21
f 66/42/21 65/43/21 70/40/21
f 66/42/21 69/41/21 72/38/21
f 68/37/21 71/39/21 70/40/21
f 70/40/21 65/43/21 68/37/21
f 66/42/21 72/38/21 67/44/21
f 72/38/21 68/37/21 67/44/21
f 62/35/21 61/45/21 64/36/21
f 73/32/21 80/36/21 74/31/21
f 75/30/21 74/31/21 80/36/21
f 75/30/21 80/36/21 77/45/21
f 77/45/21 76/33/21 75/30/21
f 84/37/21 83/44/21 82/42/21
f 82/42/21 81/43/21 84/37/21
f 77/45/21 80/36/21 79/34/21
f 79/34/21 78/35/21 77/45/21
f 88/38/21 87/39/21 86/40/21
f 86/40/21 85/41/21 88/38/21
f 91/30/22 89/32/22 90/31/22
f 89/32/22 91/30/22 92/33/22
f 95/34/22 96/36/22 94/35/22
f 100/37/22 103/39/22 104/38/22
f 102/40/22 98/42/22 101/41/22
f 98/42/22 102/40/22 97/43/22
f 98/42/22 104/38/22 101/41/22
f 100/37/22 102/40/22 103/39/22
f 102/40/22 100/37/22 97/43/22
f 98/42/22 99/44/22 104/38/22
f 104/38/22 99/44/22 100/37/22
f 94/35/22 96/36/22 93/45/22
f 105/32/22 106/31/22 112/36/22
f 107/30/22 112/36/22 106/31/22
f 107/30/22 109/45/22 112/36/22
f 109/45/22 107/30/22 108/33/22
f 116/37/22 114/42/22 115/44/22
f 114/42/22 116/37/22 113/43/22
f 109/45/22 111/34/22 112/36/22
f 111/34/22 109/45/22 110/35/22
f 120/38/22 118/40/22 119/39/22
f 118/40/22 120/38/22 117/41/22
s 1
f 124/46/23 121/32/24 122/47/24
f 126/48/25 123/49/23 124/46/23
f 128/50/26 125/51/25 126/48/25
f 130/52/26 127/53/26 128/50/26
f 132/54/27 129/55/26 130/52/26
f 134/56/28 131/57/29 132/54/27
f 136/58/24 133/59/28 134/56/28
f 122/60/24 135/61/24 136/58/24
f 140/48/24 137/32/30 138/47/30
f 142/52/31 139/51/24 140/48/24
f 144/56/32 141/55/31 142/52/31
f 138/60/30 143/59/32 144/56/32
f 148/48/24 145/32/30 146/47/30
f 150/52/31 147/51/24 148/48/24
f 152/56/32 149/55/31 150/52/31
f 146/60/30 151/59/32 152/56/32
f 156/48/33 153/32/34 154/47/34
f 158/52/35 155/51/33 156/48/33
f 160/56/36 157/55/35 158/52/35
f 154/60/34 159/59/36 160/56/36
f 164/48/37 161/32/38 162/47/38
f 166/52/39 163/51/37 164/48/37
f 168/56/40 165/55/39 166/52/39
f 162/60/38 167/59/40 168/56/40
f 172/48/24 169/32/30 170/47/30
f 174/52/31 171/51/24 172/48/24
f 176/56/32 173/55/31 174/52/31
f 170/60/30 175/59/32 176/56/32
f 180/48/41 177/32/42 178/47/42
f 182/52/43 179/51/41 180/48/41
f 184/56/44 181/55/43 182/52/43
f 178/60/42 183/59/44 184/56/44
f 124/46/23 123/49/23 121/32/24
f 126/48/25 125/51/25 123/49/23
f 128/50/26 127/53/26 125/51/25
f 130/52/26 129/55/26 127/53/26
f 132/54/27 131/57/29 129/55/26
f 134/56/28 133/59/28 131/57/29
f 136/58/24 135/61/24 133/59/28
f 122/60/24 121/38/24 135/61/24
f 140/48/24 139/51/24 137/32/30
f 142/52/31 141/55/31 139/51/24
f 144/56/32 143/59/32 141/55/31
f 138/60/30 137/38/30 143/59/32
f 148/48/24 147/51/24 145/32/30
f 150/52/31 149/55/31 147/51/24
f 152/56/32 151/59/32 149/55/31
f 146/60/30 145/38/30 151/59/32
f 156/48/33 155/51/33 153/32/34
f 158/52/35 157/55/35 155/51/33
f 160/56/36 159/59/36 157/55/35
f 154/60/34 153/38/34 159/59/36
f 164/48/37 163/51/37 161/32/38
f 166/52/39 165/55/39 163/51/37
f 168/56/40 167/59/40 165/55/39
f 162/60/38 161/38/38 167/59/40
f 172/48/24 171/51/24 169/32/30
f 174/52/31 173/55/31 171/51/24
f 176/56/32 175/59/32 173/55/31
f 170/60/30 169/38/30 175/59/32
f 180/48/41 179/51/41 177/32/42
f 182/52/43 181/55/43 179/51/41
f 184/56/44 183/59/44 181/55/43
f 178/60/42 177/38/42 183/59/44
