# Blender 5.2.1 LTS
# www.blender.org
mtllib playStartLogo6.mtl
o Text.001
v 0.035654 0.250000 -0.223466
v -0.316692 0.250000 -0.223466
v -0.312092 0.250000 -0.277744
v 0.040254 0.250000 -0.277744
v 0.043934 0.250000 -0.320062
v 0.231606 0.250000 -0.320062
v 0.227926 0.250000 -0.277744
v 0.434918 0.250000 -0.277744
v 0.430318 0.250000 -0.223466
v 0.223326 0.250000 -0.223466
v 0.215967 0.250000 -0.140669
v 0.422038 0.250000 -0.140669
v 0.417439 0.250000 -0.086391
v 0.211367 0.250000 -0.086391
v 0.202167 0.250000 0.015725
v 0.419279 0.250000 0.015725
v 0.414679 0.250000 0.069082
v 0.197567 0.250000 0.069082
v 0.184688 0.250000 0.220876
v -0.331411 0.250000 0.220876
v -0.313012 0.250000 0.015725
v 0.014495 0.250000 0.015725
v 0.023694 0.250000 -0.086391
v -0.329571 0.250000 -0.086391
v -0.324972 0.250000 -0.140669
v 0.028294 0.250000 -0.140669
v -0.139139 0.250000 0.166598
v 0.001615 0.250000 0.166598
v 0.009895 0.250000 0.069082
v -0.129939 0.250000 0.069082
v 0.035654 -0.250000 -0.223466
v -0.316692 -0.250000 -0.223466
v -0.312092 -0.250000 -0.277744
v 0.040254 -0.250000 -0.277744
v 0.043934 -0.250000 -0.320062
v 0.231606 -0.250000 -0.320062
v 0.227926 -0.250000 -0.277744
v 0.434918 -0.250000 -0.277744
v 0.430318 -0.250000 -0.223466
v 0.223326 -0.250000 -0.223466
v 0.215967 -0.250000 -0.140669
v 0.422038 -0.250000 -0.140669
v 0.417439 -0.250000 -0.086391
v 0.211367 -0.250000 -0.086391
v 0.202167 -0.250000 0.015725
v 0.419279 -0.250000 0.015725
v 0.414679 -0.250000 0.069082
v 0.197567 -0.250000 0.069082
v 0.184688 -0.250000 0.220876
v -0.331411 -0.250000 0.220876
v -0.313012 -0.250000 0.015725
v 0.014495 -0.250000 0.015725
v 0.023694 -0.250000 -0.086391
v -0.329571 -0.250000 -0.086391
v -0.324972 -0.250000 -0.140669
v 0.028294 -0.250000 -0.140669
v -0.139139 -0.250000 0.166598
v 0.001615 -0.250000 0.166598
v 0.009895 -0.250000 0.069082
v -0.129939 -0.250000 0.069082
v 0.035654 -0.250000 -0.223466
v 0.035654 0.250000 -0.223466
v -0.316692 -0.250000 -0.223466
v -0.316692 0.250000 -0.223466
v -0.312092 -0.250000 -0.277744
v -0.312092 0.250000 -0.277744
v 0.040254 -0.250000 -0.277744
v 0.040254 0.250000 -0.277744
v 0.043934 -0.250000 -0.320062
v 0.043934 0.250000 -0.320062
v 0.231606 -0.250000 -0.320062
v 0.231606 0.250000 -0.320062
v 0.227926 -0.250000 -0.277744
v 0.227926 0.250000 -0.277744
v 0.434918 -0.250000 -0.277744
v 0.434918 0.250000 -0.277744
v 0.430318 -0.250000 -0.223466
v 0.430318 0.250000 -0.223466
v 0.223326 -0.250000 -0.223466
v 0.223326 0.250000 -0.223466
v 0.215967 -0.250000 -0.140669
v 0.215967 0.250000 -0.140669
v 0.422038 -0.250000 -0.140669
v 0.422038 0.250000 -0.140669
v 0.417439 -0.250000 -0.086391
v 0.417439 0.250000 -0.086391
v 0.211367 -0.250000 -0.086391
v 0.211367 0.250000 -0.086391
v 0.202167 -0.250000 0.015725
v 0.202167 0.250000 0.015725
v 0.419279 -0.250000 0.015725
v 0.419279 0.250000 0.015725
v 0.414679 -0.250000 0.069082
v 0.414679 0.250000 0.069082
v 0.197567 -0.250000 0.069082
v 0.197567 0.250000 0.069082
v 0.184688 -0.250000 0.220876
v 0.184688 0.250000 0.220876
v -0.331411 -0.250000 0.220876
v -0.331411 0.250000 0.220876
v -0.313012 -0.250000 0.015725
v -0.313012 0.250000 0.015725
v 0.014495 -0.250000 0.015725
v 0.014495 0.250000 0.015725
v 0.023694 -0.250000 -0.086391
v 0.023694 0.250000 -0.086391
v -0.329571 -0.250000 -0.086391
v -0.329571 0.250000 -0.086391
v -0.324972 -0.250000 -0.140669
v -0.324972 0.250000 -0.140669
v 0.028294 -0.250000 -0.140669
v 0.028294 0.250000 -0.140669
v -0.139139 -0.250000 0.166598
v -0.139139 0.250000 0.166598
v 0.001615 -0.250000 0.166598
v 0.001615 0.250000 0.166598
v 0.009895 -0.250000 0.069082
v 0.009895 0.250000 0.069082
v -0.129939 -0.250000 0.069082
v -0.129939 0.250000 0.069082
vn -0.0000 1.0000 -0.0000
vn -0.0000 -1.0000 -0.0000
vn -0.7363 -0.0000 0.6766
vn -0.7377 -0.0000 0.6751
vn -0.6766 -0.0000 -0.7364
vn -0.7364 -0.0000 0.6766
vn -0.6758 -0.0000 -0.7371
vn 0.7371 -0.0000 -0.6758
vn 0.7364 -0.0000 -0.6766
vn 0.6766 -0.0000 0.7364
vn 0.6751 -0.0000 0.7377
vn 0.6766 -0.0000 0.7363
vn 0.7377 -0.0000 -0.6751
vn 0.7378 -0.0000 -0.6751
vn 0.6747 -0.0000 0.7381
vn 0.7381 -0.0000 -0.6746
vn 0.6746 -0.0000 0.7382
vn 0.7369 -0.0000 -0.6760
vn 0.7382 -0.0000 -0.6746
vn 0.6761 -0.0000 0.7368
vn 0.7369 -0.0000 -0.6761
vn 0.6765 -0.0000 0.7364
vn -0.7380 -0.0000 0.6748
vn -0.6748 -0.0000 -0.7380
vn -0.6746 -0.0000 -0.7382
vn -0.7381 -0.0000 0.6746
vn -0.6751 -0.0000 -0.7378
vn -0.6751 -0.0000 -0.7377
vn 0.7396 -0.0000 -0.6731
vn -0.7364 -0.0000 0.6765
vn -0.6765 -0.0000 -0.7364
vn 0.6731 -0.0000 0.7396
vt 0.896552 0.000000
vt 0.689655 0.000000
vt 0.655172 0.000000
vt 0.965517 0.000000
vt 0.724138 0.000000
vt 1.000000 0.000000
vt 0.758621 0.000000
vt 0.862069 0.000000
vt 0.827586 0.000000
vt 0.068966 0.000000
vt 0.034483 0.000000
vt 0.000000 0.000000
vt 0.103448 0.000000
vt 0.275862 0.000000
vt 0.241379 0.000000
vt 0.206897 0.000000
vt 0.482759 0.000000
vt 0.586207 0.000000
vt 0.551724 0.000000
vt 0.517241 0.000000
vt 0.344828 0.000000
vt 0.448276 0.000000
vt 0.413793 0.000000
vt 0.379310 0.000000
vt 0.310345 0.000000
vt 0.172414 0.000000
vt 0.137931 0.000000
vt 0.620690 0.000000
vt 0.931035 0.000000
vt 0.793103 0.000000
vt 0.038462 1.000000
vt 0.000000 1.000000
vt 0.076923 1.000000
vt 0.038462 0.000000
vt 0.115385 1.000000
vt 0.076923 0.000000
vt 0.153846 1.000000
vt 0.115385 0.000000
vt 0.192308 1.000000
vt 0.153846 0.000000
vt 0.230769 1.000000
vt 0.192308 0.000000
vt 0.269231 1.000000
vt 0.230769 0.000000
vt 0.307692 1.000000
vt 0.269231 0.000000
vt 0.346154 1.000000
vt 0.307692 0.000000
vt 0.384615 1.000000
vt 0.346154 0.000000
vt 0.423077 1.000000
vt 0.384615 0.000000
vt 0.461538 1.000000
vt 0.423077 0.000000
vt 0.500000 1.000000
vt 0.461538 0.000000
vt 0.538462 1.000000
vt 0.500000 0.000000
vt 0.576923 1.000000
vt 0.538462 0.000000
vt 0.615385 1.000000
vt 0.576923 0.000000
vt 0.653846 1.000000
vt 0.615385 0.000000
vt 0.692308 1.000000
vt 0.653846 0.000000
vt 0.730769 1.000000
vt 0.692308 0.000000
vt 0.769231 1.000000
vt 0.730769 0.000000
vt 0.807692 1.000000
vt 0.769231 0.000000
vt 0.846154 1.000000
vt 0.807692 0.000000
vt 0.884615 1.000000
vt 0.846154 0.000000
vt 0.923077 1.000000
vt 0.884615 0.000000
vt 0.961538 1.000000
vt 0.923077 0.000000
vt 1.000000 1.000000
vt 0.961538 0.000000
vt 0.250000 1.000000
vt 0.250000 0.000000
vt 0.750000 1.000000
vt 0.750000 0.000000
s 0
usemtl Material.006
f 27/1/1 21/2/1 20/3/1
f 29/4/1 22/5/1 30/6/1
f 21/2/1 27/1/1 30/6/1
f 30/6/1 22/5/1 21/2/1
f 23/7/1 26/8/1 25/9/1
f 3/10/1 2/11/1 1/12/1
f 1/12/1 4/13/1 3/10/1
f 9/14/1 8/15/1 7/16/1
f 15/17/1 18/18/1 17/19/1
f 17/19/1 16/20/1 15/17/1
f 11/21/1 14/22/1 13/23/1
f 13/23/1 12/24/1 11/21/1
f 9/14/1 7/16/1 10/25/1
f 7/16/1 6/26/1 5/27/1
f 27/1/1 20/3/1 19/28/1
f 28/29/1 27/1/1 19/28/1
f 19/28/1 18/18/1 28/29/1
f 29/4/1 28/29/1 18/18/1
f 22/5/1 29/4/1 18/18/1
f 18/18/1 15/17/1 22/5/1
f 23/7/1 22/5/1 15/17/1
f 15/17/1 14/22/1 23/7/1
f 26/8/1 23/7/1 14/22/1
f 14/22/1 11/21/1 26/8/1
f 1/12/1 26/8/1 11/21/1
f 11/21/1 10/25/1 1/12/1
f 4/13/1 1/12/1 10/25/1
f 10/25/1 7/16/1 4/13/1
f 7/16/1 5/27/1 4/13/1
f 25/9/1 24/30/1 23/7/1
f 57/1/2 50/3/2 51/2/2
f 59/4/2 60/6/2 52/5/2
f 51/2/2 60/6/2 57/1/2
f 60/6/2 51/2/2 52/5/2
f 53/7/2 55/9/2 56/8/2
f 33/10/2 31/12/2 32/11/2
f 31/12/2 33/10/2 34/13/2
f 39/14/2 37/16/2 38/15/2
f 45/17/2 47/19/2 48/18/2
f 47/19/2 45/17/2 46/20/2
f 41/21/2 43/23/2 44/22/2
f 43/23/2 41/21/2 42/24/2
f 39/14/2 40/25/2 37/16/2
f 37/16/2 35/27/2 36/26/2
f 57/1/2 49/28/2 50/3/2
f 58/29/2 49/28/2 57/1/2
f 49/28/2 58/29/2 48/18/2
f 59/4/2 48/18/2 58/29/2
f 52/5/2 48/18/2 59/4/2
f 48/18/2 52/5/2 45/17/2
f 53/7/2 45/17/2 52/5/2
f 45/17/2 53/7/2 44/22/2
f 56/8/2 44/22/2 53/7/2
f 44/22/2 56/8/2 41/21/2
f 31/12/2 41/21/2 56/8/2
f 41/21/2 31/12/2 40/25/2
f 34/13/2 40/25/2 31/12/2
f 40/25/2 34/13/2 37/16/2
f 37/16/2 34/13/2 35/27/2
f 55/9/2 53/7/2 54/30/2
s 1
f 64/31/3 61/12/4 62/32/4
f 66/33/5 63/34/6 64/31/3
f 68/35/7 65/36/5 66/33/5
f 70/37/7 67/38/7 68/35/7
f 72/39/8 69/40/7 70/37/7
f 74/41/8 71/42/8 72/39/8
f 76/43/9 73/44/8 74/41/8
f 78/45/10 75/46/9 76/43/9
f 80/47/11 77/48/12 78/45/10
f 82/49/13 79/50/11 80/47/11
f 84/51/9 81/52/14 82/49/13
f 86/53/10 83/54/9 84/51/9
f 88/55/15 85/56/12 86/53/10
f 90/57/16 87/58/17 88/55/15
f 92/59/18 89/60/19 90/57/16
f 94/61/20 91/62/21 92/59/18
f 96/63/10 93/64/20 94/61/20
f 98/65/22 95/66/22 96/63/10
f 100/67/23 97/68/22 98/65/22
f 102/69/24 99/70/23 100/67/23
f 104/71/25 101/72/24 102/69/24
f 106/73/26 103/74/25 104/71/25
f 108/75/3 105/76/26 106/73/26
f 110/77/5 107/78/6 108/75/3
f 112/79/27 109/80/5 110/77/5
f 62/81/4 111/82/28 112/79/27
f 116/83/5 113/12/29 114/32/29
f 118/55/30 115/84/31 116/83/5
f 120/85/32 117/58/30 118/55/30
f 114/81/29 119/86/32 120/85/32
f 64/31/3 63/34/6 61/12/4
f 66/33/5 65/36/5 63/34/6
f 68/35/7 67/38/7 65/36/5
f 70/37/7 69/40/7 67/38/7
f 72/39/8 71/42/8 69/40/7
f 74/41/8 73/44/8 71/42/8
f 76/43/9 75/46/9 73/44/8
f 78/45/10 77/48/12 75/46/9
f 80/47/11 79/50/11 77/48/12
f 82/49/13 81/52/14 79/50/11
f 84/51/9 83/54/9 81/52/14
f 86/53/10 85/56/12 83/54/9
f 88/55/15 87/58/17 85/56/12
f 90/57/16 89/60/19 87/58/17
f 92/59/18 91/62/21 89/60/19
f 94/61/20 93/64/20 91/62/21
f 96/63/10 95/66/22 93/64/20
f 98/65/22 97/68/22 95/66/22
f 100/67/23 99/70/23 97/68/22
f 102/69/24 101/72/24 99/70/23
f 104/71/25 103/74/25 101/72/24
f 106/73/26 105/76/26 103/74/25
f 108/75/3 107/78/6 105/76/26
f 110/77/5 109/80/5 107/78/6
f 112/79/27 111/82/28 109/80/5
f 62/81/4 61/6/4 111/82/28
f 116/83/5 115/84/31 113/12/29
f 118/55/30 117/58/30 115/84/31
f 120/85/32 119/86/32 117/58/30
f 114/81/29 113/6/29 119/86/32
