# Blender 5.2.1 LTS
# www.blender.org
mtllib playStartLogo8.mtl
o Text.001
v 0.353041 0.250000 0.220876
v 0.146969 0.250000 0.220876
v 0.241726 0.250000 -0.261184
v -0.336931 0.250000 -0.261184
v -0.332331 0.250000 -0.316382
v 0.333722 0.250000 -0.316382
v 0.327282 0.250000 -0.239105
v 0.358561 0.250000 -0.239105
v 0.366841 0.250000 -0.331102
v 0.407319 0.250000 -0.331102
v 0.399039 0.250000 -0.239105
v 0.428478 0.250000 -0.239105
v 0.436758 0.250000 -0.331102
v 0.477236 0.250000 -0.331102
v 0.468957 0.250000 -0.239105
v 0.443198 0.250000 -0.239105
v 0.353041 -0.250000 0.220876
v 0.146969 -0.250000 0.220876
v 0.241726 -0.250000 -0.261184
v -0.336931 -0.250000 -0.261184
v -0.332331 -0.250000 -0.316382
v 0.333722 -0.250000 -0.316382
v 0.327282 -0.250000 -0.239105
v 0.358561 -0.250000 -0.239105
v 0.366841 -0.250000 -0.331102
v 0.407319 -0.250000 -0.331102
v 0.399039 -0.250000 -0.239105
v 0.428478 -0.250000 -0.239105
v 0.436758 -0.250000 -0.331102
v 0.477236 -0.250000 -0.331102
v 0.468957 -0.250000 -0.239105
v 0.443198 -0.250000 -0.239105
v 0.353041 -0.250000 0.220876
v 0.353041 0.250000 0.220876
v 0.146969 -0.250000 0.220876
v 0.146969 0.250000 0.220876
v 0.241726 -0.250000 -0.261184
v 0.241726 0.250000 -0.261184
v -0.336931 -0.250000 -0.261184
v -0.336931 0.250000 -0.261184
v -0.332331 -0.250000 -0.316382
v -0.332331 0.250000 -0.316382
v 0.333722 -0.250000 -0.316382
v 0.333722 0.250000 -0.316382
v 0.327282 -0.250000 -0.239105
v 0.327282 0.250000 -0.239105
v 0.358561 -0.250000 -0.239105
v 0.358561 0.250000 -0.239105
v 0.366841 -0.250000 -0.331102
v 0.366841 0.250000 -0.331102
v 0.407319 -0.250000 -0.331102
v 0.407319 0.250000 -0.331102
v 0.399039 -0.250000 -0.239105
v 0.399039 0.250000 -0.239105
v 0.428478 -0.250000 -0.239105
v 0.428478 0.250000 -0.239105
v 0.436758 -0.250000 -0.331102
v 0.436758 0.250000 -0.331102
v 0.477236 -0.250000 -0.331102
v 0.477236 0.250000 -0.331102
v 0.468957 -0.250000 -0.239105
v 0.468957 0.250000 -0.239105
v 0.443198 -0.250000 -0.239105
v 0.443198 0.250000 -0.239105
vn -0.0000 1.0000 -0.0000
vn -0.0000 -1.0000 -0.0000
vn -0.7723 -0.0000 0.6352
vn 0.6355 -0.0000 0.7721
vn -0.7359 -0.0000 0.6771
vn -0.7723 -0.0000 0.6353
vn -0.6771 -0.0000 -0.7359
vn 0.7359 -0.0000 -0.6771
vn -0.6747 -0.0000 -0.7381
vn 0.7381 -0.0000 -0.6747
vn 0.6747 -0.0000 0.7381
vt 0.266667 0.000000
vt 0.200000 0.000000
vt 0.133333 0.000000
vt 0.000000 0.000000
vt 0.466667 0.000000
vt 0.400000 0.000000
vt 0.066667 0.000000
vt 0.333333 0.000000
vt 0.533333 0.000000
vt 0.666667 0.000000
vt 0.600000 0.000000
vt 0.800000 0.000000
vt 1.000000 0.000000
vt 0.933333 0.000000
vt 0.866667 0.000000
vt 0.733333 0.000000
vt 0.062500 1.000000
vt 0.000000 1.000000
vt 0.125000 1.000000
vt 0.062500 0.000000
vt 0.187500 1.000000
vt 0.125000 0.000000
vt 0.250000 1.000000
vt 0.187500 0.000000
vt 0.312500 1.000000
vt 0.250000 0.000000
vt 0.375000 1.000000
vt 0.312500 0.000000
vt 0.437500 1.000000
vt 0.375000 0.000000
vt 0.500000 1.000000
vt 0.437500 0.000000
vt 0.562500 1.000000
vt 0.500000 0.000000
vt 0.625000 1.000000
vt 0.562500 0.000000
vt 0.687500 1.000000
vt 0.625000 0.000000
vt 0.750000 1.000000
vt 0.687500 0.000000
vt 0.812500 1.000000
vt 0.750000 0.000000
vt 0.875000 1.000000
vt 0.812500 0.000000
vt 0.937500 1.000000
vt 0.875000 0.000000
vt 1.000000 1.000000
vt 0.937500 0.000000
s 0
usemtl Material.006
f 5/1/1 4/2/1 3/3/1
f 1/4/1 8/5/1 7/6/1
f 1/4/1 7/6/1 2/7/1
f 3/3/1 2/7/1 7/6/1
f 7/6/1 6/8/1 3/3/1
f 5/1/1 3/3/1 6/8/1
f 9/9/1 11/10/1 10/11/1
f 13/12/1 16/13/1 15/14/1
f 15/14/1 14/15/1 13/12/1
f 16/13/1 13/12/1 12/16/1
f 16/13/1 12/16/1 1/4/1
f 12/16/1 11/10/1 1/4/1
f 8/5/1 1/4/1 11/10/1
f 11/10/1 9/9/1 8/5/1
f 21/1/2 19/3/2 20/2/2
f 17/4/2 23/6/2 24/5/2
f 17/4/2 18/7/2 23/6/2
f 19/3/2 23/6/2 18/7/2
f 23/6/2 19/3/2 22/8/2
f 21/1/2 22/8/2 19/3/2
f 25/9/2 26/11/2 27/10/2
f 29/12/2 31/14/2 32/13/2
f 31/14/2 29/12/2 30/15/2
f 32/13/2 28/16/2 29/12/2
f 32/13/2 17/4/2 28/16/2
f 28/16/2 17/4/2 27/10/2
f 24/5/2 27/10/2 17/4/2
f 27/10/2 24/5/2 25/9/2
s 1
f 36/17/3 33/4/4 34/18/4
f 38/19/3 35/20/3 36/17/3
f 40/21/5 37/22/6 38/19/3
f 42/23/7 39/24/5 40/21/5
f 44/25/8 41/26/7 42/23/7
f 46/27/8 43/28/8 44/25/8
f 48/29/9 45/30/8 46/27/8
f 50/31/9 47/32/9 48/29/9
f 52/33/10 49/34/9 50/31/9
f 54/35/10 51/36/10 52/33/10
f 56/37/9 53/38/10 54/35/10
f 58/39/9 55/40/9 56/37/9
f 60/41/10 57/42/9 58/39/9
f 62/43/11 59/44/10 60/41/10
f 64/45/4 61/46/11 62/43/11
f 34/47/4 63/48/4 64/45/4
f 36/17/3 35/20/3 33/4/4
f 38/19/3 37/22/6 35/20/3
f 40/21/5 39/24/5 37/22/6
f 42/23/7 41/26/7 39/24/5
f 44/25/8 43/28/8 41/26/7
f 46/27/8 45/30/8 43/28/8
f 48/29/9 47/32/9 45/30/8
f 50/31/9 49/34/9 47/32/9
f 52/33/10 51/36/10 49/34/9
f 54/35/10 53/38/10 51/36/10
f 56/37/9 55/40/9 53/38/10
f 58/39/9 57/42/9 55/40/9
f 60/41/10 59/44/10 57/42/9
f 62/43/11 61/46/11 59/44/10
f 64/45/4 63/48/4 61/46/11
f 34/47/4 33/13/4 63/48/4
