# Blender 5.2.1 LTS
# www.blender.org
mtllib playStartLogo4.mtl
o Text.001
v 0.094532 0.250000 -0.229906
v -0.341531 0.250000 -0.229906
v -0.336931 0.250000 -0.283264
v 0.459757 0.250000 -0.283264
v 0.455157 0.250000 -0.229906
v 0.332802 0.250000 -0.229906
v -0.048983 0.250000 0.148199
v 0.376960 0.250000 0.167518
v 0.372360 0.250000 0.220876
v -0.284493 0.250000 0.192357
v -0.279893 0.250000 0.138080
v 0.094532 -0.250000 -0.229906
v -0.341531 -0.250000 -0.229906
v -0.336931 -0.250000 -0.283264
v 0.459757 -0.250000 -0.283264
v 0.455157 -0.250000 -0.229906
v 0.332802 -0.250000 -0.229906
v -0.048983 -0.250000 0.148199
v 0.376960 -0.250000 0.167518
v 0.372360 -0.250000 0.220876
v -0.284493 -0.250000 0.192357
v -0.279893 -0.250000 0.138080
v 0.094532 -0.250000 -0.229906
v 0.094532 0.250000 -0.229906
v -0.341531 -0.250000 -0.229906
v -0.341531 0.250000 -0.229906
v -0.336931 -0.250000 -0.283264
v -0.336931 0.250000 -0.283264
v 0.459757 -0.250000 -0.283264
v 0.459757 0.250000 -0.283264
v 0.455157 -0.250000 -0.229906
v 0.455157 0.250000 -0.229906
v 0.332802 -0.250000 -0.229906
v 0.332802 0.250000 -0.229906
v -0.048983 -0.250000 0.148199
v -0.048983 0.250000 0.148199
v 0.376960 -0.250000 0.167518
v 0.376960 0.250000 0.167518
v 0.372360 -0.250000 0.220876
v 0.372360 0.250000 0.220876
v -0.284493 -0.250000 0.192357
v -0.284493 0.250000 0.192357
v -0.279893 -0.250000 0.138080
v -0.279893 0.250000 0.138080
vn -0.0000 1.0000 -0.0000
vn -0.0000 -1.0000 -0.0000
vn -0.7368 -0.0000 0.6761
vn -0.9255 -0.0000 0.3787
vn -0.9256 -0.0000 0.3786
vn -0.6761 -0.0000 -0.7368
vn -0.7369 -0.0000 0.6761
vn 0.7368 -0.0000 -0.6761
vn 0.6761 -0.0000 0.7368
vn 0.7369 -0.0000 -0.6761
vn 0.3805 -0.0000 0.9248
vn 0.9332 -0.0000 -0.3593
vn 0.7520 -0.0000 -0.6592
vn 0.9332 -0.0000 -0.3594
vn 0.6599 -0.0000 0.7513
vn -0.7508 -0.0000 0.6605
vn 0.6599 -0.0000 0.7514
vn -0.9050 -0.0000 -0.4253
vn -0.7509 -0.0000 0.6605
vt 1.000000 0.000000
vt 0.900000 0.000000
vt 0.600000 0.000000
vt 0.000000 0.000000
vt 0.500000 0.000000
vt 0.400000 0.000000
vt 0.300000 0.000000
vt 0.800000 0.000000
vt 0.700000 0.000000
vt 0.200000 0.000000
vt 0.100000 0.000000
vt 0.090909 1.000000
vt 0.000000 1.000000
vt 0.181818 1.000000
vt 0.090909 0.000000
vt 0.272727 1.000000
vt 0.181818 0.000000
vt 0.363636 1.000000
vt 0.272727 0.000000
vt 0.454545 1.000000
vt 0.363636 0.000000
vt 0.545455 1.000000
vt 0.454545 0.000000
vt 0.636364 1.000000
vt 0.545455 0.000000
vt 0.727273 1.000000
vt 0.636364 0.000000
vt 0.818182 1.000000
vt 0.727273 0.000000
vt 0.909091 1.000000
vt 0.818182 0.000000
vt 1.000000 1.000000
vt 0.909091 0.000000
s 0
usemtl Material.006
f 11/1/1 10/2/1 7/3/1
f 11/1/1 7/3/1 1/4/1
f 6/5/1 1/4/1 7/3/1
f 5/6/1 4/7/1 6/5/1
f 1/4/1 6/5/1 4/7/1
f 7/3/1 10/2/1 9/8/1
f 9/8/1 8/9/1 7/3/1
f 3/10/1 2/11/1 1/4/1
f 1/4/1 4/7/1 3/10/1
f 22/1/2 18/3/2 21/2/2
f 22/1/2 12/4/2 18/3/2
f 17/5/2 18/3/2 12/4/2
f 16/6/2 17/5/2 15/7/2
f 12/4/2 15/7/2 17/5/2
f 18/3/2 20/8/2 21/2/2
f 20/8/2 18/3/2 19/9/2
f 14/10/2 12/4/2 13/11/2
f 12/4/2 14/10/2 15/7/2
s 1
f 26/12/3 23/4/4 24/13/5
f 28/14/6 25/15/7 26/12/3
f 30/16/8 27/17/6 28/14/6
f 32/18/9 29/19/10 30/16/8
f 34/20/11 31/21/9 32/18/9
f 36/22/12 33/23/11 34/20/11
f 38/24/13 35/25/14 36/22/12
f 40/26/15 37/27/13 38/24/13
f 42/28/16 39/29/17 40/26/15
f 44/30/18 41/31/19 42/28/16
f 24/32/5 43/33/18 44/30/18
f 26/12/3 25/15/7 23/4/4
f 28/14/6 27/17/6 25/15/7
f 30/16/8 29/19/10 27/17/6
f 32/18/9 31/21/9 29/19/10
f 34/20/11 33/23/11 31/21/9
f 36/22/12 35/25/14 33/23/11
f 38/24/13 37/27/13 35/25/14
f 40/26/15 39/29/17 37/27/13
f 42/28/16 41/31/19 39/29/17
f 44/30/18 43/33/18 41/31/19
f 24/32/5 23/1/4 43/33/18
