# Blender 5.2.1 LTS
# www.blender.org
mtllib playStartLogo3.mtl
o Text.001
v 0.393520 0.250000 0.220876
v 0.205847 0.250000 0.220876
v 0.243566 0.250000 -0.197707
v 0.217807 0.250000 -0.197707
v 0.134090 0.250000 0.220876
v -0.359010 0.250000 0.220876
v -0.354410 0.250000 0.166598
v -0.316692 0.250000 -0.251985
v -0.132699 0.250000 -0.251985
v -0.133619 0.250000 -0.320062
v -0.003904 0.250000 -0.320062
v -0.002985 0.250000 -0.251985
v 0.054053 0.250000 -0.251985
v 0.067853 0.250000 -0.320062
v 0.241726 0.250000 -0.320062
v 0.227926 0.250000 -0.251985
v 0.435838 0.250000 -0.251985
v -0.018624 0.250000 0.119680
v -0.129019 0.250000 0.119680
v -0.132699 0.250000 -0.197707
v -0.148339 0.250000 -0.197707
v -0.179617 0.250000 0.166598
v -0.027824 0.250000 0.166598
v -0.000225 0.250000 0.024924
v -0.002985 0.250000 -0.197707
v 0.043934 0.250000 -0.197707
v 0.393520 -0.250000 0.220876
v 0.205847 -0.250000 0.220876
v 0.243566 -0.250000 -0.197707
v 0.217807 -0.250000 -0.197707
v 0.134090 -0.250000 0.220876
v -0.359010 -0.250000 0.220876
v -0.354410 -0.250000 0.166598
v -0.316692 -0.250000 -0.251985
v -0.132699 -0.250000 -0.251985
v -0.133619 -0.250000 -0.320062
v -0.003904 -0.250000 -0.320062
v -0.002985 -0.250000 -0.251985
v 0.054053 -0.250000 -0.251985
v 0.067853 -0.250000 -0.320062
v 0.241726 -0.250000 -0.320062
v 0.227926 -0.250000 -0.251985
v 0.435838 -0.250000 -0.251985
v -0.018624 -0.250000 0.119680
v -0.129019 -0.250000 0.119680
v -0.132699 -0.250000 -0.197707
v -0.148339 -0.250000 -0.197707
v -0.179617 -0.250000 0.166598
v -0.027824 -0.250000 0.166598
v -0.000225 -0.250000 0.024924
v -0.002985 -0.250000 -0.197707
v 0.043934 -0.250000 -0.197707
v 0.393520 -0.250000 0.220876
v 0.393520 0.250000 0.220876
v 0.205847 -0.250000 0.220876
v 0.205847 0.250000 0.220876
v 0.243566 -0.250000 -0.197707
v 0.243566 0.250000 -0.197707
v 0.217807 -0.250000 -0.197707
v 0.217807 0.250000 -0.197707
v 0.134090 -0.250000 0.220876
v 0.134090 0.250000 0.220876
v -0.359010 -0.250000 0.220876
v -0.359010 0.250000 0.220876
v -0.354410 -0.250000 0.166598
v -0.354410 0.250000 0.166598
v -0.316692 -0.250000 -0.251985
v -0.316692 0.250000 -0.251985
v -0.132699 -0.250000 -0.251985
v -0.132699 0.250000 -0.251985
v -0.133619 -0.250000 -0.320062
v -0.133619 0.250000 -0.320062
v -0.003904 -0.250000 -0.320062
v -0.003904 0.250000 -0.320062
v -0.002985 -0.250000 -0.251985
v -0.002985 0.250000 -0.251985
v 0.054053 -0.250000 -0.251985
v 0.054053 0.250000 -0.251985
v 0.067853 -0.250000 -0.320062
v 0.067853 0.250000 -0.320062
v 0.241726 -0.250000 -0.320062
v 0.241726 0.250000 -0.320062
v 0.227926 -0.250000 -0.251985
v 0.227926 0.250000 -0.251985
v 0.435838 -0.250000 -0.251985
v 0.435838 0.250000 -0.251985
v -0.018624 -0.250000 0.119680
v -0.018624 0.250000 0.119680
v -0.129019 -0.250000 0.119680
v -0.129019 0.250000 0.119680
v -0.132699 -0.250000 -0.197707
v -0.132699 0.250000 -0.197707
v -0.148339 -0.250000 -0.197707
v -0.148339 0.250000 -0.197707
v -0.179617 -0.250000 0.166598
v -0.179617 0.250000 0.166598
v -0.027824 -0.250000 0.166598
v -0.027824 0.250000 0.166598
v -0.000225 -0.250000 0.024924
v -0.000225 0.250000 0.024924
v -0.002985 -0.250000 -0.197707
v -0.002985 0.250000 -0.197707
v 0.043934 -0.250000 -0.197707
v 0.043934 0.250000 -0.197707
vn -0.0000 1.0000 -0.0000
vn -0.0000 -1.0000 -0.0000
vn -0.7382 -0.0000 0.6746
vn 0.6749 -0.0000 0.7379
vn 0.6340 -0.0000 0.7733
vn -0.7381 -0.0000 0.6746
vn -0.7363 -0.0000 0.6766
vn 0.6340 -0.0000 0.7734
vn -0.9962 -0.0000 -0.0871
vn -0.7364 -0.0000 0.6766
vn -0.6746 -0.0000 -0.7381
vn -0.7119 -0.0000 -0.7023
vn 0.7023 -0.0000 -0.7119
vn -0.6330 -0.0000 -0.7742
vn 0.7742 -0.0000 -0.6330
vn 0.7380 -0.0000 -0.6748
vn -0.7030 -0.0000 0.7112
vn -0.7722 -0.0000 0.6354
vn -0.7721 -0.0000 0.6354
vn 0.6762 -0.0000 0.7367
vn 0.7367 -0.0000 -0.6762
vn -0.6355 -0.0000 -0.7721
vn -0.7115 -0.0000 -0.7027
vn -0.0914 -0.0000 0.9958
vn -0.0918 -0.0000 0.9958
vn 0.7728 -0.0000 -0.6346
vt 0.240000 0.000000
vt 0.200000 0.000000
vt 0.840000 0.000000
vt 0.280000 0.000000
vt 0.800000 0.000000
vt 0.320000 0.000000
vt 0.760000 0.000000
vt 0.960000 0.000000
vt 0.400000 0.000000
vt 0.360000 0.000000
vt 0.440000 0.000000
vt 1.000000 0.000000
vt 0.480000 0.000000
vt 0.000000 0.000000
vt 0.640000 0.000000
vt 0.080000 0.000000
vt 0.040000 0.000000
vt 0.600000 0.000000
vt 0.120000 0.000000
vt 0.920000 0.000000
vt 0.160000 0.000000
vt 0.520000 0.000000
vt 0.560000 0.000000
vt 0.880000 0.000000
vt 0.680000 0.000000
vt 0.720000 0.000000
vt 0.058824 1.000000
vt 0.000000 1.000000
vt 0.117647 1.000000
vt 0.058824 0.000000
vt 0.176471 1.000000
vt 0.117647 0.000000
vt 0.235294 1.000000
vt 0.176471 0.000000
vt 0.294118 1.000000
vt 0.235294 0.000000
vt 0.352941 1.000000
vt 0.294118 0.000000
vt 0.411765 1.000000
vt 0.352941 0.000000
vt 0.470588 1.000000
vt 0.411765 0.000000
vt 0.529412 1.000000
vt 0.470588 0.000000
vt 0.588235 1.000000
vt 0.529412 0.000000
vt 0.647059 1.000000
vt 0.588235 0.000000
vt 0.705882 1.000000
vt 0.647059 0.000000
vt 0.764706 1.000000
vt 0.705882 0.000000
vt 0.823529 1.000000
vt 0.764706 0.000000
vt 0.882353 1.000000
vt 0.823529 0.000000
vt 0.941176 1.000000
vt 0.882353 0.000000
vt 1.000000 1.000000
vt 0.941176 0.000000
vt 0.166667 1.000000
vt 0.333333 1.000000
vt 0.166667 0.000000
vt 0.500000 1.000000
vt 0.333333 0.000000
vt 0.666667 1.000000
vt 0.500000 0.000000
vt 0.833333 1.000000
vt 0.666667 0.000000
vt 0.833333 0.000000
s 0
usemtl Material.006
f 7/1/1 6/2/1 22/3/1
f 8/4/1 7/1/1 21/5/1
f 9/6/1 20/7/1 25/8/1
f 7/1/1 22/3/1 21/5/1
f 20/7/1 9/6/1 21/5/1
f 8/4/1 21/5/1 9/6/1
f 9/6/1 11/9/1 10/10/1
f 12/11/1 26/12/1 13/13/1
f 1/14/1 17/15/1 3/16/1
f 1/14/1 3/16/1 2/17/1
f 16/18/1 4/19/1 3/16/1
f 3/16/1 17/15/1 16/18/1
f 24/20/1 5/21/1 4/19/1
f 26/12/1 24/20/1 4/19/1
f 13/13/1 26/12/1 4/19/1
f 4/19/1 16/18/1 13/13/1
f 14/22/1 13/13/1 16/18/1
f 16/18/1 15/23/1 14/22/1
f 22/3/1 6/2/1 5/21/1
f 23/24/1 22/3/1 5/21/1
f 18/25/1 23/24/1 5/21/1
f 5/21/1 24/20/1 18/25/1
f 19/26/1 18/25/1 24/20/1
f 19/26/1 24/20/1 20/7/1
f 25/8/1 20/7/1 24/20/1
f 26/12/1 12/11/1 25/8/1
f 9/6/1 25/8/1 12/11/1
f 11/9/1 9/6/1 12/11/1
f 33/1/2 48/3/2 32/2/2
f 34/4/2 47/5/2 33/1/2
f 35/6/2 51/8/2 46/7/2
f 33/1/2 47/5/2 48/3/2
f 46/7/2 47/5/2 35/6/2
f 34/4/2 35/6/2 47/5/2
f 35/6/2 36/10/2 37/9/2
f 38/11/2 39/13/2 52/12/2
f 27/14/2 29/16/2 43/15/2
f 27/14/2 28/17/2 29/16/2
f 42/18/2 29/16/2 30/19/2
f 29/16/2 42/18/2 43/15/2
f 50/20/2 30/19/2 31/21/2
f 52/12/2 30/19/2 50/20/2
f 39/13/2 30/19/2 52/12/2
f 30/19/2 39/13/2 42/18/2
f 40/22/2 42/18/2 39/13/2
f 42/18/2 40/22/2 41/23/2
f 48/3/2 31/21/2 32/2/2
f 49/24/2 31/21/2 48/3/2
f 44/25/2 31/21/2 49/24/2
f 31/21/2 44/25/2 50/20/2
f 45/26/2 50/20/2 44/25/2
f 45/26/2 46/7/2 50/20/2
f 51/8/2 50/20/2 46/7/2
f 52/12/2 51/8/2 38/11/2
f 35/6/2 38/11/2 51/8/2
f 37/9/2 38/11/2 35/6/2
s 1
f 56/27/3 53/14/4 54/28/4
f 58/29/3 55/30/3 56/27/3
f 60/31/5 57/32/6 58/29/3
f 62/33/5 59/34/5 60/31/5
f 64/35/7 61/36/8 62/33/5
f 66/37/9 63/38/10 64/35/7
f 68/39/11 65/40/9 66/37/9
f 70/41/12 67/42/11 68/39/11
f 72/43/12 69/44/12 70/41/12
f 74/45/13 71/46/12 72/43/12
f 76/47/13 73/48/13 74/45/13
f 78/49/14 75/50/13 76/47/13
f 80/51/14 77/52/14 78/49/14
f 82/53/15 79/54/14 80/51/14
f 84/55/15 81/56/15 82/53/15
f 86/57/16 83/58/15 84/55/15
f 54/59/4 85/60/16 86/57/16
f 90/61/17 87/14/18 88/28/19
f 92/62/17 89/63/17 90/61/17
f 94/64/20 91/65/17 92/62/17
f 96/66/21 93/67/20 94/64/20
f 98/68/22 95/69/21 96/66/21
f 88/59/19 97/70/22 98/68/22
f 102/62/23 99/14/24 100/28/25
f 104/66/26 101/65/23 102/62/23
f 100/59/25 103/69/26 104/66/26
f 56/27/3 55/30/3 53/14/4
f 58/29/3 57/32/6 55/30/3
f 60/31/5 59/34/5 57/32/6
f 62/33/5 61/36/8 59/34/5
f 64/35/7 63/38/10 61/36/8
f 66/37/9 65/40/9 63/38/10
f 68/39/11 67/42/11 65/40/9
f 70/41/12 69/44/12 67/42/11
f 72/43/12 71/46/12 69/44/12
f 74/45/13 73/48/13 71/46/12
f 76/47/13 75/50/13 73/48/13
f 78/49/14 77/52/14 75/50/13
f 80/51/14 79/54/14 77/52/14
f 82/53/15 81/56/15 79/54/14
f 84/55/15 83/58/15 81/56/15
f 86/57/16 85/60/16 83/58/15
f 54/59/4 53/12/4 85/60/16
f 90/61/17 89/63/17 87/14/18
f 92/62/17 91/65/17 89/63/17
f 94/64/20 93/67/20 91/65/17
f 96/66/21 95/69/21 93/67/20
f 98/68/22 97/70/22 95/69/21
f 88/59/19 87/12/18 97/70/22
f 102/62/23 101/65/23 99/14/24
f 104/66/26 103/69/26 101/65/23
f 100/59/25 99/12/24 103/69/26
