# Blender 5.2.1 LTS
# www.blender.org
mtllib playStartLogo1.mtl
o Text.001
v -0.156618 0.250000 -0.227146
v -0.305652 0.250000 -0.227146
v -0.301053 0.250000 -0.281424
v -0.097741 0.250000 -0.281424
v -0.056342 0.250000 -0.320062
v 0.130410 0.250000 -0.320062
v 0.089012 0.250000 -0.281424
v 0.412839 0.250000 -0.281424
v 0.408239 0.250000 -0.227146
v 0.031054 0.250000 -0.227146
v -0.071982 0.250000 -0.131470
v 0.220567 0.250000 -0.131470
v 0.213207 0.250000 -0.054193
v 0.433078 0.250000 -0.063392
v 0.428478 0.250000 -0.009114
v 0.208607 0.250000 0.000085
v 0.200327 0.250000 0.085642
v 0.012655 0.250000 0.085642
v 0.020015 0.250000 0.007445
v -0.090381 0.250000 0.012045
v -0.103261 0.250000 0.166598
v 0.371440 0.250000 0.166598
v 0.366841 0.250000 0.220876
v -0.295533 0.250000 0.220876
v -0.274374 0.250000 -0.033953
v 0.025534 0.250000 -0.046833
v 0.028294 0.250000 -0.077192
v -0.317612 0.250000 -0.077192
v -0.156618 -0.250000 -0.227146
v -0.305652 -0.250000 -0.227146
v -0.301053 -0.250000 -0.281424
v -0.097741 -0.250000 -0.281424
v -0.056342 -0.250000 -0.320062
v 0.130410 -0.250000 -0.320062
v 0.089012 -0.250000 -0.281424
v 0.412839 -0.250000 -0.281424
v 0.408239 -0.250000 -0.227146
v 0.031054 -0.250000 -0.227146
v -0.071982 -0.250000 -0.131470
v 0.220567 -0.250000 -0.131470
v 0.213207 -0.250000 -0.054193
v 0.433078 -0.250000 -0.063392
v 0.428478 -0.250000 -0.009114
v 0.208607 -0.250000 0.000085
v 0.200327 -0.250000 0.085642
v 0.012655 -0.250000 0.085642
v 0.020015 -0.250000 0.007445
v -0.090381 -0.250000 0.012045
v -0.103261 -0.250000 0.166598
v 0.371440 -0.250000 0.166598
v 0.366841 -0.250000 0.220876
v -0.295533 -0.250000 0.220876
v -0.274374 -0.250000 -0.033953
v 0.025534 -0.250000 -0.046833
v 0.028294 -0.250000 -0.077192
v -0.317612 -0.250000 -0.077192
v -0.156618 -0.250000 -0.227146
v -0.156618 0.250000 -0.227146
v -0.305652 -0.250000 -0.227146
v -0.305652 0.250000 -0.227146
v -0.301053 -0.250000 -0.281424
v -0.301053 0.250000 -0.281424
v -0.097741 -0.250000 -0.281424
v -0.097741 0.250000 -0.281424
v -0.056342 -0.250000 -0.320062
v -0.056342 0.250000 -0.320062
v 0.130410 -0.250000 -0.320062
v 0.130410 0.250000 -0.320062
v 0.089012 -0.250000 -0.281424
v 0.089012 0.250000 -0.281424
v 0.412839 -0.250000 -0.281424
v 0.412839 0.250000 -0.281424
v 0.408239 -0.250000 -0.227146
v 0.408239 0.250000 -0.227146
v 0.031054 -0.250000 -0.227146
v 0.031054 0.250000 -0.227146
v -0.071982 -0.250000 -0.131470
v -0.071982 0.250000 -0.131470
v 0.220567 -0.250000 -0.131470
v 0.220567 0.250000 -0.131470
v 0.213207 -0.250000 -0.054193
v 0.213207 0.250000 -0.054193
v 0.433078 -0.250000 -0.063392
v 0.433078 0.250000 -0.063392
v 0.428478 -0.250000 -0.009114
v 0.428478 0.250000 -0.009114
v 0.208607 -0.250000 0.000085
v 0.208607 0.250000 0.000085
v 0.200327 -0.250000 0.085642
v 0.200327 0.250000 0.085642
v 0.012655 -0.250000 0.085642
v 0.012655 0.250000 0.085642
v 0.020015 -0.250000 0.007445
v 0.020015 0.250000 0.007445
v -0.090381 -0.250000 0.012045
v -0.090381 0.250000 0.012045
v -0.103261 -0.250000 0.166598
v -0.103261 0.250000 0.166598
v 0.371440 -0.250000 0.166598
v 0.371440 0.250000 0.166598
v 0.366841 -0.250000 0.220876
v 0.366841 0.250000 0.220876
v -0.295533 -0.250000 0.220876
v -0.295533 0.250000 0.220876
v -0.274374 -0.250000 -0.033953
v -0.274374 0.250000 -0.033953
v 0.025534 -0.250000 -0.046833
v 0.025534 0.250000 -0.046833
v 0.028294 -0.250000 -0.077192
v 0.028294 0.250000 -0.077192
v -0.317612 -0.250000 -0.077192
v -0.317612 0.250000 -0.077192
vn -0.0000 1.0000 -0.0000
vn -0.0000 -1.0000 -0.0000
vn -0.7364 -0.0000 0.6766
vn -0.9305 -0.0000 0.3662
vn -0.9305 -0.0000 0.3663
vn -0.6766 -0.0000 -0.7364
vn -0.3667 -0.0000 -0.9303
vn -0.6766 -0.0000 -0.7363
vn 0.9304 -0.0000 -0.3666
vn 0.9303 -0.0000 -0.3667
vn 0.7364 -0.0000 -0.6766
vn 0.6766 -0.0000 0.7364
vn 0.3655 -0.0000 0.9308
vn 0.9308 -0.0000 -0.3656
vn 0.7399 -0.0000 -0.6727
vn 0.9308 -0.0000 -0.3655
vn 0.7256 -0.0000 -0.6881
vn 0.7399 -0.0000 -0.6728
vn 0.7221 -0.0000 -0.6918
vn 0.7257 -0.0000 -0.6881
vn 0.6918 -0.0000 0.7220
vn 0.6875 -0.0000 0.7262
vn 0.6919 -0.0000 0.7220
vn 0.6722 -0.0000 0.7404
vn -0.7395 -0.0000 0.6731
vn -0.7253 -0.0000 0.6884
vn -0.7395 -0.0000 0.6732
vn 0.6923 -0.0000 0.7216
vn 0.7359 -0.0000 -0.6771
vn 0.7363 -0.0000 -0.6766
vn -0.7358 -0.0000 0.6772
vn -0.6928 -0.0000 -0.7211
vn -0.6900 -0.0000 -0.7238
vn -0.6929 -0.0000 -0.7211
vn -0.7384 -0.0000 0.6743
vt 0.888889 0.000000
vt 0.851852 0.000000
vt 0.740741 0.000000
vt 0.074074 0.000000
vt 0.037037 0.000000
vt 0.000000 0.000000
vt 0.666667 0.000000
vt 0.925926 0.000000
vt 0.703704 0.000000
vt 0.370370 0.000000
vt 0.111111 0.000000
vt 0.296296 0.000000
vt 0.259259 0.000000
vt 0.222222 0.000000
vt 0.444444 0.000000
vt 0.555556 0.000000
vt 0.518519 0.000000
vt 0.481481 0.000000
vt 0.962963 0.000000
vt 0.407407 0.000000
vt 0.814815 0.000000
vt 0.777778 0.000000
vt 0.629630 0.000000
vt 0.592593 0.000000
vt 1.000000 0.000000
vt 0.333333 0.000000
vt 0.148148 0.000000
vt 0.185185 0.000000
vt 0.035714 1.000000
vt 0.000000 1.000000
vt 0.071429 1.000000
vt 0.035714 0.000000
vt 0.107143 1.000000
vt 0.071429 0.000000
vt 0.142857 1.000000
vt 0.107143 0.000000
vt 0.178571 1.000000
vt 0.142857 0.000000
vt 0.214286 1.000000
vt 0.178571 0.000000
vt 0.250000 1.000000
vt 0.214286 0.000000
vt 0.285714 1.000000
vt 0.250000 0.000000
vt 0.321429 1.000000
vt 0.285714 0.000000
vt 0.357143 1.000000
vt 0.321429 0.000000
vt 0.392857 1.000000
vt 0.357143 0.000000
vt 0.428571 1.000000
vt 0.392857 0.000000
vt 0.464286 1.000000
vt 0.428571 0.000000
vt 0.500000 1.000000
vt 0.464286 0.000000
vt 0.535714 1.000000
vt 0.500000 0.000000
vt 0.571429 1.000000
vt 0.535714 0.000000
vt 0.607143 1.000000
vt 0.571429 0.000000
vt 0.642857 1.000000
vt 0.607143 0.000000
vt 0.678571 1.000000
vt 0.642857 0.000000
vt 0.714286 1.000000
vt 0.678571 0.000000
vt 0.750000 1.000000
vt 0.714286 0.000000
vt 0.785714 1.000000
vt 0.750000 0.000000
vt 0.821429 1.000000
vt 0.785714 0.000000
vt 0.857143 1.000000
vt 0.821429 0.000000
vt 0.892857 1.000000
vt 0.857143 0.000000
vt 0.928571 1.000000
vt 0.892857 0.000000
vt 0.964286 1.000000
vt 0.928571 0.000000
vt 1.000000 1.000000
vt 0.964286 0.000000
s 0
usemtl Material.006
f 25/1/1 24/2/1 21/3/1
f 3/4/1 2/5/1 1/6/1
f 19/7/1 26/8/1 20/9/1
f 25/1/1 21/3/1 20/9/1
f 20/9/1 26/8/1 25/1/1
f 11/10/1 4/11/1 1/6/1
f 3/4/1 1/6/1 4/11/1
f 9/12/1 8/13/1 7/14/1
f 13/15/1 16/16/1 15/17/1
f 15/17/1 14/18/1 13/15/1
f 27/19/1 13/15/1 12/20/1
f 21/3/1 24/2/1 23/21/1
f 23/21/1 22/22/1 21/3/1
f 19/7/1 18/23/1 17/24/1
f 17/24/1 16/16/1 19/7/1
f 26/8/1 19/7/1 16/16/1
f 16/16/1 13/15/1 26/8/1
f 13/15/1 27/19/1 26/8/1
f 1/6/1 28/25/1 11/10/1
f 27/19/1 12/20/1 11/10/1
f 4/11/1 11/10/1 10/26/1
f 5/27/1 4/11/1 10/26/1
f 10/26/1 7/14/1 5/27/1
f 7/14/1 6/28/1 5/27/1
f 7/14/1 10/26/1 9/12/1
f 27/19/1 11/10/1 28/25/1
f 53/1/2 49/3/2 52/2/2
f 31/4/2 29/6/2 30/5/2
f 47/7/2 48/9/2 54/8/2
f 53/1/2 48/9/2 49/3/2
f 48/9/2 53/1/2 54/8/2
f 39/10/2 29/6/2 32/11/2
f 31/4/2 32/11/2 29/6/2
f 37/12/2 35/14/2 36/13/2
f 41/15/2 43/17/2 44/16/2
f 43/17/2 41/15/2 42/18/2
f 55/19/2 40/20/2 41/15/2
f 49/3/2 51/21/2 52/2/2
f 51/21/2 49/3/2 50/22/2
f 47/7/2 45/24/2 46/23/2
f 45/24/2 47/7/2 44/16/2
f 54/8/2 44/16/2 47/7/2
f 44/16/2 54/8/2 41/15/2
f 41/15/2 54/8/2 55/19/2
f 29/6/2 39/10/2 56/25/2
f 55/19/2 39/10/2 40/20/2
f 32/11/2 38/26/2 39/10/2
f 33/27/2 38/26/2 32/11/2
f 38/26/2 33/27/2 35/14/2
f 35/14/2 33/27/2 34/28/2
f 35/14/2 37/12/2 38/26/2
f 55/19/2 56/25/2 39/10/2
s 1
f 60/29/3 57/6/4 58/30/5
f 62/31/6 59/32/3 60/29/3
f 64/33/7 61/34/8 62/31/6
f 66/35/7 63/36/7 64/33/7
f 68/37/9 65/38/7 66/35/7
f 70/39/10 67/40/10 68/37/9
f 72/41/11 69/42/10 70/39/10
f 74/43/12 71/44/11 72/41/11
f 76/45/13 73/46/12 74/43/12
f 78/47/14 75/48/13 76/45/13
f 80/49/15 77/50/16 78/47/14
f 82/51/17 79/52/18 80/49/15
f 84/53/19 81/54/20 82/51/17
f 86/55/21 83/56/19 84/53/19
f 88/57/22 85/58/23 86/55/21
f 90/59/24 87/60/22 88/57/22
f 92/61/25 89/62/24 90/59/24
f 94/63/26 91/64/27 92/61/25
f 96/65/28 93/66/26 94/63/26
f 98/67/29 95/68/28 96/65/28
f 100/69/30 97/70/29 98/67/29
f 102/71/12 99/72/11 100/69/30
f 104/73/31 101/74/12 102/71/12
f 106/75/32 103/76/31 104/73/31
f 108/77/33 105/78/34 106/75/32
f 110/79/35 107/80/33 108/77/33
f 112/81/5 109/82/35 110/79/35
f 58/83/5 111/84/5 112/81/5
f 60/29/3 59/32/3 57/6/4
f 62/31/6 61/34/8 59/32/3
f 64/33/7 63/36/7 61/34/8
f 66/35/7 65/38/7 63/36/7
f 68/37/9 67/40/10 65/38/7
f 70/39/10 69/42/10 67/40/10
f 72/41/11 71/44/11 69/42/10
f 74/43/12 73/46/12 71/44/11
f 76/45/13 75/48/13 73/46/12
f 78/47/14 77/50/16 75/48/13
f 80/49/15 79/52/18 77/50/16
f 82/51/17 81/54/20 79/52/18
f 84/53/19 83/56/19 81/54/20
f 86/55/21 85/58/23 83/56/19
f 88/57/22 87/60/22 85/58/23
f 90/59/24 89/62/24 87/60/22
f 92/61/25 91/64/27 89/62/24
f 94/63/26 93/66/26 91/64/27
f 96/65/28 95/68/28 93/66/26
f 98/67/29 97/70/29 95/68/28
f 100/69/30 99/72/11 97/70/29
f 102/71/12 101/74/12 99/72/11
f 104/73/31 103/76/31 101/74/12
f 106/75/32 105/78/34 103/76/31
f 108/77/33 107/80/33 105/78/34
f 110/79/35 109/82/35 107/80/33
f 112/81/5 111/84/5 109/82/35
f 58/83/5 57/25/4 111/84/5
