# Blender 5.2.1 LTS
# www.blender.org
mtllib playStartLogo11.mtl
o Text.001
v 0.191128 0.250000 -0.255665
v -0.096821 0.250000 -0.255665
v -0.092221 0.250000 -0.309942
v 0.329122 0.250000 -0.309942
v 0.329122 0.250000 -0.305343
v 0.322682 0.250000 -0.229906
v 0.352121 0.250000 -0.229906
v 0.360401 0.250000 -0.320062
v 0.399959 0.250000 -0.320062
v 0.391680 0.250000 -0.229906
v 0.368681 0.250000 -0.229906
v 0.362241 0.250000 -0.155389
v 0.454237 0.250000 -0.155389
v 0.449637 0.250000 -0.101111
v 0.357641 0.250000 -0.101111
v 0.347521 0.250000 0.012045
v 0.439518 0.250000 0.012045
v 0.434918 0.250000 0.065403
v 0.342922 0.250000 0.065403
v 0.329122 0.250000 0.220876
v -0.114300 0.250000 0.220876
v -0.096821 0.250000 0.012045
v 0.167209 0.250000 0.012045
v 0.177328 0.250000 -0.101111
v -0.109700 0.250000 -0.101111
v -0.105100 0.250000 -0.155389
v 0.181928 0.250000 -0.155389
v -0.172258 0.250000 0.220876
v -0.374650 0.250000 0.220876
v -0.326812 0.250000 -0.320062
v -0.124420 0.250000 -0.320062
v 0.468957 0.250000 -0.320062
v 0.460677 0.250000 -0.229906
v 0.421118 0.250000 -0.229906
v 0.429398 0.250000 -0.320062
v 0.048533 0.250000 0.166598
v 0.153409 0.250000 0.166598
v 0.162609 0.250000 0.065403
v 0.057733 0.250000 0.065403
v 0.191128 -0.250000 -0.255665
v -0.096821 -0.250000 -0.255665
v -0.092221 -0.250000 -0.309942
v 0.329122 -0.250000 -0.309942
v 0.329122 -0.250000 -0.305343
v 0.322682 -0.250000 -0.229906
v 0.352121 -0.250000 -0.229906
v 0.360401 -0.250000 -0.320062
v 0.399959 -0.250000 -0.320062
v 0.391680 -0.250000 -0.229906
v 0.368681 -0.250000 -0.229906
v 0.362241 -0.250000 -0.155389
v 0.454237 -0.250000 -0.155389
v 0.449637 -0.250000 -0.101111
v 0.357641 -0.250000 -0.101111
v 0.347521 -0.250000 0.012045
v 0.439518 -0.250000 0.012045
v 0.434918 -0.250000 0.065403
v 0.342922 -0.250000 0.065403
v 0.329122 -0.250000 0.220876
v -0.114300 -0.250000 0.220876
v -0.096821 -0.250000 0.012045
v 0.167209 -0.250000 0.012045
v 0.177328 -0.250000 -0.101111
v -0.109700 -0.250000 -0.101111
v -0.105100 -0.250000 -0.155389
v 0.181928 -0.250000 -0.155389
v -0.172258 -0.250000 0.220876
v -0.374650 -0.250000 0.220876
v -0.326812 -0.250000 -0.320062
v -0.124420 -0.250000 -0.320062
v 0.468957 -0.250000 -0.320062
v 0.460677 -0.250000 -0.229906
v 0.421118 -0.250000 -0.229906
v 0.429398 -0.250000 -0.320062
v 0.048533 -0.250000 0.166598
v 0.153409 -0.250000 0.166598
v 0.162609 -0.250000 0.065403
v 0.057733 -0.250000 0.065403
v 0.191128 -0.250000 -0.255665
v 0.191128 0.250000 -0.255665
v -0.096821 -0.250000 -0.255665
v -0.096821 0.250000 -0.255665
v -0.092221 -0.250000 -0.309942
v -0.092221 0.250000 -0.309942
v 0.329122 -0.250000 -0.309942
v 0.329122 0.250000 -0.309942
v 0.329122 -0.250000 -0.305343
v 0.329122 0.250000 -0.305343
v 0.322682 -0.250000 -0.229906
v 0.322682 0.250000 -0.229906
v 0.352121 -0.250000 -0.229906
v 0.352121 0.250000 -0.229906
v 0.360401 -0.250000 -0.320062
v 0.360401 0.250000 -0.320062
v 0.399959 -0.250000 -0.320062
v 0.399959 0.250000 -0.320062
v 0.391680 -0.250000 -0.229906
v 0.391680 0.250000 -0.229906
v 0.368681 -0.250000 -0.229906
v 0.368681 0.250000 -0.229906
v 0.362241 -0.250000 -0.155389
v 0.362241 0.250000 -0.155389
v 0.454237 -0.250000 -0.155389
v 0.454237 0.250000 -0.155389
v 0.449637 -0.250000 -0.101111
v 0.449637 0.250000 -0.101111
v 0.357641 -0.250000 -0.101111
v 0.357641 0.250000 -0.101111
v 0.347521 -0.250000 0.012045
v 0.347521 0.250000 0.012045
v 0.439518 -0.250000 0.012045
v 0.439518 0.250000 0.012045
v 0.434918 -0.250000 0.065403
v 0.434918 0.250000 0.065403
v 0.342922 -0.250000 0.065403
v 0.342922 0.250000 0.065403
v 0.329122 -0.250000 0.220876
v 0.329122 0.250000 0.220876
v -0.114300 -0.250000 0.220876
v -0.114300 0.250000 0.220876
v -0.096821 -0.250000 0.012045
v -0.096821 0.250000 0.012045
v 0.167209 -0.250000 0.012045
v 0.167209 0.250000 0.012045
v 0.177328 -0.250000 -0.101111
v 0.177328 0.250000 -0.101111
v -0.109700 -0.250000 -0.101111
v -0.109700 0.250000 -0.101111
v -0.105100 -0.250000 -0.155389
v -0.105100 0.250000 -0.155389
v 0.181928 -0.250000 -0.155389
v 0.181928 0.250000 -0.155389
v -0.172258 -0.250000 0.220876
v -0.172258 0.250000 0.220876
v -0.374650 -0.250000 0.220876
v -0.374650 0.250000 0.220876
v -0.326812 -0.250000 -0.320062
v -0.326812 0.250000 -0.320062
v -0.124420 -0.250000 -0.320062
v -0.124420 0.250000 -0.320062
v 0.468957 -0.250000 -0.320062
v 0.468957 0.250000 -0.320062
v 0.460677 -0.250000 -0.229906
v 0.460677 0.250000 -0.229906
v 0.421118 -0.250000 -0.229906
v 0.421118 0.250000 -0.229906
v 0.429398 -0.250000 -0.320062
v 0.429398 0.250000 -0.320062
v 0.048533 -0.250000 0.166598
v 0.048533 0.250000 0.166598
v 0.153409 -0.250000 0.166598
v 0.153409 0.250000 0.166598
v 0.162609 -0.250000 0.065403
v 0.162609 0.250000 0.065403
v 0.057733 -0.250000 0.065403
v 0.057733 0.250000 0.065403
vn -0.0000 1.0000 -0.0000
vn -0.0000 -1.0000 -0.0000
vn -0.7364 -0.0000 0.6766
vn -0.7387 -0.0000 0.6740
vn -0.6766 -0.0000 -0.7364
vn 0.7071 -0.0000 -0.7071
vn 0.9991 -0.0000 0.0426
vn 0.7366 -0.0000 -0.6764
vn -0.6740 -0.0000 -0.7387
vn 0.7387 -0.0000 -0.6740
vn 0.6740 -0.0000 0.7387
vn 0.6760 -0.0000 0.7369
vn 0.7369 -0.0000 -0.6760
vn 0.7364 -0.0000 -0.6766
vn 0.6766 -0.0000 0.7364
vn 0.6749 -0.0000 0.7379
vn 0.7379 -0.0000 -0.6749
vn 0.7369 -0.0000 -0.6761
vn 0.6761 -0.0000 0.7368
vn 0.6751 -0.0000 0.7377
vn -0.7360 -0.0000 0.6770
vn -0.6770 -0.0000 -0.7360
vn -0.6749 -0.0000 -0.7379
vn -0.7379 -0.0000 0.6749
vn -0.7376 -0.0000 0.6752
vn 0.6753 -0.0000 0.7376
vn -0.6753 -0.0000 -0.7376
vn 0.7376 -0.0000 -0.6752
vn -0.6743 -0.0000 -0.7384
vn 0.7384 -0.0000 -0.6743
vn -0.7384 -0.0000 0.6743
vn 0.6743 -0.0000 0.7384
vt 0.763158 0.000000
vt 0.736842 0.000000
vt 0.710526 0.000000
vt 0.000000 0.000000
vt 0.684211 0.000000
vt 0.131579 0.000000
vt 1.000000 0.000000
vt 0.973684 0.000000
vt 0.578947 0.000000
vt 0.947368 0.000000
vt 0.921053 0.000000
vt 0.526316 0.000000
vt 0.552632 0.000000
vt 0.657895 0.000000
vt 0.631579 0.000000
vt 0.605263 0.000000
vt 0.052632 0.000000
vt 0.026316 0.000000
vt 0.289474 0.000000
vt 0.263158 0.000000
vt 0.157895 0.000000
vt 0.184211 0.000000
vt 0.894737 0.000000
vt 0.868421 0.000000
vt 0.842105 0.000000
vt 0.815789 0.000000
vt 0.394737 0.000000
vt 0.473684 0.000000
vt 0.447368 0.000000
vt 0.421053 0.000000
vt 0.368421 0.000000
vt 0.342105 0.000000
vt 0.315789 0.000000
vt 0.236842 0.000000
vt 0.210526 0.000000
vt 0.500000 0.000000
vt 0.105263 0.000000
vt 0.078947 0.000000
vt 0.789474 0.000000
vt 0.037037 1.000000
vt 0.000000 1.000000
vt 0.074074 1.000000
vt 0.037037 0.000000
vt 0.111111 1.000000
vt 0.074074 0.000000
vt 0.148148 1.000000
vt 0.111111 0.000000
vt 0.185185 1.000000
vt 0.148148 0.000000
vt 0.222222 1.000000
vt 0.185185 0.000000
vt 0.259259 1.000000
vt 0.222222 0.000000
vt 0.296296 1.000000
vt 0.259259 0.000000
vt 0.333333 1.000000
vt 0.296296 0.000000
vt 0.370370 1.000000
vt 0.333333 0.000000
vt 0.407407 1.000000
vt 0.370370 0.000000
vt 0.444444 1.000000
vt 0.407407 0.000000
vt 0.481481 1.000000
vt 0.444444 0.000000
vt 0.518519 1.000000
vt 0.481481 0.000000
vt 0.555556 1.000000
vt 0.518519 0.000000
vt 0.592593 1.000000
vt 0.555556 0.000000
vt 0.629630 1.000000
vt 0.592593 0.000000
vt 0.666667 1.000000
vt 0.629630 0.000000
vt 0.703704 1.000000
vt 0.666667 0.000000
vt 0.740741 1.000000
vt 0.703704 0.000000
vt 0.777778 1.000000
vt 0.740741 0.000000
vt 0.814815 1.000000
vt 0.777778 0.000000
vt 0.851852 1.000000
vt 0.814815 0.000000
vt 0.888889 1.000000
vt 0.851852 0.000000
vt 0.925926 1.000000
vt 0.888889 0.000000
vt 0.962963 1.000000
vt 0.925926 0.000000
vt 1.000000 1.000000
vt 0.962963 0.000000
vt 0.250000 1.000000
vt 0.500000 1.000000
vt 0.250000 0.000000
vt 0.750000 1.000000
vt 0.750000 0.000000
s 0
usemtl Material.006
f 30/1/1 29/2/1 28/3/1
f 1/4/1 27/5/1 6/6/1
f 39/7/1 38/8/1 23/9/1
f 37/10/1 36/11/1 21/12/1
f 22/13/1 21/12/1 36/11/1
f 36/11/1 39/7/1 22/13/1
f 39/7/1 23/9/1 22/13/1
f 26/14/1 25/15/1 24/16/1
f 24/16/1 27/5/1 26/14/1
f 1/4/1 3/17/1 2/18/1
f 12/19/1 11/20/1 7/21/1
f 11/20/1 8/22/1 7/21/1
f 35/23/1 34/24/1 33/25/1
f 33/25/1 32/26/1 35/23/1
f 16/27/1 19/28/1 18/29/1
f 18/29/1 17/30/1 16/27/1
f 12/19/1 15/31/1 14/32/1
f 14/32/1 13/33/1 12/19/1
f 10/34/1 9/35/1 11/20/1
f 8/22/1 11/20/1 9/35/1
f 37/10/1 21/12/1 20/36/1
f 20/36/1 19/28/1 37/10/1
f 38/8/1 37/10/1 19/28/1
f 23/9/1 38/8/1 19/28/1
f 19/28/1 16/27/1 23/9/1
f 24/16/1 23/9/1 16/27/1
f 16/27/1 15/31/1 24/16/1
f 27/5/1 24/16/1 15/31/1
f 15/31/1 12/19/1 27/5/1
f 6/6/1 27/5/1 12/19/1
f 12/19/1 7/21/1 6/6/1
f 1/4/1 6/6/1 5/37/1
f 5/37/1 4/38/1 1/4/1
f 3/17/1 1/4/1 4/38/1
f 31/39/1 30/1/1 28/3/1
f 69/1/2 67/3/2 68/2/2
f 40/4/2 45/6/2 66/5/2
f 78/7/2 62/9/2 77/8/2
f 76/10/2 60/12/2 75/11/2
f 61/13/2 75/11/2 60/12/2
f 75/11/2 61/13/2 78/7/2
f 78/7/2 61/13/2 62/9/2
f 65/14/2 63/16/2 64/15/2
f 63/16/2 65/14/2 66/5/2
f 40/4/2 41/18/2 42/17/2
f 51/19/2 46/21/2 50/20/2
f 50/20/2 46/21/2 47/22/2
f 74/23/2 72/25/2 73/24/2
f 72/25/2 74/23/2 71/26/2
f 55/27/2 57/29/2 58/28/2
f 57/29/2 55/27/2 56/30/2
f 51/19/2 53/32/2 54/31/2
f 53/32/2 51/19/2 52/33/2
f 49/34/2 50/20/2 48/35/2
f 47/22/2 48/35/2 50/20/2
f 76/10/2 59/36/2 60/12/2
f 59/36/2 76/10/2 58/28/2
f 77/8/2 58/28/2 76/10/2
f 62/9/2 58/28/2 77/8/2
f 58/28/2 62/9/2 55/27/2
f 63/16/2 55/27/2 62/9/2
f 55/27/2 63/16/2 54/31/2
f 66/5/2 54/31/2 63/16/2
f 54/31/2 66/5/2 51/19/2
f 45/6/2 51/19/2 66/5/2
f 51/19/2 45/6/2 46/21/2
f 40/4/2 44/37/2 45/6/2
f 44/37/2 40/4/2 43/38/2
f 42/17/2 43/38/2 40/4/2
f 70/39/2 67/3/2 69/1/2
s 1
f 82/40/3 79/4/4 80/41/4
f 84/42/5 81/43/3 82/40/3
f 86/44/6 83/45/5 84/42/5
f 88/46/7 85/47/6 86/44/6
f 90/48/8 87/49/7 88/46/7
f 92/50/9 89/51/8 90/48/8
f 94/52/9 91/53/9 92/50/9
f 96/54/10 93/55/9 94/52/9
f 98/56/11 95/57/10 96/54/10
f 100/58/12 97/59/11 98/56/11
f 102/60/13 99/61/12 100/58/12
f 104/62/14 101/63/13 102/60/13
f 106/64/15 103/65/14 104/62/14
f 108/66/16 105/67/15 106/64/15
f 110/68/17 107/69/16 108/66/16
f 112/70/18 109/71/17 110/68/17
f 114/72/19 111/73/18 112/70/18
f 116/74/20 113/75/19 114/72/19
f 118/76/20 115/77/20 116/74/20
f 120/78/21 117/79/20 118/76/20
f 122/80/22 119/81/21 120/78/21
f 124/82/23 121/83/22 122/80/22
f 126/84/24 123/85/23 124/82/23
f 128/86/3 125/87/24 126/84/24
f 130/88/5 127/89/3 128/86/3
f 132/90/9 129/91/5 130/88/5
f 80/92/4 131/93/9 132/90/9
f 136/94/25 133/4/26 134/41/26
f 138/95/27 135/96/25 136/94/25
f 140/97/28 137/36/27 138/95/27
f 134/92/26 139/98/28 140/97/28
f 144/94/11 141/4/10 142/41/10
f 146/95/4 143/96/11 144/94/11
f 148/97/9 145/36/4 146/95/4
f 142/92/10 147/98/9 148/97/9
f 152/94/29 149/4/30 150/41/30
f 154/95/31 151/96/29 152/94/29
f 156/97/32 153/36/31 154/95/31
f 150/92/30 155/98/32 156/97/32
f 82/40/3 81/43/3 79/4/4
f 84/42/5 83/45/5 81/43/3
f 86/44/6 85/47/6 83/45/5
f 88/46/7 87/49/7 85/47/6
f 90/48/8 89/51/8 87/49/7
f 92/50/9 91/53/9 89/51/8
f 94/52/9 93/55/9 91/53/9
f 96/54/10 95/57/10 93/55/9
f 98/56/11 97/59/11 95/57/10
f 100/58/12 99/61/12 97/59/11
f 102/60/13 101/63/13 99/61/12
f 104/62/14 103/65/14 101/63/13
f 106/64/15 105/67/15 103/65/14
f 108/66/16 107/69/16 105/67/15
f 110/68/17 109/71/17 107/69/16
f 112/70/18 111/73/18 109/71/17
f 114/72/19 113/75/19 111/73/18
f 116/74/20 115/77/20 113/75/19
f 118/76/20 117/79/20 115/77/20
f 120/78/21 119/81/21 117/79/20
f 122/80/22 121/83/22 119/81/21
f 124/82/23 123/85/23 121/83/22
f 126/84/24 125/87/24 123/85/23
f 128/86/3 127/89/3 125/87/24
f 130/88/5 129/91/5 127/89/3
f 132/90/9 131/93/9 129/91/5
f 80/92/4 79/7/4 131/93/9
f 136/94/25 135/96/25 133/4/26
f 138/95/27 137/36/27 135/96/25
f 140/97/28 139/98/28 137/36/27
f 134/92/26 133/7/26 139/98/28
f 144/94/11 143/96/11 141/4/10
f 146/95/4 145/36/4 143/96/11
f 148/97/9 147/98/9 145/36/4
f 142/92/10 141/7/10 147/98/9
f 152/94/29 151/96/29 149/4/30
f 154/95/31 153/36/31 151/96/29
f 156/97/32 155/98/32 153/36/31
f 150/92/30 149/7/30 155/98/32
