# Blender 5.2.1 LTS
# www.blender.org
mtllib playStartLogo12.mtl
o Text.001
v 0.362241 0.250000 -0.251985
v -0.245855 0.250000 -0.265784
v -0.241255 0.250000 -0.320062
v 0.366841 0.250000 -0.305343
v 0.220567 0.250000 -0.092831
v -0.338771 0.250000 -0.092831
v -0.335091 0.250000 -0.147109
v 0.427558 0.250000 -0.147109
v 0.393520 0.250000 0.220876
v -0.281733 0.250000 0.220876
v -0.277134 0.250000 0.166598
v 0.196647 0.250000 0.166598
v 0.362241 -0.250000 -0.251985
v -0.245855 -0.250000 -0.265784
v -0.241255 -0.250000 -0.320062
v 0.366841 -0.250000 -0.305343
v 0.220567 -0.250000 -0.092831
v -0.338771 -0.250000 -0.092831
v -0.335091 -0.250000 -0.147109
v 0.427558 -0.250000 -0.147109
v 0.393520 -0.250000 0.220876
v -0.281733 -0.250000 0.220876
v -0.277134 -0.250000 0.166598
v 0.196647 -0.250000 0.166598
v 0.362241 -0.250000 -0.251985
v 0.362241 0.250000 -0.251985
v -0.245855 -0.250000 -0.265784
v -0.245855 0.250000 -0.265784
v -0.241255 -0.250000 -0.320062
v -0.241255 0.250000 -0.320062
v 0.366841 -0.250000 -0.305343
v 0.366841 0.250000 -0.305343
v 0.220567 -0.250000 -0.092831
v 0.220567 0.250000 -0.092831
v -0.338771 -0.250000 -0.092831
v -0.338771 0.250000 -0.092831
v -0.335091 -0.250000 -0.147109
v -0.335091 0.250000 -0.147109
v 0.427558 -0.250000 -0.147109
v 0.427558 0.250000 -0.147109
v 0.393520 -0.250000 0.220876
v 0.393520 0.250000 0.220876
v -0.281733 -0.250000 0.220876
v -0.281733 0.250000 0.220876
v -0.277134 -0.250000 0.166598
v -0.277134 0.250000 0.166598
v 0.196647 -0.250000 0.166598
v 0.196647 0.250000 0.166598
vn -0.0000 1.0000 -0.0000
vn -0.0000 -1.0000 -0.0000
vn -0.7440 -0.0000 0.6682
vn 0.6676 -0.0000 0.7445
vn 0.6677 -0.0000 0.7445
vn -0.6676 -0.0000 -0.7445
vn 0.7450 -0.0000 -0.6671
vn -0.7306 -0.0000 0.6828
vn -0.7388 -0.0000 0.6739
vn -0.6828 -0.0000 -0.7306
vn 0.7390 -0.0000 -0.6738
vn 0.6738 -0.0000 0.7389
vn 0.7390 -0.0000 -0.6737
vn -0.7363 -0.0000 0.6766
vn 0.6737 -0.0000 0.7390
vn -0.6766 -0.0000 -0.7364
vn -0.7364 -0.0000 0.6766
vn -0.6738 -0.0000 -0.7389
vn -0.6739 -0.0000 -0.7389
vt 0.545455 0.000000
vt 0.454545 0.000000
vt 0.363636 0.000000
vt 1.000000 0.000000
vt 0.727273 0.000000
vt 0.636364 0.000000
vt 0.000000 0.000000
vt 0.272727 0.000000
vt 0.181818 0.000000
vt 0.818182 0.000000
vt 0.909091 0.000000
vt 0.090909 0.000000
vt 0.250000 1.000000
vt 0.000000 1.000000
vt 0.500000 1.000000
vt 0.250000 0.000000
vt 0.750000 1.000000
vt 0.500000 0.000000
vt 1.000000 1.000000
vt 0.750000 0.000000
vt 0.125000 1.000000
vt 0.125000 0.000000
vt 0.375000 1.000000
vt 0.375000 0.000000
vt 0.625000 1.000000
vt 0.625000 0.000000
vt 0.875000 1.000000
vt 0.875000 0.000000
s 0
usemtl Material.006
f 7/1/1 6/2/1 5/3/1
f 5/3/1 12/4/1 9/5/1
f 9/5/1 8/6/1 5/3/1
f 1/7/1 4/8/1 3/9/1
f 9/5/1 12/4/1 10/10/1
f 11/11/1 10/10/1 12/4/1
f 3/9/1 2/12/1 1/7/1
f 5/3/1 8/6/1 7/1/1
f 19/1/2 17/3/2 18/2/2
f 17/3/2 21/5/2 24/4/2
f 21/5/2 17/3/2 20/6/2
f 13/7/2 15/9/2 16/8/2
f 21/5/2 22/10/2 24/4/2
f 23/11/2 24/4/2 22/10/2
f 15/9/2 13/7/2 14/12/2
f 17/3/2 19/1/2 20/6/2
s 1
f 28/13/3 25/7/4 26/14/5
f 30/15/6 27/16/3 28/13/3
f 32/17/7 29/18/6 30/15/6
f 26/19/5 31/20/7 32/17/7
f 36/21/8 33/7/9 34/14/9
f 38/13/10 35/22/8 36/21/8
f 40/23/11 37/16/10 38/13/10
f 42/15/12 39/24/13 40/23/11
f 44/25/14 41/18/15 42/15/12
f 46/17/16 43/26/17 44/25/14
f 48/27/18 45/20/16 46/17/16
f 34/19/9 47/28/19 48/27/18
f 28/13/3 27/16/3 25/7/4
f 30/15/6 29/18/6 27/16/3
f 32/17/7 31/20/7 29/18/6
f 26/19/5 25/4/4 31/20/7
f 36/21/8 35/22/8 33/7/9
f 38/13/10 37/16/10 35/22/8
f 40/23/11 39/24/13 37/16/10
f 42/15/12 41/18/15 39/24/13
f 44/25/14 43/26/17 41/18/15
f 46/17/16 45/20/16 43/26/17
f 48/27/18 47/28/19 45/20/16
f 34/19/9 33/4/9 47/28/19
