# Blender 5.2.1 LTS
# www.blender.org
mtllib playStartLogo10.mtl
o Text.001
v 0.209527 0.250000 -0.275904
v -0.324052 0.250000 -0.275904
v -0.319452 0.250000 -0.331102
v 0.214127 0.250000 -0.331102
v 0.376040 0.250000 -0.331102
v 0.374200 0.250000 -0.313622
v 0.476316 0.250000 -0.320062
v 0.472636 0.250000 -0.264864
v 0.369601 0.250000 -0.257505
v 0.367761 0.250000 -0.238185
v 0.468957 0.250000 -0.235425
v 0.465277 0.250000 -0.180228
v 0.363161 0.250000 -0.182987
v 0.360401 0.250000 -0.157229
v 0.462517 0.250000 -0.157229
v 0.457917 0.250000 -0.102031
v 0.355801 0.250000 -0.102031
v 0.214127 0.250000 -0.102031
v 0.193888 0.250000 -0.102031
v -0.327732 0.250000 -0.025674
v -0.373730 0.250000 -0.025674
v -0.369130 0.250000 -0.080872
v -0.316692 0.250000 -0.080872
v -0.301973 0.250000 -0.155389
v -0.340611 0.250000 -0.150789
v -0.336011 0.250000 -0.205987
v -0.087621 0.250000 -0.235425
v -0.092221 0.250000 -0.180228
v -0.143739 0.250000 -0.173788
v -0.162138 0.250000 -0.080872
v -0.071982 0.250000 -0.080872
v -0.058182 0.250000 -0.239105
v 0.111091 0.250000 -0.239105
v 0.097291 0.250000 -0.080872
v 0.191128 0.250000 -0.080872
v 0.353041 0.250000 -0.080872
v 0.347521 0.250000 -0.022914
v 0.451477 0.250000 -0.036713
v 0.447797 0.250000 0.018484
v 0.342922 0.250000 0.032284
v 0.340162 0.250000 0.063563
v 0.443198 0.250000 0.070002
v 0.439518 0.250000 0.125200
v 0.334642 0.250000 0.118760
v 0.330042 0.250000 0.165679
v 0.434918 0.250000 0.165679
v 0.430318 0.250000 0.220876
v 0.325442 0.250000 0.220876
v 0.183768 0.250000 0.220876
v 0.163529 0.250000 0.220876
v 0.186528 0.250000 -0.025674
v 0.092692 0.250000 -0.025674
v 0.070613 0.250000 0.220876
v -0.098661 0.250000 0.220876
v -0.076582 0.250000 -0.025674
v -0.173178 0.250000 -0.025674
v -0.223776 0.250000 0.220876
v -0.378329 0.250000 0.220876
v 0.209527 -0.250000 -0.275904
v -0.324052 -0.250000 -0.275904
v -0.319452 -0.250000 -0.331102
v 0.214127 -0.250000 -0.331102
v 0.376040 -0.250000 -0.331102
v 0.374200 -0.250000 -0.313622
v 0.476316 -0.250000 -0.320062
v 0.472636 -0.250000 -0.264864
v 0.369601 -0.250000 -0.257505
v 0.367761 -0.250000 -0.238185
v 0.468957 -0.250000 -0.235425
v 0.465277 -0.250000 -0.180228
v 0.363161 -0.250000 -0.182987
v 0.360401 -0.250000 -0.157229
v 0.462517 -0.250000 -0.157229
v 0.457917 -0.250000 -0.102031
v 0.355801 -0.250000 -0.102031
v 0.214127 -0.250000 -0.102031
v 0.193888 -0.250000 -0.102031
v -0.327732 -0.250000 -0.025674
v -0.373730 -0.250000 -0.025674
v -0.369130 -0.250000 -0.080872
v -0.316692 -0.250000 -0.080872
v -0.301973 -0.250000 -0.155389
v -0.340611 -0.250000 -0.150789
v -0.336011 -0.250000 -0.205987
v -0.087621 -0.250000 -0.235425
v -0.092221 -0.250000 -0.180228
v -0.143739 -0.250000 -0.173788
v -0.162138 -0.250000 -0.080872
v -0.071982 -0.250000 -0.080872
v -0.058182 -0.250000 -0.239105
v 0.111091 -0.250000 -0.239105
v 0.097291 -0.250000 -0.080872
v 0.191128 -0.250000 -0.080872
v 0.353041 -0.250000 -0.080872
v 0.347521 -0.250000 -0.022914
v 0.451477 -0.250000 -0.036713
v 0.447797 -0.250000 0.018484
v 0.342922 -0.250000 0.032284
v 0.340162 -0.250000 0.063563
v 0.443198 -0.250000 0.070002
v 0.439518 -0.250000 0.125200
v 0.334642 -0.250000 0.118760
v 0.330042 -0.250000 0.165679
v 0.434918 -0.250000 0.165679
v 0.430318 -0.250000 0.220876
v 0.325442 -0.250000 0.220876
v 0.183768 -0.250000 0.220876
v 0.163529 -0.250000 0.220876
v 0.186528 -0.250000 -0.025674
v 0.092692 -0.250000 -0.025674
v 0.070613 -0.250000 0.220876
v -0.098661 -0.250000 0.220876
v -0.076582 -0.250000 -0.025674
v -0.173178 -0.250000 -0.025674
v -0.223776 -0.250000 0.220876
v -0.378329 -0.250000 0.220876
v 0.209527 -0.250000 -0.275904
v 0.209527 0.250000 -0.275904
v -0.324052 -0.250000 -0.275904
v -0.324052 0.250000 -0.275904
v -0.319452 -0.250000 -0.331102
v -0.319452 0.250000 -0.331102
v 0.214127 -0.250000 -0.331102
v 0.214127 0.250000 -0.331102
v 0.376040 -0.250000 -0.331102
v 0.376040 0.250000 -0.331102
v 0.374200 -0.250000 -0.313622
v 0.374200 0.250000 -0.313622
v 0.476316 -0.250000 -0.320062
v 0.476316 0.250000 -0.320062
v 0.472636 -0.250000 -0.264864
v 0.472636 0.250000 -0.264864
v 0.369601 -0.250000 -0.257505
v 0.369601 0.250000 -0.257505
v 0.367761 -0.250000 -0.238185
v 0.367761 0.250000 -0.238185
v 0.468957 -0.250000 -0.235425
v 0.468957 0.250000 -0.235425
v 0.465277 -0.250000 -0.180228
v 0.465277 0.250000 -0.180228
v 0.363161 -0.250000 -0.182987
v 0.363161 0.250000 -0.182987
v 0.360401 -0.250000 -0.157229
v 0.360401 0.250000 -0.157229
v 0.462517 -0.250000 -0.157229
v 0.462517 0.250000 -0.157229
v 0.457917 -0.250000 -0.102031
v 0.457917 0.250000 -0.102031
v 0.355801 -0.250000 -0.102031
v 0.355801 0.250000 -0.102031
v 0.214127 -0.250000 -0.102031
v 0.214127 0.250000 -0.102031
v 0.193888 -0.250000 -0.102031
v 0.193888 0.250000 -0.102031
v -0.327732 -0.250000 -0.025674
v -0.327732 0.250000 -0.025674
v -0.373730 -0.250000 -0.025674
v -0.373730 0.250000 -0.025674
v -0.369130 -0.250000 -0.080872
v -0.369130 0.250000 -0.080872
v -0.316692 -0.250000 -0.080872
v -0.316692 0.250000 -0.080872
v -0.301973 -0.250000 -0.155389
v -0.301973 0.250000 -0.155389
v -0.340611 -0.250000 -0.150789
v -0.340611 0.250000 -0.150789
v -0.336011 -0.250000 -0.205987
v -0.336011 0.250000 -0.205987
v -0.087621 -0.250000 -0.235425
v -0.087621 0.250000 -0.235425
v -0.092221 -0.250000 -0.180228
v -0.092221 0.250000 -0.180228
v -0.143739 -0.250000 -0.173788
v -0.143739 0.250000 -0.173788
v -0.162138 -0.250000 -0.080872
v -0.162138 0.250000 -0.080872
v -0.071982 -0.250000 -0.080872
v -0.071982 0.250000 -0.080872
v -0.058182 -0.250000 -0.239105
v -0.058182 0.250000 -0.239105
v 0.111091 -0.250000 -0.239105
v 0.111091 0.250000 -0.239105
v 0.097291 -0.250000 -0.080872
v 0.097291 0.250000 -0.080872
v 0.191128 -0.250000 -0.080872
v 0.191128 0.250000 -0.080872
v 0.353041 -0.250000 -0.080872
v 0.353041 0.250000 -0.080872
v 0.347521 -0.250000 -0.022914
v 0.347521 0.250000 -0.022914
v 0.451477 -0.250000 -0.036713
v 0.451477 0.250000 -0.036713
v 0.447797 -0.250000 0.018484
v 0.447797 0.250000 0.018484
v 0.342922 -0.250000 0.032284
v 0.342922 0.250000 0.032284
v 0.340162 -0.250000 0.063563
v 0.340162 0.250000 0.063563
v 0.443198 -0.250000 0.070002
v 0.443198 0.250000 0.070002
v 0.439518 -0.250000 0.125200
v 0.439518 0.250000 0.125200
v 0.334642 -0.250000 0.118760
v 0.334642 0.250000 0.118760
v 0.330042 -0.250000 0.165679
v 0.330042 0.250000 0.165679
v 0.434918 -0.250000 0.165679
v 0.434918 0.250000 0.165679
v 0.430318 -0.250000 0.220876
v 0.430318 0.250000 0.220876
v 0.325442 -0.250000 0.220876
v 0.325442 0.250000 0.220876
v 0.183768 -0.250000 0.220876
v 0.183768 0.250000 0.220876
v 0.163529 -0.250000 0.220876
v 0.163529 0.250000 0.220876
v 0.186528 -0.250000 -0.025674
v 0.186528 0.250000 -0.025674
v 0.092692 -0.250000 -0.025674
v 0.092692 0.250000 -0.025674
v 0.070613 -0.250000 0.220876
v 0.070613 0.250000 0.220876
v -0.098661 -0.250000 0.220876
v -0.098661 0.250000 0.220876
v -0.076582 -0.250000 -0.025674
v -0.076582 0.250000 -0.025674
v -0.173178 -0.250000 -0.025674
v -0.173178 0.250000 -0.025674
v -0.223776 -0.250000 0.220876
v -0.223776 0.250000 0.220876
v -0.378329 -0.250000 0.220876
v -0.378329 0.250000 0.220876
vn -0.0000 1.0000 -0.0000
vn -0.0000 -1.0000 -0.0000
vn -0.7359 -0.0000 0.6771
vn -0.7381 -0.0000 0.6747
vn -0.6771 -0.0000 -0.7359
vn -0.0000 -0.0000 -1.0000
vn 0.7432 -0.0000 -0.6691
vn 0.7218 -0.0000 -0.6921
vn 0.7084 -0.0000 -0.7058
vn 0.7088 -0.0000 0.7054
vn 0.6987 -0.0000 0.7154
vn 0.7490 -0.0000 -0.6626
vn 0.7395 -0.0000 -0.6732
vn 0.6733 -0.0000 0.7394
vn 0.6583 -0.0000 0.7528
vn 0.7438 -0.0000 -0.6684
vn 0.7359 -0.0000 -0.6771
vn 0.6771 -0.0000 0.7359
vn -0.0000 -0.0000 1.0000
vn -0.7749 -0.0000 0.6321
vn -0.6349 -0.0000 -0.7726
vn -0.7336 -0.0000 0.6795
vn -0.6945 -0.0000 0.7195
vn -0.7193 -0.0000 -0.6947
vn 0.6947 -0.0000 -0.7193
vn 0.7215 -0.0000 0.6924
vn 0.6815 -0.0000 0.7318
vn 0.7727 -0.0000 -0.6347
vn -0.6757 -0.0000 -0.7372
vn 0.7372 -0.0000 -0.6757
vn 0.7399 -0.0000 -0.6727
vn 0.6939 -0.0000 -0.7201
vn 0.6836 -0.0000 -0.7298
vn 0.7295 -0.0000 0.6840
vn 0.7221 -0.0000 0.6918
vn 0.7582 -0.0000 -0.6520
vn 0.7512 -0.0000 -0.6601
vn 0.6605 -0.0000 0.7508
vn 0.6487 -0.0000 0.7610
vn 0.7408 -0.0000 -0.6717
vn -0.7392 -0.0000 0.6735
vn 0.6748 -0.0000 0.7380
vn -0.7380 -0.0000 0.6748
vn 0.6749 -0.0000 0.7380
vn 0.6321 -0.0000 0.7749
vn 0.6320 -0.0000 0.7749
vn -0.7749 -0.0000 0.6320
vt 0.368421 0.000000
vt 0.350877 0.000000
vt 0.333333 0.000000
vt 0.964912 0.000000
vt 0.508772 0.000000
vt 0.385965 0.000000
vt 0.403509 0.000000
vt 0.491228 0.000000
vt 1.000000 0.000000
vt 0.982456 0.000000
vt 0.438596 0.000000
vt 0.421053 0.000000
vt 0.912281 0.000000
vt 0.947368 0.000000
vt 0.929825 0.000000
vt 0.842105 0.000000
vt 0.877193 0.000000
vt 0.859649 0.000000
vt 0.578947 0.000000
vt 0.894737 0.000000
vt 0.596491 0.000000
vt 0.526316 0.000000
vt 0.543860 0.000000
vt 0.561404 0.000000
vt 0.473684 0.000000
vt 0.456140 0.000000
vt 0.280702 0.000000
vt 0.228070 0.000000
vt 0.298246 0.000000
vt 0.210526 0.000000
vt 0.000000 0.000000
vt 0.157895 0.000000
vt 0.087719 0.000000
vt 0.140351 0.000000
vt 0.122807 0.000000
vt 0.105263 0.000000
vt 0.771930 0.000000
vt 0.824561 0.000000
vt 0.807018 0.000000
vt 0.789474 0.000000
vt 0.701754 0.000000
vt 0.754386 0.000000
vt 0.736842 0.000000
vt 0.719298 0.000000
vt 0.631579 0.000000
vt 0.684211 0.000000
vt 0.666667 0.000000
vt 0.649123 0.000000
vt 0.263158 0.000000
vt 0.245614 0.000000
vt 0.192982 0.000000
vt 0.175439 0.000000
vt 0.052632 0.000000
vt 0.070175 0.000000
vt 0.315789 0.000000
vt 0.035088 0.000000
vt 0.017544 0.000000
vt 0.614035 0.000000
vt 0.052632 1.000000
vt 0.000000 1.000000
vt 0.105263 1.000000
vt 0.157895 1.000000
vt 0.210526 1.000000
vt 0.263158 1.000000
vt 0.315789 1.000000
vt 0.368421 1.000000
vt 0.421053 1.000000
vt 0.473684 1.000000
vt 0.526316 1.000000
vt 0.578947 1.000000
vt 0.631579 1.000000
vt 0.684211 1.000000
vt 0.736842 1.000000
vt 0.789474 1.000000
vt 0.842105 1.000000
vt 0.894737 1.000000
vt 0.947368 1.000000
vt 1.000000 1.000000
vt 0.025641 1.000000
vt 0.051282 1.000000
vt 0.025641 0.000000
vt 0.076923 1.000000
vt 0.051282 0.000000
vt 0.102564 1.000000
vt 0.076923 0.000000
vt 0.128205 1.000000
vt 0.102564 0.000000
vt 0.153846 1.000000
vt 0.128205 0.000000
vt 0.179487 1.000000
vt 0.153846 0.000000
vt 0.205128 1.000000
vt 0.179487 0.000000
vt 0.230769 1.000000
vt 0.205128 0.000000
vt 0.256410 1.000000
vt 0.230769 0.000000
vt 0.282051 1.000000
vt 0.256410 0.000000
vt 0.307692 1.000000
vt 0.282051 0.000000
vt 0.333333 1.000000
vt 0.307692 0.000000
vt 0.358974 1.000000
vt 0.384615 1.000000
vt 0.358974 0.000000
vt 0.410256 1.000000
vt 0.384615 0.000000
vt 0.435897 1.000000
vt 0.410256 0.000000
vt 0.461538 1.000000
vt 0.435897 0.000000
vt 0.487179 1.000000
vt 0.461538 0.000000
vt 0.512821 1.000000
vt 0.487179 0.000000
vt 0.538462 1.000000
vt 0.512821 0.000000
vt 0.564103 1.000000
vt 0.538462 0.000000
vt 0.589744 1.000000
vt 0.564103 0.000000
vt 0.615385 1.000000
vt 0.589744 0.000000
vt 0.641026 1.000000
vt 0.615385 0.000000
vt 0.666667 1.000000
vt 0.641026 0.000000
vt 0.692308 1.000000
vt 0.717949 1.000000
vt 0.692308 0.000000
vt 0.743590 1.000000
vt 0.717949 0.000000
vt 0.769231 1.000000
vt 0.743590 0.000000
vt 0.794872 1.000000
vt 0.769231 0.000000
vt 0.820513 1.000000
vt 0.794872 0.000000
vt 0.846154 1.000000
vt 0.820513 0.000000
vt 0.871795 1.000000
vt 0.846154 0.000000
vt 0.897436 1.000000
vt 0.871795 0.000000
vt 0.923077 1.000000
vt 0.897436 0.000000
vt 0.948718 1.000000
vt 0.923077 0.000000
vt 0.974359 1.000000
vt 0.948718 0.000000
vt 0.974359 0.000000
s 0
usemtl Material.006
f 22/1/1 21/2/1 20/3/1
f 56/4/1 30/5/1 23/6/1
f 24/7/1 23/6/1 30/5/1
f 30/5/1 29/8/1 24/7/1
f 20/3/1 58/9/1 57/10/1
f 57/10/1 56/4/1 20/3/1
f 56/4/1 23/6/1 20/3/1
f 22/1/1 20/3/1 23/6/1
f 26/11/1 25/12/1 24/7/1
f 24/7/1 29/8/1 26/11/1
f 53/13/1 55/14/1 54/15/1
f 49/16/1 51/17/1 50/18/1
f 34/19/1 52/20/1 51/17/1
f 51/17/1 35/21/1 34/19/1
f 55/14/1 53/13/1 52/20/1
f 31/22/1 55/14/1 52/20/1
f 52/20/1 34/19/1 31/22/1
f 31/22/1 34/19/1 32/23/1
f 34/19/1 33/24/1 32/23/1
f 30/5/1 56/4/1 55/14/1
f 55/14/1 31/22/1 30/5/1
f 28/25/1 27/26/1 29/8/1
f 17/27/1 14/28/1 18/29/1
f 14/28/1 13/30/1 18/29/1
f 1/31/1 18/29/1 13/30/1
f 13/30/1 10/32/1 1/31/1
f 6/33/1 9/34/1 8/35/1
f 8/35/1 7/36/1 6/33/1
f 45/37/1 48/38/1 47/39/1
f 47/39/1 46/40/1 45/37/1
f 41/41/1 44/42/1 43/43/1
f 43/43/1 42/44/1 41/41/1
f 37/45/1 40/46/1 39/47/1
f 39/47/1 38/48/1 37/45/1
f 14/28/1 17/27/1 16/49/1
f 16/49/1 15/50/1 14/28/1
f 10/32/1 13/30/1 12/51/1
f 12/51/1 11/52/1 10/32/1
f 1/31/1 10/32/1 9/34/1
f 9/34/1 6/33/1 1/31/1
f 4/53/1 1/31/1 6/33/1
f 6/33/1 5/54/1 4/53/1
f 48/38/1 45/37/1 49/16/1
f 45/37/1 44/42/1 49/16/1
f 51/17/1 49/16/1 44/42/1
f 44/42/1 41/41/1 51/17/1
f 41/41/1 40/46/1 51/17/1
f 40/46/1 37/45/1 51/17/1
f 35/21/1 51/17/1 37/45/1
f 18/29/1 1/31/1 19/55/1
f 1/31/1 4/53/1 3/56/1
f 3/56/1 2/57/1 1/31/1
f 29/8/1 27/26/1 26/11/1
f 37/45/1 36/58/1 35/21/1
f 80/1/2 78/3/2 79/2/2
f 114/4/2 81/6/2 88/5/2
f 82/7/2 88/5/2 81/6/2
f 88/5/2 82/7/2 87/8/2
f 78/3/2 115/10/2 116/9/2
f 115/10/2 78/3/2 114/4/2
f 114/4/2 78/3/2 81/6/2
f 80/1/2 81/6/2 78/3/2
f 84/11/2 82/7/2 83/12/2
f 82/7/2 84/11/2 87/8/2
f 111/13/2 112/15/2 113/14/2
f 107/16/2 108/18/2 109/17/2
f 92/19/2 109/17/2 110/20/2
f 109/17/2 92/19/2 93/21/2
f 113/14/2 110/20/2 111/13/2
f 89/22/2 110/20/2 113/14/2
f 110/20/2 89/22/2 92/19/2
f 89/22/2 90/23/2 92/19/2
f 92/19/2 90/23/2 91/24/2
f 88/5/2 113/14/2 114/4/2
f 113/14/2 88/5/2 89/22/2
f 86/25/2 87/8/2 85/26/2
f 75/27/2 76/29/2 72/28/2
f 72/28/2 76/29/2 71/30/2
f 59/31/2 71/30/2 76/29/2
f 71/30/2 59/31/2 68/32/2
f 64/33/2 66/35/2 67/34/2
f 66/35/2 64/33/2 65/36/2
f 103/37/2 105/39/2 106/38/2
f 105/39/2 103/37/2 104/40/2
f 99/41/2 101/43/2 102/42/2
f 101/43/2 99/41/2 100/44/2
f 95/45/2 97/47/2 98/46/2
f 97/47/2 95/45/2 96/48/2
f 72/28/2 74/49/2 75/27/2
f 74/49/2 72/28/2 73/50/2
f 68/32/2 70/51/2 71/30/2
f 70/51/2 68/32/2 69/52/2
f 59/31/2 67/34/2 68/32/2
f 67/34/2 59/31/2 64/33/2
f 62/53/2 64/33/2 59/31/2
f 64/33/2 62/53/2 63/54/2
f 106/38/2 107/16/2 103/37/2
f 103/37/2 107/16/2 102/42/2
f 109/17/2 102/42/2 107/16/2
f 102/42/2 109/17/2 99/41/2
f 99/41/2 109/17/2 98/46/2
f 98/46/2 109/17/2 95/45/2
f 93/21/2 95/45/2 109/17/2
f 76/29/2 77/55/2 59/31/2
f 59/31/2 61/56/2 62/53/2
f 61/56/2 59/31/2 60/57/2
f 87/8/2 84/11/2 85/26/2
f 95/45/2 93/21/2 94/58/2
s 1
f 120/59/3 117/31/4 118/60/4
f 122/61/5 119/53/3 120/59/3
f 124/62/6 121/36/5 122/61/5
f 126/63/7 123/32/6 124/62/6
f 128/64/8 125/30/7 126/63/7
f 130/65/9 127/49/8 128/64/8
f 132/66/10 129/55/9 130/65/9
f 134/67/11 131/1/10 132/66/10
f 136/68/12 133/12/11 134/67/11
f 138/69/13 135/25/12 136/68/12
f 140/70/14 137/22/13 138/69/13
f 142/71/15 139/19/14 140/70/14
f 144/72/16 141/45/15 142/71/15
f 146/73/17 143/46/16 144/72/16
f 148/74/18 145/43/17 146/73/17
f 150/75/19 147/40/18 148/74/18
f 152/76/19 149/16/19 150/75/19
f 154/77/4 151/20/19 152/76/19
f 118/78/4 153/14/4 154/77/4
f 158/79/3 155/31/20 156/60/20
f 160/80/5 157/81/3 158/79/3
f 162/82/21 159/83/5 160/80/5
f 164/84/22 161/85/21 162/82/21
f 166/86/23 163/87/22 164/84/22
f 168/88/24 165/89/23 166/86/23
f 170/90/25 167/91/24 168/88/24
f 172/92/26 169/93/25 170/90/25
f 174/94/27 171/95/26 172/92/26
f 176/96/28 173/97/27 174/94/27
f 178/98/29 175/99/28 176/96/28
f 180/100/29 177/101/29 178/98/29
f 182/102/30 179/103/29 180/100/29
f 184/104/30 181/3/30 182/102/30
f 186/105/6 183/106/30 184/104/30
f 188/107/31 185/108/6 186/105/6
f 190/109/32 187/110/31 188/107/31
f 192/111/33 189/112/32 190/109/32
f 194/113/34 191/114/33 192/111/33
f 196/115/35 193/116/34 194/113/34
f 198/117/36 195/118/35 196/115/35
f 200/119/37 197/120/36 198/117/36
f 202/121/38 199/122/37 200/119/37
f 204/123/39 201/124/38 202/121/38
f 206/125/40 203/126/39 204/123/39
f 208/127/17 205/128/40 206/125/40
f 210/129/18 207/47/17 208/127/17
f 212/130/19 209/131/18 210/129/18
f 214/132/19 211/133/19 212/130/19
f 216/134/41 213/135/19 214/132/19
f 218/136/41 215/137/41 216/134/41
f 220/138/42 217/139/41 218/136/41
f 222/140/42 219/141/42 220/138/42
f 224/142/43 221/143/44 222/140/42
f 226/144/43 223/145/43 224/142/43
f 228/146/45 225/147/43 226/144/43
f 230/148/46 227/149/46 228/146/45
f 232/150/47 229/151/45 230/148/46
f 156/78/20 231/152/20 232/150/47
f 120/59/3 119/53/3 117/31/4
f 122/61/5 121/36/5 119/53/3
f 124/62/6 123/32/6 121/36/5
f 126/63/7 125/30/7 123/32/6
f 128/64/8 127/49/8 125/30/7
f 130/65/9 129/55/9 127/49/8
f 132/66/10 131/1/10 129/55/9
f 134/67/11 133/12/11 131/1/10
f 136/68/12 135/25/12 133/12/11
f 138/69/13 137/22/13 135/25/12
f 140/70/14 139/19/14 137/22/13
f 142/71/15 141/45/15 139/19/14
f 144/72/16 143/46/16 141/45/15
f 146/73/17 145/43/17 143/46/16
f 148/74/18 147/40/18 145/43/17
f 150/75/19 149/16/19 147/40/18
f 152/76/19 151/20/19 149/16/19
f 154/77/4 153/14/4 151/20/19
f 118/78/4 117/9/4 153/14/4
f 158/79/3 157/81/3 155/31/20
f 160/80/5 159/83/5 157/81/3
f 162/82/21 161/85/21 159/83/5
f 164/84/22 163/87/22 161/85/21
f 166/86/23 165/89/23 163/87/22
f 168/88/24 167/91/24 165/89/23
f 170/90/25 169/93/25 167/91/24
f 172/92/26 171/95/26 169/93/25
f 174/94/27 173/97/27 171/95/26
f 176/96/28 175/99/28 173/97/27
f 178/98/29 177/101/29 175/99/28
f 180/100/29 179/103/29 177/101/29
f 182/102/30 181/3/30 179/103/29
f 184/104/30 183/106/30 181/3/30
f 186/105/6 185/108/6 183/106/30
f 188/107/31 187/110/31 185/108/6
f 190/109/32 189/112/32 187/110/31
f 192/111/33 191/114/33 189/112/32
f 194/113/34 193/116/34 191/114/33
f 196/115/35 195/118/35 193/116/34
f 198/117/36 197/120/36 195/118/35
f 200/119/37 199/122/37 197/120/36
f 202/121/38 201/124/38 199/122/37
f 204/123/39 203/126/39 201/124/38
f 206/125/40 205/128/40 203/126/39
f 208/127/17 207/47/17 205/128/40
f 210/129/18 209/131/18 207/47/17
f 212/130/19 211/133/19 209/131/18
f 214/132/19 213/135/19 211/133/19
f 216/134/41 215/137/41 213/135/19
f 218/136/41 217/139/41 215/137/41
f 220/138/42 219/141/42 217/139/41
f 222/140/42 221/143/44 219/141/42
f 224/142/43 223/145/43 221/143/44
f 226/144/43 225/147/43 223/145/43
f 228/146/45 227/149/46 225/147/43
f 230/148/46 229/151/45 227/149/46
f 232/150/47 231/152/20 229/151/45
f 156/78/20 155/9/20 231/152/20
