# Blender 5.2.1 LTS
# www.blender.org
mtllib km.mtl
o Text
v 0.372035 -0.436105 0.240996
v 0.011409 -0.436105 0.240996
v 0.066607 0.189470 0.240996
v 0.427232 0.189470 0.240996
v 1.321437 0.079075 0.240996
v 0.072127 0.079075 0.240996
v 0.081326 0.189470 0.240996
v 1.330636 0.189470 0.240996
v 1.409753 -0.436105 0.240996
v 1.049127 -0.436105 0.240996
v 1.104325 0.189470 0.240996
v 1.464951 0.189470 0.240996
v 0.890894 -0.436105 0.240996
v 0.530268 -0.436105 0.240996
v 0.585466 0.189470 0.240996
v 0.946092 0.189470 0.240996
v 0.417492 0.079075 0.240996
v 1.094584 0.079075 0.240996
v 0.575725 0.079075 0.240996
v 0.936351 0.079075 0.240996
v 0.372035 -0.436105 -0.259004
v 0.011409 -0.436105 -0.259004
v 0.066607 0.189470 -0.259004
v 0.427232 0.189470 -0.259004
v 1.321437 0.079075 -0.259004
v 0.072127 0.079075 -0.259004
v 0.081326 0.189470 -0.259004
v 1.330636 0.189470 -0.259004
v 1.409753 -0.436105 -0.259004
v 1.049127 -0.436105 -0.259004
v 1.104325 0.189470 -0.259004
v 1.464951 0.189470 -0.259004
v 0.890894 -0.436105 -0.259004
v 0.530268 -0.436105 -0.259004
v 0.585466 0.189470 -0.259004
v 0.946092 0.189470 -0.259004
v 0.417492 0.079075 -0.259004
v 1.094584 0.079075 -0.259004
v 0.575725 0.079075 -0.259004
v 0.936351 0.079075 -0.259004
v 0.372035 -0.436105 -0.259004
v 0.372035 -0.436105 0.240996
v 0.011409 -0.436105 -0.259004
v 0.011409 -0.436105 0.240996
v 0.066607 0.189470 -0.259004
v 0.066607 0.189470 0.240996
v 0.427232 0.189470 -0.259004
v 0.427232 0.189470 0.240996
v 1.321437 0.079075 -0.259004
v 1.321437 0.079075 0.240996
v 0.072127 0.079075 -0.259004
v 0.072127 0.079075 0.240996
v 0.081326 0.189470 -0.259004
v 0.081326 0.189470 0.240996
v 1.330636 0.189470 -0.259004
v 1.330636 0.189470 0.240996
v 1.409753 -0.436105 -0.259004
v 1.409753 -0.436105 0.240996
v 1.049127 -0.436105 -0.259004
v 1.049127 -0.436105 0.240996
v 1.104325 0.189470 -0.259004
v 1.104325 0.189470 0.240996
v 1.464951 0.189470 -0.259004
v 1.464951 0.189470 0.240996
v 0.890894 -0.436105 -0.259004
v 0.890894 -0.436105 0.240996
v 0.530268 -0.436105 -0.259004
v 0.530268 -0.436105 0.240996
v 0.585466 0.189470 -0.259004
v 0.585466 0.189470 0.240996
v 0.946092 0.189470 -0.259004
v 0.946092 0.189470 0.240996
vn -0.0000 -0.0000 1.0000
vn -0.0000 -0.0000 -1.0000
vn -0.7375 -0.6753 -0.0000
vn 0.6753 -0.7375 -0.0000
vn -0.6753 0.7375 -0.0000
vn 0.7375 0.6753 -0.0000
vn -0.7359 -0.6771 -0.0000
vn 0.6771 -0.7359 -0.0000
vn -0.6771 0.7359 -0.0000
vn 0.7359 0.6771 -0.0000
vt 0.105263 0.000000
vt 0.052632 0.000000
vt 0.263158 0.000000
vt 0.315789 0.000000
vt 0.000000 0.000000
vt 0.842105 0.000000
vt 0.157895 0.000000
vt 0.421053 0.000000
vt 0.578947 0.000000
vt 0.210526 0.000000
vt 0.368421 0.000000
vt 0.473684 0.000000
vt 0.526316 0.000000
vt 0.894737 0.000000
vt 1.000000 0.000000
vt 0.947368 0.000000
vt 0.631579 0.000000
vt 0.736842 0.000000
vt 0.789474 0.000000
vt 0.684211 0.000000
vt 0.250000 1.000000
vt 0.000000 1.000000
vt 0.500000 1.000000
vt 0.250000 0.000000
vt 0.750000 1.000000
vt 0.500000 0.000000
vt 1.000000 1.000000
vt 0.750000 0.000000
s 1
usemtl Material.001
f 3/1/1 2/2/1 6/3/1
f 6/3/1 7/4/1 3/1/1
f 6/3/1 2/2/1 1/5/1
f 17/6/1 4/7/1 6/3/1
f 7/4/1 6/3/1 4/7/1
f 9/8/1 12/9/1 5/10/1
f 8/11/1 5/10/1 12/9/1
f 9/8/1 5/10/1 10/12/1
f 5/10/1 8/11/1 11/13/1
f 10/12/1 5/10/1 18/14/1
f 20/15/1 19/16/1 13/17/1
f 4/7/1 17/6/1 15/18/1
f 5/10/1 11/13/1 18/14/1
f 6/3/1 1/5/1 17/6/1
f 19/16/1 20/15/1 16/19/1
f 11/13/1 16/19/1 18/14/1
f 14/20/1 13/17/1 19/16/1
f 15/18/1 17/6/1 19/16/1
f 16/19/1 15/18/1 19/16/1
f 18/14/1 16/19/1 20/15/1
f 23/1/2 26/3/2 22/2/2
f 26/3/2 23/1/2 27/4/2
f 26/3/2 21/5/2 22/2/2
f 37/6/2 26/3/2 24/7/2
f 27/4/2 24/7/2 26/3/2
f 29/8/2 25/10/2 32/9/2
f 28/11/2 32/9/2 25/10/2
f 29/8/2 30/12/2 25/10/2
f 25/10/2 31/13/2 28/11/2
f 30/12/2 38/14/2 25/10/2
f 40/15/2 33/17/2 39/16/2
f 24/7/2 35/18/2 37/6/2
f 25/10/2 38/14/2 31/13/2
f 26/3/2 37/6/2 21/5/2
f 39/16/2 36/19/2 40/15/2
f 31/13/2 38/14/2 36/19/2
f 34/20/2 39/16/2 33/17/2
f 35/18/2 39/16/2 37/6/2
f 36/19/2 39/16/2 35/18/2
f 38/14/2 40/15/2 36/19/2
f 44/21/3 41/5/4 42/22/4
f 46/23/5 43/24/3 44/21/3
f 48/25/6 45/26/5 46/23/5
f 42/27/4 47/28/6 48/25/6
f 52/21/7 49/5/8 50/22/8
f 54/23/9 51/24/7 52/21/7
f 56/25/10 53/26/9 54/23/9
f 50/27/8 55/28/10 56/25/10
f 60/21/3 57/5/4 58/22/4
f 62/23/5 59/24/3 60/21/3
f 64/25/6 61/26/5 62/23/5
f 58/27/4 63/28/6 64/25/6
f 68/21/3 65/5/4 66/22/4
f 70/23/5 67/24/3 68/21/3
f 72/25/6 69/26/5 70/23/5
f 66/27/4 71/28/6 72/25/6
f 44/21/3 43/24/3 41/5/4
f 46/23/5 45/26/5 43/24/3
f 48/25/6 47/28/6 45/26/5
f 42/27/4 41/15/4 47/28/6
f 52/21/7 51/24/7 49/5/8
f 54/23/9 53/26/9 51/24/7
f 56/25/10 55/28/10 53/26/9
f 50/27/8 49/15/8 55/28/10
f 60/21/3 59/24/3 57/5/4
f 62/23/5 61/26/5 59/24/3
f 64/25/6 63/28/6 61/26/5
f 58/27/4 57/15/4 63/28/6
f 68/21/3 67/24/3 65/5/4
f 70/23/5 69/26/5 67/24/3
f 72/25/6 71/28/6 69/26/5
f 66/27/4 65/15/4 71/28/6
o Text.001
v -0.937912 -0.436105 0.240996
v -1.320617 -0.436105 0.240996
v -1.228621 0.629213 0.240996
v -0.845916 0.629213 0.240996
v -0.076827 -0.436105 0.240996
v -0.459531 -0.436105 0.240996
v -0.724481 0.086434 0.240996
v -0.341776 0.086434 0.240996
v -0.025309 0.167391 0.240996
v -1.248860 -0.185875 0.240996
v -1.237820 -0.046040 0.240996
v -0.014269 0.307226 0.240996
v -0.337170 0.077350 0.240996
v -0.671003 -0.019035 0.240996
v -0.907800 -0.087403 0.240996
v -0.895698 0.052738 0.240996
v -0.937912 -0.436105 -0.259004
v -1.320617 -0.436105 -0.259004
v -1.228621 0.629213 -0.259004
v -0.845916 0.629213 -0.259004
v -0.076827 -0.436105 -0.259004
v -0.459531 -0.436105 -0.259004
v -0.724481 0.086434 -0.259004
v -0.341776 0.086434 -0.259004
v -0.025309 0.167391 -0.259004
v -1.248860 -0.185875 -0.259004
v -1.237820 -0.046040 -0.259004
v -0.014269 0.307226 -0.259004
v -0.337170 0.077350 -0.259004
v -0.671003 -0.019035 -0.259004
v -0.907800 -0.087403 -0.259004
v -0.895698 0.052738 -0.259004
v -0.937912 -0.436105 -0.259004
v -0.937912 -0.436105 0.240996
v -1.320617 -0.436105 -0.259004
v -1.320617 -0.436105 0.240996
v -1.228621 0.629213 -0.259004
v -1.228621 0.629213 0.240996
v -0.845916 0.629213 -0.259004
v -0.845916 0.629213 0.240996
v -0.076827 -0.436105 -0.259004
v -0.076827 -0.436105 0.240996
v -0.459531 -0.436105 -0.259004
v -0.459531 -0.436105 0.240996
v -0.724481 0.086434 -0.259004
v -0.724481 0.086434 0.240996
v -0.341776 0.086434 -0.259004
v -0.341776 0.086434 0.240996
v -0.025309 0.167391 -0.259004
v -0.025309 0.167391 0.240996
v -1.248860 -0.185875 -0.259004
v -1.248860 -0.185875 0.240996
v -1.237820 -0.046040 -0.259004
v -1.237820 -0.046040 0.240996
v -0.014269 0.307226 -0.259004
v -0.014269 0.307226 0.240996
vn -0.0000 -0.0000 1.0000
vn -0.0000 -0.0000 -1.0000
vn -0.7369 -0.6760 -0.0000
vn 0.6760 -0.7369 -0.0000
vn -0.6760 0.7369 -0.0000
vn 0.7369 0.6760 -0.0000
vn -0.5233 -0.8521 -0.0000
vn 0.8521 -0.5234 -0.0000
vn 0.8521 -0.5233 -0.0000
vn -0.8521 0.5233 -0.0000
vn -0.5234 -0.8521 -0.0000
vn 0.5233 0.8521 -0.0000
vn -0.8521 0.5234 -0.0000
vn 0.5234 0.8521 -0.0000
vn -0.6321 -0.7749 -0.0000
vn 0.7749 -0.6321 -0.0000
vn -0.7749 0.6321 -0.0000
vn 0.6321 0.7749 -0.0000
vt 0.066667 0.000000
vt 0.600000 0.000000
vt 0.666667 0.000000
vt 0.000000 0.000000
vt 0.133333 0.000000
vt 0.400000 0.000000
vt 0.866667 0.000000
vt 0.466667 0.000000
vt 0.800000 0.000000
vt 0.533333 0.000000
vt 0.733333 0.000000
vt 1.000000 0.000000
vt 0.933333 0.000000
vt 0.200000 0.000000
vt 0.333333 0.000000
vt 0.266667 0.000000
vt 0.250000 1.000000
vt 0.000000 1.000000
vt 0.500000 1.000000
vt 0.250000 0.000000
vt 0.750000 1.000000
vt 0.500000 0.000000
vt 1.000000 1.000000
vt 0.750000 0.000000
s 1
usemtl Material.002
f 74/29/11 82/30/11 83/31/11
f 82/30/11 74/29/11 73/32/11
f 74/29/11 83/31/11 75/33/11
f 79/34/11 86/35/11 80/36/11
f 80/36/11 85/37/11 81/38/11
f 81/38/11 84/39/11 80/36/11
f 88/40/11 87/41/11 79/34/11
f 76/42/11 75/33/11 83/31/11
f 87/41/11 88/40/11 83/31/11
f 78/43/11 77/44/11 85/37/11
f 86/35/11 78/43/11 85/37/11
f 85/37/11 80/36/11 86/35/11
f 86/35/11 79/34/11 87/41/11
f 82/30/11 73/32/11 87/41/11
f 83/31/11 82/30/11 87/41/11
f 76/42/11 83/31/11 88/40/11
f 79/34/11 80/36/11 84/39/11
f 84/39/11 88/40/11 79/34/11
f 90/29/12 99/31/12 98/30/12
f 98/30/12 89/32/12 90/29/12
f 90/29/12 91/33/12 99/31/12
f 95/34/12 96/36/12 102/35/12
f 96/36/12 97/38/12 101/37/12
f 97/38/12 96/36/12 100/39/12
f 104/40/12 95/34/12 103/41/12
f 92/42/12 99/31/12 91/33/12
f 103/41/12 99/31/12 104/40/12
f 94/43/12 101/37/12 93/44/12
f 102/35/12 101/37/12 94/43/12
f 101/37/12 102/35/12 96/36/12
f 102/35/12 103/41/12 95/34/12
f 98/30/12 103/41/12 89/32/12
f 99/31/12 103/41/12 98/30/12
f 92/42/12 104/40/12 99/31/12
f 95/34/12 100/39/12 96/36/12
f 100/39/12 95/34/12 104/40/12
f 108/45/13 105/32/14 106/46/14
f 110/47/15 107/48/13 108/45/13
f 112/49/16 109/50/15 110/47/15
f 106/51/14 111/52/16 112/49/16
f 116/45/17 113/32/18 114/46/19
f 118/47/20 115/48/21 116/45/17
f 120/49/22 117/50/23 118/47/20
f 114/51/19 119/52/24 120/49/22
f 124/45/25 121/32/26 122/46/26
f 126/47/27 123/48/25 124/45/25
f 128/49/28 125/50/27 126/47/27
f 122/51/26 127/52/28 128/49/28
f 108/45/13 107/48/13 105/32/14
f 110/47/15 109/50/15 107/48/13
f 112/49/16 111/52/16 109/50/15
f 106/51/14 105/40/14 111/52/16
f 116/45/17 115/48/21 113/32/18
f 118/47/20 117/50/23 115/48/21
f 120/49/22 119/52/24 117/50/23
f 114/51/19 113/40/18 119/52/24
f 124/45/25 123/48/25 121/32/26
f 126/47/27 125/50/27 123/48/25
f 128/49/28 127/52/28 125/50/27
f 122/51/26 121/40/26 127/52/28
