# Blender 5.2.1 LTS
# www.blender.org
mtllib km0.mtl
o Text
v -0.467046 -0.436105 0.240996
v -0.849751 -0.436105 0.240996
v -0.757755 0.629213 0.240996
v -0.375050 0.629213 0.240996
v 0.394039 -0.436105 0.240996
v 0.011335 -0.436105 0.240996
v -0.253615 0.086434 0.240996
v 0.129090 0.086434 0.240996
v 0.445557 0.167391 0.240996
v -0.777994 -0.185875 0.240996
v -0.766954 -0.046040 0.240996
v 0.456597 0.307226 0.240996
v 0.133696 0.077350 0.240996
v -0.200137 -0.019035 0.240996
v -0.436934 -0.087403 0.240996
v -0.424832 0.052738 0.240996
v -0.467046 -0.436105 -0.259004
v -0.849751 -0.436105 -0.259004
v -0.757755 0.629213 -0.259004
v -0.375050 0.629213 -0.259004
v 0.394039 -0.436105 -0.259004
v 0.011335 -0.436105 -0.259004
v -0.253615 0.086434 -0.259004
v 0.129090 0.086434 -0.259004
v 0.445557 0.167391 -0.259004
v -0.777994 -0.185875 -0.259004
v -0.766954 -0.046040 -0.259004
v 0.456597 0.307226 -0.259004
v 0.133696 0.077350 -0.259004
v -0.200137 -0.019035 -0.259004
v -0.436934 -0.087403 -0.259004
v -0.424832 0.052738 -0.259004
v -0.467046 -0.436105 -0.259004
v -0.467046 -0.436105 0.240996
v -0.849751 -0.436105 -0.259004
v -0.849751 -0.436105 0.240996
v -0.757755 0.629213 -0.259004
v -0.757755 0.629213 0.240996
v -0.375050 0.629213 -0.259004
v -0.375050 0.629213 0.240996
v 0.394039 -0.436105 -0.259004
v 0.394039 -0.436105 0.240996
v 0.011335 -0.436105 -0.259004
v 0.011335 -0.436105 0.240996
v -0.253615 0.086434 -0.259004
v -0.253615 0.086434 0.240996
v 0.129090 0.086434 -0.259004
v 0.129090 0.086434 0.240996
v 0.445557 0.167391 -0.259004
v 0.445557 0.167391 0.240996
v -0.777994 -0.185875 -0.259004
v -0.777994 -0.185875 0.240996
v -0.766954 -0.046040 -0.259004
v -0.766954 -0.046040 0.240996
v 0.456597 0.307226 -0.259004
v 0.456597 0.307226 0.240996
vn -0.0000 -0.0000 1.0000
vn -0.0000 -0.0000 -1.0000
vn -0.7369 -0.6760 -0.0000
vn 0.6760 -0.7369 -0.0000
vn -0.6760 0.7369 -0.0000
vn 0.7369 0.6760 -0.0000
vn -0.5234 -0.8521 -0.0000
vn 0.8521 -0.5233 -0.0000
vn -0.8521 0.5233 -0.0000
vn -0.5233 -0.8521 -0.0000
vn 0.5234 0.8521 -0.0000
vn 0.5233 0.8521 -0.0000
vn -0.6321 -0.7749 -0.0000
vn 0.7749 -0.6321 -0.0000
vn -0.7749 0.6321 -0.0000
vn 0.6321 0.7749 -0.0000
vt 0.066667 0.000000
vt 0.600000 0.000000
vt 0.666667 0.000000
vt 0.000000 0.000000
vt 0.133333 0.000000
vt 0.400000 0.000000
vt 0.866667 0.000000
vt 0.466667 0.000000
vt 0.800000 0.000000
vt 0.533333 0.000000
vt 0.733333 0.000000
vt 1.000000 0.000000
vt 0.933333 0.000000
vt 0.200000 0.000000
vt 0.333333 0.000000
vt 0.266667 0.000000
vt 0.250000 1.000000
vt 0.000000 1.000000
vt 0.500000 1.000000
vt 0.250000 0.000000
vt 0.750000 1.000000
vt 0.500000 0.000000
vt 1.000000 1.000000
vt 0.750000 0.000000
s 0
usemtl Material.001
f 2/1/1 10/2/1 11/3/1
f 10/2/1 2/1/1 1/4/1
f 2/1/1 11/3/1 3/5/1
f 7/6/1 14/7/1 8/8/1
f 8/8/1 13/9/1 9/10/1
f 9/10/1 12/11/1 8/8/1
f 16/12/1 15/13/1 7/6/1
f 4/14/1 3/5/1 11/3/1
f 15/13/1 16/12/1 11/3/1
f 6/15/1 5/16/1 13/9/1
f 14/7/1 6/15/1 13/9/1
f 13/9/1 8/8/1 14/7/1
f 14/7/1 7/6/1 15/13/1
f 10/2/1 1/4/1 15/13/1
f 11/3/1 10/2/1 15/13/1
f 4/14/1 11/3/1 16/12/1
f 7/6/1 8/8/1 12/11/1
f 12/11/1 16/12/1 7/6/1
f 18/1/2 27/3/2 26/2/2
f 26/2/2 17/4/2 18/1/2
f 18/1/2 19/5/2 27/3/2
f 23/6/2 24/8/2 30/7/2
f 24/8/2 25/10/2 29/9/2
f 25/10/2 24/8/2 28/11/2
f 32/12/2 23/6/2 31/13/2
f 20/14/2 27/3/2 19/5/2
f 31/13/2 27/3/2 32/12/2
f 22/15/2 29/9/2 21/16/2
f 30/7/2 29/9/2 22/15/2
f 29/9/2 30/7/2 24/8/2
f 30/7/2 31/13/2 23/6/2
f 26/2/2 31/13/2 17/4/2
f 27/3/2 31/13/2 26/2/2
f 20/14/2 32/12/2 27/3/2
f 23/6/2 28/11/2 24/8/2
f 28/11/2 23/6/2 32/12/2
s 1
f 36/17/3 33/4/4 34/18/4
f 38/19/5 35/20/3 36/17/3
f 40/21/6 37/22/5 38/19/5
f 34/23/4 39/24/6 40/21/6
f 44/17/7 41/4/8 42/18/8
f 46/19/9 43/20/10 44/17/7
f 48/21/11 45/22/9 46/19/9
f 42/23/8 47/24/12 48/21/11
f 52/17/13 49/4/14 50/18/14
f 54/19/15 51/20/13 52/17/13
f 56/21/16 53/22/15 54/19/15
f 50/23/14 55/24/16 56/21/16
f 36/17/3 35/20/3 33/4/4
f 38/19/5 37/22/5 35/20/3
f 40/21/6 39/24/6 37/22/5
f 34/23/4 33/12/4 39/24/6
f 44/17/7 43/20/10 41/4/8
f 46/19/9 45/22/9 43/20/10
f 48/21/11 47/24/12 45/22/9
f 42/23/8 41/12/8 47/24/12
f 52/17/13 51/20/13 49/4/14
f 54/19/15 53/22/15 51/20/13
f 56/21/16 55/24/16 53/22/15
f 50/23/14 49/12/14 55/24/16
