# Blender 5.2.1 LTS
# www.blender.org
mtllib km1.mtl
o Text
v -0.489125 -0.436105 0.240996
v -0.849751 -0.436105 0.240996
v -0.794553 0.189470 0.240996
v -0.433928 0.189470 0.240996
v 0.460277 0.079075 0.240996
v -0.789033 0.079075 0.240996
v -0.779834 0.189470 0.240996
v 0.469476 0.189470 0.240996
v 0.548593 -0.436105 0.240996
v 0.187967 -0.436105 0.240996
v 0.243165 0.189470 0.240996
v 0.603791 0.189470 0.240996
v 0.029734 -0.436105 0.240996
v -0.330892 -0.436105 0.240996
v -0.275694 0.189470 0.240996
v 0.084932 0.189470 0.240996
v -0.443668 0.079075 0.240996
v 0.233424 0.079075 0.240996
v -0.285435 0.079075 0.240996
v 0.075191 0.079075 0.240996
v -0.489125 -0.436105 -0.259004
v -0.849751 -0.436105 -0.259004
v -0.794553 0.189470 -0.259004
v -0.433928 0.189470 -0.259004
v 0.460277 0.079075 -0.259004
v -0.789033 0.079075 -0.259004
v -0.779834 0.189470 -0.259004
v 0.469476 0.189470 -0.259004
v 0.548593 -0.436105 -0.259004
v 0.187967 -0.436105 -0.259004
v 0.243165 0.189470 -0.259004
v 0.603791 0.189470 -0.259004
v 0.029734 -0.436105 -0.259004
v -0.330892 -0.436105 -0.259004
v -0.275694 0.189470 -0.259004
v 0.084932 0.189470 -0.259004
v -0.443668 0.079075 -0.259004
v 0.233424 0.079075 -0.259004
v -0.285435 0.079075 -0.259004
v 0.075191 0.079075 -0.259004
v -0.489125 -0.436105 -0.259004
v -0.489125 -0.436105 0.240996
v -0.849751 -0.436105 -0.259004
v -0.849751 -0.436105 0.240996
v -0.794553 0.189470 -0.259004
v -0.794553 0.189470 0.240996
v -0.433928 0.189470 -0.259004
v -0.433928 0.189470 0.240996
v 0.460277 0.079075 -0.259004
v 0.460277 0.079075 0.240996
v -0.789033 0.079075 -0.259004
v -0.789033 0.079075 0.240996
v -0.779834 0.189470 -0.259004
v -0.779834 0.189470 0.240996
v 0.469476 0.189470 -0.259004
v 0.469476 0.189470 0.240996
v 0.548593 -0.436105 -0.259004
v 0.548593 -0.436105 0.240996
v 0.187967 -0.436105 -0.259004
v 0.187967 -0.436105 0.240996
v 0.243165 0.189470 -0.259004
v 0.243165 0.189470 0.240996
v 0.603791 0.189470 -0.259004
v 0.603791 0.189470 0.240996
v 0.029734 -0.436105 -0.259004
v 0.029734 -0.436105 0.240996
v -0.330892 -0.436105 -0.259004
v -0.330892 -0.436105 0.240996
v -0.275694 0.189470 -0.259004
v -0.275694 0.189470 0.240996
v 0.084932 0.189470 -0.259004
v 0.084932 0.189470 0.240996
vn -0.0000 -0.0000 1.0000
vn -0.0000 -0.0000 -1.0000
vn -0.7375 -0.6753 -0.0000
vn 0.6753 -0.7375 -0.0000
vn -0.6753 0.7375 -0.0000
vn 0.7375 0.6753 -0.0000
vn -0.7359 -0.6771 -0.0000
vn 0.6771 -0.7359 -0.0000
vn -0.6771 0.7359 -0.0000
vn 0.7359 0.6771 -0.0000
vt 0.105263 0.000000
vt 0.052632 0.000000
vt 0.263158 0.000000
vt 0.315789 0.000000
vt 0.000000 0.000000
vt 0.842105 0.000000
vt 0.157895 0.000000
vt 0.421053 0.000000
vt 0.578947 0.000000
vt 0.210526 0.000000
vt 0.368421 0.000000
vt 0.473684 0.000000
vt 0.526316 0.000000
vt 0.894737 0.000000
vt 1.000000 0.000000
vt 0.947368 0.000000
vt 0.631579 0.000000
vt 0.736842 0.000000
vt 0.789474 0.000000
vt 0.684211 0.000000
vt 0.250000 1.000000
vt 0.000000 1.000000
vt 0.500000 1.000000
vt 0.250000 0.000000
vt 0.750000 1.000000
vt 0.500000 0.000000
vt 1.000000 1.000000
vt 0.750000 0.000000
s 0
usemtl Material.001
f 3/1/1 2/2/1 6/3/1
f 6/3/1 7/4/1 3/1/1
f 6/3/1 2/2/1 1/5/1
f 17/6/1 4/7/1 6/3/1
f 7/4/1 6/3/1 4/7/1
f 9/8/1 12/9/1 5/10/1
f 8/11/1 5/10/1 12/9/1
f 9/8/1 5/10/1 10/12/1
f 5/10/1 8/11/1 11/13/1
f 10/12/1 5/10/1 18/14/1
f 20/15/1 19/16/1 13/17/1
f 4/7/1 17/6/1 15/18/1
f 5/10/1 11/13/1 18/14/1
f 6/3/1 1/5/1 17/6/1
f 19/16/1 20/15/1 16/19/1
f 11/13/1 16/19/1 18/14/1
f 14/20/1 13/17/1 19/16/1
f 15/18/1 17/6/1 19/16/1
f 16/19/1 15/18/1 19/16/1
f 18/14/1 16/19/1 20/15/1
f 23/1/2 26/3/2 22/2/2
f 26/3/2 23/1/2 27/4/2
f 26/3/2 21/5/2 22/2/2
f 37/6/2 26/3/2 24/7/2
f 27/4/2 24/7/2 26/3/2
f 29/8/2 25/10/2 32/9/2
f 28/11/2 32/9/2 25/10/2
f 29/8/2 30/12/2 25/10/2
f 25/10/2 31/13/2 28/11/2
f 30/12/2 38/14/2 25/10/2
f 40/15/2 33/17/2 39/16/2
f 24/7/2 35/18/2 37/6/2
f 25/10/2 38/14/2 31/13/2
f 26/3/2 37/6/2 21/5/2
f 39/16/2 36/19/2 40/15/2
f 31/13/2 38/14/2 36/19/2
f 34/20/2 39/16/2 33/17/2
f 35/18/2 39/16/2 37/6/2
f 36/19/2 39/16/2 35/18/2
f 38/14/2 40/15/2 36/19/2
s 1
f 44/21/3 41/5/4 42/22/4
f 46/23/5 43/24/3 44/21/3
f 48/25/6 45/26/5 46/23/5
f 42/27/4 47/28/6 48/25/6
f 52/21/7 49/5/8 50/22/8
f 54/23/9 51/24/7 52/21/7
f 56/25/10 53/26/9 54/23/9
f 50/27/8 55/28/10 56/25/10
f 60/21/3 57/5/4 58/22/4
f 62/23/5 59/24/3 60/21/3
f 64/25/6 61/26/5 62/23/5
f 58/27/4 63/28/6 64/25/6
f 68/21/3 65/5/4 66/22/4
f 70/23/5 67/24/3 68/21/3
f 72/25/6 69/26/5 70/23/5
f 66/27/4 71/28/6 72/25/6
f 44/21/3 43/24/3 41/5/4
f 46/23/5 45/26/5 43/24/3
f 48/25/6 47/28/6 45/26/5
f 42/27/4 41/15/4 47/28/6
f 52/21/7 51/24/7 49/5/8
f 54/23/9 53/26/9 51/24/7
f 56/25/10 55/28/10 53/26/9
f 50/27/8 49/15/8 55/28/10
f 60/21/3 59/24/3 57/5/4
f 62/23/5 61/26/5 59/24/3
f 64/25/6 63/28/6 61/26/5
f 58/27/4 57/15/4 63/28/6
f 68/21/3 67/24/3 65/5/4
f 70/23/5 69/26/5 67/24/3
f 72/25/6 71/28/6 69/26/5
f 66/27/4 65/15/4 71/28/6
