# Blender 5.2.1 LTS
# www.blender.org
mtllib ResultArrow.mtl
o 立方体
v 0.627150 -0.181205 0.181205
v 0.627150 -0.181206 -0.181206
v 0.627150 0.181206 0.181205
v 0.627150 0.181205 -0.181206
v -0.627150 -0.592918 0.177936
v -0.627150 -0.592918 -0.177936
v -0.627150 0.592918 0.177936
v -0.627150 0.592918 -0.177936
v -0.627150 0.181205 -0.181205
v -0.627150 0.181206 0.181206
v -0.627150 -0.181205 0.181206
v -0.627150 -0.181206 -0.181205
v -1.358034 0.000000 0.177936
v -1.358034 -0.000000 -0.177936
vn 1.0000 -0.0000 -0.0000
vn -0.0000 1.0000 -0.0000
vn -0.6300 -0.7766 -0.0000
vn -0.0000 -1.0000 -0.0000
vn -0.0000 -0.0000 1.0000
vn -0.0000 -0.0000 -1.0000
vn -1.0000 -0.0000 -0.0000
vn -0.6300 0.7766 -0.0000
vt 0.375000 0.000000
vt 0.625000 0.000000
vt 0.625000 0.250000
vt 0.375000 0.250000
vt 0.625000 0.500000
vt 0.375000 0.500000
vt 0.625000 0.750000
vt 0.375000 0.750000
vt 0.625000 1.000000
vt 0.375000 1.000000
vt 0.125000 0.500000
vt 0.125000 0.750000
vt 0.875000 0.500000
vt 0.875000 0.750000
s 0
f 1/1/1 2/2/1 4/3/1 3/4/1
f 3/4/2 4/3/2 9/5/2 10/6/2
f 6/7/3 5/8/3 13/8/3 14/7/3
f 11/8/4 12/7/4 2/9/4 1/10/4
f 3/11/5 10/6/5 11/8/5 1/12/5
f 9/5/6 4/13/6 2/14/6 12/7/6
f 8/5/1 7/6/1 10/6/1 9/5/1
f 7/6/7 5/8/7 11/8/7 10/6/7
f 6/7/7 8/5/7 9/5/7 12/7/7
f 5/8/1 6/7/1 12/7/1 11/8/1
f 5/8/5 7/6/5 13/8/5
f 8/5/6 6/7/6 14/5/6
f 7/6/8 8/5/8 14/5/8 13/6/8
o テキスト
v 1.343173 0.572308 -0.116141
v 1.355964 0.747758 -0.125752
v 1.522253 0.747758 -0.125752
v 1.509462 0.572308 -0.116141
v 0.958630 0.435439 -0.108643
v 0.982614 0.747758 -0.125752
v 1.148902 0.747758 -0.125752
v 1.124918 0.435439 -0.108643
v 0.963426 0.490554 -0.111662
v 1.493472 0.490554 -0.111662
v 1.489475 0.435439 -0.108643
v 0.973020 0.572308 -0.116141
v 0.977017 0.627423 -0.119160
v 1.507063 0.627423 -0.119160
v 1.503066 0.572308 -0.116141
v 0.985012 0.692643 -0.122733
v 0.989009 0.747758 -0.125752
v 1.519055 0.747758 -0.125752
v 1.515058 0.692643 -0.122733
v 1.129151 0.490554 -0.111662
v 1.139662 0.627423 -0.119160
v 1.347191 0.627423 -0.119160
v 1.135429 0.572308 -0.116141
v 1.351946 0.692643 -0.122733
v 1.144670 0.692643 -0.122733
v 0.691608 0.435439 -0.108643
v 0.732381 0.968219 -0.137829
v 0.898670 0.968219 -0.137829
v 0.857897 0.435439 -0.108643
v 0.354233 0.435439 -0.108643
v 0.357431 0.490554 -0.111662
v 0.602867 0.490554 -0.111662
v 0.598870 0.435439 -0.108643
v 0.320656 0.692643 -0.122733
v 0.325452 0.747758 -0.125752
v 0.622054 0.747758 -0.125752
v 0.618057 0.692643 -0.122733
v 0.339843 0.435439 -0.108643
v 0.373420 0.886465 -0.133350
v 0.539709 0.886465 -0.133350
v 0.506132 0.435439 -0.108643
v 0.358991 0.692643 -0.122733
v 0.363094 0.747758 -0.125752
v 0.529383 0.747758 -0.125752
v 0.525280 0.692643 -0.122733
v 0.510235 0.490554 -0.111662
v 0.073620 0.880034 -0.132998
v 0.080016 0.968219 -0.137829
v 0.246305 0.968219 -0.137829
v 0.239909 0.880034 -0.132998
v 0.040842 0.435439 -0.108643
v 0.064027 0.747758 -0.125752
v 0.230316 0.747758 -0.125752
v 0.207131 0.435439 -0.108643
v -0.576345 0.912185 -0.134759
v -0.572348 0.967300 -0.137778
v -0.035906 0.967300 -0.137778
v -0.039904 0.912185 -0.134759
v -0.424447 0.435439 -0.108643
v -0.384474 0.967300 -0.137778
v -0.218185 0.967300 -0.137778
v -0.258158 0.435439 -0.108643
v -0.388616 0.912185 -0.134759
v -0.222327 0.912185 -0.134759
v 1.343173 0.580355 0.030760
v 1.355964 0.755805 0.021148
v 1.522253 0.755805 0.021148
v 1.509462 0.580355 0.030760
v 0.958630 0.443486 0.038257
v 0.982614 0.755805 0.021148
v 1.148902 0.755805 0.021148
v 1.124918 0.443486 0.038257
v 0.963426 0.498601 0.035238
v 1.493472 0.498601 0.035238
v 1.489475 0.443486 0.038257
v 0.973020 0.580355 0.030760
v 0.977017 0.635471 0.027740
v 1.507063 0.635471 0.027740
v 1.503066 0.580355 0.030760
v 0.985012 0.700690 0.024168
v 0.989009 0.755805 0.021148
v 1.519055 0.755805 0.021148
v 1.515058 0.700690 0.024168
v 1.129151 0.498601 0.035238
v 1.139662 0.635471 0.027740
v 1.347191 0.635471 0.027740
v 1.135429 0.580355 0.030760
v 1.351946 0.700690 0.024168
v 1.144670 0.700690 0.024168
v 0.691608 0.443486 0.038257
v 0.732381 0.976266 0.009072
v 0.898670 0.976266 0.009072
v 0.857897 0.443486 0.038257
v 0.354233 0.443486 0.038257
v 0.357431 0.498601 0.035238
v 0.602867 0.498601 0.035238
v 0.598870 0.443486 0.038257
v 0.320656 0.700690 0.024168
v 0.325452 0.755805 0.021148
v 0.622054 0.755805 0.021148
v 0.618057 0.700690 0.024168
v 0.339843 0.443486 0.038257
v 0.373420 0.894512 0.013550
v 0.539709 0.894512 0.013550
v 0.506132 0.443486 0.038257
v 0.358991 0.700690 0.024168
v 0.363094 0.755805 0.021148
v 0.529383 0.755805 0.021148
v 0.525280 0.700690 0.024168
v 0.510235 0.498601 0.035238
v 0.073620 0.888082 0.013902
v 0.080016 0.976266 0.009072
v 0.246305 0.976266 0.009072
v 0.239909 0.888082 0.013902
v 0.040842 0.443486 0.038257
v 0.064027 0.755805 0.021148
v 0.230316 0.755805 0.021148
v 0.207131 0.443486 0.038257
v -0.576345 0.920232 0.012141
v -0.572348 0.975347 0.009122
v -0.035906 0.975347 0.009122
v -0.039904 0.920232 0.012141
v -0.424447 0.443486 0.038257
v -0.384474 0.975347 0.009122
v -0.218185 0.975347 0.009122
v -0.258158 0.443486 0.038257
v -0.388616 0.920232 0.012141
v -0.222327 0.920232 0.012141
vn -0.0000 -0.0547 -0.9985
vn -0.0000 0.0547 0.9985
vn -0.9971 0.0761 -0.0042
vn 0.9974 -0.0721 0.0040
vn -0.0000 0.9985 -0.0547
vn -0.0000 -0.9985 0.0547
vn -0.9972 0.0740 -0.0041
vn 0.9971 -0.0761 0.0042
vn 0.9972 -0.0747 0.0041
vn -0.9972 0.0747 -0.0041
vn 0.9972 -0.0740 0.0041
vn -0.9973 0.0738 -0.0040
vn -0.9971 0.0763 -0.0042
vn 0.9973 -0.0738 0.0040
vn 0.9974 -0.0725 0.0040
vn -0.9974 0.0721 -0.0040
vn 0.9971 -0.0763 0.0042
vn -0.9974 0.0725 -0.0040
vn -0.9962 0.0864 -0.0047
vt 0.458333 0.000000
vt 0.333333 0.000000
vt 0.500000 0.000000
vt 0.250000 0.000000
vt 0.625000 0.000000
vt 0.666667 0.000000
vt 0.208333 0.000000
vt 0.291667 0.000000
vt 0.166667 0.000000
vt 0.791667 0.000000
vt 0.708333 0.000000
vt 0.083333 0.000000
vt 0.750000 0.000000
vt 0.125000 0.000000
vt 0.541667 0.000000
vt 0.583333 0.000000
vt 0.000000 0.000000
vt 0.875000 0.000000
vt 0.958333 0.000000
vt 0.041667 0.000000
vt 0.416667 0.000000
vt 0.916667 0.000000
vt 0.833333 0.000000
vt 0.375000 0.000000
vt 1.000000 0.000000
vt 0.062500 0.000000
vt 0.687500 0.000000
vt 0.187500 0.000000
vt 0.812500 0.000000
vt 0.937500 0.000000
vt 0.312500 0.000000
vt 0.562500 0.000000
vt 0.437500 0.000000
vt 0.714286 0.000000
vt 0.571429 0.000000
vt 0.857143 0.000000
vt 0.142857 0.000000
vt 0.428571 0.000000
vt 0.285714 0.000000
vt 0.111111 0.000000
vt 0.555556 0.000000
vt 0.888889 0.000000
vt 0.222222 0.000000
vt 0.777778 0.000000
vt 0.444444 0.000000
s 0
usemtl Material
f 26/15/9 23/16/9 27/17/9
f 21/18/9 30/19/9 31/20/9
f 20/21/9 31/20/9 30/19/9
f 23/16/9 22/22/9 19/23/9
f 22/22/9 23/16/9 34/24/9
f 30/19/9 27/17/9 20/21/9
f 23/16/9 20/21/9 27/17/9
f 19/23/9 20/21/9 23/16/9
f 32/25/9 17/26/9 33/27/9
f 17/26/9 18/28/9 33/27/9
f 28/29/9 33/27/9 18/28/9
f 18/28/9 29/30/9 28/29/9
f 15/31/9 28/29/9 29/30/9
f 36/32/9 28/29/9 15/31/9
f 33/27/9 38/33/9 16/34/9
f 33/27/9 16/34/9 32/25/9
f 34/24/9 25/35/9 22/22/9
f 37/36/9 27/17/9 35/37/9
f 26/15/9 34/24/9 23/16/9
f 35/37/9 15/31/9 37/36/9
f 25/35/9 34/24/9 24/38/9
f 21/18/9 39/39/9 30/19/9
f 16/34/9 38/33/9 21/18/9
f 15/31/9 35/37/9 36/32/9
f 26/15/9 37/36/9 34/24/9
f 27/17/9 37/36/9 26/15/9
f 36/32/9 38/33/9 28/29/9
f 28/29/9 38/33/9 33/27/9
f 21/18/9 38/33/9 39/39/9
f 30/19/9 35/37/9 27/17/9
f 35/37/9 30/19/9 39/39/9
f 41/16/9 43/39/9 40/31/9
f 43/39/9 41/16/9 42/20/9
f 44/31/9 52/17/9 45/40/9
f 45/40/9 56/27/9 60/39/9
f 55/41/9 46/28/9 47/42/9
f 45/40/9 55/41/9 44/31/9
f 45/40/9 60/39/9 55/41/9
f 56/27/9 57/43/9 59/44/9
f 57/43/9 54/19/9 58/32/9
f 52/17/9 56/27/9 45/40/9
f 49/45/9 56/27/9 48/18/9
f 57/43/9 56/27/9 49/45/9
f 54/19/9 57/43/9 53/46/9
f 51/47/9 58/32/9 50/38/9
f 59/44/9 58/32/9 51/47/9
f 58/32/9 59/44/9 57/43/9
f 59/44/9 60/39/9 56/27/9
f 55/41/9 60/39/9 46/28/9
f 66/48/9 68/39/9 65/49/9
f 68/39/9 66/48/9 67/50/9
f 62/51/9 64/52/9 61/31/9
f 64/52/9 62/51/9 63/53/9
f 70/54/9 74/55/9 69/31/9
f 77/56/9 74/55/9 78/39/9
f 72/16/9 75/20/9 71/57/9
f 78/39/9 76/58/9 77/56/9
f 73/59/9 77/56/9 76/58/9
f 74/55/9 77/56/9 69/31/9
f 72/16/9 78/39/9 75/20/9
f 75/20/9 78/39/9 74/55/9
f 90/15/10 91/17/10 87/16/10
f 85/18/10 95/20/10 94/19/10
f 84/21/10 94/19/10 95/20/10
f 87/16/10 83/23/10 86/22/10
f 86/22/10 98/24/10 87/16/10
f 94/19/10 84/21/10 91/17/10
f 87/16/10 91/17/10 84/21/10
f 83/23/10 87/16/10 84/21/10
f 96/25/10 97/27/10 81/26/10
f 81/26/10 97/27/10 82/28/10
f 92/29/10 82/28/10 97/27/10
f 82/28/10 92/29/10 93/30/10
f 79/31/10 93/30/10 92/29/10
f 100/32/10 79/31/10 92/29/10
f 97/27/10 80/34/10 102/33/10
f 97/27/10 96/25/10 80/34/10
f 98/24/10 86/22/10 89/35/10
f 101/36/10 99/37/10 91/17/10
f 90/15/10 87/16/10 98/24/10
f 99/37/10 101/36/10 79/31/10
f 89/35/10 88/38/10 98/24/10
f 85/18/10 94/19/10 103/39/10
f 80/34/10 85/18/10 102/33/10
f 79/31/10 100/32/10 99/37/10
f 90/15/10 98/24/10 101/36/10
f 91/17/10 90/15/10 101/36/10
f 100/32/10 92/29/10 102/33/10
f 92/29/10 97/27/10 102/33/10
f 85/18/10 103/39/10 102/33/10
f 94/19/10 91/17/10 99/37/10
f 99/37/10 103/39/10 94/19/10
f 105/16/10 104/31/10 107/39/10
f 107/39/10 106/20/10 105/16/10
f 108/31/10 109/40/10 116/17/10
f 109/40/10 124/39/10 120/27/10
f 119/41/10 111/42/10 110/28/10
f 109/40/10 108/31/10 119/41/10
f 109/40/10 119/41/10 124/39/10
f 120/27/10 123/44/10 121/43/10
f 121/43/10 122/32/10 118/19/10
f 116/17/10 109/40/10 120/27/10
f 113/45/10 112/18/10 120/27/10
f 121/43/10 113/45/10 120/27/10
f 118/19/10 117/46/10 121/43/10
f 115/47/10 114/38/10 122/32/10
f 123/44/10 115/47/10 122/32/10
f 122/32/10 121/43/10 123/44/10
f 123/44/10 120/27/10 124/39/10
f 119/41/10 110/28/10 124/39/10
f 130/48/10 129/49/10 132/39/10
f 132/39/10 131/50/10 130/48/10
f 126/51/10 125/31/10 128/52/10
f 128/52/10 127/53/10 126/51/10
f 134/54/10 133/31/10 138/55/10
f 141/56/10 142/39/10 138/55/10
f 136/16/10 135/57/10 139/20/10
f 142/39/10 141/56/10 140/58/10
f 137/59/10 140/58/10 141/56/10
f 138/55/10 133/31/10 141/56/10
f 136/16/10 139/20/10 142/39/10
f 139/20/10 138/55/10 142/39/10
f 41/16/11 40/31/11 104/31/11 105/16/11
f 72/16/12 71/57/12 135/57/12 136/16/12
f 54/19/13 53/46/13 117/46/13 118/19/13
f 40/31/14 43/39/14 107/39/14 104/31/14
f 31/20/13 20/21/13 84/21/13 95/20/13
f 71/57/13 75/20/13 139/20/13 135/57/13
f 53/46/15 57/43/15 121/43/15 117/46/15
f 43/39/16 42/20/16 106/20/16 107/39/16
f 32/25/13 16/34/13 80/34/13 96/25/13
f 76/58/17 78/39/17 142/39/17 140/58/17
f 42/20/13 41/16/13 105/16/13 106/20/13
f 51/47/12 50/38/12 114/38/12 115/47/12
f 52/17/14 44/31/14 108/31/14 116/17/14
f 22/22/14 25/35/14 89/35/14 86/22/14
f 77/56/18 73/59/18 137/59/18 141/56/18
f 50/38/13 58/32/13 122/32/13 114/38/13
f 19/23/14 22/22/14 86/22/14 83/23/14
f 73/59/14 76/58/14 140/58/14 137/59/14
f 69/31/14 77/56/14 141/56/14 133/31/14
f 59/44/14 51/47/14 115/47/14 123/44/14
f 78/39/14 72/16/14 136/16/14 142/39/14
f 60/39/19 59/44/19 123/44/19 124/39/19
f 46/28/13 60/39/13 124/39/13 110/28/13
f 75/20/13 74/55/13 138/55/13 139/20/13
f 37/36/14 15/31/14 79/31/14 101/36/14
f 66/48/20 65/49/20 129/49/20 130/48/20
f 55/41/14 47/42/14 111/42/14 119/41/14
f 25/35/12 24/38/12 88/38/12 89/35/12
f 20/21/21 19/23/21 83/23/21 84/21/21
f 65/49/14 68/39/14 132/39/14 129/49/14
f 47/42/12 46/28/12 110/28/12 111/42/12
f 24/38/13 34/24/13 98/24/13 88/38/13
f 17/26/13 32/25/13 96/25/13 81/26/13
f 68/39/22 67/50/22 131/50/22 132/39/22
f 67/50/13 66/48/13 130/48/13 131/50/13
f 44/31/14 55/41/14 119/41/14 108/31/14
f 16/34/13 21/18/13 85/18/13 80/34/13
f 18/28/23 17/26/23 81/26/23 82/28/23
f 62/51/24 61/31/24 125/31/24 126/51/24
f 61/31/14 64/52/14 128/52/14 125/31/14
f 36/32/13 35/37/13 99/37/13 100/32/13
f 64/52/12 63/53/12 127/53/12 128/52/12
f 63/53/13 62/51/13 126/51/13 127/53/13
f 34/24/25 37/36/25 101/36/25 98/24/25
f 29/30/14 18/28/14 82/28/14 93/30/14
f 74/55/13 70/54/13 134/54/13 138/55/13
f 38/33/26 36/32/26 100/32/26 102/33/26
f 70/54/24 69/31/24 133/31/24 134/54/24
f 58/32/19 54/19/19 118/19/19 122/32/19
f 56/27/15 52/17/15 116/17/15 120/27/15
f 39/39/14 38/33/14 102/33/14 103/39/14
f 15/31/14 29/30/14 93/30/14 79/31/14
f 49/45/27 48/18/27 112/18/27 113/45/27
f 35/37/25 39/39/25 103/39/25 99/37/25
f 48/18/14 56/27/14 120/27/14 112/18/14
f 21/18/13 31/20/13 95/20/13 85/18/13
f 57/43/13 49/45/13 113/45/13 121/43/13
