{
	"asset":{
		"generator":"Khronos glTF Blender I/O v4.4.56",
		"version":"2.0"
	},
	"scene":0,
	"scenes":[
		{
			"name":"Scene",
			"nodes":[
				0
			]
		}
	],
	"nodes":[
		{
			"mesh":0,
			"name":"\u7acb\u65b9\u4f53",
			"scale":[
				0.2487344741821289,
				0.2487344741821289,
				0.40074029564857483
			],
			"translation":[
				0.03902077674865723,
				0,
				-0.42016899585723877
			]
		}
	],
	"materials":[
		{
			"doubleSided":true,
			"name":"\u30de\u30c6\u30ea\u30a2\u30eb",
			"pbrMetallicRoughness":{
				"baseColorFactor":[
					0.800000011920929,
					0.800000011920929,
					0.800000011920929,
					1
				],
				"metallicFactor":0,
				"roughnessFactor":0.5
			}
		}
	],
	"meshes":[
		{
			"name":"\u7acb\u65b9\u4f53",
			"primitives":[
				{
					"attributes":{
						"POSITION":0,
						"NORMAL":1,
						"TEXCOORD_0":2
					},
					"indices":3,
					"material":0
				}
			]
		}
	],
	"accessors":[
		{
			"bufferView":0,
			"componentType":5126,
			"count":810,
			"max":[
				0.8395062685012817,
				0.8395062685012817,
				0.7991993427276611
			],
			"min":[
				-1.6539424657821655,
				-0.4850010573863983,
				-0.8395062685012817
			],
			"type":"VEC3"
		},
		{
			"bufferView":1,
			"componentType":5126,
			"count":810,
			"type":"VEC3"
		},
		{
			"bufferView":2,
			"componentType":5126,
			"count":810,
			"type":"VEC2"
		},
		{
			"bufferView":3,
			"componentType":5123,
			"count":1206,
			"type":"SCALAR"
		}
	],
	"bufferViews":[
		{
			"buffer":0,
			"byteLength":9720,
			"byteOffset":0,
			"target":34962
		},
		{
			"buffer":0,
			"byteLength":9720,
			"byteOffset":9720,
			"target":34962
		},
		{
			"buffer":0,
			"byteLength":6480,
			"byteOffset":19440,
			"target":34962
		},
		{
			"buffer":0,
			"byteLength":2412,
			"byteOffset":25920,
			"target":34963
		}
	],
	"buffers":[
		{
			"byteLength":28332,
			"uri":"playerHand.bin"
		}
	]
}
