# Blender 5.2.1 LTS
# www.blender.org
mtllib tutorialLogo.mtl
o Text.001
v 4.151484 0.250000 0.459276
v 3.548626 0.250000 0.459276
v 3.952912 0.250000 -0.540724
v 4.271484 0.250000 -0.540724
v 3.927198 0.250000 0.312133
v 4.211483 0.250000 0.312133
v 3.292912 0.250000 0.459276
v 2.974341 0.250000 0.459276
v 3.318626 0.250000 -0.393582
v 3.637198 0.250000 -0.393582
v 2.828627 0.250000 -0.393582
v 1.968626 0.250000 -0.393582
v 2.028626 0.250000 -0.540724
v 3.205770 0.250000 -0.540724
v 2.955770 0.250000 0.079276
v 2.637198 0.250000 0.079276
v 2.484341 0.250000 0.459276
v 2.165770 0.250000 0.459276
v 2.417198 0.250000 -0.160724
v 2.734341 0.250000 -0.160724
v 0.920055 0.250000 0.079276
v 0.601484 0.250000 0.079276
v 0.852912 0.250000 -0.540724
v 1.170055 0.250000 -0.540724
v 1.452913 0.250000 0.459276
v 1.135770 0.250000 0.459276
v 1.540056 0.250000 -0.540724
v 1.857198 0.250000 -0.540724
v -0.337087 0.250000 0.459276
v -0.655659 0.250000 0.459276
v -0.251373 0.250000 -0.540724
v 0.067198 0.250000 -0.540724
v -0.087087 0.250000 -0.160724
v 0.527198 0.250000 -0.160724
v 0.407198 0.250000 0.133561
v -0.205659 0.250000 0.133561
v -0.577087 0.250000 -0.160724
v -0.674230 0.250000 0.079276
v -1.851373 0.250000 0.079276
v -1.754230 0.250000 -0.160724
v -2.175659 0.250000 0.459276
v -3.007087 0.250000 0.459276
v -2.887087 0.250000 0.164990
v -2.515659 0.250000 0.164990
v -2.449944 0.250000 0.004990
v -2.822802 0.250000 0.004990
v -2.764230 0.250000 -0.142153
v -2.072802 0.250000 -0.142153
v -2.197087 0.250000 0.164990
v -2.057087 0.250000 0.164990
v -3.769944 0.250000 0.133561
v -4.224230 0.250000 0.133561
v -4.105659 0.250000 -0.160724
v -3.649944 0.250000 -0.160724
v -3.589944 0.250000 -0.309296
v -3.901373 0.250000 -0.272153
v -3.835659 0.250000 -0.433582
v -2.932801 0.250000 -0.540724
v -2.998516 0.250000 -0.379296
v -3.257087 0.250000 -0.349296
v -3.332801 0.250000 -0.160724
v -2.928516 0.250000 -0.160724
v -3.047087 0.250000 0.133561
v -3.451373 0.250000 0.133561
v -3.582801 0.250000 0.459276
v -3.901373 0.250000 0.459276
v 4.151484 -0.250000 0.459276
v 3.548626 -0.250000 0.459276
v 3.952912 -0.250000 -0.540724
v 4.271484 -0.250000 -0.540724
v 3.927198 -0.250000 0.312133
v 4.211483 -0.250000 0.312133
v 3.292912 -0.250000 0.459276
v 2.974341 -0.250000 0.459276
v 3.318626 -0.250000 -0.393582
v 3.637198 -0.250000 -0.393582
v 2.828627 -0.250000 -0.393582
v 1.968626 -0.250000 -0.393582
v 2.028626 -0.250000 -0.540724
v 3.205770 -0.250000 -0.540724
v 2.955770 -0.250000 0.079276
v 2.637198 -0.250000 0.079276
v 2.484341 -0.250000 0.459276
v 2.165770 -0.250000 0.459276
v 2.417198 -0.250000 -0.160724
v 2.734341 -0.250000 -0.160724
v 0.920055 -0.250000 0.079276
v 0.601484 -0.250000 0.079276
v 0.852912 -0.250000 -0.540724
v 1.170055 -0.250000 -0.540724
v 1.452913 -0.250000 0.459276
v 1.135770 -0.250000 0.459276
v 1.540056 -0.250000 -0.540724
v 1.857198 -0.250000 -0.540724
v -0.337087 -0.250000 0.459276
v -0.655659 -0.250000 0.459276
v -0.251373 -0.250000 -0.540724
v 0.067198 -0.250000 -0.540724
v -0.087087 -0.250000 -0.160724
v 0.527198 -0.250000 -0.160724
v 0.407198 -0.250000 0.133561
v -0.205659 -0.250000 0.133561
v -0.577087 -0.250000 -0.160724
v -0.674230 -0.250000 0.079276
v -1.851373 -0.250000 0.079276
v -1.754230 -0.250000 -0.160724
v -2.175659 -0.250000 0.459276
v -3.007087 -0.250000 0.459276
v -2.887087 -0.250000 0.164990
v -2.515659 -0.250000 0.164990
v -2.449944 -0.250000 0.004990
v -2.822802 -0.250000 0.004990
v -2.764230 -0.250000 -0.142153
v -2.072802 -0.250000 -0.142153
v -2.197087 -0.250000 0.164990
v -2.057087 -0.250000 0.164990
v -3.769944 -0.250000 0.133561
v -4.224230 -0.250000 0.133561
v -4.105659 -0.250000 -0.160724
v -3.649944 -0.250000 -0.160724
v -3.589944 -0.250000 -0.309296
v -3.901373 -0.250000 -0.272153
v -3.835659 -0.250000 -0.433582
v -2.932801 -0.250000 -0.540724
v -2.998516 -0.250000 -0.379296
v -3.257087 -0.250000 -0.349296
v -3.332801 -0.250000 -0.160724
v -2.928516 -0.250000 -0.160724
v -3.047087 -0.250000 0.133561
v -3.451373 -0.250000 0.133561
v -3.582801 -0.250000 0.459276
v -3.901373 -0.250000 0.459276
v -3.769944 -0.250000 0.133561
v -3.769944 0.250000 0.133561
v -4.224230 -0.250000 0.133561
v -4.224230 0.250000 0.133561
v -4.105659 -0.250000 -0.160724
v -4.105659 0.250000 -0.160724
v -3.649944 -0.250000 -0.160724
v -3.649944 0.250000 -0.160724
v -3.589944 -0.250000 -0.309296
v -3.589944 0.250000 -0.309296
v -3.901373 -0.250000 -0.272153
v -3.901373 0.250000 -0.272153
v -3.835659 -0.250000 -0.433582
v -3.835659 0.250000 -0.433582
v -2.932801 -0.250000 -0.540724
v -2.932801 0.250000 -0.540724
v -2.998516 -0.250000 -0.379296
v -2.998516 0.250000 -0.379296
v -3.257087 -0.250000 -0.349296
v -3.257087 0.250000 -0.349296
v -3.332801 -0.250000 -0.160724
v -3.332801 0.250000 -0.160724
v -2.928516 -0.250000 -0.160724
v -2.928516 0.250000 -0.160724
v -3.047087 -0.250000 0.133561
v -3.047087 0.250000 0.133561
v -3.451373 -0.250000 0.133561
v -3.451373 0.250000 0.133561
v -3.582801 -0.250000 0.459276
v -3.582801 0.250000 0.459276
v -3.901373 -0.250000 0.459276
v -3.901373 0.250000 0.459276
v -2.175659 -0.250000 0.459276
v -2.175659 0.250000 0.459276
v -3.007087 -0.250000 0.459276
v -3.007087 0.250000 0.459276
v -2.887087 -0.250000 0.164990
v -2.887087 0.250000 0.164990
v -2.515659 -0.250000 0.164990
v -2.515659 0.250000 0.164990
v -2.449944 -0.250000 0.004990
v -2.449944 0.250000 0.004990
v -2.822802 -0.250000 0.004990
v -2.822802 0.250000 0.004990
v -2.764230 -0.250000 -0.142153
v -2.764230 0.250000 -0.142153
v -2.072802 -0.250000 -0.142153
v -2.072802 0.250000 -0.142153
v -2.197087 -0.250000 0.164990
v -2.197087 0.250000 0.164990
v -2.057087 -0.250000 0.164990
v -2.057087 0.250000 0.164990
v -0.577087 -0.250000 -0.160724
v -0.577087 0.250000 -0.160724
v -0.674230 -0.250000 0.079276
v -0.674230 0.250000 0.079276
v -1.851373 -0.250000 0.079276
v -1.851373 0.250000 0.079276
v -1.754230 -0.250000 -0.160724
v -1.754230 0.250000 -0.160724
v -0.337087 -0.250000 0.459276
v -0.337087 0.250000 0.459276
v -0.655659 -0.250000 0.459276
v -0.655659 0.250000 0.459276
v -0.251373 -0.250000 -0.540724
v -0.251373 0.250000 -0.540724
v 0.067198 -0.250000 -0.540724
v 0.067198 0.250000 -0.540724
v -0.087087 -0.250000 -0.160724
v -0.087087 0.250000 -0.160724
v 0.527198 -0.250000 -0.160724
v 0.527198 0.250000 -0.160724
v 0.407198 -0.250000 0.133561
v 0.407198 0.250000 0.133561
v -0.205659 -0.250000 0.133561
v -0.205659 0.250000 0.133561
v 0.920055 -0.250000 0.079276
v 0.920055 0.250000 0.079276
v 0.601484 -0.250000 0.079276
v 0.601484 0.250000 0.079276
v 0.852912 -0.250000 -0.540724
v 0.852912 0.250000 -0.540724
v 1.170055 -0.250000 -0.540724
v 1.170055 0.250000 -0.540724
v 1.452913 -0.250000 0.459276
v 1.452913 0.250000 0.459276
v 1.135770 -0.250000 0.459276
v 1.135770 0.250000 0.459276
v 1.540056 -0.250000 -0.540724
v 1.540056 0.250000 -0.540724
v 1.857198 -0.250000 -0.540724
v 1.857198 0.250000 -0.540724
v 2.828627 -0.250000 -0.393582
v 2.828627 0.250000 -0.393582
v 1.968626 -0.250000 -0.393582
v 1.968626 0.250000 -0.393582
v 2.028626 -0.250000 -0.540724
v 2.028626 0.250000 -0.540724
v 3.205770 -0.250000 -0.540724
v 3.205770 0.250000 -0.540724
v 2.955770 -0.250000 0.079276
v 2.955770 0.250000 0.079276
v 2.637198 -0.250000 0.079276
v 2.637198 0.250000 0.079276
v 2.484341 -0.250000 0.459276
v 2.484341 0.250000 0.459276
v 2.165770 -0.250000 0.459276
v 2.165770 0.250000 0.459276
v 2.417198 -0.250000 -0.160724
v 2.417198 0.250000 -0.160724
v 2.734341 -0.250000 -0.160724
v 2.734341 0.250000 -0.160724
v 4.151484 -0.250000 0.459276
v 4.151484 0.250000 0.459276
v 3.548626 -0.250000 0.459276
v 3.548626 0.250000 0.459276
v 3.952912 -0.250000 -0.540724
v 3.952912 0.250000 -0.540724
v 4.271484 -0.250000 -0.540724
v 4.271484 0.250000 -0.540724
v 3.927198 -0.250000 0.312133
v 3.927198 0.250000 0.312133
v 4.211483 -0.250000 0.312133
v 4.211483 0.250000 0.312133
v 3.292912 -0.250000 0.459276
v 3.292912 0.250000 0.459276
v 2.974341 -0.250000 0.459276
v 2.974341 0.250000 0.459276
v 3.318626 -0.250000 -0.393582
v 3.318626 0.250000 -0.393582
v 3.637198 -0.250000 -0.393582
v 3.637198 0.250000 -0.393582
vn -0.0000 1.0000 -0.0000
vn -0.0000 -1.0000 -0.0000
vn -0.8287 -0.0000 0.5596
vn -0.8289 -0.0000 0.5594
vn -0.5596 -0.0000 -0.8288
vn -0.8288 -0.0000 0.5596
vn -0.5592 -0.0000 -0.8290
vn -0.7943 -0.0000 0.6075
vn -0.7952 -0.0000 0.6063
vn -0.7944 -0.0000 0.6074
vn -0.6061 -0.0000 -0.7954
vn -0.7952 -0.0000 0.6064
vn 0.7954 -0.0000 -0.6061
vn 0.6051 -0.0000 0.7962
vn 0.6070 -0.0000 0.7947
vn 0.8284 -0.0000 -0.5601
vn 0.8288 -0.0000 -0.5596
vn 0.5596 -0.0000 0.8288
vn 0.5594 -0.0000 0.8289
vn -0.8299 -0.0000 0.5579
vn -0.5579 -0.0000 -0.8299
vn -0.5568 -0.0000 -0.8306
vn -0.8306 -0.0000 0.5568
vn -0.8276 -0.0000 0.5613
vn -0.5613 -0.0000 -0.8276
vn -0.8276 -0.0000 0.5614
vn 0.8292 -0.0000 -0.5590
vn 0.8292 -0.0000 -0.5589
vn 0.5589 -0.0000 0.8292
vn -0.8292 -0.0000 0.5589
vn -0.5589 -0.0000 -0.8292
vn -0.8291 -0.0000 0.5591
vn -0.5591 -0.0000 -0.8291
vn 0.8295 -0.0000 -0.5585
vn 0.8299 -0.0000 -0.5579
vn 0.5579 -0.0000 0.8299
vn 0.5578 -0.0000 0.8299
vn -0.8294 -0.0000 0.5587
vn 0.5595 -0.0000 0.8288
vn -0.5587 -0.0000 -0.8294
vn -0.8294 -0.0000 0.5586
vn 0.8288 -0.0000 -0.5595
vn 0.8289 -0.0000 -0.5595
vn 0.5591 -0.0000 0.8291
vn 0.8291 -0.0000 -0.5591
vn -0.8293 -0.0000 0.5589
vn -0.5578 -0.0000 -0.8299
vn 0.8289 -0.0000 -0.5594
vn 0.5598 -0.0000 0.8286
vn -0.5589 -0.0000 -0.8293
vn 0.8290 -0.0000 -0.5593
vn 0.8289 -0.0000 -0.5593
vn -0.8290 -0.0000 0.5593
vn 0.5593 -0.0000 0.8290
vn -0.5593 -0.0000 -0.8290
vn -0.8289 -0.0000 0.5593
vt 1.000000 0.000000
vt 0.888889 0.000000
vt 0.666667 0.000000
vt 0.777778 0.000000
vt 0.000000 0.000000
vt 0.555556 0.000000
vt 0.444444 0.000000
vt 0.222222 0.000000
vt 0.333333 0.000000
vt 0.111111 0.000000
vt 0.285714 0.000000
vt 0.142857 0.000000
vt 0.857143 0.000000
vt 0.571429 0.000000
vt 0.714286 0.000000
vt 0.428571 0.000000
vt 0.133333 0.000000
vt 0.066667 0.000000
vt 0.200000 0.000000
vt 0.266667 0.000000
vt 0.400000 0.000000
vt 0.866667 0.000000
vt 0.800000 0.000000
vt 0.733333 0.000000
vt 0.533333 0.000000
vt 0.466667 0.000000
vt 0.600000 0.000000
vt 0.933333 0.000000
vt 0.062500 1.000000
vt 0.000000 1.000000
vt 0.125000 1.000000
vt 0.062500 0.000000
vt 0.187500 1.000000
vt 0.125000 0.000000
vt 0.250000 1.000000
vt 0.187500 0.000000
vt 0.312500 1.000000
vt 0.250000 0.000000
vt 0.375000 1.000000
vt 0.312500 0.000000
vt 0.437500 1.000000
vt 0.375000 0.000000
vt 0.500000 1.000000
vt 0.437500 0.000000
vt 0.562500 1.000000
vt 0.500000 0.000000
vt 0.625000 1.000000
vt 0.562500 0.000000
vt 0.687500 1.000000
vt 0.625000 0.000000
vt 0.750000 1.000000
vt 0.687500 0.000000
vt 0.812500 1.000000
vt 0.750000 0.000000
vt 0.875000 1.000000
vt 0.812500 0.000000
vt 0.937500 1.000000
vt 0.875000 0.000000
vt 1.000000 1.000000
vt 0.937500 0.000000
vt 0.100000 1.000000
vt 0.200000 1.000000
vt 0.100000 0.000000
vt 0.300000 1.000000
vt 0.400000 1.000000
vt 0.300000 0.000000
vt 0.600000 1.000000
vt 0.700000 1.000000
vt 0.800000 1.000000
vt 0.700000 0.000000
vt 0.900000 1.000000
vt 0.900000 0.000000
vt 0.166667 1.000000
vt 0.333333 1.000000
vt 0.166667 0.000000
vt 0.666667 1.000000
vt 0.833333 1.000000
vt 0.833333 0.000000
s 0
usemtl Material.006
f 10/1/1 9/2/1 7/3/1
f 8/4/1 7/3/1 9/2/1
f 1/5/1 6/6/1 5/7/1
f 3/8/1 5/7/1 4/9/1
f 1/5/1 5/7/1 2/10/1
f 5/7/1 3/8/1 2/10/1
f 11/5/1 15/7/1 14/9/1
f 20/1/1 16/6/1 15/7/1
f 15/7/1 11/5/1 20/1/1
f 18/4/1 17/3/1 16/6/1
f 19/2/1 18/4/1 16/6/1
f 16/6/1 20/1/1 19/2/1
f 13/8/1 12/10/1 11/5/1
f 11/5/1 14/9/1 13/8/1
f 23/11/1 22/12/1 21/5/1
f 28/1/1 27/13/1 25/14/1
f 25/14/1 27/13/1 26/15/1
f 23/11/1 21/5/1 24/16/1
f 30/12/1 29/5/1 36/1/1
f 36/1/1 31/11/1 30/12/1
f 35/13/1 34/15/1 33/14/1
f 35/13/1 33/14/1 36/1/1
f 31/11/1 36/1/1 33/14/1
f 33/14/1 32/16/1 31/11/1
f 40/1/1 39/3/1 38/9/1
f 38/9/1 37/5/1 40/1/1
f 43/8/1 42/10/1 44/9/1
f 41/5/1 50/1/1 49/2/1
f 45/7/1 49/2/1 48/4/1
f 44/9/1 42/10/1 41/5/1
f 41/5/1 49/2/1 44/9/1
f 49/2/1 45/7/1 44/9/1
f 47/3/1 46/6/1 45/7/1
f 45/7/1 48/4/1 47/3/1
f 53/17/1 52/18/1 51/5/1
f 51/5/1 54/19/1 53/17/1
f 55/20/1 57/21/1 56/9/1
f 61/3/1 64/22/1 63/23/1
f 63/23/1 62/24/1 61/3/1
f 59/25/1 58/26/1 60/27/1
f 51/5/1 66/1/1 65/28/1
f 65/28/1 64/22/1 51/5/1
f 54/19/1 51/5/1 64/22/1
f 64/22/1 61/3/1 54/19/1
f 55/20/1 54/19/1 61/3/1
f 61/3/1 60/27/1 55/20/1
f 57/21/1 55/20/1 60/27/1
f 60/27/1 58/26/1 57/21/1
f 76/1/2 73/3/2 75/2/2
f 74/4/2 75/2/2 73/3/2
f 67/5/2 71/7/2 72/6/2
f 69/8/2 70/9/2 71/7/2
f 67/5/2 68/10/2 71/7/2
f 71/7/2 68/10/2 69/8/2
f 77/5/2 80/9/2 81/7/2
f 86/1/2 81/7/2 82/6/2
f 81/7/2 86/1/2 77/5/2
f 84/4/2 82/6/2 83/3/2
f 85/2/2 82/6/2 84/4/2
f 82/6/2 85/2/2 86/1/2
f 79/8/2 77/5/2 78/10/2
f 77/5/2 79/8/2 80/9/2
f 89/11/2 87/5/2 88/12/2
f 94/1/2 91/14/2 93/13/2
f 91/14/2 92/15/2 93/13/2
f 89/11/2 90/16/2 87/5/2
f 96/12/2 102/1/2 95/5/2
f 102/1/2 96/12/2 97/11/2
f 101/13/2 99/14/2 100/15/2
f 101/13/2 102/1/2 99/14/2
f 97/11/2 99/14/2 102/1/2
f 99/14/2 97/11/2 98/16/2
f 106/1/2 104/9/2 105/3/2
f 104/9/2 106/1/2 103/5/2
f 109/8/2 110/9/2 108/10/2
f 107/5/2 115/2/2 116/1/2
f 111/7/2 114/4/2 115/2/2
f 110/9/2 107/5/2 108/10/2
f 107/5/2 110/9/2 115/2/2
f 115/2/2 110/9/2 111/7/2
f 113/3/2 111/7/2 112/6/2
f 111/7/2 113/3/2 114/4/2
f 119/17/2 117/5/2 118/18/2
f 117/5/2 119/17/2 120/19/2
f 121/20/2 122/9/2 123/21/2
f 127/3/2 129/23/2 130/22/2
f 129/23/2 127/3/2 128/24/2
f 125/25/2 126/27/2 124/26/2
f 117/5/2 131/28/2 132/1/2
f 131/28/2 117/5/2 130/22/2
f 120/19/2 130/22/2 117/5/2
f 130/22/2 120/19/2 127/3/2
f 121/20/2 127/3/2 120/19/2
f 127/3/2 121/20/2 126/27/2
f 123/21/2 126/27/2 121/20/2
f 126/27/2 123/21/2 124/26/2
s 1
f 136/29/3 133/5/4 134/30/4
f 138/31/5 135/32/6 136/29/3
f 140/33/7 137/34/5 138/31/5
f 142/35/8 139/36/7 140/33/7
f 144/37/9 141/38/10 142/35/8
f 146/39/11 143/40/12 144/37/9
f 148/41/13 145/42/11 146/39/11
f 150/43/14 147/44/13 148/41/13
f 152/45/15 149/46/14 150/43/14
f 154/47/16 151/48/15 152/45/15
f 156/49/17 153/50/16 154/47/16
f 158/51/18 155/52/17 156/49/17
f 160/53/19 157/54/18 158/51/18
f 162/55/19 159/56/19 160/53/19
f 164/57/4 161/58/19 162/55/19
f 134/59/4 163/60/4 164/57/4
f 168/61/20 165/5/18 166/30/18
f 170/62/21 167/63/20 168/61/20
f 172/64/22 169/19/21 170/62/21
f 174/65/23 171/66/22 172/64/22
f 176/43/24 173/21/23 174/65/23
f 178/67/25 175/46/26 176/43/24
f 180/68/27 177/27/25 178/67/25
f 182/69/27 179/70/27 180/68/27
f 184/71/17 181/23/28 182/69/27
f 166/59/18 183/72/17 184/71/17
f 188/35/29 185/5/28 186/30/28
f 190/43/30 187/38/29 188/35/29
f 192/51/31 189/46/30 190/43/30
f 186/59/28 191/54/31 192/51/31
f 196/31/32 193/5/19 194/30/19
f 198/35/33 195/34/32 196/31/32
f 200/39/34 197/38/33 198/35/33
f 202/43/34 199/42/34 200/39/34
f 204/47/35 201/46/34 202/43/34
f 206/51/36 203/50/35 204/47/35
f 208/55/19 205/54/37 206/51/36
f 194/59/19 207/58/19 208/55/19
f 212/35/38 209/5/39 210/30/39
f 214/43/40 211/38/41 212/35/38
f 216/51/42 213/46/40 214/43/40
f 210/59/39 215/54/43 216/51/42
f 220/35/32 217/5/44 218/30/44
f 222/43/33 219/38/32 220/35/32
f 224/51/45 221/46/33 222/43/33
f 218/59/44 223/54/45 224/51/45
f 228/61/20 225/5/46 226/30/30
f 230/62/47 227/63/20 228/61/20
f 232/64/48 229/19/21 230/62/47
f 234/65/39 231/66/43 232/64/48
f 236/43/49 233/21/39 234/65/39
f 238/67/49 235/46/49 236/43/49
f 240/68/38 237/27/49 238/67/49
f 242/69/40 239/70/41 240/68/38
f 244/71/50 241/23/40 242/69/40
f 226/59/30 243/72/50 244/71/50
f 248/73/32 245/5/37 246/30/37
f 250/74/33 247/75/32 248/73/32
f 252/43/51 249/9/33 250/74/33
f 254/76/52 251/46/52 252/43/51
f 256/77/35 253/3/51 254/76/52
f 246/59/37 255/78/35 256/77/35
f 260/35/53 257/5/54 258/30/54
f 262/43/55 259/38/56 260/35/53
f 264/51/51 261/46/55 262/43/55
f 258/59/54 263/54/52 264/51/51
f 136/29/3 135/32/6 133/5/4
f 138/31/5 137/34/5 135/32/6
f 140/33/7 139/36/7 137/34/5
f 142/35/8 141/38/10 139/36/7
f 144/37/9 143/40/12 141/38/10
f 146/39/11 145/42/11 143/40/12
f 148/41/13 147/44/13 145/42/11
f 150/43/14 149/46/14 147/44/13
f 152/45/15 151/48/15 149/46/14
f 154/47/16 153/50/16 151/48/15
f 156/49/17 155/52/17 153/50/16
f 158/51/18 157/54/18 155/52/17
f 160/53/19 159/56/19 157/54/18
f 162/55/19 161/58/19 159/56/19
f 164/57/4 163/60/4 161/58/19
f 134/59/4 133/1/4 163/60/4
f 168/61/20 167/63/20 165/5/18
f 170/62/21 169/19/21 167/63/20
f 172/64/22 171/66/22 169/19/21
f 174/65/23 173/21/23 171/66/22
f 176/43/24 175/46/26 173/21/23
f 178/67/25 177/27/25 175/46/26
f 180/68/27 179/70/27 177/27/25
f 182/69/27 181/23/28 179/70/27
f 184/71/17 183/72/17 181/23/28
f 166/59/18 165/1/18 183/72/17
f 188/35/29 187/38/29 185/5/28
f 190/43/30 189/46/30 187/38/29
f 192/51/31 191/54/31 189/46/30
f 186/59/28 185/1/28 191/54/31
f 196/31/32 195/34/32 193/5/19
f 198/35/33 197/38/33 195/34/32
f 200/39/34 199/42/34 197/38/33
f 202/43/34 201/46/34 199/42/34
f 204/47/35 203/50/35 201/46/34
f 206/51/36 205/54/37 203/50/35
f 208/55/19 207/58/19 205/54/37
f 194/59/19 193/1/19 207/58/19
f 212/35/38 211/38/41 209/5/39
f 214/43/40 213/46/40 211/38/41
f 216/51/42 215/54/43 213/46/40
f 210/59/39 209/1/39 215/54/43
f 220/35/32 219/38/32 217/5/44
f 222/43/33 221/46/33 219/38/32
f 224/51/45 223/54/45 221/46/33
f 218/59/44 217/1/44 223/54/45
f 228/61/20 227/63/20 225/5/46
f 230/62/47 229/19/21 227/63/20
f 232/64/48 231/66/43 229/19/21
f 234/65/39 233/21/39 231/66/43
f 236/43/49 235/46/49 233/21/39
f 238/67/49 237/27/49 235/46/49
f 240/68/38 239/70/41 237/27/49
f 242/69/40 241/23/40 239/70/41
f 244/71/50 243/72/50 241/23/40
f 226/59/30 225/1/46 243/72/50
f 248/73/32 247/75/32 245/5/37
f 250/74/33 249/9/33 247/75/32
f 252/43/51 251/46/52 249/9/33
f 254/76/52 253/3/51 251/46/52
f 256/77/35 255/78/35 253/3/51
f 246/59/37 245/1/37 255/78/35
f 260/35/53 259/38/56 257/5/54
f 262/43/55 261/46/55 259/38/56
f 264/51/51 263/54/52 261/46/55
f 258/59/54 257/1/54 263/54/52
