# Blender 5.2.1 LTS
# www.blender.org
mtllib tutorialLogo2.mtl
o Text
v 1.474578 0.050000 -1.029424
v 1.356936 0.050000 -0.592281
v 1.648149 0.050000 -0.592281
v 1.221935 0.050000 0.970576
v 0.793793 0.050000 0.970576
v 1.258578 0.050000 -0.735138
v 0.097578 0.050000 -0.735138
v 0.178578 0.050000 -1.029424
v 2.012650 0.050000 -1.029424
v 1.910435 0.050000 -0.655138
v 1.428292 0.050000 -0.655138
v 1.530506 0.050000 -1.029424
v 1.858364 0.050000 -0.875138
v 1.599935 0.050000 -0.875138
v 1.582578 0.050000 -0.806566
v 1.841006 0.050000 -0.806566
v -0.974708 0.050000 -0.443709
v -1.179137 0.050000 0.304862
v -1.379708 0.050000 0.304862
v -1.175279 0.050000 -0.443709
v -0.669993 0.050000 -0.443709
v -0.874422 0.050000 0.304862
v -1.074994 0.050000 0.304862
v -0.870564 0.050000 -0.443709
v -0.270779 0.050000 -0.235138
v -0.600565 0.050000 0.970576
v -0.905279 0.050000 0.970576
v -0.575494 0.050000 -0.235138
v -2.640994 0.050000 0.504862
v -3.254279 0.050000 0.504862
v -3.094208 0.050000 -0.083709
v -2.480922 0.050000 -0.083709
v -2.382565 0.050000 -0.440852
v -2.997779 0.050000 -0.440852
v -2.916779 0.050000 -0.735138
v -2.303493 0.050000 -0.735138
v -2.222493 0.050000 -1.029424
v -1.792422 0.050000 -1.029424
v -1.873422 0.050000 -0.735138
v -1.327636 0.050000 -0.735138
v -1.408636 0.050000 -0.440852
v -1.952494 0.050000 -0.440852
v -2.050851 0.050000 -0.083709
v -1.505065 0.050000 -0.083709
v -1.665136 0.050000 0.504862
v -2.210922 0.050000 0.504862
v -2.338208 0.050000 0.970576
v -2.768279 0.050000 0.970576
v -4.602351 0.050000 0.970576
v -5.205994 0.050000 0.970576
v -3.898422 0.050000 -0.735138
v -4.602351 0.050000 -0.735138
v -4.521351 0.050000 -1.029424
v -3.071065 0.050000 -1.029424
v -3.653494 0.050000 -0.269424
v -3.614922 0.050000 0.970576
v -4.014136 0.050000 0.970576
v -4.037279 0.050000 0.230576
v 1.474578 -0.050000 -1.029424
v 1.356936 -0.050000 -0.592281
v 1.648149 -0.050000 -0.592281
v 1.221935 -0.050000 0.970576
v 0.793793 -0.050000 0.970576
v 1.258578 -0.050000 -0.735138
v 0.097578 -0.050000 -0.735138
v 0.178578 -0.050000 -1.029424
v 2.012650 -0.050000 -1.029424
v 1.910435 -0.050000 -0.655138
v 1.428292 -0.050000 -0.655138
v 1.530506 -0.050000 -1.029424
v 1.858364 -0.050000 -0.875138
v 1.599935 -0.050000 -0.875138
v 1.582578 -0.050000 -0.806566
v 1.841006 -0.050000 -0.806566
v -0.974708 -0.050000 -0.443709
v -1.179137 -0.050000 0.304862
v -1.379708 -0.050000 0.304862
v -1.175279 -0.050000 -0.443709
v -0.669993 -0.050000 -0.443709
v -0.874422 -0.050000 0.304862
v -1.074994 -0.050000 0.304862
v -0.870564 -0.050000 -0.443709
v -0.270779 -0.050000 -0.235138
v -0.600565 -0.050000 0.970576
v -0.905279 -0.050000 0.970576
v -0.575494 -0.050000 -0.235138
v -2.640994 -0.050000 0.504862
v -3.254279 -0.050000 0.504862
v -3.094208 -0.050000 -0.083709
v -2.480922 -0.050000 -0.083709
v -2.382565 -0.050000 -0.440852
v -2.997779 -0.050000 -0.440852
v -2.916779 -0.050000 -0.735138
v -2.303493 -0.050000 -0.735138
v -2.222493 -0.050000 -1.029424
v -1.792422 -0.050000 -1.029424
v -1.873422 -0.050000 -0.735138
v -1.327636 -0.050000 -0.735138
v -1.408636 -0.050000 -0.440852
v -1.952494 -0.050000 -0.440852
v -2.050851 -0.050000 -0.083709
v -1.505065 -0.050000 -0.083709
v -1.665136 -0.050000 0.504862
v -2.210922 -0.050000 0.504862
v -2.338208 -0.050000 0.970576
v -2.768279 -0.050000 0.970576
v -4.602351 -0.050000 0.970576
v -5.205994 -0.050000 0.970576
v -3.898422 -0.050000 -0.735138
v -4.602351 -0.050000 -0.735138
v -4.521351 -0.050000 -1.029424
v -3.071065 -0.050000 -1.029424
v -3.653494 -0.050000 -0.269424
v -3.614922 -0.050000 0.970576
v -4.014136 -0.050000 0.970576
v -4.037279 -0.050000 0.230576
v -4.602351 -0.050000 0.970576
v -4.602351 0.050000 0.970576
v -5.205994 -0.050000 0.970576
v -5.205994 0.050000 0.970576
v -3.898422 -0.050000 -0.735138
v -3.898422 0.050000 -0.735138
v -4.602351 -0.050000 -0.735138
v -4.602351 0.050000 -0.735138
v -4.521351 -0.050000 -1.029424
v -4.521351 0.050000 -1.029424
v -3.071065 -0.050000 -1.029424
v -3.071065 0.050000 -1.029424
v -3.653494 -0.050000 -0.269424
v -3.653494 0.050000 -0.269424
v -3.614922 -0.050000 0.970576
v -3.614922 0.050000 0.970576
v -4.014136 -0.050000 0.970576
v -4.014136 0.050000 0.970576
v -4.037279 -0.050000 0.230576
v -4.037279 0.050000 0.230576
v -2.640994 -0.050000 0.504862
v -2.640994 0.050000 0.504862
v -3.254279 -0.050000 0.504862
v -3.254279 0.050000 0.504862
v -3.094208 -0.050000 -0.083709
v -3.094208 0.050000 -0.083709
v -2.480922 -0.050000 -0.083709
v -2.480922 0.050000 -0.083709
v -2.382565 -0.050000 -0.440852
v -2.382565 0.050000 -0.440852
v -2.997779 -0.050000 -0.440852
v -2.997779 0.050000 -0.440852
v -2.916779 -0.050000 -0.735138
v -2.916779 0.050000 -0.735138
v -2.303493 -0.050000 -0.735138
v -2.303493 0.050000 -0.735138
v -2.222493 -0.050000 -1.029424
v -2.222493 0.050000 -1.029424
v -1.792422 -0.050000 -1.029424
v -1.792422 0.050000 -1.029424
v -1.873422 -0.050000 -0.735138
v -1.873422 0.050000 -0.735138
v -1.327636 -0.050000 -0.735138
v -1.327636 0.050000 -0.735138
v -1.408636 -0.050000 -0.440852
v -1.408636 0.050000 -0.440852
v -1.952494 -0.050000 -0.440852
v -1.952494 0.050000 -0.440852
v -2.050851 -0.050000 -0.083709
v -2.050851 0.050000 -0.083709
v -1.505065 -0.050000 -0.083709
v -1.505065 0.050000 -0.083709
v -1.665136 -0.050000 0.504862
v -1.665136 0.050000 0.504862
v -2.210922 -0.050000 0.504862
v -2.210922 0.050000 0.504862
v -2.338208 -0.050000 0.970576
v -2.338208 0.050000 0.970576
v -2.768279 -0.050000 0.970576
v -2.768279 0.050000 0.970576
v -0.974708 -0.050000 -0.443709
v -0.974708 0.050000 -0.443709
v -1.179137 -0.050000 0.304862
v -1.179137 0.050000 0.304862
v -1.379708 -0.050000 0.304862
v -1.379708 0.050000 0.304862
v -1.175279 -0.050000 -0.443709
v -1.175279 0.050000 -0.443709
v -0.669993 -0.050000 -0.443709
v -0.669993 0.050000 -0.443709
v -0.874422 -0.050000 0.304862
v -0.874422 0.050000 0.304862
v -1.074994 -0.050000 0.304862
v -1.074994 0.050000 0.304862
v -0.870564 -0.050000 -0.443709
v -0.870564 0.050000 -0.443709
v -0.270779 -0.050000 -0.235138
v -0.270779 0.050000 -0.235138
v -0.600565 -0.050000 0.970576
v -0.600565 0.050000 0.970576
v -0.905279 -0.050000 0.970576
v -0.905279 0.050000 0.970576
v -0.575494 -0.050000 -0.235138
v -0.575494 0.050000 -0.235138
v 1.474578 -0.050000 -1.029424
v 1.474578 0.050000 -1.029424
v 1.356936 -0.050000 -0.592281
v 1.356936 0.050000 -0.592281
v 1.648149 -0.050000 -0.592281
v 1.648149 0.050000 -0.592281
v 1.221935 -0.050000 0.970576
v 1.221935 0.050000 0.970576
v 0.793793 -0.050000 0.970576
v 0.793793 0.050000 0.970576
v 1.258578 -0.050000 -0.735138
v 1.258578 0.050000 -0.735138
v 0.097578 -0.050000 -0.735138
v 0.097578 0.050000 -0.735138
v 0.178578 -0.050000 -1.029424
v 0.178578 0.050000 -1.029424
v 2.012650 -0.050000 -1.029424
v 2.012650 0.050000 -1.029424
v 1.910435 -0.050000 -0.655138
v 1.910435 0.050000 -0.655138
v 1.428292 -0.050000 -0.655138
v 1.428292 0.050000 -0.655138
v 1.530506 -0.050000 -1.029424
v 1.530506 0.050000 -1.029424
v 1.858364 -0.050000 -0.875138
v 1.858364 0.050000 -0.875138
v 1.599935 -0.050000 -0.875138
v 1.599935 0.050000 -0.875138
v 1.582578 -0.050000 -0.806566
v 1.582578 0.050000 -0.806566
v 1.841006 -0.050000 -0.806566
v 1.841006 0.050000 -0.806566
vn -0.0000 1.0000 -0.0000
vn -0.0000 -1.0000 -0.0000
vn -0.9690 -0.0000 0.2469
vn 0.4892 -0.0000 0.8722
vn -0.9107 -0.0000 0.4132
vn -0.7056 -0.0000 -0.7086
vn 0.9690 -0.0000 -0.2470
vn 0.9613 -0.0000 0.2754
vn 0.8405 -0.0000 0.5418
vn -0.8166 -0.0000 0.5773
vn -0.5311 -0.0000 0.8473
vn -0.8165 -0.0000 0.5773
vn -0.5312 -0.0000 0.8473
vn -0.9100 -0.0000 0.4147
vn -0.9102 -0.0000 0.4141
vn -0.7072 -0.0000 -0.7070
vn -0.9099 -0.0000 0.4147
vn -0.7056 -0.0000 -0.7087
vn -0.9107 -0.0000 0.4131
vn -0.7055 -0.0000 -0.7087
vn 0.9107 -0.0000 -0.4132
vn 0.7056 -0.0000 0.7086
vn 0.7056 -0.0000 0.7087
vn 0.9107 -0.0000 -0.4131
vn 0.7055 -0.0000 0.7087
vn 0.9100 -0.0000 -0.4147
vn 0.7072 -0.0000 0.7070
vn 0.9099 -0.0000 -0.4147
vn 0.7066 -0.0000 0.7076
vn 0.7065 -0.0000 0.7077
vn -0.9103 -0.0000 0.4141
vn 0.7067 -0.0000 0.7076
vn 0.9102 -0.0000 -0.4142
vn -0.9102 -0.0000 0.4142
vn 0.7067 -0.0000 0.7075
vn -0.7067 -0.0000 -0.7076
vn -0.7067 -0.0000 -0.7075
vn 0.7065 -0.0000 0.7078
vn 0.9103 -0.0000 -0.4140
vn -0.9103 -0.0000 0.4140
vn -0.7065 -0.0000 -0.7078
vn -0.7065 -0.0000 -0.7077
vn 0.9093 -0.0000 -0.4161
vn 0.9101 -0.0000 -0.4143
vn 0.9093 -0.0000 -0.4160
vn 0.7069 -0.0000 0.7074
vn 0.9101 -0.0000 -0.4144
vn -0.9101 -0.0000 0.4144
vn 0.7069 -0.0000 0.7073
vn -0.9101 -0.0000 0.4145
vn -0.9106 -0.0000 0.4132
vn 0.7164 -0.0000 0.6977
vn -0.9058 -0.0000 0.4237
vn 0.9058 -0.0000 -0.4237
vn 0.7163 -0.0000 0.6978
vn -0.7163 -0.0000 -0.6977
vn -0.7163 -0.0000 -0.6978
vt 0.266667 0.000000
vt 0.200000 0.000000
vt 0.066667 0.000000
vt 0.333333 0.000000
vt 0.466667 0.000000
vt 0.400000 0.000000
vt 0.000000 0.000000
vt 0.800000 0.000000
vt 1.000000 0.000000
vt 0.600000 0.000000
vt 0.533333 0.000000
vt 0.733333 0.000000
vt 0.866667 0.000000
vt 0.133333 0.000000
vt 0.933333 0.000000
vt 0.666667 0.000000
vt 0.181818 0.000000
vt 0.090909 0.000000
vt 0.272727 0.000000
vt 0.818182 0.000000
vt 0.727273 0.000000
vt 0.454545 0.000000
vt 0.636364 0.000000
vt 0.545455 0.000000
vt 0.363636 0.000000
vt 0.909091 0.000000
vt 0.947368 0.000000
vt 0.105263 0.000000
vt 0.052632 0.000000
vt 0.157895 0.000000
vt 0.315789 0.000000
vt 0.263158 0.000000
vt 0.210526 0.000000
vt 0.368421 0.000000
vt 0.736842 0.000000
vt 0.894737 0.000000
vt 0.842105 0.000000
vt 0.789474 0.000000
vt 0.526316 0.000000
vt 0.684211 0.000000
vt 0.631579 0.000000
vt 0.578947 0.000000
vt 0.421053 0.000000
vt 0.473684 0.000000
vt 0.111111 0.000000
vt 0.555556 0.000000
vt 0.222222 0.000000
vt 0.888889 0.000000
vt 0.777778 0.000000
vt 0.444444 0.000000
vt 0.100000 1.000000
vt 0.000000 1.000000
vt 0.200000 1.000000
vt 0.100000 0.000000
vt 0.300000 1.000000
vt 0.400000 1.000000
vt 0.300000 0.000000
vt 0.500000 1.000000
vt 0.600000 1.000000
vt 0.500000 0.000000
vt 0.700000 1.000000
vt 0.800000 1.000000
vt 0.700000 0.000000
vt 0.900000 1.000000
vt 1.000000 1.000000
vt 0.900000 0.000000
vt 0.050000 1.000000
vt 0.050000 0.000000
vt 0.150000 1.000000
vt 0.150000 0.000000
vt 0.250000 1.000000
vt 0.250000 0.000000
vt 0.350000 1.000000
vt 0.350000 0.000000
vt 0.450000 1.000000
vt 0.450000 0.000000
vt 0.550000 1.000000
vt 0.550000 0.000000
vt 0.650000 1.000000
vt 0.650000 0.000000
vt 0.750000 1.000000
vt 0.750000 0.000000
vt 0.850000 1.000000
vt 0.850000 0.000000
vt 0.950000 1.000000
vt 0.950000 0.000000
vt 0.125000 1.000000
vt 0.125000 0.000000
vt 0.375000 1.000000
vt 0.375000 0.000000
vt 0.625000 1.000000
vt 0.625000 0.000000
vt 0.875000 1.000000
vt 0.875000 0.000000
s 0
usemtl Material.006
f 5/1/1 4/2/1 2/3/1
f 2/3/1 6/4/1 5/1/1
f 8/5/1 7/6/1 6/4/1
f 6/4/1 1/7/1 8/5/1
f 13/8/1 16/9/1 10/10/1
f 10/10/1 9/11/1 13/8/1
f 12/12/1 14/13/1 13/8/1
f 13/8/1 9/11/1 12/12/1
f 2/3/1 4/2/1 3/14/1
f 6/4/1 2/3/1 1/7/1
f 15/15/1 14/13/1 12/12/1
f 11/16/1 15/15/1 12/12/1
f 10/10/1 16/9/1 15/15/1
f 15/15/1 11/16/1 10/10/1
f 19/17/1 18/18/1 20/19/1
f 28/9/1 26/20/1 25/21/1
f 20/19/1 18/18/1 17/7/1
f 22/22/1 24/23/1 23/24/1
f 24/23/1 22/22/1 21/25/1
f 26/20/1 28/9/1 27/26/1
f 47/27/1 29/7/1 48/9/1
f 31/28/1 30/29/1 29/7/1
f 29/7/1 32/30/1 31/28/1
f 35/31/1 34/32/1 33/33/1
f 33/33/1 36/34/1 35/31/1
f 43/35/1 46/36/1 45/37/1
f 45/37/1 44/38/1 43/35/1
f 39/39/1 42/40/1 41/41/1
f 41/41/1 40/42/1 39/39/1
f 37/43/1 39/39/1 38/44/1
f 29/7/1 47/27/1 46/36/1
f 32/30/1 29/7/1 46/36/1
f 46/36/1 43/35/1 32/30/1
f 33/33/1 32/30/1 43/35/1
f 43/35/1 42/40/1 33/33/1
f 36/34/1 33/33/1 42/40/1
f 42/40/1 39/39/1 36/34/1
f 39/39/1 37/43/1 36/34/1
f 50/45/1 49/7/1 58/9/1
f 55/16/1 54/46/1 51/47/1
f 57/48/1 56/49/1 58/9/1
f 56/49/1 55/16/1 58/9/1
f 55/16/1 51/47/1 58/9/1
f 53/50/1 52/4/1 51/47/1
f 51/47/1 54/46/1 53/50/1
f 58/9/1 51/47/1 50/45/1
f 63/1/2 60/3/2 62/2/2
f 60/3/2 63/1/2 64/4/2
f 66/5/2 64/4/2 65/6/2
f 64/4/2 66/5/2 59/7/2
f 71/8/2 68/10/2 74/9/2
f 68/10/2 71/8/2 67/11/2
f 70/12/2 71/8/2 72/13/2
f 71/8/2 70/12/2 67/11/2
f 60/3/2 61/14/2 62/2/2
f 64/4/2 59/7/2 60/3/2
f 73/15/2 70/12/2 72/13/2
f 69/16/2 70/12/2 73/15/2
f 68/10/2 73/15/2 74/9/2
f 73/15/2 68/10/2 69/16/2
f 77/17/2 78/19/2 76/18/2
f 86/9/2 83/21/2 84/20/2
f 78/19/2 75/7/2 76/18/2
f 80/22/2 81/24/2 82/23/2
f 82/23/2 79/25/2 80/22/2
f 84/20/2 85/26/2 86/9/2
f 105/27/2 106/9/2 87/7/2
f 89/28/2 87/7/2 88/29/2
f 87/7/2 89/28/2 90/30/2
f 93/31/2 91/33/2 92/32/2
f 91/33/2 93/31/2 94/34/2
f 101/35/2 103/37/2 104/36/2
f 103/37/2 101/35/2 102/38/2
f 97/39/2 99/41/2 100/40/2
f 99/41/2 97/39/2 98/42/2
f 95/43/2 96/44/2 97/39/2
f 87/7/2 104/36/2 105/27/2
f 90/30/2 104/36/2 87/7/2
f 104/36/2 90/30/2 101/35/2
f 91/33/2 101/35/2 90/30/2
f 101/35/2 91/33/2 100/40/2
f 94/34/2 100/40/2 91/33/2
f 100/40/2 94/34/2 97/39/2
f 97/39/2 94/34/2 95/43/2
f 108/45/2 116/9/2 107/7/2
f 113/16/2 109/47/2 112/46/2
f 115/48/2 116/9/2 114/49/2
f 114/49/2 116/9/2 113/16/2
f 113/16/2 116/9/2 109/47/2
f 111/50/2 109/47/2 110/4/2
f 109/47/2 111/50/2 112/46/2
f 116/9/2 108/45/2 109/47/2
s 1
f 120/51/3 117/7/4 118/52/4
f 122/53/3 119/54/3 120/51/3
f 124/55/5 121/2/3 122/53/3
f 126/56/6 123/57/5 124/55/5
f 128/58/7 125/6/6 126/56/6
f 130/59/8 127/60/7 128/58/7
f 132/61/9 129/10/8 130/59/8
f 134/62/10 131/63/9 132/61/9
f 136/64/11 133/8/12 134/62/10
f 118/65/4 135/66/13 136/64/11
f 140/67/14 137/7/15 138/52/15
f 142/51/16 139/68/17 140/67/14
f 144/69/18 141/54/16 142/51/16
f 146/53/19 143/70/20 144/69/18
f 148/71/5 145/2/19 146/53/19
f 150/55/6 147/72/5 148/71/5
f 152/73/6 149/57/6 150/55/6
f 154/56/6 151/74/6 152/73/6
f 156/75/21 153/6/6 154/56/6
f 158/58/21 155/76/21 156/75/21
f 160/77/21 157/60/21 158/58/21
f 162/59/22 159/78/21 160/77/21
f 164/79/23 161/10/22 162/59/22
f 166/61/24 163/80/25 164/79/23
f 168/81/26 165/63/24 166/61/24
f 170/62/27 167/82/28 168/81/26
f 172/83/29 169/8/27 170/62/27
f 174/64/30 171/84/30 172/83/29
f 176/85/31 173/66/29 174/64/30
f 138/65/15 175/86/15 176/85/31
f 180/71/32 177/7/33 178/52/33
f 182/58/34 179/72/35 180/71/32
f 184/81/36 181/60/34 182/58/34
f 178/65/33 183/82/37 184/81/36
f 188/71/32 185/7/33 186/52/33
f 190/58/34 187/72/35 188/71/32
f 192/81/36 189/60/34 190/58/34
f 186/65/33 191/82/37 192/81/36
f 196/71/38 193/7/39 194/52/39
f 198/58/40 195/72/30 196/71/38
f 200/81/41 197/60/40 198/58/40
f 194/65/39 199/82/42 200/81/41
f 204/87/43 201/7/43 202/52/43
f 206/71/44 203/88/45 204/87/43
f 208/89/46 205/72/47 206/71/44
f 210/58/48 207/90/49 208/89/46
f 212/91/50 209/60/50 210/58/48
f 214/81/51 211/92/50 212/91/50
f 216/93/6 213/82/5 214/81/51
f 202/65/43 215/94/6 216/93/6
f 220/71/32 217/7/33 218/52/33
f 222/58/34 219/72/35 220/71/32
f 224/81/36 221/60/34 222/58/34
f 218/65/33 223/82/37 224/81/36
f 228/71/52 225/7/53 226/52/53
f 230/58/54 227/72/55 228/71/52
f 232/81/56 229/60/54 230/58/54
f 226/65/53 231/82/57 232/81/56
f 120/51/3 119/54/3 117/7/4
f 122/53/3 121/2/3 119/54/3
f 124/55/5 123/57/5 121/2/3
f 126/56/6 125/6/6 123/57/5
f 128/58/7 127/60/7 125/6/6
f 130/59/8 129/10/8 127/60/7
f 132/61/9 131/63/9 129/10/8
f 134/62/10 133/8/12 131/63/9
f 136/64/11 135/66/13 133/8/12
f 118/65/4 117/9/4 135/66/13
f 140/67/14 139/68/17 137/7/15
f 142/51/16 141/54/16 139/68/17
f 144/69/18 143/70/20 141/54/16
f 146/53/19 145/2/19 143/70/20
f 148/71/5 147/72/5 145/2/19
f 150/55/6 149/57/6 147/72/5
f 152/73/6 151/74/6 149/57/6
f 154/56/6 153/6/6 151/74/6
f 156/75/21 155/76/21 153/6/6
f 158/58/21 157/60/21 155/76/21
f 160/77/21 159/78/21 157/60/21
f 162/59/22 161/10/22 159/78/21
f 164/79/23 163/80/25 161/10/22
f 166/61/24 165/63/24 163/80/25
f 168/81/26 167/82/28 165/63/24
f 170/62/27 169/8/27 167/82/28
f 172/83/29 171/84/30 169/8/27
f 174/64/30 173/66/29 171/84/30
f 176/85/31 175/86/15 173/66/29
f 138/65/15 137/9/15 175/86/15
f 180/71/32 179/72/35 177/7/33
f 182/58/34 181/60/34 179/72/35
f 184/81/36 183/82/37 181/60/34
f 178/65/33 177/9/33 183/82/37
f 188/71/32 187/72/35 185/7/33
f 190/58/34 189/60/34 187/72/35
f 192/81/36 191/82/37 189/60/34
f 186/65/33 185/9/33 191/82/37
f 196/71/38 195/72/30 193/7/39
f 198/58/40 197/60/40 195/72/30
f 200/81/41 199/82/42 197/60/40
f 194/65/39 193/9/39 199/82/42
f 204/87/43 203/88/45 201/7/43
f 206/71/44 205/72/47 203/88/45
f 208/89/46 207/90/49 205/72/47
f 210/58/48 209/60/50 207/90/49
f 212/91/50 211/92/50 209/60/50
f 214/81/51 213/82/5 211/92/50
f 216/93/6 215/94/6 213/82/5
f 202/65/43 201/9/43 215/94/6
f 220/71/32 219/72/35 217/7/33
f 222/58/34 221/60/34 219/72/35
f 224/81/36 223/82/37 221/60/34
f 218/65/33 217/9/33 223/82/37
f 228/71/52 227/72/55 225/7/53
f 230/58/54 229/60/54 227/72/55
f 232/81/56 231/82/57 229/60/54
f 226/65/53 225/9/53 231/82/57
o Text.001
v 4.407334 0.050000 0.511730
v 4.177711 0.050000 0.511730
v 4.232909 0.050000 -0.553587
v 4.462532 0.050000 -0.553587
v 4.970352 0.050000 -0.443192
v 4.240637 0.050000 -0.443192
v 4.246157 0.050000 -0.553587
v 4.975872 0.050000 -0.553587
v 4.921778 0.050000 0.511730
v 4.196479 0.050000 0.511730
v 4.201999 0.050000 0.401334
v 4.927298 0.050000 0.401334
v 4.456812 0.050000 -0.443192
v 4.413054 0.050000 0.401334
v 4.051861 0.050000 -0.003449
v 3.339809 0.050000 -0.003449
v 3.345329 0.050000 -0.113845
v 4.057380 0.050000 -0.113845
v 4.073940 0.050000 -0.441352
v 3.361888 0.050000 -0.441352
v 3.367408 0.050000 -0.551747
v 4.079459 0.050000 -0.551747
v 3.553977 0.050000 -0.003449
v 3.324354 0.050000 -0.003449
v 3.353056 0.050000 -0.551747
v 3.582679 0.050000 -0.551747
v 4.040821 0.050000 0.511730
v 3.811198 0.050000 0.511730
v 3.844317 0.050000 -0.113845
v 4.073940 0.050000 -0.113845
v 3.294547 0.050000 0.511730
v 3.301171 0.050000 0.401334
v 4.046341 0.050000 0.401334
v 4.082771 0.050000 -0.286798
v 3.853148 0.050000 -0.286798
v 3.867500 0.050000 -0.551747
v 4.097123 0.050000 -0.551747
v 3.576900 0.050000 -0.441352
v 3.559755 0.050000 -0.113845
v 3.838472 0.050000 -0.003449
v 3.817043 0.050000 0.401334
v 3.861520 0.050000 -0.441352
v 2.641005 0.050000 0.511730
v 2.411382 0.050000 0.511730
v 2.466580 0.050000 -0.553587
v 2.696203 0.050000 -0.553587
v 3.204022 0.050000 -0.443192
v 2.474308 0.050000 -0.443192
v 2.479827 0.050000 -0.553587
v 3.209542 0.050000 -0.553587
v 3.155448 0.050000 0.511730
v 2.430149 0.050000 0.511730
v 2.435669 0.050000 0.401334
v 3.160968 0.050000 0.401334
v 3.168696 0.050000 -0.003449
v 2.456644 0.050000 -0.003449
v 2.462164 0.050000 -0.113845
v 3.174216 0.050000 -0.113845
v 2.690483 0.050000 -0.443192
v 2.646725 0.050000 0.401334
v 2.667698 0.050000 -0.003449
v 2.673418 0.050000 -0.113845
v 4.407334 -0.050000 0.511730
v 4.177711 -0.050000 0.511730
v 4.232909 -0.050000 -0.553587
v 4.462532 -0.050000 -0.553587
v 4.970352 -0.050000 -0.443192
v 4.240637 -0.050000 -0.443192
v 4.246157 -0.050000 -0.553587
v 4.975872 -0.050000 -0.553587
v 4.921778 -0.050000 0.511730
v 4.196479 -0.050000 0.511730
v 4.201999 -0.050000 0.401334
v 4.927298 -0.050000 0.401334
v 4.456812 -0.050000 -0.443192
v 4.413054 -0.050000 0.401334
v 4.051861 -0.050000 -0.003449
v 3.339809 -0.050000 -0.003449
v 3.345329 -0.050000 -0.113845
v 4.057380 -0.050000 -0.113845
v 4.073940 -0.050000 -0.441352
v 3.361888 -0.050000 -0.441352
v 3.367408 -0.050000 -0.551747
v 4.079459 -0.050000 -0.551747
v 3.553977 -0.050000 -0.003449
v 3.324354 -0.050000 -0.003449
v 3.353056 -0.050000 -0.551747
v 3.582679 -0.050000 -0.551747
v 4.040821 -0.050000 0.511730
v 3.811198 -0.050000 0.511730
v 3.844317 -0.050000 -0.113845
v 4.073940 -0.050000 -0.113845
v 3.294547 -0.050000 0.511730
v 3.301171 -0.050000 0.401334
v 4.046341 -0.050000 0.401334
v 4.082771 -0.050000 -0.286798
v 3.853148 -0.050000 -0.286798
v 3.867500 -0.050000 -0.551747
v 4.097123 -0.050000 -0.551747
v 3.576900 -0.050000 -0.441352
v 3.559755 -0.050000 -0.113845
v 3.838472 -0.050000 -0.003449
v 3.817043 -0.050000 0.401334
v 3.861520 -0.050000 -0.441352
v 2.641005 -0.050000 0.511730
v 2.411382 -0.050000 0.511730
v 2.466580 -0.050000 -0.553587
v 2.696203 -0.050000 -0.553587
v 3.204022 -0.050000 -0.443192
v 2.474308 -0.050000 -0.443192
v 2.479827 -0.050000 -0.553587
v 3.209542 -0.050000 -0.553587
v 3.155448 -0.050000 0.511730
v 2.430149 -0.050000 0.511730
v 2.435669 -0.050000 0.401334
v 3.160968 -0.050000 0.401334
v 3.168696 -0.050000 -0.003449
v 2.456644 -0.050000 -0.003449
v 2.462164 -0.050000 -0.113845
v 3.174216 -0.050000 -0.113845
v 2.690483 -0.050000 -0.443192
v 2.646725 -0.050000 0.401334
v 2.667698 -0.050000 -0.003449
v 2.673418 -0.050000 -0.113845
v 2.641005 -0.050000 0.511730
v 2.641005 0.050000 0.511730
v 2.411382 -0.050000 0.511730
v 2.411382 0.050000 0.511730
v 2.466580 -0.050000 -0.553587
v 2.466580 0.050000 -0.553587
v 2.696203 -0.050000 -0.553587
v 2.696203 0.050000 -0.553587
v 3.204022 -0.050000 -0.443192
v 3.204022 0.050000 -0.443192
v 2.474308 -0.050000 -0.443192
v 2.474308 0.050000 -0.443192
v 2.479827 -0.050000 -0.553587
v 2.479827 0.050000 -0.553587
v 3.209542 -0.050000 -0.553587
v 3.209542 0.050000 -0.553587
v 3.155448 -0.050000 0.511730
v 3.155448 0.050000 0.511730
v 2.430149 -0.050000 0.511730
v 2.430149 0.050000 0.511730
v 2.435669 -0.050000 0.401334
v 2.435669 0.050000 0.401334
v 3.160968 -0.050000 0.401334
v 3.160968 0.050000 0.401334
v 3.168696 -0.050000 -0.003449
v 3.168696 0.050000 -0.003449
v 2.456644 -0.050000 -0.003449
v 2.456644 0.050000 -0.003449
v 2.462164 -0.050000 -0.113845
v 2.462164 0.050000 -0.113845
v 3.174216 -0.050000 -0.113845
v 3.174216 0.050000 -0.113845
v 4.051861 -0.050000 -0.003449
v 4.051861 0.050000 -0.003449
v 3.339809 -0.050000 -0.003449
v 3.339809 0.050000 -0.003449
v 3.345329 -0.050000 -0.113845
v 3.345329 0.050000 -0.113845
v 4.057380 -0.050000 -0.113845
v 4.057380 0.050000 -0.113845
v 4.073940 -0.050000 -0.441352
v 4.073940 0.050000 -0.441352
v 3.361888 -0.050000 -0.441352
v 3.361888 0.050000 -0.441352
v 3.367408 -0.050000 -0.551747
v 3.367408 0.050000 -0.551747
v 4.079459 -0.050000 -0.551747
v 4.079459 0.050000 -0.551747
v 3.553977 -0.050000 -0.003449
v 3.553977 0.050000 -0.003449
v 3.324354 -0.050000 -0.003449
v 3.324354 0.050000 -0.003449
v 3.353056 -0.050000 -0.551747
v 3.353056 0.050000 -0.551747
v 3.582679 -0.050000 -0.551747
v 3.582679 0.050000 -0.551747
v 4.040821 -0.050000 0.511730
v 4.040821 0.050000 0.511730
v 3.811198 -0.050000 0.511730
v 3.811198 0.050000 0.511730
v 3.844317 -0.050000 -0.113845
v 3.844317 0.050000 -0.113845
v 4.073940 -0.050000 -0.113845
v 4.073940 0.050000 -0.113845
v 4.040821 -0.050000 0.511730
v 4.040821 0.050000 0.511730
v 3.294547 -0.050000 0.511730
v 3.294547 0.050000 0.511730
v 3.301171 -0.050000 0.401334
v 3.301171 0.050000 0.401334
v 4.046341 -0.050000 0.401334
v 4.046341 0.050000 0.401334
v 4.082771 -0.050000 -0.286798
v 4.082771 0.050000 -0.286798
v 3.853148 -0.050000 -0.286798
v 3.853148 0.050000 -0.286798
v 3.867500 -0.050000 -0.551747
v 3.867500 0.050000 -0.551747
v 4.097123 -0.050000 -0.551747
v 4.097123 0.050000 -0.551747
v 4.407334 -0.050000 0.511730
v 4.407334 0.050000 0.511730
v 4.177711 -0.050000 0.511730
v 4.177711 0.050000 0.511730
v 4.232909 -0.050000 -0.553587
v 4.232909 0.050000 -0.553587
v 4.462532 -0.050000 -0.553587
v 4.462532 0.050000 -0.553587
v 4.970352 -0.050000 -0.443192
v 4.970352 0.050000 -0.443192
v 4.240637 -0.050000 -0.443192
v 4.240637 0.050000 -0.443192
v 4.246157 -0.050000 -0.553587
v 4.246157 0.050000 -0.553587
v 4.975872 -0.050000 -0.553587
v 4.975872 0.050000 -0.553587
v 4.921778 -0.050000 0.511730
v 4.921778 0.050000 0.511730
v 4.196479 -0.050000 0.511730
v 4.196479 0.050000 0.511730
v 4.201999 -0.050000 0.401334
v 4.201999 0.050000 0.401334
v 4.927298 -0.050000 0.401334
v 4.927298 0.050000 0.401334
vn -0.0000 1.0000 -0.0000
vn -0.0000 -1.0000 -0.0000
vn -0.8761 -0.0000 0.4822
vn 0.8369 -0.0000 0.5474
vn -0.8369 -0.0000 -0.5474
vn 0.8761 -0.0000 -0.4822
vn -0.8754 -0.0000 0.4833
vn 0.8376 -0.0000 0.5462
vn -0.8376 -0.0000 -0.5462
vn 0.8754 -0.0000 -0.4833
vn -0.8762 -0.0000 0.4819
vn 0.8367 -0.0000 0.5477
vn -0.8367 -0.0000 -0.5477
vn 0.8762 -0.0000 -0.4819
vn -0.8764 -0.0000 0.4815
vn 0.8364 -0.0000 0.5481
vn -0.8364 -0.0000 -0.5481
vn 0.8764 -0.0000 -0.4815
vn -0.8788 -0.0000 0.4772
vn -0.8335 -0.0000 -0.5526
vn -0.8769 -0.0000 0.4807
vn 0.8359 -0.0000 0.5489
vn -0.8359 -0.0000 -0.5489
vn 0.8769 -0.0000 -0.4807
vn 0.8377 -0.0000 0.5462
vt 0.076923 0.000000
vt 0.692308 0.000000
vt 0.769231 0.000000
vt 0.153846 0.000000
vt 0.384615 0.000000
vt 0.461538 0.000000
vt 0.000000 0.000000
vt 0.615385 0.000000
vt 0.846154 0.000000
vt 0.230769 0.000000
vt 0.923077 0.000000
vt 0.307692 0.000000
vt 0.538462 0.000000
vt 1.000000 0.000000
vt 0.333333 0.000000
vt 0.037037 0.000000
vt 0.074074 0.000000
vt 0.370370 0.000000
vt 0.185185 0.000000
vt 0.222222 0.000000
vt 0.407407 0.000000
vt 0.629630 0.000000
vt 0.592593 0.000000
vt 0.481481 0.000000
vt 0.962963 0.000000
vt 0.296296 0.000000
vt 0.888889 0.000000
vt 0.518519 0.000000
vt 0.925926 0.000000
vt 0.703704 0.000000
vt 0.814815 0.000000
vt 0.148148 0.000000
vt 0.259259 0.000000
vt 0.666667 0.000000
vt 0.444444 0.000000
vt 0.555556 0.000000
vt 0.111111 0.000000
vt 0.740741 0.000000
vt 0.777778 0.000000
vt 0.851852 0.000000
vt 0.052632 0.000000
vt 0.473684 0.000000
vt 0.526316 0.000000
vt 0.684211 0.000000
vt 0.105263 0.000000
vt 0.736842 0.000000
vt 0.263158 0.000000
vt 0.315789 0.000000
vt 0.421053 0.000000
vt 0.578947 0.000000
vt 0.157895 0.000000
vt 0.842105 0.000000
vt 0.210526 0.000000
vt 0.368421 0.000000
vt 0.894737 0.000000
vt 0.947368 0.000000
vt 0.631579 0.000000
vt 0.789474 0.000000
vt 0.250000 1.000000
vt 0.000000 1.000000
vt 0.500000 1.000000
vt 0.250000 0.000000
vt 0.750000 1.000000
vt 0.500000 0.000000
vt 1.000000 1.000000
vt 0.750000 0.000000
s 0
usemtl Material.003
f 234/95/58 242/96/58 243/97/58
f 235/98/58 238/99/58 239/100/58
f 234/95/58 243/97/58 238/99/58
f 238/99/58 235/98/58 234/95/58
f 233/101/58 241/102/58 244/103/58
f 236/104/58 245/105/58 237/106/58
f 237/106/58 240/107/58 236/104/58
f 243/97/58 242/96/58 233/101/58
f 243/97/58 233/101/58 246/108/58
f 245/105/58 236/104/58 238/99/58
f 239/100/58 238/99/58 236/104/58
f 233/101/58 244/103/58 246/108/58
f 245/105/58 238/99/58 246/108/58
f 238/99/58 243/97/58 246/108/58
f 256/109/58 248/110/58 249/111/58
f 257/112/58 252/113/58 253/114/58
f 253/114/58 252/113/58 258/115/58
f 264/116/58 263/117/58 260/118/58
f 264/116/58 260/118/58 273/119/58
f 249/111/58 248/110/58 255/120/58
f 249/111/58 255/120/58 271/121/58
f 256/109/58 249/111/58 252/113/58
f 252/113/58 257/112/58 256/109/58
f 247/101/58 261/122/58 272/123/58
f 266/124/58 269/125/58 251/126/58
f 269/125/58 254/127/58 251/126/58
f 265/128/58 259/129/58 262/130/58
f 247/101/58 265/128/58 262/130/58
f 262/130/58 250/131/58 247/101/58
f 261/122/58 247/101/58 250/131/58
f 266/124/58 251/126/58 267/132/58
f 251/126/58 254/127/58 268/133/58
f 259/129/58 265/128/58 260/118/58
f 260/118/58 265/128/58 273/119/58
f 252/113/58 249/111/58 271/121/58
f 258/115/58 252/113/58 270/134/58
f 251/126/58 268/133/58 274/108/58
f 267/132/58 251/126/58 274/108/58
f 270/134/58 252/113/58 271/121/58
f 255/120/58 261/122/58 271/121/58
f 261/122/58 255/120/58 272/123/58
f 265/128/58 247/101/58 272/123/58
f 272/123/58 273/119/58 265/128/58
f 258/115/58 270/134/58 274/108/58
f 268/133/58 258/115/58 274/108/58
f 276/135/58 284/136/58 285/137/58
f 285/137/58 288/138/58 276/135/58
f 277/139/58 289/140/58 280/141/58
f 280/141/58 281/142/58 277/139/58
f 289/140/58 277/139/58 288/138/58
f 276/135/58 288/138/58 277/139/58
f 283/143/58 286/144/58 275/101/58
f 278/145/58 291/146/58 279/147/58
f 279/147/58 282/148/58 278/145/58
f 285/137/58 284/136/58 275/101/58
f 285/137/58 275/101/58 292/149/58
f 291/146/58 278/145/58 280/141/58
f 281/142/58 280/141/58 278/145/58
f 275/101/58 286/144/58 292/149/58
f 280/141/58 289/140/58 291/146/58
f 289/140/58 288/138/58 293/150/58
f 288/138/58 285/137/58 292/149/58
f 294/108/58 293/150/58 287/151/58
f 288/138/58 292/149/58 293/150/58
f 291/146/58 289/140/58 294/108/58
f 293/150/58 294/108/58 289/140/58
f 287/151/58 290/152/58 294/108/58
f 296/95/59 305/97/59 304/96/59
f 297/98/59 301/100/59 300/99/59
f 296/95/59 300/99/59 305/97/59
f 300/99/59 296/95/59 297/98/59
f 295/101/59 306/103/59 303/102/59
f 298/104/59 299/106/59 307/105/59
f 299/106/59 298/104/59 302/107/59
f 305/97/59 295/101/59 304/96/59
f 305/97/59 308/108/59 295/101/59
f 307/105/59 300/99/59 298/104/59
f 301/100/59 298/104/59 300/99/59
f 295/101/59 308/108/59 306/103/59
f 307/105/59 308/108/59 300/99/59
f 300/99/59 308/108/59 305/97/59
f 318/109/59 311/111/59 310/110/59
f 319/112/59 315/114/59 314/113/59
f 315/114/59 320/115/59 314/113/59
f 326/116/59 322/118/59 325/117/59
f 326/116/59 335/119/59 322/118/59
f 311/111/59 317/120/59 310/110/59
f 311/111/59 333/121/59 317/120/59
f 318/109/59 314/113/59 311/111/59
f 314/113/59 318/109/59 319/112/59
f 309/101/59 334/123/59 323/122/59
f 328/124/59 313/126/59 331/125/59
f 331/125/59 313/126/59 316/127/59
f 327/128/59 324/130/59 321/129/59
f 309/101/59 324/130/59 327/128/59
f 324/130/59 309/101/59 312/131/59
f 323/122/59 312/131/59 309/101/59
f 328/124/59 329/132/59 313/126/59
f 313/126/59 330/133/59 316/127/59
f 321/129/59 322/118/59 327/128/59
f 322/118/59 335/119/59 327/128/59
f 314/113/59 333/121/59 311/111/59
f 320/115/59 332/134/59 314/113/59
f 313/126/59 336/108/59 330/133/59
f 329/132/59 336/108/59 313/126/59
f 332/134/59 333/121/59 314/113/59
f 317/120/59 333/121/59 323/122/59
f 323/122/59 334/123/59 317/120/59
f 327/128/59 334/123/59 309/101/59
f 334/123/59 327/128/59 335/119/59
f 320/115/59 336/108/59 332/134/59
f 330/133/59 336/108/59 320/115/59
f 338/135/59 347/137/59 346/136/59
f 347/137/59 338/135/59 350/138/59
f 339/139/59 342/141/59 351/140/59
f 342/141/59 339/139/59 343/142/59
f 351/140/59 350/138/59 339/139/59
f 338/135/59 339/139/59 350/138/59
f 345/143/59 337/101/59 348/144/59
f 340/145/59 341/147/59 353/146/59
f 341/147/59 340/145/59 344/148/59
f 347/137/59 337/101/59 346/136/59
f 347/137/59 354/149/59 337/101/59
f 353/146/59 342/141/59 340/145/59
f 343/142/59 340/145/59 342/141/59
f 337/101/59 354/149/59 348/144/59
f 342/141/59 353/146/59 351/140/59
f 351/140/59 355/150/59 350/138/59
f 350/138/59 354/149/59 347/137/59
f 356/108/59 349/151/59 355/150/59
f 350/138/59 355/150/59 354/149/59
f 353/146/59 356/108/59 351/140/59
f 355/150/59 351/140/59 356/108/59
f 349/151/59 356/108/59 352/152/59
s 1
f 360/153/60 357/101/61 358/154/61
f 362/155/62 359/156/60 360/153/60
f 364/157/63 361/158/62 362/155/62
f 358/159/61 363/160/63 364/157/63
f 368/153/64 365/101/65 366/154/65
f 370/155/66 367/156/64 368/153/64
f 372/157/67 369/158/66 370/155/66
f 366/159/65 371/160/67 372/157/67
f 376/153/64 373/101/65 374/154/65
f 378/155/66 375/156/64 376/153/64
f 380/157/67 377/158/66 378/155/66
f 374/159/65 379/160/67 380/157/67
f 384/153/64 381/101/65 382/154/65
f 386/155/66 383/156/64 384/153/64
f 388/157/67 385/158/66 386/155/66
f 382/159/65 387/160/67 388/157/67
f 392/153/64 389/101/65 390/154/65
f 394/155/66 391/156/64 392/153/64
f 396/157/67 393/158/66 394/155/66
f 390/159/65 395/160/67 396/157/67
f 400/153/64 397/101/65 398/154/65
f 402/155/66 399/156/64 400/153/64
f 404/157/67 401/158/66 402/155/66
f 398/159/65 403/160/67 404/157/67
f 408/153/68 405/101/69 406/154/69
f 410/155/70 407/156/68 408/153/68
f 412/157/71 409/158/70 410/155/70
f 406/159/69 411/160/71 412/157/71
f 416/153/72 413/101/73 414/154/73
f 418/155/74 415/156/72 416/153/72
f 420/157/75 417/158/74 418/155/74
f 414/159/73 419/160/75 420/157/75
f 424/153/76 421/101/65 422/154/65
f 426/155/77 423/156/76 424/153/76
f 428/157/67 425/158/77 426/155/77
f 422/159/65 427/160/67 428/157/67
f 432/153/78 429/101/79 430/154/79
f 434/155/80 431/156/78 432/153/78
f 436/157/81 433/158/80 434/155/80
f 430/159/79 435/160/81 436/157/81
f 440/153/60 437/101/61 438/154/61
f 442/155/62 439/156/60 440/153/60
f 444/157/63 441/158/62 442/155/62
f 438/159/61 443/160/63 444/157/63
f 448/153/64 445/101/65 446/154/65
f 450/155/66 447/156/64 448/153/64
f 452/157/67 449/158/66 450/155/66
f 446/159/65 451/160/67 452/157/67
f 456/153/64 453/101/82 454/154/65
f 458/155/66 455/156/64 456/153/64
f 460/157/67 457/158/66 458/155/66
f 454/159/65 459/160/67 460/157/67
f 360/153/60 359/156/60 357/101/61
f 362/155/62 361/158/62 359/156/60
f 364/157/63 363/160/63 361/158/62
f 358/159/61 357/108/61 363/160/63
f 368/153/64 367/156/64 365/101/65
f 370/155/66 369/158/66 367/156/64
f 372/157/67 371/160/67 369/158/66
f 366/159/65 365/108/65 371/160/67
f 376/153/64 375/156/64 373/101/65
f 378/155/66 377/158/66 375/156/64
f 380/157/67 379/160/67 377/158/66
f 374/159/65 373/108/65 379/160/67
f 384/153/64 383/156/64 381/101/65
f 386/155/66 385/158/66 383/156/64
f 388/157/67 387/160/67 385/158/66
f 382/159/65 381/108/65 387/160/67
f 392/153/64 391/156/64 389/101/65
f 394/155/66 393/158/66 391/156/64
f 396/157/67 395/160/67 393/158/66
f 390/159/65 389/108/65 395/160/67
f 400/153/64 399/156/64 397/101/65
f 402/155/66 401/158/66 399/156/64
f 404/157/67 403/160/67 401/158/66
f 398/159/65 397/108/65 403/160/67
f 408/153/68 407/156/68 405/101/69
f 410/155/70 409/158/70 407/156/68
f 412/157/71 411/160/71 409/158/70
f 406/159/69 405/108/69 411/160/71
f 416/153/72 415/156/72 413/101/73
f 418/155/74 417/158/74 415/156/72
f 420/157/75 419/160/75 417/158/74
f 414/159/73 413/108/73 419/160/75
f 424/153/76 423/156/76 421/101/65
f 426/155/77 425/158/77 423/156/76
f 428/157/67 427/160/67 425/158/77
f 422/159/65 421/108/65 427/160/67
f 432/153/78 431/156/78 429/101/79
f 434/155/80 433/158/80 431/156/78
f 436/157/81 435/160/81 433/158/80
f 430/159/79 429/108/79 435/160/81
f 440/153/60 439/156/60 437/101/61
f 442/155/62 441/158/62 439/156/60
f 444/157/63 443/160/63 441/158/62
f 438/159/61 437/108/61 443/160/63
f 448/153/64 447/156/64 445/101/65
f 450/155/66 449/158/66 447/156/64
f 452/157/67 451/160/67 449/158/66
f 446/159/65 445/108/65 451/160/67
f 456/153/64 455/156/64 453/101/82
f 458/155/66 457/158/66 455/156/64
f 460/157/67 459/160/67 457/158/66
f 454/159/65 453/108/82 459/160/67
o Cube.001
v 2.128390 -0.050000 0.931221
v 2.128390 0.050000 0.931221
v 2.128390 -0.050000 -0.928779
v 2.128390 0.050000 -0.928779
v 5.248390 -0.050000 0.931221
v 5.248390 0.050000 0.931221
v 5.248390 -0.050000 -0.928779
v 5.248390 0.050000 -0.928779
v 5.088390 -0.050000 0.751221
v 5.088390 -0.050000 -0.748779
v 2.288390 -0.050000 0.751221
v 2.288390 -0.050000 -0.748779
v 2.288390 0.050000 0.751221
v 2.288390 0.050000 -0.748779
v 5.088390 0.050000 0.751221
v 5.088390 0.050000 -0.748779
vn -1.0000 -0.0000 -0.0000
vn -0.0000 -0.0000 -1.0000
vn 1.0000 -0.0000 -0.0000
vn -0.0000 -0.0000 1.0000
vn -0.0000 -1.0000 -0.0000
vn -0.0000 1.0000 -0.0000
vt 0.625000 0.000000
vt 0.375000 0.250000
vt 0.375000 0.000000
vt 0.625000 0.250000
vt 0.375000 0.500000
vt 0.625000 0.500000
vt 0.375000 0.750000
vt 0.625000 0.750000
vt 0.375000 1.000000
vt 0.125000 0.750000
vt 0.137821 0.524194
vt 0.137821 0.725806
vt 0.362180 0.524194
vt 0.637821 0.524194
vt 0.637820 0.725806
vt 0.875000 0.500000
vt 0.875000 0.750000
vt 0.862180 0.524194
vt 0.416107 0.000000
vt 0.583893 0.250000
vt 0.583893 0.000000
vt 0.416107 0.250000
vt 0.583893 0.500000
vt 0.416107 0.750000
vt 0.416107 0.500000
vt 0.416107 1.000000
vt 0.583893 0.750000
vt 0.625000 1.000000
vt 0.125000 0.500000
vt 0.362179 0.725806
vt 0.862179 0.725806
vt 0.583893 1.000000
s 0
usemtl Material.005
f 462/161/83 463/162/83 461/163/83
f 464/164/84 467/165/84 463/162/84
f 468/166/85 465/167/85 467/165/85
f 466/168/86 461/169/86 465/167/86
f 461/170/87 472/171/87 471/172/87
f 467/165/87 465/167/87 470/173/87
f 466/168/88 476/174/88 475/175/88
f 464/176/88 462/177/88 474/178/88
f 471/179/85 474/180/85 473/181/85
f 472/182/86 476/183/86 474/180/86
f 469/184/83 476/183/83 470/185/83
f 471/186/84 475/187/84 469/184/84
f 462/161/83 464/164/83 463/162/83
f 464/164/84 468/166/84 467/165/84
f 468/166/85 466/168/85 465/167/85
f 466/168/86 462/188/86 461/169/86
f 461/170/87 463/189/87 472/171/87
f 470/173/87 472/171/87 463/189/87
f 465/167/87 461/170/87 471/172/87
f 465/167/87 471/172/87 469/190/87
f 470/173/87 463/189/87 467/165/87
f 465/167/87 469/190/87 470/173/87
f 466/168/88 468/166/88 476/174/88
f 474/178/88 476/174/88 468/166/88
f 462/177/88 466/168/88 475/175/88
f 462/177/88 475/175/88 473/191/88
f 474/178/88 468/166/88 464/176/88
f 462/177/88 473/191/88 474/178/88
f 471/179/85 472/182/85 474/180/85
f 472/182/86 470/185/86 476/183/86
f 469/184/83 475/187/83 476/183/83
f 471/186/84 473/192/84 475/187/84
