# Blender 5.2.1 LTS
# www.blender.org
mtllib modoru0.mtl
o Text
v 0.701307 -0.465543 0.240996
v -0.623440 -0.465543 0.240996
v -0.577442 0.060676 0.240996
v -0.777994 0.060676 0.240996
v -0.768794 0.169231 0.240996
v -0.568242 0.169231 0.240996
v -0.549843 0.378983 0.240996
v -0.748555 0.378983 0.240996
v -0.739355 0.485699 0.240996
v -0.540643 0.485699 0.240996
v -0.529604 0.616333 0.240996
v -0.126660 0.616333 0.240996
v -0.137699 0.485699 0.240996
v 0.631390 0.485699 0.240996
v 0.622190 0.378983 0.240996
v -0.146899 0.378983 0.240996
v -0.165298 0.169231 0.240996
v 0.601951 0.169231 0.240996
v 0.592751 0.060676 0.240996
v -0.174498 0.060676 0.240996
v -0.211297 -0.356988 0.240996
v 0.710506 -0.356988 0.240996
v 0.701307 -0.465543 -0.259004
v -0.623440 -0.465543 -0.259004
v -0.577442 0.060676 -0.259004
v -0.777994 0.060676 -0.259004
v -0.768794 0.169231 -0.259004
v -0.568242 0.169231 -0.259004
v -0.549843 0.378983 -0.259004
v -0.748555 0.378983 -0.259004
v -0.739355 0.485699 -0.259004
v -0.540643 0.485699 -0.259004
v -0.529604 0.616333 -0.259004
v -0.126660 0.616333 -0.259004
v -0.137699 0.485699 -0.259004
v 0.631390 0.485699 -0.259004
v 0.622190 0.378983 -0.259004
v -0.146899 0.378983 -0.259004
v -0.165298 0.169231 -0.259004
v 0.601951 0.169231 -0.259004
v 0.592751 0.060676 -0.259004
v -0.174498 0.060676 -0.259004
v -0.211297 -0.356988 -0.259004
v 0.710506 -0.356988 -0.259004
v 0.701307 -0.465543 -0.259004
v 0.701307 -0.465543 0.240996
v -0.623440 -0.465543 -0.259004
v -0.623440 -0.465543 0.240996
v -0.577442 0.060676 -0.259004
v -0.577442 0.060676 0.240996
v -0.777994 0.060676 -0.259004
v -0.777994 0.060676 0.240996
v -0.768794 0.169231 -0.259004
v -0.768794 0.169231 0.240996
v -0.568242 0.169231 -0.259004
v -0.568242 0.169231 0.240996
v -0.549843 0.378983 -0.259004
v -0.549843 0.378983 0.240996
v -0.748555 0.378983 -0.259004
v -0.748555 0.378983 0.240996
v -0.739355 0.485699 -0.259004
v -0.739355 0.485699 0.240996
v -0.540643 0.485699 -0.259004
v -0.540643 0.485699 0.240996
v -0.529604 0.616333 -0.259004
v -0.529604 0.616333 0.240996
v -0.126660 0.616333 -0.259004
v -0.126660 0.616333 0.240996
v -0.137699 0.485699 -0.259004
v -0.137699 0.485699 0.240996
v 0.631390 0.485699 -0.259004
v 0.631390 0.485699 0.240996
v 0.622190 0.378983 -0.259004
v 0.622190 0.378983 0.240996
v -0.146899 0.378983 -0.259004
v -0.146899 0.378983 0.240996
v -0.165298 0.169231 -0.259004
v -0.165298 0.169231 0.240996
v 0.601951 0.169231 -0.259004
v 0.601951 0.169231 0.240996
v 0.592751 0.060676 -0.259004
v 0.592751 0.060676 0.240996
v -0.174498 0.060676 -0.259004
v -0.174498 0.060676 0.240996
v -0.211297 -0.356988 -0.259004
v -0.211297 -0.356988 0.240996
v 0.710506 -0.356988 -0.259004
v 0.710506 -0.356988 0.240996
vn -0.0000 -0.0000 1.0000
vn -0.0000 -0.0000 -1.0000
vn -0.7372 -0.6756 -0.0000
vn 0.6766 -0.7364 -0.0000
vn -0.7364 -0.6766 -0.0000
vn -0.7373 -0.6756 -0.0000
vn -0.6766 0.7364 -0.0000
vn -0.6755 0.7373 -0.0000
vn -0.6766 0.7363 -0.0000
vn -0.7373 -0.6755 -0.0000
vn -0.6755 0.7374 -0.0000
vn -0.7369 -0.6760 -0.0000
vn -0.7374 -0.6755 -0.0000
vn -0.6761 0.7368 -0.0000
vn -0.7369 -0.6761 -0.0000
vn -0.6767 0.7363 -0.0000
vn 0.7363 0.6767 -0.0000
vn 0.7368 0.6761 -0.0000
vn 0.6761 -0.7368 -0.0000
vn 0.7369 0.6761 -0.0000
vn 0.6755 -0.7374 -0.0000
vn 0.6760 -0.7369 -0.0000
vn 0.7373 0.6755 -0.0000
vn 0.7363 0.6766 -0.0000
vn 0.7364 0.6766 -0.0000
vn 0.6754 -0.7375 -0.0000
vn 0.7375 0.6754 -0.0000
vn 0.6753 -0.7375 -0.0000
vt 0.952381 0.000000
vt 0.095238 0.000000
vt 0.047619 0.000000
vt 0.190476 0.000000
vt 0.142857 0.000000
vt 0.238095 0.000000
vt 0.380952 0.000000
vt 0.333333 0.000000
vt 0.285714 0.000000
vt 0.428571 0.000000
vt 0.761905 0.000000
vt 0.904762 0.000000
vt 0.857143 0.000000
vt 0.809524 0.000000
vt 0.571429 0.000000
vt 0.714286 0.000000
vt 0.666667 0.000000
vt 0.619048 0.000000
vt 0.000000 0.000000
vt 1.000000 0.000000
vt 0.476190 0.000000
vt 0.523810 0.000000
vt 0.045455 1.000000
vt 0.000000 1.000000
vt 0.090909 1.000000
vt 0.045455 0.000000
vt 0.136364 1.000000
vt 0.090909 0.000000
vt 0.181818 1.000000
vt 0.136364 0.000000
vt 0.227273 1.000000
vt 0.181818 0.000000
vt 0.272727 1.000000
vt 0.227273 0.000000
vt 0.318182 1.000000
vt 0.272727 0.000000
vt 0.363636 1.000000
vt 0.318182 0.000000
vt 0.409091 1.000000
vt 0.363636 0.000000
vt 0.454545 1.000000
vt 0.409091 0.000000
vt 0.500000 1.000000
vt 0.454545 0.000000
vt 0.545455 1.000000
vt 0.500000 0.000000
vt 0.590909 1.000000
vt 0.545455 0.000000
vt 0.636364 1.000000
vt 0.590909 0.000000
vt 0.681818 1.000000
vt 0.636364 0.000000
vt 0.727273 1.000000
vt 0.681818 0.000000
vt 0.772727 1.000000
vt 0.727273 0.000000
vt 0.818182 1.000000
vt 0.772727 0.000000
vt 0.863636 1.000000
vt 0.818182 0.000000
vt 0.909091 1.000000
vt 0.863636 0.000000
vt 0.954545 1.000000
vt 0.909091 0.000000
vt 1.000000 1.000000
vt 0.954545 0.000000
s 0
usemtl Material.001
f 21/1/1 3/2/1 2/3/1
f 5/4/1 4/5/1 3/2/1
f 3/2/1 6/6/1 5/4/1
f 9/7/1 8/8/1 7/9/1
f 7/9/1 10/10/1 9/7/1
f 17/11/1 20/12/1 19/13/1
f 19/13/1 18/14/1 17/11/1
f 13/15/1 16/16/1 15/17/1
f 15/17/1 14/18/1 13/15/1
f 21/1/1 2/3/1 1/19/1
f 1/19/1 22/20/1 21/1/1
f 3/2/1 21/1/1 20/12/1
f 6/6/1 3/2/1 20/12/1
f 20/12/1 17/11/1 6/6/1
f 7/9/1 6/6/1 17/11/1
f 17/11/1 16/16/1 7/9/1
f 10/10/1 7/9/1 16/16/1
f 16/16/1 13/15/1 10/10/1
f 11/21/1 10/10/1 13/15/1
f 13/15/1 12/22/1 11/21/1
f 43/1/2 24/3/2 25/2/2
f 27/4/2 25/2/2 26/5/2
f 25/2/2 27/4/2 28/6/2
f 31/7/2 29/9/2 30/8/2
f 29/9/2 31/7/2 32/10/2
f 39/11/2 41/13/2 42/12/2
f 41/13/2 39/11/2 40/14/2
f 35/15/2 37/17/2 38/16/2
f 37/17/2 35/15/2 36/18/2
f 43/1/2 23/19/2 24/3/2
f 23/19/2 43/1/2 44/20/2
f 25/2/2 42/12/2 43/1/2
f 28/6/2 42/12/2 25/2/2
f 42/12/2 28/6/2 39/11/2
f 29/9/2 39/11/2 28/6/2
f 39/11/2 29/9/2 38/16/2
f 32/10/2 38/16/2 29/9/2
f 38/16/2 32/10/2 35/15/2
f 33/21/2 35/15/2 32/10/2
f 35/15/2 33/21/2 34/22/2
s 1
f 48/23/3 45/19/4 46/24/4
f 50/25/3 47/26/3 48/23/3
f 52/27/5 49/28/6 50/25/3
f 54/29/7 51/30/5 52/27/5
f 56/31/8 53/32/9 54/29/7
f 58/33/10 55/34/11 56/31/8
f 60/35/12 57/36/13 58/33/10
f 62/37/14 59/38/15 60/35/12
f 64/39/16 61/40/14 62/37/14
f 66/41/16 63/42/16 64/39/16
f 68/43/17 65/44/16 66/41/16
f 70/45/17 67/46/17 68/43/17
f 72/47/18 69/48/17 70/45/17
f 74/49/19 71/50/20 72/47/18
f 76/51/21 73/52/22 74/49/19
f 78/53/23 75/54/21 76/51/21
f 80/55/24 77/56/23 78/53/23
f 82/57/4 79/58/25 80/55/24
f 84/59/26 81/60/4 82/57/4
f 86/61/27 83/62/28 84/59/26
f 88/63/24 85/64/27 86/61/27
f 46/65/4 87/66/25 88/63/24
f 48/23/3 47/26/3 45/19/4
f 50/25/3 49/28/6 47/26/3
f 52/27/5 51/30/5 49/28/6
f 54/29/7 53/32/9 51/30/5
f 56/31/8 55/34/11 53/32/9
f 58/33/10 57/36/13 55/34/11
f 60/35/12 59/38/15 57/36/13
f 62/37/14 61/40/14 59/38/15
f 64/39/16 63/42/16 61/40/14
f 66/41/16 65/44/16 63/42/16
f 68/43/17 67/46/17 65/44/16
f 70/45/17 69/48/17 67/46/17
f 72/47/18 71/50/20 69/48/17
f 74/49/19 73/52/22 71/50/20
f 76/51/21 75/54/21 73/52/22
f 78/53/23 77/56/23 75/54/21
f 80/55/24 79/58/25 77/56/23
f 82/57/4 81/60/4 79/58/25
f 84/59/26 83/62/28 81/60/4
f 86/61/27 85/64/27 83/62/28
f 88/63/24 87/66/25 85/64/27
f 46/65/4 45/20/4 87/66/25
