# Blender 5.2.1 LTS
# www.blender.org
mtllib modoru1.mtl
o Text
v 0.883460 0.616333 0.240996
v 0.866900 0.436020 0.240996
v 0.787783 0.436020 0.240996
v 0.804343 0.616333 0.240996
v 0.745465 0.616333 0.240996
v 0.730746 0.436020 0.240996
v 0.651629 0.436020 0.240996
v 0.666348 0.616333 0.240996
v 0.725226 -0.465543 0.240996
v -0.744875 -0.465543 0.240996
v -0.697037 0.097474 0.240996
v -0.684158 0.097474 0.240996
v -0.343771 0.154512 0.240996
v -0.533284 0.616333 0.240996
v -0.130340 0.616333 0.240996
v 0.035254 0.217069 0.240996
v 0.784104 0.342184 0.240996
v 0.774904 0.233629 0.240996
v -0.295933 0.055156 0.240996
v -0.330892 -0.356988 0.240996
v 0.734426 -0.356988 0.240996
v 0.883460 0.616333 -0.259004
v 0.866900 0.436020 -0.259004
v 0.787783 0.436020 -0.259004
v 0.804343 0.616333 -0.259004
v 0.745465 0.616333 -0.259004
v 0.730746 0.436020 -0.259004
v 0.651629 0.436020 -0.259004
v 0.666348 0.616333 -0.259004
v 0.725226 -0.465543 -0.259004
v -0.744875 -0.465543 -0.259004
v -0.697037 0.097474 -0.259004
v -0.684158 0.097474 -0.259004
v -0.343771 0.154512 -0.259004
v -0.533284 0.616333 -0.259004
v -0.130340 0.616333 -0.259004
v 0.035254 0.217069 -0.259004
v 0.784104 0.342184 -0.259004
v 0.774904 0.233629 -0.259004
v -0.295933 0.055156 -0.259004
v -0.330892 -0.356988 -0.259004
v 0.734426 -0.356988 -0.259004
v 0.883460 0.616333 -0.259004
v 0.883460 0.616333 0.240996
v 0.866900 0.436020 -0.259004
v 0.866900 0.436020 0.240996
v 0.787783 0.436020 -0.259004
v 0.787783 0.436020 0.240996
v 0.804343 0.616333 -0.259004
v 0.804343 0.616333 0.240996
v 0.745465 0.616333 -0.259004
v 0.745465 0.616333 0.240996
v 0.730746 0.436020 -0.259004
v 0.730746 0.436020 0.240996
v 0.651629 0.436020 -0.259004
v 0.651629 0.436020 0.240996
v 0.666348 0.616333 -0.259004
v 0.666348 0.616333 0.240996
v 0.725226 -0.465543 -0.259004
v 0.725226 -0.465543 0.240996
v -0.744875 -0.465543 -0.259004
v -0.744875 -0.465543 0.240996
v -0.697037 0.097474 -0.259004
v -0.697037 0.097474 0.240996
v -0.684158 0.097474 -0.259004
v -0.684158 0.097474 0.240996
v -0.343771 0.154512 -0.259004
v -0.343771 0.154512 0.240996
v -0.533284 0.616333 -0.259004
v -0.533284 0.616333 0.240996
v -0.130340 0.616333 -0.259004
v -0.130340 0.616333 0.240996
v 0.035254 0.217069 -0.259004
v 0.035254 0.217069 0.240996
v 0.784104 0.342184 -0.259004
v 0.784104 0.342184 0.240996
v 0.774904 0.233629 -0.259004
v 0.774904 0.233629 0.240996
v -0.295933 0.055156 -0.259004
v -0.295933 0.055156 0.240996
v -0.330892 -0.356988 -0.259004
v -0.330892 -0.356988 0.240996
v 0.734426 -0.356988 -0.259004
v 0.734426 -0.356988 0.240996
vn -0.0000 -0.0000 1.0000
vn -0.0000 -0.0000 -1.0000
vn 0.6740 -0.7387 -0.0000
vn 0.7387 0.6740 -0.0000
vn -0.7387 -0.6740 -0.0000
vn -0.6740 0.7387 -0.0000
vn 0.6777 -0.7353 -0.0000
vn 0.7353 0.6777 -0.0000
vn -0.7353 -0.6777 -0.0000
vn -0.6777 0.7353 -0.0000
vn -0.7364 -0.6765 -0.0000
vn 0.6766 -0.7364 -0.0000
vn -0.6765 0.7364 -0.0000
vn -0.0829 0.9966 -0.0000
vn -0.8739 0.4861 -0.0000
vn -0.8305 0.5570 -0.0000
vn -0.8739 0.4862 -0.0000
vn 0.5554 0.8316 -0.0000
vn -0.8306 0.5569 -0.0000
vn 0.4847 0.8747 -0.0000
vn 0.6779 0.7352 -0.0000
vn 0.7350 -0.6780 -0.0000
vn 0.7350 -0.6781 -0.0000
vn 0.7364 0.6766 -0.0000
vn 0.7363 0.6766 -0.0000
vt 0.500000 0.000000
vt 0.450000 0.000000
vt 0.550000 0.000000
vt 0.950000 0.000000
vt 0.900000 0.000000
vt 0.600000 0.000000
vt 0.750000 0.000000
vt 0.700000 0.000000
vt 0.650000 0.000000
vt 0.250000 0.000000
vt 0.200000 0.000000
vt 0.350000 0.000000
vt 0.150000 0.000000
vt 0.050000 0.000000
vt 0.000000 0.000000
vt 0.100000 0.000000
vt 0.400000 0.000000
vt 1.000000 0.000000
vt 0.850000 0.000000
vt 0.800000 0.000000
vt 0.300000 0.000000
vt 0.250000 1.000000
vt 0.000000 1.000000
vt 0.500000 1.000000
vt 0.750000 1.000000
vt 1.000000 1.000000
vt 0.076923 1.000000
vt 0.153846 1.000000
vt 0.076923 0.000000
vt 0.230769 1.000000
vt 0.153846 0.000000
vt 0.307692 1.000000
vt 0.230769 0.000000
vt 0.384615 1.000000
vt 0.307692 0.000000
vt 0.461538 1.000000
vt 0.384615 0.000000
vt 0.538462 1.000000
vt 0.461538 0.000000
vt 0.615385 1.000000
vt 0.538462 0.000000
vt 0.692308 1.000000
vt 0.615385 0.000000
vt 0.769231 1.000000
vt 0.692308 0.000000
vt 0.846154 1.000000
vt 0.769231 0.000000
vt 0.923077 1.000000
vt 0.846154 0.000000
vt 0.923077 0.000000
s 0
usemtl Material.001
f 11/1/1 10/2/1 12/3/1
f 12/3/1 10/2/1 20/4/1
f 20/4/1 19/5/1 12/3/1
f 13/6/1 12/3/1 19/5/1
f 19/5/1 16/7/1 13/6/1
f 16/7/1 15/8/1 13/6/1
f 14/9/1 13/6/1 15/8/1
f 6/10/1 5/11/1 8/12/1
f 4/13/1 2/14/1 1/15/1
f 2/14/1 4/13/1 3/16/1
f 20/4/1 10/2/1 9/17/1
f 9/17/1 21/18/1 20/4/1
f 16/7/1 19/5/1 18/19/1
f 18/19/1 17/20/1 16/7/1
f 6/10/1 8/12/1 7/21/1
f 32/1/2 33/3/2 31/2/2
f 33/3/2 41/4/2 31/2/2
f 41/4/2 33/3/2 40/5/2
f 34/6/2 40/5/2 33/3/2
f 40/5/2 34/6/2 37/7/2
f 37/7/2 34/6/2 36/8/2
f 35/9/2 36/8/2 34/6/2
f 27/10/2 29/12/2 26/11/2
f 25/13/2 22/15/2 23/14/2
f 23/14/2 24/16/2 25/13/2
f 41/4/2 30/17/2 31/2/2
f 30/17/2 41/4/2 42/18/2
f 37/7/2 39/19/2 40/5/2
f 39/19/2 37/7/2 38/20/2
f 27/10/2 28/21/2 29/12/2
s 1
f 46/22/3 43/15/4 44/23/4
f 48/24/5 45/10/3 46/22/3
f 50/25/6 47/1/5 48/24/5
f 44/26/4 49/7/6 50/25/6
f 54/22/7 51/15/8 52/23/8
f 56/24/9 53/10/7 54/22/7
f 58/25/10 55/1/9 56/24/9
f 52/26/8 57/7/10 58/25/10
f 62/27/11 59/15/12 60/23/12
f 64/28/13 61/29/11 62/27/11
f 66/30/14 63/31/13 64/28/13
f 68/32/15 65/33/14 66/30/14
f 70/34/16 67/35/17 68/32/15
f 72/36/18 69/37/19 70/34/16
f 74/38/20 71/39/18 72/36/18
f 76/40/21 73/41/20 74/38/20
f 78/42/22 75/43/21 76/40/21
f 80/44/23 77/45/23 78/42/22
f 82/46/24 79/47/23 80/44/23
f 84/48/25 81/49/24 82/46/24
f 60/26/12 83/50/24 84/48/25
f 46/22/3 45/10/3 43/15/4
f 48/24/5 47/1/5 45/10/3
f 50/25/6 49/7/6 47/1/5
f 44/26/4 43/18/4 49/7/6
f 54/22/7 53/10/7 51/15/8
f 56/24/9 55/1/9 53/10/7
f 58/25/10 57/7/10 55/1/9
f 52/26/8 51/18/8 57/7/10
f 62/27/11 61/29/11 59/15/12
f 64/28/13 63/31/13 61/29/11
f 66/30/14 65/33/14 63/31/13
f 68/32/15 67/35/17 65/33/14
f 70/34/16 69/37/19 67/35/17
f 72/36/18 71/39/18 69/37/19
f 74/38/20 73/41/20 71/39/18
f 76/40/21 75/43/21 73/41/20
f 78/42/22 77/45/23 75/43/21
f 80/44/23 79/47/23 77/45/23
f 82/46/24 81/49/24 79/47/23
f 84/48/25 83/50/24 81/49/24
f 60/26/12 59/18/12 83/50/24
