# Blender 5.2.1 LTS
# www.blender.org
mtllib modoru2.mtl
o Text
v 0.217406 0.478339 0.240996
v -0.546163 0.478339 0.240996
v -0.536964 0.586894 0.240996
v 0.679228 0.586894 0.240996
v 0.484196 0.211550 0.240996
v 0.789623 0.211550 0.240996
v 0.728906 -0.465543 0.240996
v -0.685998 -0.465543 0.240996
v -0.651039 -0.055240 0.240996
v 0.130930 -0.055240 0.240996
v 0.105171 -0.356988 0.240996
v 0.335162 -0.356988 0.240996
v 0.375640 0.104834 0.240996
v -0.724636 0.104834 0.240996
v -0.715436 0.211550 0.240996
v 0.079412 0.211550 0.240996
v -0.373210 -0.163795 0.240996
v -0.167138 -0.163795 0.240996
v -0.183698 -0.356988 0.240996
v -0.387929 -0.356988 0.240996
v 0.217406 0.478339 -0.259004
v -0.546163 0.478339 -0.259004
v -0.536964 0.586894 -0.259004
v 0.679228 0.586894 -0.259004
v 0.484196 0.211550 -0.259004
v 0.789623 0.211550 -0.259004
v 0.728906 -0.465543 -0.259004
v -0.685998 -0.465543 -0.259004
v -0.651039 -0.055240 -0.259004
v 0.130930 -0.055240 -0.259004
v 0.105171 -0.356988 -0.259004
v 0.335162 -0.356988 -0.259004
v 0.375640 0.104834 -0.259004
v -0.724636 0.104834 -0.259004
v -0.715436 0.211550 -0.259004
v 0.079412 0.211550 -0.259004
v -0.373210 -0.163795 -0.259004
v -0.167138 -0.163795 -0.259004
v -0.183698 -0.356988 -0.259004
v -0.387929 -0.356988 -0.259004
v 0.217406 0.478339 -0.259004
v 0.217406 0.478339 0.240996
v -0.546163 0.478339 -0.259004
v -0.546163 0.478339 0.240996
v -0.536964 0.586894 -0.259004
v -0.536964 0.586894 0.240996
v 0.679228 0.586894 -0.259004
v 0.679228 0.586894 0.240996
v 0.484196 0.211550 -0.259004
v 0.484196 0.211550 0.240996
v 0.789623 0.211550 -0.259004
v 0.789623 0.211550 0.240996
v 0.728906 -0.465543 -0.259004
v 0.728906 -0.465543 0.240996
v -0.685998 -0.465543 -0.259004
v -0.685998 -0.465543 0.240996
v -0.651039 -0.055240 -0.259004
v -0.651039 -0.055240 0.240996
v 0.130930 -0.055240 -0.259004
v 0.130930 -0.055240 0.240996
v 0.105171 -0.356988 -0.259004
v 0.105171 -0.356988 0.240996
v 0.335162 -0.356988 -0.259004
v 0.335162 -0.356988 0.240996
v 0.375640 0.104834 -0.259004
v 0.375640 0.104834 0.240996
v -0.724636 0.104834 -0.259004
v -0.724636 0.104834 0.240996
v -0.715436 0.211550 -0.259004
v -0.715436 0.211550 0.240996
v 0.079412 0.211550 -0.259004
v 0.079412 0.211550 0.240996
v -0.373210 -0.163795 -0.259004
v -0.373210 -0.163795 0.240996
v -0.167138 -0.163795 -0.259004
v -0.167138 -0.163795 0.240996
v -0.183698 -0.356988 -0.259004
v -0.183698 -0.356988 0.240996
v -0.387929 -0.356988 -0.259004
v -0.387929 -0.356988 0.240996
vn -0.0000 -0.0000 1.0000
vn -0.0000 -0.0000 -1.0000
vn -0.7363 -0.6766 -0.0000
vn -0.8542 -0.5199 -0.0000
vn -0.6766 0.7364 -0.0000
vn -0.7364 -0.6766 -0.0000
vn 0.8547 0.5191 -0.0000
vn 0.7380 0.6748 -0.0000
vn 0.6748 -0.7380 -0.0000
vn -0.7365 -0.6764 -0.0000
vn -0.6764 0.7365 -0.0000
vn 0.7366 0.6764 -0.0000
vn 0.7365 0.6764 -0.0000
vn -0.6755 0.7373 -0.0000
vn -0.7373 -0.6755 -0.0000
vn -0.7368 -0.6761 -0.0000
vn -0.7373 -0.6756 -0.0000
vn -0.6761 0.7368 -0.0000
vn -0.7369 -0.6761 -0.0000
vn -0.5199 0.8542 -0.0000
vn -0.6760 0.7369 -0.0000
vn 0.7367 0.6762 -0.0000
vn -0.6797 0.7335 -0.0000
vn 0.6762 -0.7367 -0.0000
vn -0.7335 -0.6797 -0.0000
vt 0.947368 0.000000
vt 1.000000 0.000000
vt 0.368421 0.000000
vt 0.421053 0.000000
vt 0.842105 0.000000
vt 0.894737 0.000000
vt 0.315789 0.000000
vt 0.263158 0.000000
vt 0.631579 0.000000
vt 0.210526 0.000000
vt 0.578947 0.000000
vt 0.526316 0.000000
vt 0.000000 0.000000
vt 0.789474 0.000000
vt 0.157895 0.000000
vt 0.473684 0.000000
vt 0.105263 0.000000
vt 0.052632 0.000000
vt 0.684211 0.000000
vt 0.736842 0.000000
vt 0.062500 1.000000
vt 0.000000 1.000000
vt 0.125000 1.000000
vt 0.062500 0.000000
vt 0.187500 1.000000
vt 0.125000 0.000000
vt 0.250000 1.000000
vt 0.187500 0.000000
vt 0.312500 1.000000
vt 0.250000 0.000000
vt 0.375000 1.000000
vt 0.312500 0.000000
vt 0.437500 1.000000
vt 0.375000 0.000000
vt 0.500000 1.000000
vt 0.437500 0.000000
vt 0.562500 1.000000
vt 0.500000 0.000000
vt 0.625000 1.000000
vt 0.562500 0.000000
vt 0.687500 1.000000
vt 0.625000 0.000000
vt 0.750000 1.000000
vt 0.687500 0.000000
vt 0.812500 1.000000
vt 0.750000 0.000000
vt 0.875000 1.000000
vt 0.812500 0.000000
vt 0.937500 1.000000
vt 0.875000 0.000000
vt 1.000000 1.000000
vt 0.937500 0.000000
s 0
usemtl Material.001
f 19/1/1 20/2/1 8/3/1
f 9/4/1 8/3/1 20/2/1
f 20/2/1 17/5/1 9/4/1
f 17/5/1 18/6/1 9/4/1
f 7/7/1 6/8/1 13/9/1
f 5/10/1 13/9/1 6/8/1
f 12/11/1 11/12/1 7/7/1
f 7/7/1 13/9/1 12/11/1
f 1/13/1 16/14/1 13/9/1
f 13/9/1 5/10/1 1/13/1
f 5/10/1 4/15/1 1/13/1
f 7/7/1 11/12/1 8/3/1
f 19/1/1 8/3/1 11/12/1
f 18/6/1 19/1/1 11/12/1
f 11/12/1 10/16/1 18/6/1
f 3/17/1 2/18/1 1/13/1
f 1/13/1 4/15/1 3/17/1
f 18/6/1 10/16/1 9/4/1
f 13/9/1 16/14/1 14/19/1
f 15/20/1 14/19/1 16/14/1
f 39/1/2 28/3/2 40/2/2
f 29/4/2 40/2/2 28/3/2
f 40/2/2 29/4/2 37/5/2
f 37/5/2 29/4/2 38/6/2
f 27/7/2 33/9/2 26/8/2
f 25/10/2 26/8/2 33/9/2
f 32/11/2 27/7/2 31/12/2
f 27/7/2 32/11/2 33/9/2
f 21/13/2 33/9/2 36/14/2
f 33/9/2 21/13/2 25/10/2
f 25/10/2 21/13/2 24/15/2
f 27/7/2 28/3/2 31/12/2
f 39/1/2 31/12/2 28/3/2
f 38/6/2 31/12/2 39/1/2
f 31/12/2 38/6/2 30/16/2
f 23/17/2 21/13/2 22/18/2
f 21/13/2 23/17/2 24/15/2
f 38/6/2 29/4/2 30/16/2
f 33/9/2 34/19/2 36/14/2
f 35/20/2 36/14/2 34/19/2
s 1
f 44/21/3 41/13/4 42/22/4
f 46/23/5 43/24/6 44/21/3
f 48/25/7 45/26/5 46/23/5
f 50/27/7 47/28/7 48/25/7
f 52/29/8 49/30/7 50/27/7
f 54/31/9 51/32/8 52/29/8
f 56/33/10 53/34/9 54/31/9
f 58/35/11 55/36/10 56/33/10
f 60/37/12 57/38/11 58/35/11
f 62/39/13 59/40/13 60/37/12
f 64/41/14 61/42/12 62/39/13
f 66/43/15 63/44/14 64/41/14
f 68/45/16 65/46/17 66/43/15
f 70/47/18 67/48/19 68/45/16
f 72/49/20 69/50/21 70/47/18
f 42/51/4 71/52/20 72/49/20
f 76/27/22 73/13/23 74/22/23
f 78/35/24 75/30/22 76/27/22
f 80/43/25 77/38/24 78/35/24
f 74/51/23 79/46/25 80/43/25
f 44/21/3 43/24/6 41/13/4
f 46/23/5 45/26/5 43/24/6
f 48/25/7 47/28/7 45/26/5
f 50/27/7 49/30/7 47/28/7
f 52/29/8 51/32/8 49/30/7
f 54/31/9 53/34/9 51/32/8
f 56/33/10 55/36/10 53/34/9
f 58/35/11 57/38/11 55/36/10
f 60/37/12 59/40/13 57/38/11
f 62/39/13 61/42/12 59/40/13
f 64/41/14 63/44/14 61/42/12
f 66/43/15 65/46/17 63/44/14
f 68/45/16 67/48/19 65/46/17
f 70/47/18 69/50/21 67/48/19
f 72/49/20 71/52/20 69/50/21
f 42/51/4 41/2/4 71/52/20
f 76/27/22 75/30/22 73/13/23
f 78/35/24 77/38/24 75/30/22
f 80/43/25 79/46/25 77/38/24
f 74/51/23 73/2/23 79/46/25
