{
	"asset":{
		"generator":"Khronos glTF Blender I/O v4.4.56",
		"version":"2.0"
	},
	"scene":0,
	"scenes":[
		{
			"name":"Scene",
			"nodes":[
				0,
				1
			]
		}
	],
	"nodes":[
		{
			"mesh":0,
			"name":"kipi.001"
		},
		{
			"mesh":1,
			"name":"kipi.002",
			"rotation":[
				0,
				0,
				1,
				4.371138828673793e-08
			],
			"translation":[
				0,
				-0.22749224305152893,
				0
			]
		}
	],
	"materials":[
		{
			"doubleSided":true,
			"name":"\u30de\u30c6\u30ea\u30a2\u30eb",
			"pbrMetallicRoughness":{
				"baseColorFactor":[
					0.800000011920929,
					0.800000011920929,
					0.800000011920929,
					1
				],
				"metallicFactor":0,
				"roughnessFactor":0.5
			}
		}
	],
	"meshes":[
		{
			"name":"\u5186\u67f1.002",
			"primitives":[
				{
					"attributes":{
						"POSITION":0,
						"NORMAL":1,
						"TEXCOORD_0":2
					},
					"indices":3
				}
			]
		},
		{
			"name":"\u5186\u67f1.003",
			"primitives":[
				{
					"attributes":{
						"POSITION":4,
						"NORMAL":5,
						"TEXCOORD_0":6
					},
					"indices":7,
					"material":0
				}
			]
		}
	],
	"accessors":[
		{
			"bufferView":0,
			"componentType":5126,
			"count":165,
			"max":[
				1,
				0.009931802749633789,
				1
			],
			"min":[
				-1,
				0.009931802749633789,
				-1
			],
			"type":"VEC3"
		},
		{
			"bufferView":1,
			"componentType":5126,
			"count":165,
			"type":"VEC3"
		},
		{
			"bufferView":2,
			"componentType":5126,
			"count":165,
			"type":"VEC2"
		},
		{
			"bufferView":3,
			"componentType":5123,
			"count":768,
			"type":"SCALAR"
		},
		{
			"bufferView":4,
			"componentType":5126,
			"count":834,
			"max":[
				1,
				-0.21451830863952637,
				1
			],
			"min":[
				-1,
				-0.27017319202423096,
				-1
			],
			"type":"VEC3"
		},
		{
			"bufferView":5,
			"componentType":5126,
			"count":834,
			"type":"VEC3"
		},
		{
			"bufferView":6,
			"componentType":5126,
			"count":834,
			"type":"VEC2"
		},
		{
			"bufferView":7,
			"componentType":5123,
			"count":1344,
			"type":"SCALAR"
		}
	],
	"bufferViews":[
		{
			"buffer":0,
			"byteLength":1980,
			"byteOffset":0,
			"target":34962
		},
		{
			"buffer":0,
			"byteLength":1980,
			"byteOffset":1980,
			"target":34962
		},
		{
			"buffer":0,
			"byteLength":1320,
			"byteOffset":3960,
			"target":34962
		},
		{
			"buffer":0,
			"byteLength":1536,
			"byteOffset":5280,
			"target":34963
		},
		{
			"buffer":0,
			"byteLength":10008,
			"byteOffset":6816,
			"target":34962
		},
		{
			"buffer":0,
			"byteLength":10008,
			"byteOffset":16824,
			"target":34962
		},
		{
			"buffer":0,
			"byteLength":6672,
			"byteOffset":26832,
			"target":34962
		},
		{
			"buffer":0,
			"byteLength":2688,
			"byteOffset":33504,
			"target":34963
		}
	],
	"buffers":[
		{
			"byteLength":36192,
			"uri":"blackHoleRing.bin"
		}
	]
}
