# Blender 4.4.1
# www.blender.org
mtllib wall.mtl
o Cube
v 4.353524 1.300297 0.209905
v 3.731086 -1.287396 0.222063
v -4.665233 1.229415 0.224477
v -3.937441 -1.304324 0.190560
v 4.613560 1.220566 -0.232872
v 4.236406 -1.132541 -0.207748
v -4.401695 1.166579 -0.232049
v -4.450314 -1.378691 -0.223092
v 4.286160 1.160318 0.217803
v 4.579920 0.691787 0.218885
v 3.676473 0.410773 0.212907
v 4.302671 0.106242 0.207462
v 4.740465 -0.147152 0.235439
v 4.287747 -0.438534 0.212837
v 4.642919 -0.789737 0.216330
v 4.311347 -1.233738 0.224951
v -4.653596 -1.133676 -0.215183
v -4.347425 -0.711911 -0.189379
v -4.276386 -0.384549 -0.227631
v -4.423632 -0.145604 -0.205704
v -3.819644 0.208066 -0.188309
v -4.092337 0.306754 -0.224418
v -4.032042 0.750898 -0.191701
v -3.914508 0.971852 -0.187808
v -4.723038 1.077603 0.225005
v -4.376395 0.789988 0.201760
v -4.531616 0.449124 0.217826
v -4.623526 0.269942 0.187355
v -4.301007 -0.079790 0.201273
v -4.548307 -0.473305 0.223755
v -4.110088 -0.693512 0.202749
v -4.659113 -1.029855 0.190448
v 4.608166 0.854142 -0.199880
v 4.760637 0.829396 -0.194401
v 4.075329 0.355368 -0.202351
v 4.488750 0.184194 -0.200093
v 4.245213 -0.176456 -0.202325
v 4.301401 -0.492449 -0.227163
v 4.232159 -0.798663 -0.220233
v 4.090283 -1.001181 -0.195158
v 3.997872 -1.299968 -0.197317
v 2.399759 -1.249099 -0.197219
v 1.246974 -1.447381 -0.192909
v 1.046546 -1.224604 -0.178259
v -0.831757 -1.103442 -0.181138
v -1.581114 -1.196803 -0.196933
v -2.057301 -1.427778 -0.260748
v -3.669356 -1.221950 -0.250047
v 3.452940 1.310280 0.205362
v 2.374227 1.323902 0.220820
v 1.057936 1.352721 0.223451
v 0.686247 1.298262 0.188651
v -0.900197 1.198902 0.242046
v -1.696063 1.371632 0.261568
v -1.775295 1.407412 0.224939
v -4.041805 1.536567 0.216920
v -3.579412 1.311281 -0.210805
v -2.322325 1.259254 -0.214654
v -1.504063 1.291486 -0.211194
v -0.770595 1.074343 -0.197502
v 0.069030 1.184425 -0.206188
v 1.770269 1.525900 -0.189904
v 2.494774 1.291729 -0.191129
v 3.466608 1.063618 -0.187770
v -3.783864 -1.271122 0.243748
v -2.176243 -1.334117 0.193718
v -1.326932 -1.334560 0.214040
v -0.028468 -1.389879 0.233703
v 0.802191 -1.230750 0.215169
v 1.995505 -1.316996 0.229304
v 2.817728 -1.405355 0.229621
v 3.028927 -1.348583 0.203226
v 3.595488 -1.017027 0.216112
v 2.264567 -0.997836 0.179609
v 1.409079 -0.945102 0.182094
v 1.154212 -1.013641 0.218663
v -0.475163 -1.020755 0.199540
v -1.150416 -0.805048 0.214553
v -2.631601 -1.011304 0.207167
v -3.056026 -0.994009 0.231365
v 2.803857 -0.792845 0.252525
v 2.528198 -0.721839 0.225219
v 1.837468 -0.677025 0.266315
v 0.448648 -0.746341 0.237091
v -0.876794 -0.836849 0.237556
v -1.790866 -0.689551 0.188798
v -2.485624 -0.785915 0.181283
v -4.141528 -0.702797 0.241223
v 3.170544 -0.414016 0.181179
v 2.718760 -0.421491 0.218113
v 1.409289 -0.430453 0.204760
v 1.240291 -0.516840 0.210681
v -0.482229 -0.418201 0.260090
v -1.475950 -0.458659 0.193926
v -2.198017 -0.462292 0.225541
v -3.713742 -0.413629 0.217980
v 2.891391 -0.191523 0.197125
v 2.134888 -0.160925 0.224650
v 1.220802 -0.035186 0.189709
v 0.633127 -0.399228 0.205295
v -0.934563 -0.057070 0.193785
v -1.741166 -0.012032 0.257637
v -2.623388 -0.110929 0.191007
v -3.245831 -0.165548 0.218139
v 3.483120 0.135003 0.184285
v 2.836475 0.084365 0.182251
v 1.164518 0.287412 0.201118
v 0.437138 0.155199 0.191366
v -0.446393 0.109922 0.193942
v -1.816895 0.022005 0.186973
v -2.765236 0.075502 0.213924
v -3.186575 0.170281 0.226379
v 3.731239 0.456038 0.184093
v 2.170693 0.306708 0.216673
v 1.215150 0.466953 0.240990
v -0.051413 0.352511 0.218521
v -0.487305 0.400419 0.259230
v -1.500815 0.421023 0.158109
v -2.695361 0.458886 0.193177
v -3.501258 0.423416 0.221121
v 3.646374 0.753826 0.189357
v 2.214900 0.694523 0.167591
v 1.542614 0.694203 0.240010
v 0.518793 0.747500 0.169808
v -0.412635 1.002549 0.239312
v -1.546072 0.837914 0.231778
v -2.425665 0.816530 0.198550
v -3.355646 0.770210 0.230208
v 3.896106 1.055891 0.273904
v 2.362784 0.991882 0.217145
v 0.944279 1.031263 0.250783
v 0.603248 1.032594 0.209168
v -0.118400 0.894581 0.219046
v -1.512750 0.893424 0.151856
v -2.421908 1.009567 0.220502
v -3.456590 1.029249 0.217005
v -3.299454 -1.057152 -0.159602
v -2.375001 -1.081473 -0.211132
v -1.488745 -1.053455 -0.220058
v -0.759898 -1.064931 -0.262292
v 0.743201 -1.141208 -0.219158
v 1.575234 -1.075546 -0.225279
v 2.529345 -1.023743 -0.234308
v 3.324728 -1.016653 -0.252805
v -3.230819 -0.712996 -0.267607
v -3.090167 -0.728036 -0.210131
v -2.257761 -0.749958 -0.233719
v -1.050842 -0.552515 -0.184774
v 0.210369 -0.868356 -0.222331
v 1.672604 -0.737145 -0.192574
v 2.722962 -0.695865 -0.192022
v 3.374354 -0.727411 -0.215802
v -3.530809 -0.443039 -0.206222
v -2.477260 -0.485932 -0.205631
v -1.512263 -0.474778 -0.203674
v -0.851995 -0.342362 -0.241198
v 1.011549 -0.346892 -0.203081
v 1.316919 -0.452899 -0.209900
v 2.579275 -0.409227 -0.187261
v 3.477150 -0.552714 -0.211747
v -3.394634 -0.101938 -0.184632
v -2.191374 -0.145088 -0.234106
v -0.921757 -0.214534 -0.230982
v -0.811471 -0.291839 -0.237187
v 0.377395 -0.192820 -0.189269
v 1.366145 -0.150881 -0.202760
v 2.581437 -0.144453 -0.212575
v 3.860545 -0.042788 -0.168611
v -3.271415 0.227082 -0.238132
v -2.345177 0.073112 -0.215955
v -1.596043 0.345930 -0.174784
v -0.529813 0.130032 -0.192386
v 0.813896 0.321115 -0.201959
v 1.506847 0.166543 -0.245474
v 2.527372 0.118863 -0.229750
v 3.442626 0.352296 -0.212162
v -3.337567 0.529551 -0.192981
v -2.264379 0.555082 -0.254884
v -1.994068 0.378340 -0.231277
v -1.199452 0.525278 -0.177641
v 0.747386 0.343582 -0.269726
v 1.287650 0.398613 -0.169192
v 2.520322 0.437956 -0.219894
v 3.317909 0.376978 -0.248222
v -3.507281 0.718765 -0.192231
v -2.464948 0.765273 -0.215215
v -1.316035 0.669129 -0.196236
v -0.485574 0.756858 -0.201163
v -0.012581 0.638669 -0.190979
v 1.436726 0.727437 -0.230909
v 2.237529 0.640941 -0.222525
v 3.441209 0.717409 -0.215774
v -3.691551 0.714559 -0.182996
v -2.517172 0.994566 -0.221561
v -1.504732 1.057423 -0.204026
v -0.310477 0.979444 -0.233456
v -0.183269 1.173868 -0.214271
v 1.703823 1.165803 -0.172192
v 2.753087 0.995750 -0.225519
v 3.451669 0.989356 -0.230802
vn -0.4165 0.8367 -0.3556
vn -0.4319 0.1614 -0.8873
vn 0.0803 0.4876 -0.8694
vn 0.1942 -0.9788 -0.0648
vn 0.0064 0.0011 1.0000
vn 0.6536 -0.2747 0.7052
vn 0.4847 0.4684 0.7387
vn 0.6340 -0.4852 -0.6022
vn 0.5844 0.5854 -0.5619
vn 0.9846 0.1744 0.0092
vn 0.6169 -0.4124 -0.6703
vn 0.4123 0.8415 0.3492
vn 0.4723 -0.6920 0.5460
vn 0.7427 0.4668 0.4802
vn -0.3217 0.8625 0.3906
vn -0.0256 0.0053 0.9997
vn -0.4048 -0.7566 -0.5134
vn 0.0030 0.0552 0.9985
vn -0.0177 -0.0214 0.9996
vn -0.0281 -0.0142 0.9995
vn -0.0038 -0.0246 0.9997
vn -0.0271 0.0404 0.9988
vn -0.0622 0.0264 -0.9977
vn 0.0775 -0.1758 -0.9814
vn -0.0031 0.0250 -0.9997
vn -0.0241 0.0741 -0.9970
vn -0.0690 0.0528 -0.9962
vn 0.0154 0.0240 -0.9996
vn 0.0623 0.0723 -0.9954
vn 0.0229 -0.0796 -0.9966
vn -0.3633 -0.8932 0.2648
vn -0.5144 -0.5194 0.6824
vn -0.5187 -0.4537 0.7247
vn -0.7940 0.5862 -0.1608
vn -0.4180 -0.8598 0.2933
vn -0.7917 0.4756 -0.3834
vn -0.5055 0.8627 0.0128
vn -0.3766 0.3397 -0.8618
vn -0.6996 0.2788 -0.6579
vn -0.6740 0.1451 -0.7243
vn -0.6782 0.1451 -0.7204
vn -0.6796 0.3727 -0.6318
vn 0.0317 0.5042 0.8630
vn -0.0206 -0.0323 -0.9993
vn 0.0155 -0.0125 -0.9998
vn -0.0036 -0.0218 -0.9998
vn -0.0122 -0.1342 -0.9909
vn -0.0244 -0.0512 -0.9984
vn 0.0083 -0.0204 -0.9998
vn 0.0068 -0.0183 -0.9998
vn 0.0111 0.0405 -0.9991
vn 0.0151 0.0533 -0.9985
vn 0.0207 0.0707 -0.9973
vn -0.0602 0.1294 -0.9898
vn 0.0520 0.0813 -0.9953
vn 0.0484 0.1082 -0.9929
vn 0.0656 -0.0328 -0.9973
vn 0.0791 -0.0645 -0.9948
vn -0.0289 0.1875 -0.9818
vn 0.1077 0.5059 -0.8559
vn -0.0240 -0.1242 -0.9920
vn -0.0244 -0.1227 -0.9921
vn -0.0389 -0.0671 -0.9970
vn -0.0273 0.1046 -0.9941
vn -0.0621 -0.4897 -0.8697
vn 0.0102 -0.0822 -0.9966
vn 0.1228 -0.1901 -0.9741
vn -0.0136 0.0142 -0.9998
vn 0.1248 -0.8987 -0.4204
vn 0.0126 0.3230 -0.9463
vn 0.0169 0.0312 -0.9994
vn 0.0113 0.0311 -0.9995
vn 0.0198 0.0153 -0.9997
vn -0.0390 0.0555 -0.9977
vn 0.0085 0.1098 -0.9939
vn 0.0123 0.0975 -0.9952
vn 0.0332 0.0836 -0.9959
vn -0.0131 -0.0136 -0.9998
vn -0.0073 -0.1302 -0.9915
vn -0.0074 -0.1073 -0.9942
vn -0.0074 -0.1181 -0.9930
vn 0.0388 -0.0571 -0.9976
vn 0.0326 0.0502 -0.9982
vn 0.0031 0.0619 -0.9981
vn 0.0030 -0.0858 -0.9963
vn -0.0854 0.1468 -0.9855
vn 0.0206 0.0627 -0.9978
vn -0.0115 0.0392 -0.9992
vn -0.0134 0.0258 -0.9996
vn -0.0084 0.0401 -0.9992
vn 0.0172 0.0208 -0.9996
vn -0.0423 -0.0947 -0.9946
vn -0.0690 0.1477 -0.9866
vn 0.3623 0.5702 -0.7373
vn -0.0260 0.0844 -0.9961
vn 0.0407 -0.0012 -0.9992
vn -0.0148 0.0596 -0.9981
vn -0.0134 0.0574 -0.9983
vn 0.0232 -0.0319 -0.9992
vn -0.0001 0.0165 -0.9999
vn -0.0344 0.0434 -0.9985
vn 0.0391 0.0327 -0.9987
vn -0.0583 -0.1152 -0.9916
vn -0.0080 -0.0652 -0.9978
vn -0.0556 0.1184 -0.9914
vn 0.0311 0.0492 -0.9983
vn -0.0056 -0.0225 -0.9997
vn -0.0149 0.1004 -0.9948
vn -0.0243 0.1420 -0.9896
vn -0.0351 0.0031 -0.9994
vn 0.0016 0.2534 -0.9674
vn -0.0018 0.2851 -0.9585
vn 0.0130 0.1535 -0.9881
vn 0.0439 0.1810 -0.9825
vn 0.0439 -0.1866 -0.9814
vn -0.0332 -0.5348 -0.8443
vn -0.0854 -0.0113 -0.9963
vn 0.0132 -0.0983 -0.9951
vn -0.0067 -0.2074 -0.9782
vn -0.0462 -0.2336 0.9712
vn -0.0124 -0.0667 0.9977
vn -0.0084 -0.1603 0.9870
vn -0.0108 -0.1035 0.9946
vn 0.1047 -0.2139 0.9712
vn -0.0761 -0.1665 0.9831
vn -0.0910 -0.0613 -0.9940
vn -0.1253 0.8386 0.5302
vn -0.0412 0.8286 0.5583
vn 0.0395 -0.1137 0.9927
vn -0.3990 -0.0976 -0.9117
vn 0.0088 0.1246 0.9922
vn 0.0454 0.1203 0.9917
vn -0.0327 0.1687 0.9851
vn 0.0919 -0.0099 0.9957
vn -0.1013 -0.1838 0.9777
vn 0.0282 -0.0363 0.9989
vn 0.0364 -0.0415 0.9985
vn -0.0310 -0.0816 0.9962
vn -0.0034 0.0032 1.0000
vn -0.0116 -0.1868 0.9823
vn 0.0080 -0.1170 0.9931
vn 0.0088 -0.1150 0.9933
vn -0.0466 -0.0431 0.9980
vn -0.0350 -0.0037 0.9994
vn -0.0102 0.0802 0.9967
vn 0.0311 0.0476 0.9984
vn 0.0400 0.0467 0.9981
vn -0.0226 0.0801 0.9965
vn 0.0388 0.0615 0.9974
vn -0.0102 0.1985 0.9801
vn 0.0076 0.0305 0.9995
vn 0.0090 0.0283 0.9996
vn 0.0041 0.0362 0.9993
vn -0.0046 0.0125 0.9999
vn 0.0805 0.9290 0.3612
vn -0.0560 -0.1637 0.9849
vn 0.0507 -0.0837 0.9952
vn -0.0290 -0.0324 0.9991
vn 0.0809 0.0302 0.9963
vn -0.0099 -0.0472 0.9988
vn 0.0032 0.0622 0.9981
vn 0.0428 0.2651 0.9633
vn -0.0700 0.0947 0.9930
vn 0.0440 -0.1154 0.9923
vn -0.0047 0.0083 1.0000
vn 0.0196 0.0298 0.9994
vn -0.0394 0.2217 0.9743
vn -0.0699 0.1120 0.9912
vn -0.0741 0.0961 0.9926
vn 0.0585 -0.0135 0.9982
vn -0.0315 0.2210 0.9748
vn 0.0043 -0.0578 0.9983
vn -0.0466 0.0414 0.9981
vn 0.0092 -0.1435 0.9896
vn 0.0374 0.0249 0.9990
vn -0.0053 0.0233 0.9997
vn -0.0056 0.0224 0.9997
vn -0.0062 0.0208 0.9998
vn -0.0302 -0.2634 0.9642
vn -0.0144 -0.2787 0.9603
vn 0.0928 0.1775 0.9797
vn -0.0041 -0.1219 0.9925
vn 0.0015 -0.1406 0.9901
vn -0.0112 -0.0983 0.9951
vn -0.1273 -0.4597 0.8789
vn -0.0229 0.1287 0.9914
vn 0.0598 0.0756 0.9953
vn -0.0275 0.0082 0.9996
vn 0.2213 -0.4126 0.8836
vn 0.0148 0.1416 0.9898
vn -0.0116 0.0028 0.9999
vn 0.0037 0.0966 0.9953
vn -0.0118 0.0780 0.9969
vn -0.0239 0.0070 0.9997
vn 0.0298 -0.0336 0.9990
vn 0.0460 0.3339 0.9415
vn -0.0442 0.1875 0.9813
vn 0.0257 0.0757 0.9968
vn -0.1197 0.1260 0.9848
vn 0.0189 -0.0271 0.9995
vn -0.0470 -0.1949 0.9797
vn 0.0609 -0.1100 0.9921
vn -0.0035 -0.0038 1.0000
vn 0.5447 -0.7530 0.3691
vn -0.0312 -0.9804 -0.1945
vn 0.1484 -0.8729 -0.4648
vn -0.3935 -0.4082 0.8237
vn -0.0642 -0.9964 -0.0554
vn 0.1222 -0.9158 -0.3825
vn 0.0153 -0.9451 -0.3265
vn 0.1136 -0.9189 -0.3779
vn 0.3878 -0.8775 0.2823
vn -0.1237 -0.9778 0.1691
vn -0.1260 -0.0907 0.9879
vn -0.0227 -0.0423 -0.9988
vn 0.0164 0.0140 -0.9998
vn 0.0001 0.3548 -0.9349
vn -0.0504 0.1307 -0.9901
vn 0.0227 0.2065 -0.9782
vn -0.0371 0.0833 -0.9958
vn -0.0020 0.5017 -0.8651
vn 0.0121 0.8472 -0.5311
vn 0.0115 0.9972 -0.0745
vn 0.0217 0.9972 -0.0715
vn -0.1564 0.9777 0.1401
vn -0.0675 0.9818 -0.1776
vn 0.2095 0.9745 -0.0801
vn 0.4074 0.9132 0.0107
vn 0.0531 0.9061 -0.4198
vn -0.1285 0.8134 -0.5673
vn -0.3635 -0.9280 -0.0821
vn -0.0269 -0.0893 -0.9956
vn 0.2258 -0.9732 -0.0445
vn 0.0077 0.0090 0.9999
vn 0.8644 0.0325 0.5018
vn 0.0815 -0.8532 -0.5152
vn 0.6301 -0.5136 -0.5824
vn 0.9741 -0.2190 0.0571
vn 0.4858 -0.7158 -0.5016
vn 0.4496 0.8168 0.3615
vn 0.3706 0.8983 0.2361
vn 0.2930 -0.9382 -0.1842
vn 0.1560 0.8501 -0.5029
vn -0.0241 -0.0629 0.9977
vn -0.2400 -0.8806 -0.4086
vn 0.0013 0.0782 0.9969
vn -0.0139 0.0256 0.9996
vn -0.0261 0.0158 0.9995
vn -0.0072 -0.1640 0.9864
vn -0.0267 0.0592 0.9979
vn 0.0034 -0.0765 0.9971
vn 0.0754 -0.0161 -0.9970
vn 0.0053 0.1260 -0.9920
vn -0.0173 -0.0187 -0.9997
vn -0.0458 0.1184 -0.9919
vn 0.0124 -0.0966 -0.9952
vn 0.0204 -0.0882 -0.9959
vn -0.0074 -0.1173 -0.9931
vn 0.0131 -0.8034 -0.5953
vn 0.0168 -0.0076 -0.9998
vn 0.0101 -0.0556 -0.9984
vn 0.0037 -0.0553 -0.9985
vn 0.0202 -0.0559 -0.9982
vn -0.3461 -0.9100 0.2282
vn -0.5075 0.8186 0.2688
vn -0.8604 0.1291 -0.4929
vn -0.7923 -0.5179 0.3225
vn -0.4116 -0.4119 -0.8130
vn -0.3365 -0.9412 -0.0312
vn -0.7055 0.2908 -0.6463
vn -0.4481 -0.4790 -0.7549
vn 0.0260 0.0038 -0.9997
vn -0.0517 0.0798 -0.9955
vn 0.0188 -0.0234 -0.9996
vn -0.0322 -0.1186 -0.9924
vn 0.1446 0.0030 -0.9895
vn 0.0226 0.1192 -0.9926
vn -0.0262 0.1484 -0.9886
vn -0.0081 -0.0549 -0.9985
vn -0.0008 0.0032 -1.0000
vn -0.0214 -0.0152 -0.9997
vn 0.0343 0.2168 -0.9756
vn 0.0071 -0.1226 -0.9924
vn -0.0022 -0.0944 -0.9955
vn -0.0163 -0.1773 -0.9840
vn -0.0092 -0.1804 -0.9835
vn 0.0059 -0.0047 -1.0000
vn -0.0022 0.1472 -0.9891
vn -0.0603 0.1345 -0.9891
vn 0.0310 -0.0856 -0.9958
vn 0.1140 -0.2674 -0.9568
vn -0.0519 -0.0507 -0.9974
vn 0.1742 -0.8708 -0.4597
vn -0.0482 0.2705 -0.9615
vn -0.0838 -0.9333 -0.3492
vn -0.0853 -0.1287 -0.9880
vn -0.0310 -0.1491 -0.9883
vn -0.0356 -0.1473 -0.9885
vn -0.0029 -0.1594 -0.9872
vn 0.0195 0.0965 -0.9951
vn 0.0050 0.1057 -0.9944
vn -0.0041 -0.0212 -0.9998
vn -0.0838 -0.0963 -0.9918
vn 0.0125 -0.0625 -0.9980
vn 0.0372 -0.0706 -0.9968
vn 0.0161 0.1012 -0.9947
vn -0.0427 -0.0475 -0.9980
vn -0.0029 -0.0978 -0.9952
vn -0.0500 0.0088 -0.9987
vn 0.0240 0.1869 -0.9821
vn -0.0148 0.0285 -0.9995
vn -0.0075 -0.0951 -0.9954
vn 0.0293 0.0623 -0.9976
vn 0.0191 -0.1201 -0.9926
vn 0.0012 0.0156 -0.9999
vn 0.0008 0.1064 -0.9943
vn -0.0036 -0.2562 -0.9666
vn 0.0190 -0.2760 -0.9610
vn 0.0192 -0.0369 -0.9991
vn -0.0268 0.0032 -0.9996
vn -0.0672 -0.2865 -0.9557
vn 0.3240 -0.3415 -0.8823
vn -0.0298 -0.0575 -0.9979
vn 0.0338 0.0408 -0.9986
vn 0.0093 0.1548 -0.9879
vn 0.0119 0.0928 -0.9956
vn -0.0046 0.1306 -0.9914
vn -0.0298 0.1319 -0.9908
vn 0.0102 0.4634 -0.8861
vn -0.0329 0.5366 -0.8432
vn -0.0050 -0.1561 -0.9877
vn -0.0405 -0.8883 -0.4574
vn -0.0323 -0.8916 -0.4517
vn 0.0226 -0.3728 -0.9277
vn -0.0005 -0.1621 -0.9868
vn -0.0216 -0.1502 -0.9884
vn 0.1213 0.0784 0.9895
vn -0.0254 -0.2499 0.9679
vn 0.0240 0.0107 0.9997
vn -0.1209 -0.1005 0.9876
vn 0.0420 -0.1488 0.9880
vn 0.0456 0.3030 -0.9519
vn 0.0603 -0.1139 0.9917
vn -0.0024 0.0500 0.9987
vn -0.0272 0.0661 0.9974
vn -0.0143 -0.0217 0.9997
vn 0.1060 -0.1485 0.9832
vn -0.0632 0.0953 0.9934
vn 0.0806 0.0230 0.9965
vn -0.0117 0.0345 0.9993
vn -0.0328 -0.1774 0.9836
vn 0.0361 -0.0422 0.9985
vn -0.6952 0.5370 -0.4778
vn 0.0277 -0.0715 0.9971
vn -0.0110 -0.2138 0.9768
vn 0.0023 -0.2174 0.9761
vn 0.0681 -0.2096 0.9754
vn -0.1012 -0.2317 0.9675
vn 0.0308 0.0484 0.9984
vn 0.0319 0.0604 0.9977
vn -0.0259 0.0654 0.9975
vn -0.0072 0.0524 0.9986
vn 0.0071 -0.0341 0.9994
vn -0.0068 -0.0365 0.9993
vn 0.0016 0.0257 0.9997
vn -0.0062 0.0171 0.9998
vn 0.0628 0.9238 0.3776
vn 0.0231 -0.0286 0.9993
vn -0.0184 -0.0944 0.9954
vn 0.0388 0.0619 0.9973
vn -0.0353 0.0212 0.9992
vn 0.0023 0.0391 0.9992
vn 0.0438 0.2332 0.9714
vn 0.0731 -0.0982 0.9925
vn -0.0760 0.0060 0.9971
vn 0.0313 0.1352 0.9903
vn -0.0232 0.2067 0.9781
vn 0.0819 -0.0284 0.9962
vn -0.0115 0.2234 0.9747
vn -0.0483 0.1621 0.9856
vn 0.0294 0.0135 0.9995
vn -0.0668 0.0093 0.9977
vn 0.0440 -0.0821 0.9956
vn -0.0090 -0.1276 0.9918
vn 0.0197 -0.0920 0.9956
vn -0.1128 -0.0562 0.9920
vn 0.0449 -0.2045 0.9778
vn -0.0056 -0.2916 0.9565
vn 0.0124 -0.1764 0.9842
vn -0.1338 -0.5595 0.8180
vn -0.0235 0.0917 0.9955
vn 0.0421 0.1233 0.9915
vn -0.0067 0.0186 0.9998
vn -0.0261 0.0868 0.9959
vn 0.0118 0.1442 0.9895
vn 0.0743 0.2401 0.9679
vn -0.0117 0.0030 0.9999
vn 0.0198 -0.0076 0.9998
vn 0.0007 -0.0407 0.9992
vn 0.0585 0.0410 0.9974
vn -0.0044 0.0584 0.9983
vn 0.0142 -0.0116 0.9998
vn 0.0018 -0.0111 0.9999
vn -0.1087 0.1102 0.9879
vn 0.0293 0.0679 0.9973
vn -0.0268 -0.2333 0.9720
vn -0.5233 -0.3760 0.7647
vn -0.0038 -0.0049 1.0000
vn 0.0843 -0.9929 0.0834
vn 0.1708 -0.8594 -0.4819
vn -0.0959 -0.8904 0.4449
vn -0.0713 -0.9957 -0.0598
vn 0.1175 -0.6961 -0.7083
vn -0.0281 -0.8472 -0.5306
vn 0.0072 -0.9468 -0.3218
vn -0.0423 -0.9932 -0.1087
vn 0.0351 -0.0531 -0.9980
vn -0.0019 0.0275 -0.9996
vn 0.0054 -0.0306 -0.9995
vn 0.0096 -0.0306 -0.9995
vn -0.0468 0.4284 0.9024
vn 0.0202 -0.0528 -0.9984
vn -0.0166 -0.0461 -0.9988
vn 0.0382 0.1482 -0.9882
vn -0.1409 0.9566 -0.2550
vn 0.1974 0.8335 -0.5161
vn 0.2262 0.6961 0.6814
vn -0.1970 0.9801 0.0253
vn -0.1269 0.9439 -0.3049
vn 0.2822 0.9416 -0.1836
vn -0.0366 0.9599 -0.2779
vn 0.0375 0.9319 -0.3607
vt 0.625000 0.722222
vt 0.875000 0.750000
vt 0.625000 0.750000
vt 0.597222 1.000000
vt 0.597222 0.750000
vt 0.625000 0.222222
vt 0.597222 0.250000
vt 0.597222 0.222222
vt 0.125000 0.722222
vt 0.375000 0.750000
vt 0.125000 0.750000
vt 0.597222 0.722222
vt 0.625000 0.500000
vt 0.597222 0.500000
vt 0.402778 0.250000
vt 0.375000 0.500000
vt 0.375000 0.250000
vt 0.430556 0.500000
vt 0.402778 0.500000
vt 0.430556 0.250000
vt 0.458333 0.500000
vt 0.486111 0.250000
vt 0.458333 0.250000
vt 0.513889 0.250000
vt 0.486111 0.500000
vt 0.541667 0.500000
vt 0.513889 0.500000
vt 0.569444 0.250000
vt 0.541667 0.250000
vt 0.569444 0.500000
vt 0.402778 0.722222
vt 0.375000 0.722222
vt 0.430556 0.750000
vt 0.402778 0.750000
vt 0.430556 0.722222
vt 0.458333 0.750000
vt 0.458333 0.722222
vt 0.486111 0.750000
vt 0.513889 0.722222
vt 0.486111 0.722222
vt 0.541667 0.722222
vt 0.513889 0.750000
vt 0.569445 0.722222
vt 0.541667 0.750000
vt 0.569444 0.750000
vt 0.375000 0.222222
vt 0.402778 0.222222
vt 0.458333 0.222222
vt 0.430556 0.222222
vt 0.486111 0.222222
vt 0.513889 0.222222
vt 0.569445 0.222222
vt 0.541667 0.222222
vt 0.402778 1.000000
vt 0.375000 1.000000
vt 0.430556 1.000000
vt 0.458333 1.000000
vt 0.513889 1.000000
vt 0.486111 1.000000
vt 0.569444 1.000000
vt 0.541667 1.000000
vt 0.569444 0.000000
vt 0.597222 0.027778
vt 0.569445 0.027778
vt 0.597222 0.055556
vt 0.569445 0.055556
vt 0.597222 0.083333
vt 0.569445 0.083333
vt 0.569445 0.111111
vt 0.597222 0.111111
vt 0.569445 0.138889
vt 0.597222 0.138889
vt 0.569445 0.166667
vt 0.597222 0.194444
vt 0.569445 0.194444
vt 0.541667 0.027778
vt 0.541667 0.000000
vt 0.541667 0.055556
vt 0.541667 0.083333
vt 0.541667 0.111111
vt 0.541667 0.138889
vt 0.541667 0.166667
vt 0.541667 0.194444
vt 0.513889 0.027778
vt 0.513889 0.000000
vt 0.513889 0.055556
vt 0.513889 0.083333
vt 0.513889 0.111111
vt 0.513889 0.138889
vt 0.513889 0.166667
vt 0.513889 0.194444
vt 0.486111 0.027778
vt 0.486111 0.000000
vt 0.486111 0.055556
vt 0.486111 0.083333
vt 0.486111 0.111111
vt 0.486111 0.138889
vt 0.486111 0.166667
vt 0.486111 0.194444
vt 0.458333 0.000000
vt 0.458333 0.027778
vt 0.458333 0.055556
vt 0.458333 0.083333
vt 0.458333 0.111111
vt 0.458333 0.138889
vt 0.458333 0.166667
vt 0.458333 0.194444
vt 0.430556 0.000000
vt 0.430556 0.027778
vt 0.430556 0.055556
vt 0.430556 0.083333
vt 0.430556 0.111111
vt 0.430556 0.138889
vt 0.430556 0.166667
vt 0.430556 0.194444
vt 0.402778 0.027778
vt 0.402778 0.000000
vt 0.402778 0.055556
vt 0.402778 0.083333
vt 0.402778 0.111111
vt 0.402778 0.138889
vt 0.402778 0.166667
vt 0.402778 0.194444
vt 0.375000 0.027778
vt 0.375000 0.000000
vt 0.375000 0.055556
vt 0.375000 0.083333
vt 0.375000 0.111111
vt 0.375000 0.138889
vt 0.375000 0.166667
vt 0.375000 0.194444
vt 0.597222 0.527778
vt 0.569445 0.527778
vt 0.597222 0.555556
vt 0.569445 0.555556
vt 0.569445 0.583333
vt 0.597222 0.583333
vt 0.569445 0.611111
vt 0.597222 0.638889
vt 0.569445 0.638889
vt 0.597222 0.666667
vt 0.569445 0.666667
vt 0.569445 0.694444
vt 0.597222 0.694444
vt 0.541667 0.527778
vt 0.541667 0.555556
vt 0.541667 0.583333
vt 0.541667 0.611111
vt 0.541667 0.638889
vt 0.541667 0.666667
vt 0.541667 0.694444
vt 0.513889 0.527778
vt 0.513889 0.555556
vt 0.513889 0.583333
vt 0.513889 0.611111
vt 0.513889 0.638889
vt 0.513889 0.666667
vt 0.513889 0.694444
vt 0.486111 0.527778
vt 0.486111 0.555556
vt 0.486111 0.583333
vt 0.486111 0.611111
vt 0.486111 0.638889
vt 0.486111 0.666667
vt 0.486111 0.694444
vt 0.458333 0.527778
vt 0.458333 0.555556
vt 0.458333 0.583333
vt 0.458333 0.611111
vt 0.458333 0.638889
vt 0.458333 0.666667
vt 0.458333 0.694444
vt 0.430556 0.527778
vt 0.430556 0.555556
vt 0.430556 0.583333
vt 0.430556 0.611111
vt 0.430556 0.638889
vt 0.430556 0.666667
vt 0.430556 0.694444
vt 0.402778 0.527778
vt 0.402778 0.555556
vt 0.402778 0.583333
vt 0.402778 0.611111
vt 0.402778 0.638889
vt 0.402778 0.666667
vt 0.402778 0.694444
vt 0.375000 0.527778
vt 0.375000 0.555556
vt 0.375000 0.583333
vt 0.375000 0.611111
vt 0.375000 0.638889
vt 0.375000 0.666667
vt 0.375000 0.694444
vt 0.625000 0.527778
vt 0.625000 0.583333
vt 0.597222 0.611111
vt 0.625000 0.638889
vt 0.625000 0.694444
vt 0.125000 0.527778
vt 0.125000 0.500000
vt 0.125000 0.555556
vt 0.125000 0.583333
vt 0.125000 0.611111
vt 0.125000 0.638889
vt 0.125000 0.666667
vt 0.125000 0.694444
vt 0.625000 0.000000
vt 0.597222 0.000000
vt 0.625000 0.027778
vt 0.625000 0.055556
vt 0.625000 0.111111
vt 0.625000 0.138889
vt 0.597222 0.166667
vt 0.625000 0.194444
vt 0.875000 0.527778
vt 0.875000 0.555556
vt 0.625000 0.555556
vt 0.875000 0.583333
vt 0.625000 0.611111
vt 0.875000 0.611111
vt 0.875000 0.666667
vt 0.625000 0.666667
vt 0.875000 0.722222
vt 0.625000 1.000000
vt 0.625000 0.250000
vt 0.625000 0.083333
vt 0.625000 0.166667
vt 0.875000 0.500000
vt 0.875000 0.638889
vt 0.875000 0.694444
s 1
usemtl Material.001
f 56/1/1 7/2/1 3/3/1
f 3/3/2 24/4/2 25/5/2
f 64/6/3 33/7/3 200/8/3
f 48/9/4 4/10/4 8/11/4
f 136/12/5 3/3/5 25/5/5
f 33/7/6 1/13/6 9/14/6
f 40/15/7 2/16/7 6/17/7
f 40/15/8 15/18/8 16/19/8
f 39/20/9 14/21/9 15/18/9
f 37/22/10 14/21/10 38/23/10
f 36/24/11 13/25/11 37/22/11
f 36/24/12 11/26/12 12/27/12
f 34/28/13 11/26/13 35/29/13
f 34/28/14 9/14/14 10/30/14
f 80/31/15 4/10/15 65/32/15
f 80/31/16 31/33/16 32/34/16
f 88/35/17 30/36/17 31/33/17
f 96/37/18 29/38/18 30/36/18
f 112/39/19 29/38/19 104/40/19
f 120/41/20 28/42/20 112/39/20
f 128/43/21 27/44/21 120/41/21
f 136/12/22 26/45/22 128/43/22
f 41/46/23 40/15/23 6/17/23
f 144/47/24 39/20/24 40/15/24
f 160/48/25 39/20/25 152/49/25
f 160/48/26 37/22/26 38/23/26
f 168/50/27 36/24/27 37/22/27
f 176/51/28 35/29/28 36/24/28
f 192/52/29 35/29/29 184/53/29
f 192/52/30 33/7/30 34/28/30
f 4/10/31 17/54/32 8/55/33
f 32/34/34 18/56/34 17/54/34
f 30/36/35 18/56/35 31/33/35
f 29/38/36 19/57/36 30/36/36
f 29/38/37 21/58/37 20/59/37
f 27/44/38 21/58/38 28/42/38
f 27/44/39 23/60/40 22/61/41
f 26/45/42 24/4/42 23/60/42
f 23/62/43 193/63/43 185/64/43
f 185/64/44 194/65/44 186/66/44
f 186/66/45 195/67/45 187/68/45
f 195/67/46 188/69/46 187/68/46
f 196/70/47 189/71/47 188/69/47
f 197/72/48 190/73/48 189/71/48
f 190/73/49 199/74/49 191/75/49
f 199/74/50 192/52/50 191/75/50
f 23/62/51 177/76/52 22/77/53
f 177/76/54 186/66/54 178/78/54
f 178/78/55 187/68/56 179/79/57
f 187/68/58 180/80/58 179/79/58
f 180/80/59 189/71/59 181/81/59
f 189/71/60 182/82/60 181/81/60
f 182/82/61 191/75/62 183/83/63
f 183/83/64 192/52/64 184/53/64
f 22/77/65 169/84/65 21/85/65
f 169/84/66 178/78/66 170/86/66
f 170/86/67 179/79/67 171/87/67
f 171/87/68 180/80/68 172/88/68
f 172/88/69 181/81/69 173/89/69
f 173/89/70 182/82/70 174/90/70
f 174/90/71 183/83/71 175/91/71
f 183/83/72 176/51/72 175/91/72
f 21/85/73 161/92/73 20/93/73
f 161/92/74 170/86/74 162/94/74
f 162/94/75 171/87/75 163/95/75
f 163/95/76 172/88/76 164/96/76
f 172/88/77 165/97/77 164/96/77
f 173/89/78 166/98/78 165/97/78
f 174/90/79 167/99/80 166/98/81
f 175/91/82 168/50/82 167/99/82
f 19/100/83 161/92/83 153/101/83
f 161/92/84 154/102/84 153/101/84
f 162/94/85 155/103/85 154/102/85
f 155/103/86 164/96/86 156/104/86
f 164/96/87 157/105/87 156/104/87
f 157/105/88 166/98/89 158/106/90
f 166/98/91 159/107/91 158/106/91
f 167/99/92 160/48/92 159/107/92
f 18/108/93 153/101/93 145/109/93
f 153/101/94 146/110/94 145/109/94
f 154/102/95 147/111/95 146/110/95
f 155/103/96 148/112/96 147/111/96
f 148/112/97 157/105/88 149/113/98
f 149/113/99 158/106/99 150/114/99
f 150/114/100 159/107/100 151/115/100
f 151/115/101 160/48/101 152/49/101
f 18/108/102 137/116/102 17/117/102
f 137/116/103 146/110/103 138/118/103
f 138/118/104 147/111/104 139/119/104
f 139/119/105 148/112/105 140/120/105
f 140/120/106 149/113/106 141/121/106
f 149/113/107 142/122/107 141/121/107
f 150/114/108 143/123/108 142/122/108
f 151/115/109 144/47/109 143/123/109
f 17/117/110 48/124/110 8/125/110
f 48/124/111 138/118/112 47/126/113
f 138/118/114 46/127/114 47/126/114
f 139/119/115 45/128/115 46/127/115
f 45/128/116 141/121/116 44/129/116
f 44/129/117 142/122/117 43/130/117
f 142/122/118 42/131/118 43/130/118
f 42/131/119 144/47/119 41/46/119
f 10/30/120 129/132/120 121/133/120
f 121/133/121 130/134/122 122/135/123
f 130/134/124 123/136/124 122/135/124
f 131/137/125 124/138/125 123/136/125
f 124/138/126 133/139/126 125/140/126
f 125/140/127 134/141/127 126/142/127
f 134/141/128 127/143/128 126/142/128
f 135/144/129 128/43/129 127/143/129
f 11/26/130 121/133/130 113/145/130
f 113/145/131 122/135/131 114/146/131
f 122/135/132 115/147/132 114/146/132
f 115/147/133 124/138/133 116/148/133
f 124/138/134 117/149/134 116/148/134
f 117/149/135 126/142/135 118/150/135
f 118/150/136 127/143/136 119/151/136
f 119/151/137 128/43/137 120/41/137
f 11/26/138 105/152/138 12/27/138
f 113/145/139 106/153/139 105/152/139
f 114/146/140 107/154/140 106/153/140
f 107/154/141 116/148/141 108/155/141
f 116/148/142 109/156/142 108/155/142
f 109/156/143 118/150/144 110/157/145
f 118/150/146 111/158/146 110/157/146
f 119/151/147 112/39/147 111/158/147
f 13/25/148 105/152/148 97/159/148
f 97/159/149 106/153/149 98/160/149
f 106/153/150 99/161/150 98/160/150
f 99/161/151 108/155/152 100/162/153
f 100/162/154 109/156/154 101/163/154
f 101/163/155 110/157/155 102/164/155
f 102/164/156 111/158/156 103/165/156
f 111/158/157 104/40/157 103/165/157
f 13/25/158 89/166/158 14/21/158
f 97/159/159 90/167/159 89/166/159
f 98/160/160 91/168/160 90/167/160
f 91/168/161 100/162/161 92/169/161
f 100/162/162 93/170/162 92/169/162
f 101/163/163 94/171/163 93/170/163
f 102/164/164 95/172/164 94/171/164
f 95/172/165 104/40/165 96/37/165
f 14/21/166 81/173/166 15/18/166
f 89/166/167 82/174/168 81/173/169
f 90/167/170 83/175/170 82/174/170
f 83/175/171 92/169/171 84/176/171
f 84/176/172 93/170/172 85/177/172
f 85/177/173 94/171/173 86/178/173
f 86/178/174 95/172/174 87/179/174
f 87/179/175 96/37/175 88/35/175
f 15/18/176 73/180/177 16/19/178
f 81/173/179 74/181/179 73/180/179
f 74/181/180 83/175/180 75/182/180
f 75/182/181 84/176/181 76/183/181
f 84/176/182 77/184/183 76/183/184
f 85/177/185 78/185/185 77/184/185
f 78/185/186 87/179/186 79/186/186
f 87/179/187 80/31/187 79/186/187
f 2/16/188 73/180/188 72/187/188
f 73/180/189 71/188/189 72/187/189
f 74/181/190 70/189/190 71/188/190
f 70/189/191 76/183/191 69/190/191
f 69/190/192 77/184/192 68/191/192
f 77/184/193 67/192/193 68/191/193
f 78/185/194 66/193/194 67/192/194
f 66/193/195 80/31/195 65/32/195
f 9/14/196 49/194/196 129/132/196
f 49/194/197 130/134/197 129/132/197
f 130/134/198 51/195/198 131/137/198
f 51/195/199 132/196/199 131/137/199
f 132/196/200 53/197/200 133/139/200
f 53/197/201 134/141/201 133/139/201
f 134/141/202 55/198/202 135/144/202
f 135/144/203 56/1/203 136/12/203
f 2/16/204 41/199/204 6/200/204
f 72/187/205 42/201/205 41/199/205
f 71/188/206 43/202/206 42/201/206
f 70/189/207 44/203/207 43/202/207
f 69/190/208 45/204/208 44/203/208
f 45/204/209 67/192/210 46/205/211
f 46/205/212 66/193/212 47/206/212
f 66/193/213 48/9/213 47/206/213
f 7/207/214 193/63/214 24/208/214
f 57/209/215 194/65/215 193/63/215
f 58/210/216 195/67/216 194/65/216
f 195/67/217 60/211/217 196/70/217
f 60/211/218 197/72/218 196/70/218
f 61/212/219 198/213/219 197/72/219
f 198/213/220 63/214/220 199/74/220
f 199/74/221 64/6/221 200/8/221
f 1/13/222 64/215/222 49/194/222
f 49/194/223 63/216/223 50/217/223
f 63/216/224 51/195/224 50/217/224
f 62/218/225 52/219/225 51/195/225
f 61/220/226 53/197/226 52/219/226
f 53/197/227 59/221/227 54/222/227
f 59/221/228 55/198/228 54/222/228
f 55/198/229 57/223/229 56/1/229
f 56/1/230 57/223/230 7/2/230
f 3/3/231 7/224/231 24/4/231
f 64/6/232 5/225/232 33/7/232
f 48/9/233 65/32/233 4/10/233
f 136/12/234 56/1/234 3/3/234
f 33/7/235 5/225/235 1/13/235
f 40/15/236 16/19/236 2/16/236
f 40/15/237 39/20/237 15/18/237
f 39/20/238 38/23/238 14/21/238
f 37/22/239 13/25/239 14/21/239
f 36/24/240 12/27/240 13/25/240
f 36/24/241 35/29/241 11/26/241
f 34/28/242 10/30/242 11/26/242
f 34/28/243 33/7/243 9/14/243
f 80/31/244 32/34/244 4/10/244
f 80/31/245 88/35/245 31/33/245
f 88/35/246 96/37/246 30/36/246
f 96/37/247 104/40/247 29/38/247
f 112/39/248 28/42/248 29/38/248
f 120/41/249 27/44/249 28/42/249
f 128/43/250 26/45/250 27/44/250
f 136/12/251 25/5/251 26/45/251
f 41/46/252 144/47/252 40/15/252
f 144/47/253 152/49/253 39/20/253
f 160/48/254 38/23/254 39/20/254
f 160/48/255 168/50/255 37/22/255
f 168/50/256 176/51/257 36/24/258
f 176/51/259 184/53/259 35/29/259
f 192/52/260 34/28/260 35/29/260
f 192/52/261 200/8/262 33/7/263
f 4/10/31 32/34/264 17/54/32
f 32/34/265 31/33/265 18/56/265
f 30/36/266 19/57/266 18/56/266
f 29/38/267 20/59/267 19/57/267
f 29/38/268 28/42/268 21/58/268
f 27/44/269 22/61/269 21/58/269
f 27/44/39 26/45/270 23/60/40
f 26/45/271 25/5/271 24/4/271
f 23/62/272 24/208/272 193/63/272
f 185/64/273 193/63/273 194/65/273
f 186/66/274 194/65/274 195/67/274
f 195/67/275 196/70/275 188/69/275
f 196/70/276 197/72/276 189/71/276
f 197/72/277 198/213/277 190/73/277
f 190/73/278 198/213/278 199/74/278
f 199/74/279 200/8/262 192/52/261
f 23/62/51 185/64/280 177/76/52
f 177/76/281 185/64/281 186/66/281
f 178/78/55 186/66/282 187/68/56
f 187/68/283 188/69/283 180/80/283
f 180/80/284 188/69/284 189/71/284
f 189/71/285 190/73/285 182/82/285
f 182/82/61 190/73/286 191/75/62
f 183/83/287 191/75/287 192/52/287
f 22/77/288 177/76/288 169/84/288
f 169/84/289 177/76/289 178/78/289
f 170/86/290 178/78/290 179/79/290
f 171/87/291 179/79/291 180/80/291
f 172/88/292 180/80/292 181/81/292
f 173/89/293 181/81/293 182/82/293
f 174/90/294 182/82/294 183/83/294
f 183/83/295 184/53/295 176/51/295
f 21/85/296 169/84/297 161/92/298
f 161/92/298 169/84/297 170/86/299
f 162/94/300 170/86/300 171/87/300
f 163/95/301 171/87/301 172/88/301
f 172/88/302 173/89/302 165/97/302
f 173/89/303 174/90/303 166/98/303
f 174/90/304 175/91/304 167/99/304
f 175/91/305 176/51/257 168/50/256
f 19/100/306 20/93/306 161/92/306
f 161/92/307 162/94/307 154/102/307
f 162/94/308 163/95/308 155/103/308
f 155/103/309 163/95/309 164/96/309
f 164/96/310 165/97/310 157/105/310
f 157/105/311 165/97/311 166/98/311
f 166/98/81 167/99/80 159/107/312
f 167/99/313 168/50/313 160/48/313
f 18/108/314 19/100/314 153/101/314
f 153/101/315 154/102/315 146/110/315
f 154/102/316 155/103/316 147/111/316
f 155/103/317 156/104/317 148/112/317
f 148/112/318 156/104/318 157/105/318
f 149/113/98 157/105/88 158/106/90
f 150/114/319 158/106/319 159/107/319
f 151/115/320 159/107/320 160/48/320
f 18/108/321 145/109/321 137/116/321
f 137/116/322 145/109/322 146/110/322
f 138/118/323 146/110/323 147/111/323
f 139/119/324 147/111/324 148/112/324
f 140/120/325 148/112/325 149/113/325
f 149/113/326 150/114/326 142/122/326
f 150/114/327 151/115/327 143/123/327
f 151/115/328 152/49/328 144/47/328
f 17/117/329 137/116/329 48/124/329
f 48/124/111 137/116/330 138/118/112
f 138/118/331 139/119/331 46/127/331
f 139/119/332 140/120/332 45/128/332
f 45/128/333 140/120/333 141/121/333
f 44/129/334 141/121/334 142/122/334
f 142/122/335 143/123/335 42/131/335
f 42/131/336 143/123/336 144/47/336
f 10/30/337 9/14/337 129/132/337
f 121/133/338 129/132/338 130/134/338
f 130/134/339 131/137/339 123/136/339
f 131/137/340 132/196/340 124/138/340
f 124/138/341 132/196/341 133/139/341
f 125/140/342 133/139/342 134/141/342
f 134/141/343 135/144/343 127/143/343
f 135/144/344 136/12/344 128/43/344
f 11/26/345 10/30/345 121/133/345
f 113/145/346 121/133/121 122/135/123
f 122/135/347 123/136/347 115/147/347
f 115/147/348 123/136/348 124/138/348
f 124/138/349 125/140/349 117/149/349
f 117/149/350 125/140/350 126/142/350
f 118/150/351 126/142/351 127/143/351
f 119/151/352 127/143/352 128/43/352
f 11/26/353 113/145/353 105/152/353
f 113/145/354 114/146/354 106/153/354
f 114/146/355 115/147/355 107/154/355
f 107/154/356 115/147/356 116/148/356
f 116/148/357 117/149/357 109/156/357
f 109/156/143 117/149/358 118/150/144
f 118/150/359 119/151/359 111/158/359
f 119/151/360 120/41/360 112/39/360
f 13/25/361 12/27/361 105/152/361
f 97/159/362 105/152/362 106/153/362
f 106/153/363 107/154/363 99/161/363
f 99/161/364 107/154/364 108/155/364
f 100/162/365 108/155/365 109/156/365
f 101/163/366 109/156/366 110/157/366
f 102/164/367 110/157/367 111/158/367
f 111/158/368 112/39/368 104/40/368
f 13/25/369 97/159/369 89/166/369
f 97/159/370 98/160/370 90/167/370
f 98/160/371 99/161/371 91/168/371
f 91/168/372 99/161/151 100/162/153
f 100/162/373 101/163/373 93/170/373
f 101/163/374 102/164/374 94/171/374
f 102/164/375 103/165/375 95/172/375
f 95/172/376 103/165/376 104/40/376
f 14/21/377 89/166/377 81/173/377
f 89/166/378 90/167/378 82/174/378
f 90/167/379 91/168/379 83/175/379
f 83/175/380 91/168/380 92/169/380
f 84/176/381 92/169/381 93/170/381
f 85/177/382 93/170/382 94/171/382
f 86/178/383 94/171/383 95/172/383
f 87/179/384 95/172/384 96/37/384
f 15/18/385 81/173/385 73/180/385
f 81/173/169 82/174/168 74/181/386
f 74/181/387 82/174/387 83/175/387
f 75/182/388 83/175/388 84/176/388
f 84/176/182 85/177/389 77/184/183
f 85/177/390 86/178/390 78/185/390
f 78/185/391 86/178/391 87/179/391
f 87/179/392 88/35/392 80/31/392
f 2/16/393 16/19/178 73/180/177
f 73/180/394 74/181/394 71/188/394
f 74/181/395 75/182/395 70/189/395
f 70/189/396 75/182/396 76/183/396
f 69/190/397 76/183/397 77/184/397
f 77/184/398 78/185/398 67/192/398
f 78/185/399 79/186/399 66/193/399
f 66/193/400 79/186/400 80/31/400
f 9/14/401 1/13/401 49/194/401
f 49/194/402 50/217/402 130/134/402
f 130/134/403 50/217/403 51/195/403
f 51/195/404 52/219/404 132/196/404
f 132/196/405 52/219/405 53/197/405
f 53/197/406 54/222/406 134/141/406
f 134/141/407 54/222/407 55/198/407
f 135/144/408 55/198/408 56/1/408
f 2/16/409 72/187/409 41/199/409
f 72/187/410 71/188/410 42/201/410
f 71/188/411 70/189/411 43/202/411
f 70/189/412 69/190/412 44/203/412
f 69/190/413 68/191/413 45/204/413
f 45/204/414 68/191/414 67/192/414
f 46/205/211 67/192/210 66/193/415
f 66/193/416 65/32/416 48/9/416
f 7/207/417 57/209/417 193/63/417
f 57/209/418 58/210/418 194/65/418
f 58/210/419 59/226/419 195/67/419
f 195/67/420 59/226/420 60/211/420
f 60/211/421 61/212/421 197/72/421
f 61/212/422 62/227/422 198/213/422
f 198/213/423 62/227/423 63/214/423
f 199/74/424 63/214/424 64/6/424
f 1/13/425 5/228/425 64/215/425
f 49/194/426 64/215/426 63/216/426
f 63/216/427 62/218/427 51/195/427
f 62/218/428 61/220/428 52/219/428
f 61/220/429 60/229/429 53/197/429
f 53/197/430 60/229/430 59/221/430
f 59/221/431 58/230/431 55/198/431
f 55/198/432 58/230/432 57/223/432
