# Blender 4.4.1
# www.blender.org
mtllib BossEgg.mtl
o 球.004
v -0.131383 1.784877 -1.333987
v -0.011650 1.017574 -1.500361
v 0.158892 0.492912 -1.465252
v -0.087561 2.903898 -0.288646
v 0.078195 2.566165 -0.831079
v 0.166514 2.183130 -1.134978
v 0.427219 0.844629 -1.446202
v 0.074153 0.032104 -1.323368
v -0.171003 -0.648195 -0.563722
v 0.116237 -0.729084 -0.280621
v 0.591528 1.978727 -1.101033
v 0.380466 1.461442 -1.384464
v 0.403036 0.188989 -1.328635
v 0.190207 2.902158 -0.231767
v 0.232276 2.769225 -0.532083
v 0.468021 2.442371 -0.839389
v 0.714965 1.385236 -1.265176
v 0.744005 0.653169 -1.307210
v 0.658855 0.015359 -1.143182
v 0.323189 -0.432568 -0.890159
v 0.665236 -0.430230 -0.675419
v 0.528800 2.780995 -0.225040
v 1.019246 1.840312 -0.836473
v 1.163309 1.070396 -0.954702
v 1.143861 0.505573 -0.938742
v 1.033892 0.034560 -0.833614
v 0.749658 2.483058 -0.549678
v 1.322827 1.615961 -0.426747
v 1.035448 -0.224798 -0.511705
v 0.404663 -0.647527 -0.411475
v 1.121271 2.149586 -0.323841
v 1.435630 1.064738 -0.456945
v 1.375419 0.317126 -0.429634
v 0.824152 2.572119 -0.081172
v 1.442088 1.423662 0.143392
v 1.496678 0.875376 -0.162963
v 1.168824 -0.201835 -0.109220
v 0.825516 -0.504089 -0.142958
v 0.783025 2.564751 0.308541
v 1.238879 1.988339 0.132390
v 1.494051 0.662632 0.150913
v 1.386033 0.189047 0.112009
v 1.042249 2.310319 0.212487
v 1.406098 0.492912 0.441698
v 1.268277 0.028211 0.381093
v 0.300979 2.903833 0.038420
v 1.091852 1.977479 0.608463
v 1.286571 1.475688 0.631377
v 1.334980 0.875375 0.696011
v 1.092399 -0.083679 0.608767
v 0.905379 -0.408777 0.357946
v 0.179299 -0.755252 0.017660
v 0.517857 2.771794 0.272205
v 1.132807 1.222266 0.950015
v 1.158415 0.662632 0.955530
v 1.090215 0.189047 0.863171
v 0.553768 -0.653238 0.167984
v 0.682018 2.455209 0.668012
v 0.402368 2.310319 0.984650
v 0.870552 1.825120 0.997752
v 0.823619 1.051613 1.254282
v 0.923734 0.492911 1.148444
v 0.764122 -0.228385 0.857340
v 0.577497 -0.504089 0.606968
v 0.050684 2.905312 0.300977
v 0.613532 1.782688 1.190332
v 0.550905 1.037562 1.395622
v 0.664084 0.292108 1.270878
v 0.570084 -0.083679 1.113075
v 0.215708 2.771472 0.535950
v 0.178179 1.836829 1.308186
v 0.223812 -0.402864 0.955922
v 0.122894 1.038410 1.502460
v 0.146102 0.505083 1.470369
v 0.135410 0.044296 1.327769
v 0.090673 2.586458 0.822122
v -0.371538 1.988340 1.189246
v -0.122514 1.630614 1.379079
v -0.179297 -0.500741 0.822689
v -0.174774 2.774345 0.552506
v -0.193711 2.318554 1.037888
v -0.552609 1.420839 1.332982
v -0.401004 0.999980 1.451195
v -0.439605 0.518268 1.414101
v -0.383012 0.044296 1.278518
v 0.042908 -0.649037 0.582843
v -0.382998 -0.319750 0.993868
v 0.000000 2.948725 0.000001
v -0.447494 2.570099 0.707191
v -0.840895 1.813613 1.029778
v -0.966963 1.023108 1.159538
v -0.904927 0.317125 1.121370
v -0.810185 -0.083679 0.952644
v 0.000000 -0.732227 0.303574
v -0.733837 2.308285 0.771286
v -1.263222 1.408721 0.715023
v -1.149183 0.018626 0.652151
v -0.812529 -0.318153 0.679624
v -1.112518 1.977479 0.569799
v -1.328858 0.891788 0.710290
v -1.310768 0.518267 0.689073
v -0.636188 -0.519697 0.522107
v -0.514264 2.774345 0.267097
v -1.018715 2.299336 0.309024
v -1.322827 1.615961 0.426748
v -1.500415 1.038311 0.147820
v -1.323391 0.189048 0.426930
v -0.924076 -0.429774 0.224826
v -0.487085 -0.648533 0.310427
v -0.792487 2.580094 0.265000
v -1.308463 1.847018 0.092161
v -1.472300 0.505688 0.118980
v -1.313933 0.019759 0.091010
v -1.130257 2.186211 -0.170308
v -1.446202 0.844630 -0.427219
v -0.884753 2.318554 -0.576149
v -1.386403 1.423665 -0.421973
v -1.382310 0.317124 -0.406914
v -1.190229 -0.090691 -0.372487
v -1.040439 -0.328383 -0.191930
v -0.299561 2.910669 0.050121
v -0.552238 2.775826 -0.161717
v -1.101032 1.978728 -0.591528
v -1.165027 0.860102 -0.956090
v -1.212686 0.331512 -0.775603
v -0.775802 -0.505039 -0.313620
v -0.550448 -0.644474 -0.172020
v -0.747343 2.574724 -0.391171
v -1.119387 1.423665 -0.920406
v -0.901275 -0.193170 -0.760869
v -0.222078 2.780533 -0.536142
v -0.725111 2.178010 -0.892159
v -0.937350 0.329890 -1.100891
v -0.569798 1.977480 -1.112517
v -0.718970 1.475690 -1.239750
v -0.723312 0.875375 -1.320385
v -0.563750 -0.235517 -0.995351
v -0.470817 -0.505039 -0.691778
v -0.285048 -0.736269 -0.086468
v -0.315633 2.581428 -0.762002
v -0.311545 2.300181 -1.015775
v -0.386567 1.091811 -1.448748
v -0.420115 0.518266 -1.420011
v -0.391844 0.044297 -1.275838
v -0.102761 -0.418637 -0.953118
vn 0.0426 -0.4788 -0.8769
vn 0.0877 -0.1828 -0.9792
vn 0.2809 -0.3497 -0.8938
vn 0.2089 -0.7662 -0.6077
vn -0.0620 -0.7540 -0.6539
vn -0.0932 0.3456 -0.9337
vn 0.1186 0.5167 -0.8479
vn 0.2316 0.2417 -0.9423
vn -0.0031 0.0643 -0.9979
vn -0.2108 0.8539 -0.4758
vn -0.1032 0.9523 -0.2872
vn 0.2195 0.8435 -0.4903
vn 0.2792 -0.0069 -0.9602
vn 0.5057 -0.1106 -0.8556
vn 0.0577 0.7190 -0.6926
vn 0.3865 0.6420 -0.6622
vn 0.4436 -0.4802 -0.7568
vn -0.1021 -0.9219 -0.3737
vn 0.2746 -0.9210 -0.2763
vn 0.0005 1.0000 0.0018
vn 0.1918 0.9510 -0.2426
vn 0.4387 0.4350 -0.7863
vn 0.5087 0.2010 -0.8371
vn 0.4552 -0.7660 -0.4539
vn 0.4866 0.8488 -0.2066
vn 0.7134 0.3777 -0.5902
vn 0.6894 -0.4545 -0.5641
vn 0.6972 -0.6314 -0.3394
vn 0.7639 -0.1750 -0.6212
vn 0.9163 -0.2789 -0.2874
vn 0.5478 -0.8302 -0.1035
vn 0.1305 -0.9913 0.0143
vn 0.0716 -0.9759 -0.2062
vn 0.3070 0.9503 0.0520
vn 0.3611 -0.9257 0.1124
vn 0.6883 0.7218 -0.0725
vn 0.6029 0.6619 -0.4454
vn 0.7877 -0.6123 -0.0675
vn 0.7969 0.5804 0.1673
vn 0.8289 0.5043 -0.2421
vn 0.9946 -0.0051 -0.1034
vn 0.9918 -0.0825 0.0974
vn 0.9717 0.2163 0.0947
vn 0.4641 0.8513 0.2449
vn 0.9342 -0.3545 0.0410
vn 0.8453 -0.4680 0.2576
vn 0.6153 -0.7534 0.2319
vn 0.9049 0.4163 0.0888
vn 0.7869 0.4370 0.4356
vn 0.9279 -0.1848 0.3237
vn 0.9029 0.0120 0.4298
vn 0.7736 -0.0985 0.6259
vn 0.6526 0.7148 0.2515
vn 0.5400 0.6507 0.5338
vn 0.7219 -0.5516 0.4179
vn 0.5148 -0.6336 0.5775
vn 0.6253 0.3713 0.6864
vn 0.8757 0.2427 0.4175
vn -0.0027 -0.9789 0.2042
vn 0.7474 0.1532 0.6465
vn 0.0445 0.9540 0.2966
vn 0.7303 -0.3605 0.5803
vn 0.2236 0.8419 0.4911
vn 0.6034 -0.1736 0.7783
vn 0.4350 -0.2886 0.8530
vn 0.3681 -0.8346 0.4099
vn 0.0365 -0.9218 0.3858
vn 0.5549 0.0744 0.8286
vn 0.3015 0.5799 0.7568
vn 0.4151 0.3377 0.8447
vn 0.3541 0.0650 0.9330
vn 0.0826 0.7244 0.6844
vn 0.3865 -0.5401 0.7476
vn 0.1453 -0.7455 0.6505
vn 0.1277 0.3772 0.9173
vn -0.1708 0.8524 0.4942
vn -0.1481 0.5841 0.7980
vn -0.2760 0.4411 0.8540
vn 0.0769 0.0732 0.9944
vn -0.0927 0.2861 0.9537
vn -0.2669 0.0428 0.9628
vn -0.3811 0.2215 0.8976
vn -0.3715 0.7203 0.5858
vn -0.2914 -0.1653 0.9422
vn -0.6081 -0.2616 0.7495
vn -0.2466 -0.4503 0.8582
vn -0.5345 -0.5414 0.6491
vn -0.5601 0.5788 0.5927
vn -0.1338 -0.8280 0.5446
vn -0.2485 -0.6963 0.6734
vn -0.4057 -0.8353 0.3711
vn -0.5934 0.3629 0.7185
vn -0.6389 0.0506 0.7676
vn -0.2905 0.9554 0.0531
vn -0.4583 0.8504 0.2584
vn -0.5513 -0.6964 0.4594
vn -0.7961 0.4361 0.4196
vn -0.3100 -0.9287 0.2033
vn -0.1847 -0.9812 -0.0558
vn -0.6610 0.7221 0.2038
vn -0.8688 -0.1581 0.4693
vn -0.8953 -0.3506 0.2749
vn -0.7606 -0.4818 0.4352
vn -0.7854 0.5736 0.2327
vn -0.6288 -0.7635 0.1475
vn -0.9195 0.2826 0.2732
vn -0.8442 0.2060 0.4949
vn -0.9272 0.3711 0.0505
vn -0.9924 0.0727 0.0995
vn -0.8741 -0.4822 0.0587
vn -0.5069 0.8487 -0.1507
vn -0.9832 -0.1651 0.0785
vn -0.8381 0.5319 -0.1214
vn -0.6958 -0.7071 -0.1260
vn -0.3821 -0.9167 -0.1166
vn -0.5171 -0.8258 -0.2249
vn -0.9250 -0.2770 -0.2602
vn -0.6108 0.7268 -0.3142
vn -0.7997 -0.5374 -0.2677
vn -0.6719 0.5901 -0.4476
vn -0.8009 0.4142 -0.4325
vn -0.7530 0.2181 -0.6208
vn -0.9353 0.2198 -0.2774
vn -0.6123 -0.6063 -0.5073
vn -0.7759 0.0042 -0.6308
vn -0.6085 -0.2830 -0.7414
vn -0.8105 -0.2781 -0.5155
vn -0.5473 0.5161 -0.6589
vn -0.3361 -0.8261 -0.4524
vn -0.2901 0.7179 -0.6328
vn -0.3812 -0.6326 -0.6742
vn -0.2242 0.5765 -0.7858
vn -0.5073 -0.0024 -0.8618
vn -0.2697 -0.1795 -0.9461
vn -0.2643 -0.4490 -0.8536
vn -0.4175 0.4079 -0.8120
vn -0.4916 0.2470 -0.8351
vn -0.2499 0.1032 -0.9628
vn 0.9110 0.2911 -0.2922
vn 0.7696 0.0894 -0.6322
vn 0.9440 0.0816 -0.3198
vn 0.0948 -0.1718 0.9806
vn 0.0763 -0.4612 0.8840
vn -0.8839 0.0047 0.4676
vn -0.9571 -0.0082 -0.2897
vt 0.262480 0.319583
vt 0.335333 0.325767
vt 0.288614 0.348084
vt 0.168425 0.354758
vt 0.171739 0.300988
vt 0.496726 0.300835
vt 0.551838 0.328874
vt 0.457199 0.343075
vt 0.401626 0.312746
vt 0.839206 0.228555
vt 0.893487 0.241944
vt 0.839461 0.339329
vt 0.382152 0.346995
vt 0.353552 0.375060
vt 0.785110 0.295752
vt 0.759319 0.351266
vt 0.259427 0.375916
vt 0.101373 0.278355
vt 0.101666 0.405821
vt 0.947925 0.323018
vt 0.893799 0.377192
vt 0.522518 0.371185
vt 0.446331 0.375442
vt 0.170194 0.407933
vt 0.839702 0.443708
vt 0.502596 0.417823
vt 0.264128 0.418875
vt 0.215090 0.445532
vt 0.335545 0.418131
vt 0.309121 0.464281
vt 0.148607 0.479992
vt 0.035689 0.483271
vt 0.054791 0.360478
vt 0.948174 0.431162
vt 0.894120 0.516418
vt 0.101964 0.535575
vt 0.785548 0.485607
vt 0.764584 0.413399
vt 0.219035 0.488951
vt 0.616327 0.487641
vt 0.569638 0.523318
vt 0.548322 0.465027
vt 0.382474 0.486948
vt 0.357750 0.510924
vt 0.453747 0.511592
vt 0.839983 0.565599
vt 0.288986 0.509680
vt 0.263242 0.534016
vt 0.177005 0.542493
vt 0.522843 0.512228
vt 0.522953 0.560108
vt 0.335817 0.536233
vt 0.382635 0.557103
vt 0.357911 0.581079
vt 0.616456 0.544093
vt 0.594674 0.593504
vt 0.242333 0.560754
vt 0.213943 0.599643
vt 0.503961 0.600858
vt 0.458035 0.552929
vt 0.055544 0.687981
vt 0.429465 0.582886
vt 0.948548 0.593378
vt 0.894526 0.692500
vt 0.760432 0.607998
vt 0.785698 0.550873
vt 0.289147 0.579835
vt 0.840207 0.662544
vt 0.335978 0.606388
vt 0.303901 0.630887
vt 0.148876 0.596917
vt 0.102293 0.678685
vt 0.406553 0.616741
vt 0.569907 0.640364
vt 0.495291 0.632287
vt 0.404864 0.640130
vt 0.786043 0.700359
vt 0.242494 0.630909
vt 0.177422 0.658483
vt 0.504578 0.670475
vt 0.840426 0.757487
vt 0.616754 0.673392
vt 0.570064 0.708578
vt 0.523327 0.722693
vt 0.402898 0.676218
vt 0.476498 0.697288
vt 0.399620 0.717837
vt 0.452654 0.733561
vt 0.786257 0.793150
vt 0.336246 0.722962
vt 0.309820 0.768286
vt 0.266026 0.722303
vt 0.242817 0.771219
vt 0.616938 0.753653
vt 0.570222 0.777073
vt 0.149142 0.712988
vt 0.195955 0.731173
vt 0.149326 0.792702
vt 0.501474 0.768654
vt 0.404269 0.769221
vt 0.948985 0.782630
vt 0.894979 0.888682
vt 0.840675 0.865594
vt 0.196093 0.791501
vt 0.523544 0.817343
vt 0.102589 0.807102
vt 0.055906 0.845389
vt 0.009016 0.793044
vt 0.786475 0.887406
vt 0.336461 0.816502
vt 0.289738 0.837070
vt 0.261218 0.812549
vt 0.617126 0.835179
vt 0.570363 0.838523
vt 0.172959 0.849989
vt 0.476818 0.836640
vt 0.449117 0.811335
vt 0.508010 0.866868
vt 0.405537 0.861277
vt 0.259771 0.867712
vt 0.840827 0.931577
vt 0.336572 0.864547
vt 0.570444 0.873601
vt 0.196284 0.874461
vt 0.102744 0.874676
vt 0.194613 0.147922
vt 0.147899 0.172065
vt 0.147793 0.126249
vt 0.334873 0.125819
vt 0.308422 0.160276
vt 0.258065 0.125995
vt 0.838922 0.105623
vt 0.784734 0.132904
vt 0.784581 0.066548
vt 0.241416 0.162158
vt 0.615625 0.182569
vt 0.568881 0.194045
vt 0.551892 0.142132
vt 0.522088 0.184105
vt 0.451178 0.207473
vt 0.451071 0.160703
vt 0.220897 0.208452
vt 0.381831 0.207557
vt 0.309685 0.229921
vt 0.309457 0.196032
vt 0.549858 0.232694
vt 0.148060 0.242220
vt 0.893184 0.110506
vt 0.947550 0.160801
vt 0.784955 0.228722
vt 0.211786 0.249776
vt 0.615816 0.265447
vt 0.569072 0.276916
vt 0.381936 0.253098
vt 0.335225 0.278647
vt 0.054377 0.180394
vt 0.007833 0.278574
vt 0.265004 0.277988
vt 0.522254 0.256103
vt 0.458588 0.248592
vt 0.410097 0.283030
vt 0.615949 0.323425
vt 0.593715 0.371442
vt 0.598254 0.425185
vt 0.475958 0.462480
vt 0.408225 0.417964
vt 0.409186 0.460935
vt 0.336137 0.675263
vt 0.265918 0.675533
vt 0.383229 0.815569
vt 0.381722 0.159915
vt 0.406069 0.125655
vt 0.506305 0.125425
vt 0.101106 0.162452
vt 0.615493 0.125173
s 1
usemtl マテリアル.002
f 8/1/1 3/2/2 13/3/3
f 8/1/1 20/4/4 145/5/5
f 1/6/6 6/7/7 12/8/8
f 1/6/6 12/8/8 2/9/9
f 131/10/10 4/11/11 15/12/12
f 7/13/13 18/14/14 3/2/2
f 5/15/15 15/12/12 16/16/16
f 13/3/3 19/17/17 8/1/1
f 9/18/18 20/4/4 30/19/19
f 4/11/11 88/20/20 14/21/21
f 11/22/22 17/23/23 12/8/8
f 17/23/23 18/14/14 7/13/13
f 18/14/14 19/17/17 13/3/3
f 20/4/4 19/17/17 21/24/24
f 14/21/21 22/25/25 15/12/12
f 11/22/22 23/26/26 17/23/23
f 26/27/27 29/28/28 21/24/24
f 25/29/29 33/30/30 26/27/27
f 26/27/27 33/30/30 29/28/28
f 25/29/29 19/17/17 18/14/14
f 21/24/24 29/28/28 38/31/31
f 30/19/19 52/32/32 10/33/33
f 14/21/21 88/34/20 46/35/34
f 38/31/31 57/36/35 30/19/19
f 22/25/25 34/37/36 27/38/37
f 29/28/28 33/30/30 37/39/38
f 34/40/36 43/41/39 31/42/40
f 36/43/41 41/44/42 33/30/30
f 35/45/43 41/44/42 36/43/41
f 46/35/34 53/46/44 22/25/25
f 37/39/38 42/47/45 45/48/46
f 37/39/38 45/48/46 51/49/47
f 40/50/48 43/41/39 47/51/49
f 44/52/50 45/48/46 42/47/45
f 49/53/51 55/54/52 44/52/50
f 39/55/53 58/56/54 43/41/39
f 50/57/55 63/58/56 51/49/47
f 47/51/49 58/56/54 60/59/57
f 47/51/49 60/59/57 48/60/58
f 52/32/32 57/36/35 94/61/59
f 54/62/60 55/54/52 49/53/51
f 46/35/34 88/63/20 65/64/61
f 53/46/44 58/65/54 39/66/53
f 50/57/55 56/67/62 63/58/56
f 65/64/61 70/68/63 53/46/44
f 62/69/64 68/70/65 56/67/62
f 57/36/35 64/71/66 86/72/67
f 54/62/60 61/73/68 55/54/52
f 59/74/69 66/75/70 60/59/57
f 61/73/68 66/75/70 67/76/71
f 70/68/63 76/77/72 58/65/54
f 69/78/73 72/79/74 63/58/56
f 59/74/69 71/80/75 66/75/70
f 65/64/61 80/81/76 70/68/63
f 76/82/72 81/83/77 59/74/69
f 81/83/77 77/84/78 71/80/75
f 73/85/79 78/86/80 83/87/81
f 77/84/78 82/88/82 78/86/80
f 80/81/76 89/89/83 76/77/72
f 84/90/84 92/91/85 85/92/86
f 85/92/86 92/91/85 93/93/87
f 89/94/83 95/95/88 81/83/77
f 79/96/89 87/97/90 102/98/91
f 77/84/78 90/99/92 82/88/82
f 82/88/82 90/99/92 91/100/93
f 82/88/82 91/100/93 83/87/81
f 65/64/61 88/101/20 121/102/94
f 121/102/94 103/103/95 80/81/76
f 93/93/87 98/104/96 87/97/90
f 90/99/92 95/95/88 99/105/97
f 109/106/98 139/107/99 94/61/59
f 52/108/32 94/61/59 139/107/99
f 103/103/95 110/109/100 89/89/83
f 101/110/101 107/111/102 97/112/103
f 110/113/100 104/114/104 95/95/88
f 97/112/103 108/115/105 98/104/96
f 99/105/97 105/116/106 96/117/107
f 99/105/97 104/114/104 111/118/108
f 96/117/107 105/116/106 106/119/109
f 97/112/103 107/111/102 113/120/110
f 121/102/94 122/121/111 103/103/95
f 112/122/112 113/120/110 107/111/102
f 104/114/104 110/113/100 114/123/113
f 113/120/110 120/124/114 108/115/105
f 109/106/98 108/115/105 127/125/115
f 120/126/114 126/127/116 108/128/105
f 112/129/112 118/130/117 113/131/110
f 122/132/111 128/133/118 110/134/100
f 113/131/110 118/130/117 119/135/119
f 128/136/118 116/137/120 114/138/113
f 123/139/121 129/140/122 117/141/123
f 119/135/119 130/142/124 120/126/114
f 124/143/125 133/144/126 125/145/127
f 116/137/120 132/146/128 123/139/121
f 130/142/124 138/147/129 126/127/116
f 121/148/94 88/149/20 4/11/11
f 131/10/10 140/150/130 128/133/118
f 130/142/124 133/144/126 137/151/131
f 132/146/128 140/152/130 141/153/132
f 136/154/133 143/155/134 133/144/126
f 139/156/99 9/18/18 10/33/33
f 52/157/32 139/156/99 10/33/33
f 144/158/135 145/5/5 137/151/131
f 134/159/136 141/153/132 1/6/6
f 137/151/131 145/5/5 138/147/129
f 134/159/136 1/6/6 135/160/137
f 140/150/130 131/10/10 5/15/15
f 142/161/138 1/6/6 2/9/9
f 131/10/10 15/12/12 5/15/15
f 145/5/5 20/4/4 9/18/18
f 2/9/9 12/8/8 7/13/13
f 3/2/2 2/9/9 7/13/13
f 15/12/12 4/11/11 14/21/21
f 3/2/2 18/14/14 13/3/3
f 6/7/7 5/162/15 16/163/16
f 20/4/4 8/1/1 19/17/17
f 6/7/7 16/163/16 11/22/22
f 6/7/7 11/22/22 12/8/8
f 10/33/33 9/18/18 30/19/19
f 12/8/8 17/23/23 7/13/13
f 27/38/37 15/12/12 22/25/25
f 11/22/22 27/164/37 23/26/26
f 19/17/17 26/27/27 21/24/24
f 28/165/139 24/166/140 23/26/26
f 20/4/4 21/24/24 30/19/19
f 17/23/23 23/26/26 24/166/140
f 18/14/14 17/23/23 24/166/140
f 18/14/14 24/166/140 25/29/29
f 23/26/26 27/164/37 31/42/40
f 23/26/26 31/42/40 28/165/139
f 21/24/24 38/31/31 30/19/19
f 32/167/141 25/29/29 24/166/140
f 28/165/139 40/50/48 35/45/43
f 14/21/21 46/35/34 22/25/25
f 52/32/32 30/19/19 57/36/35
f 32/167/141 36/43/41 33/30/30
f 27/164/37 34/40/36 31/42/40
f 38/31/31 29/28/28 37/39/38
f 37/39/38 33/30/30 42/47/45
f 31/42/40 43/41/39 40/50/48
f 53/46/44 34/37/36 22/25/25
f 32/167/141 28/165/139 35/45/43
f 32/167/141 35/45/43 36/43/41
f 33/30/30 41/44/42 42/47/45
f 41/44/42 44/52/50 42/47/45
f 48/60/58 40/50/48 47/51/49
f 43/41/39 34/40/36 39/55/53
f 38/31/31 37/39/38 51/49/47
f 38/31/31 51/49/47 57/36/35
f 45/48/46 50/57/55 51/49/47
f 49/53/51 35/45/43 48/60/58
f 56/67/62 44/52/50 55/54/52
f 41/44/42 49/53/51 44/52/50
f 48/60/58 54/62/60 49/53/51
f 69/78/73 56/67/62 68/70/65
f 50/57/55 45/48/46 56/67/62
f 43/41/39 58/56/54 47/51/49
f 51/49/47 64/71/66 57/36/35
f 64/71/66 51/49/47 63/58/56
f 54/62/60 48/60/58 60/59/57
f 46/35/34 65/64/61 53/46/44
f 55/54/52 62/69/64 56/67/62
f 55/54/52 61/73/68 62/69/64
f 53/46/44 70/68/63 58/65/54
f 61/73/68 60/59/57 66/75/70
f 58/56/54 59/74/69 60/59/57
f 62/69/64 67/76/71 68/70/65
f 57/36/35 86/72/67 94/61/59
f 64/71/66 63/58/56 72/79/74
f 64/71/66 72/79/74 86/72/67
f 74/168/142 67/76/71 73/85/79
f 58/56/54 76/82/72 59/74/69
f 71/80/75 67/76/71 66/75/70
f 68/70/65 74/168/142 75/169/143
f 69/78/73 68/70/65 75/169/143
f 69/78/73 75/169/143 72/79/74
f 85/92/86 74/168/142 84/90/84
f 72/79/74 79/96/89 86/72/67
f 71/80/75 78/86/80 73/85/79
f 70/68/63 80/81/76 76/77/72
f 59/74/69 81/83/77 71/80/75
f 87/97/90 75/169/143 85/92/86
f 74/168/142 83/87/81 84/90/84
f 79/96/89 72/79/74 87/97/90
f 71/80/75 77/84/78 78/86/80
f 95/95/88 77/84/78 81/83/77
f 83/87/81 78/86/80 82/88/82
f 81/83/77 76/82/72 89/94/83
f 85/92/86 93/93/87 87/97/90
f 109/106/98 79/96/89 102/98/91
f 91/100/93 84/90/84 83/87/81
f 94/61/59 86/72/67 109/106/98
f 101/110/101 91/100/93 100/170/144
f 65/64/61 121/102/94 80/81/76
f 80/81/76 103/103/95 89/89/83
f 102/98/91 87/97/90 98/104/96
f 93/93/87 92/91/85 97/112/103
f 95/95/88 89/94/83 110/113/100
f 93/93/87 97/112/103 98/104/96
f 90/99/92 99/105/97 96/117/107
f 91/100/93 90/99/92 96/117/107
f 91/100/93 96/117/107 100/170/144
f 112/122/112 100/170/144 106/119/109
f 92/91/85 101/110/101 97/112/103
f 99/105/97 95/95/88 104/114/104
f 98/104/96 108/115/105 102/98/91
f 97/112/103 113/120/110 108/115/105
f 99/105/97 111/118/108 105/116/106
f 102/98/91 108/115/105 109/106/98
f 100/170/144 96/117/107 106/119/109
f 115/171/145 112/129/112 106/172/109
f 101/110/101 112/122/112 107/111/102
f 103/103/95 122/121/111 110/109/100
f 104/114/104 114/123/113 111/118/108
f 106/119/109 105/116/106 111/118/108
f 109/106/98 127/125/115 139/107/99
f 120/126/114 113/131/110 119/135/119
f 111/173/108 114/138/113 117/141/123
f 108/128/105 126/127/116 127/174/115
f 106/172/109 111/173/108 117/141/123
f 106/172/109 117/141/123 115/171/145
f 124/143/125 117/141/123 129/140/122
f 114/138/113 110/175/100 128/136/118
f 114/138/113 116/137/120 123/139/121
f 114/138/113 123/139/121 117/141/123
f 120/126/114 130/142/124 126/127/116
f 125/145/127 115/171/145 124/143/125
f 125/145/127 119/135/119 118/130/117
f 122/132/111 4/11/11 131/10/10
f 127/174/115 138/147/129 9/18/18
f 128/133/118 122/132/111 131/10/10
f 130/142/124 125/145/127 133/144/126
f 123/139/121 132/146/128 129/140/122
f 129/140/122 134/159/136 135/160/137
f 127/174/115 9/18/18 139/156/99
f 138/147/129 130/142/124 137/151/131
f 136/154/133 129/140/122 135/160/137
f 116/137/120 140/152/130 132/146/128
f 124/143/125 136/154/133 133/144/126
f 5/162/15 141/153/132 140/152/130
f 133/144/126 143/155/134 144/158/135
f 137/151/131 133/144/126 144/158/135
f 134/159/136 132/146/128 141/153/132
f 135/160/137 142/161/138 136/154/133
f 138/147/129 145/5/5 9/18/18
f 142/161/138 135/160/137 1/6/6
f 143/155/134 136/154/133 142/161/138
f 2/9/9 143/155/134 142/161/138
f 144/158/135 8/1/1 145/5/5
f 1/6/6 141/153/132 6/7/7
f 8/1/1 143/155/134 3/2/2
f 25/29/29 26/27/27 19/17/17
f 27/38/37 16/16/16 15/12/12
f 11/22/22 16/163/16 27/164/37
f 28/165/139 32/167/141 24/166/140
f 32/167/141 33/30/30 25/29/29
f 28/165/139 31/42/40 40/50/48
f 53/46/44 39/66/53 34/37/36
f 48/60/58 35/45/43 40/50/48
f 49/53/51 41/44/42 35/45/43
f 56/67/62 45/48/46 44/52/50
f 69/78/73 63/58/56 56/67/62
f 61/73/68 54/62/60 60/59/57
f 62/69/64 61/73/68 67/76/71
f 74/168/142 68/70/65 67/76/71
f 71/80/75 73/85/79 67/76/71
f 85/92/86 75/169/143 74/168/142
f 87/97/90 72/79/74 75/169/143
f 74/168/142 73/85/79 83/87/81
f 95/95/88 90/99/92 77/84/78
f 109/106/98 86/72/67 79/96/89
f 91/100/93 92/91/85 84/90/84
f 101/110/101 92/91/85 91/100/93
f 112/122/112 101/110/101 100/170/144
f 115/171/145 118/130/117 112/129/112
f 124/143/125 115/171/145 117/141/123
f 125/145/127 118/130/117 115/171/145
f 125/145/127 130/142/124 119/135/119
f 122/132/111 121/148/94 4/11/11
f 127/174/115 126/127/116 138/147/129
f 129/140/122 132/146/128 134/159/136
f 136/154/133 124/143/125 129/140/122
f 116/137/120 128/136/118 140/152/130
f 5/162/15 6/7/7 141/153/132
f 2/9/9 3/2/2 143/155/134
f 8/1/1 144/158/135 143/155/134
