# Blender 4.4.1
# www.blender.org
mtllib energyIcon.mtl
o 立方体
v -0.571779 -1.182521 0.242531
v -0.049946 -0.182521 0.500000
v -0.571779 -1.182521 -0.242531
v -0.049946 -0.182521 -0.500000
v -0.086718 -1.182521 0.242531
v 0.950054 -0.182521 0.500000
v -0.086718 -1.182521 -0.242531
v 0.950054 -0.182521 -0.500000
v -0.930268 0.172359 0.500000
v -0.930268 0.172359 -0.500000
v 0.069732 0.172359 -0.500000
v 0.069732 0.172359 0.500000
v 0.118075 1.045373 0.203701
v 0.118075 1.045373 -0.203701
v 0.525478 1.045373 -0.203701
v 0.525478 1.045373 0.203701
vn -0.8866 0.4626 -0.0000
vn -0.0000 -0.2493 -0.9684
vn 0.6942 -0.7198 -0.0000
vn -0.0000 -0.2493 0.9684
vn -0.0000 -1.0000 -0.0000
vn -0.3739 -0.9275 -0.0000
vn -0.0000 0.3214 -0.9469
vn -0.0000 -0.0000 1.0000
vn -0.0000 -0.0000 -1.0000
vn 0.3739 0.9275 -0.0000
vn -0.0000 1.0000 -0.0000
vn 0.8865 -0.4628 -0.0000
vn -0.6399 0.7684 -0.0000
vn -0.0000 0.3214 0.9469
vt 0.375000 0.000000
vt 0.625000 0.000000
vt 0.625000 0.250000
vt 0.375000 0.250000
vt 0.625000 0.500000
vt 0.375000 0.500000
vt 0.625000 0.750000
vt 0.375000 0.750000
vt 0.625000 1.000000
vt 0.375000 1.000000
vt 0.125000 0.500000
vt 0.125000 0.750000
vt 0.875000 0.500000
vt 0.875000 0.750000
s 0
usemtl マテリアル
f 1/1/1 2/2/1 4/3/1 3/4/1
f 3/4/2 4/3/2 8/5/2 7/6/2
f 7/6/3 8/5/3 6/7/3 5/8/3
f 5/8/4 6/7/4 2/9/4 1/10/4
f 3/11/5 7/6/5 5/8/5 1/12/5
f 4/3/6 2/2/6 9/2/6 10/3/6
f 11/5/7 10/3/7 14/3/7 15/5/7
f 2/9/8 6/7/8 12/7/8 9/9/8
f 8/5/9 4/3/9 10/3/9 11/5/9
f 6/7/10 8/5/10 11/5/10 12/7/10
f 15/5/11 14/13/11 13/14/11 16/7/11
f 12/7/12 11/5/12 15/5/12 16/7/12
f 10/3/13 9/2/13 13/2/13 14/3/13
f 9/9/14 12/7/14 16/7/14 13/9/14
