# Blender 5.2.1 LTS
# www.blender.org
mtllib unit2.mtl
o 円柱
v -0.180210 1.206066 0.725554
v -0.180210 1.206066 0.725554
v -0.180210 1.206066 0.725554
v -0.180210 1.206066 0.845783
v -0.180210 1.206066 0.845783
v -0.180210 1.206066 0.845783
v -0.160510 1.202573 0.725554
v -0.160510 1.202573 0.725554
v -0.160510 1.202573 0.725554
v -0.160510 1.202573 0.845783
v -0.160510 1.202573 0.845783
v -0.160510 1.202573 0.845783
v -0.141567 1.192229 0.725554
v -0.141567 1.192229 0.725554
v -0.141567 1.192229 0.725554
v -0.141567 1.192229 0.845783
v -0.141567 1.192229 0.845783
v -0.141567 1.192229 0.845783
v -0.124109 1.175430 0.725554
v -0.124109 1.175430 0.725554
v -0.124109 1.175430 0.725554
v -0.124109 1.175430 0.845783
v -0.124109 1.175430 0.845783
v -0.124109 1.175430 0.845783
v -0.108807 1.152824 0.725554
v -0.108807 1.152824 0.725554
v -0.108807 1.152824 0.725554
v -0.108807 1.152824 0.845783
v -0.108807 1.152824 0.845783
v -0.108807 1.152824 0.845783
v -0.096249 1.125277 0.725554
v -0.096249 1.125277 0.725554
v -0.096249 1.125277 0.725554
v -0.096249 1.125277 0.845783
v -0.096249 1.125277 0.845783
v -0.096249 1.125277 0.845783
v -0.086918 1.093850 0.725554
v -0.086918 1.093850 0.725554
v -0.086918 1.093850 0.725554
v -0.086918 1.093850 0.845783
v -0.086918 1.093850 0.845783
v -0.086918 1.093850 0.845783
v -0.081172 1.059749 0.725554
v -0.081172 1.059749 0.725554
v -0.081172 1.059749 0.725554
v -0.081172 1.059749 0.845783
v -0.081172 1.059749 0.845783
v -0.081172 1.059749 0.845783
v -0.079231 1.024286 0.725554
v -0.079231 1.024286 0.725554
v -0.079231 1.024286 0.725554
v -0.079231 1.024286 0.845783
v -0.079231 1.024286 0.845783
v -0.079231 1.024286 0.845783
v -0.081172 0.988822 0.725554
v -0.081172 0.988822 0.725554
v -0.081172 0.988822 0.725554
v -0.081172 0.988822 0.845783
v -0.081172 0.988822 0.845783
v -0.081172 0.988822 0.845783
v -0.086918 0.954721 0.725554
v -0.086918 0.954721 0.725554
v -0.086918 0.954721 0.725554
v -0.086918 0.954721 0.845783
v -0.086918 0.954721 0.845783
v -0.086918 0.954721 0.845783
v -0.096249 0.923294 0.725554
v -0.096249 0.923294 0.725554
v -0.096249 0.923294 0.725554
v -0.096249 0.923294 0.845783
v -0.096249 0.923294 0.845783
v -0.096249 0.923294 0.845783
v -0.108807 0.895747 0.725554
v -0.108807 0.895747 0.725554
v -0.108807 0.895747 0.725554
v -0.108807 0.895747 0.845783
v -0.108807 0.895747 0.845783
v -0.108807 0.895747 0.845783
v -0.124109 0.873141 0.725554
v -0.124109 0.873141 0.725554
v -0.124109 0.873141 0.725554
v -0.124109 0.873141 0.845783
v -0.124109 0.873141 0.845783
v -0.124109 0.873141 0.845783
v -0.141567 0.856342 0.725554
v -0.141567 0.856342 0.725554
v -0.141567 0.856342 0.725554
v -0.141567 0.856342 0.845783
v -0.141567 0.856342 0.845783
v -0.141567 0.856342 0.845783
v -0.160510 0.845998 0.725554
v -0.160510 0.845998 0.725554
v -0.160510 0.845998 0.725554
v -0.160510 0.845998 0.845783
v -0.160510 0.845998 0.845783
v -0.160510 0.845998 0.845783
v -0.180210 0.842505 0.725554
v -0.180210 0.842505 0.725554
v -0.180210 0.842505 0.725554
v -0.180210 0.842505 0.845783
v -0.180210 0.842505 0.845783
v -0.180210 0.842505 0.845783
v -0.199910 0.845998 0.725554
v -0.199910 0.845998 0.725554
v -0.199910 0.845998 0.725554
v -0.199910 0.845998 0.845783
v -0.199910 0.845998 0.845783
v -0.199910 0.845998 0.845783
v -0.218853 0.856342 0.725554
v -0.218853 0.856342 0.725554
v -0.218853 0.856342 0.725554
v -0.218853 0.856342 0.845783
v -0.218853 0.856342 0.845783
v -0.218853 0.856342 0.845783
v -0.236311 0.873141 0.725554
v -0.236311 0.873141 0.725554
v -0.236311 0.873141 0.725554
v -0.236311 0.873141 0.845783
v -0.236311 0.873141 0.845783
v -0.236311 0.873141 0.845783
v -0.251613 0.895747 0.725554
v -0.251613 0.895747 0.725554
v -0.251613 0.895747 0.725554
v -0.251613 0.895747 0.845783
v -0.251613 0.895747 0.845783
v -0.251613 0.895747 0.845783
v -0.264171 0.923294 0.725554
v -0.264171 0.923294 0.725554
v -0.264171 0.923294 0.725554
v -0.264171 0.923294 0.845783
v -0.264171 0.923294 0.845783
v -0.264171 0.923294 0.845783
v -0.273502 0.954721 0.725554
v -0.273502 0.954721 0.725554
v -0.273502 0.954721 0.725554
v -0.273502 0.954721 0.845783
v -0.273502 0.954721 0.845783
v -0.273502 0.954721 0.845783
v -0.279248 0.988822 0.725554
v -0.279248 0.988822 0.725554
v -0.279248 0.988822 0.725554
v -0.279248 0.988822 0.845783
v -0.279248 0.988822 0.845783
v -0.279248 0.988822 0.845783
v -0.281189 1.024286 0.725554
v -0.281189 1.024286 0.725554
v -0.281189 1.024286 0.725554
v -0.281189 1.024286 0.845783
v -0.281189 1.024286 0.845783
v -0.281189 1.024286 0.845783
v -0.279248 1.059749 0.725554
v -0.279248 1.059749 0.725554
v -0.279248 1.059749 0.725554
v -0.279248 1.059749 0.845783
v -0.279248 1.059749 0.845783
v -0.279248 1.059749 0.845783
v -0.273502 1.093850 0.725554
v -0.273502 1.093850 0.725554
v -0.273502 1.093850 0.725554
v -0.273502 1.093850 0.845783
v -0.273502 1.093850 0.845783
v -0.273502 1.093850 0.845783
v -0.264171 1.125277 0.725554
v -0.264171 1.125277 0.725554
v -0.264171 1.125277 0.725554
v -0.264171 1.125277 0.845783
v -0.264171 1.125277 0.845783
v -0.264171 1.125277 0.845783
v -0.251613 1.152824 0.725554
v -0.251613 1.152824 0.725554
v -0.251613 1.152824 0.725554
v -0.251613 1.152824 0.845783
v -0.251613 1.152824 0.845783
v -0.251613 1.152824 0.845783
v -0.236311 1.175430 0.725554
v -0.236311 1.175430 0.725554
v -0.236311 1.175430 0.725554
v -0.236311 1.175430 0.845783
v -0.236311 1.175430 0.845783
v -0.236311 1.175430 0.845783
v -0.218853 1.192229 0.725554
v -0.218853 1.192229 0.725554
v -0.218853 1.192229 0.725554
v -0.218853 1.192229 0.845783
v -0.218853 1.192229 0.845783
v -0.218853 1.192229 0.845783
v -0.199910 1.202573 0.725554
v -0.199910 1.202573 0.725554
v -0.199910 1.202573 0.725554
v -0.199910 1.202573 0.845783
v -0.199910 1.202573 0.845783
v -0.199910 1.202573 0.845783
vn 0.1746 0.9846 -0.0000
vn 0.4793 0.8777 -0.0000
vn 0.6934 0.7206 -0.0000
vn 0.8281 0.5605 -0.0000
vn 0.9099 0.4148 -0.0000
vn 0.9586 0.2846 -0.0000
vn 0.9861 0.1662 -0.0000
vn 0.9985 0.0546 -0.0000
vn 0.9985 -0.0546 -0.0000
vn 0.9861 -0.1662 -0.0000
vn 0.9586 -0.2846 -0.0000
vn 0.9099 -0.4148 -0.0000
vn 0.8281 -0.5605 -0.0000
vn 0.6934 -0.7206 -0.0000
vn 0.4793 -0.8777 -0.0000
vn 0.1746 -0.9846 -0.0000
vn -0.1746 -0.9846 -0.0000
vn -0.4793 -0.8777 -0.0000
vn -0.6934 -0.7206 -0.0000
vn -0.8281 -0.5605 -0.0000
vn -0.9099 -0.4148 -0.0000
vn -0.9586 -0.2846 -0.0000
vn -0.9861 -0.1662 -0.0000
vn -0.9985 -0.0546 -0.0000
vn -0.9985 0.0546 -0.0000
vn -0.9861 0.1662 -0.0000
vn -0.9586 0.2846 -0.0000
vn -0.9099 0.4148 -0.0000
vn -0.8281 0.5605 -0.0000
vn -0.6934 0.7206 -0.0000
vn -0.0000 -0.0000 1.0000
vn -0.4793 0.8777 -0.0000
vn -0.1746 0.9846 -0.0000
vn -0.0000 -0.0000 -1.0000
vt 1.000000 0.500000
vt 1.000000 1.000000
vt 0.968750 1.000000
vt 0.968750 0.500000
vt 0.937500 1.000000
vt 0.937500 0.500000
vt 0.906250 1.000000
vt 0.906250 0.500000
vt 0.875000 1.000000
vt 0.875000 0.500000
vt 0.843750 1.000000
vt 0.843750 0.500000
vt 0.812500 1.000000
vt 0.812500 0.500000
vt 0.781250 1.000000
vt 0.781250 0.500000
vt 0.750000 1.000000
vt 0.750000 0.500000
vt 0.718750 1.000000
vt 0.718750 0.500000
vt 0.687500 1.000000
vt 0.687500 0.500000
vt 0.656250 1.000000
vt 0.656250 0.500000
vt 0.625000 1.000000
vt 0.625000 0.500000
vt 0.593750 1.000000
vt 0.593750 0.500000
vt 0.562500 1.000000
vt 0.562500 0.500000
vt 0.531250 1.000000
vt 0.531250 0.500000
vt 0.500000 1.000000
vt 0.500000 0.500000
vt 0.468750 1.000000
vt 0.468750 0.500000
vt 0.437500 1.000000
vt 0.437500 0.500000
vt 0.406250 1.000000
vt 0.406250 0.500000
vt 0.375000 1.000000
vt 0.375000 0.500000
vt 0.343750 1.000000
vt 0.343750 0.500000
vt 0.312500 1.000000
vt 0.312500 0.500000
vt 0.281250 1.000000
vt 0.281250 0.500000
vt 0.250000 1.000000
vt 0.250000 0.500000
vt 0.218750 1.000000
vt 0.218750 0.500000
vt 0.187500 1.000000
vt 0.187500 0.500000
vt 0.156250 1.000000
vt 0.156250 0.500000
vt 0.125000 1.000000
vt 0.125000 0.500000
vt 0.093750 1.000000
vt 0.093750 0.500000
vt 0.062500 1.000000
vt 0.062500 0.500000
vt 0.341844 0.471731
vt 0.296822 0.485388
vt 0.250000 0.490000
vt 0.203178 0.485388
vt 0.158156 0.471731
vt 0.116663 0.449553
vt 0.080294 0.419706
vt 0.050447 0.383337
vt 0.028269 0.341844
vt 0.014612 0.296822
vt 0.010000 0.250000
vt 0.014612 0.203178
vt 0.028269 0.158156
vt 0.050447 0.116663
vt 0.080294 0.080294
vt 0.116663 0.050447
vt 0.158156 0.028269
vt 0.203178 0.014612
vt 0.250000 0.010000
vt 0.296822 0.014612
vt 0.341844 0.028269
vt 0.383337 0.050447
vt 0.419706 0.080294
vt 0.449553 0.116663
vt 0.471731 0.158156
vt 0.485388 0.203178
vt 0.490000 0.250000
vt 0.485388 0.296822
vt 0.471731 0.341844
vt 0.449553 0.383337
vt 0.419706 0.419706
vt 0.383337 0.449553
vt 0.031250 1.000000
vt 0.031250 0.500000
vt 0.000000 1.000000
vt 0.000000 0.500000
vt 0.703178 0.485388
vt 0.750000 0.490000
vt 0.796822 0.485388
vt 0.841844 0.471731
vt 0.883337 0.449553
vt 0.919706 0.419706
vt 0.949553 0.383337
vt 0.971731 0.341844
vt 0.985388 0.296822
vt 0.990000 0.250000
vt 0.985388 0.203178
vt 0.971731 0.158156
vt 0.949553 0.116663
vt 0.919706 0.080294
vt 0.883337 0.050447
vt 0.841844 0.028269
vt 0.796822 0.014612
vt 0.750000 0.010000
vt 0.703178 0.014612
vt 0.658156 0.028269
vt 0.616663 0.050447
vt 0.580294 0.080294
vt 0.550447 0.116663
vt 0.528269 0.158156
vt 0.514612 0.203178
vt 0.510000 0.250000
vt 0.514612 0.296822
vt 0.528269 0.341844
vt 0.550447 0.383337
vt 0.580294 0.419706
vt 0.616663 0.449553
vt 0.658156 0.471731
s 0
usemtl Material.001
f 2/1/1 5/2/1 11/3/1
f 2/1/1 11/3/1 8/4/1
f 9/4/2 12/3/2 17/5/2
f 9/4/2 17/5/2 14/6/2
f 15/6/3 18/5/3 23/7/3
f 15/6/3 23/7/3 20/8/3
f 21/8/4 24/7/4 29/9/4
f 21/8/4 29/9/4 26/10/4
f 27/10/5 30/9/5 35/11/5
f 27/10/5 35/11/5 32/12/5
f 33/12/6 36/11/6 41/13/6
f 33/12/6 41/13/6 38/14/6
f 39/14/7 42/13/7 47/15/7
f 39/14/7 47/15/7 44/16/7
f 45/16/8 48/15/8 54/17/8
f 45/16/8 54/17/8 51/18/8
f 50/18/9 53/17/9 60/19/9
f 50/18/9 60/19/9 57/20/9
f 56/20/10 59/19/10 66/21/10
f 56/20/10 66/21/10 63/22/10
f 62/22/11 65/21/11 72/23/11
f 62/22/11 72/23/11 69/24/11
f 68/24/12 71/23/12 78/25/12
f 68/24/12 78/25/12 75/26/12
f 74/26/13 77/25/13 84/27/13
f 74/26/13 84/27/13 81/28/13
f 80/28/14 83/27/14 90/29/14
f 80/28/14 90/29/14 87/30/14
f 86/30/15 89/29/15 96/31/15
f 86/30/15 96/31/15 93/32/15
f 92/32/16 95/31/16 101/33/16
f 92/32/16 101/33/16 98/34/16
f 99/34/17 102/33/17 107/35/17
f 99/34/17 107/35/17 104/36/17
f 105/36/18 108/35/18 113/37/18
f 105/36/18 113/37/18 110/38/18
f 111/38/19 114/37/19 119/39/19
f 111/38/19 119/39/19 116/40/19
f 117/40/20 120/39/20 125/41/20
f 117/40/20 125/41/20 122/42/20
f 123/42/21 126/41/21 131/43/21
f 123/42/21 131/43/21 128/44/21
f 129/44/22 132/43/22 137/45/22
f 129/44/22 137/45/22 134/46/22
f 135/46/23 138/45/23 143/47/23
f 135/46/23 143/47/23 140/48/23
f 141/48/24 144/47/24 149/49/24
f 141/48/24 149/49/24 146/50/24
f 147/50/25 150/49/25 156/51/25
f 147/50/25 156/51/25 153/52/25
f 152/52/26 155/51/26 162/53/26
f 152/52/26 162/53/26 159/54/26
f 158/54/27 161/53/27 168/55/27
f 158/54/27 168/55/27 165/56/27
f 164/56/28 167/55/28 174/57/28
f 164/56/28 174/57/28 171/58/28
f 170/58/29 173/57/29 180/59/29
f 170/58/29 180/59/29 177/60/29
f 176/60/30 179/59/30 186/61/30
f 176/60/30 186/61/30 183/62/30
f 16/63/31 10/64/31 4/65/31
f 4/65/31 190/66/31 184/67/31
f 184/67/31 178/68/31 172/69/31
f 172/69/31 166/70/31 160/71/31
f 160/71/31 154/72/31 148/73/31
f 148/73/31 142/74/31 136/75/31
f 136/75/31 130/76/31 124/77/31
f 124/77/31 118/78/31 112/79/31
f 112/79/31 106/80/31 100/81/31
f 100/81/31 94/82/31 88/83/31
f 88/83/31 82/84/31 76/85/31
f 76/85/31 70/86/31 64/87/31
f 64/87/31 58/88/31 52/89/31
f 52/89/31 46/90/31 40/91/31
f 40/91/31 34/92/31 28/93/31
f 28/93/31 22/94/31 16/63/31
f 16/63/31 4/65/31 184/67/31
f 184/67/31 172/69/31 160/71/31
f 160/71/31 148/73/31 136/75/31
f 136/75/31 124/77/31 112/79/31
f 112/79/31 100/81/31 88/83/31
f 88/83/31 76/85/31 64/87/31
f 64/87/31 52/89/31 40/91/31
f 40/91/31 28/93/31 16/63/31
f 16/63/31 184/67/31 160/71/31
f 160/71/31 136/75/31 112/79/31
f 112/79/31 88/83/31 64/87/31
f 64/87/31 40/91/31 16/63/31
f 16/63/31 160/71/31 112/79/31
f 112/79/31 64/87/31 16/63/31
f 182/62/32 185/61/32 192/95/32
f 182/62/32 192/95/32 189/96/32
f 188/96/33 191/95/33 6/97/33
f 188/96/33 6/97/33 3/98/33
f 187/99/34 1/100/34 7/101/34
f 7/101/34 13/102/34 19/103/34
f 19/103/34 25/104/34 31/105/34
f 31/105/34 37/106/34 43/107/34
f 43/107/34 49/108/34 55/109/34
f 55/109/34 61/110/34 67/111/34
f 67/111/34 73/112/34 79/113/34
f 79/113/34 85/114/34 91/115/34
f 91/115/34 97/116/34 103/117/34
f 103/117/34 109/118/34 115/119/34
f 115/119/34 121/120/34 127/121/34
f 127/121/34 133/122/34 139/123/34
f 139/123/34 145/124/34 151/125/34
f 151/125/34 157/126/34 163/127/34
f 163/127/34 169/128/34 175/129/34
f 175/129/34 181/130/34 187/99/34
f 187/99/34 7/101/34 19/103/34
f 19/103/34 31/105/34 43/107/34
f 43/107/34 55/109/34 67/111/34
f 67/111/34 79/113/34 91/115/34
f 91/115/34 103/117/34 115/119/34
f 115/119/34 127/121/34 139/123/34
f 139/123/34 151/125/34 163/127/34
f 163/127/34 175/129/34 187/99/34
f 187/99/34 19/103/34 43/107/34
f 43/107/34 67/111/34 91/115/34
f 91/115/34 115/119/34 139/123/34
f 139/123/34 163/127/34 187/99/34
f 187/99/34 43/107/34 91/115/34
f 91/115/34 139/123/34 187/99/34
o 円柱.001
v 0.202394 1.206066 0.725554
v 0.202394 1.206066 0.725554
v 0.202394 1.206066 0.725554
v 0.202394 1.206066 0.845783
v 0.202394 1.206066 0.845783
v 0.202394 1.206066 0.845783
v 0.222094 1.202573 0.725554
v 0.222094 1.202573 0.725554
v 0.222094 1.202573 0.725554
v 0.222094 1.202573 0.845783
v 0.222094 1.202573 0.845783
v 0.222094 1.202573 0.845783
v 0.241037 1.192229 0.725554
v 0.241037 1.192229 0.725554
v 0.241037 1.192229 0.725554
v 0.241037 1.192229 0.845783
v 0.241037 1.192229 0.845783
v 0.241037 1.192229 0.845783
v 0.258495 1.175430 0.725554
v 0.258495 1.175430 0.725554
v 0.258495 1.175430 0.725554
v 0.258495 1.175430 0.845783
v 0.258495 1.175430 0.845783
v 0.258495 1.175430 0.845783
v 0.273797 1.152824 0.725554
v 0.273797 1.152824 0.725554
v 0.273797 1.152824 0.725554
v 0.273797 1.152824 0.845783
v 0.273797 1.152824 0.845783
v 0.273797 1.152824 0.845783
v 0.286355 1.125277 0.725554
v 0.286355 1.125277 0.725554
v 0.286355 1.125277 0.725554
v 0.286355 1.125277 0.845783
v 0.286355 1.125277 0.845783
v 0.286355 1.125277 0.845783
v 0.295686 1.093850 0.725554
v 0.295686 1.093850 0.725554
v 0.295686 1.093850 0.725554
v 0.295686 1.093850 0.845783
v 0.295686 1.093850 0.845783
v 0.295686 1.093850 0.845783
v 0.301433 1.059749 0.725554
v 0.301433 1.059749 0.725554
v 0.301433 1.059749 0.725554
v 0.301433 1.059749 0.845783
v 0.301433 1.059749 0.845783
v 0.301433 1.059749 0.845783
v 0.303373 1.024286 0.725554
v 0.303373 1.024286 0.725554
v 0.303373 1.024286 0.725554
v 0.303373 1.024286 0.845783
v 0.303373 1.024286 0.845783
v 0.303373 1.024286 0.845783
v 0.301433 0.988822 0.725554
v 0.301433 0.988822 0.725554
v 0.301433 0.988822 0.725554
v 0.301433 0.988822 0.845783
v 0.301433 0.988822 0.845783
v 0.301433 0.988822 0.845783
v 0.295686 0.954721 0.725554
v 0.295686 0.954721 0.725554
v 0.295686 0.954721 0.725554
v 0.295686 0.954721 0.845783
v 0.295686 0.954721 0.845783
v 0.295686 0.954721 0.845783
v 0.286355 0.923294 0.725554
v 0.286355 0.923294 0.725554
v 0.286355 0.923294 0.725554
v 0.286355 0.923294 0.845783
v 0.286355 0.923294 0.845783
v 0.286355 0.923294 0.845783
v 0.273797 0.895747 0.725554
v 0.273797 0.895747 0.725554
v 0.273797 0.895747 0.725554
v 0.273797 0.895747 0.845783
v 0.273797 0.895747 0.845783
v 0.273797 0.895747 0.845783
v 0.258495 0.873141 0.725554
v 0.258495 0.873141 0.725554
v 0.258495 0.873141 0.725554
v 0.258495 0.873141 0.845783
v 0.258495 0.873141 0.845783
v 0.258495 0.873141 0.845783
v 0.241037 0.856342 0.725554
v 0.241037 0.856342 0.725554
v 0.241037 0.856342 0.725554
v 0.241037 0.856342 0.845783
v 0.241037 0.856342 0.845783
v 0.241037 0.856342 0.845783
v 0.222094 0.845998 0.725554
v 0.222094 0.845998 0.725554
v 0.222094 0.845998 0.725554
v 0.222094 0.845998 0.845783
v 0.222094 0.845998 0.845783
v 0.222094 0.845998 0.845783
v 0.202394 0.842505 0.725554
v 0.202394 0.842505 0.725554
v 0.202394 0.842505 0.725554
v 0.202394 0.842505 0.845783
v 0.202394 0.842505 0.845783
v 0.202394 0.842505 0.845783
v 0.182694 0.845998 0.725554
v 0.182694 0.845998 0.725554
v 0.182694 0.845998 0.725554
v 0.182694 0.845998 0.845783
v 0.182694 0.845998 0.845783
v 0.182694 0.845998 0.845783
v 0.163751 0.856342 0.725554
v 0.163751 0.856342 0.725554
v 0.163751 0.856342 0.725554
v 0.163751 0.856342 0.845783
v 0.163751 0.856342 0.845783
v 0.163751 0.856342 0.845783
v 0.146293 0.873141 0.725554
v 0.146293 0.873141 0.725554
v 0.146293 0.873141 0.725554
v 0.146293 0.873141 0.845783
v 0.146293 0.873141 0.845783
v 0.146293 0.873141 0.845783
v 0.130991 0.895747 0.725554
v 0.130991 0.895747 0.725554
v 0.130991 0.895747 0.725554
v 0.130991 0.895747 0.845783
v 0.130991 0.895747 0.845783
v 0.130991 0.895747 0.845783
v 0.118433 0.923294 0.725554
v 0.118433 0.923294 0.725554
v 0.118433 0.923294 0.725554
v 0.118433 0.923294 0.845783
v 0.118433 0.923294 0.845783
v 0.118433 0.923294 0.845783
v 0.109102 0.954721 0.725554
v 0.109102 0.954721 0.725554
v 0.109102 0.954721 0.725554
v 0.109102 0.954721 0.845783
v 0.109102 0.954721 0.845783
v 0.109102 0.954721 0.845783
v 0.103356 0.988822 0.725554
v 0.103356 0.988822 0.725554
v 0.103356 0.988822 0.725554
v 0.103356 0.988822 0.845783
v 0.103356 0.988822 0.845783
v 0.103356 0.988822 0.845783
v 0.101415 1.024286 0.725554
v 0.101415 1.024286 0.725554
v 0.101415 1.024286 0.725554
v 0.101415 1.024286 0.845783
v 0.101415 1.024286 0.845783
v 0.101415 1.024286 0.845783
v 0.103356 1.059749 0.725554
v 0.103356 1.059749 0.725554
v 0.103356 1.059749 0.725554
v 0.103356 1.059749 0.845783
v 0.103356 1.059749 0.845783
v 0.103356 1.059749 0.845783
v 0.109102 1.093850 0.725554
v 0.109102 1.093850 0.725554
v 0.109102 1.093850 0.725554
v 0.109102 1.093850 0.845783
v 0.109102 1.093850 0.845783
v 0.109102 1.093850 0.845783
v 0.118433 1.125277 0.725554
v 0.118433 1.125277 0.725554
v 0.118433 1.125277 0.725554
v 0.118433 1.125277 0.845783
v 0.118433 1.125277 0.845783
v 0.118433 1.125277 0.845783
v 0.130991 1.152824 0.725554
v 0.130991 1.152824 0.725554
v 0.130991 1.152824 0.725554
v 0.130991 1.152824 0.845783
v 0.130991 1.152824 0.845783
v 0.130991 1.152824 0.845783
v 0.146293 1.175430 0.725554
v 0.146293 1.175430 0.725554
v 0.146293 1.175430 0.725554
v 0.146293 1.175430 0.845783
v 0.146293 1.175430 0.845783
v 0.146293 1.175430 0.845783
v 0.163751 1.192229 0.725554
v 0.163751 1.192229 0.725554
v 0.163751 1.192229 0.725554
v 0.163751 1.192229 0.845783
v 0.163751 1.192229 0.845783
v 0.163751 1.192229 0.845783
v 0.182694 1.202573 0.725554
v 0.182694 1.202573 0.725554
v 0.182694 1.202573 0.725554
v 0.182694 1.202573 0.845783
v 0.182694 1.202573 0.845783
v 0.182694 1.202573 0.845783
vn 0.1746 0.9846 -0.0000
vn 0.4793 0.8777 -0.0000
vn 0.6934 0.7206 -0.0000
vn 0.8281 0.5605 -0.0000
vn 0.9099 0.4148 -0.0000
vn 0.9586 0.2846 -0.0000
vn 0.9861 0.1662 -0.0000
vn 0.9985 0.0546 -0.0000
vn 0.9985 -0.0546 -0.0000
vn 0.9861 -0.1662 -0.0000
vn 0.9586 -0.2846 -0.0000
vn 0.9099 -0.4148 -0.0000
vn 0.8281 -0.5605 -0.0000
vn 0.6934 -0.7206 -0.0000
vn 0.4793 -0.8777 -0.0000
vn 0.1746 -0.9846 -0.0000
vn -0.1746 -0.9846 -0.0000
vn -0.4793 -0.8777 -0.0000
vn -0.6934 -0.7206 -0.0000
vn -0.8281 -0.5605 -0.0000
vn -0.9099 -0.4148 -0.0000
vn -0.9586 -0.2846 -0.0000
vn -0.9861 -0.1662 -0.0000
vn -0.9985 -0.0546 -0.0000
vn -0.9985 0.0546 -0.0000
vn -0.9861 0.1662 -0.0000
vn -0.9586 0.2846 -0.0000
vn -0.9099 0.4148 -0.0000
vn -0.8281 0.5605 -0.0000
vn -0.6934 0.7206 -0.0000
vn -0.0000 -0.0000 1.0000
vn -0.4793 0.8777 -0.0000
vn -0.1746 0.9846 -0.0000
vn -0.0000 -0.0000 -1.0000
vt 1.000000 0.500000
vt 1.000000 1.000000
vt 0.968750 1.000000
vt 0.968750 0.500000
vt 0.937500 1.000000
vt 0.937500 0.500000
vt 0.906250 1.000000
vt 0.906250 0.500000
vt 0.875000 1.000000
vt 0.875000 0.500000
vt 0.843750 1.000000
vt 0.843750 0.500000
vt 0.812500 1.000000
vt 0.812500 0.500000
vt 0.781250 1.000000
vt 0.781250 0.500000
vt 0.750000 1.000000
vt 0.750000 0.500000
vt 0.718750 1.000000
vt 0.718750 0.500000
vt 0.687500 1.000000
vt 0.687500 0.500000
vt 0.656250 1.000000
vt 0.656250 0.500000
vt 0.625000 1.000000
vt 0.625000 0.500000
vt 0.593750 1.000000
vt 0.593750 0.500000
vt 0.562500 1.000000
vt 0.562500 0.500000
vt 0.531250 1.000000
vt 0.531250 0.500000
vt 0.500000 1.000000
vt 0.500000 0.500000
vt 0.468750 1.000000
vt 0.468750 0.500000
vt 0.437500 1.000000
vt 0.437500 0.500000
vt 0.406250 1.000000
vt 0.406250 0.500000
vt 0.375000 1.000000
vt 0.375000 0.500000
vt 0.343750 1.000000
vt 0.343750 0.500000
vt 0.312500 1.000000
vt 0.312500 0.500000
vt 0.281250 1.000000
vt 0.281250 0.500000
vt 0.250000 1.000000
vt 0.250000 0.500000
vt 0.218750 1.000000
vt 0.218750 0.500000
vt 0.187500 1.000000
vt 0.187500 0.500000
vt 0.156250 1.000000
vt 0.156250 0.500000
vt 0.125000 1.000000
vt 0.125000 0.500000
vt 0.093750 1.000000
vt 0.093750 0.500000
vt 0.062500 1.000000
vt 0.062500 0.500000
vt 0.341844 0.471731
vt 0.296822 0.485388
vt 0.250000 0.490000
vt 0.203178 0.485388
vt 0.158156 0.471731
vt 0.116663 0.449553
vt 0.080294 0.419706
vt 0.050447 0.383337
vt 0.028269 0.341844
vt 0.014612 0.296822
vt 0.010000 0.250000
vt 0.014612 0.203178
vt 0.028269 0.158156
vt 0.050447 0.116663
vt 0.080294 0.080294
vt 0.116663 0.050447
vt 0.158156 0.028269
vt 0.203178 0.014612
vt 0.250000 0.010000
vt 0.296822 0.014612
vt 0.341844 0.028269
vt 0.383337 0.050447
vt 0.419706 0.080294
vt 0.449553 0.116663
vt 0.471731 0.158156
vt 0.485388 0.203178
vt 0.490000 0.250000
vt 0.485388 0.296822
vt 0.471731 0.341844
vt 0.449553 0.383337
vt 0.419706 0.419706
vt 0.383337 0.449553
vt 0.031250 1.000000
vt 0.031250 0.500000
vt 0.000000 1.000000
vt 0.000000 0.500000
vt 0.703178 0.485388
vt 0.750000 0.490000
vt 0.796822 0.485388
vt 0.841844 0.471731
vt 0.883337 0.449553
vt 0.919706 0.419706
vt 0.949553 0.383337
vt 0.971731 0.341844
vt 0.985388 0.296822
vt 0.990000 0.250000
vt 0.985388 0.203178
vt 0.971731 0.158156
vt 0.949553 0.116663
vt 0.919706 0.080294
vt 0.883337 0.050447
vt 0.841844 0.028269
vt 0.796822 0.014612
vt 0.750000 0.010000
vt 0.703178 0.014612
vt 0.658156 0.028269
vt 0.616663 0.050447
vt 0.580294 0.080294
vt 0.550447 0.116663
vt 0.528269 0.158156
vt 0.514612 0.203178
vt 0.510000 0.250000
vt 0.514612 0.296822
vt 0.528269 0.341844
vt 0.550447 0.383337
vt 0.580294 0.419706
vt 0.616663 0.449553
vt 0.658156 0.471731
s 0
usemtl Material.001
f 194/131/35 197/132/35 203/133/35
f 194/131/35 203/133/35 200/134/35
f 201/134/36 204/133/36 209/135/36
f 201/134/36 209/135/36 206/136/36
f 207/136/37 210/135/37 215/137/37
f 207/136/37 215/137/37 212/138/37
f 213/138/38 216/137/38 221/139/38
f 213/138/38 221/139/38 218/140/38
f 219/140/39 222/139/39 227/141/39
f 219/140/39 227/141/39 224/142/39
f 225/142/40 228/141/40 233/143/40
f 225/142/40 233/143/40 230/144/40
f 231/144/41 234/143/41 239/145/41
f 231/144/41 239/145/41 236/146/41
f 237/146/42 240/145/42 246/147/42
f 237/146/42 246/147/42 243/148/42
f 242/148/43 245/147/43 252/149/43
f 242/148/43 252/149/43 249/150/43
f 248/150/44 251/149/44 258/151/44
f 248/150/44 258/151/44 255/152/44
f 254/152/45 257/151/45 264/153/45
f 254/152/45 264/153/45 261/154/45
f 260/154/46 263/153/46 270/155/46
f 260/154/46 270/155/46 267/156/46
f 266/156/47 269/155/47 276/157/47
f 266/156/47 276/157/47 273/158/47
f 272/158/48 275/157/48 282/159/48
f 272/158/48 282/159/48 279/160/48
f 278/160/49 281/159/49 288/161/49
f 278/160/49 288/161/49 285/162/49
f 284/162/50 287/161/50 293/163/50
f 284/162/50 293/163/50 290/164/50
f 291/164/51 294/163/51 299/165/51
f 291/164/51 299/165/51 296/166/51
f 297/166/52 300/165/52 305/167/52
f 297/166/52 305/167/52 302/168/52
f 303/168/53 306/167/53 311/169/53
f 303/168/53 311/169/53 308/170/53
f 309/170/54 312/169/54 317/171/54
f 309/170/54 317/171/54 314/172/54
f 315/172/55 318/171/55 323/173/55
f 315/172/55 323/173/55 320/174/55
f 321/174/56 324/173/56 329/175/56
f 321/174/56 329/175/56 326/176/56
f 327/176/57 330/175/57 335/177/57
f 327/176/57 335/177/57 332/178/57
f 333/178/58 336/177/58 341/179/58
f 333/178/58 341/179/58 338/180/58
f 339/180/59 342/179/59 348/181/59
f 339/180/59 348/181/59 345/182/59
f 344/182/60 347/181/60 354/183/60
f 344/182/60 354/183/60 351/184/60
f 350/184/61 353/183/61 360/185/61
f 350/184/61 360/185/61 357/186/61
f 356/186/62 359/185/62 366/187/62
f 356/186/62 366/187/62 363/188/62
f 362/188/63 365/187/63 372/189/63
f 362/188/63 372/189/63 369/190/63
f 368/190/64 371/189/64 378/191/64
f 368/190/64 378/191/64 375/192/64
f 208/193/65 202/194/65 196/195/65
f 196/195/65 382/196/65 376/197/65
f 376/197/65 370/198/65 364/199/65
f 364/199/65 358/200/65 352/201/65
f 352/201/65 346/202/65 340/203/65
f 340/203/65 334/204/65 328/205/65
f 328/205/65 322/206/65 316/207/65
f 316/207/65 310/208/65 304/209/65
f 304/209/65 298/210/65 292/211/65
f 292/211/65 286/212/65 280/213/65
f 280/213/65 274/214/65 268/215/65
f 268/215/65 262/216/65 256/217/65
f 256/217/65 250/218/65 244/219/65
f 244/219/65 238/220/65 232/221/65
f 232/221/65 226/222/65 220/223/65
f 220/223/65 214/224/65 208/193/65
f 208/193/65 196/195/65 376/197/65
f 376/197/65 364/199/65 352/201/65
f 352/201/65 340/203/65 328/205/65
f 328/205/65 316/207/65 304/209/65
f 304/209/65 292/211/65 280/213/65
f 280/213/65 268/215/65 256/217/65
f 256/217/65 244/219/65 232/221/65
f 232/221/65 220/223/65 208/193/65
f 208/193/65 376/197/65 352/201/65
f 352/201/65 328/205/65 304/209/65
f 304/209/65 280/213/65 256/217/65
f 256/217/65 232/221/65 208/193/65
f 208/193/65 352/201/65 304/209/65
f 304/209/65 256/217/65 208/193/65
f 374/192/66 377/191/66 384/225/66
f 374/192/66 384/225/66 381/226/66
f 380/226/67 383/225/67 198/227/67
f 380/226/67 198/227/67 195/228/67
f 379/229/68 193/230/68 199/231/68
f 199/231/68 205/232/68 211/233/68
f 211/233/68 217/234/68 223/235/68
f 223/235/68 229/236/68 235/237/68
f 235/237/68 241/238/68 247/239/68
f 247/239/68 253/240/68 259/241/68
f 259/241/68 265/242/68 271/243/68
f 271/243/68 277/244/68 283/245/68
f 283/245/68 289/246/68 295/247/68
f 295/247/68 301/248/68 307/249/68
f 307/249/68 313/250/68 319/251/68
f 319/251/68 325/252/68 331/253/68
f 331/253/68 337/254/68 343/255/68
f 343/255/68 349/256/68 355/257/68
f 355/257/68 361/258/68 367/259/68
f 367/259/68 373/260/68 379/229/68
f 379/229/68 199/231/68 211/233/68
f 211/233/68 223/235/68 235/237/68
f 235/237/68 247/239/68 259/241/68
f 259/241/68 271/243/68 283/245/68
f 283/245/68 295/247/68 307/249/68
f 307/249/68 319/251/68 331/253/68
f 331/253/68 343/255/68 355/257/68
f 355/257/68 367/259/68 379/229/68
f 379/229/68 211/233/68 235/237/68
f 235/237/68 259/241/68 283/245/68
f 283/245/68 307/249/68 331/253/68
f 331/253/68 355/257/68 379/229/68
f 379/229/68 235/237/68 283/245/68
f 283/245/68 331/253/68 379/229/68
o 球
v -0.747628 0.766955 0.034284
v -0.747628 0.766955 0.034284
v -0.747628 0.766955 0.034284
v -0.747628 0.766955 0.034284
v -0.747628 0.766955 0.034284
v -0.747628 0.766955 0.034284
v -0.647184 0.424119 0.022413
v -0.647184 0.424119 0.022413
v -0.647184 0.424119 0.022413
v -0.647184 0.424119 0.022413
v -0.647184 0.424119 0.022413
v -0.647184 0.424119 0.022413
v -0.528485 0.495446 0.408156
v -0.528485 0.495446 0.408156
v -0.528485 0.495446 0.408156
v -0.528485 0.495446 0.408156
v -0.528485 0.495446 0.408156
v -0.355358 0.211338 0.263576
v -0.355358 0.211338 0.263576
v -0.355358 0.211338 0.263576
v -0.355358 0.211338 0.263576
v -0.355358 0.211338 0.263576
v -0.355358 0.211338 0.263576
v -0.296772 0.698289 0.666999
v -0.296772 0.698289 0.666999
v -0.296772 0.698289 0.666999
v -0.296772 0.698289 0.666999
v -0.120540 0.404398 0.614978
v -0.120540 0.404398 0.614978
v -0.120540 0.404398 0.614978
v -0.120540 0.404398 0.614978
v -0.120540 0.404398 0.614978
v -0.120540 0.404398 0.614978
v -0.081130 0.081854 0.115393
v -0.081130 0.081854 0.115393
v -0.081130 0.081854 0.115393
v -0.081130 0.081854 0.115393
v -0.081130 0.081854 0.115393
v -0.718945 1.050234 0.017908
v -0.718945 1.050234 0.017908
v -0.718945 1.050234 0.017908
v -0.718945 1.050234 0.017908
v -0.718945 1.050234 0.017908
v -0.604385 0.879145 0.415246
v -0.604385 0.879145 0.415246
v -0.604385 0.879145 0.415246
v -0.604385 0.879145 0.415246
v -0.604385 0.879145 0.415246
v -0.604385 0.879145 0.415246
v -0.543779 1.171241 0.374919
v -0.543779 1.171241 0.374919
v -0.543779 1.171241 0.374919
v -0.543779 1.171241 0.374919
v -0.543779 1.171241 0.374919
v -0.543779 1.171241 0.374919
v -0.474797 1.402037 0.238879
v -0.474797 1.402037 0.238879
v -0.474797 1.402037 0.238879
v -0.474797 1.402037 0.238879
v -0.474797 1.402037 0.238879
v -0.474797 1.402037 0.238879
v -0.474797 1.402037 0.238879
v -0.235077 1.301121 0.553697
v -0.235077 1.301121 0.553697
v -0.235077 1.301121 0.553697
v -0.235077 1.301121 0.553697
v -0.235077 1.301121 0.553697
v -0.172151 0.957327 0.694975
v -0.172151 0.957327 0.694975
v -0.172151 0.957327 0.694975
v -0.172151 0.957327 0.694975
v -0.172151 0.957327 0.694975
v -0.172151 0.957327 0.694975
v -0.172151 0.957327 0.694975
v -0.117938 1.537354 0.414377
v -0.117938 1.537354 0.414377
v -0.117938 1.537354 0.414377
v -0.117938 1.537354 0.414377
v -0.117938 1.537354 0.414377
v -0.117938 1.537354 0.414377
v -0.117938 1.537354 0.414377
v -0.251587 1.703079 0.163637
v -0.251587 1.703079 0.163637
v -0.251587 1.703079 0.163637
v -0.251587 1.703079 0.163637
v -0.094904 1.784903 0.065003
v -0.094904 1.784903 0.065003
v -0.094904 1.784903 0.065003
v -0.094904 1.784903 0.065003
v -0.094904 1.784903 0.065003
v -0.094904 1.784903 0.065003
v -0.094904 1.784903 0.065003
v -0.094904 1.784903 0.065003
v -0.632813 0.491866 -0.259264
v -0.632813 0.491866 -0.259264
v -0.632813 0.491866 -0.259264
v -0.632813 0.491866 -0.259264
v -0.632813 0.491866 -0.259264
v -0.632813 0.491866 -0.259264
v -0.556831 0.657270 -0.475303
v -0.556831 0.657270 -0.475303
v -0.556831 0.657270 -0.475303
v -0.556831 0.657270 -0.475303
v -0.556831 0.657270 -0.475303
v -0.394168 0.182464 -0.112122
v -0.394168 0.182464 -0.112122
v -0.394168 0.182464 -0.112122
v -0.394168 0.182464 -0.112122
v -0.394168 0.182464 -0.112122
v -0.394168 0.182464 -0.112122
v -0.365629 0.279921 -0.388240
v -0.365629 0.279921 -0.388240
v -0.365629 0.279921 -0.388240
v -0.365629 0.279921 -0.388240
v -0.365629 0.279921 -0.388240
v -0.365629 0.279921 -0.388240
v -0.304948 0.476744 -0.596447
v -0.304948 0.476744 -0.596447
v -0.304948 0.476744 -0.596447
v -0.304948 0.476744 -0.596447
v -0.304948 0.476744 -0.596447
v -0.304948 0.476744 -0.596447
v -0.312442 0.797520 -0.673969
v -0.312442 0.797520 -0.673969
v -0.312442 0.797520 -0.673969
v -0.312442 0.797520 -0.673969
v -0.073076 0.102391 -0.221727
v -0.073076 0.102391 -0.221727
v -0.073076 0.102391 -0.221727
v -0.073076 0.102391 -0.221727
v -0.073076 0.102391 -0.221727
v -0.073076 0.102391 -0.221727
v -0.066937 0.529498 -0.681122
v -0.066937 0.529498 -0.681122
v -0.066937 0.529498 -0.681122
v -0.066937 0.529498 -0.681122
v -0.066937 0.529498 -0.681122
v -0.066937 0.529498 -0.681122
v -0.709108 0.859870 -0.243103
v -0.709108 0.859870 -0.243103
v -0.709108 0.859870 -0.243103
v -0.709108 0.859870 -0.243103
v -0.709108 0.859870 -0.243103
v -0.709108 0.859870 -0.243103
v -0.709108 0.859870 -0.243103
v -0.624773 1.250873 -0.117848
v -0.624773 1.250873 -0.117848
v -0.624773 1.250873 -0.117848
v -0.624773 1.250873 -0.117848
v -0.624773 1.250873 -0.117848
v -0.624773 1.250873 -0.117848
v -0.570187 1.221417 -0.321184
v -0.570187 1.221417 -0.321184
v -0.570187 1.221417 -0.321184
v -0.570187 1.221417 -0.321184
v -0.570187 1.221417 -0.321184
v -0.570187 1.221417 -0.321184
v -0.548461 0.984600 -0.471941
v -0.548461 0.984600 -0.471941
v -0.548461 0.984600 -0.471941
v -0.548461 0.984600 -0.471941
v -0.548461 0.984600 -0.471941
v -0.548461 0.984600 -0.471941
v -0.548461 0.984600 -0.471941
v -0.548461 0.984600 -0.471941
v -0.548461 0.984600 -0.471941
v -0.430569 1.545992 -0.068428
v -0.430569 1.545992 -0.068428
v -0.430569 1.545992 -0.068428
v -0.430569 1.545992 -0.068428
v -0.430569 1.545992 -0.068428
v -0.430569 1.545992 -0.068428
v -0.430569 1.545992 -0.068428
v -0.425042 1.358208 -0.385142
v -0.425042 1.358208 -0.385142
v -0.425042 1.358208 -0.385142
v -0.425042 1.358208 -0.385142
v -0.425042 1.358208 -0.385142
v -0.425042 1.358208 -0.385142
v -0.346246 1.202884 -0.557974
v -0.346246 1.202884 -0.557974
v -0.346246 1.202884 -0.557974
v -0.346246 1.202884 -0.557974
v -0.346246 1.202884 -0.557974
v -0.245631 1.611725 -0.295792
v -0.245631 1.611725 -0.295792
v -0.245631 1.611725 -0.295792
v -0.245631 1.611725 -0.295792
v -0.245631 1.611725 -0.295792
v -0.166484 1.397675 -0.517364
v -0.166484 1.397675 -0.517364
v -0.166484 1.397675 -0.517364
v -0.166484 1.397675 -0.517364
v -0.166484 1.397675 -0.517364
v -0.166484 1.397675 -0.517364
v -0.158364 0.982708 -0.696969
v -0.158364 0.982708 -0.696969
v -0.158364 0.982708 -0.696969
v -0.158364 0.982708 -0.696969
v -0.158364 0.982708 -0.696969
v -0.158364 0.982708 -0.696969
v -0.158364 0.982708 -0.696969
v -0.043102 1.214797 -0.642164
v -0.043102 1.214797 -0.642164
v -0.043102 1.214797 -0.642164
v -0.043102 1.214797 -0.642164
v -0.043102 1.214797 -0.642164
v 0.073742 0.258455 0.485432
v 0.073742 0.258455 0.485432
v 0.073742 0.258455 0.485432
v 0.073742 0.258455 0.485432
v 0.073742 0.258455 0.485432
v 0.073742 0.258455 0.485432
v 0.073742 0.258455 0.485432
v 0.123431 0.681835 0.712182
v 0.123431 0.681835 0.712182
v 0.123431 0.681835 0.712182
v 0.123431 0.681835 0.712182
v 0.123431 0.681835 0.712182
v 0.123431 0.681835 0.712182
v 0.197114 0.130226 0.219735
v 0.197114 0.130226 0.219735
v 0.197114 0.130226 0.219735
v 0.197114 0.130226 0.219735
v 0.197114 0.130226 0.219735
v 0.312491 0.490999 0.587807
v 0.312491 0.490999 0.587807
v 0.312491 0.490999 0.587807
v 0.312491 0.490999 0.587807
v 0.312491 0.490999 0.587807
v 0.312491 0.490999 0.587807
v 0.457994 0.389200 0.411975
v 0.457994 0.389200 0.411975
v 0.457994 0.389200 0.411975
v 0.457994 0.389200 0.411975
v 0.426366 0.252150 0.220439
v 0.426366 0.252150 0.220439
v 0.426366 0.252150 0.220439
v 0.426366 0.252150 0.220439
v 0.426366 0.252150 0.220439
v 0.426366 0.252150 0.220439
v 0.426366 0.252150 0.220439
v 0.492322 0.654445 0.512092
v 0.492322 0.654445 0.512092
v 0.492322 0.654445 0.512092
v 0.492322 0.654445 0.512092
v 0.492322 0.654445 0.512092
v 0.605463 0.538803 0.304524
v 0.605463 0.538803 0.304524
v 0.605463 0.538803 0.304524
v 0.605463 0.538803 0.304524
v 0.605463 0.538803 0.304524
v 0.605463 0.538803 0.304524
v 0.699379 0.743404 0.157757
v 0.699379 0.743404 0.157757
v 0.699379 0.743404 0.157757
v 0.699379 0.743404 0.157757
v 0.699379 0.743404 0.157757
v 0.088000 1.137507 0.661041
v 0.088000 1.137507 0.661041
v 0.088000 1.137507 0.661041
v 0.088000 1.137507 0.661041
v 0.088000 1.137507 0.661041
v 0.088000 1.137507 0.661041
v 0.088000 1.137507 0.661041
v 0.173681 1.411515 0.497249
v 0.173681 1.411515 0.497249
v 0.173681 1.411515 0.497249
v 0.173681 1.411515 0.497249
v 0.173681 1.411515 0.497249
v 0.147180 1.632967 0.317856
v 0.147180 1.632967 0.317856
v 0.147180 1.632967 0.317856
v 0.147180 1.632967 0.317856
v 0.147180 1.632967 0.317856
v 0.147180 1.632967 0.317856
v 0.341383 0.893896 0.639715
v 0.341383 0.893896 0.639715
v 0.341383 0.893896 0.639715
v 0.341383 0.893896 0.639715
v 0.341383 0.893896 0.639715
v 0.341383 0.893896 0.639715
v 0.320277 1.250854 0.522564
v 0.320277 1.250854 0.522564
v 0.320277 1.250854 0.522564
v 0.320277 1.250854 0.522564
v 0.320277 1.250854 0.522564
v 0.320277 1.250854 0.522564
v 0.323658 1.626716 0.132481
v 0.323658 1.626716 0.132481
v 0.323658 1.626716 0.132481
v 0.323658 1.626716 0.132481
v 0.323658 1.626716 0.132481
v 0.392227 1.413150 0.334794
v 0.392227 1.413150 0.334794
v 0.392227 1.413150 0.334794
v 0.392227 1.413150 0.334794
v 0.392227 1.413150 0.334794
v 0.392227 1.413150 0.334794
v 0.392227 1.413150 0.334794
v 0.475336 1.456755 0.095855
v 0.475336 1.456755 0.095855
v 0.475336 1.456755 0.095855
v 0.475336 1.456755 0.095855
v 0.557326 0.973329 0.429301
v 0.557326 0.973329 0.429301
v 0.557326 0.973329 0.429301
v 0.557326 0.973329 0.429301
v 0.557326 0.973329 0.429301
v 0.557326 0.973329 0.429301
v 0.557326 0.973329 0.429301
v 0.590430 1.200701 0.232179
v 0.590430 1.200701 0.232179
v 0.590430 1.200701 0.232179
v 0.590430 1.200701 0.232179
v 0.590430 1.200701 0.232179
v 0.110563 1.810754 0.094993
v 0.110563 1.810754 0.094993
v 0.110563 1.810754 0.094993
v 0.110563 1.810754 0.094993
v 0.110563 1.810754 0.094993
v 0.058023 0.195098 -0.403339
v 0.058023 0.195098 -0.403339
v 0.058023 0.195098 -0.403339
v 0.058023 0.195098 -0.403339
v 0.058023 0.195098 -0.403339
v 0.058023 0.195098 -0.403339
v 0.058023 0.195098 -0.403339
v 0.209225 0.628759 -0.682121
v 0.209225 0.628759 -0.682121
v 0.209225 0.628759 -0.682121
v 0.209225 0.628759 -0.682121
v 0.209225 0.628759 -0.682121
v 0.260618 0.117223 -0.041021
v 0.260618 0.117223 -0.041021
v 0.260618 0.117223 -0.041021
v 0.260618 0.117223 -0.041021
v 0.260618 0.117223 -0.041021
v 0.260618 0.117223 -0.041021
v 0.253728 0.394957 -0.558715
v 0.253728 0.394957 -0.558715
v 0.253728 0.394957 -0.558715
v 0.253728 0.394957 -0.558715
v 0.253728 0.394957 -0.558715
v 0.342471 0.246209 -0.350654
v 0.342471 0.246209 -0.350654
v 0.342471 0.246209 -0.350654
v 0.342471 0.246209 -0.350654
v 0.342471 0.246209 -0.350654
v 0.342471 0.246209 -0.350654
v 0.473524 0.571739 -0.497481
v 0.473524 0.571739 -0.497481
v 0.473524 0.571739 -0.497481
v 0.473524 0.571739 -0.497481
v 0.473524 0.571739 -0.497481
v 0.473524 0.571739 -0.497481
v 0.473524 0.571739 -0.497481
v 0.473524 0.571739 -0.497481
v 0.542165 0.327848 -0.083054
v 0.542165 0.327848 -0.083054
v 0.542165 0.327848 -0.083054
v 0.542165 0.327848 -0.083054
v 0.542165 0.327848 -0.083054
v 0.542165 0.327848 -0.083054
v 0.542165 0.327848 -0.083054
v 0.588132 0.459504 -0.278430
v 0.588132 0.459504 -0.278430
v 0.588132 0.459504 -0.278430
v 0.588132 0.459504 -0.278430
v 0.588132 0.459504 -0.278430
v 0.659482 0.653792 -0.270966
v 0.659482 0.653792 -0.270966
v 0.659482 0.653792 -0.270966
v 0.659482 0.653792 -0.270966
v 0.659482 0.653792 -0.270966
v 0.692981 0.574239 -0.044438
v 0.692981 0.574239 -0.044438
v 0.692981 0.574239 -0.044438
v 0.692981 0.574239 -0.044438
v 0.692981 0.574239 -0.044438
v 0.014152 1.637246 -0.345527
v 0.014152 1.637246 -0.345527
v 0.014152 1.637246 -0.345527
v 0.014152 1.637246 -0.345527
v 0.014152 1.637246 -0.345527
v 0.014152 1.637246 -0.345527
v 0.138868 1.352934 -0.545500
v 0.138868 1.352934 -0.545500
v 0.138868 1.352934 -0.545500
v 0.138868 1.352934 -0.545500
v 0.138868 1.352934 -0.545500
v 0.138868 1.352934 -0.545500
v 0.138868 1.352934 -0.545500
v 0.229307 0.949167 -0.677907
v 0.229307 0.949167 -0.677907
v 0.229307 0.949167 -0.677907
v 0.229307 0.949167 -0.677907
v 0.229307 0.949167 -0.677907
v 0.229307 0.949167 -0.677907
v 0.229307 0.949167 -0.677907
v 0.229307 0.949167 -0.677907
v 0.282884 1.511065 -0.351770
v 0.282884 1.511065 -0.351770
v 0.282884 1.511065 -0.351770
v 0.282884 1.511065 -0.351770
v 0.282884 1.511065 -0.351770
v 0.303067 1.114190 -0.606984
v 0.303067 1.114190 -0.606984
v 0.303067 1.114190 -0.606984
v 0.303067 1.114190 -0.606984
v 0.347097 1.602033 -0.092771
v 0.347097 1.602033 -0.092771
v 0.347097 1.602033 -0.092771
v 0.347097 1.602033 -0.092771
v 0.347097 1.602033 -0.092771
v 0.347097 1.602033 -0.092771
v 0.347097 1.602033 -0.092771
v 0.347097 1.602033 -0.092771
v 0.403678 1.274683 -0.431846
v 0.403678 1.274683 -0.431846
v 0.403678 1.274683 -0.431846
v 0.403678 1.274683 -0.431846
v 0.403678 1.274683 -0.431846
v 0.403678 1.274683 -0.431846
v 0.403678 1.274683 -0.431846
v 0.451670 1.045036 -0.536664
v 0.451670 1.045036 -0.536664
v 0.451670 1.045036 -0.536664
v 0.451670 1.045036 -0.536664
v 0.451670 1.045036 -0.536664
v 0.451670 1.045036 -0.536664
v 0.486912 1.431226 -0.242685
v 0.486912 1.431226 -0.242685
v 0.486912 1.431226 -0.242685
v 0.486912 1.431226 -0.242685
v 0.474277 0.875936 -0.555147
v 0.474277 0.875936 -0.555147
v 0.474277 0.875936 -0.555147
v 0.474277 0.875936 -0.555147
v 0.544329 1.221668 -0.300930
v 0.544329 1.221668 -0.300930
v 0.544329 1.221668 -0.300930
v 0.544329 1.221668 -0.300930
v 0.544329 1.221668 -0.300930
v 0.587696 1.274667 -0.038950
v 0.587696 1.274667 -0.038950
v 0.587696 1.274667 -0.038950
v 0.587696 1.274667 -0.038950
v 0.587696 1.274667 -0.038950
v 0.587696 1.274667 -0.038950
v 0.587696 1.274667 -0.038950
v 0.587696 1.274667 -0.038950
v 0.609172 0.928358 -0.366649
v 0.609172 0.928358 -0.366649
v 0.609172 0.928358 -0.366649
v 0.609172 0.928358 -0.366649
v 0.609172 0.928358 -0.366649
v 0.609172 0.928358 -0.366649
v 0.609172 0.928358 -0.366649
v 0.701156 0.945891 -0.016889
v 0.701156 0.945891 -0.016889
v 0.701156 0.945891 -0.016889
v 0.701156 0.945891 -0.016889
v 0.701156 0.945891 -0.016889
v 0.701156 0.945891 -0.016889
v 0.701156 0.945891 -0.016889
v 0.102487 1.790238 -0.118365
v 0.102487 1.790238 -0.118365
v 0.102487 1.790238 -0.118365
v 0.102487 1.790238 -0.118365
v 0.102487 1.790238 -0.118365
vn -0.8725 -0.2697 0.4075
vn -0.9281 -0.1895 0.3206
vn -0.7198 -0.6086 0.3340
vn -0.6498 -0.7498 0.1248
vn -0.6768 -0.1472 0.7213
vn -0.4830 -0.4251 0.7655
vn -0.4625 -0.6095 0.6439
vn -0.3754 -0.9204 0.1095
vn 0.0631 -0.1371 0.9885
vn -0.2105 -0.7906 0.5750
vn -0.1513 -0.8660 0.4766
vn -0.2043 -0.1588 0.9659
vn -0.9067 0.1153 0.4058
vn -0.9310 0.2321 0.2817
vn -0.8621 0.4226 0.2798
vn -0.8535 0.5000 0.1469
vn -0.8382 0.5302 0.1277
vn -0.5577 0.2260 0.7987
vn -0.5572 0.1805 0.8105
vn -0.5577 0.2261 0.7987
vn -0.5805 0.5352 0.6136
vn -0.7689 0.6144 0.1771
vn -0.5271 0.5522 0.6459
vn -0.5237 0.6102 0.5944
vn -0.1266 0.3571 0.9254
vn -0.0230 0.5163 0.8561
vn -0.0649 0.8162 0.5741
vn -0.0858 0.8156 0.5722
vn -0.9616 -0.1907 -0.1974
vn -0.9544 -0.2756 -0.1150
vn -0.8845 -0.1642 -0.4368
vn -0.7297 -0.6555 -0.1949
vn -0.6570 -0.4691 -0.5902
vn -0.6779 -0.6684 -0.3060
vn -0.4216 0.0201 -0.9066
vn -0.7179 -0.1793 -0.6726
vn -0.6312 -0.4633 -0.6220
vn -0.3361 -0.8767 -0.3442
vn -0.2623 -0.9628 -0.0649
vn -0.1829 -0.8159 -0.5485
vn -0.1637 -0.6926 -0.7025
vn -0.2801 -0.2317 -0.9316
vn -0.1176 -0.6602 -0.7418
vn -0.9899 0.0941 -0.1059
vn -0.9313 0.2768 -0.2370
vn -0.9133 0.2889 -0.2870
vn -0.8509 0.2243 -0.4750
vn 0.9593 -0.0836 0.2696
vn -0.8250 0.0269 -0.5645
vn -0.7766 0.5595 -0.2895
vn -0.7187 0.5925 -0.3638
vn -0.6430 0.3684 -0.6714
vn -0.6728 0.3710 -0.6401
vn -0.4956 0.1201 -0.8602
vn -0.4766 0.2936 -0.8287
vn -0.6869 0.6198 -0.3795
vn -0.4441 0.5563 -0.7024
vn -0.4433 0.5603 -0.6997
vn -0.2638 0.3438 -0.9012
vn -0.2582 0.4197 -0.8702
vn -0.0859 -0.0521 -0.9949
vn -0.2028 0.6671 -0.7169
vn 0.0072 0.5670 -0.8237
vn 0.0095 0.5781 -0.8159
vn -0.5317 0.8329 -0.1537
vn -0.5209 0.8339 -0.1826
vn -0.1610 0.9143 -0.3716
vn -0.3959 0.8256 -0.4021
vn 0.2071 -0.4807 0.8521
vn -0.0055 -0.9016 0.4326
vn 0.1911 -0.9800 -0.0551
vn 0.0916 -0.4785 0.8733
vn 0.3935 -0.7430 0.5413
vn 0.4369 -0.1457 0.8876
vn 0.4252 -0.6929 0.5823
vn 0.1124 -0.8168 0.5659
vn 0.4634 -0.8722 0.1564
vn 0.4936 -0.1459 0.8574
vn 0.6139 -0.3471 0.7090
vn 0.7472 -0.3171 0.5840
vn 0.7763 -0.5663 0.2770
vn 0.8123 -0.5576 0.1709
vn 0.8658 -0.0471 0.4982
vn 0.8689 -0.0453 0.4929
vn 0.9223 -0.3822 0.0574
vn 0.7466 -0.5217 0.4128
vn 0.9997 -0.0209 -0.0141
vn -0.0198 0.5175 0.8554
vn 0.0496 0.1152 0.9921
vn 0.3076 0.4155 0.8560
vn 0.0533 0.6324 0.7728
vn 0.2017 0.1247 0.9715
vn 0.4806 0.5860 0.6524
vn 0.3711 0.3093 0.8756
vn 0.5559 0.6588 0.5070
vn 0.6158 0.2783 0.7371
vn 0.4933 0.5556 0.6693
vn 0.6880 0.0478 0.7241
vn 0.7034 0.4044 0.5846
vn 0.7102 0.3747 0.5960
vn 0.7596 0.6294 0.1640
vn 0.8892 0.2817 0.3607
vn 0.7332 0.5767 0.3603
vn 0.8095 0.5776 -0.1055
vn 0.7466 0.6653 0.0048
vn 0.9287 0.2375 0.2848
vn 0.9470 0.1204 0.2979
vn 0.9405 0.3300 0.0805
vn -0.1868 0.7528 0.6312
vn 0.5252 0.7052 0.4763
vn 0.6550 0.7555 -0.0146
vn 0.6133 0.7837 -0.0986
vn -0.1112 0.9896 -0.0910
vn 0.0305 -0.6319 -0.7744
vn 0.0083 -0.0333 -0.9994
vn 0.0154 -0.9984 0.0535
vn 0.2131 -0.9239 -0.3178
vn 0.0500 0.0100 -0.9987
vn 0.1543 -0.4381 -0.8856
vn 0.2489 -0.7345 -0.6313
vn 0.2250 -0.9191 -0.3234
vn 0.5689 -0.0248 -0.8220
vn 0.5714 -0.8002 -0.1823
vn 0.6017 -0.7982 0.0305
vn 0.4911 -0.3317 -0.8055
vn 0.3999 -0.1717 -0.9004
vn 0.5890 -0.5172 -0.6210
vn 0.6214 -0.5161 -0.5895
vn 0.6743 -0.6761 -0.2969
vn 0.8224 -0.1079 -0.5585
vn 0.7899 -0.2689 -0.5511
vn 0.7835 -0.0716 -0.6173
vn 0.8543 -0.5015 -0.1369
vn 0.9122 -0.3254 -0.2492
vn 0.9886 -0.0106 -0.1499
vn 0.0653 0.1985 -0.9779
vn 0.2199 0.3481 -0.9113
vn 0.1413 0.3369 -0.9309
vn 0.2797 0.6314 -0.7233
vn 0.4621 0.5055 -0.7287
vn 0.4620 0.4872 -0.7411
vn 0.7689 0.5193 -0.3730
vn 0.4798 0.1585 -0.8629
vn 0.4808 0.1559 -0.8628
vn 0.1643 0.7232 -0.6708
vn 0.5431 0.4399 -0.7152
vn 0.7991 0.5978 0.0641
vn 0.9246 0.3135 -0.2165
vn 0.7045 0.3626 -0.6101
vn 0.7784 0.1701 -0.6043
vn 0.6991 0.4126 -0.5840
vn 0.7933 0.2947 -0.5327
vn 0.9442 0.2553 -0.2080
vn 0.9188 0.2999 -0.2567
vn 0.9624 0.0866 -0.2574
vn 0.5860 0.7081 -0.3940
vn 0.3245 0.7213 -0.6119
s 0
usemtl Body
f 385//69 394//69 431//69
f 395//70 401//70 432//70
f 392//71 407//71 400//71
f 391//72 492//72 406//72
f 411//73 430//73 399//73
f 409//74 398//74 417//74
f 416//75 397//75 405//75
f 491//76 422//76 404//76
f 453//77 408//77 412//77
f 415//78 403//78 598//78
f 402//79 420//79 597//79
f 455//80 414//80 604//80
f 425//81 386//81 438//81
f 439//82 387//82 433//82
f 446//83 424//83 437//83
s 1
f 533//84 423//84 445//84
s 0
f 557//85 532//85 444//85
f 435//86 429//86 458//86
f 456//87 428//87 410//87
f 450//88 434//88 457//88
f 451//89 442//89 436//89
f 555//90 443//90 469//90
f 467//91 441//91 465//91
f 464//92 440//92 449//92
f 649//93 448//93 454//93
f 461//94 447//94 648//94
f 470//95 466//95 462//95
f 471//96 463//96 659//96
f 528//97 483//97 389//97
f 482//98 396//98 388//98
f 525//99 488//99 481//99
f 480//100 494//100 393//100
f 486//101 499//101 478//101
f 479//102 500//102 493//102
f 484//103 543//103 504//103
f 548//104 510//104 506//104
f 505//105 498//105 485//105
f 497//106 516//106 490//106
f 515//107 421//107 489//107
f 496//108 712//108 514//108
f 502//109 711//109 495//109
f 508//110 522//110 503//110
f 501//111 521//111 710//111
f 529//112 390//112 427//112
f 535//113 527//113 426//113
f 541//114 526//114 534//114
f 550//115 524//115 540//115
f 542//116 536//116 530//116
f 523//117 549//117 487//117
f 539//118 531//118 556//118
f 563//119 538//119 554//119
f 560//120 546//120 537//120
f 568//121 547//121 561//121
f 586//122 545//122 567//122
f 585//123 509//123 544//123
f 553//124 573//124 562//124
f 559//125 579//125 566//125
f 571//126 578//126 558//126
f 591//127 584//127 565//127
f 590//128 564//128 577//128
f 520//129 507//129 583//129
f 570//130 769//130 576//130
f 574//131 771//131 587//131
f 772//132 575//132 765//132
f 477//133 552//133 468//133
f 476//134 572//134 551//134
f 473//135 768//135 569//135
f 770//136 475//136 855//136
s 1
f 602//137 413//137 593//137
s 0
f 419//138 609//138 596//138
f 512//139 606//139 418//139
f 592//140 610//140 600//140
f 607//141 621//141 594//141
f 663//142 603//142 613//142
f 622//143 612//143 595//143
f 620//144 616//144 611//144
f 721//145 623//145 608//145
f 664//146 614//146 627//146
f 617//147 628//147 615//147
f 618//148 632//148 630//148
f 625//149 633//149 619//149
f 626//150 747//150 634//150
f 635//151 692//151 631//151
f 639//152 693//152 636//152
f 749//153 640//153 637//153
f 746//154 760//154 638//154
f 764//155 850//155 642//155
f 654//156 460//156 647//156
f 643//157 452//157 599//157
f 667//158 651//158 645//158
f 655//159 459//159 650//159
f 661//160 644//160 601//160
f 678//161 656//161 652//161
f 668//162 646//162 662//162
f 674//163 658//163 680//163
f 689//164 670//164 665//164
f 679//165 653//165 669//165
f 690//166 666//166 629//166
f 696//167 671//167 691//167
f 681//168 672//168 697//168
f 698//169 829//169 683//169
f 688//170 684//170 832//170
f 685//171 676//171 682//171
f 831//172 802//172 687//172
f 799//173 677//173 686//173
f 641//174 845//174 694//174
f 847//175 700//175 695//175
f 846//176 835//176 699//176
f 705//177 474//177 660//177
f 673//178 701//178 657//178
f 798//179 703//179 675//179
f 797//180 853//180 702//180
f 854//181 472//181 704//181
f 518//182 724//182 706//182
f 580//183 713//183 517//183
f 511//184 718//184 605//184
f 513//185 707//185 719//185
f 581//186 778//186 714//186
f 519//187 715//187 725//187
f 709//188 726//188 730//188
f 708//189 729//189 720//189
f 785//190 737//190 717//190
f 731//191 743//191 722//191
f 723//192 744//192 624//192
f 716//193 736//193 727//193
s 1
f 782//194 820//194 735//194
s 0
f 728//195 738//195 732//195
f 739//196 750//196 733//196
f 734//197 751//197 745//197
f 823//198 840//198 742//198
f 741//199 756//199 752//199
f 740//200 838//200 755//200
f 753//201 761//201 748//201
f 754//202 757//202 762//202
f 759//203 849//203 763//203
f 588//204 779//204 582//204
f 589//205 774//205 781//205
f 773//206 791//206 780//206
f 775//207 766//207 786//207
f 777//208 805//208 792//208
f 776//209 788//209 804//209
f 809//210 790//210 800//210
f 783//211 810//211 821//211
f 784//212 793//212 811//212
f 803//213 795//213 816//213
f 812//214 794//214 806//214
f 801//215 830//215 818//215
f 827//216 819//216 834//216
f 808//217 817//217 825//217
f 822//218 814//218 837//218
f 813//219 807//219 824//219
f 839//220 815//220 826//220
f 842//221 828//221 836//221
f 841//222 833//222 844//222
f 758//223 843//223 848//223
f 789//224 852//224 796//224
f 787//225 767//225 851//225
