# Blender 5.2.1 LTS
# www.blender.org
mtllib 0.mtl
o Text
v -1.022179 0.250000 0.997869
v -1.056936 0.250000 0.994924
v -1.089520 0.250000 0.986453
v -1.119545 0.250000 0.973003
v -1.146623 0.250000 0.955117
v -1.170368 0.250000 0.933343
v -1.190393 0.250000 0.908226
v -1.206311 0.250000 0.880311
v -1.217734 0.250000 0.850144
v -1.224277 0.250000 0.818271
v -1.225552 0.250000 0.785236
v -1.221172 0.250000 0.751587
v -1.210750 0.250000 0.717869
v -0.567893 0.250000 -0.873560
v -0.559163 0.250000 -0.892295
v -0.548766 0.250000 -0.909869
v -0.536821 0.250000 -0.926194
v -0.523448 0.250000 -0.941179
v -0.508766 0.250000 -0.954735
v -0.492893 0.250000 -0.966774
v -0.475948 0.250000 -0.977206
v -0.458052 0.250000 -0.985941
v -0.439321 0.250000 -0.992890
v -0.419877 0.250000 -0.997964
v -0.399837 0.250000 -1.001074
v -0.379321 0.250000 -1.002131
v 1.000679 0.250000 -1.002131
v 1.036036 0.250000 -0.999186
v 1.069012 0.250000 -0.990716
v 1.099250 0.250000 -0.977265
v 1.126393 0.250000 -0.959380
v 1.150083 0.250000 -0.937606
v 1.169964 0.250000 -0.912488
v 1.185679 0.250000 -0.884573
v 1.196869 0.250000 -0.854406
v 1.203179 0.250000 -0.822533
v 1.204250 0.250000 -0.789499
v 1.199726 0.250000 -0.755850
v 1.189250 0.250000 -0.722131
v 0.546393 0.250000 0.869297
v 0.537663 0.250000 0.888032
v 0.527266 0.250000 0.905607
v 0.515321 0.250000 0.921931
v 0.501948 0.250000 0.936916
v 0.487266 0.250000 0.950473
v 0.471393 0.250000 0.962512
v 0.454448 0.250000 0.972943
v 0.436552 0.250000 0.981678
v 0.417821 0.250000 0.988628
v 0.398377 0.250000 0.993702
v 0.378337 0.250000 0.996812
v 0.357821 0.250000 0.997869
v 0.000679 0.250000 -0.707845
v -0.567893 0.250000 0.703583
v -0.022179 0.250000 0.703583
v 0.546393 0.250000 -0.707845
v -1.022179 -0.250000 0.997869
v -1.056936 -0.250000 0.994924
v -1.089520 -0.250000 0.986453
v -1.119545 -0.250000 0.973003
v -1.146623 -0.250000 0.955117
v -1.170368 -0.250000 0.933343
v -1.190393 -0.250000 0.908226
v -1.206311 -0.250000 0.880311
v -1.217734 -0.250000 0.850144
v -1.224277 -0.250000 0.818271
v -1.225552 -0.250000 0.785236
v -1.221172 -0.250000 0.751587
v -1.210750 -0.250000 0.717869
v -0.567893 -0.250000 -0.873560
v -0.559163 -0.250000 -0.892295
v -0.548766 -0.250000 -0.909869
v -0.536821 -0.250000 -0.926194
v -0.523448 -0.250000 -0.941179
v -0.508766 -0.250000 -0.954735
v -0.492893 -0.250000 -0.966774
v -0.475948 -0.250000 -0.977206
v -0.458052 -0.250000 -0.985941
v -0.439321 -0.250000 -0.992890
v -0.419877 -0.250000 -0.997964
v -0.399837 -0.250000 -1.001074
v -0.379321 -0.250000 -1.002131
v 1.000679 -0.250000 -1.002131
v 1.036036 -0.250000 -0.999186
v 1.069012 -0.250000 -0.990716
v 1.099250 -0.250000 -0.977265
v 1.126393 -0.250000 -0.959380
v 1.150083 -0.250000 -0.937606
v 1.169964 -0.250000 -0.912488
v 1.185679 -0.250000 -0.884573
v 1.196869 -0.250000 -0.854406
v 1.203179 -0.250000 -0.822533
v 1.204250 -0.250000 -0.789499
v 1.199726 -0.250000 -0.755850
v 1.189250 -0.250000 -0.722131
v 0.546393 -0.250000 0.869297
v 0.537663 -0.250000 0.888032
v 0.527266 -0.250000 0.905607
v 0.515321 -0.250000 0.921931
v 0.501948 -0.250000 0.936916
v 0.487266 -0.250000 0.950473
v 0.471393 -0.250000 0.962512
v 0.454448 -0.250000 0.972943
v 0.436552 -0.250000 0.981678
v 0.417821 -0.250000 0.988628
v 0.398377 -0.250000 0.993702
v 0.378337 -0.250000 0.996812
v 0.357821 -0.250000 0.997869
v 0.000679 -0.250000 -0.707845
v -0.567893 -0.250000 0.703583
v -0.022179 -0.250000 0.703583
v 0.546393 -0.250000 -0.707845
v -1.022179 -0.250000 0.997869
v -1.022179 0.250000 0.997869
v -1.056936 -0.250000 0.994924
v -1.056936 0.250000 0.994924
v -1.089520 -0.250000 0.986453
v -1.089520 0.250000 0.986453
v -1.119545 -0.250000 0.973003
v -1.119545 0.250000 0.973003
v -1.146623 -0.250000 0.955117
v -1.146623 0.250000 0.955117
v -1.170368 -0.250000 0.933343
v -1.170368 0.250000 0.933343
v -1.190393 -0.250000 0.908226
v -1.190393 0.250000 0.908226
v -1.206311 -0.250000 0.880311
v -1.206311 0.250000 0.880311
v -1.217734 -0.250000 0.850144
v -1.217734 0.250000 0.850144
v -1.224277 -0.250000 0.818271
v -1.224277 0.250000 0.818271
v -1.225552 -0.250000 0.785236
v -1.225552 0.250000 0.785236
v -1.221172 -0.250000 0.751587
v -1.221172 0.250000 0.751587
v -1.210750 -0.250000 0.717869
v -1.210750 0.250000 0.717869
v -0.567893 -0.250000 -0.873560
v -0.567893 0.250000 -0.873560
v -0.559163 -0.250000 -0.892295
v -0.559163 0.250000 -0.892295
v -0.548766 -0.250000 -0.909869
v -0.548766 0.250000 -0.909869
v -0.536821 -0.250000 -0.926194
v -0.536821 0.250000 -0.926194
v -0.523448 -0.250000 -0.941179
v -0.523448 0.250000 -0.941179
v -0.508766 -0.250000 -0.954735
v -0.508766 0.250000 -0.954735
v -0.492893 -0.250000 -0.966774
v -0.492893 0.250000 -0.966774
v -0.475948 -0.250000 -0.977206
v -0.475948 0.250000 -0.977206
v -0.458052 -0.250000 -0.985941
v -0.458052 0.250000 -0.985941
v -0.439321 -0.250000 -0.992890
v -0.439321 0.250000 -0.992890
v -0.419877 -0.250000 -0.997964
v -0.419877 0.250000 -0.997964
v -0.399837 -0.250000 -1.001074
v -0.399837 0.250000 -1.001074
v -0.379321 -0.250000 -1.002131
v -0.379321 0.250000 -1.002131
v 1.000679 -0.250000 -1.002131
v 1.000679 0.250000 -1.002131
v 1.036036 -0.250000 -0.999186
v 1.036036 0.250000 -0.999186
v 1.069012 -0.250000 -0.990716
v 1.069012 0.250000 -0.990716
v 1.099250 -0.250000 -0.977265
v 1.099250 0.250000 -0.977265
v 1.126393 -0.250000 -0.959380
v 1.126393 0.250000 -0.959380
v 1.150083 -0.250000 -0.937606
v 1.150083 0.250000 -0.937606
v 1.169964 -0.250000 -0.912488
v 1.169964 0.250000 -0.912488
v 1.185679 -0.250000 -0.884573
v 1.185679 0.250000 -0.884573
v 1.196869 -0.250000 -0.854406
v 1.196869 0.250000 -0.854406
v 1.203179 -0.250000 -0.822533
v 1.203179 0.250000 -0.822533
v 1.204250 -0.250000 -0.789499
v 1.204250 0.250000 -0.789499
v 1.199726 -0.250000 -0.755850
v 1.199726 0.250000 -0.755850
v 1.189250 -0.250000 -0.722131
v 1.189250 0.250000 -0.722131
v 0.546393 -0.250000 0.869297
v 0.546393 0.250000 0.869297
v 0.537663 -0.250000 0.888032
v 0.537663 0.250000 0.888032
v 0.527266 -0.250000 0.905607
v 0.527266 0.250000 0.905607
v 0.515321 -0.250000 0.921931
v 0.515321 0.250000 0.921931
v 0.501948 -0.250000 0.936916
v 0.501948 0.250000 0.936916
v 0.487266 -0.250000 0.950473
v 0.487266 0.250000 0.950473
v 0.471393 -0.250000 0.962512
v 0.471393 0.250000 0.962512
v 0.454448 -0.250000 0.972943
v 0.454448 0.250000 0.972943
v 0.436552 -0.250000 0.981678
v 0.436552 0.250000 0.981678
v 0.417821 -0.250000 0.988628
v 0.417821 0.250000 0.988628
v 0.398377 -0.250000 0.993702
v 0.398377 0.250000 0.993702
v 0.378337 -0.250000 0.996812
v 0.378337 0.250000 0.996812
v 0.357821 -0.250000 0.997869
v 0.357821 0.250000 0.997869
v 0.000679 -0.250000 -0.707845
v 0.000679 0.250000 -0.707845
v -0.567893 -0.250000 0.703583
v -0.567893 0.250000 0.703583
v -0.022179 -0.250000 0.703583
v -0.022179 0.250000 0.703583
v 0.546393 -0.250000 -0.707845
v 0.546393 0.250000 -0.707845
vn -0.0000 1.0000 -0.0000
vn -0.0000 -1.0000 -0.0000
vn -0.1686 -0.0000 0.9857
vn -0.0422 -0.0000 0.9991
vn -0.3314 -0.0000 0.9435
vn -0.4816 -0.0000 0.8764
vn -0.6154 -0.0000 0.7882
vn -0.7311 -0.0000 0.6823
vn -0.8278 -0.0000 0.5610
vn -0.9047 -0.0000 0.4260
vn -0.9604 -0.0000 0.2785
vn -0.9927 -0.0000 0.1202
vn -0.9990 -0.0000 -0.0454
vn -0.9771 -0.0000 -0.2130
vn -0.9421 -0.0000 -0.3352
vn -0.9171 -0.0000 -0.3986
vn -0.8846 -0.0000 -0.4663
vn -0.8348 -0.0000 -0.5505
vn -0.7775 -0.0000 -0.6289
vn -0.7131 -0.0000 -0.7011
vn -0.6421 -0.0000 -0.7666
vn -0.5649 -0.0000 -0.8251
vn -0.4820 -0.0000 -0.8762
vn -0.3937 -0.0000 -0.9192
vn -0.3006 -0.0000 -0.9538
vn -0.2032 -0.0000 -0.9791
vn -0.1025 -0.0000 -0.9947
vn -0.0257 -0.0000 -0.9997
vn 0.0415 -0.0000 -0.9991
vn 0.1665 -0.0000 -0.9860
vn 0.3288 -0.0000 -0.9444
vn 0.4799 -0.0000 -0.8773
vn 0.6154 -0.0000 -0.7882
vn 0.7327 -0.0000 -0.6806
vn 0.8303 -0.0000 -0.5573
vn 0.9073 -0.0000 -0.4205
vn 0.9623 -0.0000 -0.2719
vn 0.9935 -0.0000 -0.1137
vn 0.9987 -0.0000 0.0506
vn 0.9765 -0.0000 0.2157
vn 0.9419 -0.0000 0.3359
vn 0.9171 -0.0000 0.3986
vn 0.8846 -0.0000 0.4663
vn 0.8348 -0.0000 0.5505
vn 0.7775 -0.0000 0.6289
vn 0.7131 -0.0000 0.7011
vn 0.6421 -0.0000 0.7666
vn 0.5649 -0.0000 0.8251
vn 0.4820 -0.0000 0.8762
vn 0.3937 -0.0000 0.9192
vn 0.3006 -0.0000 0.9538
vn 0.2032 -0.0000 0.9791
vn 0.1025 -0.0000 0.9947
vn 0.0257 -0.0000 0.9997
vn 0.8288 -0.0000 -0.5596
vn 0.5596 -0.0000 0.8287
vn -0.5596 -0.0000 -0.8287
vn -0.8288 -0.0000 0.5596
vt 0.181818 0.000000
vt 0.163636 0.000000
vt 0.200000 0.000000
vt 0.127273 0.000000
vt 0.109091 0.000000
vt 0.218182 0.000000
vt 0.145455 0.000000
vt 0.036364 0.000000
vt 0.018182 0.000000
vt 0.054545 0.000000
vt 0.072727 0.000000
vt 0.000000 0.000000
vt 0.090909 0.000000
vt 0.963636 0.000000
vt 0.436364 0.000000
vt 0.418182 0.000000
vt 0.454545 0.000000
vt 0.381818 0.000000
vt 0.363636 0.000000
vt 0.400000 0.000000
vt 0.254545 0.000000
vt 0.236364 0.000000
vt 0.272727 0.000000
vt 0.290909 0.000000
vt 0.309091 0.000000
vt 0.327273 0.000000
vt 0.345455 0.000000
vt 0.927273 0.000000
vt 0.909091 0.000000
vt 0.890909 0.000000
vt 0.872727 0.000000
vt 0.854545 0.000000
vt 0.836364 0.000000
vt 0.818182 0.000000
vt 0.800000 0.000000
vt 0.781818 0.000000
vt 0.763636 0.000000
vt 0.745455 0.000000
vt 0.727273 0.000000
vt 0.709091 0.000000
vt 0.527273 0.000000
vt 0.509091 0.000000
vt 0.545455 0.000000
vt 0.563636 0.000000
vt 0.490909 0.000000
vt 0.618182 0.000000
vt 0.672727 0.000000
vt 0.654545 0.000000
vt 0.636364 0.000000
vt 0.600000 0.000000
vt 0.472727 0.000000
vt 1.000000 0.000000
vt 0.690909 0.000000
vt 0.581818 0.000000
vt 0.981818 0.000000
vt 0.945455 0.000000
vt 0.019231 1.000000
vt 0.000000 1.000000
vt 0.038462 1.000000
vt 0.019231 0.000000
vt 0.057692 1.000000
vt 0.038462 0.000000
vt 0.076923 1.000000
vt 0.057692 0.000000
vt 0.096154 1.000000
vt 0.076923 0.000000
vt 0.115385 1.000000
vt 0.096154 0.000000
vt 0.134615 1.000000
vt 0.115385 0.000000
vt 0.153846 1.000000
vt 0.134615 0.000000
vt 0.173077 1.000000
vt 0.153846 0.000000
vt 0.192308 1.000000
vt 0.173077 0.000000
vt 0.211538 1.000000
vt 0.192308 0.000000
vt 0.230769 1.000000
vt 0.211538 0.000000
vt 0.250000 1.000000
vt 0.230769 0.000000
vt 0.269231 1.000000
vt 0.250000 0.000000
vt 0.288462 1.000000
vt 0.269231 0.000000
vt 0.307692 1.000000
vt 0.288462 0.000000
vt 0.326923 1.000000
vt 0.307692 0.000000
vt 0.346154 1.000000
vt 0.326923 0.000000
vt 0.365385 1.000000
vt 0.346154 0.000000
vt 0.384615 1.000000
vt 0.365385 0.000000
vt 0.403846 1.000000
vt 0.384615 0.000000
vt 0.423077 1.000000
vt 0.403846 0.000000
vt 0.442308 1.000000
vt 0.423077 0.000000
vt 0.461538 1.000000
vt 0.442308 0.000000
vt 0.480769 1.000000
vt 0.461538 0.000000
vt 0.500000 1.000000
vt 0.480769 0.000000
vt 0.519231 1.000000
vt 0.500000 0.000000
vt 0.538462 1.000000
vt 0.519231 0.000000
vt 0.557692 1.000000
vt 0.538462 0.000000
vt 0.576923 1.000000
vt 0.557692 0.000000
vt 0.596154 1.000000
vt 0.576923 0.000000
vt 0.615385 1.000000
vt 0.596154 0.000000
vt 0.634615 1.000000
vt 0.615385 0.000000
vt 0.653846 1.000000
vt 0.634615 0.000000
vt 0.673077 1.000000
vt 0.653846 0.000000
vt 0.692308 1.000000
vt 0.673077 0.000000
vt 0.711538 1.000000
vt 0.692308 0.000000
vt 0.730769 1.000000
vt 0.711538 0.000000
vt 0.750000 1.000000
vt 0.730769 0.000000
vt 0.769231 1.000000
vt 0.750000 0.000000
vt 0.788462 1.000000
vt 0.769231 0.000000
vt 0.807692 1.000000
vt 0.788462 0.000000
vt 0.826923 1.000000
vt 0.807692 0.000000
vt 0.846154 1.000000
vt 0.826923 0.000000
vt 0.865385 1.000000
vt 0.846154 0.000000
vt 0.884615 1.000000
vt 0.865385 0.000000
vt 0.903846 1.000000
vt 0.884615 0.000000
vt 0.923077 1.000000
vt 0.903846 0.000000
vt 0.942308 1.000000
vt 0.923077 0.000000
vt 0.961538 1.000000
vt 0.942308 0.000000
vt 0.980769 1.000000
vt 0.961538 0.000000
vt 1.000000 1.000000
vt 0.980769 0.000000
s 0
usemtl Number
f 11/1/1 10/2/1 12/3/1
f 8/4/1 7/5/1 13/6/1
f 12/3/1 10/2/1 9/7/1
f 9/7/1 8/4/1 12/3/1
f 8/4/1 13/6/1 12/3/1
f 3/8/1 2/9/1 4/10/1
f 5/11/1 4/10/1 2/9/1
f 2/9/1 1/12/1 5/11/1
f 6/13/1 5/11/1 1/12/1
f 6/13/1 1/12/1 7/5/1
f 13/6/1 7/5/1 1/12/1
f 1/12/1 54/14/1 13/6/1
f 25/15/1 24/16/1 26/17/1
f 22/18/1 21/19/1 26/17/1
f 23/20/1 22/18/1 26/17/1
f 26/17/1 24/16/1 23/20/1
f 15/21/1 14/22/1 26/17/1
f 16/23/1 15/21/1 26/17/1
f 17/24/1 16/23/1 26/17/1
f 18/25/1 17/24/1 26/17/1
f 19/26/1 18/25/1 26/17/1
f 20/27/1 19/26/1 26/17/1
f 26/17/1 21/19/1 20/27/1
f 13/6/1 54/14/1 14/22/1
f 52/28/1 51/29/1 50/30/1
f 50/30/1 49/31/1 52/28/1
f 49/31/1 48/32/1 52/28/1
f 48/32/1 47/33/1 52/28/1
f 52/28/1 47/33/1 46/34/1
f 46/34/1 45/35/1 52/28/1
f 45/35/1 44/36/1 52/28/1
f 44/36/1 43/37/1 52/28/1
f 43/37/1 42/38/1 52/28/1
f 42/38/1 41/39/1 52/28/1
f 41/39/1 40/40/1 52/28/1
f 30/41/1 29/42/1 31/43/1
f 32/44/1 31/43/1 28/45/1
f 31/43/1 29/42/1 28/45/1
f 35/46/1 38/47/1 37/48/1
f 37/48/1 36/49/1 35/46/1
f 38/47/1 35/46/1 34/50/1
f 27/51/1 56/52/1 39/53/1
f 39/53/1 38/47/1 27/51/1
f 28/45/1 27/51/1 38/47/1
f 38/47/1 34/50/1 28/45/1
f 34/50/1 33/54/1 28/45/1
f 32/44/1 28/45/1 33/54/1
f 39/53/1 56/52/1 40/40/1
f 54/14/1 1/12/1 52/28/1
f 55/55/1 54/14/1 52/28/1
f 52/28/1 40/40/1 55/55/1
f 40/40/1 56/52/1 55/55/1
f 14/22/1 54/14/1 53/56/1
f 26/17/1 14/22/1 53/56/1
f 53/56/1 56/52/1 26/17/1
f 56/52/1 27/51/1 26/17/1
f 67/1/2 68/3/2 66/2/2
f 64/4/2 69/6/2 63/5/2
f 68/3/2 65/7/2 66/2/2
f 65/7/2 68/3/2 64/4/2
f 64/4/2 68/3/2 69/6/2
f 59/8/2 60/10/2 58/9/2
f 61/11/2 58/9/2 60/10/2
f 58/9/2 61/11/2 57/12/2
f 62/13/2 57/12/2 61/11/2
f 62/13/2 63/5/2 57/12/2
f 69/6/2 57/12/2 63/5/2
f 57/12/2 69/6/2 110/14/2
f 81/15/2 82/17/2 80/16/2
f 78/18/2 82/17/2 77/19/2
f 79/20/2 82/17/2 78/18/2
f 82/17/2 79/20/2 80/16/2
f 71/21/2 82/17/2 70/22/2
f 72/23/2 82/17/2 71/21/2
f 73/24/2 82/17/2 72/23/2
f 74/25/2 82/17/2 73/24/2
f 75/26/2 82/17/2 74/25/2
f 76/27/2 82/17/2 75/26/2
f 82/17/2 76/27/2 77/19/2
f 69/6/2 70/22/2 110/14/2
f 108/28/2 106/30/2 107/29/2
f 106/30/2 108/28/2 105/31/2
f 105/31/2 108/28/2 104/32/2
f 104/32/2 108/28/2 103/33/2
f 108/28/2 102/34/2 103/33/2
f 102/34/2 108/28/2 101/35/2
f 101/35/2 108/28/2 100/36/2
f 100/36/2 108/28/2 99/37/2
f 99/37/2 108/28/2 98/38/2
f 98/38/2 108/28/2 97/39/2
f 97/39/2 108/28/2 96/40/2
f 86/41/2 87/43/2 85/42/2
f 88/44/2 84/45/2 87/43/2
f 87/43/2 84/45/2 85/42/2
f 91/46/2 93/48/2 94/47/2
f 93/48/2 91/46/2 92/49/2
f 94/47/2 90/50/2 91/46/2
f 83/51/2 95/53/2 112/52/2
f 95/53/2 83/51/2 94/47/2
f 84/45/2 94/47/2 83/51/2
f 94/47/2 84/45/2 90/50/2
f 90/50/2 84/45/2 89/54/2
f 88/44/2 89/54/2 84/45/2
f 95/53/2 96/40/2 112/52/2
f 110/14/2 108/28/2 57/12/2
f 111/55/2 108/28/2 110/14/2
f 108/28/2 111/55/2 96/40/2
f 96/40/2 111/55/2 112/52/2
f 70/22/2 109/56/2 110/14/2
f 82/17/2 109/56/2 70/22/2
f 109/56/2 82/17/2 112/52/2
f 112/52/2 82/17/2 83/51/2
s 1
f 116/57/3 113/12/4 114/58/4
f 118/59/5 115/60/3 116/57/3
f 120/61/6 117/62/5 118/59/5
f 122/63/7 119/64/6 120/61/6
f 124/65/8 121/66/7 122/63/7
f 126/67/9 123/68/8 124/65/8
f 128/69/10 125/70/9 126/67/9
f 130/71/11 127/72/10 128/69/10
f 132/73/12 129/74/11 130/71/11
f 134/75/13 131/76/12 132/73/12
f 136/77/14 133/78/13 134/75/13
f 138/79/15 135/80/14 136/77/14
f 140/81/16 137/82/15 138/79/15
f 142/83/17 139/84/16 140/81/16
f 144/85/18 141/86/17 142/83/17
f 146/87/19 143/88/18 144/85/18
f 148/89/20 145/90/19 146/87/19
f 150/91/21 147/92/20 148/89/20
f 152/93/22 149/94/21 150/91/21
f 154/95/23 151/96/22 152/93/22
f 156/97/24 153/98/23 154/95/23
f 158/99/25 155/100/24 156/97/24
f 160/101/26 157/102/25 158/99/25
f 162/103/27 159/104/26 160/101/26
f 164/105/28 161/106/27 162/103/27
f 166/107/29 163/108/28 164/105/28
f 168/109/30 165/110/29 166/107/29
f 170/111/31 167/112/30 168/109/30
f 172/113/32 169/114/31 170/111/31
f 174/115/33 171/116/32 172/113/32
f 176/117/34 173/118/33 174/115/33
f 178/119/35 175/120/34 176/117/34
f 180/121/36 177/122/35 178/119/35
f 182/123/37 179/124/36 180/121/36
f 184/125/38 181/126/37 182/123/37
f 186/127/39 183/128/38 184/125/38
f 188/129/40 185/130/39 186/127/39
f 190/131/41 187/132/40 188/129/40
f 192/133/42 189/134/41 190/131/41
f 194/135/43 191/136/42 192/133/42
f 196/137/44 193/138/43 194/135/43
f 198/139/45 195/140/44 196/137/44
f 200/141/46 197/142/45 198/139/45
f 202/143/47 199/144/46 200/141/46
f 204/145/48 201/146/47 202/143/47
f 206/147/49 203/148/48 204/145/48
f 208/149/50 205/150/49 206/147/49
f 210/151/51 207/152/50 208/149/50
f 212/153/52 209/154/51 210/151/51
f 214/155/53 211/156/52 212/153/52
f 216/157/54 213/158/53 214/155/53
f 114/159/4 215/160/54 216/157/54
f 220/81/55 217/12/56 218/58/56
f 222/107/57 219/84/55 220/81/55
f 224/133/58 221/110/57 222/107/57
f 218/159/56 223/136/58 224/133/58
f 116/57/3 115/60/3 113/12/4
f 118/59/5 117/62/5 115/60/3
f 120/61/6 119/64/6 117/62/5
f 122/63/7 121/66/7 119/64/6
f 124/65/8 123/68/8 121/66/7
f 126/67/9 125/70/9 123/68/8
f 128/69/10 127/72/10 125/70/9
f 130/71/11 129/74/11 127/72/10
f 132/73/12 131/76/12 129/74/11
f 134/75/13 133/78/13 131/76/12
f 136/77/14 135/80/14 133/78/13
f 138/79/15 137/82/15 135/80/14
f 140/81/16 139/84/16 137/82/15
f 142/83/17 141/86/17 139/84/16
f 144/85/18 143/88/18 141/86/17
f 146/87/19 145/90/19 143/88/18
f 148/89/20 147/92/20 145/90/19
f 150/91/21 149/94/21 147/92/20
f 152/93/22 151/96/22 149/94/21
f 154/95/23 153/98/23 151/96/22
f 156/97/24 155/100/24 153/98/23
f 158/99/25 157/102/25 155/100/24
f 160/101/26 159/104/26 157/102/25
f 162/103/27 161/106/27 159/104/26
f 164/105/28 163/108/28 161/106/27
f 166/107/29 165/110/29 163/108/28
f 168/109/30 167/112/30 165/110/29
f 170/111/31 169/114/31 167/112/30
f 172/113/32 171/116/32 169/114/31
f 174/115/33 173/118/33 171/116/32
f 176/117/34 175/120/34 173/118/33
f 178/119/35 177/122/35 175/120/34
f 180/121/36 179/124/36 177/122/35
f 182/123/37 181/126/37 179/124/36
f 184/125/38 183/128/38 181/126/37
f 186/127/39 185/130/39 183/128/38
f 188/129/40 187/132/40 185/130/39
f 190/131/41 189/134/41 187/132/40
f 192/133/42 191/136/42 189/134/41
f 194/135/43 193/138/43 191/136/42
f 196/137/44 195/140/44 193/138/43
f 198/139/45 197/142/45 195/140/44
f 200/141/46 199/144/46 197/142/45
f 202/143/47 201/146/47 199/144/46
f 204/145/48 203/148/48 201/146/47
f 206/147/49 205/150/49 203/148/48
f 208/149/50 207/152/50 205/150/49
f 210/151/51 209/154/51 207/152/50
f 212/153/52 211/156/52 209/154/51
f 214/155/53 213/158/53 211/156/52
f 216/157/54 215/160/54 213/158/53
f 114/159/4 113/52/4 215/160/54
f 220/81/55 219/84/55 217/12/56
f 222/107/57 221/110/57 219/84/55
f 224/133/58 223/136/58 221/110/57
f 218/159/56 217/52/56 223/136/58
