# Blender 5.2.1 LTS
# www.blender.org
mtllib 1.mtl
o Text.001
v -0.055270 0.250000 0.997869
v -0.689556 0.250000 0.997869
v -0.000984 0.250000 -0.707845
v -0.303841 0.250000 -0.707845
v -0.183841 0.250000 -1.002131
v 0.753302 0.250000 -1.002131
v -0.055270 -0.250000 0.997869
v -0.689556 -0.250000 0.997869
v -0.000984 -0.250000 -0.707845
v -0.303841 -0.250000 -0.707845
v -0.183841 -0.250000 -1.002131
v 0.753302 -0.250000 -1.002131
v -0.055270 -0.250000 0.997869
v -0.055270 0.250000 0.997869
v -0.689556 -0.250000 0.997869
v -0.689556 0.250000 0.997869
v -0.000984 -0.250000 -0.707845
v -0.000984 0.250000 -0.707845
v -0.303841 -0.250000 -0.707845
v -0.303841 0.250000 -0.707845
v -0.183841 -0.250000 -1.002131
v -0.183841 0.250000 -1.002131
v 0.753302 -0.250000 -1.002131
v 0.753302 0.250000 -1.002131
vn -0.0000 1.0000 -0.0000
vn -0.0000 -1.0000 -0.0000
vn -0.8290 -0.0000 0.5593
vn 0.5591 -0.0000 0.8291
vn -0.8289 -0.0000 0.5593
vn -0.8300 -0.0000 0.5578
vn -0.5578 -0.0000 -0.8299
vn -0.8299 -0.0000 0.5579
vn 0.8291 -0.0000 -0.5591
vt 0.400000 0.000000
vt 0.000000 0.000000
vt 1.000000 0.000000
vt 0.200000 0.000000
vt 0.800000 0.000000
vt 0.600000 0.000000
vt 0.166667 1.000000
vt 0.000000 1.000000
vt 0.333333 1.000000
vt 0.166667 0.000000
vt 0.500000 1.000000
vt 0.333333 0.000000
vt 0.666667 1.000000
vt 0.500000 0.000000
vt 0.833333 1.000000
vt 0.666667 0.000000
vt 1.000000 1.000000
vt 0.833333 0.000000
s 0
usemtl Number.001
f 3/1/1 1/2/1 6/3/1
f 1/2/1 3/1/1 2/4/1
f 5/5/1 4/6/1 3/1/1
f 3/1/1 6/3/1 5/5/1
f 9/1/2 12/3/2 7/2/2
f 7/2/2 8/4/2 9/1/2
f 11/5/2 9/1/2 10/6/2
f 9/1/2 11/5/2 12/3/2
s 1
f 16/7/3 13/2/4 14/8/4
f 18/9/5 15/10/5 16/7/3
f 20/11/6 17/12/3 18/9/5
f 22/13/7 19/14/8 20/11/6
f 24/15/9 21/16/7 22/13/7
f 14/17/4 23/18/9 24/15/9
f 16/7/3 15/10/5 13/2/4
f 18/9/5 17/12/3 15/10/5
f 20/11/6 19/14/8 17/12/3
f 22/13/7 21/16/7 19/14/8
f 24/15/9 23/18/9 21/16/7
f 14/17/4 13/3/4 23/18/9
