# Blender 5.2.1 LTS
# www.blender.org
mtllib 2.mtl
o Text.002
v 0.492107 0.250000 0.997869
v -1.325036 0.250000 0.997869
v -0.876464 0.250000 -0.113560
v -0.867734 0.250000 -0.132295
v -0.857337 0.250000 -0.149869
v -0.845393 0.250000 -0.166194
v -0.832020 0.250000 -0.181179
v -0.817337 0.250000 -0.194736
v -0.801464 0.250000 -0.206774
v -0.784520 0.250000 -0.217206
v -0.766623 0.250000 -0.225941
v -0.747893 0.250000 -0.232890
v -0.728448 0.250000 -0.237965
v -0.708409 0.250000 -0.241075
v -0.687893 0.250000 -0.242131
v 0.360679 0.250000 -0.242131
v 0.546393 0.250000 -0.707845
v -0.533607 0.250000 -0.707845
v -0.416464 0.250000 -1.002131
v 1.000679 0.250000 -1.002131
v 1.035435 0.250000 -0.999186
v 1.068020 0.250000 -0.990716
v 1.098045 0.250000 -0.977265
v 1.125123 0.250000 -0.959380
v 1.148868 0.250000 -0.937606
v 1.168893 0.250000 -0.912488
v 1.184811 0.250000 -0.884573
v 1.196234 0.250000 -0.854406
v 1.202777 0.250000 -0.822533
v 1.204052 0.250000 -0.789499
v 1.199672 0.250000 -0.755850
v 1.189250 0.250000 -0.722131
v 0.926393 0.250000 -0.073560
v 0.917663 0.250000 -0.054881
v 0.907266 0.250000 -0.037462
v 0.895321 0.250000 -0.021372
v 0.881948 0.250000 -0.006682
v 0.867266 0.250000 0.006541
v 0.851393 0.250000 0.018226
v 0.834448 0.250000 0.028304
v 0.816551 0.250000 0.036705
v 0.797821 0.250000 0.043360
v 0.778377 0.250000 0.048199
v 0.758337 0.250000 0.051154
v 0.737821 0.250000 0.052154
v -0.307893 0.250000 0.052154
v -0.570750 0.250000 0.703583
v 0.612107 0.250000 0.703583
v 0.492107 -0.250000 0.997869
v -1.325036 -0.250000 0.997869
v -0.876464 -0.250000 -0.113560
v -0.867734 -0.250000 -0.132295
v -0.857337 -0.250000 -0.149869
v -0.845393 -0.250000 -0.166194
v -0.832020 -0.250000 -0.181179
v -0.817337 -0.250000 -0.194736
v -0.801464 -0.250000 -0.206774
v -0.784520 -0.250000 -0.217206
v -0.766623 -0.250000 -0.225941
v -0.747893 -0.250000 -0.232890
v -0.728448 -0.250000 -0.237965
v -0.708409 -0.250000 -0.241075
v -0.687893 -0.250000 -0.242131
v 0.360679 -0.250000 -0.242131
v 0.546393 -0.250000 -0.707845
v -0.533607 -0.250000 -0.707845
v -0.416464 -0.250000 -1.002131
v 1.000679 -0.250000 -1.002131
v 1.035435 -0.250000 -0.999186
v 1.068020 -0.250000 -0.990716
v 1.098045 -0.250000 -0.977265
v 1.125123 -0.250000 -0.959380
v 1.148868 -0.250000 -0.937606
v 1.168893 -0.250000 -0.912488
v 1.184811 -0.250000 -0.884573
v 1.196234 -0.250000 -0.854406
v 1.202777 -0.250000 -0.822533
v 1.204052 -0.250000 -0.789499
v 1.199672 -0.250000 -0.755850
v 1.189250 -0.250000 -0.722131
v 0.926393 -0.250000 -0.073560
v 0.917663 -0.250000 -0.054881
v 0.907266 -0.250000 -0.037462
v 0.895321 -0.250000 -0.021372
v 0.881948 -0.250000 -0.006682
v 0.867266 -0.250000 0.006541
v 0.851393 -0.250000 0.018226
v 0.834448 -0.250000 0.028304
v 0.816551 -0.250000 0.036705
v 0.797821 -0.250000 0.043360
v 0.778377 -0.250000 0.048199
v 0.758337 -0.250000 0.051154
v 0.737821 -0.250000 0.052154
v -0.307893 -0.250000 0.052154
v -0.570750 -0.250000 0.703583
v 0.612107 -0.250000 0.703583
v 0.492107 -0.250000 0.997869
v 0.492107 0.250000 0.997869
v -1.325036 -0.250000 0.997869
v -1.325036 0.250000 0.997869
v -0.876464 -0.250000 -0.113560
v -0.876464 0.250000 -0.113560
v -0.867734 -0.250000 -0.132295
v -0.867734 0.250000 -0.132295
v -0.857337 -0.250000 -0.149869
v -0.857337 0.250000 -0.149869
v -0.845393 -0.250000 -0.166194
v -0.845393 0.250000 -0.166194
v -0.832020 -0.250000 -0.181179
v -0.832020 0.250000 -0.181179
v -0.817337 -0.250000 -0.194736
v -0.817337 0.250000 -0.194736
v -0.801464 -0.250000 -0.206774
v -0.801464 0.250000 -0.206774
v -0.784520 -0.250000 -0.217206
v -0.784520 0.250000 -0.217206
v -0.766623 -0.250000 -0.225941
v -0.766623 0.250000 -0.225941
v -0.747893 -0.250000 -0.232890
v -0.747893 0.250000 -0.232890
v -0.728448 -0.250000 -0.237965
v -0.728448 0.250000 -0.237965
v -0.708409 -0.250000 -0.241075
v -0.708409 0.250000 -0.241075
v -0.687893 -0.250000 -0.242131
v -0.687893 0.250000 -0.242131
v 0.360679 -0.250000 -0.242131
v 0.360679 0.250000 -0.242131
v 0.546393 -0.250000 -0.707845
v 0.546393 0.250000 -0.707845
v -0.533607 -0.250000 -0.707845
v -0.533607 0.250000 -0.707845
v -0.416464 -0.250000 -1.002131
v -0.416464 0.250000 -1.002131
v 1.000679 -0.250000 -1.002131
v 1.000679 0.250000 -1.002131
v 1.035435 -0.250000 -0.999186
v 1.035435 0.250000 -0.999186
v 1.068020 -0.250000 -0.990716
v 1.068020 0.250000 -0.990716
v 1.098045 -0.250000 -0.977265
v 1.098045 0.250000 -0.977265
v 1.125123 -0.250000 -0.959380
v 1.125123 0.250000 -0.959380
v 1.148868 -0.250000 -0.937606
v 1.148868 0.250000 -0.937606
v 1.168893 -0.250000 -0.912488
v 1.168893 0.250000 -0.912488
v 1.184811 -0.250000 -0.884573
v 1.184811 0.250000 -0.884573
v 1.196234 -0.250000 -0.854406
v 1.196234 0.250000 -0.854406
v 1.202777 -0.250000 -0.822533
v 1.202777 0.250000 -0.822533
v 1.204052 -0.250000 -0.789499
v 1.204052 0.250000 -0.789499
v 1.199672 -0.250000 -0.755850
v 1.199672 0.250000 -0.755850
v 1.189250 -0.250000 -0.722131
v 1.189250 0.250000 -0.722131
v 0.926393 -0.250000 -0.073560
v 0.926393 0.250000 -0.073560
v 0.917663 -0.250000 -0.054881
v 0.917663 0.250000 -0.054881
v 0.907266 -0.250000 -0.037462
v 0.907266 0.250000 -0.037462
v 0.895321 -0.250000 -0.021372
v 0.895321 0.250000 -0.021372
v 0.881948 -0.250000 -0.006682
v 0.881948 0.250000 -0.006682
v 0.867266 -0.250000 0.006541
v 0.867266 0.250000 0.006541
v 0.851393 -0.250000 0.018226
v 0.851393 0.250000 0.018226
v 0.834448 -0.250000 0.028304
v 0.834448 0.250000 0.028304
v 0.816551 -0.250000 0.036705
v 0.816551 0.250000 0.036705
v 0.797821 -0.250000 0.043360
v 0.797821 0.250000 0.043360
v 0.778377 -0.250000 0.048199
v 0.778377 0.250000 0.048199
v 0.758337 -0.250000 0.051154
v 0.758337 0.250000 0.051154
v 0.737821 -0.250000 0.052154
v 0.737821 0.250000 0.052154
v -0.307893 -0.250000 0.052154
v -0.307893 0.250000 0.052154
v -0.570750 -0.250000 0.703583
v -0.570750 0.250000 0.703583
v 0.612107 -0.250000 0.703583
v 0.612107 0.250000 0.703583
vn -0.0000 1.0000 -0.0000
vn -0.0000 -1.0000 -0.0000
vn -0.8289 -0.0000 0.5593
vn 0.5579 -0.0000 0.8299
vn 0.5578 -0.0000 0.8299
vn -0.9172 -0.0000 -0.3985
vn -0.8290 -0.0000 0.5593
vn -0.8846 -0.0000 -0.4663
vn -0.8348 -0.0000 -0.5505
vn -0.7775 -0.0000 -0.6289
vn -0.7131 -0.0000 -0.7011
vn -0.6421 -0.0000 -0.7666
vn -0.5649 -0.0000 -0.8251
vn -0.4820 -0.0000 -0.8762
vn -0.3937 -0.0000 -0.9192
vn -0.3006 -0.0000 -0.9538
vn -0.2032 -0.0000 -0.9791
vn -0.1025 -0.0000 -0.9947
vn -0.0257 -0.0000 -0.9997
vn -0.5611 -0.0000 -0.8278
vn -0.8278 -0.0000 0.5611
vn -0.8276 -0.0000 0.5614
vn -0.8277 -0.0000 0.5611
vn -0.5613 -0.0000 -0.8276
vn 0.0422 -0.0000 -0.9991
vn 0.1686 -0.0000 -0.9857
vn 0.3314 -0.0000 -0.9435
vn 0.4816 -0.0000 -0.8764
vn 0.6154 -0.0000 -0.7882
vn 0.7311 -0.0000 -0.6823
vn 0.8278 -0.0000 -0.5610
vn 0.9047 -0.0000 -0.4260
vn 0.9604 -0.0000 -0.2785
vn 0.9927 -0.0000 -0.1202
vn 0.9990 -0.0000 0.0454
vn 0.9771 -0.0000 0.2130
vn 0.9419 -0.0000 0.3358
vn 0.9167 -0.0000 0.3997
vn 0.8834 -0.0000 0.4686
vn 0.9167 -0.0000 0.3996
vn 0.8319 -0.0000 0.5550
vn 0.7722 -0.0000 0.6354
vn 0.7052 -0.0000 0.7090
vn 0.6318 -0.0000 0.7751
vn 0.5527 -0.0000 0.8334
vn 0.4686 -0.0000 0.8834
vn 0.3803 -0.0000 0.9249
vn 0.2885 -0.0000 0.9575
vn 0.1939 -0.0000 0.9810
vn 0.0974 -0.0000 0.9952
vn 0.0244 -0.0000 0.9997
vn 0.5594 -0.0000 0.8289
vn 0.8289 -0.0000 -0.5594
vn 0.8299 -0.0000 -0.5579
vt 0.297872 0.000000
vt 0.957447 0.000000
vt 0.319149 0.000000
vt 0.936170 0.000000
vt 0.000000 0.000000
vt 1.000000 0.000000
vt 0.978723 0.000000
vt 0.382979 0.000000
vt 0.361702 0.000000
vt 0.340426 0.000000
vt 0.021277 0.000000
vt 0.042553 0.000000
vt 0.063830 0.000000
vt 0.085106 0.000000
vt 0.106383 0.000000
vt 0.127660 0.000000
vt 0.148936 0.000000
vt 0.170213 0.000000
vt 0.191489 0.000000
vt 0.212766 0.000000
vt 0.234043 0.000000
vt 0.255319 0.000000
vt 0.276596 0.000000
vt 0.765957 0.000000
vt 0.744681 0.000000
vt 0.787234 0.000000
vt 0.723404 0.000000
vt 0.808511 0.000000
vt 0.702128 0.000000
vt 0.829787 0.000000
vt 0.851064 0.000000
vt 0.680851 0.000000
vt 0.872340 0.000000
vt 0.893617 0.000000
vt 0.446809 0.000000
vt 0.425532 0.000000
vt 0.468085 0.000000
vt 0.489362 0.000000
vt 0.595745 0.000000
vt 0.638298 0.000000
vt 0.617021 0.000000
vt 0.553191 0.000000
vt 0.659574 0.000000
vt 0.574468 0.000000
vt 0.531915 0.000000
vt 0.404255 0.000000
vt 0.510638 0.000000
vt 0.914894 0.000000
vt 0.020833 1.000000
vt 0.000000 1.000000
vt 0.041667 1.000000
vt 0.020833 0.000000
vt 0.062500 1.000000
vt 0.041667 0.000000
vt 0.083333 1.000000
vt 0.062500 0.000000
vt 0.104167 1.000000
vt 0.083333 0.000000
vt 0.125000 1.000000
vt 0.104167 0.000000
vt 0.145833 1.000000
vt 0.125000 0.000000
vt 0.166667 1.000000
vt 0.145833 0.000000
vt 0.187500 1.000000
vt 0.166667 0.000000
vt 0.208333 1.000000
vt 0.187500 0.000000
vt 0.229167 1.000000
vt 0.208333 0.000000
vt 0.250000 1.000000
vt 0.229167 0.000000
vt 0.270833 1.000000
vt 0.250000 0.000000
vt 0.291667 1.000000
vt 0.270833 0.000000
vt 0.312500 1.000000
vt 0.291667 0.000000
vt 0.333333 1.000000
vt 0.312500 0.000000
vt 0.354167 1.000000
vt 0.333333 0.000000
vt 0.375000 1.000000
vt 0.354167 0.000000
vt 0.395833 1.000000
vt 0.375000 0.000000
vt 0.416667 1.000000
vt 0.395833 0.000000
vt 0.437500 1.000000
vt 0.416667 0.000000
vt 0.458333 1.000000
vt 0.437500 0.000000
vt 0.479167 1.000000
vt 0.458333 0.000000
vt 0.500000 1.000000
vt 0.479167 0.000000
vt 0.520833 1.000000
vt 0.500000 0.000000
vt 0.541667 1.000000
vt 0.520833 0.000000
vt 0.562500 1.000000
vt 0.541667 0.000000
vt 0.583333 1.000000
vt 0.562500 0.000000
vt 0.604167 1.000000
vt 0.583333 0.000000
vt 0.625000 1.000000
vt 0.604167 0.000000
vt 0.645833 1.000000
vt 0.625000 0.000000
vt 0.666667 1.000000
vt 0.645833 0.000000
vt 0.687500 1.000000
vt 0.666667 0.000000
vt 0.708333 1.000000
vt 0.687500 0.000000
vt 0.729167 1.000000
vt 0.708333 0.000000
vt 0.750000 1.000000
vt 0.729167 0.000000
vt 0.770833 1.000000
vt 0.750000 0.000000
vt 0.791667 1.000000
vt 0.770833 0.000000
vt 0.812500 1.000000
vt 0.791667 0.000000
vt 0.833333 1.000000
vt 0.812500 0.000000
vt 0.854167 1.000000
vt 0.833333 0.000000
vt 0.875000 1.000000
vt 0.854167 0.000000
vt 0.895833 1.000000
vt 0.875000 0.000000
vt 0.916667 1.000000
vt 0.895833 0.000000
vt 0.937500 1.000000
vt 0.916667 0.000000
vt 0.958333 1.000000
vt 0.937500 0.000000
vt 0.979167 1.000000
vt 0.958333 0.000000
vt 1.000000 1.000000
vt 0.979167 0.000000
s 0
usemtl Number
f 15/1/1 46/2/1 16/3/1
f 45/4/1 16/3/1 46/2/1
f 1/5/1 48/6/1 47/7/1
f 19/8/1 18/9/1 17/10/1
f 1/5/1 47/7/1 2/11/1
f 3/12/1 2/11/1 47/7/1
f 47/7/1 46/2/1 3/12/1
f 46/2/1 15/1/1 3/12/1
f 4/13/1 3/12/1 15/1/1
f 5/14/1 4/13/1 15/1/1
f 6/15/1 5/14/1 15/1/1
f 7/16/1 6/15/1 15/1/1
f 8/17/1 7/16/1 15/1/1
f 9/18/1 8/17/1 15/1/1
f 10/19/1 9/18/1 15/1/1
f 11/20/1 10/19/1 15/1/1
f 12/21/1 11/20/1 15/1/1
f 13/22/1 12/21/1 15/1/1
f 15/1/1 14/23/1 13/22/1
f 37/24/1 36/25/1 38/26/1
f 36/25/1 35/27/1 38/26/1
f 39/28/1 38/26/1 35/27/1
f 35/27/1 34/29/1 39/28/1
f 40/30/1 39/28/1 34/29/1
f 41/31/1 40/30/1 34/29/1
f 34/29/1 33/32/1 41/31/1
f 42/33/1 41/31/1 33/32/1
f 43/34/1 42/33/1 33/32/1
f 22/35/1 21/36/1 23/37/1
f 23/37/1 21/36/1 24/38/1
f 29/39/1 31/40/1 30/41/1
f 27/42/1 32/43/1 31/40/1
f 28/44/1 27/42/1 31/40/1
f 31/40/1 29/39/1 28/44/1
f 32/43/1 27/42/1 26/45/1
f 32/43/1 26/45/1 20/46/1
f 26/45/1 25/47/1 20/46/1
f 25/47/1 24/38/1 20/46/1
f 24/38/1 21/36/1 20/46/1
f 43/34/1 33/32/1 44/48/1
f 45/4/1 44/48/1 33/32/1
f 16/3/1 45/4/1 33/32/1
f 17/10/1 16/3/1 33/32/1
f 33/32/1 32/43/1 17/10/1
f 32/43/1 20/46/1 17/10/1
f 19/8/1 17/10/1 20/46/1
f 63/1/2 64/3/2 94/2/2
f 93/4/2 94/2/2 64/3/2
f 49/5/2 95/7/2 96/6/2
f 67/8/2 65/10/2 66/9/2
f 49/5/2 50/11/2 95/7/2
f 51/12/2 95/7/2 50/11/2
f 95/7/2 51/12/2 94/2/2
f 94/2/2 51/12/2 63/1/2
f 52/13/2 63/1/2 51/12/2
f 53/14/2 63/1/2 52/13/2
f 54/15/2 63/1/2 53/14/2
f 55/16/2 63/1/2 54/15/2
f 56/17/2 63/1/2 55/16/2
f 57/18/2 63/1/2 56/17/2
f 58/19/2 63/1/2 57/18/2
f 59/20/2 63/1/2 58/19/2
f 60/21/2 63/1/2 59/20/2
f 61/22/2 63/1/2 60/21/2
f 63/1/2 61/22/2 62/23/2
f 85/24/2 86/26/2 84/25/2
f 84/25/2 86/26/2 83/27/2
f 87/28/2 83/27/2 86/26/2
f 83/27/2 87/28/2 82/29/2
f 88/30/2 82/29/2 87/28/2
f 89/31/2 82/29/2 88/30/2
f 82/29/2 89/31/2 81/32/2
f 90/33/2 81/32/2 89/31/2
f 91/34/2 81/32/2 90/33/2
f 70/35/2 71/37/2 69/36/2
f 71/37/2 72/38/2 69/36/2
f 77/39/2 78/41/2 79/40/2
f 75/42/2 79/40/2 80/43/2
f 76/44/2 79/40/2 75/42/2
f 79/40/2 76/44/2 77/39/2
f 80/43/2 74/45/2 75/42/2
f 80/43/2 68/46/2 74/45/2
f 74/45/2 68/46/2 73/47/2
f 73/47/2 68/46/2 72/38/2
f 72/38/2 68/46/2 69/36/2
f 91/34/2 92/48/2 81/32/2
f 93/4/2 81/32/2 92/48/2
f 64/3/2 81/32/2 93/4/2
f 65/10/2 81/32/2 64/3/2
f 81/32/2 65/10/2 80/43/2
f 80/43/2 65/10/2 68/46/2
f 67/8/2 68/46/2 65/10/2
s 1
f 100/49/3 97/5/4 98/50/5
f 102/51/6 99/52/7 100/49/3
f 104/53/8 101/54/6 102/51/6
f 106/55/9 103/56/8 104/53/8
f 108/57/10 105/58/9 106/55/9
f 110/59/11 107/60/10 108/57/10
f 112/61/12 109/62/11 110/59/11
f 114/63/13 111/64/12 112/61/12
f 116/65/14 113/66/13 114/63/13
f 118/67/15 115/68/14 116/65/14
f 120/69/16 117/70/15 118/67/15
f 122/71/17 119/72/16 120/69/16
f 124/73/18 121/74/17 122/71/17
f 126/75/19 123/76/18 124/73/18
f 128/77/20 125/78/19 126/75/19
f 130/79/21 127/80/20 128/77/20
f 132/81/22 129/82/23 130/79/21
f 134/83/24 131/84/22 132/81/22
f 136/85/25 133/86/24 134/83/24
f 138/87/26 135/88/25 136/85/25
f 140/89/27 137/90/26 138/87/26
f 142/91/28 139/92/27 140/89/27
f 144/93/29 141/94/28 142/91/28
f 146/95/30 143/96/29 144/93/29
f 148/97/31 145/98/30 146/95/30
f 150/99/32 147/100/31 148/97/31
f 152/101/33 149/102/32 150/99/32
f 154/103/34 151/104/33 152/101/33
f 156/105/35 153/106/34 154/103/34
f 158/107/36 155/108/35 156/105/35
f 160/109/37 157/110/36 158/107/36
f 162/111/38 159/112/37 160/109/37
f 164/113/39 161/114/40 162/111/38
f 166/115/41 163/116/39 164/113/39
f 168/117/42 165/118/41 166/115/41
f 170/119/43 167/120/42 168/117/42
f 172/121/44 169/122/43 170/119/43
f 174/123/45 171/124/44 172/121/44
f 176/125/46 173/126/45 174/123/45
f 178/127/47 175/128/46 176/125/46
f 180/129/48 177/130/47 178/127/47
f 182/131/49 179/132/48 180/129/48
f 184/133/50 181/134/49 182/131/49
f 186/135/51 183/136/50 184/133/50
f 188/137/52 185/138/51 186/135/51
f 190/139/53 187/140/52 188/137/52
f 192/141/54 189/142/53 190/139/53
f 98/143/5 191/144/54 192/141/54
f 100/49/3 99/52/7 97/5/4
f 102/51/6 101/54/6 99/52/7
f 104/53/8 103/56/8 101/54/6
f 106/55/9 105/58/9 103/56/8
f 108/57/10 107/60/10 105/58/9
f 110/59/11 109/62/11 107/60/10
f 112/61/12 111/64/12 109/62/11
f 114/63/13 113/66/13 111/64/12
f 116/65/14 115/68/14 113/66/13
f 118/67/15 117/70/15 115/68/14
f 120/69/16 119/72/16 117/70/15
f 122/71/17 121/74/17 119/72/16
f 124/73/18 123/76/18 121/74/17
f 126/75/19 125/78/19 123/76/18
f 128/77/20 127/80/20 125/78/19
f 130/79/21 129/82/23 127/80/20
f 132/81/22 131/84/22 129/82/23
f 134/83/24 133/86/24 131/84/22
f 136/85/25 135/88/25 133/86/24
f 138/87/26 137/90/26 135/88/25
f 140/89/27 139/92/27 137/90/26
f 142/91/28 141/94/28 139/92/27
f 144/93/29 143/96/29 141/94/28
f 146/95/30 145/98/30 143/96/29
f 148/97/31 147/100/31 145/98/30
f 150/99/32 149/102/32 147/100/31
f 152/101/33 151/104/33 149/102/32
f 154/103/34 153/106/34 151/104/33
f 156/105/35 155/108/35 153/106/34
f 158/107/36 157/110/36 155/108/35
f 160/109/37 159/112/37 157/110/36
f 162/111/38 161/114/40 159/112/37
f 164/113/39 163/116/39 161/114/40
f 166/115/41 165/118/41 163/116/39
f 168/117/42 167/120/42 165/118/41
f 170/119/43 169/122/43 167/120/42
f 172/121/44 171/124/44 169/122/43
f 174/123/45 173/126/45 171/124/44
f 176/125/46 175/128/46 173/126/45
f 178/127/47 177/130/47 175/128/46
f 180/129/48 179/132/48 177/130/47
f 182/131/49 181/134/49 179/132/48
f 184/133/50 183/136/50 181/134/49
f 186/135/51 185/138/51 183/136/50
f 188/137/52 187/140/52 185/138/51
f 190/139/53 189/142/53 187/140/52
f 192/141/54 191/144/54 189/142/53
f 98/143/5 97/6/4 191/144/54
