# Blender 5.2.1 LTS
# www.blender.org
mtllib 3.mtl
o Text.003
v 0.357821 0.250000 0.997869
v -1.325036 0.250000 0.997869
v -1.205036 0.250000 0.703583
v -0.022179 0.250000 0.703583
v 0.240679 0.250000 0.052154
v -0.739321 0.250000 0.052154
v -0.619321 0.250000 -0.242131
v 0.357821 0.250000 -0.242131
v 0.546393 0.250000 -0.707845
v -0.636464 0.250000 -0.707845
v -0.516464 0.250000 -1.002131
v 1.000679 0.250000 -1.002131
v 1.035435 0.250000 -0.999186
v 1.068020 0.250000 -0.990716
v 1.098045 0.250000 -0.977265
v 1.125123 0.250000 -0.959380
v 1.148868 0.250000 -0.937606
v 1.168893 0.250000 -0.912488
v 1.184811 0.250000 -0.884573
v 1.196234 0.250000 -0.854406
v 1.202777 0.250000 -0.822533
v 1.204052 0.250000 -0.789499
v 1.199672 0.250000 -0.755850
v 1.189250 0.250000 -0.722131
v 0.546393 0.250000 0.869297
v 0.537663 0.250000 0.888032
v 0.527266 0.250000 0.905607
v 0.515321 0.250000 0.921931
v 0.501948 0.250000 0.936916
v 0.487266 0.250000 0.950473
v 0.471393 0.250000 0.962512
v 0.454448 0.250000 0.972943
v 0.436552 0.250000 0.981678
v 0.417821 0.250000 0.988628
v 0.398377 0.250000 0.993702
v 0.378337 0.250000 0.996812
v 0.357821 -0.250000 0.997869
v -1.325036 -0.250000 0.997869
v -1.205036 -0.250000 0.703583
v -0.022179 -0.250000 0.703583
v 0.240679 -0.250000 0.052154
v -0.739321 -0.250000 0.052154
v -0.619321 -0.250000 -0.242131
v 0.357821 -0.250000 -0.242131
v 0.546393 -0.250000 -0.707845
v -0.636464 -0.250000 -0.707845
v -0.516464 -0.250000 -1.002131
v 1.000679 -0.250000 -1.002131
v 1.035435 -0.250000 -0.999186
v 1.068020 -0.250000 -0.990716
v 1.098045 -0.250000 -0.977265
v 1.125123 -0.250000 -0.959380
v 1.148868 -0.250000 -0.937606
v 1.168893 -0.250000 -0.912488
v 1.184811 -0.250000 -0.884573
v 1.196234 -0.250000 -0.854406
v 1.202777 -0.250000 -0.822533
v 1.204052 -0.250000 -0.789499
v 1.199672 -0.250000 -0.755850
v 1.189250 -0.250000 -0.722131
v 0.546393 -0.250000 0.869297
v 0.537663 -0.250000 0.888032
v 0.527266 -0.250000 0.905607
v 0.515321 -0.250000 0.921931
v 0.501948 -0.250000 0.936916
v 0.487266 -0.250000 0.950473
v 0.471393 -0.250000 0.962512
v 0.454448 -0.250000 0.972943
v 0.436552 -0.250000 0.981678
v 0.417821 -0.250000 0.988628
v 0.398377 -0.250000 0.993702
v 0.378337 -0.250000 0.996812
v 0.357821 -0.250000 0.997869
v 0.357821 0.250000 0.997869
v -1.325036 -0.250000 0.997869
v -1.325036 0.250000 0.997869
v -1.205036 -0.250000 0.703583
v -1.205036 0.250000 0.703583
v -0.022179 -0.250000 0.703583
v -0.022179 0.250000 0.703583
v 0.240679 -0.250000 0.052154
v 0.240679 0.250000 0.052154
v -0.739321 -0.250000 0.052154
v -0.739321 0.250000 0.052154
v -0.619321 -0.250000 -0.242131
v -0.619321 0.250000 -0.242131
v 0.357821 -0.250000 -0.242131
v 0.357821 0.250000 -0.242131
v 0.546393 -0.250000 -0.707845
v 0.546393 0.250000 -0.707845
v -0.636464 -0.250000 -0.707845
v -0.636464 0.250000 -0.707845
v -0.516464 -0.250000 -1.002131
v -0.516464 0.250000 -1.002131
v 1.000679 -0.250000 -1.002131
v 1.000679 0.250000 -1.002131
v 1.035435 -0.250000 -0.999186
v 1.035435 0.250000 -0.999186
v 1.068020 -0.250000 -0.990716
v 1.068020 0.250000 -0.990716
v 1.098045 -0.250000 -0.977265
v 1.098045 0.250000 -0.977265
v 1.125123 -0.250000 -0.959380
v 1.125123 0.250000 -0.959380
v 1.148868 -0.250000 -0.937606
v 1.148868 0.250000 -0.937606
v 1.168893 -0.250000 -0.912488
v 1.168893 0.250000 -0.912488
v 1.184811 -0.250000 -0.884573
v 1.184811 0.250000 -0.884573
v 1.196234 -0.250000 -0.854406
v 1.196234 0.250000 -0.854406
v 1.202777 -0.250000 -0.822533
v 1.202777 0.250000 -0.822533
v 1.204052 -0.250000 -0.789499
v 1.204052 0.250000 -0.789499
v 1.199672 -0.250000 -0.755850
v 1.199672 0.250000 -0.755850
v 1.189250 -0.250000 -0.722131
v 1.189250 0.250000 -0.722131
v 0.546393 -0.250000 0.869297
v 0.546393 0.250000 0.869297
v 0.537663 -0.250000 0.888032
v 0.537663 0.250000 0.888032
v 0.527266 -0.250000 0.905607
v 0.527266 0.250000 0.905607
v 0.515321 -0.250000 0.921931
v 0.515321 0.250000 0.921931
v 0.501948 -0.250000 0.936916
v 0.501948 0.250000 0.936916
v 0.487266 -0.250000 0.950473
v 0.487266 0.250000 0.950473
v 0.471393 -0.250000 0.962512
v 0.471393 0.250000 0.962512
v 0.454448 -0.250000 0.972943
v 0.454448 0.250000 0.972943
v 0.436552 -0.250000 0.981678
v 0.436552 0.250000 0.981678
v 0.417821 -0.250000 0.988628
v 0.417821 0.250000 0.988628
v 0.398377 -0.250000 0.993702
v 0.398377 0.250000 0.993702
v 0.378337 -0.250000 0.996812
v 0.378337 0.250000 0.996812
vn -0.0000 1.0000 -0.0000
vn -0.0000 -1.0000 -0.0000
vn -0.8299 -0.0000 0.5579
vn 0.0257 -0.0000 0.9997
vn -0.5578 -0.0000 -0.8299
vn -0.5594 -0.0000 -0.8289
vn -0.8289 -0.0000 0.5594
vn -0.5589 -0.0000 -0.8293
vn -0.8292 -0.0000 0.5589
vn 0.0422 -0.0000 -0.9991
vn -0.5579 -0.0000 -0.8299
vn 0.1686 -0.0000 -0.9857
vn 0.3314 -0.0000 -0.9435
vn 0.4816 -0.0000 -0.8764
vn 0.6154 -0.0000 -0.7882
vn 0.7311 -0.0000 -0.6823
vn 0.8278 -0.0000 -0.5610
vn 0.9047 -0.0000 -0.4260
vn 0.9604 -0.0000 -0.2785
vn 0.9927 -0.0000 -0.1202
vn 0.9990 -0.0000 0.0454
vn 0.9771 -0.0000 0.2130
vn 0.9421 -0.0000 0.3352
vn 0.9171 -0.0000 0.3986
vn 0.8846 -0.0000 0.4663
vn 0.8348 -0.0000 0.5505
vn 0.7775 -0.0000 0.6289
vn 0.7131 -0.0000 0.7011
vn 0.6421 -0.0000 0.7666
vn 0.5649 -0.0000 0.8251
vn 0.4820 -0.0000 0.8762
vn 0.3937 -0.0000 0.9192
vn 0.3006 -0.0000 0.9538
vn 0.2032 -0.0000 0.9791
vn 0.1025 -0.0000 0.9947
vt 0.000000 0.000000
vt 0.085714 0.000000
vt 0.028571 0.000000
vt 0.057143 0.000000
vt 0.114286 0.000000
vt 0.171429 0.000000
vt 0.142857 0.000000
vt 1.000000 0.000000
vt 0.971429 0.000000
vt 0.942857 0.000000
vt 0.914286 0.000000
vt 0.885714 0.000000
vt 0.857143 0.000000
vt 0.828571 0.000000
vt 0.800000 0.000000
vt 0.200000 0.000000
vt 0.371429 0.000000
vt 0.342857 0.000000
vt 0.400000 0.000000
vt 0.571429 0.000000
vt 0.628571 0.000000
vt 0.600000 0.000000
vt 0.542857 0.000000
vt 0.514286 0.000000
vt 0.485714 0.000000
vt 0.657143 0.000000
vt 0.314286 0.000000
vt 0.228571 0.000000
vt 0.457143 0.000000
vt 0.428571 0.000000
vt 0.771429 0.000000
vt 0.742857 0.000000
vt 0.714286 0.000000
vt 0.685714 0.000000
vt 0.285714 0.000000
vt 0.257143 0.000000
vt 0.027778 1.000000
vt 0.000000 1.000000
vt 0.055556 1.000000
vt 0.027778 0.000000
vt 0.083333 1.000000
vt 0.055556 0.000000
vt 0.111111 1.000000
vt 0.083333 0.000000
vt 0.138889 1.000000
vt 0.111111 0.000000
vt 0.166667 1.000000
vt 0.138889 0.000000
vt 0.194444 1.000000
vt 0.166667 0.000000
vt 0.222222 1.000000
vt 0.194444 0.000000
vt 0.250000 1.000000
vt 0.222222 0.000000
vt 0.277778 1.000000
vt 0.250000 0.000000
vt 0.305556 1.000000
vt 0.277778 0.000000
vt 0.333333 1.000000
vt 0.305556 0.000000
vt 0.361111 1.000000
vt 0.333333 0.000000
vt 0.388889 1.000000
vt 0.361111 0.000000
vt 0.416667 1.000000
vt 0.388889 0.000000
vt 0.444444 1.000000
vt 0.416667 0.000000
vt 0.472222 1.000000
vt 0.444444 0.000000
vt 0.500000 1.000000
vt 0.472222 0.000000
vt 0.527778 1.000000
vt 0.500000 0.000000
vt 0.555556 1.000000
vt 0.527778 0.000000
vt 0.583333 1.000000
vt 0.555556 0.000000
vt 0.611111 1.000000
vt 0.583333 0.000000
vt 0.638889 1.000000
vt 0.611111 0.000000
vt 0.666667 1.000000
vt 0.638889 0.000000
vt 0.694444 1.000000
vt 0.666667 0.000000
vt 0.722222 1.000000
vt 0.694444 0.000000
vt 0.750000 1.000000
vt 0.722222 0.000000
vt 0.777778 1.000000
vt 0.750000 0.000000
vt 0.805556 1.000000
vt 0.777778 0.000000
vt 0.833333 1.000000
vt 0.805556 0.000000
vt 0.861111 1.000000
vt 0.833333 0.000000
vt 0.888889 1.000000
vt 0.861111 0.000000
vt 0.916667 1.000000
vt 0.888889 0.000000
vt 0.944444 1.000000
vt 0.916667 0.000000
vt 0.972222 1.000000
vt 0.944444 0.000000
vt 1.000000 1.000000
vt 0.972222 0.000000
s 0
f 1/1/1 4/2/1 2/3/1
f 3/4/1 2/3/1 4/2/1
f 5/5/1 7/6/1 6/7/1
f 36/8/1 35/9/1 1/1/1
f 35/9/1 34/10/1 1/1/1
f 34/10/1 33/11/1 1/1/1
f 33/11/1 32/12/1 1/1/1
f 32/12/1 31/13/1 1/1/1
f 31/13/1 30/14/1 1/1/1
f 30/14/1 29/15/1 1/1/1
f 7/6/1 5/5/1 8/16/1
f 14/17/1 13/18/1 15/19/1
f 21/20/1 23/21/1 22/22/1
f 23/21/1 21/20/1 20/23/1
f 19/24/1 18/25/1 24/26/1
f 24/26/1 23/21/1 19/24/1
f 23/21/1 20/23/1 19/24/1
f 12/27/1 9/28/1 24/26/1
f 24/26/1 18/25/1 12/27/1
f 18/25/1 17/29/1 12/27/1
f 17/29/1 16/30/1 12/27/1
f 13/18/1 12/27/1 16/30/1
f 15/19/1 13/18/1 16/30/1
f 1/1/1 29/15/1 28/31/1
f 28/31/1 27/32/1 1/1/1
f 27/32/1 26/33/1 1/1/1
f 26/33/1 25/34/1 1/1/1
f 4/2/1 1/1/1 25/34/1
f 5/5/1 4/2/1 25/34/1
f 8/16/1 5/5/1 25/34/1
f 25/34/1 24/26/1 8/16/1
f 24/26/1 9/28/1 8/16/1
f 11/35/1 10/36/1 9/28/1
f 9/28/1 12/27/1 11/35/1
f 37/1/2 38/3/2 40/2/2
f 39/4/2 40/2/2 38/3/2
f 41/5/2 42/7/2 43/6/2
f 72/8/2 37/1/2 71/9/2
f 71/9/2 37/1/2 70/10/2
f 70/10/2 37/1/2 69/11/2
f 69/11/2 37/1/2 68/12/2
f 68/12/2 37/1/2 67/13/2
f 67/13/2 37/1/2 66/14/2
f 66/14/2 37/1/2 65/15/2
f 43/6/2 44/16/2 41/5/2
f 50/17/2 51/19/2 49/18/2
f 57/20/2 58/22/2 59/21/2
f 59/21/2 56/23/2 57/20/2
f 55/24/2 60/26/2 54/25/2
f 60/26/2 55/24/2 59/21/2
f 59/21/2 55/24/2 56/23/2
f 48/27/2 60/26/2 45/28/2
f 60/26/2 48/27/2 54/25/2
f 54/25/2 48/27/2 53/29/2
f 53/29/2 48/27/2 52/30/2
f 49/18/2 52/30/2 48/27/2
f 51/19/2 52/30/2 49/18/2
f 37/1/2 64/31/2 65/15/2
f 64/31/2 37/1/2 63/32/2
f 63/32/2 37/1/2 62/33/2
f 62/33/2 37/1/2 61/34/2
f 40/2/2 61/34/2 37/1/2
f 41/5/2 61/34/2 40/2/2
f 44/16/2 61/34/2 41/5/2
f 61/34/2 44/16/2 60/26/2
f 60/26/2 44/16/2 45/28/2
f 47/35/2 45/28/2 46/36/2
f 45/28/2 47/35/2 48/27/2
s 1
f 76/37/3 73/1/4 74/38/4
f 78/39/5 75/40/3 76/37/3
f 80/41/6 77/42/5 78/39/5
f 82/43/7 79/44/6 80/41/6
f 84/45/3 81/46/7 82/43/7
f 86/47/5 83/48/3 84/45/3
f 88/49/8 85/50/5 86/47/5
f 90/51/9 87/52/8 88/49/8
f 92/53/3 89/54/9 90/51/9
f 94/55/5 91/56/3 92/53/3
f 96/57/10 93/58/11 94/55/5
f 98/59/12 95/60/10 96/57/10
f 100/61/13 97/62/12 98/59/12
f 102/63/14 99/64/13 100/61/13
f 104/65/15 101/66/14 102/63/14
f 106/67/16 103/68/15 104/65/15
f 108/69/17 105/70/16 106/67/16
f 110/71/18 107/72/17 108/69/17
f 112/73/19 109/74/18 110/71/18
f 114/75/20 111/76/19 112/73/19
f 116/77/21 113/78/20 114/75/20
f 118/79/22 115/80/21 116/77/21
f 120/81/23 117/82/22 118/79/22
f 122/83/24 119/84/23 120/81/23
f 124/85/25 121/86/24 122/83/24
f 126/87/26 123/88/25 124/85/25
f 128/89/27 125/90/26 126/87/26
f 130/91/28 127/92/27 128/89/27
f 132/93/29 129/94/28 130/91/28
f 134/95/30 131/96/29 132/93/29
f 136/97/31 133/98/30 134/95/30
f 138/99/32 135/100/31 136/97/31
f 140/101/33 137/102/32 138/99/32
f 142/103/34 139/104/33 140/101/33
f 144/105/35 141/106/34 142/103/34
f 74/107/4 143/108/35 144/105/35
f 76/37/3 75/40/3 73/1/4
f 78/39/5 77/42/5 75/40/3
f 80/41/6 79/44/6 77/42/5
f 82/43/7 81/46/7 79/44/6
f 84/45/3 83/48/3 81/46/7
f 86/47/5 85/50/5 83/48/3
f 88/49/8 87/52/8 85/50/5
f 90/51/9 89/54/9 87/52/8
f 92/53/3 91/56/3 89/54/9
f 94/55/5 93/58/11 91/56/3
f 96/57/10 95/60/10 93/58/11
f 98/59/12 97/62/12 95/60/10
f 100/61/13 99/64/13 97/62/12
f 102/63/14 101/66/14 99/64/13
f 104/65/15 103/68/15 101/66/14
f 106/67/16 105/70/16 103/68/15
f 108/69/17 107/72/17 105/70/16
f 110/71/18 109/74/18 107/72/17
f 112/73/19 111/76/19 109/74/18
f 114/75/20 113/78/20 111/76/19
f 116/77/21 115/80/21 113/78/20
f 118/79/22 117/82/22 115/80/21
f 120/81/23 119/84/23 117/82/22
f 122/83/24 121/86/24 119/84/23
f 124/85/25 123/88/25 121/86/24
f 126/87/26 125/90/26 123/88/25
f 128/89/27 127/92/27 125/90/26
f 130/91/28 129/94/28 127/92/27
f 132/93/29 131/96/29 129/94/28
f 134/95/30 133/98/30 131/96/29
f 136/97/31 135/100/31 133/98/30
f 138/99/32 137/102/32 135/100/31
f 140/101/33 139/104/33 137/102/32
f 142/103/34 141/106/34 139/104/33
f 144/105/35 143/108/35 141/106/34
f 74/107/4 73/8/4 143/108/35
