# Blender 5.2.1 LTS
# www.blender.org
mtllib 4.mtl
o Text.004
v -0.639321 0.250000 0.052154
v -0.674679 0.250000 0.049210
v -0.707655 0.250000 0.040739
v -0.737893 0.250000 0.027288
v -0.765036 0.250000 0.009403
v -0.788726 0.250000 -0.012371
v -0.808607 0.250000 -0.037488
v -0.824322 0.250000 -0.065403
v -0.835512 0.250000 -0.095570
v -0.841822 0.250000 -0.127444
v -0.842893 0.250000 -0.160478
v -0.838369 0.250000 -0.194127
v -0.827893 0.250000 -0.227846
v -0.516464 0.250000 -1.002131
v 0.120679 0.250000 -1.002131
v -0.185036 0.250000 -0.242131
v 0.357821 0.250000 -0.242131
v 0.666393 0.250000 -1.002131
v 1.303536 0.250000 -1.002131
v 0.494964 0.250000 0.997869
v -0.142179 0.250000 0.997869
v 0.240679 0.250000 0.052154
v -0.639321 -0.250000 0.052154
v -0.674679 -0.250000 0.049210
v -0.707655 -0.250000 0.040739
v -0.737893 -0.250000 0.027288
v -0.765036 -0.250000 0.009403
v -0.788726 -0.250000 -0.012371
v -0.808607 -0.250000 -0.037488
v -0.824322 -0.250000 -0.065403
v -0.835512 -0.250000 -0.095570
v -0.841822 -0.250000 -0.127444
v -0.842893 -0.250000 -0.160478
v -0.838369 -0.250000 -0.194127
v -0.827893 -0.250000 -0.227846
v -0.516464 -0.250000 -1.002131
v 0.120679 -0.250000 -1.002131
v -0.185036 -0.250000 -0.242131
v 0.357821 -0.250000 -0.242131
v 0.666393 -0.250000 -1.002131
v 1.303536 -0.250000 -1.002131
v 0.494964 -0.250000 0.997869
v -0.142179 -0.250000 0.997869
v 0.240679 -0.250000 0.052154
v -0.639321 -0.250000 0.052154
v -0.639321 0.250000 0.052154
v -0.674679 -0.250000 0.049210
v -0.674679 0.250000 0.049210
v -0.707655 -0.250000 0.040739
v -0.707655 0.250000 0.040739
v -0.737893 -0.250000 0.027288
v -0.737893 0.250000 0.027288
v -0.765036 -0.250000 0.009403
v -0.765036 0.250000 0.009403
v -0.788726 -0.250000 -0.012371
v -0.788726 0.250000 -0.012371
v -0.808607 -0.250000 -0.037488
v -0.808607 0.250000 -0.037488
v -0.824322 -0.250000 -0.065403
v -0.824322 0.250000 -0.065403
v -0.835512 -0.250000 -0.095570
v -0.835512 0.250000 -0.095570
v -0.841822 -0.250000 -0.127444
v -0.841822 0.250000 -0.127444
v -0.842893 -0.250000 -0.160478
v -0.842893 0.250000 -0.160478
v -0.838369 -0.250000 -0.194127
v -0.838369 0.250000 -0.194127
v -0.827893 -0.250000 -0.227846
v -0.827893 0.250000 -0.227846
v -0.516464 -0.250000 -1.002131
v -0.516464 0.250000 -1.002131
v 0.120679 -0.250000 -1.002131
v 0.120679 0.250000 -1.002131
v -0.185036 -0.250000 -0.242131
v -0.185036 0.250000 -0.242131
v 0.357821 -0.250000 -0.242131
v 0.357821 0.250000 -0.242131
v 0.666393 -0.250000 -1.002131
v 0.666393 0.250000 -1.002131
v 1.303536 -0.250000 -1.002131
v 1.303536 0.250000 -1.002131
v 0.494964 -0.250000 0.997869
v 0.494964 0.250000 0.997869
v -0.142179 -0.250000 0.997869
v -0.142179 0.250000 0.997869
v 0.240679 -0.250000 0.052154
v 0.240679 0.250000 0.052154
vn -0.0000 1.0000 -0.0000
vn -0.0000 -1.0000 -0.0000
vn -0.1665 -0.0000 0.9860
vn -0.0415 -0.0000 0.9991
vn -0.3288 -0.0000 0.9444
vn -0.4799 -0.0000 0.8773
vn -0.6154 -0.0000 0.7882
vn -0.7327 -0.0000 0.6806
vn -0.8303 -0.0000 0.5573
vn -0.9073 -0.0000 0.4205
vn -0.9623 -0.0000 0.2719
vn -0.9935 -0.0000 0.1137
vn -0.9987 -0.0000 -0.0506
vn -0.9765 -0.0000 -0.2157
vn -0.9421 -0.0000 -0.3352
vn -0.5599 -0.0000 -0.8286
vn 0.8286 -0.0000 -0.5598
vn -0.5598 -0.0000 -0.8286
vn -0.5585 -0.0000 -0.8295
vn 0.8291 -0.0000 -0.5591
vn 0.5591 -0.0000 0.8291
vn -0.8292 -0.0000 0.5589
vn -0.8293 -0.0000 0.5589
vt 0.476190 0.000000
vt 0.428571 0.000000
vt 0.380952 0.000000
vt 0.523810 0.000000
vt 0.190476 0.000000
vt 0.142857 0.000000
vt 0.095238 0.000000
vt 0.333333 0.000000
vt 0.761905 0.000000
vt 1.000000 0.000000
vt 0.904762 0.000000
vt 0.857143 0.000000
vt 0.809524 0.000000
vt 0.952381 0.000000
vt 0.714286 0.000000
vt 0.000000 0.000000
vt 0.619048 0.000000
vt 0.666667 0.000000
vt 0.047619 0.000000
vt 0.238095 0.000000
vt 0.285714 0.000000
vt 0.571429 0.000000
vt 0.045455 1.000000
vt 0.000000 1.000000
vt 0.090909 1.000000
vt 0.045455 0.000000
vt 0.136364 1.000000
vt 0.090909 0.000000
vt 0.181818 1.000000
vt 0.136364 0.000000
vt 0.227273 1.000000
vt 0.181818 0.000000
vt 0.272727 1.000000
vt 0.227273 0.000000
vt 0.318182 1.000000
vt 0.272727 0.000000
vt 0.363636 1.000000
vt 0.318182 0.000000
vt 0.409091 1.000000
vt 0.363636 0.000000
vt 0.454545 1.000000
vt 0.409091 0.000000
vt 0.500000 1.000000
vt 0.454545 0.000000
vt 0.545455 1.000000
vt 0.500000 0.000000
vt 0.590909 1.000000
vt 0.545455 0.000000
vt 0.636364 1.000000
vt 0.590909 0.000000
vt 0.681818 1.000000
vt 0.636364 0.000000
vt 0.727273 1.000000
vt 0.681818 0.000000
vt 0.772727 1.000000
vt 0.727273 0.000000
vt 0.818182 1.000000
vt 0.772727 0.000000
vt 0.863636 1.000000
vt 0.818182 0.000000
vt 0.909091 1.000000
vt 0.863636 0.000000
vt 0.954545 1.000000
vt 0.909091 0.000000
vt 1.000000 1.000000
vt 0.954545 0.000000
s 0
f 11/1/1 10/2/1 9/3/1
f 9/3/1 12/4/1 11/1/1
f 5/5/1 4/6/1 3/7/1
f 12/4/1 9/3/1 8/8/1
f 17/9/1 22/10/1 20/11/1
f 20/11/1 19/12/1 17/9/1
f 19/12/1 18/13/1 17/9/1
f 20/11/1 22/10/1 21/14/1
f 16/15/1 1/16/1 22/10/1
f 22/10/1 17/9/1 16/15/1
f 14/17/1 16/15/1 15/18/1
f 5/5/1 3/7/1 2/19/1
f 6/20/1 5/5/1 2/19/1
f 7/21/1 6/20/1 2/19/1
f 8/8/1 7/21/1 2/19/1
f 12/4/1 8/8/1 2/19/1
f 2/19/1 1/16/1 12/4/1
f 13/22/1 12/4/1 1/16/1
f 1/16/1 16/15/1 13/22/1
f 16/15/1 14/17/1 13/22/1
f 33/1/2 31/3/2 32/2/2
f 31/3/2 33/1/2 34/4/2
f 27/5/2 25/7/2 26/6/2
f 34/4/2 30/8/2 31/3/2
f 39/9/2 42/11/2 44/10/2
f 42/11/2 39/9/2 41/12/2
f 41/12/2 39/9/2 40/13/2
f 42/11/2 43/14/2 44/10/2
f 38/15/2 44/10/2 23/16/2
f 44/10/2 38/15/2 39/9/2
f 36/17/2 37/18/2 38/15/2
f 27/5/2 24/19/2 25/7/2
f 28/20/2 24/19/2 27/5/2
f 29/21/2 24/19/2 28/20/2
f 30/8/2 24/19/2 29/21/2
f 34/4/2 24/19/2 30/8/2
f 24/19/2 34/4/2 23/16/2
f 35/22/2 23/16/2 34/4/2
f 23/16/2 35/22/2 38/15/2
f 38/15/2 35/22/2 36/17/2
s 1
f 48/23/3 45/16/4 46/24/4
f 50/25/5 47/26/3 48/23/3
f 52/27/6 49/28/5 50/25/5
f 54/29/7 51/30/6 52/27/6
f 56/31/8 53/32/7 54/29/7
f 58/33/9 55/34/8 56/31/8
f 60/35/10 57/36/9 58/33/9
f 62/37/11 59/38/10 60/35/10
f 64/39/12 61/40/11 62/37/11
f 66/41/13 63/42/12 64/39/12
f 68/43/14 65/44/13 66/41/13
f 70/45/15 67/46/14 68/43/14
f 72/47/16 69/48/15 70/45/15
f 74/49/17 71/50/18 72/47/16
f 76/51/17 73/52/17 74/49/17
f 78/53/19 75/54/17 76/51/17
f 80/55/19 77/56/19 78/53/19
f 82/57/20 79/58/19 80/55/19
f 84/59/21 81/60/20 82/57/20
f 86/61/22 83/62/21 84/59/21
f 88/63/23 85/64/23 86/61/22
f 46/65/4 87/66/22 88/63/23
f 48/23/3 47/26/3 45/16/4
f 50/25/5 49/28/5 47/26/3
f 52/27/6 51/30/6 49/28/5
f 54/29/7 53/32/7 51/30/6
f 56/31/8 55/34/8 53/32/7
f 58/33/9 57/36/9 55/34/8
f 60/35/10 59/38/10 57/36/9
f 62/37/11 61/40/11 59/38/10
f 64/39/12 63/42/12 61/40/11
f 66/41/13 65/44/13 63/42/12
f 68/43/14 67/46/14 65/44/13
f 70/45/15 69/48/15 67/46/14
f 72/47/16 71/50/18 69/48/15
f 74/49/17 73/52/17 71/50/18
f 76/51/17 75/54/17 73/52/17
f 78/53/19 77/56/19 75/54/17
f 80/55/19 79/58/19 77/56/19
f 82/57/20 81/60/20 79/58/19
f 84/59/21 83/62/21 81/60/20
f 86/61/22 85/64/23 83/62/21
f 88/63/23 87/66/22 85/64/23
f 46/65/4 45/10/4 87/66/22
