# Blender 5.2.1 LTS
# www.blender.org
mtllib 5.mtl
o Text.005
v 0.325370 0.250000 0.997869
v -1.354630 0.250000 0.997869
v -1.237487 0.250000 0.703583
v -0.051772 0.250000 0.703583
v 0.208228 0.250000 0.052154
v -0.871773 0.250000 0.052154
v -0.446058 0.250000 -1.002131
v 1.271085 0.250000 -1.002131
v 1.151085 0.250000 -0.707845
v 0.071085 0.250000 -0.707845
v -0.117487 0.250000 -0.242131
v 0.662513 0.250000 -0.242131
v 0.697270 0.250000 -0.239186
v 0.729854 0.250000 -0.230716
v 0.759879 0.250000 -0.217265
v 0.786958 0.250000 -0.199380
v 0.810703 0.250000 -0.177606
v 0.830727 0.250000 -0.152488
v 0.846645 0.250000 -0.124573
v 0.858069 0.250000 -0.094406
v 0.864611 0.250000 -0.062533
v 0.865886 0.250000 -0.029499
v 0.861506 0.250000 0.004150
v 0.851085 0.250000 0.037869
v 0.513942 0.250000 0.869297
v 0.505212 0.250000 0.888032
v 0.494815 0.250000 0.905607
v 0.482870 0.250000 0.921931
v 0.469497 0.250000 0.936916
v 0.454815 0.250000 0.950473
v 0.438942 0.250000 0.962512
v 0.421997 0.250000 0.972943
v 0.404101 0.250000 0.981678
v 0.385370 0.250000 0.988628
v 0.365926 0.250000 0.993702
v 0.345886 0.250000 0.996812
v 0.325370 -0.250000 0.997869
v -1.354630 -0.250000 0.997869
v -1.237487 -0.250000 0.703583
v -0.051772 -0.250000 0.703583
v 0.208228 -0.250000 0.052154
v -0.871773 -0.250000 0.052154
v -0.446058 -0.250000 -1.002131
v 1.271085 -0.250000 -1.002131
v 1.151085 -0.250000 -0.707845
v 0.071085 -0.250000 -0.707845
v -0.117487 -0.250000 -0.242131
v 0.662513 -0.250000 -0.242131
v 0.697270 -0.250000 -0.239186
v 0.729854 -0.250000 -0.230716
v 0.759879 -0.250000 -0.217265
v 0.786958 -0.250000 -0.199380
v 0.810703 -0.250000 -0.177606
v 0.830727 -0.250000 -0.152488
v 0.846645 -0.250000 -0.124573
v 0.858069 -0.250000 -0.094406
v 0.864611 -0.250000 -0.062533
v 0.865886 -0.250000 -0.029499
v 0.861506 -0.250000 0.004150
v 0.851085 -0.250000 0.037869
v 0.513942 -0.250000 0.869297
v 0.505212 -0.250000 0.888032
v 0.494815 -0.250000 0.905607
v 0.482870 -0.250000 0.921931
v 0.469497 -0.250000 0.936916
v 0.454815 -0.250000 0.950473
v 0.438942 -0.250000 0.962512
v 0.421997 -0.250000 0.972943
v 0.404101 -0.250000 0.981678
v 0.385370 -0.250000 0.988628
v 0.365926 -0.250000 0.993702
v 0.345886 -0.250000 0.996812
v 0.325370 -0.250000 0.997869
v 0.325370 0.250000 0.997869
v -1.354630 -0.250000 0.997869
v -1.354630 0.250000 0.997869
v -1.237487 -0.250000 0.703583
v -1.237487 0.250000 0.703583
v -0.051772 -0.250000 0.703583
v -0.051772 0.250000 0.703583
v 0.208228 -0.250000 0.052154
v 0.208228 0.250000 0.052154
v -0.871773 -0.250000 0.052154
v -0.871773 0.250000 0.052154
v -0.446058 -0.250000 -1.002131
v -0.446058 0.250000 -1.002131
v 1.271085 -0.250000 -1.002131
v 1.271085 0.250000 -1.002131
v 1.151085 -0.250000 -0.707845
v 1.151085 0.250000 -0.707845
v 0.071085 -0.250000 -0.707845
v 0.071085 0.250000 -0.707845
v -0.117487 -0.250000 -0.242131
v -0.117487 0.250000 -0.242131
v 0.662513 -0.250000 -0.242131
v 0.662513 0.250000 -0.242131
v 0.697270 -0.250000 -0.239186
v 0.697270 0.250000 -0.239186
v 0.729854 -0.250000 -0.230716
v 0.729854 0.250000 -0.230716
v 0.759879 -0.250000 -0.217265
v 0.759879 0.250000 -0.217265
v 0.786958 -0.250000 -0.199380
v 0.786958 0.250000 -0.199380
v 0.810703 -0.250000 -0.177606
v 0.810703 0.250000 -0.177606
v 0.830727 -0.250000 -0.152488
v 0.830727 0.250000 -0.152488
v 0.846645 -0.250000 -0.124573
v 0.846645 0.250000 -0.124573
v 0.858069 -0.250000 -0.094406
v 0.858069 0.250000 -0.094406
v 0.864611 -0.250000 -0.062533
v 0.864611 0.250000 -0.062533
v 0.865886 -0.250000 -0.029499
v 0.865886 0.250000 -0.029499
v 0.861506 -0.250000 0.004150
v 0.861506 0.250000 0.004150
v 0.851085 -0.250000 0.037869
v 0.851085 0.250000 0.037869
v 0.513942 -0.250000 0.869297
v 0.513942 0.250000 0.869297
v 0.505212 -0.250000 0.888032
v 0.505212 0.250000 0.888032
v 0.494815 -0.250000 0.905607
v 0.494815 0.250000 0.905607
v 0.482870 -0.250000 0.921931
v 0.482870 0.250000 0.921931
v 0.469497 -0.250000 0.936916
v 0.469497 0.250000 0.936916
v 0.454815 -0.250000 0.950473
v 0.454815 0.250000 0.950473
v 0.438942 -0.250000 0.962512
v 0.438942 0.250000 0.962512
v 0.421997 -0.250000 0.972943
v 0.421997 0.250000 0.972943
v 0.404101 -0.250000 0.981678
v 0.404101 0.250000 0.981678
v 0.385370 -0.250000 0.988628
v 0.385370 0.250000 0.988628
v 0.365926 -0.250000 0.993702
v 0.365926 0.250000 0.993702
v 0.345886 -0.250000 0.996812
v 0.345886 0.250000 0.996812
vn -0.0000 1.0000 -0.0000
vn -0.0000 -1.0000 -0.0000
vn -0.8276 -0.0000 0.5613
vn 0.0257 -0.0000 0.9997
vn -0.5613 -0.0000 -0.8276
vn -0.8276 -0.0000 0.5614
vn -0.5609 -0.0000 -0.8279
vn -0.8279 -0.0000 0.5609
vn -0.8290 -0.0000 0.5593
vn -0.8278 -0.0000 0.5610
vn -0.5593 -0.0000 -0.8290
vn -0.8290 -0.0000 0.5592
vn 0.8299 -0.0000 -0.5579
vn 0.5578 -0.0000 0.8299
vn 0.5589 -0.0000 0.8293
vn 0.8292 -0.0000 -0.5589
vn 0.0422 -0.0000 -0.9991
vn 0.1686 -0.0000 -0.9857
vn 0.0423 -0.0000 -0.9991
vn 0.3314 -0.0000 -0.9435
vn 0.4816 -0.0000 -0.8764
vn 0.6154 -0.0000 -0.7882
vn 0.7311 -0.0000 -0.6823
vn 0.8278 -0.0000 -0.5610
vn 0.9047 -0.0000 -0.4260
vn 0.9604 -0.0000 -0.2785
vn 0.9927 -0.0000 -0.1202
vn 0.9990 -0.0000 0.0454
vn 0.9771 -0.0000 0.2130
vn 0.9419 -0.0000 0.3358
vn 0.9169 -0.0000 0.3992
vn 0.8846 -0.0000 0.4663
vn 0.8348 -0.0000 0.5505
vn 0.7775 -0.0000 0.6289
vn 0.7131 -0.0000 0.7011
vn 0.6421 -0.0000 0.7666
vn 0.5649 -0.0000 0.8251
vn 0.4820 -0.0000 0.8762
vn 0.3937 -0.0000 0.9192
vn 0.3006 -0.0000 0.9538
vn 0.2032 -0.0000 0.9791
vn 0.1025 -0.0000 0.9947
vt 0.114286 0.000000
vt 0.285714 0.000000
vt 0.142857 0.000000
vt 0.000000 0.000000
vt 0.085714 0.000000
vt 0.028571 0.000000
vt 0.057143 0.000000
vt 0.171429 0.000000
vt 0.257143 0.000000
vt 1.000000 0.000000
vt 0.971429 0.000000
vt 0.942857 0.000000
vt 0.914286 0.000000
vt 0.885714 0.000000
vt 0.857143 0.000000
vt 0.828571 0.000000
vt 0.800000 0.000000
vt 0.771429 0.000000
vt 0.428571 0.000000
vt 0.400000 0.000000
vt 0.342857 0.000000
vt 0.371429 0.000000
vt 0.457143 0.000000
vt 0.314286 0.000000
vt 0.514286 0.000000
vt 0.485714 0.000000
vt 0.657143 0.000000
vt 0.571429 0.000000
vt 0.628571 0.000000
vt 0.600000 0.000000
vt 0.542857 0.000000
vt 0.742857 0.000000
vt 0.714286 0.000000
vt 0.685714 0.000000
vt 0.228571 0.000000
vt 0.200000 0.000000
vt 0.027778 1.000000
vt 0.000000 1.000000
vt 0.055556 1.000000
vt 0.027778 0.000000
vt 0.083333 1.000000
vt 0.055556 0.000000
vt 0.111111 1.000000
vt 0.083333 0.000000
vt 0.138889 1.000000
vt 0.111111 0.000000
vt 0.166667 1.000000
vt 0.138889 0.000000
vt 0.194444 1.000000
vt 0.166667 0.000000
vt 0.222222 1.000000
vt 0.194444 0.000000
vt 0.250000 1.000000
vt 0.222222 0.000000
vt 0.277778 1.000000
vt 0.250000 0.000000
vt 0.305556 1.000000
vt 0.277778 0.000000
vt 0.333333 1.000000
vt 0.305556 0.000000
vt 0.361111 1.000000
vt 0.333333 0.000000
vt 0.388889 1.000000
vt 0.361111 0.000000
vt 0.416667 1.000000
vt 0.388889 0.000000
vt 0.444444 1.000000
vt 0.416667 0.000000
vt 0.472222 1.000000
vt 0.444444 0.000000
vt 0.500000 1.000000
vt 0.472222 0.000000
vt 0.527778 1.000000
vt 0.500000 0.000000
vt 0.555556 1.000000
vt 0.527778 0.000000
vt 0.583333 1.000000
vt 0.555556 0.000000
vt 0.611111 1.000000
vt 0.583333 0.000000
vt 0.638889 1.000000
vt 0.611111 0.000000
vt 0.666667 1.000000
vt 0.638889 0.000000
vt 0.694444 1.000000
vt 0.666667 0.000000
vt 0.722222 1.000000
vt 0.694444 0.000000
vt 0.750000 1.000000
vt 0.722222 0.000000
vt 0.777778 1.000000
vt 0.750000 0.000000
vt 0.805556 1.000000
vt 0.777778 0.000000
vt 0.833333 1.000000
vt 0.805556 0.000000
vt 0.861111 1.000000
vt 0.833333 0.000000
vt 0.888889 1.000000
vt 0.861111 0.000000
vt 0.916667 1.000000
vt 0.888889 0.000000
vt 0.944444 1.000000
vt 0.916667 0.000000
vt 0.972222 1.000000
vt 0.944444 0.000000
vt 1.000000 1.000000
vt 0.972222 0.000000
s 0
f 5/1/1 11/2/1 6/3/1
f 1/4/1 4/5/1 2/6/1
f 3/7/1 2/6/1 4/5/1
f 7/8/1 6/3/1 11/2/1
f 11/2/1 10/9/1 7/8/1
f 36/10/1 35/11/1 1/4/1
f 35/11/1 34/12/1 1/4/1
f 34/12/1 33/13/1 1/4/1
f 33/13/1 32/14/1 1/4/1
f 32/14/1 31/15/1 1/4/1
f 31/15/1 30/16/1 1/4/1
f 30/16/1 29/17/1 1/4/1
f 29/17/1 28/18/1 1/4/1
f 16/19/1 15/20/1 13/21/1
f 14/22/1 13/21/1 15/20/1
f 17/23/1 16/19/1 12/24/1
f 16/19/1 13/21/1 12/24/1
f 19/25/1 18/26/1 24/27/1
f 21/28/1 23/29/1 22/30/1
f 19/25/1 24/27/1 23/29/1
f 20/31/1 19/25/1 23/29/1
f 23/29/1 21/28/1 20/31/1
f 24/27/1 18/26/1 12/24/1
f 17/23/1 12/24/1 18/26/1
f 1/4/1 28/18/1 27/32/1
f 27/32/1 26/33/1 1/4/1
f 26/33/1 25/34/1 1/4/1
f 4/5/1 1/4/1 25/34/1
f 5/1/1 4/5/1 25/34/1
f 25/34/1 24/27/1 5/1/1
f 24/27/1 12/24/1 5/1/1
f 11/2/1 5/1/1 12/24/1
f 9/35/1 8/36/1 10/9/1
f 7/8/1 10/9/1 8/36/1
f 41/1/2 42/3/2 47/2/2
f 37/4/2 38/6/2 40/5/2
f 39/7/2 40/5/2 38/6/2
f 43/8/2 47/2/2 42/3/2
f 47/2/2 43/8/2 46/9/2
f 72/10/2 37/4/2 71/11/2
f 71/11/2 37/4/2 70/12/2
f 70/12/2 37/4/2 69/13/2
f 69/13/2 37/4/2 68/14/2
f 68/14/2 37/4/2 67/15/2
f 67/15/2 37/4/2 66/16/2
f 66/16/2 37/4/2 65/17/2
f 65/17/2 37/4/2 64/18/2
f 52/19/2 49/21/2 51/20/2
f 50/22/2 51/20/2 49/21/2
f 53/23/2 48/24/2 52/19/2
f 52/19/2 48/24/2 49/21/2
f 55/25/2 60/27/2 54/26/2
f 57/28/2 58/30/2 59/29/2
f 55/25/2 59/29/2 60/27/2
f 56/31/2 59/29/2 55/25/2
f 59/29/2 56/31/2 57/28/2
f 60/27/2 48/24/2 54/26/2
f 53/23/2 54/26/2 48/24/2
f 37/4/2 63/32/2 64/18/2
f 63/32/2 37/4/2 62/33/2
f 62/33/2 37/4/2 61/34/2
f 40/5/2 61/34/2 37/4/2
f 41/1/2 61/34/2 40/5/2
f 61/34/2 41/1/2 60/27/2
f 60/27/2 41/1/2 48/24/2
f 47/2/2 48/24/2 41/1/2
f 45/35/2 46/9/2 44/36/2
f 43/8/2 44/36/2 46/9/2
s 1
f 76/37/3 73/4/4 74/38/4
f 78/39/5 75/40/6 76/37/3
f 80/41/7 77/42/5 78/39/5
f 82/43/8 79/44/7 80/41/7
f 84/45/9 81/46/10 82/43/8
f 86/47/11 83/48/12 84/45/9
f 88/49/13 85/50/11 86/47/11
f 90/51/14 87/52/13 88/49/13
f 92/53/15 89/54/14 90/51/14
f 94/55/16 91/56/15 92/53/15
f 96/57/17 93/58/16 94/55/16
f 98/59/18 95/60/19 96/57/17
f 100/61/20 97/62/18 98/59/18
f 102/63/21 99/64/20 100/61/20
f 104/65/22 101/66/21 102/63/21
f 106/67/23 103/68/22 104/65/22
f 108/69/24 105/70/23 106/67/23
f 110/71/25 107/72/24 108/69/24
f 112/73/26 109/74/25 110/71/25
f 114/75/27 111/76/26 112/73/26
f 116/77/28 113/78/27 114/75/27
f 118/79/29 115/80/28 116/77/28
f 120/81/30 117/82/29 118/79/29
f 122/83/31 119/84/30 120/81/30
f 124/85/32 121/86/31 122/83/31
f 126/87/33 123/88/32 124/85/32
f 128/89/34 125/90/33 126/87/33
f 130/91/35 127/92/34 128/89/34
f 132/93/36 129/94/35 130/91/35
f 134/95/37 131/96/36 132/93/36
f 136/97/38 133/98/37 134/95/37
f 138/99/39 135/100/38 136/97/38
f 140/101/40 137/102/39 138/99/39
f 142/103/41 139/104/40 140/101/40
f 144/105/42 141/106/41 142/103/41
f 74/107/4 143/108/42 144/105/42
f 76/37/3 75/40/6 73/4/4
f 78/39/5 77/42/5 75/40/6
f 80/41/7 79/44/7 77/42/5
f 82/43/8 81/46/10 79/44/7
f 84/45/9 83/48/12 81/46/10
f 86/47/11 85/50/11 83/48/12
f 88/49/13 87/52/13 85/50/11
f 90/51/14 89/54/14 87/52/13
f 92/53/15 91/56/15 89/54/14
f 94/55/16 93/58/16 91/56/15
f 96/57/17 95/60/19 93/58/16
f 98/59/18 97/62/18 95/60/19
f 100/61/20 99/64/20 97/62/18
f 102/63/21 101/66/21 99/64/20
f 104/65/22 103/68/22 101/66/21
f 106/67/23 105/70/23 103/68/22
f 108/69/24 107/72/24 105/70/23
f 110/71/25 109/74/25 107/72/24
f 112/73/26 111/76/26 109/74/25
f 114/75/27 113/78/27 111/76/26
f 116/77/28 115/80/28 113/78/27
f 118/79/29 117/82/29 115/80/28
f 120/81/30 119/84/30 117/82/29
f 122/83/31 121/86/31 119/84/30
f 124/85/32 123/88/32 121/86/31
f 126/87/33 125/90/33 123/88/32
f 128/89/34 127/92/34 125/90/33
f 130/91/35 129/94/35 127/92/34
f 132/93/36 131/96/36 129/94/35
f 134/95/37 133/98/37 131/96/36
f 136/97/38 135/100/38 133/98/37
f 138/99/39 137/102/39 135/100/38
f 140/101/40 139/104/40 137/102/39
f 142/103/41 141/106/41 139/104/40
f 144/105/42 143/108/42 141/106/41
f 74/107/4 73/10/4 143/108/42
