# Blender 5.2.1 LTS
# www.blender.org
mtllib 6.mtl
o Text.006
v -1.022179 0.250000 0.997869
v -1.057536 0.250000 0.994924
v -1.090512 0.250000 0.986453
v -1.120750 0.250000 0.973003
v -1.147893 0.250000 0.955117
v -1.171583 0.250000 0.933343
v -1.191464 0.250000 0.908226
v -1.207179 0.250000 0.880311
v -1.218369 0.250000 0.850144
v -1.224679 0.250000 0.818271
v -1.225750 0.250000 0.785236
v -1.221226 0.250000 0.751587
v -1.210750 0.250000 0.717869
v -0.567893 0.250000 -0.873560
v -0.559163 0.250000 -0.892295
v -0.548766 0.250000 -0.909869
v -0.536821 0.250000 -0.926194
v -0.523448 0.250000 -0.941179
v -0.508766 0.250000 -0.954735
v -0.492893 0.250000 -0.966774
v -0.475948 0.250000 -0.977206
v -0.458052 0.250000 -0.985941
v -0.439321 0.250000 -0.992890
v -0.419877 0.250000 -0.997964
v -0.399837 0.250000 -1.001074
v -0.379321 0.250000 -1.002131
v 1.097821 0.250000 -1.002131
v 0.980679 0.250000 -0.707845
v 0.000679 0.250000 -0.707845
v -0.187893 0.250000 -0.242131
v 0.692107 0.250000 -0.242131
v 0.727464 0.250000 -0.239186
v 0.760440 0.250000 -0.230716
v 0.790679 0.250000 -0.217265
v 0.817822 0.250000 -0.199380
v 0.841512 0.250000 -0.177606
v 0.861393 0.250000 -0.152488
v 0.877107 0.250000 -0.124573
v 0.888298 0.250000 -0.094406
v 0.894607 0.250000 -0.062533
v 0.895679 0.250000 -0.029499
v 0.891155 0.250000 0.004150
v 0.880678 0.250000 0.037869
v 0.546393 0.250000 0.869297
v 0.537663 0.250000 0.888032
v 0.527266 0.250000 0.905607
v 0.515321 0.250000 0.921931
v 0.501948 0.250000 0.936916
v 0.487266 0.250000 0.950473
v 0.471393 0.250000 0.962512
v 0.454448 0.250000 0.972943
v 0.436552 0.250000 0.981678
v 0.417821 0.250000 0.988628
v 0.398377 0.250000 0.993702
v 0.378337 0.250000 0.996812
v 0.357821 0.250000 0.997869
v -0.305036 0.250000 0.052154
v -0.567893 0.250000 0.703583
v -0.022179 0.250000 0.703583
v 0.237821 0.250000 0.052154
v -1.022179 -0.250000 0.997869
v -1.057536 -0.250000 0.994924
v -1.090512 -0.250000 0.986453
v -1.120750 -0.250000 0.973003
v -1.147893 -0.250000 0.955117
v -1.171583 -0.250000 0.933343
v -1.191464 -0.250000 0.908226
v -1.207179 -0.250000 0.880311
v -1.218369 -0.250000 0.850144
v -1.224679 -0.250000 0.818271
v -1.225750 -0.250000 0.785236
v -1.221226 -0.250000 0.751587
v -1.210750 -0.250000 0.717869
v -0.567893 -0.250000 -0.873560
v -0.559163 -0.250000 -0.892295
v -0.548766 -0.250000 -0.909869
v -0.536821 -0.250000 -0.926194
v -0.523448 -0.250000 -0.941179
v -0.508766 -0.250000 -0.954735
v -0.492893 -0.250000 -0.966774
v -0.475948 -0.250000 -0.977206
v -0.458052 -0.250000 -0.985941
v -0.439321 -0.250000 -0.992890
v -0.419877 -0.250000 -0.997964
v -0.399837 -0.250000 -1.001074
v -0.379321 -0.250000 -1.002131
v 1.097821 -0.250000 -1.002131
v 0.980679 -0.250000 -0.707845
v 0.000679 -0.250000 -0.707845
v -0.187893 -0.250000 -0.242131
v 0.692107 -0.250000 -0.242131
v 0.727464 -0.250000 -0.239186
v 0.760440 -0.250000 -0.230716
v 0.790679 -0.250000 -0.217265
v 0.817822 -0.250000 -0.199380
v 0.841512 -0.250000 -0.177606
v 0.861393 -0.250000 -0.152488
v 0.877107 -0.250000 -0.124573
v 0.888298 -0.250000 -0.094406
v 0.894607 -0.250000 -0.062533
v 0.895679 -0.250000 -0.029499
v 0.891155 -0.250000 0.004150
v 0.880678 -0.250000 0.037869
v 0.546393 -0.250000 0.869297
v 0.537663 -0.250000 0.888032
v 0.527266 -0.250000 0.905607
v 0.515321 -0.250000 0.921931
v 0.501948 -0.250000 0.936916
v 0.487266 -0.250000 0.950473
v 0.471393 -0.250000 0.962512
v 0.454448 -0.250000 0.972943
v 0.436552 -0.250000 0.981678
v 0.417821 -0.250000 0.988628
v 0.398377 -0.250000 0.993702
v 0.378337 -0.250000 0.996812
v 0.357821 -0.250000 0.997869
v -0.305036 -0.250000 0.052154
v -0.567893 -0.250000 0.703583
v -0.022179 -0.250000 0.703583
v 0.237821 -0.250000 0.052154
v -1.022179 -0.250000 0.997869
v -1.022179 0.250000 0.997869
v -1.057536 -0.250000 0.994924
v -1.057536 0.250000 0.994924
v -1.090512 -0.250000 0.986453
v -1.090512 0.250000 0.986453
v -1.120750 -0.250000 0.973003
v -1.120750 0.250000 0.973003
v -1.147893 -0.250000 0.955117
v -1.147893 0.250000 0.955117
v -1.171583 -0.250000 0.933343
v -1.171583 0.250000 0.933343
v -1.191464 -0.250000 0.908226
v -1.191464 0.250000 0.908226
v -1.207179 -0.250000 0.880311
v -1.207179 0.250000 0.880311
v -1.218369 -0.250000 0.850144
v -1.218369 0.250000 0.850144
v -1.224679 -0.250000 0.818271
v -1.224679 0.250000 0.818271
v -1.225750 -0.250000 0.785236
v -1.225750 0.250000 0.785236
v -1.221226 -0.250000 0.751587
v -1.221226 0.250000 0.751587
v -1.210750 -0.250000 0.717869
v -1.210750 0.250000 0.717869
v -0.567893 -0.250000 -0.873560
v -0.567893 0.250000 -0.873560
v -0.559163 -0.250000 -0.892295
v -0.559163 0.250000 -0.892295
v -0.548766 -0.250000 -0.909869
v -0.548766 0.250000 -0.909869
v -0.536821 -0.250000 -0.926194
v -0.536821 0.250000 -0.926194
v -0.523448 -0.250000 -0.941179
v -0.523448 0.250000 -0.941179
v -0.508766 -0.250000 -0.954735
v -0.508766 0.250000 -0.954735
v -0.492893 -0.250000 -0.966774
v -0.492893 0.250000 -0.966774
v -0.475948 -0.250000 -0.977206
v -0.475948 0.250000 -0.977206
v -0.458052 -0.250000 -0.985941
v -0.458052 0.250000 -0.985941
v -0.439321 -0.250000 -0.992890
v -0.439321 0.250000 -0.992890
v -0.419877 -0.250000 -0.997964
v -0.419877 0.250000 -0.997964
v -0.399837 -0.250000 -1.001074
v -0.399837 0.250000 -1.001074
v -0.379321 -0.250000 -1.002131
v -0.379321 0.250000 -1.002131
v 1.097821 -0.250000 -1.002131
v 1.097821 0.250000 -1.002131
v 0.980679 -0.250000 -0.707845
v 0.980679 0.250000 -0.707845
v 0.000679 -0.250000 -0.707845
v 0.000679 0.250000 -0.707845
v -0.187893 -0.250000 -0.242131
v -0.187893 0.250000 -0.242131
v 0.692107 -0.250000 -0.242131
v 0.692107 0.250000 -0.242131
v 0.727464 -0.250000 -0.239186
v 0.727464 0.250000 -0.239186
v 0.760440 -0.250000 -0.230716
v 0.760440 0.250000 -0.230716
v 0.790679 -0.250000 -0.217265
v 0.790679 0.250000 -0.217265
v 0.817822 -0.250000 -0.199380
v 0.817822 0.250000 -0.199380
v 0.841512 -0.250000 -0.177606
v 0.841512 0.250000 -0.177606
v 0.861393 -0.250000 -0.152488
v 0.861393 0.250000 -0.152488
v 0.877107 -0.250000 -0.124573
v 0.877107 0.250000 -0.124573
v 0.888298 -0.250000 -0.094406
v 0.888298 0.250000 -0.094406
v 0.894607 -0.250000 -0.062533
v 0.894607 0.250000 -0.062533
v 0.895679 -0.250000 -0.029499
v 0.895679 0.250000 -0.029499
v 0.891155 -0.250000 0.004150
v 0.891155 0.250000 0.004150
v 0.880678 -0.250000 0.037869
v 0.880678 0.250000 0.037869
v 0.546393 -0.250000 0.869297
v 0.546393 0.250000 0.869297
v 0.537663 -0.250000 0.888032
v 0.537663 0.250000 0.888032
v 0.527266 -0.250000 0.905607
v 0.527266 0.250000 0.905607
v 0.515321 -0.250000 0.921931
v 0.515321 0.250000 0.921931
v 0.501948 -0.250000 0.936916
v 0.501948 0.250000 0.936916
v 0.487266 -0.250000 0.950473
v 0.487266 0.250000 0.950473
v 0.471393 -0.250000 0.962512
v 0.471393 0.250000 0.962512
v 0.454448 -0.250000 0.972943
v 0.454448 0.250000 0.972943
v 0.436552 -0.250000 0.981678
v 0.436552 0.250000 0.981678
v 0.417821 -0.250000 0.988628
v 0.417821 0.250000 0.988628
v 0.398377 -0.250000 0.993702
v 0.398377 0.250000 0.993702
v 0.378337 -0.250000 0.996812
v 0.378337 0.250000 0.996812
v 0.357821 -0.250000 0.997869
v 0.357821 0.250000 0.997869
v -0.305036 -0.250000 0.052154
v -0.305036 0.250000 0.052154
v -0.567893 -0.250000 0.703583
v -0.567893 0.250000 0.703583
v -0.022179 -0.250000 0.703583
v -0.022179 0.250000 0.703583
v 0.237821 -0.250000 0.052154
v 0.237821 0.250000 0.052154
vn -0.0000 1.0000 -0.0000
vn -0.0000 -1.0000 -0.0000
vn -0.1665 -0.0000 0.9860
vn -0.0415 -0.0000 0.9991
vn -0.3288 -0.0000 0.9444
vn -0.4799 -0.0000 0.8773
vn -0.6154 -0.0000 0.7882
vn -0.7327 -0.0000 0.6806
vn -0.8303 -0.0000 0.5573
vn -0.9073 -0.0000 0.4205
vn -0.9623 -0.0000 0.2719
vn -0.9935 -0.0000 0.1137
vn -0.9987 -0.0000 -0.0506
vn -0.9765 -0.0000 -0.2157
vn -0.9419 -0.0000 -0.3359
vn -0.9171 -0.0000 -0.3986
vn -0.8846 -0.0000 -0.4663
vn -0.8348 -0.0000 -0.5505
vn -0.7775 -0.0000 -0.6289
vn -0.7131 -0.0000 -0.7011
vn -0.6421 -0.0000 -0.7666
vn -0.5649 -0.0000 -0.8251
vn -0.4820 -0.0000 -0.8762
vn -0.3937 -0.0000 -0.9192
vn -0.3006 -0.0000 -0.9538
vn -0.2032 -0.0000 -0.9791
vn -0.1025 -0.0000 -0.9947
vn -0.0257 -0.0000 -0.9997
vn 0.8276 -0.0000 -0.5613
vn 0.5613 -0.0000 0.8276
vn 0.8276 -0.0000 -0.5614
vn 0.5589 -0.0000 0.8293
vn 0.8292 -0.0000 -0.5589
vn 0.0415 -0.0000 -0.9991
vn 0.1665 -0.0000 -0.9860
vn 0.3288 -0.0000 -0.9444
vn 0.4799 -0.0000 -0.8773
vn 0.6154 -0.0000 -0.7882
vn 0.7327 -0.0000 -0.6806
vn 0.8303 -0.0000 -0.5573
vn 0.9073 -0.0000 -0.4205
vn 0.9623 -0.0000 -0.2719
vn 0.9935 -0.0000 -0.1137
vn 0.9987 -0.0000 0.0506
vn 0.9765 -0.0000 0.2157
vn 0.9422 -0.0000 0.3352
vn 0.9175 -0.0000 0.3978
vn 0.8846 -0.0000 0.4663
vn 0.9175 -0.0000 0.3979
vn 0.8348 -0.0000 0.5505
vn 0.7775 -0.0000 0.6289
vn 0.7131 -0.0000 0.7011
vn 0.6421 -0.0000 0.7666
vn 0.5649 -0.0000 0.8251
vn 0.4820 -0.0000 0.8762
vn 0.3937 -0.0000 0.9192
vn 0.3006 -0.0000 0.9538
vn 0.2032 -0.0000 0.9791
vn 0.1025 -0.0000 0.9947
vn 0.0257 -0.0000 0.9997
vn 0.8289 -0.0000 -0.5594
vn 0.5594 -0.0000 0.8289
vn -0.5609 -0.0000 -0.8279
vn -0.8279 -0.0000 0.5609
vt 0.169492 0.000000
vt 0.152542 0.000000
vt 0.135593 0.000000
vt 0.186441 0.000000
vt 0.118644 0.000000
vt 0.050847 0.000000
vt 0.033898 0.000000
vt 0.067797 0.000000
vt 0.016949 0.000000
vt 0.084746 0.000000
vt 0.101695 0.000000
vt 0.000000 0.000000
vt 0.203390 0.000000
vt 0.966102 0.000000
vt 0.372881 0.000000
vt 0.355932 0.000000
vt 0.423729 0.000000
vt 0.389830 0.000000
vt 0.406780 0.000000
vt 0.254237 0.000000
vt 0.237288 0.000000
vt 0.271186 0.000000
vt 0.288136 0.000000
vt 0.305085 0.000000
vt 0.322034 0.000000
vt 0.338983 0.000000
vt 0.949153 0.000000
vt 0.220339 0.000000
vt 0.491525 0.000000
vt 0.915254 0.000000
vt 0.898305 0.000000
vt 0.932203 0.000000
vt 0.881356 0.000000
vt 0.864407 0.000000
vt 0.847458 0.000000
vt 0.830508 0.000000
vt 0.813559 0.000000
vt 0.796610 0.000000
vt 0.779661 0.000000
vt 0.762712 0.000000
vt 0.745763 0.000000
vt 0.728814 0.000000
vt 0.610169 0.000000
vt 0.593220 0.000000
vt 0.525424 0.000000
vt 0.576271 0.000000
vt 0.542373 0.000000
vt 0.559322 0.000000
vt 0.694915 0.000000
vt 0.644068 0.000000
vt 0.627119 0.000000
vt 0.677966 0.000000
vt 0.661017 0.000000
vt 0.711864 0.000000
vt 0.508475 0.000000
vt 1.000000 0.000000
vt 0.457627 0.000000
vt 0.440678 0.000000
vt 0.474576 0.000000
vt 0.983051 0.000000
vt 0.017857 1.000000
vt 0.000000 1.000000
vt 0.035714 1.000000
vt 0.017857 0.000000
vt 0.053571 1.000000
vt 0.035714 0.000000
vt 0.071429 1.000000
vt 0.053571 0.000000
vt 0.089286 1.000000
vt 0.071429 0.000000
vt 0.107143 1.000000
vt 0.089286 0.000000
vt 0.125000 1.000000
vt 0.107143 0.000000
vt 0.142857 1.000000
vt 0.125000 0.000000
vt 0.160714 1.000000
vt 0.142857 0.000000
vt 0.178571 1.000000
vt 0.160714 0.000000
vt 0.196429 1.000000
vt 0.178571 0.000000
vt 0.214286 1.000000
vt 0.196429 0.000000
vt 0.232143 1.000000
vt 0.214286 0.000000
vt 0.250000 1.000000
vt 0.232143 0.000000
vt 0.267857 1.000000
vt 0.250000 0.000000
vt 0.285714 1.000000
vt 0.267857 0.000000
vt 0.303571 1.000000
vt 0.285714 0.000000
vt 0.321429 1.000000
vt 0.303571 0.000000
vt 0.339286 1.000000
vt 0.321429 0.000000
vt 0.357143 1.000000
vt 0.339286 0.000000
vt 0.375000 1.000000
vt 0.357143 0.000000
vt 0.392857 1.000000
vt 0.375000 0.000000
vt 0.410714 1.000000
vt 0.392857 0.000000
vt 0.428571 1.000000
vt 0.410714 0.000000
vt 0.446429 1.000000
vt 0.428571 0.000000
vt 0.464286 1.000000
vt 0.446429 0.000000
vt 0.482143 1.000000
vt 0.464286 0.000000
vt 0.500000 1.000000
vt 0.482143 0.000000
vt 0.517857 1.000000
vt 0.500000 0.000000
vt 0.535714 1.000000
vt 0.517857 0.000000
vt 0.553571 1.000000
vt 0.535714 0.000000
vt 0.571429 1.000000
vt 0.553571 0.000000
vt 0.589286 1.000000
vt 0.571429 0.000000
vt 0.607143 1.000000
vt 0.589286 0.000000
vt 0.625000 1.000000
vt 0.607143 0.000000
vt 0.642857 1.000000
vt 0.625000 0.000000
vt 0.660714 1.000000
vt 0.642857 0.000000
vt 0.678571 1.000000
vt 0.660714 0.000000
vt 0.696429 1.000000
vt 0.678571 0.000000
vt 0.714286 1.000000
vt 0.696429 0.000000
vt 0.732143 1.000000
vt 0.714286 0.000000
vt 0.750000 1.000000
vt 0.732143 0.000000
vt 0.767857 1.000000
vt 0.750000 0.000000
vt 0.785714 1.000000
vt 0.767857 0.000000
vt 0.803571 1.000000
vt 0.785714 0.000000
vt 0.821429 1.000000
vt 0.803571 0.000000
vt 0.839286 1.000000
vt 0.821429 0.000000
vt 0.857143 1.000000
vt 0.839286 0.000000
vt 0.875000 1.000000
vt 0.857143 0.000000
vt 0.892857 1.000000
vt 0.875000 0.000000
vt 0.910714 1.000000
vt 0.892857 0.000000
vt 0.928571 1.000000
vt 0.910714 0.000000
vt 0.946429 1.000000
vt 0.928571 0.000000
vt 0.964286 1.000000
vt 0.946429 0.000000
vt 0.982143 1.000000
vt 0.964286 0.000000
vt 1.000000 1.000000
vt 0.982143 0.000000
s 0
f 11/1/1 10/2/1 9/3/1
f 12/4/1 11/1/1 9/3/1
f 9/3/1 8/5/1 12/4/1
f 4/6/1 3/7/1 5/8/1
f 5/8/1 3/7/1 2/9/1
f 6/10/1 5/8/1 2/9/1
f 6/10/1 2/9/1 7/11/1
f 8/5/1 7/11/1 2/9/1
f 12/4/1 8/5/1 2/9/1
f 2/9/1 1/12/1 12/4/1
f 13/13/1 12/4/1 1/12/1
f 1/12/1 58/14/1 13/13/1
f 23/15/1 22/16/1 26/17/1
f 24/18/1 23/15/1 26/17/1
f 25/19/1 24/18/1 26/17/1
f 16/20/1 15/21/1 26/17/1
f 17/22/1 16/20/1 26/17/1
f 18/23/1 17/22/1 26/17/1
f 19/24/1 18/23/1 26/17/1
f 20/25/1 19/24/1 26/17/1
f 21/26/1 20/25/1 26/17/1
f 26/17/1 22/16/1 21/26/1
f 13/13/1 58/14/1 57/27/1
f 14/28/1 13/13/1 57/27/1
f 57/27/1 30/29/1 14/28/1
f 26/17/1 15/21/1 14/28/1
f 55/30/1 54/31/1 56/32/1
f 54/31/1 53/33/1 56/32/1
f 53/33/1 52/34/1 56/32/1
f 56/32/1 52/34/1 51/35/1
f 51/35/1 50/36/1 56/32/1
f 50/36/1 49/37/1 56/32/1
f 49/37/1 48/38/1 56/32/1
f 48/38/1 47/39/1 56/32/1
f 47/39/1 46/40/1 56/32/1
f 46/40/1 45/41/1 56/32/1
f 45/41/1 44/42/1 56/32/1
f 37/43/1 36/44/1 32/45/1
f 36/44/1 35/46/1 32/45/1
f 33/47/1 32/45/1 35/46/1
f 35/46/1 34/48/1 33/47/1
f 42/49/1 39/50/1 38/51/1
f 39/50/1 42/49/1 41/52/1
f 41/52/1 40/53/1 39/50/1
f 43/54/1 42/49/1 31/55/1
f 32/45/1 31/55/1 42/49/1
f 42/49/1 38/51/1 32/45/1
f 37/43/1 32/45/1 38/51/1
f 60/56/1 44/42/1 43/54/1
f 43/54/1 31/55/1 60/56/1
f 28/57/1 27/58/1 29/59/1
f 58/14/1 1/12/1 56/32/1
f 59/60/1 58/14/1 56/32/1
f 56/32/1 44/42/1 59/60/1
f 44/42/1 60/56/1 59/60/1
f 30/29/1 57/27/1 60/56/1
f 60/56/1 31/55/1 30/29/1
f 14/28/1 30/29/1 29/59/1
f 26/17/1 14/28/1 29/59/1
f 29/59/1 27/58/1 26/17/1
f 71/1/2 69/3/2 70/2/2
f 72/4/2 69/3/2 71/1/2
f 69/3/2 72/4/2 68/5/2
f 64/6/2 65/8/2 63/7/2
f 65/8/2 62/9/2 63/7/2
f 66/10/2 62/9/2 65/8/2
f 66/10/2 67/11/2 62/9/2
f 68/5/2 62/9/2 67/11/2
f 72/4/2 62/9/2 68/5/2
f 62/9/2 72/4/2 61/12/2
f 73/13/2 61/12/2 72/4/2
f 61/12/2 73/13/2 118/14/2
f 83/15/2 86/17/2 82/16/2
f 84/18/2 86/17/2 83/15/2
f 85/19/2 86/17/2 84/18/2
f 76/20/2 86/17/2 75/21/2
f 77/22/2 86/17/2 76/20/2
f 78/23/2 86/17/2 77/22/2
f 79/24/2 86/17/2 78/23/2
f 80/25/2 86/17/2 79/24/2
f 81/26/2 86/17/2 80/25/2
f 86/17/2 81/26/2 82/16/2
f 73/13/2 117/27/2 118/14/2
f 74/28/2 117/27/2 73/13/2
f 117/27/2 74/28/2 90/29/2
f 86/17/2 74/28/2 75/21/2
f 115/30/2 116/32/2 114/31/2
f 114/31/2 116/32/2 113/33/2
f 113/33/2 116/32/2 112/34/2
f 116/32/2 111/35/2 112/34/2
f 111/35/2 116/32/2 110/36/2
f 110/36/2 116/32/2 109/37/2
f 109/37/2 116/32/2 108/38/2
f 108/38/2 116/32/2 107/39/2
f 107/39/2 116/32/2 106/40/2
f 106/40/2 116/32/2 105/41/2
f 105/41/2 116/32/2 104/42/2
f 97/43/2 92/45/2 96/44/2
f 96/44/2 92/45/2 95/46/2
f 93/47/2 95/46/2 92/45/2
f 95/46/2 93/47/2 94/48/2
f 102/49/2 98/51/2 99/50/2
f 99/50/2 101/52/2 102/49/2
f 101/52/2 99/50/2 100/53/2
f 103/54/2 91/55/2 102/49/2
f 92/45/2 102/49/2 91/55/2
f 102/49/2 92/45/2 98/51/2
f 97/43/2 98/51/2 92/45/2
f 120/56/2 103/54/2 104/42/2
f 103/54/2 120/56/2 91/55/2
f 88/57/2 89/59/2 87/58/2
f 118/14/2 116/32/2 61/12/2
f 119/60/2 116/32/2 118/14/2
f 116/32/2 119/60/2 104/42/2
f 104/42/2 119/60/2 120/56/2
f 90/29/2 120/56/2 117/27/2
f 120/56/2 90/29/2 91/55/2
f 74/28/2 89/59/2 90/29/2
f 86/17/2 89/59/2 74/28/2
f 89/59/2 86/17/2 87/58/2
s 1
f 124/61/3 121/12/4 122/62/4
f 126/63/5 123/64/3 124/61/3
f 128/65/6 125/66/5 126/63/5
f 130/67/7 127/68/6 128/65/6
f 132/69/8 129/70/7 130/67/7
f 134/71/9 131/72/8 132/69/8
f 136/73/10 133/74/9 134/71/9
f 138/75/11 135/76/10 136/73/10
f 140/77/12 137/78/11 138/75/11
f 142/79/13 139/80/12 140/77/12
f 144/81/14 141/82/13 142/79/13
f 146/83/15 143/84/14 144/81/14
f 148/85/16 145/86/15 146/83/15
f 150/87/17 147/88/16 148/85/16
f 152/89/18 149/90/17 150/87/17
f 154/91/19 151/92/18 152/89/18
f 156/93/20 153/94/19 154/91/19
f 158/95/21 155/96/20 156/93/20
f 160/97/22 157/98/21 158/95/21
f 162/99/23 159/100/22 160/97/22
f 164/101/24 161/102/23 162/99/23
f 166/103/25 163/104/24 164/101/24
f 168/105/26 165/106/25 166/103/25
f 170/107/27 167/108/26 168/105/26
f 172/109/28 169/110/27 170/107/27
f 174/111/29 171/112/28 172/109/28
f 176/113/30 173/114/31 174/111/29
f 178/115/32 175/116/30 176/113/30
f 180/117/33 177/118/32 178/115/32
f 182/119/34 179/120/33 180/117/33
f 184/121/35 181/122/34 182/119/34
f 186/123/36 183/124/35 184/121/35
f 188/125/37 185/126/36 186/123/36
f 190/127/38 187/128/37 188/125/37
f 192/129/39 189/130/38 190/127/38
f 194/131/40 191/132/39 192/129/39
f 196/133/41 193/134/40 194/131/40
f 198/135/42 195/136/41 196/133/41
f 200/137/43 197/138/42 198/135/42
f 202/139/44 199/140/43 200/137/43
f 204/141/45 201/142/44 202/139/44
f 206/143/46 203/144/45 204/141/45
f 208/145/47 205/146/46 206/143/46
f 210/147/48 207/148/49 208/145/47
f 212/149/50 209/150/48 210/147/48
f 214/151/51 211/152/50 212/149/50
f 216/153/52 213/154/51 214/151/51
f 218/155/53 215/156/52 216/153/52
f 220/157/54 217/158/53 218/155/53
f 222/159/55 219/160/54 220/157/54
f 224/161/56 221/162/55 222/159/55
f 226/163/57 223/164/56 224/161/56
f 228/165/58 225/166/57 226/163/57
f 230/167/59 227/168/58 228/165/58
f 232/169/60 229/170/59 230/167/59
f 122/171/4 231/172/60 232/169/60
f 236/87/61 233/12/62 234/62/62
f 238/115/63 235/90/61 236/87/61
f 240/143/64 237/118/63 238/115/63
f 234/171/62 239/146/64 240/143/64
f 124/61/3 123/64/3 121/12/4
f 126/63/5 125/66/5 123/64/3
f 128/65/6 127/68/6 125/66/5
f 130/67/7 129/70/7 127/68/6
f 132/69/8 131/72/8 129/70/7
f 134/71/9 133/74/9 131/72/8
f 136/73/10 135/76/10 133/74/9
f 138/75/11 137/78/11 135/76/10
f 140/77/12 139/80/12 137/78/11
f 142/79/13 141/82/13 139/80/12
f 144/81/14 143/84/14 141/82/13
f 146/83/15 145/86/15 143/84/14
f 148/85/16 147/88/16 145/86/15
f 150/87/17 149/90/17 147/88/16
f 152/89/18 151/92/18 149/90/17
f 154/91/19 153/94/19 151/92/18
f 156/93/20 155/96/20 153/94/19
f 158/95/21 157/98/21 155/96/20
f 160/97/22 159/100/22 157/98/21
f 162/99/23 161/102/23 159/100/22
f 164/101/24 163/104/24 161/102/23
f 166/103/25 165/106/25 163/104/24
f 168/105/26 167/108/26 165/106/25
f 170/107/27 169/110/27 167/108/26
f 172/109/28 171/112/28 169/110/27
f 174/111/29 173/114/31 171/112/28
f 176/113/30 175/116/30 173/114/31
f 178/115/32 177/118/32 175/116/30
f 180/117/33 179/120/33 177/118/32
f 182/119/34 181/122/34 179/120/33
f 184/121/35 183/124/35 181/122/34
f 186/123/36 185/126/36 183/124/35
f 188/125/37 187/128/37 185/126/36
f 190/127/38 189/130/38 187/128/37
f 192/129/39 191/132/39 189/130/38
f 194/131/40 193/134/40 191/132/39
f 196/133/41 195/136/41 193/134/40
f 198/135/42 197/138/42 195/136/41
f 200/137/43 199/140/43 197/138/42
f 202/139/44 201/142/44 199/140/43
f 204/141/45 203/144/45 201/142/44
f 206/143/46 205/146/46 203/144/45
f 208/145/47 207/148/49 205/146/46
f 210/147/48 209/150/48 207/148/49
f 212/149/50 211/152/50 209/150/48
f 214/151/51 213/154/51 211/152/50
f 216/153/52 215/156/52 213/154/51
f 218/155/53 217/158/53 215/156/52
f 220/157/54 219/160/54 217/158/53
f 222/159/55 221/162/55 219/160/54
f 224/161/56 223/164/56 221/162/55
f 226/163/57 225/166/57 223/164/56
f 228/165/58 227/168/58 225/166/57
f 230/167/59 229/170/59 227/168/58
f 232/169/60 231/172/60 229/170/59
f 122/171/4 121/56/4 231/172/60
f 236/87/61 235/90/61 233/12/62
f 238/115/63 237/118/63 235/90/61
f 240/143/64 239/146/64 237/118/63
f 234/171/62 233/56/62 239/146/64
