# Blender 5.2.1 LTS
# www.blender.org
mtllib 7.mtl
o Text.007
v 0.546393 0.250000 -0.707845
v -0.636464 0.250000 -0.707845
v -0.516464 0.250000 -1.002131
v 1.000679 0.250000 -1.002131
v 1.035435 0.250000 -0.999186
v 1.068020 0.250000 -0.990716
v 1.098045 0.250000 -0.977265
v 1.125123 0.250000 -0.959380
v 1.148868 0.250000 -0.937606
v 1.168893 0.250000 -0.912488
v 1.184811 0.250000 -0.884573
v 1.196234 0.250000 -0.854406
v 1.202777 0.250000 -0.822533
v 1.204052 0.250000 -0.789499
v 1.199672 0.250000 -0.755850
v 1.189250 0.250000 -0.722131
v 0.492107 0.250000 0.997869
v -0.142179 0.250000 0.997869
v 0.546393 -0.250000 -0.707845
v -0.636464 -0.250000 -0.707845
v -0.516464 -0.250000 -1.002131
v 1.000679 -0.250000 -1.002131
v 1.035435 -0.250000 -0.999186
v 1.068020 -0.250000 -0.990716
v 1.098045 -0.250000 -0.977265
v 1.125123 -0.250000 -0.959380
v 1.148868 -0.250000 -0.937606
v 1.168893 -0.250000 -0.912488
v 1.184811 -0.250000 -0.884573
v 1.196234 -0.250000 -0.854406
v 1.202777 -0.250000 -0.822533
v 1.204052 -0.250000 -0.789499
v 1.199672 -0.250000 -0.755850
v 1.189250 -0.250000 -0.722131
v 0.492107 -0.250000 0.997869
v -0.142179 -0.250000 0.997869
v 0.546393 -0.250000 -0.707845
v 0.546393 0.250000 -0.707845
v -0.636464 -0.250000 -0.707845
v -0.636464 0.250000 -0.707845
v -0.516464 -0.250000 -1.002131
v -0.516464 0.250000 -1.002131
v 1.000679 -0.250000 -1.002131
v 1.000679 0.250000 -1.002131
v 1.035435 -0.250000 -0.999186
v 1.035435 0.250000 -0.999186
v 1.068020 -0.250000 -0.990716
v 1.068020 0.250000 -0.990716
v 1.098045 -0.250000 -0.977265
v 1.098045 0.250000 -0.977265
v 1.125123 -0.250000 -0.959380
v 1.125123 0.250000 -0.959380
v 1.148868 -0.250000 -0.937606
v 1.148868 0.250000 -0.937606
v 1.168893 -0.250000 -0.912488
v 1.168893 0.250000 -0.912488
v 1.184811 -0.250000 -0.884573
v 1.184811 0.250000 -0.884573
v 1.196234 -0.250000 -0.854406
v 1.196234 0.250000 -0.854406
v 1.202777 -0.250000 -0.822533
v 1.202777 0.250000 -0.822533
v 1.204052 -0.250000 -0.789499
v 1.204052 0.250000 -0.789499
v 1.199672 -0.250000 -0.755850
v 1.199672 0.250000 -0.755850
v 1.189250 -0.250000 -0.722131
v 1.189250 0.250000 -0.722131
v 0.492107 -0.250000 0.997869
v 0.492107 0.250000 0.997869
v -0.142179 -0.250000 0.997869
v -0.142179 0.250000 0.997869
vn -0.0000 1.0000 -0.0000
vn -0.0000 -1.0000 -0.0000
vn -0.8299 -0.0000 0.5579
vn -0.8289 -0.0000 0.5593
vn -0.5578 -0.0000 -0.8299
vn 0.0422 -0.0000 -0.9991
vn -0.5579 -0.0000 -0.8299
vn 0.1686 -0.0000 -0.9857
vn 0.3314 -0.0000 -0.9435
vn 0.4816 -0.0000 -0.8764
vn 0.6154 -0.0000 -0.7882
vn 0.7311 -0.0000 -0.6823
vn 0.8278 -0.0000 -0.5610
vn 0.9047 -0.0000 -0.4260
vn 0.9604 -0.0000 -0.2785
vn 0.9927 -0.0000 -0.1202
vn 0.9990 -0.0000 0.0454
vn 0.9771 -0.0000 0.2130
vn 0.9419 -0.0000 0.3358
vn 0.5587 -0.0000 0.8294
vn -0.8290 -0.0000 0.5593
vn 0.5587 -0.0000 0.8293
vt 0.294118 0.000000
vt 0.235294 0.000000
vt 0.352941 0.000000
vt 1.000000 0.000000
vt 0.941176 0.000000
vt 0.000000 0.000000
vt 0.117647 0.000000
vt 0.058824 0.000000
vt 0.176471 0.000000
vt 0.705882 0.000000
vt 0.823529 0.000000
vt 0.764706 0.000000
vt 0.647059 0.000000
vt 0.588235 0.000000
vt 0.529412 0.000000
vt 0.882353 0.000000
vt 0.470588 0.000000
vt 0.411765 0.000000
vt 0.055556 1.000000
vt 0.000000 1.000000
vt 0.111111 1.000000
vt 0.055556 0.000000
vt 0.166667 1.000000
vt 0.111111 0.000000
vt 0.222222 1.000000
vt 0.166667 0.000000
vt 0.277778 1.000000
vt 0.222222 0.000000
vt 0.333333 1.000000
vt 0.277778 0.000000
vt 0.388889 1.000000
vt 0.333333 0.000000
vt 0.444444 1.000000
vt 0.388889 0.000000
vt 0.500000 1.000000
vt 0.444444 0.000000
vt 0.555556 1.000000
vt 0.500000 0.000000
vt 0.611111 1.000000
vt 0.555556 0.000000
vt 0.666667 1.000000
vt 0.611111 0.000000
vt 0.722222 1.000000
vt 0.666667 0.000000
vt 0.777778 1.000000
vt 0.722222 0.000000
vt 0.833333 1.000000
vt 0.777778 0.000000
vt 0.888889 1.000000
vt 0.833333 0.000000
vt 0.944444 1.000000
vt 0.888889 0.000000
vt 1.000000 1.000000
vt 0.944444 0.000000
s 0
f 6/1/1 5/2/1 7/3/1
f 18/4/1 17/5/1 1/6/1
f 3/7/1 2/8/1 1/6/1
f 1/6/1 4/9/1 3/7/1
f 13/10/1 15/11/1 14/12/1
f 15/11/1 13/10/1 12/13/1
f 11/14/1 10/15/1 16/16/1
f 16/16/1 15/11/1 11/14/1
f 15/11/1 12/13/1 11/14/1
f 1/6/1 17/5/1 16/16/1
f 4/9/1 1/6/1 16/16/1
f 16/16/1 10/15/1 4/9/1
f 10/15/1 9/17/1 4/9/1
f 9/17/1 8/18/1 4/9/1
f 5/2/1 4/9/1 8/18/1
f 7/3/1 5/2/1 8/18/1
f 24/1/2 25/3/2 23/2/2
f 36/4/2 19/6/2 35/5/2
f 21/7/2 19/6/2 20/8/2
f 19/6/2 21/7/2 22/9/2
f 31/10/2 32/12/2 33/11/2
f 33/11/2 30/13/2 31/10/2
f 29/14/2 34/16/2 28/15/2
f 34/16/2 29/14/2 33/11/2
f 33/11/2 29/14/2 30/13/2
f 19/6/2 34/16/2 35/5/2
f 22/9/2 34/16/2 19/6/2
f 34/16/2 22/9/2 28/15/2
f 28/15/2 22/9/2 27/17/2
f 27/17/2 22/9/2 26/18/2
f 23/2/2 26/18/2 22/9/2
f 25/3/2 26/18/2 23/2/2
s 1
f 40/19/3 37/6/4 38/20/4
f 42/21/5 39/22/3 40/19/3
f 44/23/6 41/24/7 42/21/5
f 46/25/8 43/26/6 44/23/6
f 48/27/9 45/28/8 46/25/8
f 50/29/10 47/30/9 48/27/9
f 52/31/11 49/32/10 50/29/10
f 54/33/12 51/34/11 52/31/11
f 56/35/13 53/36/12 54/33/12
f 58/37/14 55/38/13 56/35/13
f 60/39/15 57/40/14 58/37/14
f 62/41/16 59/42/15 60/39/15
f 64/43/17 61/44/16 62/41/16
f 66/45/18 63/46/17 64/43/17
f 68/47/19 65/48/18 66/45/18
f 70/49/20 67/50/19 68/47/19
f 72/51/21 69/52/22 70/49/20
f 38/53/4 71/54/4 72/51/21
f 40/19/3 39/22/3 37/6/4
f 42/21/5 41/24/7 39/22/3
f 44/23/6 43/26/6 41/24/7
f 46/25/8 45/28/8 43/26/6
f 48/27/9 47/30/9 45/28/8
f 50/29/10 49/32/10 47/30/9
f 52/31/11 51/34/11 49/32/10
f 54/33/12 53/36/12 51/34/11
f 56/35/13 55/38/13 53/36/12
f 58/37/14 57/40/14 55/38/13
f 60/39/15 59/42/15 57/40/14
f 62/41/16 61/44/16 59/42/15
f 64/43/17 63/46/17 61/44/16
f 66/45/18 65/48/18 63/46/17
f 68/47/19 67/50/19 65/48/18
f 70/49/20 69/52/22 67/50/19
f 72/51/21 71/54/4 69/52/22
f 38/53/4 37/4/4 71/54/4
