# Blender 5.2.1 LTS
# www.blender.org
mtllib 8.mtl
o Text.008
v -1.022179 0.250000 0.997869
v -1.057536 0.250000 0.994924
v -1.090512 0.250000 0.986453
v -1.120750 0.250000 0.973003
v -1.147893 0.250000 0.955117
v -1.171583 0.250000 0.933343
v -1.191464 0.250000 0.908226
v -1.207179 0.250000 0.880311
v -1.218369 0.250000 0.850144
v -1.224679 0.250000 0.818271
v -1.225750 0.250000 0.785236
v -1.221226 0.250000 0.751587
v -1.210750 0.250000 0.717869
v -0.567893 0.250000 -0.873560
v -0.559163 0.250000 -0.892295
v -0.548766 0.250000 -0.909869
v -0.536821 0.250000 -0.926194
v -0.523448 0.250000 -0.941179
v -0.508766 0.250000 -0.954735
v -0.492893 0.250000 -0.966774
v -0.475948 0.250000 -0.977206
v -0.458052 0.250000 -0.985941
v -0.439321 0.250000 -0.992890
v -0.419877 0.250000 -0.997964
v -0.399837 0.250000 -1.001074
v -0.379321 0.250000 -1.002131
v 1.000679 0.250000 -1.002131
v 1.035435 0.250000 -0.999186
v 1.068020 0.250000 -0.990716
v 1.098045 0.250000 -0.977265
v 1.125123 0.250000 -0.959380
v 1.148868 0.250000 -0.937606
v 1.168893 0.250000 -0.912488
v 1.184811 0.250000 -0.884573
v 1.196234 0.250000 -0.854406
v 1.202777 0.250000 -0.822533
v 1.204052 0.250000 -0.789499
v 1.199672 0.250000 -0.755850
v 1.189250 0.250000 -0.722131
v 0.546393 0.250000 0.869297
v 0.537606 0.250000 0.888032
v 0.527054 0.250000 0.905607
v 0.514875 0.250000 0.921931
v 0.501208 0.250000 0.936916
v 0.486191 0.250000 0.950473
v 0.469964 0.250000 0.962512
v 0.452666 0.250000 0.972943
v 0.434435 0.250000 0.981678
v 0.415411 0.250000 0.988628
v 0.395731 0.250000 0.993702
v 0.375536 0.250000 0.996812
v 0.354964 0.250000 0.997869
v 0.000679 0.250000 -0.707845
v -0.187893 0.250000 -0.242131
v 0.357821 0.250000 -0.242131
v 0.546393 0.250000 -0.707845
v -0.307893 0.250000 0.052154
v -0.570750 0.250000 0.703583
v -0.022179 0.250000 0.703583
v 0.240679 0.250000 0.052154
v -1.022179 -0.250000 0.997869
v -1.057536 -0.250000 0.994924
v -1.090512 -0.250000 0.986453
v -1.120750 -0.250000 0.973003
v -1.147893 -0.250000 0.955117
v -1.171583 -0.250000 0.933343
v -1.191464 -0.250000 0.908226
v -1.207179 -0.250000 0.880311
v -1.218369 -0.250000 0.850144
v -1.224679 -0.250000 0.818271
v -1.225750 -0.250000 0.785236
v -1.221226 -0.250000 0.751587
v -1.210750 -0.250000 0.717869
v -0.567893 -0.250000 -0.873560
v -0.559163 -0.250000 -0.892295
v -0.548766 -0.250000 -0.909869
v -0.536821 -0.250000 -0.926194
v -0.523448 -0.250000 -0.941179
v -0.508766 -0.250000 -0.954735
v -0.492893 -0.250000 -0.966774
v -0.475948 -0.250000 -0.977206
v -0.458052 -0.250000 -0.985941
v -0.439321 -0.250000 -0.992890
v -0.419877 -0.250000 -0.997964
v -0.399837 -0.250000 -1.001074
v -0.379321 -0.250000 -1.002131
v 1.000679 -0.250000 -1.002131
v 1.035435 -0.250000 -0.999186
v 1.068020 -0.250000 -0.990716
v 1.098045 -0.250000 -0.977265
v 1.125123 -0.250000 -0.959380
v 1.148868 -0.250000 -0.937606
v 1.168893 -0.250000 -0.912488
v 1.184811 -0.250000 -0.884573
v 1.196234 -0.250000 -0.854406
v 1.202777 -0.250000 -0.822533
v 1.204052 -0.250000 -0.789499
v 1.199672 -0.250000 -0.755850
v 1.189250 -0.250000 -0.722131
v 0.546393 -0.250000 0.869297
v 0.537606 -0.250000 0.888032
v 0.527054 -0.250000 0.905607
v 0.514875 -0.250000 0.921931
v 0.501208 -0.250000 0.936916
v 0.486191 -0.250000 0.950473
v 0.469964 -0.250000 0.962512
v 0.452666 -0.250000 0.972943
v 0.434435 -0.250000 0.981678
v 0.415411 -0.250000 0.988628
v 0.395731 -0.250000 0.993702
v 0.375536 -0.250000 0.996812
v 0.354964 -0.250000 0.997869
v 0.000679 -0.250000 -0.707845
v -0.187893 -0.250000 -0.242131
v 0.357821 -0.250000 -0.242131
v 0.546393 -0.250000 -0.707845
v -0.307893 -0.250000 0.052154
v -0.570750 -0.250000 0.703583
v -0.022179 -0.250000 0.703583
v 0.240679 -0.250000 0.052154
v -1.022179 -0.250000 0.997869
v -1.022179 0.250000 0.997869
v -1.057536 -0.250000 0.994924
v -1.057536 0.250000 0.994924
v -1.090512 -0.250000 0.986453
v -1.090512 0.250000 0.986453
v -1.120750 -0.250000 0.973003
v -1.120750 0.250000 0.973003
v -1.147893 -0.250000 0.955117
v -1.147893 0.250000 0.955117
v -1.171583 -0.250000 0.933343
v -1.171583 0.250000 0.933343
v -1.191464 -0.250000 0.908226
v -1.191464 0.250000 0.908226
v -1.207179 -0.250000 0.880311
v -1.207179 0.250000 0.880311
v -1.218369 -0.250000 0.850144
v -1.218369 0.250000 0.850144
v -1.224679 -0.250000 0.818271
v -1.224679 0.250000 0.818271
v -1.225750 -0.250000 0.785236
v -1.225750 0.250000 0.785236
v -1.221226 -0.250000 0.751587
v -1.221226 0.250000 0.751587
v -1.210750 -0.250000 0.717869
v -1.210750 0.250000 0.717869
v -0.567893 -0.250000 -0.873560
v -0.567893 0.250000 -0.873560
v -0.559163 -0.250000 -0.892295
v -0.559163 0.250000 -0.892295
v -0.548766 -0.250000 -0.909869
v -0.548766 0.250000 -0.909869
v -0.536821 -0.250000 -0.926194
v -0.536821 0.250000 -0.926194
v -0.523448 -0.250000 -0.941179
v -0.523448 0.250000 -0.941179
v -0.508766 -0.250000 -0.954735
v -0.508766 0.250000 -0.954735
v -0.492893 -0.250000 -0.966774
v -0.492893 0.250000 -0.966774
v -0.475948 -0.250000 -0.977206
v -0.475948 0.250000 -0.977206
v -0.458052 -0.250000 -0.985941
v -0.458052 0.250000 -0.985941
v -0.439321 -0.250000 -0.992890
v -0.439321 0.250000 -0.992890
v -0.419877 -0.250000 -0.997964
v -0.419877 0.250000 -0.997964
v -0.399837 -0.250000 -1.001074
v -0.399837 0.250000 -1.001074
v -0.379321 -0.250000 -1.002131
v -0.379321 0.250000 -1.002131
v 1.000679 -0.250000 -1.002131
v 1.000679 0.250000 -1.002131
v 1.035435 -0.250000 -0.999186
v 1.035435 0.250000 -0.999186
v 1.068020 -0.250000 -0.990716
v 1.068020 0.250000 -0.990716
v 1.098045 -0.250000 -0.977265
v 1.098045 0.250000 -0.977265
v 1.125123 -0.250000 -0.959380
v 1.125123 0.250000 -0.959380
v 1.148868 -0.250000 -0.937606
v 1.148868 0.250000 -0.937606
v 1.168893 -0.250000 -0.912488
v 1.168893 0.250000 -0.912488
v 1.184811 -0.250000 -0.884573
v 1.184811 0.250000 -0.884573
v 1.196234 -0.250000 -0.854406
v 1.196234 0.250000 -0.854406
v 1.202777 -0.250000 -0.822533
v 1.202777 0.250000 -0.822533
v 1.204052 -0.250000 -0.789499
v 1.204052 0.250000 -0.789499
v 1.199672 -0.250000 -0.755850
v 1.199672 0.250000 -0.755850
v 1.189250 -0.250000 -0.722131
v 1.189250 0.250000 -0.722131
v 0.546393 -0.250000 0.869297
v 0.546393 0.250000 0.869297
v 0.537606 -0.250000 0.888032
v 0.537606 0.250000 0.888032
v 0.527054 -0.250000 0.905607
v 0.527054 0.250000 0.905607
v 0.514875 -0.250000 0.921931
v 0.514875 0.250000 0.921931
v 0.501208 -0.250000 0.936916
v 0.501208 0.250000 0.936916
v 0.486191 -0.250000 0.950473
v 0.486191 0.250000 0.950473
v 0.469964 -0.250000 0.962512
v 0.469964 0.250000 0.962512
v 0.452666 -0.250000 0.972943
v 0.452666 0.250000 0.972943
v 0.434435 -0.250000 0.981678
v 0.434435 0.250000 0.981678
v 0.415411 -0.250000 0.988628
v 0.415411 0.250000 0.988628
v 0.395731 -0.250000 0.993702
v 0.395731 0.250000 0.993702
v 0.375536 -0.250000 0.996812
v 0.375536 0.250000 0.996812
v 0.354964 -0.250000 0.997869
v 0.354964 0.250000 0.997869
v 0.000679 -0.250000 -0.707845
v 0.000679 0.250000 -0.707845
v -0.187893 -0.250000 -0.242131
v -0.187893 0.250000 -0.242131
v 0.357821 -0.250000 -0.242131
v 0.357821 0.250000 -0.242131
v 0.546393 -0.250000 -0.707845
v 0.546393 0.250000 -0.707845
v -0.307893 -0.250000 0.052154
v -0.307893 0.250000 0.052154
v -0.570750 -0.250000 0.703583
v -0.570750 0.250000 0.703583
v -0.022179 -0.250000 0.703583
v -0.022179 0.250000 0.703583
v 0.240679 -0.250000 0.052154
v 0.240679 0.250000 0.052154
vn -0.0000 1.0000 -0.0000
vn -0.0000 -1.0000 -0.0000
vn -0.1665 -0.0000 0.9860
vn -0.0415 -0.0000 0.9991
vn -0.3288 -0.0000 0.9444
vn -0.4799 -0.0000 0.8773
vn -0.6154 -0.0000 0.7882
vn -0.7327 -0.0000 0.6806
vn -0.8303 -0.0000 0.5573
vn -0.9073 -0.0000 0.4205
vn -0.9623 -0.0000 0.2719
vn -0.9935 -0.0000 0.1137
vn -0.9987 -0.0000 -0.0506
vn -0.9765 -0.0000 -0.2157
vn -0.9419 -0.0000 -0.3359
vn -0.9171 -0.0000 -0.3986
vn -0.8846 -0.0000 -0.4663
vn -0.8348 -0.0000 -0.5505
vn -0.7775 -0.0000 -0.6289
vn -0.7131 -0.0000 -0.7011
vn -0.6421 -0.0000 -0.7666
vn -0.5649 -0.0000 -0.8251
vn -0.4820 -0.0000 -0.8762
vn -0.3937 -0.0000 -0.9192
vn -0.3006 -0.0000 -0.9538
vn -0.2032 -0.0000 -0.9791
vn -0.1025 -0.0000 -0.9947
vn -0.0257 -0.0000 -0.9997
vn 0.0422 -0.0000 -0.9991
vn 0.1686 -0.0000 -0.9857
vn 0.3314 -0.0000 -0.9435
vn 0.4816 -0.0000 -0.8764
vn 0.6154 -0.0000 -0.7882
vn 0.7311 -0.0000 -0.6823
vn 0.8278 -0.0000 -0.5610
vn 0.9047 -0.0000 -0.4260
vn 0.9604 -0.0000 -0.2785
vn 0.9927 -0.0000 -0.1202
vn 0.9990 -0.0000 0.0454
vn 0.9771 -0.0000 0.2130
vn 0.9421 -0.0000 0.3352
vn 0.9166 -0.0000 0.3997
vn 0.8825 -0.0000 0.4703
vn 0.8305 -0.0000 0.5571
vn 0.7711 -0.0000 0.6367
vn 0.7053 -0.0000 0.7089
vn 0.6337 -0.0000 0.7736
vn 0.5568 -0.0000 0.8307
vn 0.4748 -0.0000 0.8801
vn 0.3881 -0.0000 0.9216
vn 0.2968 -0.0000 0.9550
vn 0.2012 -0.0000 0.9796
vn 0.1019 -0.0000 0.9948
vn 0.0257 -0.0000 0.9997
vn 0.8292 -0.0000 -0.5589
vn 0.5589 -0.0000 0.8293
vn 0.5589 -0.0000 0.8292
vn -0.5589 -0.0000 -0.8292
vn 0.8293 -0.0000 -0.5589
vn -0.8292 -0.0000 0.5589
vn -0.5589 -0.0000 -0.8293
vn -0.8293 -0.0000 0.5589
vn 0.8289 -0.0000 -0.5594
vn 0.5594 -0.0000 0.8289
vn -0.5594 -0.0000 -0.8289
vn -0.8289 -0.0000 0.5594
vt 0.169492 0.000000
vt 0.152542 0.000000
vt 0.135593 0.000000
vt 0.186441 0.000000
vt 0.118644 0.000000
vt 0.050847 0.000000
vt 0.033898 0.000000
vt 0.067797 0.000000
vt 0.016949 0.000000
vt 0.084746 0.000000
vt 0.101695 0.000000
vt 0.000000 0.000000
vt 0.203390 0.000000
vt 0.966102 0.000000
vt 0.372881 0.000000
vt 0.355932 0.000000
vt 0.423729 0.000000
vt 0.389830 0.000000
vt 0.406780 0.000000
vt 0.254237 0.000000
vt 0.237288 0.000000
vt 0.271186 0.000000
vt 0.288136 0.000000
vt 0.305085 0.000000
vt 0.322034 0.000000
vt 0.338983 0.000000
vt 0.949153 0.000000
vt 0.220339 0.000000
vt 0.898305 0.000000
vt 0.847458 0.000000
vt 0.830508 0.000000
vt 0.864407 0.000000
vt 0.813559 0.000000
vt 0.796610 0.000000
vt 0.779661 0.000000
vt 0.762712 0.000000
vt 0.508475 0.000000
vt 0.491525 0.000000
vt 0.457627 0.000000
vt 0.474576 0.000000
vt 0.440678 0.000000
vt 0.644068 0.000000
vt 0.559322 0.000000
vt 0.542373 0.000000
vt 0.610169 0.000000
vt 0.593220 0.000000
vt 0.627119 0.000000
vt 0.576271 0.000000
vt 0.932203 0.000000
vt 0.525424 0.000000
vt 0.694915 0.000000
vt 0.677966 0.000000
vt 0.661017 0.000000
vt 0.711864 0.000000
vt 0.728814 0.000000
vt 0.745763 0.000000
vt 0.915254 0.000000
vt 1.000000 0.000000
vt 0.983051 0.000000
vt 0.881356 0.000000
vt 0.019231 1.000000
vt 0.000000 1.000000
vt 0.038462 1.000000
vt 0.019231 0.000000
vt 0.057692 1.000000
vt 0.038462 0.000000
vt 0.076923 1.000000
vt 0.057692 0.000000
vt 0.096154 1.000000
vt 0.076923 0.000000
vt 0.115385 1.000000
vt 0.096154 0.000000
vt 0.134615 1.000000
vt 0.115385 0.000000
vt 0.153846 1.000000
vt 0.134615 0.000000
vt 0.173077 1.000000
vt 0.153846 0.000000
vt 0.192308 1.000000
vt 0.173077 0.000000
vt 0.211538 1.000000
vt 0.192308 0.000000
vt 0.230769 1.000000
vt 0.211538 0.000000
vt 0.250000 1.000000
vt 0.230769 0.000000
vt 0.269231 1.000000
vt 0.250000 0.000000
vt 0.288462 1.000000
vt 0.269231 0.000000
vt 0.307692 1.000000
vt 0.288462 0.000000
vt 0.326923 1.000000
vt 0.307692 0.000000
vt 0.346154 1.000000
vt 0.326923 0.000000
vt 0.365385 1.000000
vt 0.346154 0.000000
vt 0.384615 1.000000
vt 0.365385 0.000000
vt 0.403846 1.000000
vt 0.384615 0.000000
vt 0.423077 1.000000
vt 0.403846 0.000000
vt 0.442308 1.000000
vt 0.423077 0.000000
vt 0.461538 1.000000
vt 0.442308 0.000000
vt 0.480769 1.000000
vt 0.461538 0.000000
vt 0.500000 1.000000
vt 0.480769 0.000000
vt 0.519231 1.000000
vt 0.500000 0.000000
vt 0.538462 1.000000
vt 0.519231 0.000000
vt 0.557692 1.000000
vt 0.538462 0.000000
vt 0.576923 1.000000
vt 0.557692 0.000000
vt 0.596154 1.000000
vt 0.576923 0.000000
vt 0.615385 1.000000
vt 0.596154 0.000000
vt 0.634615 1.000000
vt 0.615385 0.000000
vt 0.653846 1.000000
vt 0.634615 0.000000
vt 0.673077 1.000000
vt 0.653846 0.000000
vt 0.692308 1.000000
vt 0.673077 0.000000
vt 0.711538 1.000000
vt 0.692308 0.000000
vt 0.730769 1.000000
vt 0.711538 0.000000
vt 0.750000 1.000000
vt 0.730769 0.000000
vt 0.769231 1.000000
vt 0.750000 0.000000
vt 0.788462 1.000000
vt 0.769231 0.000000
vt 0.807692 1.000000
vt 0.788462 0.000000
vt 0.826923 1.000000
vt 0.807692 0.000000
vt 0.846154 1.000000
vt 0.826923 0.000000
vt 0.865385 1.000000
vt 0.846154 0.000000
vt 0.884615 1.000000
vt 0.865385 0.000000
vt 0.903846 1.000000
vt 0.884615 0.000000
vt 0.923077 1.000000
vt 0.903846 0.000000
vt 0.942308 1.000000
vt 0.923077 0.000000
vt 0.961538 1.000000
vt 0.942308 0.000000
vt 0.980769 1.000000
vt 0.961538 0.000000
vt 1.000000 1.000000
vt 0.980769 0.000000
s 0
f 11/1/1 10/2/1 9/3/1
f 12/4/1 11/1/1 9/3/1
f 9/3/1 8/5/1 12/4/1
f 4/6/1 3/7/1 5/8/1
f 5/8/1 3/7/1 2/9/1
f 6/10/1 5/8/1 2/9/1
f 6/10/1 2/9/1 7/11/1
f 8/5/1 7/11/1 2/9/1
f 12/4/1 8/5/1 2/9/1
f 2/9/1 1/12/1 12/4/1
f 13/13/1 12/4/1 1/12/1
f 1/12/1 58/14/1 13/13/1
f 23/15/1 22/16/1 26/17/1
f 24/18/1 23/15/1 26/17/1
f 25/19/1 24/18/1 26/17/1
f 16/20/1 15/21/1 26/17/1
f 17/22/1 16/20/1 26/17/1
f 18/23/1 17/22/1 26/17/1
f 19/24/1 18/23/1 26/17/1
f 20/25/1 19/24/1 26/17/1
f 21/26/1 20/25/1 26/17/1
f 26/17/1 22/16/1 21/26/1
f 13/13/1 58/14/1 57/27/1
f 14/28/1 13/13/1 57/27/1
f 57/27/1 54/29/1 14/28/1
f 26/17/1 15/21/1 14/28/1
f 51/30/1 50/31/1 52/32/1
f 50/31/1 49/33/1 52/32/1
f 52/32/1 49/33/1 48/34/1
f 48/34/1 47/35/1 52/32/1
f 47/35/1 46/36/1 52/32/1
f 31/37/1 30/38/1 28/39/1
f 29/40/1 28/39/1 30/38/1
f 31/37/1 28/39/1 27/41/1
f 39/42/1 34/43/1 33/44/1
f 37/45/1 36/46/1 38/47/1
f 35/48/1 38/47/1 36/46/1
f 34/43/1 39/42/1 38/47/1
f 38/47/1 35/48/1 34/43/1
f 27/41/1 56/49/1 39/42/1
f 39/42/1 33/44/1 27/41/1
f 33/44/1 32/50/1 27/41/1
f 31/37/1 27/41/1 32/50/1
f 42/51/1 41/52/1 40/53/1
f 43/54/1 42/51/1 40/53/1
f 44/55/1 43/54/1 40/53/1
f 45/56/1 44/55/1 40/53/1
f 46/36/1 45/56/1 40/53/1
f 52/32/1 46/36/1 40/53/1
f 55/57/1 60/58/1 40/53/1
f 40/53/1 39/42/1 55/57/1
f 39/42/1 56/49/1 55/57/1
f 58/14/1 1/12/1 52/32/1
f 59/59/1 58/14/1 52/32/1
f 52/32/1 40/53/1 59/59/1
f 40/53/1 60/58/1 59/59/1
f 54/29/1 57/27/1 60/58/1
f 60/58/1 55/57/1 54/29/1
f 14/28/1 54/29/1 53/60/1
f 26/17/1 14/28/1 53/60/1
f 53/60/1 56/49/1 26/17/1
f 56/49/1 27/41/1 26/17/1
f 71/1/2 69/3/2 70/2/2
f 72/4/2 69/3/2 71/1/2
f 69/3/2 72/4/2 68/5/2
f 64/6/2 65/8/2 63/7/2
f 65/8/2 62/9/2 63/7/2
f 66/10/2 62/9/2 65/8/2
f 66/10/2 67/11/2 62/9/2
f 68/5/2 62/9/2 67/11/2
f 72/4/2 62/9/2 68/5/2
f 62/9/2 72/4/2 61/12/2
f 73/13/2 61/12/2 72/4/2
f 61/12/2 73/13/2 118/14/2
f 83/15/2 86/17/2 82/16/2
f 84/18/2 86/17/2 83/15/2
f 85/19/2 86/17/2 84/18/2
f 76/20/2 86/17/2 75/21/2
f 77/22/2 86/17/2 76/20/2
f 78/23/2 86/17/2 77/22/2
f 79/24/2 86/17/2 78/23/2
f 80/25/2 86/17/2 79/24/2
f 81/26/2 86/17/2 80/25/2
f 86/17/2 81/26/2 82/16/2
f 73/13/2 117/27/2 118/14/2
f 74/28/2 117/27/2 73/13/2
f 117/27/2 74/28/2 114/29/2
f 86/17/2 74/28/2 75/21/2
f 111/30/2 112/32/2 110/31/2
f 110/31/2 112/32/2 109/33/2
f 112/32/2 108/34/2 109/33/2
f 108/34/2 112/32/2 107/35/2
f 107/35/2 112/32/2 106/36/2
f 91/37/2 88/39/2 90/38/2
f 89/40/2 90/38/2 88/39/2
f 91/37/2 87/41/2 88/39/2
f 99/42/2 93/44/2 94/43/2
f 97/45/2 98/47/2 96/46/2
f 95/48/2 96/46/2 98/47/2
f 94/43/2 98/47/2 99/42/2
f 98/47/2 94/43/2 95/48/2
f 87/41/2 99/42/2 116/49/2
f 99/42/2 87/41/2 93/44/2
f 93/44/2 87/41/2 92/50/2
f 91/37/2 92/50/2 87/41/2
f 102/51/2 100/53/2 101/52/2
f 103/54/2 100/53/2 102/51/2
f 104/55/2 100/53/2 103/54/2
f 105/56/2 100/53/2 104/55/2
f 106/36/2 100/53/2 105/56/2
f 112/32/2 100/53/2 106/36/2
f 115/57/2 100/53/2 120/58/2
f 100/53/2 115/57/2 99/42/2
f 99/42/2 115/57/2 116/49/2
f 118/14/2 112/32/2 61/12/2
f 119/59/2 112/32/2 118/14/2
f 112/32/2 119/59/2 100/53/2
f 100/53/2 119/59/2 120/58/2
f 114/29/2 120/58/2 117/27/2
f 120/58/2 114/29/2 115/57/2
f 74/28/2 113/60/2 114/29/2
f 86/17/2 113/60/2 74/28/2
f 113/60/2 86/17/2 116/49/2
f 116/49/2 86/17/2 87/41/2
s 1
f 124/61/3 121/12/4 122/62/4
f 126/63/5 123/64/3 124/61/3
f 128/65/6 125/66/5 126/63/5
f 130/67/7 127/68/6 128/65/6
f 132/69/8 129/70/7 130/67/7
f 134/71/9 131/72/8 132/69/8
f 136/73/10 133/74/9 134/71/9
f 138/75/11 135/76/10 136/73/10
f 140/77/12 137/78/11 138/75/11
f 142/79/13 139/80/12 140/77/12
f 144/81/14 141/82/13 142/79/13
f 146/83/15 143/84/14 144/81/14
f 148/85/16 145/86/15 146/83/15
f 150/87/17 147/88/16 148/85/16
f 152/89/18 149/90/17 150/87/17
f 154/91/19 151/92/18 152/89/18
f 156/93/20 153/94/19 154/91/19
f 158/95/21 155/96/20 156/93/20
f 160/97/22 157/98/21 158/95/21
f 162/99/23 159/100/22 160/97/22
f 164/101/24 161/102/23 162/99/23
f 166/103/25 163/104/24 164/101/24
f 168/105/26 165/106/25 166/103/25
f 170/107/27 167/108/26 168/105/26
f 172/109/28 169/110/27 170/107/27
f 174/111/29 171/112/28 172/109/28
f 176/113/30 173/114/29 174/111/29
f 178/115/31 175/116/30 176/113/30
f 180/117/32 177/118/31 178/115/31
f 182/119/33 179/120/32 180/117/32
f 184/121/34 181/122/33 182/119/33
f 186/123/35 183/124/34 184/121/34
f 188/125/36 185/126/35 186/123/35
f 190/127/37 187/128/36 188/125/36
f 192/129/38 189/130/37 190/127/37
f 194/131/39 191/132/38 192/129/38
f 196/133/40 193/134/39 194/131/39
f 198/135/41 195/136/40 196/133/40
f 200/137/42 197/138/41 198/135/41
f 202/139/43 199/140/42 200/137/42
f 204/141/44 201/142/43 202/139/43
f 206/143/45 203/144/44 204/141/44
f 208/145/46 205/146/45 206/143/45
f 210/147/47 207/148/46 208/145/46
f 212/149/48 209/150/47 210/147/47
f 214/151/49 211/152/48 212/149/48
f 216/153/50 213/154/49 214/151/49
f 218/155/51 215/156/50 216/153/50
f 220/157/52 217/158/51 218/155/51
f 222/159/53 219/160/52 220/157/52
f 224/161/54 221/162/53 222/159/53
f 122/163/4 223/164/54 224/161/54
f 228/85/55 225/12/56 226/62/57
f 230/111/58 227/88/59 228/85/55
f 232/137/60 229/114/61 230/111/58
f 226/163/57 231/140/62 232/137/60
f 236/85/63 233/12/64 234/62/64
f 238/111/65 235/88/63 236/85/63
f 240/137/66 237/114/65 238/111/65
f 234/163/64 239/140/66 240/137/66
f 124/61/3 123/64/3 121/12/4
f 126/63/5 125/66/5 123/64/3
f 128/65/6 127/68/6 125/66/5
f 130/67/7 129/70/7 127/68/6
f 132/69/8 131/72/8 129/70/7
f 134/71/9 133/74/9 131/72/8
f 136/73/10 135/76/10 133/74/9
f 138/75/11 137/78/11 135/76/10
f 140/77/12 139/80/12 137/78/11
f 142/79/13 141/82/13 139/80/12
f 144/81/14 143/84/14 141/82/13
f 146/83/15 145/86/15 143/84/14
f 148/85/16 147/88/16 145/86/15
f 150/87/17 149/90/17 147/88/16
f 152/89/18 151/92/18 149/90/17
f 154/91/19 153/94/19 151/92/18
f 156/93/20 155/96/20 153/94/19
f 158/95/21 157/98/21 155/96/20
f 160/97/22 159/100/22 157/98/21
f 162/99/23 161/102/23 159/100/22
f 164/101/24 163/104/24 161/102/23
f 166/103/25 165/106/25 163/104/24
f 168/105/26 167/108/26 165/106/25
f 170/107/27 169/110/27 167/108/26
f 172/109/28 171/112/28 169/110/27
f 174/111/29 173/114/29 171/112/28
f 176/113/30 175/116/30 173/114/29
f 178/115/31 177/118/31 175/116/30
f 180/117/32 179/120/32 177/118/31
f 182/119/33 181/122/33 179/120/32
f 184/121/34 183/124/34 181/122/33
f 186/123/35 185/126/35 183/124/34
f 188/125/36 187/128/36 185/126/35
f 190/127/37 189/130/37 187/128/36
f 192/129/38 191/132/38 189/130/37
f 194/131/39 193/134/39 191/132/38
f 196/133/40 195/136/40 193/134/39
f 198/135/41 197/138/41 195/136/40
f 200/137/42 199/140/42 197/138/41
f 202/139/43 201/142/43 199/140/42
f 204/141/44 203/144/44 201/142/43
f 206/143/45 205/146/45 203/144/44
f 208/145/46 207/148/46 205/146/45
f 210/147/47 209/150/47 207/148/46
f 212/149/48 211/152/48 209/150/47
f 214/151/49 213/154/49 211/152/48
f 216/153/50 215/156/50 213/154/49
f 218/155/51 217/158/51 215/156/50
f 220/157/52 219/160/52 217/158/51
f 222/159/53 221/162/53 219/160/52
f 224/161/54 223/164/54 221/162/53
f 122/163/4 121/58/4 223/164/54
f 228/85/55 227/88/59 225/12/56
f 230/111/58 229/114/61 227/88/59
f 232/137/60 231/140/62 229/114/61
f 226/163/57 225/58/56 231/140/62
f 236/85/63 235/88/63 233/12/64
f 238/111/65 237/114/65 235/88/63
f 240/137/66 239/140/66 237/114/65
f 234/163/64 233/58/64 239/140/66
