# Blender 5.2.1 LTS
# www.blender.org
mtllib 9.mtl
o Text.009
v 0.357821 0.250000 0.997869
v -1.325036 0.250000 0.997869
v -1.205036 0.250000 0.703583
v -0.022179 0.250000 0.703583
v 0.240679 0.250000 0.052154
v -0.639321 0.250000 0.052154
v -0.674679 0.250000 0.049210
v -0.707655 0.250000 0.040739
v -0.737893 0.250000 0.027288
v -0.765036 0.250000 0.009403
v -0.788726 0.250000 -0.012371
v -0.808607 0.250000 -0.037488
v -0.824322 0.250000 -0.065403
v -0.835512 0.250000 -0.095570
v -0.841822 0.250000 -0.127444
v -0.842893 0.250000 -0.160478
v -0.838369 0.250000 -0.194127
v -0.827893 0.250000 -0.227846
v -0.567893 0.250000 -0.873560
v -0.559163 0.250000 -0.892295
v -0.548766 0.250000 -0.909869
v -0.536821 0.250000 -0.926194
v -0.523448 0.250000 -0.941179
v -0.508766 0.250000 -0.954735
v -0.492893 0.250000 -0.966774
v -0.475948 0.250000 -0.977206
v -0.458052 0.250000 -0.985941
v -0.439321 0.250000 -0.992890
v -0.419877 0.250000 -0.997964
v -0.399837 0.250000 -1.001074
v -0.379321 0.250000 -1.002131
v 1.000679 0.250000 -1.002131
v 1.035435 0.250000 -0.999186
v 1.068020 0.250000 -0.990716
v 1.098045 0.250000 -0.977265
v 1.125123 0.250000 -0.959380
v 1.148868 0.250000 -0.937606
v 1.168893 0.250000 -0.912488
v 1.184811 0.250000 -0.884573
v 1.196234 0.250000 -0.854406
v 1.202777 0.250000 -0.822533
v 1.204052 0.250000 -0.789499
v 1.199672 0.250000 -0.755850
v 1.189250 0.250000 -0.722131
v 0.546393 0.250000 0.869297
v 0.537663 0.250000 0.888032
v 0.527266 0.250000 0.905607
v 0.515321 0.250000 0.921931
v 0.501948 0.250000 0.936916
v 0.487266 0.250000 0.950473
v 0.471393 0.250000 0.962512
v 0.454448 0.250000 0.972943
v 0.436552 0.250000 0.981678
v 0.417821 0.250000 0.988628
v 0.398377 0.250000 0.993702
v 0.378337 0.250000 0.996812
v 0.000679 0.250000 -0.707845
v -0.187893 0.250000 -0.242131
v 0.357821 0.250000 -0.242131
v 0.546393 0.250000 -0.707845
v 0.357821 -0.250000 0.997869
v -1.325036 -0.250000 0.997869
v -1.205036 -0.250000 0.703583
v -0.022179 -0.250000 0.703583
v 0.240679 -0.250000 0.052154
v -0.639321 -0.250000 0.052154
v -0.674679 -0.250000 0.049210
v -0.707655 -0.250000 0.040739
v -0.737893 -0.250000 0.027288
v -0.765036 -0.250000 0.009403
v -0.788726 -0.250000 -0.012371
v -0.808607 -0.250000 -0.037488
v -0.824322 -0.250000 -0.065403
v -0.835512 -0.250000 -0.095570
v -0.841822 -0.250000 -0.127444
v -0.842893 -0.250000 -0.160478
v -0.838369 -0.250000 -0.194127
v -0.827893 -0.250000 -0.227846
v -0.567893 -0.250000 -0.873560
v -0.559163 -0.250000 -0.892295
v -0.548766 -0.250000 -0.909869
v -0.536821 -0.250000 -0.926194
v -0.523448 -0.250000 -0.941179
v -0.508766 -0.250000 -0.954735
v -0.492893 -0.250000 -0.966774
v -0.475948 -0.250000 -0.977206
v -0.458052 -0.250000 -0.985941
v -0.439321 -0.250000 -0.992890
v -0.419877 -0.250000 -0.997964
v -0.399837 -0.250000 -1.001074
v -0.379321 -0.250000 -1.002131
v 1.000679 -0.250000 -1.002131
v 1.035435 -0.250000 -0.999186
v 1.068020 -0.250000 -0.990716
v 1.098045 -0.250000 -0.977265
v 1.125123 -0.250000 -0.959380
v 1.148868 -0.250000 -0.937606
v 1.168893 -0.250000 -0.912488
v 1.184811 -0.250000 -0.884573
v 1.196234 -0.250000 -0.854406
v 1.202777 -0.250000 -0.822533
v 1.204052 -0.250000 -0.789499
v 1.199672 -0.250000 -0.755850
v 1.189250 -0.250000 -0.722131
v 0.546393 -0.250000 0.869297
v 0.537663 -0.250000 0.888032
v 0.527266 -0.250000 0.905607
v 0.515321 -0.250000 0.921931
v 0.501948 -0.250000 0.936916
v 0.487266 -0.250000 0.950473
v 0.471393 -0.250000 0.962512
v 0.454448 -0.250000 0.972943
v 0.436552 -0.250000 0.981678
v 0.417821 -0.250000 0.988628
v 0.398377 -0.250000 0.993702
v 0.378337 -0.250000 0.996812
v 0.000679 -0.250000 -0.707845
v -0.187893 -0.250000 -0.242131
v 0.357821 -0.250000 -0.242131
v 0.546393 -0.250000 -0.707845
v 0.357821 -0.250000 0.997869
v 0.357821 0.250000 0.997869
v -1.325036 -0.250000 0.997869
v -1.325036 0.250000 0.997869
v -1.205036 -0.250000 0.703583
v -1.205036 0.250000 0.703583
v -0.022179 -0.250000 0.703583
v -0.022179 0.250000 0.703583
v 0.240679 -0.250000 0.052154
v 0.240679 0.250000 0.052154
v -0.639321 -0.250000 0.052154
v -0.639321 0.250000 0.052154
v -0.674679 -0.250000 0.049210
v -0.674679 0.250000 0.049210
v -0.707655 -0.250000 0.040739
v -0.707655 0.250000 0.040739
v -0.737893 -0.250000 0.027288
v -0.737893 0.250000 0.027288
v -0.765036 -0.250000 0.009403
v -0.765036 0.250000 0.009403
v -0.788726 -0.250000 -0.012371
v -0.788726 0.250000 -0.012371
v -0.808607 -0.250000 -0.037488
v -0.808607 0.250000 -0.037488
v -0.824322 -0.250000 -0.065403
v -0.824322 0.250000 -0.065403
v -0.835512 -0.250000 -0.095570
v -0.835512 0.250000 -0.095570
v -0.841822 -0.250000 -0.127444
v -0.841822 0.250000 -0.127444
v -0.842893 -0.250000 -0.160478
v -0.842893 0.250000 -0.160478
v -0.838369 -0.250000 -0.194127
v -0.838369 0.250000 -0.194127
v -0.827893 -0.250000 -0.227846
v -0.827893 0.250000 -0.227846
v -0.567893 -0.250000 -0.873560
v -0.567893 0.250000 -0.873560
v -0.559163 -0.250000 -0.892295
v -0.559163 0.250000 -0.892295
v -0.548766 -0.250000 -0.909869
v -0.548766 0.250000 -0.909869
v -0.536821 -0.250000 -0.926194
v -0.536821 0.250000 -0.926194
v -0.523448 -0.250000 -0.941179
v -0.523448 0.250000 -0.941179
v -0.508766 -0.250000 -0.954735
v -0.508766 0.250000 -0.954735
v -0.492893 -0.250000 -0.966774
v -0.492893 0.250000 -0.966774
v -0.475948 -0.250000 -0.977206
v -0.475948 0.250000 -0.977206
v -0.458052 -0.250000 -0.985941
v -0.458052 0.250000 -0.985941
v -0.439321 -0.250000 -0.992890
v -0.439321 0.250000 -0.992890
v -0.419877 -0.250000 -0.997964
v -0.419877 0.250000 -0.997964
v -0.399837 -0.250000 -1.001074
v -0.399837 0.250000 -1.001074
v -0.379321 -0.250000 -1.002131
v -0.379321 0.250000 -1.002131
v 1.000679 -0.250000 -1.002131
v 1.000679 0.250000 -1.002131
v 1.035435 -0.250000 -0.999186
v 1.035435 0.250000 -0.999186
v 1.068020 -0.250000 -0.990716
v 1.068020 0.250000 -0.990716
v 1.098045 -0.250000 -0.977265
v 1.098045 0.250000 -0.977265
v 1.125123 -0.250000 -0.959380
v 1.125123 0.250000 -0.959380
v 1.148868 -0.250000 -0.937606
v 1.148868 0.250000 -0.937606
v 1.168893 -0.250000 -0.912488
v 1.168893 0.250000 -0.912488
v 1.184811 -0.250000 -0.884573
v 1.184811 0.250000 -0.884573
v 1.196234 -0.250000 -0.854406
v 1.196234 0.250000 -0.854406
v 1.202777 -0.250000 -0.822533
v 1.202777 0.250000 -0.822533
v 1.204052 -0.250000 -0.789499
v 1.204052 0.250000 -0.789499
v 1.199672 -0.250000 -0.755850
v 1.199672 0.250000 -0.755850
v 1.189250 -0.250000 -0.722131
v 1.189250 0.250000 -0.722131
v 0.546393 -0.250000 0.869297
v 0.546393 0.250000 0.869297
v 0.537663 -0.250000 0.888032
v 0.537663 0.250000 0.888032
v 0.527266 -0.250000 0.905607
v 0.527266 0.250000 0.905607
v 0.515321 -0.250000 0.921931
v 0.515321 0.250000 0.921931
v 0.501948 -0.250000 0.936916
v 0.501948 0.250000 0.936916
v 0.487266 -0.250000 0.950473
v 0.487266 0.250000 0.950473
v 0.471393 -0.250000 0.962512
v 0.471393 0.250000 0.962512
v 0.454448 -0.250000 0.972943
v 0.454448 0.250000 0.972943
v 0.436552 -0.250000 0.981678
v 0.436552 0.250000 0.981678
v 0.417821 -0.250000 0.988628
v 0.417821 0.250000 0.988628
v 0.398377 -0.250000 0.993702
v 0.398377 0.250000 0.993702
v 0.378337 -0.250000 0.996812
v 0.378337 0.250000 0.996812
v 0.000679 -0.250000 -0.707845
v 0.000679 0.250000 -0.707845
v -0.187893 -0.250000 -0.242131
v -0.187893 0.250000 -0.242131
v 0.357821 -0.250000 -0.242131
v 0.357821 0.250000 -0.242131
v 0.546393 -0.250000 -0.707845
v 0.546393 0.250000 -0.707845
vn -0.0000 1.0000 -0.0000
vn -0.0000 -1.0000 -0.0000
vn -0.8299 -0.0000 0.5579
vn 0.0257 -0.0000 0.9997
vn -0.5578 -0.0000 -0.8299
vn -0.5594 -0.0000 -0.8289
vn -0.8289 -0.0000 0.5594
vn -0.0415 -0.0000 0.9991
vn -0.1665 -0.0000 0.9860
vn -0.3288 -0.0000 0.9444
vn -0.4799 -0.0000 0.8773
vn -0.6154 -0.0000 0.7882
vn -0.7327 -0.0000 0.6806
vn -0.8303 -0.0000 0.5573
vn -0.9073 -0.0000 0.4205
vn -0.9623 -0.0000 0.2719
vn -0.9935 -0.0000 0.1137
vn -0.9987 -0.0000 -0.0506
vn -0.9765 -0.0000 -0.2157
vn -0.9421 -0.0000 -0.3354
vn -0.9173 -0.0000 -0.3981
vn -0.8846 -0.0000 -0.4663
vn -0.8348 -0.0000 -0.5505
vn -0.7775 -0.0000 -0.6289
vn -0.7131 -0.0000 -0.7011
vn -0.6421 -0.0000 -0.7666
vn -0.5649 -0.0000 -0.8251
vn -0.4820 -0.0000 -0.8762
vn -0.3937 -0.0000 -0.9192
vn -0.3006 -0.0000 -0.9538
vn -0.2032 -0.0000 -0.9791
vn -0.1025 -0.0000 -0.9947
vn -0.0257 -0.0000 -0.9997
vn 0.0422 -0.0000 -0.9991
vn 0.1686 -0.0000 -0.9857
vn 0.3314 -0.0000 -0.9435
vn 0.4816 -0.0000 -0.8764
vn 0.6154 -0.0000 -0.7882
vn 0.7311 -0.0000 -0.6823
vn 0.8278 -0.0000 -0.5610
vn 0.9047 -0.0000 -0.4260
vn 0.9604 -0.0000 -0.2785
vn 0.9927 -0.0000 -0.1202
vn 0.9990 -0.0000 0.0454
vn 0.9771 -0.0000 0.2130
vn 0.9421 -0.0000 0.3352
vn 0.9171 -0.0000 0.3986
vn 0.8846 -0.0000 0.4663
vn 0.8348 -0.0000 0.5505
vn 0.7775 -0.0000 0.6289
vn 0.7131 -0.0000 0.7011
vn 0.6421 -0.0000 0.7666
vn 0.5649 -0.0000 0.8251
vn 0.4820 -0.0000 0.8762
vn 0.3937 -0.0000 0.9192
vn 0.3006 -0.0000 0.9538
vn 0.2032 -0.0000 0.9791
vn 0.1025 -0.0000 0.9947
vn 0.8292 -0.0000 -0.5589
vn 0.5589 -0.0000 0.8293
vn 0.5589 -0.0000 0.8292
vn -0.5589 -0.0000 -0.8292
vn 0.8293 -0.0000 -0.5589
vn -0.8292 -0.0000 0.5589
vn -0.5589 -0.0000 -0.8293
vn -0.8293 -0.0000 0.5589
vt 0.237288 0.000000
vt 0.220339 0.000000
vt 0.254237 0.000000
vt 0.271186 0.000000
vt 0.135593 0.000000
vt 0.118644 0.000000
vt 0.152542 0.000000
vt 0.101695 0.000000
vt 0.169492 0.000000
vt 0.186441 0.000000
vt 0.203390 0.000000
vt 0.084746 0.000000
vt 0.288136 0.000000
vt 0.440678 0.000000
vt 0.423729 0.000000
vt 0.508475 0.000000
vt 0.457627 0.000000
vt 0.474576 0.000000
vt 0.491525 0.000000
vt 0.322034 0.000000
vt 0.305085 0.000000
vt 0.338983 0.000000
vt 0.355932 0.000000
vt 0.372881 0.000000
vt 0.389830 0.000000
vt 0.406780 0.000000
vt 0.033898 0.000000
vt 0.016949 0.000000
vt 0.050847 0.000000
vt 0.966102 0.000000
vt 0.932203 0.000000
vt 0.915254 0.000000
vt 0.000000 0.000000
vt 0.898305 0.000000
vt 0.881356 0.000000
vt 0.864407 0.000000
vt 0.847458 0.000000
vt 0.830508 0.000000
vt 0.813559 0.000000
vt 0.796610 0.000000
vt 0.779661 0.000000
vt 0.762712 0.000000
vt 0.593220 0.000000
vt 0.576271 0.000000
vt 0.542373 0.000000
vt 0.559322 0.000000
vt 0.525424 0.000000
vt 0.728814 0.000000
vt 0.644068 0.000000
vt 0.627119 0.000000
vt 0.694915 0.000000
vt 0.677966 0.000000
vt 0.711864 0.000000
vt 0.661017 0.000000
vt 1.000000 0.000000
vt 0.610169 0.000000
vt 0.745763 0.000000
vt 0.983051 0.000000
vt 0.067797 0.000000
vt 0.949153 0.000000
vt 0.017857 1.000000
vt 0.000000 1.000000
vt 0.035714 1.000000
vt 0.017857 0.000000
vt 0.053571 1.000000
vt 0.035714 0.000000
vt 0.071429 1.000000
vt 0.053571 0.000000
vt 0.089286 1.000000
vt 0.071429 0.000000
vt 0.107143 1.000000
vt 0.089286 0.000000
vt 0.125000 1.000000
vt 0.107143 0.000000
vt 0.142857 1.000000
vt 0.125000 0.000000
vt 0.160714 1.000000
vt 0.142857 0.000000
vt 0.178571 1.000000
vt 0.160714 0.000000
vt 0.196429 1.000000
vt 0.178571 0.000000
vt 0.214286 1.000000
vt 0.196429 0.000000
vt 0.232143 1.000000
vt 0.214286 0.000000
vt 0.250000 1.000000
vt 0.232143 0.000000
vt 0.267857 1.000000
vt 0.250000 0.000000
vt 0.285714 1.000000
vt 0.267857 0.000000
vt 0.303571 1.000000
vt 0.285714 0.000000
vt 0.321429 1.000000
vt 0.303571 0.000000
vt 0.339286 1.000000
vt 0.321429 0.000000
vt 0.357143 1.000000
vt 0.339286 0.000000
vt 0.375000 1.000000
vt 0.357143 0.000000
vt 0.392857 1.000000
vt 0.375000 0.000000
vt 0.410714 1.000000
vt 0.392857 0.000000
vt 0.428571 1.000000
vt 0.410714 0.000000
vt 0.446429 1.000000
vt 0.428571 0.000000
vt 0.464286 1.000000
vt 0.446429 0.000000
vt 0.482143 1.000000
vt 0.464286 0.000000
vt 0.500000 1.000000
vt 0.482143 0.000000
vt 0.517857 1.000000
vt 0.500000 0.000000
vt 0.535714 1.000000
vt 0.517857 0.000000
vt 0.553571 1.000000
vt 0.535714 0.000000
vt 0.571429 1.000000
vt 0.553571 0.000000
vt 0.589286 1.000000
vt 0.571429 0.000000
vt 0.607143 1.000000
vt 0.589286 0.000000
vt 0.625000 1.000000
vt 0.607143 0.000000
vt 0.642857 1.000000
vt 0.625000 0.000000
vt 0.660714 1.000000
vt 0.642857 0.000000
vt 0.678571 1.000000
vt 0.660714 0.000000
vt 0.696429 1.000000
vt 0.678571 0.000000
vt 0.714286 1.000000
vt 0.696429 0.000000
vt 0.732143 1.000000
vt 0.714286 0.000000
vt 0.750000 1.000000
vt 0.732143 0.000000
vt 0.767857 1.000000
vt 0.750000 0.000000
vt 0.785714 1.000000
vt 0.767857 0.000000
vt 0.803571 1.000000
vt 0.785714 0.000000
vt 0.821429 1.000000
vt 0.803571 0.000000
vt 0.839286 1.000000
vt 0.821429 0.000000
vt 0.857143 1.000000
vt 0.839286 0.000000
vt 0.875000 1.000000
vt 0.857143 0.000000
vt 0.892857 1.000000
vt 0.875000 0.000000
vt 0.910714 1.000000
vt 0.892857 0.000000
vt 0.928571 1.000000
vt 0.910714 0.000000
vt 0.946429 1.000000
vt 0.928571 0.000000
vt 0.964286 1.000000
vt 0.946429 0.000000
vt 0.982143 1.000000
vt 0.964286 0.000000
vt 1.000000 1.000000
vt 0.982143 0.000000
s 0
f 15/1/1 14/2/1 16/3/1
f 14/2/1 17/4/1 16/3/1
f 9/5/1 8/6/1 10/7/1
f 8/6/1 7/8/1 10/7/1
f 11/9/1 10/7/1 7/8/1
f 12/10/1 11/9/1 7/8/1
f 13/11/1 12/10/1 7/8/1
f 17/4/1 14/2/1 13/11/1
f 13/11/1 7/8/1 17/4/1
f 7/8/1 6/12/1 17/4/1
f 18/13/1 17/4/1 6/12/1
f 27/14/1 26/15/1 31/16/1
f 28/17/1 27/14/1 31/16/1
f 29/18/1 28/17/1 31/16/1
f 31/16/1 30/19/1 29/18/1
f 20/20/1 19/21/1 31/16/1
f 21/22/1 20/20/1 31/16/1
f 22/23/1 21/22/1 31/16/1
f 23/24/1 22/23/1 31/16/1
f 24/25/1 23/24/1 31/16/1
f 25/26/1 24/25/1 31/16/1
f 31/16/1 26/15/1 25/26/1
f 3/27/1 2/28/1 4/29/1
f 18/13/1 6/12/1 58/30/1
f 58/30/1 19/21/1 18/13/1
f 56/31/1 55/32/1 1/33/1
f 55/32/1 54/34/1 1/33/1
f 1/33/1 54/34/1 53/35/1
f 53/35/1 52/36/1 1/33/1
f 52/36/1 51/37/1 1/33/1
f 51/37/1 50/38/1 1/33/1
f 50/38/1 49/39/1 1/33/1
f 49/39/1 48/40/1 1/33/1
f 48/40/1 47/41/1 1/33/1
f 47/41/1 46/42/1 1/33/1
f 36/43/1 35/44/1 33/45/1
f 34/46/1 33/45/1 35/44/1
f 36/43/1 33/45/1 32/47/1
f 44/48/1 39/49/1 38/50/1
f 42/51/1 41/52/1 43/53/1
f 40/54/1 43/53/1 41/52/1
f 39/49/1 44/48/1 43/53/1
f 43/53/1 40/54/1 39/49/1
f 32/47/1 60/55/1 44/48/1
f 44/48/1 38/50/1 32/47/1
f 38/50/1 37/56/1 32/47/1
f 36/43/1 32/47/1 37/56/1
f 1/33/1 46/42/1 45/57/1
f 59/58/1 5/59/1 45/57/1
f 45/57/1 44/48/1 59/58/1
f 44/48/1 60/55/1 59/58/1
f 4/29/1 2/28/1 1/33/1
f 1/33/1 45/57/1 4/29/1
f 45/57/1 5/59/1 4/29/1
f 58/30/1 6/12/1 5/59/1
f 5/59/1 59/58/1 58/30/1
f 19/21/1 58/30/1 57/60/1
f 31/16/1 19/21/1 57/60/1
f 57/60/1 60/55/1 31/16/1
f 60/55/1 32/47/1 31/16/1
f 75/1/2 76/3/2 74/2/2
f 74/2/2 76/3/2 77/4/2
f 69/5/2 70/7/2 68/6/2
f 68/6/2 70/7/2 67/8/2
f 71/9/2 67/8/2 70/7/2
f 72/10/2 67/8/2 71/9/2
f 73/11/2 67/8/2 72/10/2
f 77/4/2 73/11/2 74/2/2
f 73/11/2 77/4/2 67/8/2
f 67/8/2 77/4/2 66/12/2
f 78/13/2 66/12/2 77/4/2
f 87/14/2 91/16/2 86/15/2
f 88/17/2 91/16/2 87/14/2
f 89/18/2 91/16/2 88/17/2
f 91/16/2 89/18/2 90/19/2
f 80/20/2 91/16/2 79/21/2
f 81/22/2 91/16/2 80/20/2
f 82/23/2 91/16/2 81/22/2
f 83/24/2 91/16/2 82/23/2
f 84/25/2 91/16/2 83/24/2
f 85/26/2 91/16/2 84/25/2
f 91/16/2 85/26/2 86/15/2
f 63/27/2 64/29/2 62/28/2
f 78/13/2 118/30/2 66/12/2
f 118/30/2 78/13/2 79/21/2
f 116/31/2 61/33/2 115/32/2
f 115/32/2 61/33/2 114/34/2
f 61/33/2 113/35/2 114/34/2
f 113/35/2 61/33/2 112/36/2
f 112/36/2 61/33/2 111/37/2
f 111/37/2 61/33/2 110/38/2
f 110/38/2 61/33/2 109/39/2
f 109/39/2 61/33/2 108/40/2
f 108/40/2 61/33/2 107/41/2
f 107/41/2 61/33/2 106/42/2
f 96/43/2 93/45/2 95/44/2
f 94/46/2 95/44/2 93/45/2
f 96/43/2 92/47/2 93/45/2
f 104/48/2 98/50/2 99/49/2
f 102/51/2 103/53/2 101/52/2
f 100/54/2 101/52/2 103/53/2
f 99/49/2 103/53/2 104/48/2
f 103/53/2 99/49/2 100/54/2
f 92/47/2 104/48/2 120/55/2
f 104/48/2 92/47/2 98/50/2
f 98/50/2 92/47/2 97/56/2
f 96/43/2 97/56/2 92/47/2
f 61/33/2 105/57/2 106/42/2
f 119/58/2 105/57/2 65/59/2
f 105/57/2 119/58/2 104/48/2
f 104/48/2 119/58/2 120/55/2
f 64/29/2 61/33/2 62/28/2
f 61/33/2 64/29/2 105/57/2
f 105/57/2 64/29/2 65/59/2
f 118/30/2 65/59/2 66/12/2
f 65/59/2 118/30/2 119/58/2
f 79/21/2 117/60/2 118/30/2
f 91/16/2 117/60/2 79/21/2
f 117/60/2 91/16/2 120/55/2
f 120/55/2 91/16/2 92/47/2
s 1
f 124/61/3 121/33/4 122/62/4
f 126/63/5 123/64/3 124/61/3
f 128/65/6 125/66/5 126/63/5
f 130/67/7 127/68/6 128/65/6
f 132/69/8 129/70/7 130/67/7
f 134/71/9 131/72/8 132/69/8
f 136/73/10 133/74/9 134/71/9
f 138/75/11 135/76/10 136/73/10
f 140/77/12 137/78/11 138/75/11
f 142/79/13 139/80/12 140/77/12
f 144/81/14 141/82/13 142/79/13
f 146/83/15 143/84/14 144/81/14
f 148/85/16 145/86/15 146/83/15
f 150/87/17 147/88/16 148/85/16
f 152/89/18 149/90/17 150/87/17
f 154/91/19 151/92/18 152/89/18
f 156/93/20 153/94/19 154/91/19
f 158/95/21 155/96/20 156/93/20
f 160/97/22 157/98/21 158/95/21
f 162/99/23 159/100/22 160/97/22
f 164/101/24 161/102/23 162/99/23
f 166/103/25 163/104/24 164/101/24
f 168/105/26 165/106/25 166/103/25
f 170/107/27 167/108/26 168/105/26
f 172/109/28 169/110/27 170/107/27
f 174/111/29 171/112/28 172/109/28
f 176/113/30 173/114/29 174/111/29
f 178/115/31 175/116/30 176/113/30
f 180/117/32 177/118/31 178/115/31
f 182/119/33 179/120/32 180/117/32
f 184/121/34 181/122/33 182/119/33
f 186/123/35 183/124/34 184/121/34
f 188/125/36 185/126/35 186/123/35
f 190/127/37 187/128/36 188/125/36
f 192/129/38 189/130/37 190/127/37
f 194/131/39 191/132/38 192/129/38
f 196/133/40 193/134/39 194/131/39
f 198/135/41 195/136/40 196/133/40
f 200/137/42 197/138/41 198/135/41
f 202/139/43 199/140/42 200/137/42
f 204/141/44 201/142/43 202/139/43
f 206/143/45 203/144/44 204/141/44
f 208/145/46 205/146/45 206/143/45
f 210/147/47 207/148/46 208/145/46
f 212/149/48 209/150/47 210/147/47
f 214/151/49 211/152/48 212/149/48
f 216/153/50 213/154/49 214/151/49
f 218/155/51 215/156/50 216/153/50
f 220/157/52 217/158/51 218/155/51
f 222/159/53 219/160/52 220/157/52
f 224/161/54 221/162/53 222/159/53
f 226/163/55 223/164/54 224/161/54
f 228/165/56 225/166/55 226/163/55
f 230/167/57 227/168/56 228/165/56
f 232/169/58 229/170/57 230/167/57
f 122/171/4 231/172/58 232/169/58
f 236/87/59 233/33/60 234/62/61
f 238/115/62 235/90/63 236/87/59
f 240/143/64 237/118/65 238/115/62
f 234/171/61 239/146/66 240/143/64
f 124/61/3 123/64/3 121/33/4
f 126/63/5 125/66/5 123/64/3
f 128/65/6 127/68/6 125/66/5
f 130/67/7 129/70/7 127/68/6
f 132/69/8 131/72/8 129/70/7
f 134/71/9 133/74/9 131/72/8
f 136/73/10 135/76/10 133/74/9
f 138/75/11 137/78/11 135/76/10
f 140/77/12 139/80/12 137/78/11
f 142/79/13 141/82/13 139/80/12
f 144/81/14 143/84/14 141/82/13
f 146/83/15 145/86/15 143/84/14
f 148/85/16 147/88/16 145/86/15
f 150/87/17 149/90/17 147/88/16
f 152/89/18 151/92/18 149/90/17
f 154/91/19 153/94/19 151/92/18
f 156/93/20 155/96/20 153/94/19
f 158/95/21 157/98/21 155/96/20
f 160/97/22 159/100/22 157/98/21
f 162/99/23 161/102/23 159/100/22
f 164/101/24 163/104/24 161/102/23
f 166/103/25 165/106/25 163/104/24
f 168/105/26 167/108/26 165/106/25
f 170/107/27 169/110/27 167/108/26
f 172/109/28 171/112/28 169/110/27
f 174/111/29 173/114/29 171/112/28
f 176/113/30 175/116/30 173/114/29
f 178/115/31 177/118/31 175/116/30
f 180/117/32 179/120/32 177/118/31
f 182/119/33 181/122/33 179/120/32
f 184/121/34 183/124/34 181/122/33
f 186/123/35 185/126/35 183/124/34
f 188/125/36 187/128/36 185/126/35
f 190/127/37 189/130/37 187/128/36
f 192/129/38 191/132/38 189/130/37
f 194/131/39 193/134/39 191/132/38
f 196/133/40 195/136/40 193/134/39
f 198/135/41 197/138/41 195/136/40
f 200/137/42 199/140/42 197/138/41
f 202/139/43 201/142/43 199/140/42
f 204/141/44 203/144/44 201/142/43
f 206/143/45 205/146/45 203/144/44
f 208/145/46 207/148/46 205/146/45
f 210/147/47 209/150/47 207/148/46
f 212/149/48 211/152/48 209/150/47
f 214/151/49 213/154/49 211/152/48
f 216/153/50 215/156/50 213/154/49
f 218/155/51 217/158/51 215/156/50
f 220/157/52 219/160/52 217/158/51
f 222/159/53 221/162/53 219/160/52
f 224/161/54 223/164/54 221/162/53
f 226/163/55 225/166/55 223/164/54
f 228/165/56 227/168/56 225/166/55
f 230/167/57 229/170/57 227/168/56
f 232/169/58 231/172/58 229/170/57
f 122/171/4 121/55/4 231/172/58
f 236/87/59 235/90/63 233/33/60
f 238/115/62 237/118/65 235/90/63
f 240/143/64 239/146/66 237/118/65
f 234/171/61 233/55/60 239/146/66
