{
	"asset":{
		"generator":"Khronos glTF Blender I/O v4.4.56",
		"version":"2.0"
	},
	"scene":0,
	"scenes":[
		{
			"name":"Scene",
			"nodes":[
				0
			]
		}
	],
	"nodes":[
		{
			"mesh":0,
			"name":"\u7acb\u65b9\u4f53"
		}
	],
	"materials":[
		{
			"doubleSided":true,
			"name":"\u30de\u30c6\u30ea\u30a2\u30eb"
		}
	],
	"meshes":[
		{
			"name":"\u7acb\u65b9\u4f53",
			"primitives":[
				{
					"attributes":{
						"POSITION":0,
						"NORMAL":1,
						"TEXCOORD_0":2
					},
					"indices":3,
					"material":0
				}
			]
		}
	],
	"accessors":[
		{
			"bufferView":0,
			"componentType":5126,
			"count":2962,
			"max":[
				1.548960566520691,
				1.5604791641235352,
				1.5435402393341064
			],
			"min":[
				-1.6212615966796875,
				-1.5138888359069824,
				-1.4934886693954468
			],
			"type":"VEC3"
		},
		{
			"bufferView":1,
			"componentType":5126,
			"count":2962,
			"type":"VEC3"
		},
		{
			"bufferView":2,
			"componentType":5126,
			"count":2962,
			"type":"VEC2"
		},
		{
			"bufferView":3,
			"componentType":5123,
			"count":15876,
			"type":"SCALAR"
		}
	],
	"bufferViews":[
		{
			"buffer":0,
			"byteLength":35544,
			"byteOffset":0,
			"target":34962
		},
		{
			"buffer":0,
			"byteLength":35544,
			"byteOffset":35544,
			"target":34962
		},
		{
			"buffer":0,
			"byteLength":23696,
			"byteOffset":71088,
			"target":34962
		},
		{
			"buffer":0,
			"byteLength":31752,
			"byteOffset":94784,
			"target":34963
		}
	],
	"buffers":[
		{
			"byteLength":126536,
			"uri":"ice_middlePolygon.bin"
		}
	]
}
