{
	"asset":{
		"generator":"Khronos glTF Blender I/O v4.4.56",
		"version":"2.0"
	},
	"scene":0,
	"scenes":[
		{
			"name":"Scene",
			"nodes":[
				0,
				1,
				2,
				3
			]
		}
	],
	"nodes":[
		{
			"mesh":0,
			"name":"namaqualand_boulder_03_LOD0"
		},
		{
			"mesh":1,
			"name":"namaqualand_boulder_03_LOD1"
		},
		{
			"mesh":2,
			"name":"namaqualand_boulder_03_LOD2"
		},
		{
			"mesh":3,
			"name":"namaqualand_boulder_03_LOD3"
		}
	],
	"materials":[
		{
			"doubleSided":true,
			"name":"namaqualand_boulder_03",
			"normalTexture":{
				"index":0
			},
			"pbrMetallicRoughness":{
				"baseColorTexture":{
					"index":1
				},
				"metallicFactor":0,
				"metallicRoughnessTexture":{
					"index":2
				}
			}
		}
	],
	"meshes":[
		{
			"name":"realCap_Model_2",
			"primitives":[
				{
					"attributes":{
						"POSITION":0,
						"NORMAL":1,
						"TEXCOORD_0":2
					},
					"indices":3,
					"material":0
				}
			]
		},
		{
			"name":"realCap_Model_2.001",
			"primitives":[
				{
					"attributes":{
						"POSITION":4,
						"NORMAL":5,
						"TEXCOORD_0":6
					},
					"indices":7,
					"material":0
				}
			]
		},
		{
			"name":"realCap_Model_2.002",
			"primitives":[
				{
					"attributes":{
						"POSITION":8,
						"NORMAL":9,
						"TEXCOORD_0":10
					},
					"indices":11,
					"material":0
				}
			]
		},
		{
			"name":"realCap_Model_2.003",
			"primitives":[
				{
					"attributes":{
						"POSITION":12,
						"NORMAL":13,
						"TEXCOORD_0":14
					},
					"indices":15,
					"material":0
				}
			]
		}
	],
	"textures":[
		{
			"sampler":0,
			"source":0
		},
		{
			"sampler":0,
			"source":1
		},
		{
			"sampler":0,
			"source":2
		}
	],
	"images":[
		{
			"mimeType":"image/png",
			"name":"namaqualand_boulder_03_nor_gl",
			"uri":"namaqualand_boulder_03_nor_gl.png"
		},
		{
			"mimeType":"image/jpeg",
			"name":"namaqualand_boulder_03_diff",
			"uri":"namaqualand_boulder_03_diff.jpg"
		},
		{
			"mimeType":"image/png",
			"name":"namaqualand_boulder_03_rough",
			"uri":"namaqualand_boulder_03_rough.png"
		}
	],
	"accessors":[
		{
			"bufferView":0,
			"componentType":5126,
			"count":2372,
			"max":[
				1.3493627309799194,
				1.4434378147125244,
				1.673000454902649
			],
			"min":[
				-1.0496474504470825,
				-0.007432172074913979,
				-1.3848315477371216
			],
			"type":"VEC3"
		},
		{
			"bufferView":1,
			"componentType":5126,
			"count":2372,
			"type":"VEC3"
		},
		{
			"bufferView":2,
			"componentType":5126,
			"count":2372,
			"type":"VEC2"
		},
		{
			"bufferView":3,
			"componentType":5123,
			"count":14220,
			"type":"SCALAR"
		},
		{
			"bufferView":4,
			"componentType":5126,
			"count":16785,
			"max":[
				1.3519706726074219,
				1.4582710266113281,
				1.6755317449569702
			],
			"min":[
				-1.054810881614685,
				-0.014516948722302914,
				-1.387770414352417
			],
			"type":"VEC3"
		},
		{
			"bufferView":5,
			"componentType":5126,
			"count":16785,
			"type":"VEC3"
		},
		{
			"bufferView":6,
			"componentType":5126,
			"count":16785,
			"type":"VEC2"
		},
		{
			"bufferView":7,
			"componentType":5123,
			"count":97236,
			"type":"SCALAR"
		},
		{
			"bufferView":8,
			"componentType":5126,
			"count":8555,
			"max":[
				1.3500944375991821,
				1.4582710266113281,
				1.6752331256866455
			],
			"min":[
				-1.0536521673202515,
				-0.013923527672886848,
				-1.387350082397461
			],
			"type":"VEC3"
		},
		{
			"bufferView":9,
			"componentType":5126,
			"count":8555,
			"type":"VEC3"
		},
		{
			"bufferView":10,
			"componentType":5126,
			"count":8555,
			"type":"VEC2"
		},
		{
			"bufferView":11,
			"componentType":5123,
			"count":48618,
			"type":"SCALAR"
		},
		{
			"bufferView":12,
			"componentType":5126,
			"count":4381,
			"max":[
				1.3505033254623413,
				1.4589508771896362,
				1.6752331256866455
			],
			"min":[
				-1.0553768873214722,
				-0.013923527672886848,
				-1.3865526914596558
			],
			"type":"VEC3"
		},
		{
			"bufferView":13,
			"componentType":5126,
			"count":4381,
			"type":"VEC3"
		},
		{
			"bufferView":14,
			"componentType":5126,
			"count":4381,
			"type":"VEC2"
		},
		{
			"bufferView":15,
			"componentType":5123,
			"count":24306,
			"type":"SCALAR"
		}
	],
	"bufferViews":[
		{
			"buffer":0,
			"byteLength":28464,
			"byteOffset":0,
			"target":34962
		},
		{
			"buffer":0,
			"byteLength":28464,
			"byteOffset":28464,
			"target":34962
		},
		{
			"buffer":0,
			"byteLength":18976,
			"byteOffset":56928,
			"target":34962
		},
		{
			"buffer":0,
			"byteLength":28440,
			"byteOffset":75904,
			"target":34963
		},
		{
			"buffer":0,
			"byteLength":201420,
			"byteOffset":104344,
			"target":34962
		},
		{
			"buffer":0,
			"byteLength":201420,
			"byteOffset":305764,
			"target":34962
		},
		{
			"buffer":0,
			"byteLength":134280,
			"byteOffset":507184,
			"target":34962
		},
		{
			"buffer":0,
			"byteLength":194472,
			"byteOffset":641464,
			"target":34963
		},
		{
			"buffer":0,
			"byteLength":102660,
			"byteOffset":835936,
			"target":34962
		},
		{
			"buffer":0,
			"byteLength":102660,
			"byteOffset":938596,
			"target":34962
		},
		{
			"buffer":0,
			"byteLength":68440,
			"byteOffset":1041256,
			"target":34962
		},
		{
			"buffer":0,
			"byteLength":97236,
			"byteOffset":1109696,
			"target":34963
		},
		{
			"buffer":0,
			"byteLength":52572,
			"byteOffset":1206932,
			"target":34962
		},
		{
			"buffer":0,
			"byteLength":52572,
			"byteOffset":1259504,
			"target":34962
		},
		{
			"buffer":0,
			"byteLength":35048,
			"byteOffset":1312076,
			"target":34962
		},
		{
			"buffer":0,
			"byteLength":48612,
			"byteOffset":1347124,
			"target":34963
		}
	],
	"samplers":[
		{
			"magFilter":9729,
			"minFilter":9987
		}
	],
	"buffers":[
		{
			"byteLength":1395736,
			"uri":"rock.bin"
		}
	]
}
