{
	"asset":{
		"generator":"Khronos glTF Blender I/O v4.4.56",
		"version":"2.0"
	},
	"scene":0,
	"scenes":[
		{
			"name":"Scene",
			"nodes":[
				0
			]
		}
	],
	"nodes":[
		{
			"mesh":0,
			"name":"\u7403",
			"scale":[
				2.2764930725097656,
				1,
				2.2764930725097656
			]
		}
	],
	"materials":[
		{
			"doubleSided":true,
			"name":"\u30de\u30c6\u30ea\u30a2\u30eb",
			"pbrMetallicRoughness":{
				"baseColorFactor":[
					0.800000011920929,
					0.800000011920929,
					0.800000011920929,
					1
				],
				"metallicFactor":0,
				"roughnessFactor":0.5
			}
		}
	],
	"meshes":[
		{
			"name":"\u7403",
			"primitives":[
				{
					"attributes":{
						"POSITION":0,
						"NORMAL":1,
						"TEXCOORD_0":2
					},
					"indices":3,
					"material":0
				}
			]
		}
	],
	"accessors":[
		{
			"bufferView":0,
			"componentType":5126,
			"count":329,
			"max":[
				0.9999997019767761,
				0.6103571653366089,
				0.9999993443489075
			],
			"min":[
				-0.9999990463256836,
				-1,
				-1.0000001192092896
			],
			"type":"VEC3"
		},
		{
			"bufferView":1,
			"componentType":5126,
			"count":329,
			"type":"VEC3"
		},
		{
			"bufferView":2,
			"componentType":5126,
			"count":329,
			"type":"VEC2"
		},
		{
			"bufferView":3,
			"componentType":5123,
			"count":1632,
			"type":"SCALAR"
		}
	],
	"bufferViews":[
		{
			"buffer":0,
			"byteLength":3948,
			"byteOffset":0,
			"target":34962
		},
		{
			"buffer":0,
			"byteLength":3948,
			"byteOffset":3948,
			"target":34962
		},
		{
			"buffer":0,
			"byteLength":2632,
			"byteOffset":7896,
			"target":34962
		},
		{
			"buffer":0,
			"byteLength":3264,
			"byteOffset":10528,
			"target":34963
		}
	],
	"buffers":[
		{
			"byteLength":13792,
			"uri":"halfDome.bin"
		}
	]
}
