# Blender 5.2.1 LTS
# www.blender.org
mtllib Monoris.mtl
o Cube
v 0.448266 -4.259686 1.341662
v -0.280712 -2.598839 0.771952
v 0.221871 -4.512862 1.459075
v -0.507107 -2.852015 0.889364
v 0.541409 -4.178550 1.564229
v -0.187569 -2.517703 0.994518
v 0.315015 -4.431726 1.681641
v -0.413963 -2.770880 1.111931
v 0.730809 -5.347585 -0.910748
v -0.077495 -2.907765 -1.305175
v 0.547059 -5.005239 -0.736122
v -0.261244 -2.565418 -1.130548
v 0.884783 -5.213181 -0.725453
v 0.076480 -2.773360 -1.119880
v 0.701033 -4.870834 -0.550827
v -0.107270 -2.431014 -0.945254
v -0.486272 -5.334657 -0.655953
v -1.362823 -3.489844 -0.376422
v -0.513677 -5.457652 -0.400981
v -1.390228 -3.612839 -0.121450
v -0.249253 -5.241164 -0.611215
v -1.125804 -3.396350 -0.331684
v -0.276658 -5.364159 -0.356243
v -1.153209 -3.519346 -0.076712
v -0.649376 2.922009 -0.524742
v -1.529860 5.446186 -0.358891
v -0.689428 3.337374 -0.276068
v -1.569912 5.861551 -0.110217
v -0.414511 3.062364 -0.471298
v -1.294995 5.586541 -0.305446
v -0.454562 3.477729 -0.222623
v -1.335046 6.001905 -0.056772
v 1.300038 -3.988270 -0.521045
v 0.867267 -2.658479 0.305558
v 1.449558 -4.462964 -0.320274
v 1.016788 -3.133173 0.506330
v 1.505214 -3.929100 -0.648164
v 1.072443 -2.599310 0.178439
v 1.654734 -4.403794 -0.447393
v 1.221964 -3.074004 0.379210
v -1.148872 0.553902 0.097360
v -1.072522 2.094935 1.022455
v -0.910989 0.218760 0.185348
v -0.834639 1.759793 1.110443
v -1.046580 0.627050 -0.121194
v -0.970230 2.168083 0.803901
v -0.808697 0.291908 -0.033206
v -0.732347 1.832941 0.891889
v 0.902704 3.146335 -0.676199
v 0.848414 5.317832 0.231658
v 1.133981 3.269282 -0.565417
v 1.079691 5.440779 0.342441
v 1.022503 3.262087 -0.885386
v 0.968214 5.433584 0.022472
v 1.253781 3.385033 -0.774603
v 1.199491 5.556530 0.133255
v -0.392042 -2.265619 0.445943
v 0.039645 -0.990092 1.274371
v -0.142831 -2.775195 0.438634
v 0.288856 -1.499668 1.267061
v -0.378406 -2.210019 0.204952
v 0.053281 -0.934492 1.033379
v -0.129195 -2.719595 0.197642
v 0.302492 -1.444068 1.026070
v -0.397395 -2.478673 -0.630809
v 0.308234 -0.268059 -0.059220
v -0.173423 -2.324827 -0.755198
v 0.532206 -0.114214 -0.183608
v -0.498853 -2.360225 -0.849460
v 0.206776 -0.149611 -0.277870
v -0.274881 -2.206380 -0.973848
v 0.430749 0.004234 -0.402258
v -1.668394 3.905040 0.561825
v -0.768684 6.114134 0.685310
v -1.541189 4.057679 0.339428
v -0.641479 6.266773 0.462913
v -1.868405 4.023383 0.427297
v -0.968695 6.232477 0.550782
v -1.741200 4.176022 0.204900
v -0.841490 6.385116 0.328385
v -0.746524 0.005492 1.242808
v 0.008178 1.809249 1.771118
v -0.526927 -0.147033 1.110828
v 0.227775 1.656723 1.639137
v -0.853839 0.096217 1.026774
v -0.099137 1.899974 1.555084
v -0.634241 -0.056308 0.894794
v 0.120461 1.747448 1.423103
v -0.140083 -1.361120 0.310445
v 0.787885 0.180519 0.332306
v -0.027449 -1.695853 0.083184
v 0.900519 -0.154215 0.105045
v -0.346606 -1.287932 0.185633
v 0.581362 0.253706 0.207495
v -0.233971 -1.622665 -0.041628
v 0.693997 -0.081027 -0.019767
v -0.788243 -3.114463 0.371035
v 0.036517 -1.828327 -0.067162
v -0.797681 -3.617249 0.121692
v 0.027079 -2.331114 -0.316505
v -1.029340 -3.058166 0.359469
v -0.204580 -1.772031 -0.078728
v -1.038778 -3.560953 0.110126
v -0.214018 -2.274817 -0.328070
v 0.448883 -2.676527 0.422540
v 0.440273 -0.467315 -0.485559
v 0.210358 -2.523795 0.329018
v 0.201748 -0.314584 -0.579082
v 0.344861 -2.558176 0.639983
v 0.336251 -0.348964 -0.268116
v 0.106336 -2.405444 0.546461
v 0.097726 -0.196232 -0.361639
v 0.329678 -1.054703 0.820706
v 0.219566 0.511463 -0.100356
v 0.088303 -1.372826 0.741762
v -0.021809 0.193340 -0.179300
v 0.235866 -0.979883 1.043024
v 0.125754 0.586283 0.121962
v -0.005508 -1.298007 0.964080
v -0.115620 0.268159 0.043018
v 0.447655 -2.693160 0.881996
v -0.041887 -1.160992 0.093085
v 0.195908 -3.034283 0.911898
v -0.293633 -1.502115 0.122987
v 0.456014 -2.620602 1.123162
v -0.033528 -1.088434 0.334251
v 0.204267 -2.961725 1.153064
v -0.285275 -1.429557 0.364153
v 0.930872 5.280878 0.598943
v 0.003209 6.627954 0.695505
v 0.846399 4.817376 0.834918
v -0.081264 6.164452 0.931480
v 1.150354 5.341186 0.699354
v 0.222692 6.688262 0.795916
v 1.065881 4.877685 0.935329
v 0.138218 6.224761 1.031891
v 1.574623 -0.694383 -0.398672
v 0.698543 1.316371 -0.662373
v 1.410232 -0.695010 -0.201289
v 0.534151 1.315744 -0.464990
v 1.747551 -0.589638 -0.230617
v 0.871471 1.421116 -0.494318
v 1.583160 -0.590265 -0.033234
v 0.707079 1.420489 -0.296935
v -0.017804 -4.842805 -1.231123
v -0.872059 -2.549237 -1.530077
v -0.184480 -4.622268 -1.037506
v -1.038734 -2.328700 -1.336460
v 0.153307 -4.718615 -1.061411
v -0.700947 -2.425047 -1.360365
v -0.013368 -4.498078 -0.867795
v -0.867623 -2.204510 -1.166748
v 1.384366 -3.124733 -0.081518
v 0.609830 -0.580758 0.367229
v 1.429865 -2.691906 0.165777
v 0.655329 -0.147931 0.614524
v 1.623534 -2.982975 -0.109999
v 0.848997 -0.439000 0.338748
v 1.669033 -2.550148 0.137296
v 0.894496 -0.006173 0.586043
v -0.190255 3.273981 0.484717
v -0.854199 5.658016 1.094692
v -0.096060 3.569188 0.720997
v -0.760005 5.953223 1.330972
v 0.039124 3.404475 0.410943
v -0.624820 5.788509 1.020918
v 0.133319 3.699682 0.647223
v -0.530625 6.083717 1.257198
v 0.156602 4.967124 -0.024545
v 0.431676 7.403766 0.831895
v 0.409874 5.306761 -0.012760
v 0.684948 7.743402 0.843680
v 0.183814 5.101305 -0.263924
v 0.458888 7.537947 0.592515
v 0.437086 5.440942 -0.252140
v 0.712160 7.877584 0.604300
v -1.245340 -0.997992 -1.141737
v -0.914571 1.556725 -0.310433
v -0.994311 -0.555637 -1.151032
v -0.663542 1.999080 -0.319728
v -1.239063 -0.855471 -1.382506
v -0.908295 1.699246 -0.551202
v -0.988034 -0.413116 -1.391801
v -0.657265 2.141601 -0.560497
v 0.128623 3.678446 -0.685864
v 0.778375 5.932733 -0.053742
v 0.362160 3.867200 -0.790364
v 1.011912 6.121487 -0.158243
v 0.046146 3.799913 -0.912333
v 0.695898 6.054200 -0.280212
v 0.279683 3.988667 -1.016834
v 0.929435 6.242953 -0.384712
v 0.094749 -2.601632 -0.889251
v 0.696587 -0.249706 -0.216257
v 0.333022 -2.333171 -0.979521
v 0.934861 0.018755 -0.306527
v 0.025126 -2.473381 -1.119942
v 0.626964 -0.121455 -0.446948
v 0.263399 -2.204919 -1.210212
v 0.865238 0.147007 -0.537218
v -0.039768 -0.716531 -0.315709
v 0.893210 0.590841 -0.347122
v 0.061189 -1.205683 -0.544331
v 0.994166 0.101689 -0.575744
v -0.251422 -0.658838 -0.431734
v 0.681556 0.648534 -0.463147
v -0.150465 -1.147989 -0.660356
v 0.782512 0.159382 -0.691769
v -0.332475 -1.720893 0.624923
v 0.222942 0.193690 -0.105918
v -0.457961 -1.793041 0.400957
v 0.097455 0.121542 -0.329884
v -0.551459 -1.622682 0.725978
v 0.003957 0.291901 -0.004863
v -0.676946 -1.694830 0.502012
v -0.121529 0.219753 -0.228829
v -0.807980 -0.173338 0.882232
v 0.028657 1.143410 0.468578
v -0.810520 -0.656450 0.632151
v 0.026118 0.660298 0.218498
v -1.048662 -0.115027 0.864053
v -0.212025 1.201721 0.450399
v -1.051201 -0.598140 0.613973
v -0.214564 0.718608 0.200319
v -0.765614 4.095322 0.554056
v -0.792200 6.320758 -0.353111
v -1.005985 4.260966 0.465725
v -1.032571 6.486401 -0.441443
v -0.864851 4.214794 0.773715
v -0.891437 6.440229 -0.133452
v -1.105222 4.380437 0.685384
v -1.131808 6.605873 -0.221784
v -0.943249 4.553766 -0.240876
v -1.702522 5.813951 -0.785600
v -1.162181 4.034396 -0.122217
v -1.921454 5.294580 -0.666941
v -0.846873 4.608358 -0.019571
v -1.606146 5.868542 -0.564295
v -1.065805 4.088987 0.099088
v -1.825078 5.349172 -0.445635
v 0.967502 -0.125319 -0.165506
v 0.526318 2.386570 -0.945908
v 0.718873 0.279273 -0.123592
v 0.277689 2.791162 -0.903994
v 0.992165 0.014167 0.074105
v 0.550981 2.526056 -0.706297
v 0.743536 0.418759 0.116019
v 0.302352 2.930648 -0.664383
v 1.119570 2.876187 0.037110
v 0.233603 4.872366 -0.193060
v 0.962579 2.864610 0.240424
v 0.076612 4.860790 0.010254
v 1.298545 2.979939 0.198720
v 0.412578 4.976119 -0.031450
v 1.141554 2.968363 0.402034
v 0.255587 4.964542 0.171863
v 0.763102 4.019422 -0.026314
v -0.124923 6.225868 -0.216864
v 0.619528 4.169959 0.185906
v -0.268498 6.376405 -0.004645
v 0.952425 4.137582 0.122882
v 0.064400 6.344028 -0.067669
v 0.808851 4.288119 0.335102
v -0.079175 6.494565 0.144551
v -0.282480 1.312728 -0.835091
v -1.187955 3.061112 -1.013133
v -0.430513 1.120817 -0.626457
v -1.335988 2.869200 -0.804499
v -0.097661 1.399729 -0.680047
v -1.003136 3.148113 -0.858089
v -0.245694 1.207818 -0.471413
v -1.151169 2.956202 -0.649454
v 0.738240 2.857451 0.169596
v -0.101330 5.319975 0.489611
v 0.740814 3.219237 0.422676
v -0.098755 5.681761 0.742692
v 0.978772 2.993452 0.183024
v 0.139202 5.455976 0.503039
v 0.981346 3.355239 0.436105
v 0.141776 5.817763 0.756120
v -0.036332 8.196531 -0.947735
v -0.583503 9.443728 -0.189908
v 0.081407 7.668894 -0.728598
v -0.465764 8.916091 0.029230
v 0.185334 8.250270 -1.043285
v -0.361837 9.497466 -0.285458
v 0.303073 7.722633 -0.824148
v -0.244098 8.969830 -0.066321
v 0.156690 6.181226 -1.295839
v -0.002161 8.342039 -0.399959
v 0.373526 6.295793 -1.158823
v 0.214676 8.456606 -0.262943
v 0.300104 6.296243 -1.489606
v 0.141254 8.457056 -0.593726
v 0.516940 6.410809 -1.352590
v 0.358090 8.571623 -0.456710
v -0.839543 0.837328 -0.673382
v -0.067937 2.193095 -0.149779
v -0.622848 0.379470 -0.799636
v 0.148757 1.735237 -0.276033
v -0.942853 0.898210 -0.891512
v -0.171248 2.253977 -0.367908
v -0.726159 0.440351 -1.017766
v 0.045447 1.796118 -0.494163
v -0.265834 4.128792 -0.479316
v 0.344850 5.690830 0.219064
v -0.022042 3.807867 -0.550258
v 0.588642 5.369906 0.148123
v -0.313754 4.203336 -0.715811
v 0.296930 5.765375 -0.017431
v -0.069962 3.882412 -0.786753
v 0.540722 5.444450 -0.088373
v -0.460664 -1.420937 0.744514
v 0.208181 0.896642 1.352904
v -0.232120 -1.180786 0.630924
v 0.436725 1.136792 1.239314
v -0.552582 -1.295078 0.521744
v 0.116263 1.022501 1.130135
v -0.324038 -1.054928 0.408154
v 0.344807 1.262651 1.016545
v -1.349395 -2.661683 -0.330879
v -0.462634 -1.318754 -0.620191
v -1.316336 -3.127873 -0.579254
v -0.429575 -1.784944 -0.868567
v -1.585061 -2.601648 -0.383000
v -0.698300 -1.258719 -0.672312
v -1.552002 -3.067838 -0.631375
v -0.665241 -1.724909 -0.920688
v -0.361801 6.136902 1.398064
v 0.215854 7.977558 0.681810
v -0.479303 6.010904 1.170152
v 0.098352 7.851560 0.453898
v -0.584298 6.230114 1.491207
v -0.006643 8.070770 0.774953
v -0.701799 6.104116 1.263294
v -0.124145 7.944772 0.547040
v -0.663519 -2.834451 1.317786
v 0.077827 -0.905329 0.777232
v -0.719799 -2.895896 1.067264
v 0.021546 -0.966773 0.526709
v -0.902232 -2.735255 1.352126
v -0.160887 -0.806132 0.811571
v -0.958513 -2.796699 1.101603
v -0.217167 -0.867576 0.561049
v 0.782225 5.437161 1.325242
v 0.729959 6.883641 0.396232
v 0.548498 5.038798 1.230277
v 0.496231 6.485279 0.301267
v 0.672849 5.504035 1.540368
v 0.620583 6.950516 0.611358
v 0.439121 5.105673 1.445403
v 0.386855 6.552153 0.516393
v 1.320057 1.194525 0.988258
v 0.873353 3.099261 0.185996
v 1.064571 1.115148 1.013124
v 0.617866 3.019884 0.210861
v 1.324517 1.292069 1.229398
v 0.877813 3.196805 0.427136
v 1.069031 1.212692 1.254263
v 0.622326 3.117428 0.452001
v 1.142559 -2.420755 0.092747
v 0.251410 -0.096991 -0.058659
v 1.011592 -2.175528 0.311714
v 0.120443 0.148235 0.160308
v 1.340247 -2.294466 0.230561
v 0.449098 0.029298 0.079155
v 1.209280 -2.049239 0.449528
v 0.318131 0.274525 0.298122
v 1.080300 -0.978393 0.364417
v 0.203674 1.350564 0.144780
v 0.932994 -0.728897 0.572668
v 0.056368 1.600060 0.353032
v 1.266879 -0.851742 0.516930
v 0.390253 1.477215 0.297293
v 1.119573 -0.602246 0.725181
v 0.242947 1.726711 0.505545
v 1.098511 6.682402 0.354806
v 0.224927 8.463359 0.060291
v 0.924772 6.513599 0.542900
v 0.051187 8.294557 0.248385
v 1.261985 6.771592 0.532197
v 0.388400 8.552550 0.237682
v 1.088246 6.602789 0.720291
v 0.214661 8.383747 0.425775
v 1.098814 -0.277527 0.452752
v 0.169698 1.208632 0.481404
v 0.998237 -0.649513 0.684766
v 0.069121 0.836646 0.713419
v 1.311389 -0.208024 0.566983
v 0.382273 1.278135 0.595636
v 1.210813 -0.580009 0.798998
v 0.281697 0.906150 0.827650
v 1.330820 -0.440830 -0.743313
v 1.053906 1.345260 0.135857
v 1.522447 -0.605976 -0.573425
v 1.245533 1.180114 0.305745
v 1.504823 -0.351294 -0.910385
v 1.227910 1.434796 -0.031215
v 1.696450 -0.516440 -0.740496
v 1.419537 1.269650 0.138673
v -0.981042 2.011693 0.201797
v -0.555811 3.431037 1.030118
v -0.729303 1.595416 0.194080
v -0.304072 3.014760 1.022400
v -0.968006 2.076773 -0.039192
v -0.542775 3.496116 0.789128
v -0.716268 1.660495 -0.046910
v -0.291036 3.079839 0.781411
v -0.358953 4.667391 0.917715
v 0.344287 5.901848 1.533845
v -0.129898 4.131666 0.821327
v 0.573342 5.366123 1.437457
v -0.433094 4.720293 0.687997
v 0.270147 5.954751 1.304128
v -0.204039 4.184568 0.591609
v 0.499202 5.419025 1.207739
v 0.278251 7.103089 -0.343466
v 1.202185 8.773358 -0.300302
v 0.394940 6.856450 -0.570342
v 1.318874 8.526719 -0.527177
v 0.073454 7.184855 -0.471012
v 0.997388 8.855124 -0.427848
v 0.190143 6.938216 -0.697887
v 1.114077 8.608484 -0.654723
v -1.004126 4.322447 -0.230502
v -0.131057 6.816751 -0.437185
v -0.974549 4.711705 -0.481256
v -0.101480 7.206009 -0.687939
v -1.241018 4.460690 -0.274195
v -0.367949 6.954993 -0.480878
v -1.211440 4.849947 -0.524950
v -0.338372 7.344251 -0.731633
v -1.061570 8.481409 -0.177731
v -0.139357 9.877521 -0.045730
v -0.922270 8.049874 -0.387104
v -0.000058 9.445986 -0.255104
v -1.250449 8.544952 -0.327975
v -0.328237 9.941065 -0.195974
v -1.111150 8.113419 -0.537348
v -0.188937 9.509530 -0.405348
v -0.748297 -1.501571 0.284805
v -0.440294 0.043602 -0.590738
v -0.929603 -1.833916 0.107363
v -0.621600 -0.288743 -0.768181
v -0.930865 -1.428148 0.442596
v -0.622862 0.117025 -0.432947
v -1.112171 -1.760493 0.265153
v -0.804168 -0.215320 -0.610390
v -0.315019 0.716934 -0.591015
v 0.490629 2.219714 -1.053916
v -0.335905 0.356063 -0.843266
v 0.469743 1.858843 -1.306165
v -0.556338 0.787541 -0.591323
v 0.249310 2.290320 -1.054223
v -0.577224 0.426670 -0.843573
v 0.228424 1.929449 -1.306473
v 0.146716 9.150331 0.392460
v -0.197158 10.588042 -0.472361
v -0.104912 8.746168 0.376292
v -0.448786 10.183881 -0.488529
v 0.110966 9.216625 0.631134
v -0.232908 10.654338 -0.233686
v -0.140663 8.812464 0.614966
v -0.484537 10.250175 -0.249854
v 0.435470 0.763444 -0.417706
v 0.493182 2.900343 -1.326561
v 0.204833 0.859341 -0.530203
v 0.262545 2.996240 -1.439058
v 0.314023 0.876817 -0.209452
v 0.371735 3.013716 -1.118307
v 0.083386 0.972714 -0.321949
v 0.141098 3.109613 -1.230804
v 1.413566 3.115653 -0.313969
v 1.336436 5.092965 -1.226696
v 1.169804 3.089961 -0.394934
v 1.092675 5.067272 -1.307661
v 1.320113 3.218122 -0.091663
v 1.242983 5.195434 -1.004390
v 1.076352 3.192430 -0.172627
v 0.999222 5.169741 -1.085355
v 0.916296 9.571933 -0.545931
v 0.117682 11.438847 -1.001438
v 0.710276 9.464952 -0.393054
v -0.088338 11.331865 -0.848560
v 1.044264 9.666918 -0.341482
v 0.245649 11.533832 -0.796988
v 0.838243 9.559937 -0.188604
v 0.039629 11.426851 -0.644110
v 0.548172 4.072368 -0.490438
v -0.358546 5.949307 -0.640706
v 0.408093 3.972680 -0.275459
v -0.498625 5.849619 -0.425726
v 0.739232 4.168032 -0.343232
v -0.167486 6.044971 -0.493499
v 0.599153 4.068343 -0.128253
v -0.307565 5.945282 -0.278520
v 1.396704 4.293710 -0.024637
v 0.502714 6.461182 0.143272
v 1.345318 4.413496 0.226626
v 0.451329 6.580968 0.394534
v 1.628696 4.409184 0.040871
v 0.734707 6.576656 0.208780
v 1.577311 4.528971 0.292134
v 0.683322 6.696443 0.460042
v 1.031977 -0.087387 -0.491062
v 0.892933 1.625322 0.422212
v 1.246193 -0.304411 -0.351770
v 1.107149 1.408298 0.561504
v 1.179503 -0.002780 -0.681952
v 1.040459 1.709930 0.231322
v 1.393718 -0.219803 -0.542660
v 1.254675 1.492906 0.370614
v -0.925275 4.111229 -0.881372
v -1.539852 6.084529 -0.201999
v -0.818178 4.082544 -0.647914
v -1.432755 6.055844 0.031459
v -0.698973 4.213425 -0.964688
v -1.313550 6.186725 -0.285315
v -0.591875 4.184740 -0.731230
v -1.206452 6.158040 -0.051857
v 0.365113 2.817908 0.057118
v 0.705825 4.945940 0.901997
v 0.621753 2.906914 0.059155
v 0.962465 5.034945 0.904035
v 0.384924 2.930672 -0.183150
v 0.725636 5.058703 0.661729
v 0.641563 3.019677 -0.181112
v 0.982275 5.147709 0.663767
v -0.150884 1.817918 -0.905801
v -0.073474 4.252177 -0.009512
v 0.093418 2.155526 -0.837816
v 0.170828 4.589785 0.058473
v -0.070953 1.951932 -1.133078
v 0.006457 4.386191 -0.236789
v 0.173350 2.289539 -1.065092
v 0.250760 4.723799 -0.168804
v -0.571844 6.710602 0.131248
v 0.196069 9.042439 0.607510
v -0.368163 6.962468 -0.022258
v 0.399750 9.294304 0.454004
v -0.703156 6.837454 -0.070813
v 0.064757 9.169290 0.405449
v -0.499474 7.089319 -0.224319
v 0.268439 9.421156 0.251944
v -0.107903 2.897228 -0.630569
v 0.788635 5.377938 -0.677282
v -0.033308 3.274697 -0.872067
v 0.863230 5.755407 -0.918780
v -0.332931 3.034511 -0.716553
v 0.563608 5.515221 -0.763266
v -0.258336 3.411980 -0.958051
v 0.638203 5.892690 -1.004765
v 0.057037 6.497019 1.147099
v 0.710645 9.011559 0.533690
v -0.042638 6.903931 0.915560
v 0.610969 9.418470 0.302151
v -0.169876 6.636692 1.227917
v 0.483732 9.151232 0.614508
v -0.269551 7.043604 0.996377
v 0.384056 9.558145 0.382968
v -0.717721 -0.941064 -0.600508
v 0.165449 0.744042 -0.873994
v -0.685374 -1.177382 -0.853719
v 0.197797 0.507725 -1.127204
v -0.953741 -0.858305 -0.650526
v -0.070571 0.826801 -0.924012
v -0.921394 -1.094623 -0.903737
v -0.038224 0.590483 -1.177222
v -0.879625 4.806406 1.033808
v -0.074256 7.019033 0.614431
v -0.904512 4.961852 0.778839
v -0.099143 7.174478 0.359462
v -1.120592 4.924994 1.039793
v -0.315224 7.137620 0.620416
v -1.145479 5.080438 0.784824
v -0.340110 7.293066 0.365447
v -0.126522 2.832264 -0.505644
v -0.454195 4.886469 -1.358336
v -0.383241 2.864525 -0.513684
v -0.710914 4.918729 -1.366376
v -0.152304 2.939973 -0.265909
v -0.479977 4.994178 -1.118601
v -0.409023 2.972234 -0.273949
v -0.736696 5.026439 -1.126642
v 0.321436 -0.077942 0.986272
v 0.083716 1.978217 0.104329
v 0.066922 -0.044193 0.951773
v -0.170798 2.011965 0.069830
v 0.271052 0.029901 1.222065
v 0.033332 2.086059 0.340122
v 0.016538 0.063650 1.187566
v -0.221182 2.119808 0.305623
v 0.573866 6.215161 -0.525864
v -0.195405 8.319780 -1.015341
v 0.363529 6.286051 -0.378661
v -0.405742 8.390671 -0.868138
v 0.696953 6.326319 -0.318558
v -0.072318 8.430939 -0.808035
v 0.486616 6.397210 -0.171355
v -0.282655 8.501828 -0.660832
v 1.120147 1.085057 0.602432
v 0.330822 2.659521 0.115543
v 0.908127 0.772573 0.742410
v 0.118802 2.347037 0.255521
v 1.235918 1.160429 0.814144
v 0.446592 2.734893 0.327255
v 1.023898 0.847945 0.954122
v 0.234572 2.422409 0.467233
v -0.427544 4.883726 -0.510717
v -1.157945 7.003757 0.034188
v -0.364307 4.966527 -0.261950
v -1.094708 7.086558 0.282954
v -0.190116 4.995941 -0.552558
v -0.920516 7.115972 -0.007653
v -0.126879 5.078743 -0.303791
v -0.857280 7.198774 0.241113
v 1.066594 0.222031 0.488592
v 0.168278 2.588235 0.573249
v 0.998223 0.502352 0.733852
v 0.099908 2.868556 0.818510
v 1.293719 0.351279 0.569067
v 0.395404 2.717483 0.653724
v 1.225349 0.631600 0.814327
v 0.327033 2.997804 0.898985
v 0.770817 4.500410 0.219768
v 0.438606 5.787004 1.092616
v 0.942108 3.997917 0.401219
v 0.609897 5.284512 1.274067
v 0.959886 4.556736 0.069719
v 0.627675 5.843331 0.942567
v 1.131177 4.054244 0.251171
v 0.798966 5.340839 1.124019
v -0.618718 4.741007 -1.676078
v -0.681174 7.294742 -0.783527
v -0.388483 5.182490 -1.575552
v -0.450939 7.736225 -0.683002
v -0.508614 4.883458 -1.890289
v -0.571071 7.437193 -0.997739
v -0.278379 5.324941 -1.789764
v -0.340836 7.878675 -0.897213
v -0.691652 8.014670 -0.215851
v -0.286197 9.296112 0.625593
v -0.442221 7.508878 -0.215417
v -0.036765 8.790319 0.626027
v -0.670549 8.070659 -0.456302
v -0.265093 9.352099 0.385142
v -0.421117 7.564866 -0.455868
v -0.015661 8.846308 0.385576
v -0.110600 4.867080 -0.091233
v 0.624273 6.728266 0.461529
v 0.113101 4.755941 -0.216773
v 0.847975 6.617127 0.335990
v -0.211622 4.961679 -0.310256
v 0.523251 6.822865 0.242507
v 0.012079 4.850540 -0.435796
v 0.746953 6.711726 0.116967
v -1.012800 4.166002 0.649000
v -0.217559 5.687336 1.128700
v -0.802294 3.817585 0.507989
v -0.007054 5.338918 0.987689
v -1.129870 4.237841 0.437986
v -0.334630 5.759174 0.917686
v -0.919365 3.889423 0.296976
v -0.124125 5.410757 0.776676
v -0.994003 7.456223 1.198732
v -0.168164 9.410632 0.800819
v -1.004805 7.413486 0.942137
v -0.178965 9.367894 0.544225
v -1.235011 7.557137 1.190148
v -0.409171 9.511544 0.792235
v -1.245812 7.514399 0.933553
v -0.419973 9.468806 0.535640
v 0.356825 3.855855 -0.584427
v 1.125569 5.423429 -1.103510
v 0.316633 3.538688 -0.835201
v 1.085377 5.106262 -1.354284
v 0.116217 3.930768 -0.566171
v 0.884961 5.498343 -1.085255
v 0.076025 3.613601 -0.816945
v 0.844769 5.181176 -1.336028
v 1.184120 11.889370 0.518863
v 1.633724 13.680358 -0.285635
v 1.030890 11.727717 0.313631
v 1.480495 13.518707 -0.490867
v 0.979872 11.979235 0.647208
v 1.429477 13.770225 -0.157291
v 0.826643 11.817584 0.441975
v 1.276247 13.608572 -0.362523
v 0.060831 9.851580 1.363623
v 0.671033 11.973133 0.686893
v -0.049694 9.935561 1.131966
v 0.560509 12.057114 0.455236
v -0.163879 9.963900 1.450961
v 0.446323 12.085452 0.774231
v -0.274404 10.047881 1.219304
v 0.335799 12.169435 0.542574
v 0.365082 4.171699 -0.792294
v -0.346092 5.517508 -1.395753
v 0.136207 3.707376 -0.690193
v -0.574968 5.053185 -1.293651
v 0.444273 4.231924 -0.564295
v -0.266902 5.577733 -1.167754
v 0.215397 3.767601 -0.462193
v -0.495777 5.113410 -1.065652
v -0.554847 3.764373 0.340590
v -0.873311 6.203881 -0.500558
v -0.808341 4.106453 0.341862
v -1.126805 6.545961 -0.499286
v -0.569677 3.898756 0.581053
v -0.888142 6.338264 -0.260095
v -0.823171 4.240836 0.582325
v -1.141636 6.680344 -0.258823
v -0.194221 2.750736 -0.331870
v -1.047153 5.097359 -0.628527
v -0.358963 3.014807 -0.137403
v -1.211895 5.361430 -0.434060
v -0.021562 2.878618 -0.163774
v -0.874494 5.225241 -0.460431
v -0.186304 3.142689 0.030693
v -1.039236 5.489312 -0.265964
v -0.153130 0.666746 -0.172024
v -0.987150 3.167236 0.158010
v -0.146125 1.061386 0.080249
v -0.980145 3.561876 0.410283
v 0.087589 0.805426 -0.163105
v -0.746431 3.305915 0.166929
v 0.094594 1.200066 0.089168
v -0.739426 3.700555 0.419201
v 1.370960 5.726535 0.116501
v 0.509472 7.618002 0.435483
v 1.356214 5.637446 0.372724
v 0.494726 7.528913 0.691706
v 1.609911 5.823181 0.149256
v 0.748423 7.714648 0.468238
v 1.595166 5.734092 0.405479
v 0.733677 7.625559 0.724461
v 1.326673 5.196586 -1.120406
v 0.416487 6.783113 -0.944068
v 1.265645 4.892317 -0.873634
v 0.355459 6.478845 -0.697296
v 1.555304 5.272761 -1.043263
v 0.645117 6.859289 -0.866925
v 1.494275 4.968493 -0.796491
v 0.584089 6.555020 -0.620153
v 1.165015 11.239656 -0.360540
v 0.614773 13.622718 0.353738
v 1.298099 11.534049 -0.143753
v 0.747857 13.917109 0.570525
v 1.378473 11.370083 -0.472313
v 0.828231 13.753144 0.241964
v 1.511557 11.664475 -0.255526
v 0.961315 14.047537 0.458752
v 0.092974 0.966191 0.610384
v -0.382243 2.427235 1.409969
v 0.234138 0.577484 0.819744
v -0.241079 2.038528 1.619329
v 0.303718 1.034030 0.492793
v -0.171500 2.495074 1.292378
v 0.444882 0.645323 0.702153
v -0.030335 2.106368 1.501738
v -0.251633 8.351170 -0.600496
v -0.085192 10.762923 0.284506
v -0.001538 8.669689 -0.556417
v 0.164902 11.081443 0.328586
v -0.193926 8.483605 -0.834419
v -0.027485 10.895358 0.050584
v 0.056169 8.802125 -0.790340
v 0.222609 11.213878 0.094663
v 0.334595 4.539984 -0.050792
v 0.674159 6.179220 0.810443
v 0.589016 4.271865 -0.036820
v 0.928581 5.911101 0.824415
v 0.367597 4.619676 -0.289801
v 0.707162 6.258911 0.571434
v 0.622019 4.351557 -0.275829
v 0.961583 5.990792 0.585406
v 0.101701 5.362653 -0.522523
v 0.804843 6.582062 0.094161
v 0.330591 4.817400 -0.618515
v 1.033733 6.036808 -0.001831
v 0.027861 5.414569 -0.752341
v 0.731003 6.633977 -0.135657
v 0.256751 4.869316 -0.848333
v 0.959893 6.088724 -0.231649
v -0.003095 5.363922 -0.454290
v 0.903722 6.654210 -0.231194
v 0.156086 4.863798 -0.646544
v 1.062903 6.154086 -0.423448
v -0.175147 5.420492 -0.623580
v 0.731669 6.710780 -0.400484
v -0.015966 4.920367 -0.815834
v 0.890850 6.210655 -0.592738
v -1.224448 5.382918 -0.030632
v -0.300312 7.082424 -0.036948
v -1.120412 5.156650 -0.263885
v -0.196277 6.856156 -0.270201
v -1.436041 5.466640 -0.146534
v -0.511906 7.166146 -0.152850
v -1.332005 5.240373 -0.379788
v -0.407870 6.939878 -0.386103
v -0.703038 10.828825 1.052243
v 0.007340 13.267773 0.500561
v -0.778760 11.170426 0.810309
v -0.068382 13.609375 0.258628
v -0.937241 10.963168 1.108737
v -0.226863 13.402116 0.557055
v -1.012963 11.304770 0.866803
v -0.302584 13.743718 0.315122
v 0.976450 5.362154 1.099894
v 0.849360 7.783975 0.208791
v 0.728637 5.689195 1.045141
v 0.601547 8.111016 0.154038
v 0.908810 5.495295 1.331134
v 0.781720 7.917116 0.440031
v 0.660997 5.822336 1.276381
v 0.533907 8.244157 0.385279
v 0.853774 3.056674 0.987482
v 0.968457 5.140708 0.082229
v 0.631115 3.111729 0.859566
v 0.745797 5.195763 -0.045687
v 0.718298 3.166423 1.186924
v 0.832980 5.250456 0.281671
v 0.495638 3.221477 1.059007
v 0.610320 5.305511 0.153754
v 0.859440 6.992761 -1.061452
v 0.172196 8.507118 -1.686374
v 0.625633 6.639655 -0.964074
v -0.061611 8.154012 -1.588996
v 0.933257 7.064137 -0.831704
v 0.246013 8.578493 -1.456625
v 0.699450 6.711030 -0.734326
v 0.012206 8.225387 -1.359247
v 1.047098 3.659350 -0.613095
v 0.297712 6.157963 -1.106116
v 0.844582 4.052356 -0.462441
v 0.095196 6.550970 -0.955462
v 1.178048 3.797897 -0.410912
v 0.428661 6.296510 -0.903934
v 0.975531 4.190903 -0.260258
v 0.226145 6.689517 -0.753280
v -0.803431 8.560649 -0.766487
v -1.557239 10.204082 -0.229271
v -0.755543 8.295426 -0.516177
v -1.509351 9.938859 0.021039
v -0.563528 8.640620 -0.792189
v -1.317336 10.284054 -0.254974
v -0.515640 8.375399 -0.541879
v -1.269448 10.018831 -0.004664
v 0.153859 12.591797 -0.394448
v -0.679193 14.997615 -0.051845
v 0.161250 12.905308 -0.140514
v -0.671803 15.311125 0.202088
v 0.394620 12.723817 -0.385180
v -0.438433 15.129634 -0.042577
v 0.402011 13.037326 -0.131247
v -0.431042 15.443145 0.211356
v 0.107166 2.863769 -0.495619
v -0.766623 5.247792 -0.273394
v 0.078062 3.158967 -0.242925
v -0.795727 5.542991 -0.020700
v 0.344100 2.994262 -0.451808
v -0.529689 5.378286 -0.229583
v 0.314997 3.289460 -0.199115
v -0.558792 5.673484 0.023110
v -1.037287 10.204624 -0.456765
v -0.578801 11.507254 0.356505
v -0.787961 9.712423 -0.472647
v -0.329474 11.015054 0.340622
v -1.031970 10.262005 -0.698077
v -0.573484 11.564636 0.115192
v -0.782643 9.769805 -0.713959
v -0.324157 11.072434 0.099310
v -0.790343 9.211612 0.454923
v -0.847049 10.564366 1.385751
v -0.571271 8.751796 0.576897
v -0.627977 10.104549 1.507725
v -0.655401 9.272294 0.254811
v -0.712108 10.625048 1.185639
v -0.436329 8.812478 0.376785
v -0.493036 10.165233 1.307613
v -1.427279 8.687247 -0.519090
v -0.991466 10.543407 0.290803
v -1.171577 8.572464 -0.539275
v -0.735765 10.428625 0.270618
v -1.427149 8.781506 -0.760290
v -0.991337 10.637666 0.049604
v -1.171448 8.666723 -0.780475
v -0.735635 10.522883 0.029419
v -0.433294 11.605968 0.012924
v 0.274121 13.326909 0.606683
v -0.202885 11.394720 -0.097706
v 0.504530 13.115661 0.496053
v -0.519711 11.691127 -0.212317
v 0.187704 13.412067 0.381442
v -0.289302 11.479879 -0.322947
v 0.418113 13.200820 0.270812
v -0.592447 4.411826 1.191477
v 0.328341 6.216321 1.219730
v -0.481116 4.259829 0.960718
v 0.439671 6.064324 0.988971
v -0.800619 4.502600 1.069612
v 0.120168 6.307096 1.097865
v -0.689289 4.350604 0.838852
v 0.231498 6.155099 0.867106
v -1.031579 8.688143 0.814734
v -0.106524 10.333034 0.846823
v -0.917354 8.423927 0.586898
v 0.007701 10.068818 0.618988
v -1.237648 8.768212 0.689238
v -0.312594 10.413103 0.721327
v -1.123423 8.503997 0.461403
v -0.198368 10.148887 0.493492
v -0.134317 7.824064 -0.745136
v 0.556592 9.959179 -1.338522
v -0.214805 7.918574 -0.988805
v 0.476103 10.053689 -1.582191
v -0.368205 7.937315 -0.686694
v 0.322703 10.072430 -1.280079
v -0.448694 8.031824 -0.930363
v 0.242214 10.166939 -1.523748
v 0.139133 5.265069 0.353375
v -0.251926 6.531834 -0.495180
v -0.109967 4.749896 0.348482
v -0.501027 6.016662 -0.500073
v 0.113705 5.320093 0.593410
v -0.277355 6.586858 -0.255145
v -0.135396 4.804920 0.588518
v -0.526455 6.071685 -0.260037
v -0.405105 6.108606 1.053424
v -0.318173 8.078121 0.141330
v -0.630426 6.077101 0.930133
v -0.543493 8.046616 0.018039
v -0.536877 6.210545 1.255394
v -0.449944 8.180060 0.343299
v -0.762197 6.179039 1.132102
v -0.675264 8.148555 0.220008
v 0.999267 4.652389 0.021378
v 0.999645 6.370308 -0.902277
v 0.766490 4.439020 -0.084115
v 0.766867 6.156939 -1.007770
v 0.882159 4.737346 0.232299
v 0.882537 6.455265 -0.691356
v 0.649382 4.523976 0.126806
v 0.649760 6.241895 -0.796849
v 0.380163 13.477184 0.595946
v -0.129476 15.289258 -0.171199
v 0.127517 13.330618 0.638824
v -0.382121 15.142692 -0.128321
v 0.401391 13.568470 0.836227
v -0.108247 15.380544 0.069082
v 0.148746 13.421904 0.879105
v -0.360892 15.233977 0.111960
v 0.928033 5.642718 -0.658262
v 0.038647 8.098009 -0.528637
v 0.875199 5.998295 -0.410612
v -0.014187 8.453586 -0.280986
v 1.159803 5.778211 -0.592533
v 0.270417 8.233501 -0.462907
v 1.106970 6.133787 -0.344882
v 0.217583 8.589078 -0.215256
v 0.021215 9.984536 -0.328528
v -0.907856 11.434815 -0.378077
v -0.098700 9.588691 -0.106499
v -1.027771 11.038970 -0.156048
v 0.223135 10.051663 -0.196352
v -0.705937 11.501943 -0.245901
v 0.103220 9.655817 0.025677
v -0.825852 11.106096 -0.023872
v 0.141990 9.777858 0.898293
v -0.240956 11.998728 1.721282
v 0.317199 9.939862 1.085108
v -0.065748 12.160732 1.908097
v 0.329252 9.897014 0.746529
v -0.053694 12.117884 1.569518
v 0.504461 10.059018 0.933345
v 0.121514 12.279888 1.756334
v -0.105657 5.246032 -0.595993
v 0.030325 6.761003 0.322872
v 0.136958 4.893338 -0.523261
v 0.272940 6.408309 0.395604
v -0.017267 5.317448 -0.820537
v 0.118716 6.832418 0.098327
v 0.225349 4.964754 -0.747805
v 0.361331 6.479725 0.171060
v 0.468353 7.003635 0.507359
v 0.652573 9.431211 1.388192
v 0.719115 7.335559 0.545831
v 0.903335 9.763135 1.426664
v 0.520739 7.137179 0.272197
v 0.704959 9.564755 1.153030
v 0.771501 7.469104 0.310668
v 0.955721 9.896680 1.191502
v -1.314824 5.627287 0.073634
v -0.638335 7.521705 0.695012
v -1.080052 5.540355 -0.030076
v -0.403564 7.434773 0.591303
v -1.394635 5.724132 -0.153963
v -0.718147 7.618551 0.467415
v -1.159863 5.637201 -0.257672
v -0.483375 7.531619 0.363706
v -0.183305 10.394884 0.182702
v 0.484412 11.686575 0.835533
v 0.051494 9.895658 0.097950
v 0.719211 11.187349 0.750781
v -0.245514 10.451546 -0.050517
v 0.422203 11.743237 0.602314
v -0.010715 9.952320 -0.135269
v 0.657002 11.244011 0.517562
v -0.041334 3.565112 0.656431
v 0.844763 6.067712 0.794947
v 0.080485 3.961591 0.435458
v 0.966583 6.464191 0.573974
v -0.244320 3.703940 0.526735
v 0.641777 6.206541 0.665251
v -0.122501 4.100420 0.305762
v 0.763597 6.603020 0.444278
vn 0.7307 -0.6802 -0.0578
vn -0.8660 -0.2274 0.4453
vn 0.0843 0.3562 0.9306
vn -0.7307 0.6802 0.0578
vn -0.0843 -0.3562 -0.9306
vn 0.8660 0.2274 -0.4453
vn -0.3759 -0.5732 0.7281
vn -0.7160 -0.1262 0.6866
vn 0.8986 0.3421 0.2748
vn 0.3759 0.5732 -0.7281
vn -0.8986 -0.3421 -0.2748
vn 0.7160 0.1262 -0.6866
vn 0.4004 -0.8414 -0.3629
vn -0.1059 -0.1980 0.9745
vn 0.8834 0.3778 0.2772
vn -0.4004 0.8414 0.3629
vn -0.8834 -0.3778 -0.2772
vn 0.1059 0.1980 -0.9745
vn 0.1056 -0.5033 0.8576
vn -0.1529 -0.1178 0.9812
vn 0.8548 0.3248 -0.4048
vn -0.1056 0.5033 -0.8576
vn -0.8548 -0.3248 0.4048
vn 0.1529 0.1178 -0.9812
vn -0.3689 -0.4582 -0.8087
vn 0.5633 -0.2962 0.7714
vn 0.9526 0.3041 0.0095
vn 0.3689 0.4582 0.8087
vn -0.9526 -0.3041 -0.0095
vn -0.5633 0.2962 -0.7714
vn -0.6413 -0.5854 -0.4961
vn 0.9064 -0.2495 0.3408
vn 0.7065 0.3382 -0.6217
vn 0.6413 0.5854 0.4961
vn -0.7065 -0.3382 0.6217
vn -0.9064 0.2495 -0.3408
vn 0.5230 -0.8365 -0.1634
vn 0.8919 -0.1553 0.4248
vn 0.2272 0.3805 -0.8965
vn -0.5230 0.8365 0.1634
vn -0.2272 -0.3805 0.8965
vn -0.8919 0.1553 -0.4248
vn -0.8890 -0.4326 -0.1501
vn 0.9505 -0.3102 -0.0178
vn 0.5817 0.2954 -0.7579
vn 0.8890 0.4326 0.1501
vn -0.5817 -0.2954 0.7579
vn -0.9505 0.3102 0.0178
vn 0.2456 -0.8001 -0.5474
vn 0.8630 -0.1508 -0.4821
vn -0.6340 0.3770 -0.6753
vn -0.2456 0.8001 0.5474
vn 0.6340 -0.3770 0.6753
vn -0.8630 0.1508 0.4821
vn -0.0753 -0.8015 -0.5932
vn 0.4886 -0.1510 -0.8593
vn -0.8915 0.3771 -0.2511
vn 0.0753 0.8015 0.5932
vn 0.8915 -0.3771 0.2511
vn -0.4886 0.1510 0.8593
vn -0.5886 -0.8071 -0.0466
vn 0.8399 -0.2041 -0.5029
vn -0.2731 0.3739 -0.8864
vn 0.5886 0.8071 0.0466
vn 0.2731 -0.3739 0.8864
vn -0.8399 0.2041 0.5029
vn -0.5610 -0.5858 0.5848
vn 0.4346 -0.2494 -0.8654
vn -0.5440 0.3383 -0.7679
vn 0.5610 0.5858 -0.5848
vn 0.5440 -0.3383 0.7679
vn -0.4346 0.2494 0.8654
vn -0.1447 -0.4374 0.8875
vn -0.0261 -0.3073 -0.9512
vn -0.7661 0.2971 -0.5700
vn 0.1447 0.4374 -0.8875
vn 0.7661 -0.2971 0.5700
vn 0.0261 0.3073 0.9512
vn -0.5761 -0.8014 0.1606
vn -0.9212 -0.1510 -0.3585
vn -0.1187 0.3771 0.9185
vn 0.5761 0.8014 -0.1606
vn 0.1187 -0.3771 -0.9185
vn 0.9212 0.1510 0.3585
vn 0.6410 -0.6039 0.4737
vn -0.9201 -0.2446 -0.3059
vn -0.6673 0.3421 0.6616
vn -0.6410 0.6039 -0.4737
vn 0.6673 -0.3421 -0.6616
vn 0.9201 0.2446 0.3059
vn 0.8020 -0.5791 0.1464
vn -0.9618 -0.2512 0.1089
vn -0.3527 0.3368 0.8730
vn -0.8020 0.5791 -0.1464
vn 0.3527 -0.3368 -0.8730
vn 0.9618 0.2512 -0.1089
vn 0.4708 -0.4669 -0.7486
vn -0.3304 -0.2919 0.8976
vn 0.5281 0.3069 0.7918
vn -0.4708 0.4669 0.7486
vn -0.5281 -0.3069 -0.7918
vn 0.3304 0.2919 -0.8976
vn 0.3084 -0.9167 0.2540
vn -0.6296 -0.1750 0.7569
vn 0.7082 0.3861 0.5911
vn -0.3084 0.9167 -0.2540
vn -0.7082 -0.3861 -0.5911
vn 0.6296 0.1750 -0.7569
vn -0.1559 -0.7156 0.6809
vn -0.6434 -0.1416 0.7523
vn 0.8695 0.3669 0.3306
vn 0.1559 0.7156 -0.6809
vn -0.8695 -0.3669 -0.3306
vn 0.6434 0.1416 -0.7523
vn 0.3828 -0.4883 0.7842
vn 0.1849 -0.1159 0.9759
vn 0.6575 0.3205 -0.6819
vn -0.3828 0.4883 -0.7842
vn -0.6575 -0.3205 0.6819
vn -0.1849 0.1159 -0.9759
vn 0.5376 -0.6248 0.5663
vn 0.3707 -0.1320 0.9193
vn 0.6303 0.3525 -0.6917
vn -0.5376 0.6248 -0.5663
vn -0.6303 -0.3525 0.6917
vn -0.3707 0.1320 -0.9193
vn 0.7833 -0.5760 -0.2338
vn 0.9911 -0.1266 0.0417
vn -0.4205 0.3427 -0.8401
vn -0.7833 0.5760 0.2338
vn 0.4205 -0.3427 0.8401
vn -0.9911 0.1266 -0.0417
vn 0.8368 -0.4804 -0.2626
vn 0.9925 -0.1148 -0.0421
vn -0.5881 0.3181 -0.7436
vn -0.8368 0.4804 0.2626
vn 0.5881 -0.3181 0.7436
vn -0.9925 0.1148 0.0421
vn 0.3695 -0.7562 -0.5401
vn 0.9018 -0.1459 -0.4067
vn -0.6127 0.3721 -0.6972
vn -0.3695 0.7562 0.5401
vn 0.6127 -0.3721 0.6972
vn -0.9018 0.1459 0.4067
vn 0.5395 -0.6562 -0.5276
vn 0.9252 -0.1353 -0.3545
vn -0.6553 0.3580 -0.6651
vn -0.5395 0.6562 0.5276
vn 0.6553 -0.3580 0.6651
vn -0.9252 0.1353 0.3545
vn -0.5206 -0.4473 0.7272
vn 0.3937 -0.3018 -0.8683
vn -0.4494 0.3005 -0.8413
vn 0.5206 0.4473 -0.7272
vn 0.4494 -0.3005 0.8413
vn -0.3937 0.3018 0.8683
vn -0.2119 -0.8893 0.4052
vn -0.4798 -0.1880 -0.8570
vn -0.8530 0.3828 0.3546
vn 0.2119 0.8893 -0.4052
vn 0.8530 -0.3828 -0.3546
vn 0.4798 0.1880 0.8570
vn -0.1755 -0.4518 0.8747
vn -0.0005 -0.2994 -0.9541
vn -0.7599 0.3020 -0.5757
vn 0.1755 0.4518 -0.8747
vn 0.7599 -0.3020 0.5757
vn 0.0005 0.2994 0.9541
vn -0.5988 -0.7854 0.1567
vn -0.9290 -0.1491 -0.3386
vn -0.0806 0.3754 0.9233
vn 0.5988 0.7854 -0.1567
vn 0.0806 -0.3754 -0.9233
vn 0.9290 0.1491 0.3386
vn 0.8633 -0.4258 -0.2709
vn -0.8396 -0.3143 0.4431
vn -0.1866 0.2929 0.9378
vn -0.8633 0.4258 0.2709
vn 0.1866 -0.2929 -0.9378
vn 0.8396 0.3143 -0.4431
vn -0.7708 -0.5128 0.3779
vn -0.9782 -0.1190 0.1700
vn 0.6486 0.3274 0.6871
vn 0.7708 0.5128 -0.3779
vn -0.6486 -0.3274 -0.6871
vn 0.9782 0.1190 -0.1700
vn 0.3407 -0.9162 0.2109
vn -0.6011 -0.1769 0.7793
vn 0.7194 0.3859 0.5775
vn -0.3407 0.9162 -0.2109
vn -0.7194 -0.3859 -0.5775
vn 0.6011 0.1769 -0.7793
vn 0.0342 -0.8041 0.5935
vn -0.5519 -0.1513 0.8201
vn 0.8689 0.3774 0.3202
vn -0.0342 0.8041 -0.5935
vn -0.8689 -0.3774 -0.3202
vn 0.5519 0.1513 -0.8201
vn 0.5902 -0.7578 -0.2783
vn -0.5673 -0.2128 0.7956
vn 0.5647 0.3677 0.7389
vn -0.5902 0.7578 0.2783
vn -0.5647 -0.3677 -0.7389
vn 0.5673 0.2128 -0.7956
vn 0.2689 -0.5534 0.7883
vn 0.0147 -0.1239 0.9922
vn 0.8032 0.3376 -0.4908
vn -0.2689 0.5534 -0.7883
vn -0.8032 -0.3376 0.4908
vn -0.0147 0.1239 -0.9922
vn -0.2714 -0.4202 -0.8659
vn 0.4393 -0.3179 0.8403
vn 0.9362 0.2908 0.1973
vn 0.2714 0.4202 0.8659
vn -0.9362 -0.2908 -0.1973
vn -0.4393 0.3179 -0.8403
vn 0.5206 -0.8458 -0.1167
vn 0.8360 -0.1566 0.5259
vn 0.3414 0.3813 -0.8591
vn -0.5206 0.8458 0.1167
vn -0.3414 -0.3813 0.8591
vn -0.8360 0.1566 -0.5259
vn -0.8407 -0.4714 0.2666
vn 0.8312 -0.2898 -0.4745
vn 0.1002 0.3083 -0.9460
vn 0.8407 0.4714 -0.2666
vn -0.1002 -0.3083 0.9460
vn -0.8312 0.2898 0.4745
vn -0.7989 -0.6008 -0.0275
vn 0.9321 -0.2454 -0.2662
vn 0.1812 0.3415 -0.9223
vn 0.7989 0.6008 0.0275
vn -0.1812 -0.3415 0.9223
vn -0.9321 0.2454 0.2662
vn 0.4415 -0.6909 -0.5725
vn 0.8853 -0.1390 -0.4438
vn -0.6919 0.3634 -0.6238
vn -0.4415 0.6909 0.5725
vn 0.6919 -0.3634 0.6238
vn -0.8853 0.1390 0.4438
vn -0.3024 -0.4648 0.8322
vn 0.1347 -0.2929 -0.9466
vn -0.6808 0.3062 -0.6654
vn 0.3024 0.4648 -0.8322
vn 0.6808 -0.3062 0.6654
vn -0.1347 0.2929 0.9466
vn -0.1293 -0.8381 0.5300
vn -0.4481 -0.1986 -0.8717
vn -0.8914 0.3774 0.2509
vn 0.1293 0.8381 -0.5300
vn 0.8914 -0.3774 -0.2509
vn 0.4481 0.1986 0.8717
vn -0.3304 -0.8968 0.2942
vn -0.2152 -0.1859 -0.9587
vn -0.9167 0.3836 0.1118
vn 0.3304 0.8968 -0.2942
vn 0.9167 -0.3836 -0.1118
vn 0.2152 0.1859 0.9587
vn 0.6834 -0.5225 0.5099
vn -0.8898 -0.2690 -0.3688
vn -0.7727 0.3231 0.5465
vn -0.6834 0.5225 -0.5099
vn 0.7727 -0.3231 -0.5465
vn 0.8898 0.2690 0.3688
vn 0.3088 -0.8837 0.3518
vn -0.9773 -0.1893 0.0947
vn -0.0289 0.3822 0.9236
vn -0.3088 0.8837 -0.3518
vn 0.0289 -0.3822 -0.9236
vn 0.9773 0.1893 -0.0947
vn -0.0686 -0.6846 0.7257
vn -0.5054 -0.1383 0.8517
vn 0.9207 0.3625 0.1447
vn 0.0686 0.6846 -0.7257
vn -0.9207 -0.3625 -0.1447
vn 0.5054 0.1383 -0.8517
vn -0.1293 -0.6793 0.7224
vn -0.5691 -0.1378 0.8106
vn 0.9085 0.3617 0.2093
vn 0.1293 0.6793 -0.7224
vn -0.9085 -0.3617 -0.2093
vn 0.5691 0.1378 -0.8106
vn 0.5972 -0.7870 -0.1547
vn -0.6651 -0.2076 0.7173
vn 0.4917 0.3714 0.7875
vn -0.5972 0.7870 0.1547
vn -0.4917 -0.3714 -0.7875
vn 0.6651 0.2076 -0.7173
vn 0.5279 -0.5476 -0.6492
vn -0.3895 -0.2606 0.8834
vn 0.5507 0.3295 0.7670
vn -0.5279 0.5476 0.6492
vn -0.5507 -0.3295 -0.7670
vn 0.3895 0.2606 -0.8834
vn -0.1592 -0.7916 -0.5900
vn 0.7309 -0.2068 0.6504
vn 0.7744 0.3720 -0.5118
vn 0.1592 0.7916 0.5900
vn -0.7744 -0.3720 0.5118
vn -0.7309 0.2068 -0.6504
vn -0.8428 -0.5063 -0.1823
vn 0.9612 -0.2750 -0.0223
vn 0.5023 0.3186 -0.8039
vn 0.8428 0.5063 0.1823
vn -0.5023 -0.3186 0.8039
vn -0.9612 0.2750 0.0223
vn -0.8895 -0.4148 0.1916
vn 0.8770 -0.3214 -0.3571
vn 0.2918 0.2888 -0.9118
vn 0.8895 0.4148 -0.1916
vn -0.2918 -0.2888 0.9118
vn -0.8770 0.3214 0.3571
vn -0.5611 -0.6883 0.4597
vn 0.4485 -0.2257 -0.8648
vn -0.6134 0.3575 -0.7042
vn 0.5611 0.6883 -0.4597
vn 0.6134 -0.3575 0.7042
vn -0.4485 0.2257 0.8648
vn -0.1533 -0.5269 -0.8360
vn 0.1115 -0.1208 -0.9864
vn -0.8479 0.3311 0.4140
vn 0.1533 0.5269 0.8360
vn 0.8479 -0.3311 -0.4140
vn -0.1115 0.1208 0.9864
vn -0.6371 -0.4931 0.5924
vn 0.5381 -0.2803 -0.7950
vn -0.3504 0.3149 -0.8821
vn 0.6371 0.4931 -0.5924
vn 0.3504 -0.3149 0.8821
vn -0.5381 0.2803 0.7950
vn 0.3801 -0.5884 0.7136
vn -0.6887 -0.2487 -0.6811
vn -0.8975 0.3389 0.2823
vn -0.3801 0.5884 -0.7136
vn 0.8975 -0.3389 -0.2823
vn 0.6887 0.2487 0.6811
vn -0.1645 -0.5587 0.8129
vn -0.0740 -0.2571 -0.9635
vn -0.8520 0.3321 -0.4046
vn 0.1645 0.5587 -0.8129
vn 0.8520 -0.3321 0.4046
vn 0.0740 0.2571 0.9635
vn 0.8136 -0.5172 0.2655
vn -0.9602 -0.2709 -0.0686
vn -0.5654 0.3216 0.7595
vn -0.8136 0.5172 -0.2655
vn 0.5654 -0.3216 -0.7595
vn 0.9602 0.2709 0.0686
vn -0.4588 -0.8650 0.2033
vn -0.8881 -0.1594 -0.4311
vn -0.2715 0.3829 0.8830
vn 0.4588 0.8650 -0.2033
vn 0.2715 -0.3829 -0.8830
vn 0.8881 0.1594 0.4311
vn -0.0382 -0.9135 0.4050
vn -0.9337 -0.1794 -0.3098
vn -0.3272 0.3855 0.8628
vn 0.0382 0.9135 -0.4050
vn 0.3272 -0.3855 -0.8628
vn 0.9337 0.1794 0.3098
vn 0.5064 -0.8584 0.0818
vn -0.7882 -0.1947 0.5838
vn 0.4161 0.3796 0.8263
vn -0.5064 0.8584 -0.0818
vn -0.4161 -0.3796 -0.8263
vn 0.7882 0.1947 -0.5838
vn 0.4944 -0.8656 -0.0792
vn -0.5363 -0.1933 0.8216
vn 0.6842 0.3804 0.6222
vn -0.4944 0.8656 0.0792
vn -0.6842 -0.3804 -0.6222
vn 0.5363 0.1933 -0.8216
vn 0.2884 -0.8401 0.4595
vn -0.1958 -0.1558 0.9682
vn 0.9246 0.3808 0.0076
vn -0.2884 0.8401 -0.4595
vn -0.9246 -0.3808 -0.0076
vn 0.1958 0.1558 -0.9682
vn -0.3501 -0.7257 -0.5922
vn 0.8166 -0.2186 0.5342
vn 0.7379 0.3632 -0.5688
vn 0.3501 0.7257 0.5922
vn -0.7379 -0.3632 0.5688
vn -0.8166 0.2186 -0.5342
vn 0.3173 -0.9127 -0.2577
vn 0.4104 -0.1800 0.8940
vn 0.8558 0.3854 -0.3452
vn -0.3173 0.9127 0.2577
vn -0.8558 -0.3854 0.3452
vn -0.4104 0.1800 -0.8940
vn 0.3053 -0.8715 -0.3838
vn 0.9870 -0.1604 0.0061
vn -0.1257 0.3834 -0.9150
vn -0.3053 0.8715 0.3838
vn 0.1257 -0.3834 0.9150
vn -0.9870 0.1604 -0.0061
vn 0.8141 -0.5781 -0.0546
vn 0.9568 -0.1268 0.2617
vn -0.2202 0.3432 -0.9131
vn -0.8141 0.5781 0.0546
vn 0.2202 -0.3432 0.9131
vn -0.9568 0.1268 -0.2617
vn 0.3466 -0.6764 -0.6499
vn 0.7889 -0.1375 -0.5990
vn -0.8034 0.3612 -0.4733
vn -0.3466 0.6764 0.6499
vn 0.8034 -0.3612 0.4733
vn -0.7889 0.1375 0.5990
vn -0.0062 -0.5380 -0.8429
vn 0.2884 -0.1221 -0.9497
vn -0.9114 0.3339 0.2404
vn 0.0062 0.5380 0.8429
vn 0.9114 -0.3339 -0.2404
vn -0.2884 0.1221 0.9497
vn -0.5498 -0.5108 -0.6609
vn -0.3972 -0.1187 -0.9100
vn -0.5116 0.3268 0.7946
vn 0.5498 0.5108 0.6609
vn 0.5116 -0.3268 -0.7946
vn 0.3972 0.1187 0.9100
vn -0.3745 -0.7013 0.6066
vn 0.1266 -0.2232 -0.9665
vn -0.8225 0.3596 -0.4407
vn 0.3745 0.7013 -0.6066
vn 0.8225 -0.3596 0.4407
vn -0.1266 0.2232 0.9665
vn -0.4039 -0.7981 -0.4471
vn -0.0985 -0.1506 -0.9837
vn -0.8712 0.3768 0.3147
vn 0.4039 0.7981 0.4471
vn 0.8712 -0.3768 -0.3147
vn 0.0985 0.1506 0.9837
vn -0.1267 -0.9098 0.3951
vn -0.9851 -0.1695 -0.0298
vn 0.0196 0.3860 0.9223
vn 0.1267 0.9098 -0.3951
vn -0.0196 -0.3860 -0.9223
vn 0.9851 0.1695 0.0298
vn -0.1720 -0.9092 0.3791
vn -0.9768 -0.1693 -0.1313
vn -0.0735 0.3859 0.9196
vn 0.1720 0.9092 -0.3791
vn 0.0735 -0.3859 -0.9196
vn 0.9768 0.1693 0.1313
vn 0.0240 -0.8869 0.4613
vn -0.8074 -0.1633 0.5669
vn 0.6128 0.3845 0.6904
vn -0.0239 0.8869 -0.4613
vn -0.6128 -0.3845 -0.6904
vn 0.8074 0.1633 -0.5669
vn 0.7661 -0.6102 -0.2017
vn -0.8121 -0.2430 0.5306
vn 0.1097 0.3434 0.9328
vn -0.7661 0.6102 0.2017
vn -0.1097 -0.3434 -0.9328
vn 0.8121 0.2430 -0.5306
vn 0.4460 -0.8770 0.1786
vn 0.2448 -0.1614 0.9561
vn 0.8564 0.3838 -0.3454
vn -0.4460 0.8770 -0.1786
vn -0.8564 -0.3838 0.3454
vn -0.2448 0.1614 -0.9561
vn 0.0959 -0.6421 0.7606
vn -0.2624 -0.1338 0.9556
vn 0.9226 0.3556 -0.1492
vn -0.0959 0.6421 -0.7606
vn -0.9226 -0.3556 0.1493
vn 0.2624 0.1338 -0.9556
vn -0.4753 -0.4376 -0.7632
vn 0.6461 -0.3072 0.6987
vn 0.9518 0.2971 -0.0757
vn 0.4753 0.4376 0.7632
vn -0.9518 -0.2971 0.0757
vn -0.6461 0.3072 -0.6987
vn 0.8676 -0.4811 0.1260
vn 0.9125 -0.1149 0.3926
vn -0.2064 0.3183 -0.9252
vn -0.8676 0.4811 -0.1260
vn 0.2064 -0.3183 0.9252
vn -0.9125 0.1149 -0.3926
vn -0.8824 -0.4353 -0.1788
vn 0.9511 -0.3086 0.0116
vn 0.6021 0.2963 -0.7414
vn 0.8824 0.4353 0.1788
vn -0.6021 -0.2963 0.7414
vn -0.9511 0.3086 -0.0116
vn -0.5015 -0.8541 -0.1376
vn 0.8557 -0.1956 -0.4791
vn -0.3024 0.3791 -0.8745
vn 0.5015 0.8541 0.1376
vn 0.3024 -0.3791 0.8745
vn -0.8557 0.1956 0.4791
vn -0.7845 -0.5714 0.2407
vn 0.8067 -0.2534 -0.5338
vn -0.0745 0.3351 -0.9392
vn 0.7845 0.5714 -0.2407
vn 0.0745 -0.3351 0.9392
vn -0.8067 0.2534 0.5338
vn -0.3858 -0.9073 0.1674
vn -0.0414 -0.1825 -0.9823
vn -0.9227 0.3847 -0.0252
vn 0.3858 0.9073 -0.1674
vn 0.9227 -0.3847 0.0252
vn 0.0414 0.1825 0.9823
vn -0.1287 -0.6050 0.7858
vn -0.1488 -0.2443 -0.9582
vn -0.8938 0.3424 -0.2898
vn 0.1287 0.6050 -0.7858
vn 0.8938 -0.3424 0.2898
vn 0.1488 0.2443 0.9582
vn 0.0298 -0.7959 0.6047
vn -0.5840 -0.2061 -0.7851
vn -0.8600 0.3725 0.3487
vn -0.0298 0.7959 -0.6047
vn 0.8600 -0.3725 -0.3487
vn 0.5840 0.2061 0.7851
vn -0.4735 -0.8760 -0.0917
vn -0.4265 -0.1612 -0.8900
vn -0.7716 0.3837 0.5073
vn 0.4735 0.8760 0.0917
vn 0.7716 -0.3837 -0.5073
vn 0.4265 0.1612 0.8900
vn 0.8666 -0.4663 -0.1778
vn -0.8769 -0.2922 0.3817
vn -0.2078 0.3067 0.9288
vn -0.8666 0.4663 0.1778
vn 0.2078 -0.3067 -0.9288
vn 0.8769 0.2922 -0.3817
vn -0.7725 -0.5734 0.2728
vn -0.9920 -0.1263 0.0094
vn 0.4659 0.3422 0.8160
vn 0.7725 0.5734 -0.2728
vn -0.4659 -0.3422 -0.8160
vn 0.9920 0.1263 -0.0094
vn -0.2108 -0.6615 0.7197
vn -0.6376 -0.1359 0.7583
vn 0.8936 0.3589 0.2697
vn 0.2108 0.6615 -0.7197
vn -0.8936 -0.3589 -0.2697
vn 0.6376 0.1359 -0.7583
vn 0.2707 -0.5219 0.8089
vn 0.0324 -0.1201 0.9922
vn 0.7761 0.3298 -0.5375
vn -0.2707 0.5219 -0.8089
vn -0.7761 -0.3298 0.5375
vn -0.0324 0.1201 -0.9922
vn 0.3927 -0.8754 -0.2818
vn -0.0570 -0.1912 0.9799
vn 0.9058 0.3814 0.1847
vn -0.3927 0.8754 0.2818
vn -0.9058 -0.3814 -0.1847
vn 0.0570 0.1912 -0.9799
vn 0.4284 -0.6195 -0.6579
vn -0.2373 -0.2408 0.9411
vn 0.7188 0.3453 0.6035
vn -0.4284 0.6195 0.6579
vn -0.7188 -0.3453 -0.6035
vn 0.2373 0.2408 -0.9411
vn 0.6260 -0.6257 0.4654
vn 0.5220 -0.1321 0.8427
vn 0.5041 0.3527 -0.7884
vn -0.6260 0.6257 -0.4654
vn -0.5041 -0.3527 0.7884
vn -0.5220 0.1321 -0.8427
vn -0.2758 -0.5315 -0.8009
vn 0.5336 -0.2658 0.8029
vn 0.9450 0.3254 -0.0330
vn 0.2758 0.5315 0.8009
vn -0.9450 -0.3254 0.0330
vn -0.5336 0.2658 -0.8029
vn 0.7879 -0.5986 -0.1445
vn 0.9773 -0.1291 0.1680
vn -0.2851 0.3475 -0.8933
vn -0.7879 0.5986 0.1445
vn 0.2851 -0.3475 0.8933
vn -0.9773 0.1291 -0.1680
vn -0.6803 -0.6620 -0.3146
vn 0.9712 -0.2312 0.0570
vn 0.4181 0.3531 -0.8370
vn 0.6803 0.6619 0.3146
vn -0.4181 -0.3531 0.8370
vn -0.9712 0.2312 -0.0570
vn -0.8918 -0.4086 0.1942
vn 0.8763 -0.3257 -0.3551
vn 0.3009 0.2865 -0.9096
vn 0.8918 0.4086 -0.1942
vn -0.3009 -0.2865 0.9096
vn -0.8763 0.3257 0.3551
vn -0.6993 -0.4393 0.5639
vn 0.6146 -0.3062 -0.7270
vn -0.1936 0.2977 -0.9348
vn 0.6993 0.4393 -0.5639
vn 0.1936 -0.2977 0.9348
vn -0.6146 0.3062 0.7270
vn -0.5319 -0.7140 0.4553
vn 0.3999 -0.2208 -0.8896
vn -0.6692 0.3615 -0.6492
vn 0.5319 0.7140 -0.4553
vn 0.6692 -0.3615 0.6492
vn -0.3999 0.2208 0.8896
vn -0.4879 -0.5739 -0.6577
vn -0.3005 -0.1263 -0.9454
vn -0.6435 0.3423 0.6847
vn 0.4879 0.5739 0.6577
vn 0.6435 -0.3423 -0.6847
vn 0.3005 0.1263 0.9454
vn -0.8010 -0.5894 0.1050
vn -0.9693 -0.1281 -0.2098
vn 0.2566 0.3456 0.9026
vn 0.8010 0.5894 -0.1050
vn -0.2566 -0.3456 -0.9026
vn 0.9693 0.1281 0.2098
vn -0.3639 -0.8981 0.2470
vn -0.8558 -0.1658 -0.4901
vn -0.3862 0.3853 0.8381
vn 0.3639 0.8981 -0.2470
vn 0.3862 -0.3853 -0.8381
vn 0.8558 0.1658 0.4901
vn 0.8194 -0.5666 -0.0872
vn -0.8948 -0.2548 0.3666
vn -0.1148 0.3340 0.9356
vn -0.8194 0.5666 0.0872
vn 0.1148 -0.3340 -0.9356
vn 0.8948 0.2548 -0.3666
vn -0.5054 -0.5234 0.6860
vn -0.7936 -0.1203 0.5964
vn 0.8850 0.3302 0.3283
vn 0.5054 0.5234 -0.6860
vn -0.8850 -0.3302 -0.3283
vn 0.7936 0.1203 -0.5964
vn 0.1434 -0.6655 -0.7325
vn 0.1793 -0.2304 0.9564
vn 0.9137 0.3537 0.2000
vn -0.1434 0.6655 0.7325
vn -0.9137 -0.3537 -0.2000
vn -0.1793 0.2304 -0.9564
vn 0.3029 -0.6041 0.7371
vn 0.0330 -0.1297 0.9910
vn 0.8199 0.3486 -0.4542
vn -0.3029 0.6041 -0.7371
vn -0.8199 -0.3486 0.4542
vn -0.0330 0.1297 -0.9910
vn 0.2048 -0.6248 0.7535
vn -0.1095 -0.1320 0.9852
vn 0.8829 0.3525 -0.3101
vn -0.2048 0.6248 -0.7535
vn -0.8829 -0.3525 0.3101
vn 0.1095 0.1320 -0.9852
vn -0.8867 -0.4451 -0.1254
vn 0.9516 -0.3030 -0.0511
vn 0.5416 0.2997 -0.7854
vn 0.8867 0.4451 0.1254
vn -0.5416 -0.2997 0.7854
vn -0.9516 0.3030 0.0511
vn -0.6593 -0.4698 -0.5870
vn 0.8319 -0.2905 0.4729
vn 0.8658 0.3078 -0.3946
vn 0.6593 0.4698 0.5870
vn -0.8658 -0.3078 0.3946
vn -0.8319 0.2905 -0.4729
vn -0.4079 -0.8503 -0.3325
vn 0.9776 -0.1963 -0.0762
vn 0.0974 0.3787 -0.9204
vn 0.4079 0.8503 0.3325
vn -0.0974 -0.3787 0.9204
vn -0.9776 0.1963 0.0762
vn -0.6799 -0.7331 -0.0163
vn 0.8811 -0.2172 -0.4202
vn -0.1100 0.3643 -0.9248
vn 0.6799 0.7331 0.0163
vn 0.1100 -0.3643 0.9248
vn -0.8811 0.2172 0.4202
vn -0.5175 -0.8077 0.2824
vn 0.4268 -0.2040 -0.8810
vn -0.7147 0.3739 -0.5911
vn 0.5175 0.8077 -0.2824
vn 0.7147 -0.3739 0.5911
vn -0.4268 0.2040 0.8810
vn -0.5592 -0.6667 0.4928
vn 0.4394 -0.2302 -0.8683
vn -0.6046 0.3539 -0.7136
vn 0.5592 0.6667 -0.4928
vn 0.6046 -0.3539 0.7136
vn -0.4394 0.2302 0.8683
vn -0.4650 -0.8663 -0.1824
vn -0.3114 -0.1596 -0.9368
vn -0.8226 0.3830 0.4203
vn 0.4650 0.8663 0.1824
vn 0.8226 -0.3830 -0.4203
vn 0.3114 0.1596 0.9368
vn 0.8829 -0.4287 0.1918
vn -0.9495 -0.3125 -0.0289
vn -0.6222 0.2940 0.7256
vn -0.8829 0.4287 -0.1918
vn 0.6222 -0.2940 -0.7256
vn 0.9495 0.3125 0.0289
vn -0.0916 -0.9117 0.4004
vn -0.8630 -0.1805 -0.4719
vn -0.4838 0.3853 0.7858
vn 0.0916 0.9117 -0.4004
vn 0.4838 -0.3853 -0.7858
vn 0.8630 0.1805 0.4719
vn 0.4284 -0.7304 0.5320
vn -0.8879 -0.2177 -0.4053
vn -0.6402 0.3639 0.6766
vn -0.4284 0.7304 -0.5320
vn 0.6402 -0.3639 -0.6766
vn 0.8879 0.2177 0.4053
vn 0.5171 -0.8143 0.2637
vn -0.9657 -0.2028 0.1624
vn -0.0604 0.3747 0.9252
vn -0.5171 0.8143 -0.2637
vn 0.0604 -0.3747 -0.9252
vn 0.9657 0.2028 -0.1624
vn 0.0936 -0.5596 0.8235
vn -0.2026 -0.1247 0.9713
vn 0.8929 0.3391 -0.2964
vn -0.0936 0.5596 -0.8235
vn -0.8929 -0.3391 0.2964
vn 0.2026 0.1247 -0.9713
vn 0.5814 -0.5248 -0.6217
vn -0.4636 -0.2682 0.8445
vn 0.4612 0.3237 0.8262
vn -0.5814 0.5248 0.6217
vn -0.4612 -0.3237 -0.8262
vn 0.4636 0.2682 -0.8445
vn 0.6010 -0.7900 0.1214
vn 0.6783 -0.1496 0.7194
vn 0.4906 0.3759 -0.7861
vn -0.6010 0.7900 -0.1214
vn -0.4906 -0.3759 0.7861
vn -0.6783 0.1496 -0.7194
vn -0.6889 -0.5670 -0.4515
vn 0.9247 -0.2547 0.2830
vn 0.6810 0.3341 -0.6516
vn 0.6889 0.5670 0.4515
vn -0.6810 -0.3341 0.6516
vn -0.9247 0.2547 -0.2830
vn 0.7969 -0.5841 -0.1542
vn 0.9810 -0.1275 0.1461
vn -0.3206 0.3445 -0.8823
vn -0.7969 0.5841 0.1542
vn 0.3206 -0.3445 0.8823
vn -0.9810 0.1275 -0.1461
vn -0.4241 -0.8773 -0.2246
vn 0.8981 -0.1908 -0.3961
vn -0.2516 0.3816 -0.8894
vn 0.4241 0.8773 0.2246
vn 0.2516 -0.3816 0.8894
vn -0.8981 0.1908 0.3961
vn -0.8885 -0.4400 0.1301
vn 0.8988 -0.3059 -0.3141
vn 0.3073 0.2979 -0.9038
vn 0.8885 0.4400 -0.1301
vn -0.3073 -0.2979 0.9038
vn -0.8988 0.3059 0.3141
vn 0.1779 -0.5202 -0.8353
vn 0.4750 -0.1199 -0.8718
vn -0.9415 0.3294 0.0719
vn -0.1779 0.5202 0.8353
vn 0.9415 -0.3294 -0.0719
vn -0.4750 0.1199 0.8718
vt 0.625000 0.500000
vt 0.875000 0.500000
vt 0.875000 0.750000
vt 0.625000 0.750000
vt 0.375000 0.750000
vt 0.625000 1.000000
vt 0.375000 1.000000
vt 0.375000 0.000000
vt 0.625000 0.000000
vt 0.625000 0.250000
vt 0.375000 0.250000
vt 0.125000 0.500000
vt 0.375000 0.500000
vt 0.125000 0.750000
s 0
usemtl Material
f 1/1/1 5/2/1 7/3/1 3/4/1
f 4/5/2 3/4/2 7/6/2 8/7/2
f 8/8/3 7/9/3 5/10/3 6/11/3
f 6/12/4 2/13/4 4/5/4 8/14/4
f 2/13/5 1/1/5 3/4/5 4/5/5
f 6/11/6 5/10/6 1/1/6 2/13/6
f 9/1/7 13/2/7 15/3/7 11/4/7
f 12/5/8 11/4/8 15/6/8 16/7/8
f 16/8/9 15/9/9 13/10/9 14/11/9
f 14/12/10 10/13/10 12/5/10 16/14/10
f 10/13/11 9/1/11 11/4/11 12/5/11
f 14/11/12 13/10/12 9/1/12 10/13/12
f 17/1/13 21/2/13 23/3/13 19/4/13
f 20/5/14 19/4/14 23/6/14 24/7/14
f 24/8/15 23/9/15 21/10/15 22/11/15
f 22/12/16 18/13/16 20/5/16 24/14/16
f 18/13/17 17/1/17 19/4/17 20/5/17
f 22/11/18 21/10/18 17/1/18 18/13/18
f 25/1/19 29/2/19 31/3/19 27/4/19
f 28/5/20 27/4/20 31/6/20 32/7/20
f 32/8/21 31/9/21 29/10/21 30/11/21
f 30/12/22 26/13/22 28/5/22 32/14/22
f 26/13/23 25/1/23 27/4/23 28/5/23
f 30/11/24 29/10/24 25/1/24 26/13/24
f 33/1/25 37/2/25 39/3/25 35/4/25
f 36/5/26 35/4/26 39/6/26 40/7/26
f 40/8/27 39/9/27 37/10/27 38/11/27
f 38/12/28 34/13/28 36/5/28 40/14/28
f 34/13/29 33/1/29 35/4/29 36/5/29
f 38/11/30 37/10/30 33/1/30 34/13/30
f 41/1/31 45/2/31 47/3/31 43/4/31
f 44/5/32 43/4/32 47/6/32 48/7/32
f 48/8/33 47/9/33 45/10/33 46/11/33
f 46/12/34 42/13/34 44/5/34 48/14/34
f 42/13/35 41/1/35 43/4/35 44/5/35
f 46/11/36 45/10/36 41/1/36 42/13/36
f 49/1/37 53/2/37 55/3/37 51/4/37
f 52/5/38 51/4/38 55/6/38 56/7/38
f 56/8/39 55/9/39 53/10/39 54/11/39
f 54/12/40 50/13/40 52/5/40 56/14/40
f 50/13/41 49/1/41 51/4/41 52/5/41
f 54/11/42 53/10/42 49/1/42 50/13/42
f 57/1/43 61/2/43 63/3/43 59/4/43
f 60/5/44 59/4/44 63/6/44 64/7/44
f 64/8/45 63/9/45 61/10/45 62/11/45
f 62/12/46 58/13/46 60/5/46 64/14/46
f 58/13/47 57/1/47 59/4/47 60/5/47
f 62/11/48 61/10/48 57/1/48 58/13/48
f 65/1/49 69/2/49 71/3/49 67/4/49
f 68/5/50 67/4/50 71/6/50 72/7/50
f 72/8/51 71/9/51 69/10/51 70/11/51
f 70/12/52 66/13/52 68/5/52 72/14/52
f 66/13/53 65/1/53 67/4/53 68/5/53
f 70/11/54 69/10/54 65/1/54 66/13/54
f 73/1/55 77/2/55 79/3/55 75/4/55
f 76/5/56 75/4/56 79/6/56 80/7/56
f 80/8/57 79/9/57 77/10/57 78/11/57
f 78/12/58 74/13/58 76/5/58 80/14/58
f 74/13/59 73/1/59 75/4/59 76/5/59
f 78/11/60 77/10/60 73/1/60 74/13/60
f 81/1/61 85/2/61 87/3/61 83/4/61
f 84/5/62 83/4/62 87/6/62 88/7/62
f 88/8/63 87/9/63 85/10/63 86/11/63
f 86/12/64 82/13/64 84/5/64 88/14/64
f 82/13/65 81/1/65 83/4/65 84/5/65
f 86/11/66 85/10/66 81/1/66 82/13/66
f 89/1/67 93/2/67 95/3/67 91/4/67
f 92/5/68 91/4/68 95/6/68 96/7/68
f 96/8/69 95/9/69 93/10/69 94/11/69
f 94/12/70 90/13/70 92/5/70 96/14/70
f 90/13/71 89/1/71 91/4/71 92/5/71
f 94/11/72 93/10/72 89/1/72 90/13/72
f 97/1/73 101/2/73 103/3/73 99/4/73
f 100/5/74 99/4/74 103/6/74 104/7/74
f 104/8/75 103/9/75 101/10/75 102/11/75
f 102/12/76 98/13/76 100/5/76 104/14/76
f 98/13/77 97/1/77 99/4/77 100/5/77
f 102/11/78 101/10/78 97/1/78 98/13/78
f 105/1/79 109/2/79 111/3/79 107/4/79
f 108/5/80 107/4/80 111/6/80 112/7/80
f 112/8/81 111/9/81 109/10/81 110/11/81
f 110/12/82 106/13/82 108/5/82 112/14/82
f 106/13/83 105/1/83 107/4/83 108/5/83
f 110/11/84 109/10/84 105/1/84 106/13/84
f 113/1/85 117/2/85 119/3/85 115/4/85
f 116/5/86 115/4/86 119/6/86 120/7/86
f 120/8/87 119/9/87 117/10/87 118/11/87
f 118/12/88 114/13/88 116/5/88 120/14/88
f 114/13/89 113/1/89 115/4/89 116/5/89
f 118/11/90 117/10/90 113/1/90 114/13/90
f 121/1/91 125/2/91 127/3/91 123/4/91
f 124/5/92 123/4/92 127/6/92 128/7/92
f 128/8/93 127/9/93 125/10/93 126/11/93
f 126/12/94 122/13/94 124/5/94 128/14/94
f 122/13/95 121/1/95 123/4/95 124/5/95
f 126/11/96 125/10/96 121/1/96 122/13/96
f 129/1/97 133/2/97 135/3/97 131/4/97
f 132/5/98 131/4/98 135/6/98 136/7/98
f 136/8/99 135/9/99 133/10/99 134/11/99
f 134/12/100 130/13/100 132/5/100 136/14/100
f 130/13/101 129/1/101 131/4/101 132/5/101
f 134/11/102 133/10/102 129/1/102 130/13/102
f 137/1/103 141/2/103 143/3/103 139/4/103
f 140/5/104 139/4/104 143/6/104 144/7/104
f 144/8/105 143/9/105 141/10/105 142/11/105
f 142/12/106 138/13/106 140/5/106 144/14/106
f 138/13/107 137/1/107 139/4/107 140/5/107
f 142/11/108 141/10/108 137/1/108 138/13/108
f 145/1/109 149/2/109 151/3/109 147/4/109
f 148/5/110 147/4/110 151/6/110 152/7/110
f 152/8/111 151/9/111 149/10/111 150/11/111
f 150/12/112 146/13/112 148/5/112 152/14/112
f 146/13/113 145/1/113 147/4/113 148/5/113
f 150/11/114 149/10/114 145/1/114 146/13/114
f 153/1/115 157/2/115 159/3/115 155/4/115
f 156/5/116 155/4/116 159/6/116 160/7/116
f 160/8/117 159/9/117 157/10/117 158/11/117
f 158/12/118 154/13/118 156/5/118 160/14/118
f 154/13/119 153/1/119 155/4/119 156/5/119
f 158/11/120 157/10/120 153/1/120 154/13/120
f 161/1/121 165/2/121 167/3/121 163/4/121
f 164/5/122 163/4/122 167/6/122 168/7/122
f 168/8/123 167/9/123 165/10/123 166/11/123
f 166/12/124 162/13/124 164/5/124 168/14/124
f 162/13/125 161/1/125 163/4/125 164/5/125
f 166/11/126 165/10/126 161/1/126 162/13/126
f 169/1/127 173/2/127 175/3/127 171/4/127
f 172/5/128 171/4/128 175/6/128 176/7/128
f 176/8/129 175/9/129 173/10/129 174/11/129
f 174/12/130 170/13/130 172/5/130 176/14/130
f 170/13/131 169/1/131 171/4/131 172/5/131
f 174/11/132 173/10/132 169/1/132 170/13/132
f 177/1/133 181/2/133 183/3/133 179/4/133
f 180/5/134 179/4/134 183/6/134 184/7/134
f 184/8/135 183/9/135 181/10/135 182/11/135
f 182/12/136 178/13/136 180/5/136 184/14/136
f 178/13/137 177/1/137 179/4/137 180/5/137
f 182/11/138 181/10/138 177/1/138 178/13/138
f 185/1/139 189/2/139 191/3/139 187/4/139
f 188/5/140 187/4/140 191/6/140 192/7/140
f 192/8/141 191/9/141 189/10/141 190/11/141
f 190/12/142 186/13/142 188/5/142 192/14/142
f 186/13/143 185/1/143 187/4/143 188/5/143
f 190/11/144 189/10/144 185/1/144 186/13/144
f 193/1/145 197/2/145 199/3/145 195/4/145
f 196/5/146 195/4/146 199/6/146 200/7/146
f 200/8/147 199/9/147 197/10/147 198/11/147
f 198/12/148 194/13/148 196/5/148 200/14/148
f 194/13/149 193/1/149 195/4/149 196/5/149
f 198/11/150 197/10/150 193/1/150 194/13/150
f 201/1/151 205/2/151 207/3/151 203/4/151
f 204/5/152 203/4/152 207/6/152 208/7/152
f 208/8/153 207/9/153 205/10/153 206/11/153
f 206/12/154 202/13/154 204/5/154 208/14/154
f 202/13/155 201/1/155 203/4/155 204/5/155
f 206/11/156 205/10/156 201/1/156 202/13/156
f 209/1/157 213/2/157 215/3/157 211/4/157
f 212/5/158 211/4/158 215/6/158 216/7/158
f 216/8/159 215/9/159 213/10/159 214/11/159
f 214/12/160 210/13/160 212/5/160 216/14/160
f 210/13/161 209/1/161 211/4/161 212/5/161
f 214/11/162 213/10/162 209/1/162 210/13/162
f 217/1/163 221/2/163 223/3/163 219/4/163
f 220/5/164 219/4/164 223/6/164 224/7/164
f 224/8/165 223/9/165 221/10/165 222/11/165
f 222/12/166 218/13/166 220/5/166 224/14/166
f 218/13/167 217/1/167 219/4/167 220/5/167
f 222/11/168 221/10/168 217/1/168 218/13/168
f 225/1/169 229/2/169 231/3/169 227/4/169
f 228/5/170 227/4/170 231/6/170 232/7/170
f 232/8/171 231/9/171 229/10/171 230/11/171
f 230/12/172 226/13/172 228/5/172 232/14/172
f 226/13/173 225/1/173 227/4/173 228/5/173
f 230/11/174 229/10/174 225/1/174 226/13/174
f 233/1/175 237/2/175 239/3/175 235/4/175
f 236/5/176 235/4/176 239/6/176 240/7/176
f 240/8/177 239/9/177 237/10/177 238/11/177
f 238/12/178 234/13/178 236/5/178 240/14/178
f 234/13/179 233/1/179 235/4/179 236/5/179
f 238/11/180 237/10/180 233/1/180 234/13/180
f 241/1/181 245/2/181 247/3/181 243/4/181
f 244/5/182 243/4/182 247/6/182 248/7/182
f 248/8/183 247/9/183 245/10/183 246/11/183
f 246/12/184 242/13/184 244/5/184 248/14/184
f 242/13/185 241/1/185 243/4/185 244/5/185
f 246/11/186 245/10/186 241/1/186 242/13/186
f 249/1/187 253/2/187 255/3/187 251/4/187
f 252/5/188 251/4/188 255/6/188 256/7/188
f 256/8/189 255/9/189 253/10/189 254/11/189
f 254/12/190 250/13/190 252/5/190 256/14/190
f 250/13/191 249/1/191 251/4/191 252/5/191
f 254/11/192 253/10/192 249/1/192 250/13/192
f 257/1/193 261/2/193 263/3/193 259/4/193
f 260/5/194 259/4/194 263/6/194 264/7/194
f 264/8/195 263/9/195 261/10/195 262/11/195
f 262/12/196 258/13/196 260/5/196 264/14/196
f 258/13/197 257/1/197 259/4/197 260/5/197
f 262/11/198 261/10/198 257/1/198 258/13/198
f 265/1/199 269/2/199 271/3/199 267/4/199
f 268/5/200 267/4/200 271/6/200 272/7/200
f 272/8/201 271/9/201 269/10/201 270/11/201
f 270/12/202 266/13/202 268/5/202 272/14/202
f 266/13/203 265/1/203 267/4/203 268/5/203
f 270/11/204 269/10/204 265/1/204 266/13/204
f 273/1/205 277/2/205 279/3/205 275/4/205
f 276/5/206 275/4/206 279/6/206 280/7/206
f 280/8/207 279/9/207 277/10/207 278/11/207
f 278/12/208 274/13/208 276/5/208 280/14/208
f 274/13/209 273/1/209 275/4/209 276/5/209
f 278/11/210 277/10/210 273/1/210 274/13/210
f 281/1/211 285/2/211 287/3/211 283/4/211
f 284/5/212 283/4/212 287/6/212 288/7/212
f 288/8/213 287/9/213 285/10/213 286/11/213
f 286/12/214 282/13/214 284/5/214 288/14/214
f 282/13/215 281/1/215 283/4/215 284/5/215
f 286/11/216 285/10/216 281/1/216 282/13/216
f 289/1/217 293/2/217 295/3/217 291/4/217
f 292/5/218 291/4/218 295/6/218 296/7/218
f 296/8/219 295/9/219 293/10/219 294/11/219
f 294/12/220 290/13/220 292/5/220 296/14/220
f 290/13/221 289/1/221 291/4/221 292/5/221
f 294/11/222 293/10/222 289/1/222 290/13/222
f 297/1/223 301/2/223 303/3/223 299/4/223
f 300/5/224 299/4/224 303/6/224 304/7/224
f 304/8/225 303/9/225 301/10/225 302/11/225
f 302/12/226 298/13/226 300/5/226 304/14/226
f 298/13/227 297/1/227 299/4/227 300/5/227
f 302/11/228 301/10/228 297/1/228 298/13/228
f 305/1/229 309/2/229 311/3/229 307/4/229
f 308/5/230 307/4/230 311/6/230 312/7/230
f 312/8/231 311/9/231 309/10/231 310/11/231
f 310/12/232 306/13/232 308/5/232 312/14/232
f 306/13/233 305/1/233 307/4/233 308/5/233
f 310/11/234 309/10/234 305/1/234 306/13/234
f 313/1/235 317/2/235 319/3/235 315/4/235
f 316/5/236 315/4/236 319/6/236 320/7/236
f 320/8/237 319/9/237 317/10/237 318/11/237
f 318/12/238 314/13/238 316/5/238 320/14/238
f 314/13/239 313/1/239 315/4/239 316/5/239
f 318/11/240 317/10/240 313/1/240 314/13/240
f 321/1/241 325/2/241 327/3/241 323/4/241
f 324/5/242 323/4/242 327/6/242 328/7/242
f 328/8/243 327/9/243 325/10/243 326/11/243
f 326/12/244 322/13/244 324/5/244 328/14/244
f 322/13/245 321/1/245 323/4/245 324/5/245
f 326/11/246 325/10/246 321/1/246 322/13/246
f 329/1/247 333/2/247 335/3/247 331/4/247
f 332/5/248 331/4/248 335/6/248 336/7/248
f 336/8/249 335/9/249 333/10/249 334/11/249
f 334/12/250 330/13/250 332/5/250 336/14/250
f 330/13/251 329/1/251 331/4/251 332/5/251
f 334/11/252 333/10/252 329/1/252 330/13/252
f 337/1/253 341/2/253 343/3/253 339/4/253
f 340/5/254 339/4/254 343/6/254 344/7/254
f 344/8/255 343/9/255 341/10/255 342/11/255
f 342/12/256 338/13/256 340/5/256 344/14/256
f 338/13/257 337/1/257 339/4/257 340/5/257
f 342/11/258 341/10/258 337/1/258 338/13/258
f 345/1/259 349/2/259 351/3/259 347/4/259
f 348/5/260 347/4/260 351/6/260 352/7/260
f 352/8/261 351/9/261 349/10/261 350/11/261
f 350/12/262 346/13/262 348/5/262 352/14/262
f 346/13/263 345/1/263 347/4/263 348/5/263
f 350/11/264 349/10/264 345/1/264 346/13/264
f 353/1/265 357/2/265 359/3/265 355/4/265
f 356/5/266 355/4/266 359/6/266 360/7/266
f 360/8/267 359/9/267 357/10/267 358/11/267
f 358/12/268 354/13/268 356/5/268 360/14/268
f 354/13/269 353/1/269 355/4/269 356/5/269
f 358/11/270 357/10/270 353/1/270 354/13/270
f 361/1/271 365/2/271 367/3/271 363/4/271
f 364/5/272 363/4/272 367/6/272 368/7/272
f 368/8/273 367/9/273 365/10/273 366/11/273
f 366/12/274 362/13/274 364/5/274 368/14/274
f 362/13/275 361/1/275 363/4/275 364/5/275
f 366/11/276 365/10/276 361/1/276 362/13/276
f 369/1/277 373/2/277 375/3/277 371/4/277
f 372/5/278 371/4/278 375/6/278 376/7/278
f 376/8/279 375/9/279 373/10/279 374/11/279
f 374/12/280 370/13/280 372/5/280 376/14/280
f 370/13/281 369/1/281 371/4/281 372/5/281
f 374/11/282 373/10/282 369/1/282 370/13/282
f 377/1/283 381/2/283 383/3/283 379/4/283
f 380/5/284 379/4/284 383/6/284 384/7/284
f 384/8/285 383/9/285 381/10/285 382/11/285
f 382/12/286 378/13/286 380/5/286 384/14/286
f 378/13/287 377/1/287 379/4/287 380/5/287
f 382/11/288 381/10/288 377/1/288 378/13/288
f 385/1/289 389/2/289 391/3/289 387/4/289
f 388/5/290 387/4/290 391/6/290 392/7/290
f 392/8/291 391/9/291 389/10/291 390/11/291
f 390/12/292 386/13/292 388/5/292 392/14/292
f 386/13/293 385/1/293 387/4/293 388/5/293
f 390/11/294 389/10/294 385/1/294 386/13/294
f 393/1/295 397/2/295 399/3/295 395/4/295
f 396/5/296 395/4/296 399/6/296 400/7/296
f 400/8/297 399/9/297 397/10/297 398/11/297
f 398/12/298 394/13/298 396/5/298 400/14/298
f 394/13/299 393/1/299 395/4/299 396/5/299
f 398/11/300 397/10/300 393/1/300 394/13/300
f 401/1/301 405/2/301 407/3/301 403/4/301
f 404/5/302 403/4/302 407/6/302 408/7/302
f 408/8/303 407/9/303 405/10/303 406/11/303
f 406/12/304 402/13/304 404/5/304 408/14/304
f 402/13/305 401/1/305 403/4/305 404/5/305
f 406/11/306 405/10/306 401/1/306 402/13/306
f 409/1/307 413/2/307 415/3/307 411/4/307
f 412/5/308 411/4/308 415/6/308 416/7/308
f 416/8/309 415/9/309 413/10/309 414/11/309
f 414/12/310 410/13/310 412/5/310 416/14/310
f 410/13/311 409/1/311 411/4/311 412/5/311
f 414/11/312 413/10/312 409/1/312 410/13/312
f 417/1/313 421/2/313 423/3/313 419/4/313
f 420/5/314 419/4/314 423/6/314 424/7/314
f 424/8/315 423/9/315 421/10/315 422/11/315
f 422/12/316 418/13/316 420/5/316 424/14/316
f 418/13/317 417/1/317 419/4/317 420/5/317
f 422/11/318 421/10/318 417/1/318 418/13/318
f 425/1/319 429/2/319 431/3/319 427/4/319
f 428/5/320 427/4/320 431/6/320 432/7/320
f 432/8/321 431/9/321 429/10/321 430/11/321
f 430/12/322 426/13/322 428/5/322 432/14/322
f 426/13/323 425/1/323 427/4/323 428/5/323
f 430/11/324 429/10/324 425/1/324 426/13/324
f 433/1/325 437/2/325 439/3/325 435/4/325
f 436/5/326 435/4/326 439/6/326 440/7/326
f 440/8/327 439/9/327 437/10/327 438/11/327
f 438/12/328 434/13/328 436/5/328 440/14/328
f 434/13/329 433/1/329 435/4/329 436/5/329
f 438/11/330 437/10/330 433/1/330 434/13/330
f 441/1/331 445/2/331 447/3/331 443/4/331
f 444/5/332 443/4/332 447/6/332 448/7/332
f 448/8/333 447/9/333 445/10/333 446/11/333
f 446/12/334 442/13/334 444/5/334 448/14/334
f 442/13/335 441/1/335 443/4/335 444/5/335
f 446/11/336 445/10/336 441/1/336 442/13/336
f 449/1/337 453/2/337 455/3/337 451/4/337
f 452/5/338 451/4/338 455/6/338 456/7/338
f 456/8/339 455/9/339 453/10/339 454/11/339
f 454/12/340 450/13/340 452/5/340 456/14/340
f 450/13/341 449/1/341 451/4/341 452/5/341
f 454/11/342 453/10/342 449/1/342 450/13/342
f 457/1/343 461/2/343 463/3/343 459/4/343
f 460/5/344 459/4/344 463/6/344 464/7/344
f 464/8/345 463/9/345 461/10/345 462/11/345
f 462/12/346 458/13/346 460/5/346 464/14/346
f 458/13/347 457/1/347 459/4/347 460/5/347
f 462/11/348 461/10/348 457/1/348 458/13/348
f 465/1/349 469/2/349 471/3/349 467/4/349
f 468/5/350 467/4/350 471/6/350 472/7/350
f 472/8/351 471/9/351 469/10/351 470/11/351
f 470/12/352 466/13/352 468/5/352 472/14/352
f 466/13/353 465/1/353 467/4/353 468/5/353
f 470/11/354 469/10/354 465/1/354 466/13/354
f 473/1/355 477/2/355 479/3/355 475/4/355
f 476/5/356 475/4/356 479/6/356 480/7/356
f 480/8/357 479/9/357 477/10/357 478/11/357
f 478/12/358 474/13/358 476/5/358 480/14/358
f 474/13/359 473/1/359 475/4/359 476/5/359
f 478/11/360 477/10/360 473/1/360 474/13/360
f 481/1/361 485/2/361 487/3/361 483/4/361
f 484/5/362 483/4/362 487/6/362 488/7/362
f 488/8/363 487/9/363 485/10/363 486/11/363
f 486/12/364 482/13/364 484/5/364 488/14/364
f 482/13/365 481/1/365 483/4/365 484/5/365
f 486/11/366 485/10/366 481/1/366 482/13/366
f 489/1/367 493/2/367 495/3/367 491/4/367
f 492/5/368 491/4/368 495/6/368 496/7/368
f 496/8/369 495/9/369 493/10/369 494/11/369
f 494/12/370 490/13/370 492/5/370 496/14/370
f 490/13/371 489/1/371 491/4/371 492/5/371
f 494/11/372 493/10/372 489/1/372 490/13/372
f 497/1/373 501/2/373 503/3/373 499/4/373
f 500/5/374 499/4/374 503/6/374 504/7/374
f 504/8/375 503/9/375 501/10/375 502/11/375
f 502/12/376 498/13/376 500/5/376 504/14/376
f 498/13/377 497/1/377 499/4/377 500/5/377
f 502/11/378 501/10/378 497/1/378 498/13/378
f 505/1/379 509/2/379 511/3/379 507/4/379
f 508/5/380 507/4/380 511/6/380 512/7/380
f 512/8/381 511/9/381 509/10/381 510/11/381
f 510/12/382 506/13/382 508/5/382 512/14/382
f 506/13/383 505/1/383 507/4/383 508/5/383
f 510/11/384 509/10/384 505/1/384 506/13/384
f 513/1/385 517/2/385 519/3/385 515/4/385
f 516/5/386 515/4/386 519/6/386 520/7/386
f 520/8/387 519/9/387 517/10/387 518/11/387
f 518/12/388 514/13/388 516/5/388 520/14/388
f 514/13/389 513/1/389 515/4/389 516/5/389
f 518/11/390 517/10/390 513/1/390 514/13/390
f 521/1/391 525/2/391 527/3/391 523/4/391
f 524/5/392 523/4/392 527/6/392 528/7/392
f 528/8/393 527/9/393 525/10/393 526/11/393
f 526/12/394 522/13/394 524/5/394 528/14/394
f 522/13/395 521/1/395 523/4/395 524/5/395
f 526/11/396 525/10/396 521/1/396 522/13/396
f 529/1/397 533/2/397 535/3/397 531/4/397
f 532/5/398 531/4/398 535/6/398 536/7/398
f 536/8/399 535/9/399 533/10/399 534/11/399
f 534/12/400 530/13/400 532/5/400 536/14/400
f 530/13/401 529/1/401 531/4/401 532/5/401
f 534/11/402 533/10/402 529/1/402 530/13/402
f 537/1/403 541/2/403 543/3/403 539/4/403
f 540/5/404 539/4/404 543/6/404 544/7/404
f 544/8/405 543/9/405 541/10/405 542/11/405
f 542/12/406 538/13/406 540/5/406 544/14/406
f 538/13/407 537/1/407 539/4/407 540/5/407
f 542/11/408 541/10/408 537/1/408 538/13/408
f 545/1/409 549/2/409 551/3/409 547/4/409
f 548/5/410 547/4/410 551/6/410 552/7/410
f 552/8/411 551/9/411 549/10/411 550/11/411
f 550/12/412 546/13/412 548/5/412 552/14/412
f 546/13/413 545/1/413 547/4/413 548/5/413
f 550/11/414 549/10/414 545/1/414 546/13/414
f 553/1/415 557/2/415 559/3/415 555/4/415
f 556/5/416 555/4/416 559/6/416 560/7/416
f 560/8/417 559/9/417 557/10/417 558/11/417
f 558/12/418 554/13/418 556/5/418 560/14/418
f 554/13/419 553/1/419 555/4/419 556/5/419
f 558/11/420 557/10/420 553/1/420 554/13/420
f 561/1/421 565/2/421 567/3/421 563/4/421
f 564/5/422 563/4/422 567/6/422 568/7/422
f 568/8/423 567/9/423 565/10/423 566/11/423
f 566/12/424 562/13/424 564/5/424 568/14/424
f 562/13/425 561/1/425 563/4/425 564/5/425
f 566/11/426 565/10/426 561/1/426 562/13/426
f 569/1/427 573/2/427 575/3/427 571/4/427
f 572/5/428 571/4/428 575/6/428 576/7/428
f 576/8/429 575/9/429 573/10/429 574/11/429
f 574/12/430 570/13/430 572/5/430 576/14/430
f 570/13/431 569/1/431 571/4/431 572/5/431
f 574/11/432 573/10/432 569/1/432 570/13/432
f 577/1/433 581/2/433 583/3/433 579/4/433
f 580/5/434 579/4/434 583/6/434 584/7/434
f 584/8/435 583/9/435 581/10/435 582/11/435
f 582/12/436 578/13/436 580/5/436 584/14/436
f 578/13/437 577/1/437 579/4/437 580/5/437
f 582/11/438 581/10/438 577/1/438 578/13/438
f 585/1/439 589/2/439 591/3/439 587/4/439
f 588/5/440 587/4/440 591/6/440 592/7/440
f 592/8/441 591/9/441 589/10/441 590/11/441
f 590/12/442 586/13/442 588/5/442 592/14/442
f 586/13/443 585/1/443 587/4/443 588/5/443
f 590/11/444 589/10/444 585/1/444 586/13/444
f 593/1/445 597/2/445 599/3/445 595/4/445
f 596/5/446 595/4/446 599/6/446 600/7/446
f 600/8/447 599/9/447 597/10/447 598/11/447
f 598/12/448 594/13/448 596/5/448 600/14/448
f 594/13/449 593/1/449 595/4/449 596/5/449
f 598/11/450 597/10/450 593/1/450 594/13/450
f 601/1/451 605/2/451 607/3/451 603/4/451
f 604/5/452 603/4/452 607/6/452 608/7/452
f 608/8/453 607/9/453 605/10/453 606/11/453
f 606/12/454 602/13/454 604/5/454 608/14/454
f 602/13/455 601/1/455 603/4/455 604/5/455
f 606/11/456 605/10/456 601/1/456 602/13/456
f 609/1/457 613/2/457 615/3/457 611/4/457
f 612/5/458 611/4/458 615/6/458 616/7/458
f 616/8/459 615/9/459 613/10/459 614/11/459
f 614/12/460 610/13/460 612/5/460 616/14/460
f 610/13/461 609/1/461 611/4/461 612/5/461
f 614/11/462 613/10/462 609/1/462 610/13/462
f 617/1/463 621/2/463 623/3/463 619/4/463
f 620/5/464 619/4/464 623/6/464 624/7/464
f 624/8/465 623/9/465 621/10/465 622/11/465
f 622/12/466 618/13/466 620/5/466 624/14/466
f 618/13/467 617/1/467 619/4/467 620/5/467
f 622/11/468 621/10/468 617/1/468 618/13/468
f 625/1/469 629/2/469 631/3/469 627/4/469
f 628/5/470 627/4/470 631/6/470 632/7/470
f 632/8/471 631/9/471 629/10/471 630/11/471
f 630/12/472 626/13/472 628/5/472 632/14/472
f 626/13/473 625/1/473 627/4/473 628/5/473
f 630/11/474 629/10/474 625/1/474 626/13/474
f 633/1/475 637/2/475 639/3/475 635/4/475
f 636/5/476 635/4/476 639/6/476 640/7/476
f 640/8/477 639/9/477 637/10/477 638/11/477
f 638/12/478 634/13/478 636/5/478 640/14/478
f 634/13/479 633/1/479 635/4/479 636/5/479
f 638/11/480 637/10/480 633/1/480 634/13/480
f 641/1/481 645/2/481 647/3/481 643/4/481
f 644/5/482 643/4/482 647/6/482 648/7/482
f 648/8/483 647/9/483 645/10/483 646/11/483
f 646/12/484 642/13/484 644/5/484 648/14/484
f 642/13/485 641/1/485 643/4/485 644/5/485
f 646/11/486 645/10/486 641/1/486 642/13/486
f 649/1/487 653/2/487 655/3/487 651/4/487
f 652/5/488 651/4/488 655/6/488 656/7/488
f 656/8/489 655/9/489 653/10/489 654/11/489
f 654/12/490 650/13/490 652/5/490 656/14/490
f 650/13/491 649/1/491 651/4/491 652/5/491
f 654/11/492 653/10/492 649/1/492 650/13/492
f 657/1/493 661/2/493 663/3/493 659/4/493
f 660/5/494 659/4/494 663/6/494 664/7/494
f 664/8/495 663/9/495 661/10/495 662/11/495
f 662/12/496 658/13/496 660/5/496 664/14/496
f 658/13/497 657/1/497 659/4/497 660/5/497
f 662/11/498 661/10/498 657/1/498 658/13/498
f 665/1/499 669/2/499 671/3/499 667/4/499
f 668/5/500 667/4/500 671/6/500 672/7/500
f 672/8/501 671/9/501 669/10/501 670/11/501
f 670/12/502 666/13/502 668/5/502 672/14/502
f 666/13/503 665/1/503 667/4/503 668/5/503
f 670/11/504 669/10/504 665/1/504 666/13/504
f 673/1/505 677/2/505 679/3/505 675/4/505
f 676/5/506 675/4/506 679/6/506 680/7/506
f 680/8/507 679/9/507 677/10/507 678/11/507
f 678/12/508 674/13/508 676/5/508 680/14/508
f 674/13/509 673/1/509 675/4/509 676/5/509
f 678/11/510 677/10/510 673/1/510 674/13/510
f 681/1/511 685/2/511 687/3/511 683/4/511
f 684/5/512 683/4/512 687/6/512 688/7/512
f 688/8/513 687/9/513 685/10/513 686/11/513
f 686/12/514 682/13/514 684/5/514 688/14/514
f 682/13/515 681/1/515 683/4/515 684/5/515
f 686/11/516 685/10/516 681/1/516 682/13/516
f 689/1/517 693/2/517 695/3/517 691/4/517
f 692/5/518 691/4/518 695/6/518 696/7/518
f 696/8/519 695/9/519 693/10/519 694/11/519
f 694/12/520 690/13/520 692/5/520 696/14/520
f 690/13/521 689/1/521 691/4/521 692/5/521
f 694/11/522 693/10/522 689/1/522 690/13/522
f 697/1/523 701/2/523 703/3/523 699/4/523
f 700/5/524 699/4/524 703/6/524 704/7/524
f 704/8/525 703/9/525 701/10/525 702/11/525
f 702/12/526 698/13/526 700/5/526 704/14/526
f 698/13/527 697/1/527 699/4/527 700/5/527
f 702/11/528 701/10/528 697/1/528 698/13/528
f 705/1/529 709/2/529 711/3/529 707/4/529
f 708/5/530 707/4/530 711/6/530 712/7/530
f 712/8/531 711/9/531 709/10/531 710/11/531
f 710/12/532 706/13/532 708/5/532 712/14/532
f 706/13/533 705/1/533 707/4/533 708/5/533
f 710/11/534 709/10/534 705/1/534 706/13/534
f 713/1/535 717/2/535 719/3/535 715/4/535
f 716/5/536 715/4/536 719/6/536 720/7/536
f 720/8/537 719/9/537 717/10/537 718/11/537
f 718/12/538 714/13/538 716/5/538 720/14/538
f 714/13/539 713/1/539 715/4/539 716/5/539
f 718/11/540 717/10/540 713/1/540 714/13/540
f 721/1/541 725/2/541 727/3/541 723/4/541
f 724/5/542 723/4/542 727/6/542 728/7/542
f 728/8/543 727/9/543 725/10/543 726/11/543
f 726/12/544 722/13/544 724/5/544 728/14/544
f 722/13/545 721/1/545 723/4/545 724/5/545
f 726/11/546 725/10/546 721/1/546 722/13/546
f 729/1/547 733/2/547 735/3/547 731/4/547
f 732/5/548 731/4/548 735/6/548 736/7/548
f 736/8/549 735/9/549 733/10/549 734/11/549
f 734/12/550 730/13/550 732/5/550 736/14/550
f 730/13/551 729/1/551 731/4/551 732/5/551
f 734/11/552 733/10/552 729/1/552 730/13/552
f 737/1/553 741/2/553 743/3/553 739/4/553
f 740/5/554 739/4/554 743/6/554 744/7/554
f 744/8/555 743/9/555 741/10/555 742/11/555
f 742/12/556 738/13/556 740/5/556 744/14/556
f 738/13/557 737/1/557 739/4/557 740/5/557
f 742/11/558 741/10/558 737/1/558 738/13/558
f 745/1/559 749/2/559 751/3/559 747/4/559
f 748/5/560 747/4/560 751/6/560 752/7/560
f 752/8/561 751/9/561 749/10/561 750/11/561
f 750/12/562 746/13/562 748/5/562 752/14/562
f 746/13/563 745/1/563 747/4/563 748/5/563
f 750/11/564 749/10/564 745/1/564 746/13/564
f 753/1/565 757/2/565 759/3/565 755/4/565
f 756/5/566 755/4/566 759/6/566 760/7/566
f 760/8/567 759/9/567 757/10/567 758/11/567
f 758/12/568 754/13/568 756/5/568 760/14/568
f 754/13/569 753/1/569 755/4/569 756/5/569
f 758/11/570 757/10/570 753/1/570 754/13/570
f 761/1/571 765/2/571 767/3/571 763/4/571
f 764/5/572 763/4/572 767/6/572 768/7/572
f 768/8/573 767/9/573 765/10/573 766/11/573
f 766/12/574 762/13/574 764/5/574 768/14/574
f 762/13/575 761/1/575 763/4/575 764/5/575
f 766/11/576 765/10/576 761/1/576 762/13/576
f 769/1/577 773/2/577 775/3/577 771/4/577
f 772/5/578 771/4/578 775/6/578 776/7/578
f 776/8/579 775/9/579 773/10/579 774/11/579
f 774/12/580 770/13/580 772/5/580 776/14/580
f 770/13/581 769/1/581 771/4/581 772/5/581
f 774/11/582 773/10/582 769/1/582 770/13/582
f 777/1/583 781/2/583 783/3/583 779/4/583
f 780/5/584 779/4/584 783/6/584 784/7/584
f 784/8/585 783/9/585 781/10/585 782/11/585
f 782/12/586 778/13/586 780/5/586 784/14/586
f 778/13/587 777/1/587 779/4/587 780/5/587
f 782/11/588 781/10/588 777/1/588 778/13/588
f 785/1/589 789/2/589 791/3/589 787/4/589
f 788/5/590 787/4/590 791/6/590 792/7/590
f 792/8/591 791/9/591 789/10/591 790/11/591
f 790/12/592 786/13/592 788/5/592 792/14/592
f 786/13/593 785/1/593 787/4/593 788/5/593
f 790/11/594 789/10/594 785/1/594 786/13/594
f 793/1/595 797/2/595 799/3/595 795/4/595
f 796/5/596 795/4/596 799/6/596 800/7/596
f 800/8/597 799/9/597 797/10/597 798/11/597
f 798/12/598 794/13/598 796/5/598 800/14/598
f 794/13/599 793/1/599 795/4/599 796/5/599
f 798/11/600 797/10/600 793/1/600 794/13/600
f 801/1/601 805/2/601 807/3/601 803/4/601
f 804/5/602 803/4/602 807/6/602 808/7/602
f 808/8/603 807/9/603 805/10/603 806/11/603
f 806/12/604 802/13/604 804/5/604 808/14/604
f 802/13/605 801/1/605 803/4/605 804/5/605
f 806/11/606 805/10/606 801/1/606 802/13/606
f 809/1/607 813/2/607 815/3/607 811/4/607
f 812/5/608 811/4/608 815/6/608 816/7/608
f 816/8/609 815/9/609 813/10/609 814/11/609
f 814/12/610 810/13/610 812/5/610 816/14/610
f 810/13/611 809/1/611 811/4/611 812/5/611
f 814/11/612 813/10/612 809/1/612 810/13/612
f 817/1/613 821/2/613 823/3/613 819/4/613
f 820/5/614 819/4/614 823/6/614 824/7/614
f 824/8/615 823/9/615 821/10/615 822/11/615
f 822/12/616 818/13/616 820/5/616 824/14/616
f 818/13/617 817/1/617 819/4/617 820/5/617
f 822/11/618 821/10/618 817/1/618 818/13/618
f 825/1/619 829/2/619 831/3/619 827/4/619
f 828/5/620 827/4/620 831/6/620 832/7/620
f 832/8/621 831/9/621 829/10/621 830/11/621
f 830/12/622 826/13/622 828/5/622 832/14/622
f 826/13/623 825/1/623 827/4/623 828/5/623
f 830/11/624 829/10/624 825/1/624 826/13/624
f 833/1/625 837/2/625 839/3/625 835/4/625
f 836/5/626 835/4/626 839/6/626 840/7/626
f 840/8/627 839/9/627 837/10/627 838/11/627
f 838/12/628 834/13/628 836/5/628 840/14/628
f 834/13/629 833/1/629 835/4/629 836/5/629
f 838/11/630 837/10/630 833/1/630 834/13/630
f 841/1/631 845/2/631 847/3/631 843/4/631
f 844/5/632 843/4/632 847/6/632 848/7/632
f 848/8/633 847/9/633 845/10/633 846/11/633
f 846/12/634 842/13/634 844/5/634 848/14/634
f 842/13/635 841/1/635 843/4/635 844/5/635
f 846/11/636 845/10/636 841/1/636 842/13/636
f 849/1/637 853/2/637 855/3/637 851/4/637
f 852/5/638 851/4/638 855/6/638 856/7/638
f 856/8/639 855/9/639 853/10/639 854/11/639
f 854/12/640 850/13/640 852/5/640 856/14/640
f 850/13/641 849/1/641 851/4/641 852/5/641
f 854/11/642 853/10/642 849/1/642 850/13/642
f 857/1/643 861/2/643 863/3/643 859/4/643
f 860/5/644 859/4/644 863/6/644 864/7/644
f 864/8/645 863/9/645 861/10/645 862/11/645
f 862/12/646 858/13/646 860/5/646 864/14/646
f 858/13/647 857/1/647 859/4/647 860/5/647
f 862/11/648 861/10/648 857/1/648 858/13/648
f 865/1/649 869/2/649 871/3/649 867/4/649
f 868/5/650 867/4/650 871/6/650 872/7/650
f 872/8/651 871/9/651 869/10/651 870/11/651
f 870/12/652 866/13/652 868/5/652 872/14/652
f 866/13/653 865/1/653 867/4/653 868/5/653
f 870/11/654 869/10/654 865/1/654 866/13/654
f 873/1/655 877/2/655 879/3/655 875/4/655
f 876/5/656 875/4/656 879/6/656 880/7/656
f 880/8/657 879/9/657 877/10/657 878/11/657
f 878/12/658 874/13/658 876/5/658 880/14/658
f 874/13/659 873/1/659 875/4/659 876/5/659
f 878/11/660 877/10/660 873/1/660 874/13/660
f 881/1/661 885/2/661 887/3/661 883/4/661
f 884/5/662 883/4/662 887/6/662 888/7/662
f 888/8/663 887/9/663 885/10/663 886/11/663
f 886/12/664 882/13/664 884/5/664 888/14/664
f 882/13/665 881/1/665 883/4/665 884/5/665
f 886/11/666 885/10/666 881/1/666 882/13/666
f 889/1/667 893/2/667 895/3/667 891/4/667
f 892/5/668 891/4/668 895/6/668 896/7/668
f 896/8/669 895/9/669 893/10/669 894/11/669
f 894/12/670 890/13/670 892/5/670 896/14/670
f 890/13/671 889/1/671 891/4/671 892/5/671
f 894/11/672 893/10/672 889/1/672 890/13/672
f 897/1/673 901/2/673 903/3/673 899/4/673
f 900/5/674 899/4/674 903/6/674 904/7/674
f 904/8/675 903/9/675 901/10/675 902/11/675
f 902/12/676 898/13/676 900/5/676 904/14/676
f 898/13/677 897/1/677 899/4/677 900/5/677
f 902/11/678 901/10/678 897/1/678 898/13/678
f 905/1/679 909/2/679 911/3/679 907/4/679
f 908/5/680 907/4/680 911/6/680 912/7/680
f 912/8/681 911/9/681 909/10/681 910/11/681
f 910/12/682 906/13/682 908/5/682 912/14/682
f 906/13/683 905/1/683 907/4/683 908/5/683
f 910/11/684 909/10/684 905/1/684 906/13/684
f 913/1/685 917/2/685 919/3/685 915/4/685
f 916/5/686 915/4/686 919/6/686 920/7/686
f 920/8/687 919/9/687 917/10/687 918/11/687
f 918/12/688 914/13/688 916/5/688 920/14/688
f 914/13/689 913/1/689 915/4/689 916/5/689
f 918/11/690 917/10/690 913/1/690 914/13/690
f 921/1/691 925/2/691 927/3/691 923/4/691
f 924/5/692 923/4/692 927/6/692 928/7/692
f 928/8/693 927/9/693 925/10/693 926/11/693
f 926/12/694 922/13/694 924/5/694 928/14/694
f 922/13/695 921/1/695 923/4/695 924/5/695
f 926/11/696 925/10/696 921/1/696 922/13/696
f 929/1/697 933/2/697 935/3/697 931/4/697
f 932/5/698 931/4/698 935/6/698 936/7/698
f 936/8/699 935/9/699 933/10/699 934/11/699
f 934/12/700 930/13/700 932/5/700 936/14/700
f 930/13/701 929/1/701 931/4/701 932/5/701
f 934/11/702 933/10/702 929/1/702 930/13/702
f 937/1/703 941/2/703 943/3/703 939/4/703
f 940/5/704 939/4/704 943/6/704 944/7/704
f 944/8/705 943/9/705 941/10/705 942/11/705
f 942/12/706 938/13/706 940/5/706 944/14/706
f 938/13/707 937/1/707 939/4/707 940/5/707
f 942/11/708 941/10/708 937/1/708 938/13/708
f 945/1/709 949/2/709 951/3/709 947/4/709
f 948/5/710 947/4/710 951/6/710 952/7/710
f 952/8/711 951/9/711 949/10/711 950/11/711
f 950/12/712 946/13/712 948/5/712 952/14/712
f 946/13/713 945/1/713 947/4/713 948/5/713
f 950/11/714 949/10/714 945/1/714 946/13/714
f 953/1/715 957/2/715 959/3/715 955/4/715
f 956/5/716 955/4/716 959/6/716 960/7/716
f 960/8/717 959/9/717 957/10/717 958/11/717
f 958/12/718 954/13/718 956/5/718 960/14/718
f 954/13/719 953/1/719 955/4/719 956/5/719
f 958/11/720 957/10/720 953/1/720 954/13/720
f 961/1/721 965/2/721 967/3/721 963/4/721
f 964/5/722 963/4/722 967/6/722 968/7/722
f 968/8/723 967/9/723 965/10/723 966/11/723
f 966/12/724 962/13/724 964/5/724 968/14/724
f 962/13/725 961/1/725 963/4/725 964/5/725
f 966/11/726 965/10/726 961/1/726 962/13/726
f 969/1/727 973/2/727 975/3/727 971/4/727
f 972/5/728 971/4/728 975/6/728 976/7/728
f 976/8/729 975/9/729 973/10/729 974/11/729
f 974/12/730 970/13/730 972/5/730 976/14/730
f 970/13/731 969/1/731 971/4/731 972/5/731
f 974/11/732 973/10/732 969/1/732 970/13/732
f 977/1/733 981/2/733 983/3/733 979/4/733
f 980/5/734 979/4/734 983/6/734 984/7/734
f 984/8/735 983/9/735 981/10/735 982/11/735
f 982/12/736 978/13/736 980/5/736 984/14/736
f 978/13/737 977/1/737 979/4/737 980/5/737
f 982/11/738 981/10/738 977/1/738 978/13/738
f 985/1/739 989/2/739 991/3/739 987/4/739
f 988/5/740 987/4/740 991/6/740 992/7/740
f 992/8/741 991/9/741 989/10/741 990/11/741
f 990/12/742 986/13/742 988/5/742 992/14/742
f 986/13/743 985/1/743 987/4/743 988/5/743
f 990/11/744 989/10/744 985/1/744 986/13/744
f 993/1/745 997/2/745 999/3/745 995/4/745
f 996/5/746 995/4/746 999/6/746 1000/7/746
f 1000/8/747 999/9/747 997/10/747 998/11/747
f 998/12/748 994/13/748 996/5/748 1000/14/748
f 994/13/749 993/1/749 995/4/749 996/5/749
f 998/11/750 997/10/750 993/1/750 994/13/750
f 1001/1/751 1005/2/751 1007/3/751 1003/4/751
f 1004/5/752 1003/4/752 1007/6/752 1008/7/752
f 1008/8/753 1007/9/753 1005/10/753 1006/11/753
f 1006/12/754 1002/13/754 1004/5/754 1008/14/754
f 1002/13/755 1001/1/755 1003/4/755 1004/5/755
f 1006/11/756 1005/10/756 1001/1/756 1002/13/756
f 1009/1/757 1013/2/757 1015/3/757 1011/4/757
f 1012/5/758 1011/4/758 1015/6/758 1016/7/758
f 1016/8/759 1015/9/759 1013/10/759 1014/11/759
f 1014/12/760 1010/13/760 1012/5/760 1016/14/760
f 1010/13/761 1009/1/761 1011/4/761 1012/5/761
f 1014/11/762 1013/10/762 1009/1/762 1010/13/762
