# Blender 5.2.1 LTS
# www.blender.org
mtllib HighScore.mtl
o テキスト
v 1.080000 -0.000000 -0.140000
v 1.401428 -0.000000 -0.935714
v 1.405794 -0.000000 -0.945082
v 1.410992 -0.000000 -0.953869
v 1.416964 -0.000000 -0.962031
v 1.423651 -0.000000 -0.969524
v 1.430992 -0.000000 -0.976302
v 1.438929 -0.000000 -0.982321
v 1.447401 -0.000000 -0.987537
v 1.456349 -0.000000 -0.991905
v 1.465714 -0.000000 -0.995379
v 1.475437 -0.000000 -0.997917
v 1.485456 -0.000000 -0.999472
v 1.495714 -0.000000 -1.000000
v 2.185714 -0.000000 -1.000000
v 2.203393 -0.000000 -0.998528
v 2.219881 -0.000000 -0.994292
v 2.235000 -0.000000 -0.987567
v 2.248571 -0.000000 -0.978624
v 2.260417 -0.000000 -0.967737
v 2.270357 -0.000000 -0.955179
v 2.278214 -0.000000 -0.941221
v 2.283809 -0.000000 -0.926138
v 2.286964 -0.000000 -0.910201
v 2.287500 -0.000000 -0.893684
v 2.285238 -0.000000 -0.876859
v 2.280000 -0.000000 -0.860000
v 1.958571 -0.000000 -0.064286
v 1.954206 -0.000000 -0.054918
v 1.949008 -0.000000 -0.046131
v 1.943036 -0.000000 -0.037969
v 1.936349 -0.000000 -0.030476
v 1.929008 -0.000000 -0.023698
v 1.921071 -0.000000 -0.017679
v 1.912599 -0.000000 -0.012463
v 1.903651 -0.000000 -0.008095
v 1.894286 -0.000000 -0.004621
v 1.884563 -0.000000 -0.002083
v 1.874544 -0.000000 -0.000528
v 1.864286 0.000000 0.000000
v 1.174286 0.000000 0.000000
v 1.156907 -0.000000 -0.001472
v 1.140615 -0.000000 -0.005708
v 1.125603 -0.000000 -0.012433
v 1.112063 -0.000000 -0.021376
v 1.100191 -0.000000 -0.032263
v 1.090178 -0.000000 -0.044821
v 1.082220 -0.000000 -0.058779
v 1.076508 -0.000000 -0.073862
v 1.073236 -0.000000 -0.089799
v 1.072599 -0.000000 -0.106316
v 1.074789 -0.000000 -0.123141
v 1.401428 -0.000000 -0.147143
v 1.674286 -0.000000 -0.147143
v 1.958571 -0.000000 -0.852857
v 1.685714 -0.000000 -0.852857
v -0.058571 0.000000 0.000000
v 0.001429 -0.000000 -0.147143
v 0.592857 -0.000000 -0.147143
v 0.724286 -0.000000 -0.472857
v 0.234286 -0.000000 -0.472857
v 0.294286 -0.000000 -0.620000
v 0.782857 -0.000000 -0.620000
v 0.877143 -0.000000 -0.852857
v 0.285714 -0.000000 -0.852857
v 0.345714 -0.000000 -1.000000
v 1.104286 -0.000000 -1.000000
v 1.121664 -0.000000 -0.998528
v 1.137956 -0.000000 -0.994292
v 1.152969 -0.000000 -0.987567
v 1.166508 -0.000000 -0.978624
v 1.178380 -0.000000 -0.967737
v 1.188393 -0.000000 -0.955179
v 1.196352 -0.000000 -0.941221
v 1.202064 -0.000000 -0.926138
v 1.205335 -0.000000 -0.910201
v 1.205972 -0.000000 -0.893684
v 1.203782 -0.000000 -0.876859
v 1.198571 -0.000000 -0.860000
v 0.877143 -0.000000 -0.064286
v 0.872778 -0.000000 -0.054918
v 0.867579 -0.000000 -0.046131
v 0.861607 -0.000000 -0.037969
v 0.854921 -0.000000 -0.030476
v 0.847579 -0.000000 -0.023698
v 0.839643 -0.000000 -0.017679
v 0.831171 -0.000000 -0.012463
v 0.822222 -0.000000 -0.008095
v 0.812857 -0.000000 -0.004621
v 0.803135 -0.000000 -0.002083
v 0.793115 -0.000000 -0.000528
v 0.782857 0.000000 0.000000
v 1.080000 0.100000 -0.140000
v 1.401428 0.100000 -0.935714
v 1.405794 0.100000 -0.945082
v 1.410992 0.100000 -0.953869
v 1.416964 0.100000 -0.962031
v 1.423651 0.100000 -0.969524
v 1.430992 0.100000 -0.976302
v 1.438929 0.100000 -0.982321
v 1.447401 0.100000 -0.987537
v 1.456349 0.100000 -0.991905
v 1.465714 0.100000 -0.995379
v 1.475437 0.100000 -0.997917
v 1.485456 0.100000 -0.999472
v 1.495714 0.100000 -1.000000
v 2.185714 0.100000 -1.000000
v 2.203393 0.100000 -0.998528
v 2.219881 0.100000 -0.994292
v 2.235000 0.100000 -0.987567
v 2.248571 0.100000 -0.978624
v 2.260417 0.100000 -0.967737
v 2.270357 0.100000 -0.955179
v 2.278214 0.100000 -0.941221
v 2.283809 0.100000 -0.926138
v 2.286964 0.100000 -0.910201
v 2.287500 0.100000 -0.893684
v 2.285238 0.100000 -0.876859
v 2.280000 0.100000 -0.860000
v 1.958571 0.100000 -0.064286
v 1.954206 0.100000 -0.054918
v 1.949008 0.100000 -0.046131
v 1.943036 0.100000 -0.037969
v 1.936349 0.100000 -0.030476
v 1.929008 0.100000 -0.023698
v 1.921071 0.100000 -0.017679
v 1.912599 0.100000 -0.012463
v 1.903651 0.100000 -0.008095
v 1.894286 0.100000 -0.004621
v 1.884563 0.100000 -0.002083
v 1.874544 0.100000 -0.000528
v 1.864286 0.100000 -0.000000
v 1.174286 0.100000 -0.000000
v 1.156907 0.100000 -0.001472
v 1.140615 0.100000 -0.005708
v 1.125603 0.100000 -0.012433
v 1.112063 0.100000 -0.021376
v 1.100191 0.100000 -0.032263
v 1.090178 0.100000 -0.044821
v 1.082220 0.100000 -0.058779
v 1.076508 0.100000 -0.073862
v 1.073236 0.100000 -0.089799
v 1.072599 0.100000 -0.106316
v 1.074789 0.100000 -0.123141
v 1.401428 0.100000 -0.147143
v 1.674286 0.100000 -0.147143
v 1.958571 0.100000 -0.852857
v 1.685714 0.100000 -0.852857
v -0.058571 0.100000 -0.000000
v 0.001429 0.100000 -0.147143
v 0.592857 0.100000 -0.147143
v 0.724286 0.100000 -0.472857
v 0.234286 0.100000 -0.472857
v 0.294286 0.100000 -0.620000
v 0.782857 0.100000 -0.620000
v 0.877143 0.100000 -0.852857
v 0.285714 0.100000 -0.852857
v 0.345714 0.100000 -1.000000
v 1.104286 0.100000 -1.000000
v 1.121664 0.100000 -0.998528
v 1.137956 0.100000 -0.994292
v 1.152969 0.100000 -0.987567
v 1.166508 0.100000 -0.978624
v 1.178380 0.100000 -0.967737
v 1.188393 0.100000 -0.955179
v 1.196352 0.100000 -0.941221
v 1.202064 0.100000 -0.926138
v 1.205335 0.100000 -0.910201
v 1.205972 0.100000 -0.893684
v 1.203782 0.100000 -0.876859
v 1.198571 0.100000 -0.860000
v 0.877143 0.100000 -0.064286
v 0.872778 0.100000 -0.054918
v 0.867579 0.100000 -0.046131
v 0.861607 0.100000 -0.037969
v 0.854921 0.100000 -0.030476
v 0.847579 0.100000 -0.023698
v 0.839643 0.100000 -0.017679
v 0.831171 0.100000 -0.012463
v 0.822222 0.100000 -0.008095
v 0.812857 0.100000 -0.004621
v 0.803135 0.100000 -0.002083
v 0.793115 0.100000 -0.000528
v 0.782857 0.100000 -0.000000
vn -0.0000 -1.0000 -0.0000
vn -0.0000 1.0000 -0.0000
vn 0.4064 -0.0000 -0.9137
vn -0.0000 -0.0000 1.0000
vn -0.9272 -0.0000 -0.3745
vn 0.4386 -0.0000 0.8987
vn -0.0000 -0.0000 -1.0000
vn 0.7819 -0.0000 -0.6234
vn 0.5243 -0.0000 0.8515
vn 0.6767 -0.0000 -0.7363
vn 0.0514 -0.0000 0.9987
vn -0.0514 -0.0000 -0.9987
vn 0.1534 -0.0000 0.9882
vn 0.6759 -0.0000 -0.7370
vn -0.1534 -0.0000 -0.9882
vn 0.6043 -0.0000 0.7968
vn -0.9916 -0.0000 -0.1291
vn -0.9276 -0.0000 -0.3737
vn 0.2488 -0.0000 -0.9685
vn 0.2526 -0.0000 0.9676
vn -0.9993 -0.0000 0.0385
vn 0.6783 -0.0000 0.7348
vn 0.9276 -0.0000 0.3737
vn 0.3478 -0.0000 0.9376
vn 0.0844 -0.0000 -0.9964
vn -0.4387 -0.0000 -0.8986
vn 0.9911 -0.0000 0.1332
vn 0.5512 -0.0000 -0.8344
vn -0.8687 -0.0000 0.4953
vn 0.9995 -0.0000 -0.0324
vn 0.4387 -0.0000 0.8986
vn 0.9810 -0.0000 -0.1942
vn 0.7461 -0.0000 0.6658
vn -0.3478 -0.0000 -0.9376
vn 0.4088 -0.0000 -0.9126
vn 0.8070 -0.0000 0.5905
vn -0.2526 -0.0000 -0.9676
vn 0.2516 -0.0000 -0.9678
vn -0.9796 -0.0000 0.2011
vn 0.9376 -0.0000 -0.3478
vn 0.5243 -0.0000 0.8516
vn -0.9352 -0.0000 0.3542
vn 0.8606 -0.0000 0.5092
vn -0.9064 -0.0000 -0.4224
vn 0.9993 -0.0000 -0.0385
vn -0.9554 -0.0000 -0.2953
vn 0.6784 -0.0000 0.7347
vn 0.9064 -0.0000 0.4224
vn 0.9916 -0.0000 0.1291
vn -0.4088 -0.0000 0.9126
vn -0.9260 -0.0000 -0.3776
vn 0.9550 -0.0000 0.2967
vn -0.8607 -0.0000 -0.5091
vn -0.2516 -0.0000 0.9678
vn 0.9796 -0.0000 -0.2011
vn -0.8070 -0.0000 -0.5905
vn 0.0830 -0.0000 -0.9966
vn -0.9273 -0.0000 -0.3742
vn 0.8687 -0.0000 -0.4953
vn -0.5511 -0.0000 0.8344
vn -0.7461 -0.0000 -0.6658
vn -0.0844 -0.0000 0.9964
vn 0.8714 -0.0000 -0.4905
vn 0.8607 -0.0000 0.5091
vn 0.9272 -0.0000 0.3745
vn 0.9554 -0.0000 0.2953
vn -0.6784 -0.0000 -0.7347
vn 0.7841 -0.0000 -0.6206
vn 0.9064 -0.0000 0.4223
vn -0.9269 -0.0000 -0.3753
vn 0.9352 -0.0000 -0.3542
vn -0.6759 -0.0000 0.7370
vn -0.6043 -0.0000 -0.7968
vn -0.7819 -0.0000 0.6234
vn 0.5502 -0.0000 -0.8350
vn -0.5243 -0.0000 -0.8516
vt 0.909091 0.000000
vt 0.927273 0.000000
vt 0.890909 0.000000
vt 0.854545 0.000000
vt 0.000000 0.000000
vt 0.836364 0.000000
vt 0.872727 0.000000
vt 0.763636 0.000000
vt 0.781818 0.000000
vt 0.745455 0.000000
vt 0.800000 0.000000
vt 0.727273 0.000000
vt 0.818182 0.000000
vt 0.945455 0.000000
vt 0.218182 0.000000
vt 0.236364 0.000000
vt 0.200000 0.000000
vt 0.163636 0.000000
vt 0.145455 0.000000
vt 0.181818 0.000000
vt 0.036364 0.000000
vt 0.018182 0.000000
vt 0.054545 0.000000
vt 0.072727 0.000000
vt 0.090909 0.000000
vt 0.109091 0.000000
vt 0.127273 0.000000
vt 0.709091 0.000000
vt 0.672727 0.000000
vt 0.690909 0.000000
vt 0.654545 0.000000
vt 0.636364 0.000000
vt 0.618182 0.000000
vt 0.600000 0.000000
vt 0.581818 0.000000
vt 0.563636 0.000000
vt 0.545455 0.000000
vt 0.527273 0.000000
vt 0.509091 0.000000
vt 0.490909 0.000000
vt 0.309091 0.000000
vt 0.327273 0.000000
vt 0.290909 0.000000
vt 0.345455 0.000000
vt 0.272727 0.000000
vt 0.400000 0.000000
vt 0.436364 0.000000
vt 0.454545 0.000000
vt 0.418182 0.000000
vt 0.381818 0.000000
vt 0.254545 0.000000
vt 0.472727 0.000000
vt 0.981818 0.000000
vt 0.363636 0.000000
vt 0.963636 0.000000
vt 1.000000 0.000000
vt 0.057143 0.000000
vt 0.028571 0.000000
vt 0.085714 0.000000
vt 0.114286 0.000000
vt 0.142857 0.000000
vt 0.971429 0.000000
vt 0.942857 0.000000
vt 0.914286 0.000000
vt 0.885714 0.000000
vt 0.857143 0.000000
vt 0.828571 0.000000
vt 0.771429 0.000000
vt 0.171429 0.000000
vt 0.342857 0.000000
vt 0.371429 0.000000
vt 0.314286 0.000000
vt 0.542857 0.000000
vt 0.571429 0.000000
vt 0.514286 0.000000
vt 0.485714 0.000000
vt 0.628571 0.000000
vt 0.457143 0.000000
vt 0.285714 0.000000
vt 0.428571 0.000000
vt 0.742857 0.000000
vt 0.714286 0.000000
vt 0.685714 0.000000
vt 0.657143 0.000000
vt 0.257143 0.000000
vt 0.228571 0.000000
s 1
usemtl Material
f 51/1/1 52/2/1 50/3/1
f 48/4/1 1/5/1 47/6/1
f 52/2/1 49/7/1 50/3/1
f 49/7/1 52/2/1 48/4/1
f 48/4/1 52/2/1 1/5/1
f 43/8/1 44/9/1 42/10/1
f 45/11/1 42/10/1 44/9/1
f 42/10/1 45/11/1 41/12/1
f 46/13/1 41/12/1 45/11/1
f 46/13/1 47/6/1 41/12/1
f 1/5/1 41/12/1 47/6/1
f 41/12/1 1/5/1 53/14/1
f 13/15/1 14/16/1 12/17/1
f 10/18/1 14/16/1 9/19/1
f 11/20/1 14/16/1 10/18/1
f 14/16/1 11/20/1 12/17/1
f 3/21/1 14/16/1 2/22/1
f 4/23/1 14/16/1 3/21/1
f 5/24/1 14/16/1 4/23/1
f 6/25/1 14/16/1 5/24/1
f 7/26/1 14/16/1 6/25/1
f 8/27/1 14/16/1 7/26/1
f 14/16/1 8/27/1 9/19/1
f 1/5/1 2/22/1 53/14/1
f 40/28/1 38/29/1 39/30/1
f 38/29/1 40/28/1 37/31/1
f 37/31/1 40/28/1 36/32/1
f 36/32/1 40/28/1 35/33/1
f 40/28/1 34/34/1 35/33/1
f 34/34/1 40/28/1 33/35/1
f 33/35/1 40/28/1 32/36/1
f 32/36/1 40/28/1 31/37/1
f 31/37/1 40/28/1 30/38/1
f 30/38/1 40/28/1 29/39/1
f 29/39/1 40/28/1 28/40/1
f 18/41/1 19/42/1 17/43/1
f 20/44/1 16/45/1 19/42/1
f 19/42/1 16/45/1 17/43/1
f 23/46/1 25/47/1 26/48/1
f 25/47/1 23/46/1 24/49/1
f 26/48/1 22/50/1 23/46/1
f 15/51/1 27/52/1 55/53/1
f 27/52/1 15/51/1 26/48/1
f 16/45/1 26/48/1 15/51/1
f 26/48/1 16/45/1 22/50/1
f 22/50/1 16/45/1 21/54/1
f 20/44/1 21/54/1 16/45/1
f 27/52/1 28/40/1 55/53/1
f 53/14/1 40/28/1 41/12/1
f 54/55/1 40/28/1 53/14/1
f 40/28/1 54/55/1 28/40/1
f 28/40/1 54/55/1 55/53/1
f 2/22/1 56/56/1 53/14/1
f 14/16/1 56/56/1 2/22/1
f 56/56/1 14/16/1 55/53/1
f 55/53/1 14/16/1 15/51/1
f 92/56/1 57/5/1 59/57/1
f 58/58/1 59/57/1 57/5/1
f 60/59/1 61/60/1 62/61/1
f 91/62/1 92/56/1 90/63/1
f 90/63/1 92/56/1 89/64/1
f 89/64/1 92/56/1 88/65/1
f 88/65/1 92/56/1 87/66/1
f 87/66/1 92/56/1 86/67/1
f 86/67/1 92/56/1 85/11/1
f 85/11/1 92/56/1 84/68/1
f 62/61/1 63/69/1 60/59/1
f 69/70/1 70/71/1 68/72/1
f 76/73/1 77/74/1 78/34/1
f 78/34/1 75/75/1 76/73/1
f 74/76/1 79/77/1 73/78/1
f 79/77/1 74/76/1 78/34/1
f 78/34/1 74/76/1 75/75/1
f 67/79/1 79/77/1 64/17/1
f 79/77/1 67/79/1 73/78/1
f 73/78/1 67/79/1 72/80/1
f 72/80/1 67/79/1 71/46/1
f 68/72/1 71/46/1 67/79/1
f 70/71/1 71/46/1 68/72/1
f 92/56/1 83/81/1 84/68/1
f 83/81/1 92/56/1 82/82/1
f 82/82/1 92/56/1 81/83/1
f 81/83/1 92/56/1 80/84/1
f 59/57/1 80/84/1 92/56/1
f 60/59/1 80/84/1 59/57/1
f 63/69/1 80/84/1 60/59/1
f 80/84/1 63/69/1 79/77/1
f 79/77/1 63/69/1 64/17/1
f 66/85/1 64/17/1 65/86/1
f 64/17/1 66/85/1 67/79/1
f 143/1/2 142/3/2 144/2/2
f 140/4/2 139/6/2 93/5/2
f 144/2/2 142/3/2 141/7/2
f 141/7/2 140/4/2 144/2/2
f 140/4/2 93/5/2 144/2/2
f 135/8/2 134/10/2 136/9/2
f 137/11/2 136/9/2 134/10/2
f 134/10/2 133/12/2 137/11/2
f 138/13/2 137/11/2 133/12/2
f 138/13/2 133/12/2 139/6/2
f 93/5/2 139/6/2 133/12/2
f 133/12/2 145/14/2 93/5/2
f 105/15/2 104/17/2 106/16/2
f 102/18/2 101/19/2 106/16/2
f 103/20/2 102/18/2 106/16/2
f 106/16/2 104/17/2 103/20/2
f 95/21/2 94/22/2 106/16/2
f 96/23/2 95/21/2 106/16/2
f 97/24/2 96/23/2 106/16/2
f 98/25/2 97/24/2 106/16/2
f 99/26/2 98/25/2 106/16/2
f 100/27/2 99/26/2 106/16/2
f 106/16/2 101/19/2 100/27/2
f 93/5/2 145/14/2 94/22/2
f 132/28/2 131/30/2 130/29/2
f 130/29/2 129/31/2 132/28/2
f 129/31/2 128/32/2 132/28/2
f 128/32/2 127/33/2 132/28/2
f 132/28/2 127/33/2 126/34/2
f 126/34/2 125/35/2 132/28/2
f 125/35/2 124/36/2 132/28/2
f 124/36/2 123/37/2 132/28/2
f 123/37/2 122/38/2 132/28/2
f 122/38/2 121/39/2 132/28/2
f 121/39/2 120/40/2 132/28/2
f 110/41/2 109/43/2 111/42/2
f 112/44/2 111/42/2 108/45/2
f 111/42/2 109/43/2 108/45/2
f 115/46/2 118/48/2 117/47/2
f 117/47/2 116/49/2 115/46/2
f 118/48/2 115/46/2 114/50/2
f 107/51/2 147/53/2 119/52/2
f 119/52/2 118/48/2 107/51/2
f 108/45/2 107/51/2 118/48/2
f 118/48/2 114/50/2 108/45/2
f 114/50/2 113/54/2 108/45/2
f 112/44/2 108/45/2 113/54/2
f 119/52/2 147/53/2 120/40/2
f 145/14/2 133/12/2 132/28/2
f 146/55/2 145/14/2 132/28/2
f 132/28/2 120/40/2 146/55/2
f 120/40/2 147/53/2 146/55/2
f 94/22/2 145/14/2 148/56/2
f 106/16/2 94/22/2 148/56/2
f 148/56/2 147/53/2 106/16/2
f 147/53/2 107/51/2 106/16/2
f 184/56/2 151/57/2 149/5/2
f 150/58/2 149/5/2 151/57/2
f 152/59/2 154/61/2 153/60/2
f 183/62/2 182/63/2 184/56/2
f 182/63/2 181/64/2 184/56/2
f 181/64/2 180/65/2 184/56/2
f 180/65/2 179/66/2 184/56/2
f 179/66/2 178/67/2 184/56/2
f 178/67/2 177/11/2 184/56/2
f 177/11/2 176/68/2 184/56/2
f 154/61/2 152/59/2 155/69/2
f 161/70/2 160/72/2 162/71/2
f 168/73/2 170/34/2 169/74/2
f 170/34/2 168/73/2 167/75/2
f 166/76/2 165/78/2 171/77/2
f 171/77/2 170/34/2 166/76/2
f 170/34/2 167/75/2 166/76/2
f 159/79/2 156/17/2 171/77/2
f 171/77/2 165/78/2 159/79/2
f 165/78/2 164/80/2 159/79/2
f 164/80/2 163/46/2 159/79/2
f 160/72/2 159/79/2 163/46/2
f 162/71/2 160/72/2 163/46/2
f 184/56/2 176/68/2 175/81/2
f 175/81/2 174/82/2 184/56/2
f 174/82/2 173/83/2 184/56/2
f 173/83/2 172/84/2 184/56/2
f 151/57/2 184/56/2 172/84/2
f 152/59/2 151/57/2 172/84/2
f 155/69/2 152/59/2 172/84/2
f 172/84/2 171/77/2 155/69/2
f 171/77/2 156/17/2 155/69/2
f 158/85/2 157/86/2 156/17/2
f 156/17/2 159/79/2 158/85/2
f 18/41/3 17/43/3 109/43/3 110/41/3
f 65/86/4 64/17/4 156/17/4 157/86/4
f 2/22/5 1/5/5 93/5/5 94/22/5
f 88/65/6 87/66/6 179/66/6 180/65/6
f 41/12/4 40/28/4 132/28/4 133/12/4
f 67/79/7 66/85/7 158/85/7 159/79/7
f 73/78/8 72/80/8 164/80/8 165/78/8
f 87/66/9 86/67/9 178/67/9 179/66/9
f 54/55/7 53/14/7 145/14/7 146/55/7
f 20/44/10 19/42/10 111/42/10 112/44/10
f 40/28/11 39/30/11 131/30/11 132/28/11
f 14/16/12 13/15/12 105/15/12 106/16/12
f 39/30/13 38/29/13 130/29/13 131/30/13
f 72/80/14 71/46/14 163/46/14 164/80/14
f 13/15/15 12/17/15 104/17/15 105/15/15
f 86/67/16 85/11/16 177/11/16 178/67/16
f 52/2/17 51/1/17 143/1/17 144/2/17
f 55/53/18 54/55/18 146/55/18 147/53/18
f 17/43/19 16/45/19 108/45/19 109/43/19
f 38/29/20 37/31/20 129/31/20 130/29/20
f 51/1/21 50/3/21 142/3/21 143/1/21
f 85/11/22 84/68/22 176/68/22 177/11/22
f 53/14/23 56/56/23 148/56/23 145/14/23
f 37/31/24 36/32/24 128/32/24 129/31/24
f 68/72/25 67/79/25 159/79/25 160/72/25
f 10/18/26 9/19/26 101/19/26 102/18/26
f 26/48/27 25/47/27 117/47/27 118/48/27
f 71/46/28 70/71/28 162/71/28 163/46/28
f 63/69/7 62/61/7 154/61/7 155/69/7
f 48/4/29 47/6/29 139/6/29 140/4/29
f 56/56/4 55/53/4 147/53/4 148/56/4
f 25/47/30 24/49/30 116/49/30 117/47/30
f 36/32/31 35/33/31 127/33/31 128/32/31
f 24/49/32 23/46/32 115/46/32 116/49/32
f 84/68/33 83/81/33 175/81/33 176/68/33
f 11/20/34 10/18/34 102/18/34 103/20/34
f 70/71/35 69/70/35 161/70/35 162/71/35
f 15/51/7 14/16/7 106/16/7 107/51/7
f 83/81/36 82/82/36 174/82/36 175/81/36
f 12/17/37 11/20/37 103/20/37 104/17/37
f 69/70/38 68/72/38 160/72/38 161/70/38
f 50/3/39 49/7/39 141/7/39 142/3/39
f 57/5/4 92/56/4 184/56/4 149/5/4
f 23/46/40 22/50/40 114/50/40 115/46/40
f 35/33/41 34/34/41 126/34/41 127/33/41
f 49/7/42 48/4/42 140/4/42 141/7/42
f 34/34/16 33/35/16 125/35/16 126/34/16
f 82/82/43 81/83/43 173/83/43 174/82/43
f 3/21/44 2/22/44 94/22/44 95/21/44
f 77/74/45 76/73/45 168/73/45 169/74/45
f 1/5/46 52/2/46 144/2/46 93/5/46
f 59/57/7 58/58/7 150/58/7 151/57/7
f 33/35/47 32/36/47 124/36/47 125/35/47
f 81/83/48 80/84/48 172/84/48 173/83/48
f 78/34/49 77/74/49 169/74/49 170/34/49
f 44/9/50 43/8/50 135/8/50 136/9/50
f 58/58/51 57/5/51 149/5/51 150/58/51
f 27/52/52 26/48/52 118/48/52 119/52/52
f 4/23/53 3/21/53 95/21/53 96/23/53
f 43/8/54 42/10/54 134/10/54 135/8/54
f 61/60/4 60/59/4 152/59/4 153/60/4
f 32/36/33 31/37/33 123/37/33 124/36/33
f 76/73/55 75/75/55 167/75/55 168/73/55
f 5/24/56 4/23/56 96/23/56 97/24/56
f 62/61/51 61/60/51 153/60/51 154/61/51
f 16/45/57 15/51/57 107/51/57 108/45/57
f 31/37/36 30/38/36 122/38/36 123/37/36
f 60/59/58 59/57/58 151/57/58 152/59/58
f 74/76/59 73/78/59 165/78/59 166/76/59
f 45/11/60 44/9/60 136/9/60 137/11/60
f 92/56/11 91/62/11 183/62/11 184/56/11
f 6/25/61 5/24/61 97/24/61 98/25/61
f 42/10/62 41/12/62 133/12/62 134/10/62
f 91/62/13 90/63/13 182/63/13 183/62/13
f 22/50/63 21/54/63 113/54/63 114/50/63
f 30/38/64 29/39/64 121/39/64 122/38/64
f 80/84/65 79/77/65 171/77/65 172/84/65
f 79/77/66 78/34/66 170/34/66 171/77/66
f 7/26/67 6/25/67 98/25/67 99/26/67
f 90/63/20 89/64/20 181/64/20 182/63/20
f 21/54/68 20/44/68 112/44/68 113/54/68
f 29/39/69 28/40/69 120/40/69 121/39/69
f 64/17/70 63/69/70 155/69/70 156/17/70
f 75/75/71 74/76/71 166/76/71 167/75/71
f 46/13/72 45/11/72 137/11/72 138/13/72
f 28/40/65 27/52/65 119/52/65 120/40/65
f 8/27/73 7/26/73 99/26/73 100/27/73
f 47/6/74 46/13/74 138/13/74 139/6/74
f 89/64/24 88/65/24 180/65/24 181/64/24
f 19/42/75 18/41/75 110/41/75 111/42/75
f 66/85/51 65/86/51 157/86/51 158/85/51
f 9/19/76 8/27/76 100/27/76 101/19/76
