# Blender 5.2.1 LTS
# www.blender.org
mtllib LowScore.mtl
o テキスト
v 0.638571 0.000000 -0.140000
v 0.960000 0.000000 -0.935714
v 0.964365 0.000000 -0.945082
v 0.969563 0.000000 -0.953869
v 0.975536 0.000000 -0.962031
v 0.982222 0.000000 -0.969524
v 0.989563 0.000000 -0.976302
v 0.997500 0.000000 -0.982321
v 1.005972 0.000000 -0.987537
v 1.014921 0.000000 -0.991905
v 1.024286 0.000000 -0.995379
v 1.034008 0.000000 -0.997917
v 1.044028 0.000000 -0.999472
v 1.054286 0.000000 -1.000000
v 1.744286 0.000000 -1.000000
v 1.761964 0.000000 -0.998528
v 1.778452 0.000000 -0.994292
v 1.793571 0.000000 -0.987567
v 1.807143 0.000000 -0.978624
v 1.818988 0.000000 -0.967737
v 1.828929 0.000000 -0.955179
v 1.836786 0.000000 -0.941221
v 1.842381 0.000000 -0.926138
v 1.845536 0.000000 -0.910201
v 1.846071 0.000000 -0.893684
v 1.843810 0.000000 -0.876859
v 1.838571 0.000000 -0.860000
v 1.517143 0.000000 -0.064286
v 1.512778 0.000000 -0.054918
v 1.507579 0.000000 -0.046131
v 1.501607 0.000000 -0.037969
v 1.494921 0.000000 -0.030476
v 1.487579 0.000000 -0.023698
v 1.479643 0.000000 -0.017679
v 1.471171 0.000000 -0.012463
v 1.462222 0.000000 -0.008095
v 1.452857 0.000000 -0.004621
v 1.443135 0.000000 -0.002083
v 1.433115 0.000000 -0.000528
v 1.422857 0.000000 0.000000
v 0.732857 0.000000 0.000000
v 0.715479 0.000000 -0.001472
v 0.699187 0.000000 -0.005708
v 0.684174 0.000000 -0.012433
v 0.670635 0.000000 -0.021376
v 0.658762 0.000000 -0.032263
v 0.648750 0.000000 -0.044821
v 0.640791 0.000000 -0.058779
v 0.635079 0.000000 -0.073862
v 0.631808 0.000000 -0.089799
v 0.631171 0.000000 -0.106316
v 0.633361 0.000000 -0.123141
v 0.960000 0.000000 -0.147143
v 1.232857 0.000000 -0.147143
v 1.517143 0.000000 -0.852857
v 1.244286 0.000000 -0.852857
v 0.092857 0.000000 0.000000
v 0.437143 0.000000 -0.852857
v 0.285714 0.000000 -0.852857
v 0.345714 0.000000 -1.000000
v 0.814286 0.000000 -1.000000
v 0.410000 0.000000 0.000000
v 0.638571 0.100000 -0.140000
v 0.960000 0.100000 -0.935714
v 0.964365 0.100000 -0.945082
v 0.969563 0.100000 -0.953869
v 0.975536 0.100000 -0.962031
v 0.982222 0.100000 -0.969524
v 0.989563 0.100000 -0.976302
v 0.997500 0.100000 -0.982321
v 1.005972 0.100000 -0.987537
v 1.014921 0.100000 -0.991905
v 1.024286 0.100000 -0.995379
v 1.034008 0.100000 -0.997917
v 1.044028 0.100000 -0.999472
v 1.054286 0.100000 -1.000000
v 1.744286 0.100000 -1.000000
v 1.761964 0.100000 -0.998528
v 1.778452 0.100000 -0.994292
v 1.793571 0.100000 -0.987567
v 1.807143 0.100000 -0.978624
v 1.818988 0.100000 -0.967737
v 1.828929 0.100000 -0.955179
v 1.836786 0.100000 -0.941221
v 1.842381 0.100000 -0.926138
v 1.845536 0.100000 -0.910201
v 1.846071 0.100000 -0.893684
v 1.843810 0.100000 -0.876859
v 1.838571 0.100000 -0.860000
v 1.517143 0.100000 -0.064286
v 1.512778 0.100000 -0.054918
v 1.507579 0.100000 -0.046131
v 1.501607 0.100000 -0.037969
v 1.494921 0.100000 -0.030476
v 1.487579 0.100000 -0.023698
v 1.479643 0.100000 -0.017679
v 1.471171 0.100000 -0.012463
v 1.462222 0.100000 -0.008095
v 1.452857 0.100000 -0.004621
v 1.443135 0.100000 -0.002083
v 1.433115 0.100000 -0.000528
v 1.422857 0.100000 0.000000
v 0.732857 0.100000 0.000000
v 0.715479 0.100000 -0.001472
v 0.699187 0.100000 -0.005708
v 0.684174 0.100000 -0.012433
v 0.670635 0.100000 -0.021376
v 0.658762 0.100000 -0.032263
v 0.648750 0.100000 -0.044821
v 0.640791 0.100000 -0.058779
v 0.635079 0.100000 -0.073862
v 0.631808 0.100000 -0.089799
v 0.631171 0.100000 -0.106316
v 0.633361 0.100000 -0.123141
v 0.960000 0.100000 -0.147143
v 1.232857 0.100000 -0.147143
v 1.517143 0.100000 -0.852857
v 1.244286 0.100000 -0.852857
v 0.092857 0.100000 0.000000
v 0.437143 0.100000 -0.852857
v 0.285714 0.100000 -0.852857
v 0.345714 0.100000 -1.000000
v 0.814286 0.100000 -1.000000
v 0.410000 0.100000 0.000000
vn -0.0000 -1.0000 -0.0000
vn -0.0000 1.0000 -0.0000
vn -0.6784 -0.0000 -0.7347
vn 0.7841 -0.0000 -0.6206
vn 0.9064 -0.0000 0.4224
vn -0.6759 -0.0000 0.7370
vn 0.9272 -0.0000 0.3745
vn -0.6043 -0.0000 -0.7968
vn -0.7819 -0.0000 0.6234
vn 0.5502 -0.0000 -0.8350
vn -0.5243 -0.0000 -0.8516
vn 0.4064 -0.0000 -0.9137
vn -0.9272 -0.0000 -0.3745
vn -0.0000 -0.0000 1.0000
vn -0.0000 -0.0000 -1.0000
vn 0.6767 -0.0000 -0.7363
vn 0.0514 -0.0000 0.9987
vn -0.0514 -0.0000 -0.9987
vn 0.1534 -0.0000 0.9882
vn -0.1534 -0.0000 -0.9882
vn -0.9916 -0.0000 -0.1291
vn -0.9276 -0.0000 -0.3737
vn 0.2488 -0.0000 -0.9686
vn 0.2525 -0.0000 0.9676
vn -0.9993 -0.0000 0.0386
vn 0.9276 -0.0000 0.3737
vn 0.3479 -0.0000 0.9375
vn -0.4386 -0.0000 -0.8987
vn 0.9911 -0.0000 0.1332
vn -0.8687 -0.0000 0.4953
vn 0.9995 -0.0000 -0.0324
vn 0.4386 -0.0000 0.8987
vn 0.9810 -0.0000 -0.1942
vn -0.3479 -0.0000 -0.9375
vn -0.2525 -0.0000 -0.9676
vn -0.9796 -0.0000 0.2011
vn 0.9376 -0.0000 -0.3478
vn 0.5243 -0.0000 0.8516
vn -0.9352 -0.0000 0.3541
vn 0.6043 -0.0000 0.7968
vn -0.9064 -0.0000 -0.4224
vn 0.9271 -0.0000 0.3748
vn -0.9554 -0.0000 -0.2953
vn 0.6784 -0.0000 0.7347
vn -0.4088 -0.0000 0.9126
vn -0.9273 -0.0000 -0.3743
vn 0.9550 -0.0000 0.2967
vn -0.8607 -0.0000 -0.5092
vn -0.2516 -0.0000 0.9678
vn 0.7461 -0.0000 0.6658
vn -0.9260 -0.0000 -0.3776
vn -0.8070 -0.0000 -0.5905
vn 0.0830 -0.0000 -0.9965
vn 0.8070 -0.0000 0.5905
vn -0.5511 -0.0000 0.8344
vn -0.7461 -0.0000 -0.6658
vn -0.0844 -0.0000 0.9964
vn 0.8714 -0.0000 -0.4906
vn 0.8607 -0.0000 0.5092
vt 0.909091 0.000000
vt 0.927273 0.000000
vt 0.890909 0.000000
vt 0.854545 0.000000
vt 0.000000 0.000000
vt 0.836364 0.000000
vt 0.872727 0.000000
vt 0.763636 0.000000
vt 0.781818 0.000000
vt 0.745455 0.000000
vt 0.800000 0.000000
vt 0.727273 0.000000
vt 0.818182 0.000000
vt 0.945455 0.000000
vt 0.218182 0.000000
vt 0.236364 0.000000
vt 0.200000 0.000000
vt 0.163636 0.000000
vt 0.145455 0.000000
vt 0.181818 0.000000
vt 0.036364 0.000000
vt 0.018182 0.000000
vt 0.054545 0.000000
vt 0.072727 0.000000
vt 0.090909 0.000000
vt 0.109091 0.000000
vt 0.127273 0.000000
vt 0.709091 0.000000
vt 0.672727 0.000000
vt 0.690909 0.000000
vt 0.654545 0.000000
vt 0.636364 0.000000
vt 0.618182 0.000000
vt 0.600000 0.000000
vt 0.581818 0.000000
vt 0.563636 0.000000
vt 0.545455 0.000000
vt 0.527273 0.000000
vt 0.509091 0.000000
vt 0.490909 0.000000
vt 0.309091 0.000000
vt 0.327273 0.000000
vt 0.290909 0.000000
vt 0.345455 0.000000
vt 0.272727 0.000000
vt 0.400000 0.000000
vt 0.436364 0.000000
vt 0.454545 0.000000
vt 0.418182 0.000000
vt 0.381818 0.000000
vt 0.254545 0.000000
vt 0.472727 0.000000
vt 0.981818 0.000000
vt 0.363636 0.000000
vt 0.963636 0.000000
vt 1.000000 0.000000
s 0
usemtl Material
f 51/1/1 52/2/1 50/3/1
f 48/4/1 1/5/1 47/6/1
f 52/2/1 49/7/1 50/3/1
f 49/7/1 52/2/1 48/4/1
f 48/4/1 52/2/1 1/5/1
f 43/8/1 44/9/1 42/10/1
f 45/11/1 42/10/1 44/9/1
f 42/10/1 45/11/1 41/12/1
f 46/13/1 41/12/1 45/11/1
f 46/13/1 47/6/1 41/12/1
f 1/5/1 41/12/1 47/6/1
f 41/12/1 1/5/1 53/14/1
f 13/15/1 14/16/1 12/17/1
f 10/18/1 14/16/1 9/19/1
f 11/20/1 14/16/1 10/18/1
f 14/16/1 11/20/1 12/17/1
f 3/21/1 14/16/1 2/22/1
f 4/23/1 14/16/1 3/21/1
f 5/24/1 14/16/1 4/23/1
f 6/25/1 14/16/1 5/24/1
f 7/26/1 14/16/1 6/25/1
f 8/27/1 14/16/1 7/26/1
f 14/16/1 8/27/1 9/19/1
f 1/5/1 2/22/1 53/14/1
f 40/28/1 38/29/1 39/30/1
f 38/29/1 40/28/1 37/31/1
f 37/31/1 40/28/1 36/32/1
f 36/32/1 40/28/1 35/33/1
f 40/28/1 34/34/1 35/33/1
f 34/34/1 40/28/1 33/35/1
f 33/35/1 40/28/1 32/36/1
f 32/36/1 40/28/1 31/37/1
f 31/37/1 40/28/1 30/38/1
f 30/38/1 40/28/1 29/39/1
f 29/39/1 40/28/1 28/40/1
f 18/41/1 19/42/1 17/43/1
f 20/44/1 16/45/1 19/42/1
f 19/42/1 16/45/1 17/43/1
f 23/46/1 25/47/1 26/48/1
f 25/47/1 23/46/1 24/49/1
f 26/48/1 22/50/1 23/46/1
f 15/51/1 27/52/1 55/53/1
f 27/52/1 15/51/1 26/48/1
f 16/45/1 26/48/1 15/51/1
f 26/48/1 16/45/1 22/50/1
f 22/50/1 16/45/1 21/54/1
f 20/44/1 21/54/1 16/45/1
f 27/52/1 28/40/1 55/53/1
f 53/14/1 40/28/1 41/12/1
f 54/55/1 40/28/1 53/14/1
f 40/28/1 54/55/1 28/40/1
f 28/40/1 54/55/1 55/53/1
f 2/22/1 56/56/1 53/14/1
f 14/16/1 56/56/1 2/22/1
f 56/56/1 14/16/1 55/53/1
f 55/53/1 14/16/1 15/51/1
f 58/17/1 61/11/1 62/56/1
f 62/56/1 57/5/1 58/17/1
f 60/34/1 58/17/1 59/46/1
f 58/17/1 60/34/1 61/11/1
f 113/1/2 112/3/2 114/2/2
f 110/4/2 109/6/2 63/5/2
f 114/2/2 112/3/2 111/7/2
f 111/7/2 110/4/2 114/2/2
f 110/4/2 63/5/2 114/2/2
f 105/8/2 104/10/2 106/9/2
f 107/11/2 106/9/2 104/10/2
f 104/10/2 103/12/2 107/11/2
f 108/13/2 107/11/2 103/12/2
f 108/13/2 103/12/2 109/6/2
f 63/5/2 109/6/2 103/12/2
f 103/12/2 115/14/2 63/5/2
f 75/15/2 74/17/2 76/16/2
f 72/18/2 71/19/2 76/16/2
f 73/20/2 72/18/2 76/16/2
f 76/16/2 74/17/2 73/20/2
f 65/21/2 64/22/2 76/16/2
f 66/23/2 65/21/2 76/16/2
f 67/24/2 66/23/2 76/16/2
f 68/25/2 67/24/2 76/16/2
f 69/26/2 68/25/2 76/16/2
f 70/27/2 69/26/2 76/16/2
f 76/16/2 71/19/2 70/27/2
f 63/5/2 115/14/2 64/22/2
f 102/28/2 101/30/2 100/29/2
f 100/29/2 99/31/2 102/28/2
f 99/31/2 98/32/2 102/28/2
f 98/32/2 97/33/2 102/28/2
f 102/28/2 97/33/2 96/34/2
f 96/34/2 95/35/2 102/28/2
f 95/35/2 94/36/2 102/28/2
f 94/36/2 93/37/2 102/28/2
f 93/37/2 92/38/2 102/28/2
f 92/38/2 91/39/2 102/28/2
f 91/39/2 90/40/2 102/28/2
f 80/41/2 79/43/2 81/42/2
f 82/44/2 81/42/2 78/45/2
f 81/42/2 79/43/2 78/45/2
f 85/46/2 88/48/2 87/47/2
f 87/47/2 86/49/2 85/46/2
f 88/48/2 85/46/2 84/50/2
f 77/51/2 117/53/2 89/52/2
f 89/52/2 88/48/2 77/51/2
f 78/45/2 77/51/2 88/48/2
f 88/48/2 84/50/2 78/45/2
f 84/50/2 83/54/2 78/45/2
f 82/44/2 78/45/2 83/54/2
f 89/52/2 117/53/2 90/40/2
f 115/14/2 103/12/2 102/28/2
f 116/55/2 115/14/2 102/28/2
f 102/28/2 90/40/2 116/55/2
f 90/40/2 117/53/2 116/55/2
f 64/22/2 115/14/2 118/56/2
f 76/16/2 64/22/2 118/56/2
f 118/56/2 117/53/2 76/16/2
f 117/53/2 77/51/2 76/16/2
f 120/17/2 124/56/2 123/11/2
f 124/56/2 120/17/2 119/5/2
f 122/34/2 121/46/2 120/17/2
f 120/17/2 123/11/2 122/34/2
f 7/26/3 6/25/3 68/25/3 69/26/3
f 21/54/4 20/44/4 82/44/4 83/54/4
f 29/39/5 28/40/5 90/40/5 91/39/5
f 46/13/6 45/11/6 107/11/6 108/13/6
f 28/40/7 27/52/7 89/52/7 90/40/7
f 8/27/8 7/26/8 69/26/8 70/27/8
f 47/6/9 46/13/9 108/13/9 109/6/9
f 19/42/10 18/41/10 80/41/10 81/42/10
f 9/19/11 8/27/11 70/27/11 71/19/11
f 18/41/12 17/43/12 79/43/12 80/41/12
f 2/22/13 1/5/13 63/5/13 64/22/13
f 41/12/14 40/28/14 102/28/14 103/12/14
f 54/55/15 53/14/15 115/14/15 116/55/15
f 20/44/16 19/42/16 81/42/16 82/44/16
f 40/28/17 39/30/17 101/30/17 102/28/17
f 14/16/18 13/15/18 75/15/18 76/16/18
f 39/30/19 38/29/19 100/29/19 101/30/19
f 13/15/20 12/17/20 74/17/20 75/15/20
f 52/2/21 51/1/21 113/1/21 114/2/21
f 55/53/22 54/55/22 116/55/22 117/53/22
f 17/43/23 16/45/23 78/45/23 79/43/23
f 38/29/24 37/31/24 99/31/24 100/29/24
f 51/1/25 50/3/25 112/3/25 113/1/25
f 53/14/26 56/56/26 118/56/26 115/14/26
f 37/31/27 36/32/27 98/32/27 99/31/27
f 10/18/28 9/19/28 71/19/28 72/18/28
f 26/48/29 25/47/29 87/47/29 88/48/29
f 48/4/30 47/6/30 109/6/30 110/4/30
f 56/56/14 55/53/14 117/53/14 118/56/14
f 25/47/31 24/49/31 86/49/31 87/47/31
f 36/32/32 35/33/32 97/33/32 98/32/32
f 24/49/33 23/46/33 85/46/33 86/49/33
f 11/20/34 10/18/34 72/18/34 73/20/34
f 15/51/15 14/16/15 76/16/15 77/51/15
f 12/17/35 11/20/35 73/20/35 74/17/35
f 50/3/36 49/7/36 111/7/36 112/3/36
f 23/46/37 22/50/37 84/50/37 85/46/37
f 35/33/38 34/34/38 96/34/38 97/33/38
f 49/7/39 48/4/39 110/4/39 111/7/39
f 34/34/40 33/35/40 95/35/40 96/34/40
f 3/21/41 2/22/41 64/22/41 65/21/41
f 62/56/42 61/11/42 123/11/42 124/56/42
f 1/5/43 52/2/43 114/2/43 63/5/43
f 57/5/14 62/56/14 124/56/14 119/5/14
f 33/35/44 32/36/44 94/36/44 95/35/44
f 44/9/45 43/8/45 105/8/45 106/9/45
f 58/17/46 57/5/46 119/5/46 120/17/46
f 27/52/47 26/48/47 88/48/47 89/52/47
f 4/23/48 3/21/48 65/21/48 66/23/48
f 43/8/49 42/10/49 104/10/49 105/8/49
f 32/36/50 31/37/50 93/37/50 94/36/50
f 60/34/51 59/46/51 121/46/51 122/34/51
f 5/24/52 4/23/52 66/23/52 67/24/52
f 59/46/14 58/17/14 120/17/14 121/46/14
f 16/45/53 15/51/53 77/51/53 78/45/53
f 31/37/54 30/38/54 92/38/54 93/37/54
f 45/11/55 44/9/55 106/9/55 107/11/55
f 61/11/15 60/34/15 122/34/15 123/11/15
f 6/25/56 5/24/56 67/24/56 68/25/56
f 42/10/57 41/12/57 103/12/57 104/10/57
f 22/50/58 21/54/58 83/54/58 84/50/58
f 30/38/59 29/39/59 91/39/59 92/38/59
