# Blender 5.2.1 LTS
# www.blender.org
mtllib MiddleScore.mtl
o テキスト
v 1.080000 -0.000000 -0.140000
v 1.401428 -0.000000 -0.935714
v 1.405794 -0.000000 -0.945082
v 1.410992 -0.000000 -0.953869
v 1.416964 -0.000000 -0.962031
v 1.423651 -0.000000 -0.969524
v 1.430992 -0.000000 -0.976302
v 1.438929 -0.000000 -0.982321
v 1.447401 -0.000000 -0.987537
v 1.456349 -0.000000 -0.991905
v 1.465714 -0.000000 -0.995379
v 1.475437 -0.000000 -0.997917
v 1.485456 -0.000000 -0.999472
v 1.495714 -0.000000 -1.000000
v 2.185714 -0.000000 -1.000000
v 2.203393 -0.000000 -0.998528
v 2.219881 -0.000000 -0.994292
v 2.235000 -0.000000 -0.987567
v 2.248571 -0.000000 -0.978624
v 2.260417 -0.000000 -0.967737
v 2.270357 -0.000000 -0.955179
v 2.278214 -0.000000 -0.941221
v 2.283809 -0.000000 -0.926138
v 2.286964 -0.000000 -0.910201
v 2.287500 -0.000000 -0.893684
v 2.285238 -0.000000 -0.876859
v 2.280000 -0.000000 -0.860000
v 1.958571 -0.000000 -0.064286
v 1.954206 -0.000000 -0.054918
v 1.949008 -0.000000 -0.046131
v 1.943036 -0.000000 -0.037969
v 1.936349 -0.000000 -0.030476
v 1.929008 -0.000000 -0.023698
v 1.921071 -0.000000 -0.017679
v 1.912599 -0.000000 -0.012463
v 1.903651 -0.000000 -0.008095
v 1.894286 -0.000000 -0.004621
v 1.884563 -0.000000 -0.002083
v 1.874544 -0.000000 -0.000528
v 1.864286 0.000000 0.000000
v 1.174286 0.000000 0.000000
v 1.156907 -0.000000 -0.001472
v 1.140615 -0.000000 -0.005708
v 1.125603 -0.000000 -0.012433
v 1.112063 -0.000000 -0.021376
v 1.100191 -0.000000 -0.032263
v 1.090178 -0.000000 -0.044821
v 1.082220 -0.000000 -0.058779
v 1.076508 -0.000000 -0.073862
v 1.073236 -0.000000 -0.089799
v 1.072599 -0.000000 -0.106316
v 1.074789 -0.000000 -0.123141
v 1.401428 -0.000000 -0.147143
v 1.674286 -0.000000 -0.147143
v 1.958571 -0.000000 -0.852857
v 1.685714 -0.000000 -0.852857
v -0.058571 0.000000 0.000000
v 0.165714 -0.000000 -0.555714
v 0.170079 -0.000000 -0.565082
v 0.175278 -0.000000 -0.573869
v 0.181250 -0.000000 -0.582031
v 0.187937 -0.000000 -0.589524
v 0.195278 -0.000000 -0.596302
v 0.203214 -0.000000 -0.602322
v 0.211687 -0.000000 -0.607537
v 0.220635 -0.000000 -0.611905
v 0.230000 -0.000000 -0.615380
v 0.239722 -0.000000 -0.617917
v 0.249742 -0.000000 -0.619472
v 0.260000 -0.000000 -0.620000
v 0.784286 -0.000000 -0.620000
v 0.877143 -0.000000 -0.852857
v 0.337143 -0.000000 -0.852857
v 0.395714 -0.000000 -1.000000
v 1.104286 -0.000000 -1.000000
v 1.121664 -0.000000 -0.998528
v 1.137956 -0.000000 -0.994292
v 1.152969 -0.000000 -0.987567
v 1.166508 -0.000000 -0.978624
v 1.178380 -0.000000 -0.967737
v 1.188393 -0.000000 -0.955179
v 1.196352 -0.000000 -0.941221
v 1.202064 -0.000000 -0.926138
v 1.205335 -0.000000 -0.910201
v 1.205972 -0.000000 -0.893684
v 1.203782 -0.000000 -0.876859
v 1.198571 -0.000000 -0.860000
v 1.067143 -0.000000 -0.535714
v 1.062778 -0.000000 -0.526375
v 1.057579 -0.000000 -0.517665
v 1.051607 -0.000000 -0.509621
v 1.044921 -0.000000 -0.502275
v 1.037579 -0.000000 -0.495664
v 1.029643 -0.000000 -0.489821
v 1.021171 -0.000000 -0.484783
v 1.012222 -0.000000 -0.480582
v 1.002857 -0.000000 -0.477255
v 0.993135 -0.000000 -0.474835
v 0.983115 -0.000000 -0.473357
v 0.972857 -0.000000 -0.472857
v 0.450000 -0.000000 -0.472857
v 0.318571 -0.000000 -0.147143
v 0.910000 -0.000000 -0.147143
v 0.850000 0.000000 0.000000
v 1.080000 0.100000 -0.140000
v 1.401428 0.100000 -0.935714
v 1.405794 0.100000 -0.945082
v 1.410992 0.100000 -0.953869
v 1.416964 0.100000 -0.962031
v 1.423651 0.100000 -0.969524
v 1.430992 0.100000 -0.976302
v 1.438929 0.100000 -0.982321
v 1.447401 0.100000 -0.987537
v 1.456349 0.100000 -0.991905
v 1.465714 0.100000 -0.995379
v 1.475437 0.100000 -0.997917
v 1.485456 0.100000 -0.999472
v 1.495714 0.100000 -1.000000
v 2.185714 0.100000 -1.000000
v 2.203393 0.100000 -0.998528
v 2.219881 0.100000 -0.994292
v 2.235000 0.100000 -0.987567
v 2.248571 0.100000 -0.978624
v 2.260417 0.100000 -0.967737
v 2.270357 0.100000 -0.955179
v 2.278214 0.100000 -0.941221
v 2.283809 0.100000 -0.926138
v 2.286964 0.100000 -0.910201
v 2.287500 0.100000 -0.893684
v 2.285238 0.100000 -0.876859
v 2.280000 0.100000 -0.860000
v 1.958571 0.100000 -0.064286
v 1.954206 0.100000 -0.054918
v 1.949008 0.100000 -0.046131
v 1.943036 0.100000 -0.037969
v 1.936349 0.100000 -0.030476
v 1.929008 0.100000 -0.023698
v 1.921071 0.100000 -0.017679
v 1.912599 0.100000 -0.012463
v 1.903651 0.100000 -0.008095
v 1.894286 0.100000 -0.004621
v 1.884563 0.100000 -0.002083
v 1.874544 0.100000 -0.000528
v 1.864286 0.100000 -0.000000
v 1.174286 0.100000 -0.000000
v 1.156907 0.100000 -0.001472
v 1.140615 0.100000 -0.005708
v 1.125603 0.100000 -0.012433
v 1.112063 0.100000 -0.021376
v 1.100191 0.100000 -0.032263
v 1.090178 0.100000 -0.044821
v 1.082220 0.100000 -0.058779
v 1.076508 0.100000 -0.073862
v 1.073236 0.100000 -0.089799
v 1.072599 0.100000 -0.106316
v 1.074789 0.100000 -0.123141
v 1.401428 0.100000 -0.147143
v 1.674286 0.100000 -0.147143
v 1.958571 0.100000 -0.852857
v 1.685714 0.100000 -0.852857
v -0.058571 0.100000 -0.000000
v 0.165714 0.100000 -0.555714
v 0.170079 0.100000 -0.565082
v 0.175278 0.100000 -0.573869
v 0.181250 0.100000 -0.582031
v 0.187937 0.100000 -0.589524
v 0.195278 0.100000 -0.596302
v 0.203214 0.100000 -0.602322
v 0.211687 0.100000 -0.607537
v 0.220635 0.100000 -0.611905
v 0.230000 0.100000 -0.615380
v 0.239722 0.100000 -0.617917
v 0.249742 0.100000 -0.619472
v 0.260000 0.100000 -0.620000
v 0.784286 0.100000 -0.620000
v 0.877143 0.100000 -0.852857
v 0.337143 0.100000 -0.852857
v 0.395714 0.100000 -1.000000
v 1.104286 0.100000 -1.000000
v 1.121664 0.100000 -0.998528
v 1.137956 0.100000 -0.994292
v 1.152969 0.100000 -0.987567
v 1.166508 0.100000 -0.978624
v 1.178380 0.100000 -0.967737
v 1.188393 0.100000 -0.955179
v 1.196352 0.100000 -0.941221
v 1.202064 0.100000 -0.926138
v 1.205335 0.100000 -0.910201
v 1.205972 0.100000 -0.893684
v 1.203782 0.100000 -0.876859
v 1.198571 0.100000 -0.860000
v 1.067143 0.100000 -0.535714
v 1.062778 0.100000 -0.526375
v 1.057579 0.100000 -0.517665
v 1.051607 0.100000 -0.509621
v 1.044921 0.100000 -0.502275
v 1.037579 0.100000 -0.495664
v 1.029643 0.100000 -0.489821
v 1.021171 0.100000 -0.484783
v 1.012222 0.100000 -0.480582
v 1.002857 0.100000 -0.477255
v 0.993135 0.100000 -0.474835
v 0.983115 0.100000 -0.473357
v 0.972857 0.100000 -0.472857
v 0.450000 0.100000 -0.472857
v 0.318571 0.100000 -0.147143
v 0.910000 0.100000 -0.147143
v 0.850000 0.100000 -0.000000
vn -0.0000 -1.0000 -0.0000
vn -0.0000 1.0000 -0.0000
vn -0.9993 -0.0000 0.0385
vn 0.2526 -0.0000 0.9676
vn -0.9276 -0.0000 -0.3737
vn 0.3478 -0.0000 0.9376
vn 0.5929 -0.0000 0.8053
vn -0.8687 -0.0000 0.4953
vn 0.9276 -0.0000 0.3737
vn 0.8587 -0.0000 0.5125
vn 0.4387 -0.0000 0.8986
vn -0.0000 -0.0000 1.0000
vn -0.9796 -0.0000 0.2011
vn 0.5111 -0.0000 0.8595
vn -0.9352 -0.0000 0.3542
vn -0.0000 -0.0000 -1.0000
vn 0.5243 -0.0000 0.8516
vn 0.6043 -0.0000 0.7968
vn 0.4249 -0.0000 0.9052
vn -0.9554 -0.0000 -0.2953
vn 0.9059 -0.0000 0.4234
vn -0.4088 -0.0000 0.9126
vn 0.6784 -0.0000 0.7347
vn -0.2516 -0.0000 0.9678
vn 0.7461 -0.0000 0.6658
vn 0.3348 -0.0000 0.9423
vn -0.5511 -0.0000 0.8344
vn 0.9260 -0.0000 0.3776
vn 0.8070 -0.0000 0.5905
vn 0.2415 -0.0000 0.9704
vn -0.0844 -0.0000 0.9964
vn 0.4088 -0.0000 -0.9126
vn 0.8607 -0.0000 0.5091
vn 0.2516 -0.0000 -0.9678
vn -0.9291 -0.0000 -0.3698
vn -0.6759 -0.0000 0.7370
vn 0.9064 -0.0000 0.4223
vn 0.5512 -0.0000 -0.8344
vn -0.7819 -0.0000 0.6234
vn 0.5502 -0.0000 -0.8350
vn 0.9993 -0.0000 -0.0385
vn 0.4064 -0.0000 -0.9137
vn -0.9273 -0.0000 -0.3743
vn 0.9916 -0.0000 0.1291
vn 0.9273 -0.0000 0.3742
vn -0.0514 -0.0000 -0.9987
vn 0.6767 -0.0000 -0.7363
vn -0.1534 -0.0000 -0.9882
vn 0.9554 -0.0000 0.2953
vn 0.2488 -0.0000 -0.9685
vn -0.9064 -0.0000 -0.4224
vn 0.9352 -0.0000 -0.3542
vn -0.4387 -0.0000 -0.8986
vn 0.9796 -0.0000 -0.2011
vn -0.8606 -0.0000 -0.5092
vn 0.9911 -0.0000 0.1332
vn 0.9995 -0.0000 -0.0324
vn 0.8687 -0.0000 -0.4953
vn -0.3478 -0.0000 -0.9376
vn -0.8070 -0.0000 -0.5905
vn 0.9810 -0.0000 -0.1942
vn -0.2526 -0.0000 -0.9676
vn -0.7461 -0.0000 -0.6658
vn 0.9376 -0.0000 -0.3478
vn 0.7819 -0.0000 -0.6234
vn -0.6784 -0.0000 -0.7347
vn 0.6759 -0.0000 -0.7370
vn -0.8607 -0.0000 -0.5091
vn -0.6044 -0.0000 -0.7967
vn 0.9550 -0.0000 0.2967
vn 0.0844 -0.0000 -0.9964
vn 0.1459 -0.0000 0.9893
vn -0.5242 -0.0000 -0.8516
vn 0.0830 -0.0000 -0.9966
vn 0.0487 -0.0000 0.9988
vn 0.8714 -0.0000 -0.4905
vn -0.3479 -0.0000 -0.9375
vn 0.7841 -0.0000 -0.6206
vn -0.9289 -0.0000 -0.3704
vn -0.6043 -0.0000 -0.7968
vn -0.2525 -0.0000 -0.9676
vn 0.9272 -0.0000 0.3745
vn 0.9268 -0.0000 0.3756
vn -0.5243 -0.0000 -0.8516
vn -0.9272 -0.0000 -0.3745
vn 0.6691 -0.0000 0.7431
vn 0.7396 -0.0000 0.6731
vn 0.0514 -0.0000 0.9987
vn -0.9916 -0.0000 -0.1291
vn 0.1534 -0.0000 0.9882
vn 0.8029 -0.0000 0.5961
vt 0.909091 0.000000
vt 0.927273 0.000000
vt 0.890909 0.000000
vt 0.854545 0.000000
vt 0.000000 0.000000
vt 0.836364 0.000000
vt 0.872727 0.000000
vt 0.763636 0.000000
vt 0.781818 0.000000
vt 0.745455 0.000000
vt 0.800000 0.000000
vt 0.727273 0.000000
vt 0.818182 0.000000
vt 0.945455 0.000000
vt 0.218182 0.000000
vt 0.236364 0.000000
vt 0.200000 0.000000
vt 0.163636 0.000000
vt 0.145455 0.000000
vt 0.181818 0.000000
vt 0.036364 0.000000
vt 0.018182 0.000000
vt 0.054545 0.000000
vt 0.072727 0.000000
vt 0.090909 0.000000
vt 0.109091 0.000000
vt 0.127273 0.000000
vt 0.709091 0.000000
vt 0.672727 0.000000
vt 0.690909 0.000000
vt 0.654545 0.000000
vt 0.636364 0.000000
vt 0.618182 0.000000
vt 0.600000 0.000000
vt 0.581818 0.000000
vt 0.563636 0.000000
vt 0.545455 0.000000
vt 0.527273 0.000000
vt 0.509091 0.000000
vt 0.490909 0.000000
vt 0.309091 0.000000
vt 0.327273 0.000000
vt 0.290909 0.000000
vt 0.345455 0.000000
vt 0.272727 0.000000
vt 0.400000 0.000000
vt 0.436364 0.000000
vt 0.454545 0.000000
vt 0.418182 0.000000
vt 0.381818 0.000000
vt 0.254545 0.000000
vt 0.472727 0.000000
vt 0.981818 0.000000
vt 0.363636 0.000000
vt 0.963636 0.000000
vt 1.000000 0.000000
vt 0.276596 0.000000
vt 0.297872 0.000000
vt 0.936170 0.000000
vt 0.914894 0.000000
vt 0.957447 0.000000
vt 0.978723 0.000000
vt 0.361702 0.000000
vt 0.319149 0.000000
vt 0.340426 0.000000
vt 0.021277 0.000000
vt 0.042553 0.000000
vt 0.063830 0.000000
vt 0.085106 0.000000
vt 0.106383 0.000000
vt 0.127660 0.000000
vt 0.148936 0.000000
vt 0.170213 0.000000
vt 0.191489 0.000000
vt 0.212766 0.000000
vt 0.234043 0.000000
vt 0.255319 0.000000
vt 0.744681 0.000000
vt 0.765957 0.000000
vt 0.723404 0.000000
vt 0.702128 0.000000
vt 0.787234 0.000000
vt 0.680851 0.000000
vt 0.808511 0.000000
vt 0.829787 0.000000
vt 0.659574 0.000000
vt 0.851064 0.000000
vt 0.872340 0.000000
vt 0.425532 0.000000
vt 0.446809 0.000000
vt 0.404255 0.000000
vt 0.468085 0.000000
vt 0.574468 0.000000
vt 0.595745 0.000000
vt 0.617021 0.000000
vt 0.531915 0.000000
vt 0.638298 0.000000
vt 0.553191 0.000000
vt 0.510638 0.000000
vt 0.382979 0.000000
vt 0.489362 0.000000
vt 0.893617 0.000000
s 1
usemtl Material
f 51/1/1 52/2/1 50/3/1
f 48/4/1 1/5/1 47/6/1
f 52/2/1 49/7/1 50/3/1
f 49/7/1 52/2/1 48/4/1
f 48/4/1 52/2/1 1/5/1
f 43/8/1 44/9/1 42/10/1
f 45/11/1 42/10/1 44/9/1
f 42/10/1 45/11/1 41/12/1
f 46/13/1 41/12/1 45/11/1
f 46/13/1 47/6/1 41/12/1
f 1/5/1 41/12/1 47/6/1
f 41/12/1 1/5/1 53/14/1
f 13/15/1 14/16/1 12/17/1
f 10/18/1 14/16/1 9/19/1
f 11/20/1 14/16/1 10/18/1
f 14/16/1 11/20/1 12/17/1
f 3/21/1 14/16/1 2/22/1
f 4/23/1 14/16/1 3/21/1
f 5/24/1 14/16/1 4/23/1
f 6/25/1 14/16/1 5/24/1
f 7/26/1 14/16/1 6/25/1
f 8/27/1 14/16/1 7/26/1
f 14/16/1 8/27/1 9/19/1
f 1/5/1 2/22/1 53/14/1
f 40/28/1 38/29/1 39/30/1
f 38/29/1 40/28/1 37/31/1
f 37/31/1 40/28/1 36/32/1
f 36/32/1 40/28/1 35/33/1
f 40/28/1 34/34/1 35/33/1
f 34/34/1 40/28/1 33/35/1
f 33/35/1 40/28/1 32/36/1
f 32/36/1 40/28/1 31/37/1
f 31/37/1 40/28/1 30/38/1
f 30/38/1 40/28/1 29/39/1
f 29/39/1 40/28/1 28/40/1
f 18/41/1 19/42/1 17/43/1
f 20/44/1 16/45/1 19/42/1
f 19/42/1 16/45/1 17/43/1
f 23/46/1 25/47/1 26/48/1
f 25/47/1 23/46/1 24/49/1
f 26/48/1 22/50/1 23/46/1
f 15/51/1 27/52/1 55/53/1
f 27/52/1 15/51/1 26/48/1
f 16/45/1 26/48/1 15/51/1
f 26/48/1 16/45/1 22/50/1
f 22/50/1 16/45/1 21/54/1
f 20/44/1 21/54/1 16/45/1
f 27/52/1 28/40/1 55/53/1
f 53/14/1 40/28/1 41/12/1
f 54/55/1 40/28/1 53/14/1
f 40/28/1 54/55/1 28/40/1
f 28/40/1 54/55/1 55/53/1
f 2/22/1 56/56/1 53/14/1
f 14/16/1 56/56/1 2/22/1
f 56/56/1 14/16/1 55/53/1
f 55/53/1 14/16/1 15/51/1
f 70/57/1 71/58/1 101/59/1
f 100/60/1 101/59/1 71/58/1
f 104/56/1 102/61/1 103/62/1
f 74/63/1 72/64/1 73/65/1
f 104/56/1 57/5/1 102/61/1
f 58/66/1 102/61/1 57/5/1
f 102/61/1 58/66/1 101/59/1
f 101/59/1 58/66/1 70/57/1
f 59/67/1 70/57/1 58/66/1
f 60/68/1 70/57/1 59/67/1
f 61/69/1 70/57/1 60/68/1
f 62/70/1 70/57/1 61/69/1
f 63/71/1 70/57/1 62/70/1
f 64/72/1 70/57/1 63/71/1
f 65/73/1 70/57/1 64/72/1
f 66/74/1 70/57/1 65/73/1
f 67/75/1 70/57/1 66/74/1
f 68/76/1 70/57/1 67/75/1
f 70/57/1 68/76/1 69/77/1
f 92/78/1 93/79/1 91/80/1
f 91/80/1 93/79/1 90/81/1
f 94/82/1 90/81/1 93/79/1
f 90/81/1 94/82/1 89/83/1
f 95/84/1 89/83/1 94/82/1
f 96/85/1 89/83/1 95/84/1
f 89/83/1 96/85/1 88/86/1
f 97/87/1 88/86/1 96/85/1
f 98/88/1 88/86/1 97/87/1
f 77/89/1 78/90/1 76/91/1
f 78/90/1 79/92/1 76/91/1
f 84/93/1 85/94/1 86/95/1
f 82/96/1 86/95/1 87/97/1
f 83/98/1 86/95/1 82/96/1
f 86/95/1 83/98/1 84/93/1
f 87/97/1 81/99/1 82/96/1
f 87/97/1 75/100/1 81/99/1
f 81/99/1 75/100/1 80/101/1
f 80/101/1 75/100/1 79/92/1
f 79/92/1 75/100/1 76/91/1
f 98/88/1 99/102/1 88/86/1
f 100/60/1 88/86/1 99/102/1
f 71/58/1 88/86/1 100/60/1
f 72/64/1 88/86/1 71/58/1
f 88/86/1 72/64/1 87/97/1
f 87/97/1 72/64/1 75/100/1
f 74/63/1 75/100/1 72/64/1
f 155/1/2 154/3/2 156/2/2
f 152/4/2 151/6/2 105/5/2
f 156/2/2 154/3/2 153/7/2
f 153/7/2 152/4/2 156/2/2
f 152/4/2 105/5/2 156/2/2
f 147/8/2 146/10/2 148/9/2
f 149/11/2 148/9/2 146/10/2
f 146/10/2 145/12/2 149/11/2
f 150/13/2 149/11/2 145/12/2
f 150/13/2 145/12/2 151/6/2
f 105/5/2 151/6/2 145/12/2
f 145/12/2 157/14/2 105/5/2
f 117/15/2 116/17/2 118/16/2
f 114/18/2 113/19/2 118/16/2
f 115/20/2 114/18/2 118/16/2
f 118/16/2 116/17/2 115/20/2
f 107/21/2 106/22/2 118/16/2
f 108/23/2 107/21/2 118/16/2
f 109/24/2 108/23/2 118/16/2
f 110/25/2 109/24/2 118/16/2
f 111/26/2 110/25/2 118/16/2
f 112/27/2 111/26/2 118/16/2
f 118/16/2 113/19/2 112/27/2
f 105/5/2 157/14/2 106/22/2
f 144/28/2 143/30/2 142/29/2
f 142/29/2 141/31/2 144/28/2
f 141/31/2 140/32/2 144/28/2
f 140/32/2 139/33/2 144/28/2
f 144/28/2 139/33/2 138/34/2
f 138/34/2 137/35/2 144/28/2
f 137/35/2 136/36/2 144/28/2
f 136/36/2 135/37/2 144/28/2
f 135/37/2 134/38/2 144/28/2
f 134/38/2 133/39/2 144/28/2
f 133/39/2 132/40/2 144/28/2
f 122/41/2 121/43/2 123/42/2
f 124/44/2 123/42/2 120/45/2
f 123/42/2 121/43/2 120/45/2
f 127/46/2 130/48/2 129/47/2
f 129/47/2 128/49/2 127/46/2
f 130/48/2 127/46/2 126/50/2
f 119/51/2 159/53/2 131/52/2
f 131/52/2 130/48/2 119/51/2
f 120/45/2 119/51/2 130/48/2
f 130/48/2 126/50/2 120/45/2
f 126/50/2 125/54/2 120/45/2
f 124/44/2 120/45/2 125/54/2
f 131/52/2 159/53/2 132/40/2
f 157/14/2 145/12/2 144/28/2
f 158/55/2 157/14/2 144/28/2
f 144/28/2 132/40/2 158/55/2
f 132/40/2 159/53/2 158/55/2
f 106/22/2 157/14/2 160/56/2
f 118/16/2 106/22/2 160/56/2
f 160/56/2 159/53/2 118/16/2
f 159/53/2 119/51/2 118/16/2
f 174/57/2 205/59/2 175/58/2
f 204/60/2 175/58/2 205/59/2
f 208/56/2 207/62/2 206/61/2
f 178/63/2 177/65/2 176/64/2
f 208/56/2 206/61/2 161/5/2
f 162/66/2 161/5/2 206/61/2
f 206/61/2 205/59/2 162/66/2
f 205/59/2 174/57/2 162/66/2
f 163/67/2 162/66/2 174/57/2
f 164/68/2 163/67/2 174/57/2
f 165/69/2 164/68/2 174/57/2
f 166/70/2 165/69/2 174/57/2
f 167/71/2 166/70/2 174/57/2
f 168/72/2 167/71/2 174/57/2
f 169/73/2 168/72/2 174/57/2
f 170/74/2 169/73/2 174/57/2
f 171/75/2 170/74/2 174/57/2
f 172/76/2 171/75/2 174/57/2
f 174/57/2 173/77/2 172/76/2
f 196/78/2 195/80/2 197/79/2
f 195/80/2 194/81/2 197/79/2
f 198/82/2 197/79/2 194/81/2
f 194/81/2 193/83/2 198/82/2
f 199/84/2 198/82/2 193/83/2
f 200/85/2 199/84/2 193/83/2
f 193/83/2 192/86/2 200/85/2
f 201/87/2 200/85/2 192/86/2
f 202/88/2 201/87/2 192/86/2
f 181/89/2 180/91/2 182/90/2
f 182/90/2 180/91/2 183/92/2
f 188/93/2 190/95/2 189/94/2
f 186/96/2 191/97/2 190/95/2
f 187/98/2 186/96/2 190/95/2
f 190/95/2 188/93/2 187/98/2
f 191/97/2 186/96/2 185/99/2
f 191/97/2 185/99/2 179/100/2
f 185/99/2 184/101/2 179/100/2
f 184/101/2 183/92/2 179/100/2
f 183/92/2 180/91/2 179/100/2
f 202/88/2 192/86/2 203/102/2
f 204/60/2 203/102/2 192/86/2
f 175/58/2 204/60/2 192/86/2
f 176/64/2 175/58/2 192/86/2
f 192/86/2 191/97/2 176/64/2
f 191/97/2 179/100/2 176/64/2
f 178/63/2 176/64/2 179/100/2
f 51/1/3 50/3/3 154/3/3 155/1/3
f 38/29/4 37/31/4 141/31/4 142/29/4
f 55/53/5 54/55/5 158/55/5 159/53/5
f 37/31/6 36/32/6 140/32/6 141/31/6
f 94/82/7 93/79/7 197/79/7 198/82/7
f 48/4/8 47/6/8 151/6/8 152/4/8
f 53/14/9 56/56/9 160/56/9 157/14/9
f 90/81/10 89/83/10 193/83/10 194/81/10
f 36/32/11 35/33/11 139/33/11 140/32/11
f 56/56/12 55/53/12 159/53/12 160/56/12
f 50/3/13 49/7/13 153/7/13 154/3/13
f 95/84/14 94/82/14 198/82/14 199/84/14
f 49/7/15 48/4/15 152/4/15 153/7/15
f 15/51/16 14/16/16 118/16/16 119/51/16
f 35/33/17 34/34/17 138/34/17 139/33/17
f 71/58/16 70/57/16 174/57/16 175/58/16
f 34/34/18 33/35/18 137/35/18 138/34/18
f 96/85/19 95/84/19 199/84/19 200/85/19
f 1/5/20 52/2/20 156/2/20 105/5/20
f 89/83/21 88/86/21 192/86/21 193/83/21
f 44/9/22 43/8/22 147/8/22 148/9/22
f 33/35/23 32/36/23 136/36/23 137/35/23
f 43/8/24 42/10/24 146/10/24 147/8/24
f 101/59/12 100/60/12 204/60/12 205/59/12
f 32/36/25 31/37/25 135/37/25 136/36/25
f 97/87/26 96/85/26 200/85/26 201/87/26
f 45/11/27 44/9/27 148/9/27 149/11/27
f 104/56/28 103/62/28 207/62/28 208/56/28
f 31/37/29 30/38/29 134/38/29 135/37/29
f 98/88/30 97/87/30 201/87/30 202/88/30
f 42/10/31 41/12/31 145/12/31 146/10/31
f 103/62/16 102/61/16 206/61/16 207/62/16
f 78/90/32 77/89/32 181/89/32 182/90/32
f 30/38/33 29/39/33 133/39/33 134/38/33
f 77/89/34 76/91/34 180/91/34 181/89/34
f 74/63/35 73/65/35 177/65/35 178/63/35
f 46/13/36 45/11/36 149/11/36 150/13/36
f 73/65/12 72/64/12 176/64/12 177/65/12
f 29/39/37 28/40/37 132/40/37 133/39/37
f 79/92/38 78/90/38 182/90/38 183/92/38
f 47/6/39 46/13/39 150/13/39 151/6/39
f 57/5/12 104/56/12 208/56/12 161/5/12
f 19/42/40 18/41/40 122/41/40 123/42/40
f 85/94/41 84/93/41 188/93/41 189/94/41
f 18/41/42 17/43/42 121/43/42 122/41/42
f 58/66/43 57/5/43 161/5/43 162/66/43
f 86/95/44 85/94/44 189/94/44 190/95/44
f 102/61/45 101/59/45 205/59/45 206/61/45
f 14/16/46 13/15/46 117/15/46 118/16/46
f 20/44/47 19/42/47 123/42/47 124/44/47
f 13/15/48 12/17/48 116/17/48 117/15/48
f 87/97/49 86/95/49 190/95/49 191/97/49
f 17/43/50 16/45/50 120/45/50 121/43/50
f 59/67/51 58/66/51 162/66/51 163/67/51
f 83/98/52 82/96/52 186/96/52 187/98/52
f 10/18/53 9/19/53 113/19/53 114/18/53
f 84/93/54 83/98/54 187/98/54 188/93/54
f 60/68/55 59/67/55 163/67/55 164/68/55
f 26/48/56 25/47/56 129/47/56 130/48/56
f 25/47/57 24/49/57 128/49/57 129/47/57
f 82/96/58 81/99/58 185/99/58 186/96/58
f 11/20/59 10/18/59 114/18/59 115/20/59
f 61/69/60 60/68/60 164/68/60 165/69/60
f 24/49/61 23/46/61 127/46/61 128/49/61
f 12/17/62 11/20/62 115/20/62 116/17/62
f 62/70/63 61/69/63 165/69/63 166/70/63
f 23/46/64 22/50/64 126/50/64 127/46/64
f 81/99/65 80/101/65 184/101/65 185/99/65
f 3/21/51 2/22/51 106/22/51 107/21/51
f 63/71/66 62/70/66 166/70/66 167/71/66
f 80/101/67 79/92/67 183/92/67 184/101/67
f 4/23/68 3/21/68 107/21/68 108/23/68
f 64/72/69 63/71/69 167/71/69 168/72/69
f 27/52/70 26/48/70 130/48/70 131/52/70
f 76/91/71 75/100/71 179/100/71 180/91/71
f 99/102/72 98/88/72 202/88/72 203/102/72
f 5/24/60 4/23/60 108/23/60 109/24/60
f 65/73/73 64/72/73 168/72/73 169/73/73
f 16/45/74 15/51/74 119/51/74 120/45/74
f 6/25/63 5/24/63 109/24/63 110/25/63
f 66/74/53 65/73/53 169/73/53 170/74/53
f 100/60/75 99/102/75 203/102/75 204/60/75
f 22/50/76 21/54/76 125/54/76 126/50/76
f 7/26/66 6/25/66 110/25/66 111/26/66
f 67/75/77 66/74/77 170/74/77 171/75/77
f 21/54/78 20/44/78 124/44/78 125/54/78
f 72/64/79 71/58/79 175/58/79 176/64/79
f 8/27/80 7/26/80 111/26/80 112/27/80
f 68/76/81 67/75/81 171/75/81 172/76/81
f 28/40/82 27/52/82 131/52/82 132/40/82
f 88/86/83 87/97/83 191/97/83 192/86/83
f 9/19/84 8/27/84 112/27/84 113/19/84
f 70/57/46 69/77/46 173/77/46 174/57/46
f 2/22/85 1/5/85 105/5/85 106/22/85
f 69/77/48 68/76/48 172/76/48 173/77/48
f 93/79/86 92/78/86 196/78/86 197/79/86
f 41/12/12 40/28/12 144/28/12 145/12/12
f 75/100/16 74/63/16 178/63/16 179/100/16
f 92/78/87 91/80/87 195/80/87 196/78/87
f 40/28/88 39/30/88 143/30/88 144/28/88
f 52/2/89 51/1/89 155/1/89 156/2/89
f 54/55/16 53/14/16 157/14/16 158/55/16
f 39/30/90 38/29/90 142/29/90 143/30/90
f 91/80/91 90/81/91 194/81/91 195/80/91
