# Blender 5.2.1 LTS
# www.blender.org
mtllib harfTime.mtl
o Text
v 3.460649 0.050000 0.531095
v 3.077944 0.050000 0.531095
v 3.123942 0.050000 0.008556
v 2.717319 0.050000 0.008556
v 2.456049 0.050000 0.531095
v 2.073344 0.050000 0.531095
v 2.334614 0.050000 0.008556
v 2.025506 0.050000 0.008556
v 2.036546 0.050000 -0.101840
v 2.389812 0.050000 -0.101840
v 2.772516 0.050000 -0.101840
v 3.133142 0.050000 -0.101840
v 3.515846 0.050000 -0.101840
v 2.367733 0.050000 -0.153358
v 1.985028 0.050000 -0.153358
v 2.257337 0.050000 -0.572861
v 2.640041 0.050000 -0.572861
v 3.640962 0.050000 -0.153358
v 3.258257 0.050000 -0.153358
v 3.105543 0.050000 -0.462465
v 2.910511 0.050000 -0.462465
v 2.919710 0.050000 -0.572861
v 3.052185 0.050000 -0.572861
v 3.243537 0.050000 -0.572861
v 3.434890 0.050000 -0.572861
v 1.061385 0.050000 0.501656
v 0.678680 0.050000 0.501656
v 0.761477 0.050000 -0.453266
v 0.564605 0.050000 -0.453266
v 0.573804 0.050000 -0.563661
v 0.770677 0.050000 -0.563661
v 1.144181 0.050000 -0.563661
v 1.153381 0.050000 -0.563661
v -0.272562 0.050000 0.531095
v -1.742663 0.050000 0.531095
v -1.692985 0.050000 -0.031922
v -1.680105 0.050000 -0.031922
v -1.339719 0.050000 -0.088960
v -1.531071 0.050000 -0.550782
v -1.126287 0.050000 -0.550782
v -0.962534 0.050000 -0.151518
v -0.211844 0.050000 -0.276633
v -0.221044 0.050000 -0.168077
v -1.293721 0.050000 0.010396
v -1.328680 0.050000 0.422539
v -0.263362 0.050000 0.422539
v -3.083969 0.050000 -0.355750
v -3.591789 0.050000 -0.355750
v -3.582589 0.050000 -0.464305
v -3.074769 0.050000 -0.464305
v -3.067410 0.050000 -0.550782
v -2.662626 0.050000 -0.550782
v -2.669986 0.050000 -0.464305
v -2.046251 0.050000 -0.464305
v -2.055450 0.050000 -0.355750
v -2.679185 0.050000 -0.355750
v -2.697585 0.050000 -0.145998
v -2.073850 0.050000 -0.145998
v -2.132727 0.050000 0.531095
v -2.537511 0.050000 0.531095
v -2.515432 0.050000 0.288225
v -3.667226 0.050000 0.531095
v -3.608348 0.050000 -0.145998
v -3.102368 0.050000 -0.145998
v -3.139167 0.050000 0.291905
v -3.109728 0.050000 -0.039282
v -3.271642 0.050000 -0.039282
v -3.302920 0.050000 0.326863
v -2.706784 0.050000 -0.039282
v -2.728863 0.050000 0.205428
v -2.504392 0.050000 0.159430
v -2.485993 0.050000 -0.039282
v 3.460649 -0.050000 0.531095
v 3.077944 -0.050000 0.531095
v 3.123942 -0.050000 0.008556
v 2.717319 -0.050000 0.008556
v 2.456049 -0.050000 0.531095
v 2.073344 -0.050000 0.531095
v 2.334614 -0.050000 0.008556
v 2.025506 -0.050000 0.008556
v 2.036546 -0.050000 -0.101840
v 2.389812 -0.050000 -0.101840
v 2.772516 -0.050000 -0.101840
v 3.133142 -0.050000 -0.101840
v 3.515846 -0.050000 -0.101840
v 2.367733 -0.050000 -0.153358
v 1.985028 -0.050000 -0.153358
v 2.257337 -0.050000 -0.572861
v 2.640041 -0.050000 -0.572861
v 3.640962 -0.050000 -0.153358
v 3.258257 -0.050000 -0.153358
v 3.105543 -0.050000 -0.462465
v 2.910511 -0.050000 -0.462465
v 2.919710 -0.050000 -0.572861
v 3.052185 -0.050000 -0.572861
v 3.243537 -0.050000 -0.572861
v 3.434890 -0.050000 -0.572861
v 1.061385 -0.050000 0.501656
v 0.678680 -0.050000 0.501656
v 0.761477 -0.050000 -0.453266
v 0.564605 -0.050000 -0.453266
v 0.573804 -0.050000 -0.563661
v 0.770677 -0.050000 -0.563661
v 1.144181 -0.050000 -0.563661
v 1.153381 -0.050000 -0.563661
v -0.272562 -0.050000 0.531095
v -1.742663 -0.050000 0.531095
v -1.692985 -0.050000 -0.031922
v -1.680105 -0.050000 -0.031922
v -1.339719 -0.050000 -0.088960
v -1.531071 -0.050000 -0.550782
v -1.126287 -0.050000 -0.550782
v -0.962534 -0.050000 -0.151518
v -0.211844 -0.050000 -0.276633
v -0.221044 -0.050000 -0.168077
v -1.293721 -0.050000 0.010396
v -1.328680 -0.050000 0.422539
v -0.263362 -0.050000 0.422539
v -3.083969 -0.050000 -0.355750
v -3.591789 -0.050000 -0.355750
v -3.582589 -0.050000 -0.464305
v -3.074769 -0.050000 -0.464305
v -3.067410 -0.050000 -0.550782
v -2.662626 -0.050000 -0.550782
v -2.669986 -0.050000 -0.464305
v -2.046251 -0.050000 -0.464305
v -2.055450 -0.050000 -0.355750
v -2.679185 -0.050000 -0.355750
v -2.697585 -0.050000 -0.145998
v -2.073850 -0.050000 -0.145998
v -2.132727 -0.050000 0.531095
v -2.537511 -0.050000 0.531095
v -2.515432 -0.050000 0.288225
v -3.667226 -0.050000 0.531095
v -3.608348 -0.050000 -0.145998
v -3.102368 -0.050000 -0.145998
v -3.139167 -0.050000 0.291905
v -3.109728 -0.050000 -0.039282
v -3.271642 -0.050000 -0.039282
v -3.302920 -0.050000 0.326863
v -2.706784 -0.050000 -0.039282
v -2.728863 -0.050000 0.205428
v -2.504392 -0.050000 0.159430
v -2.485993 -0.050000 -0.039282
v -3.083969 -0.050000 -0.355750
v -3.083969 0.050000 -0.355750
v -3.591789 -0.050000 -0.355750
v -3.591789 0.050000 -0.355750
v -3.582589 -0.050000 -0.464305
v -3.582589 0.050000 -0.464305
v -3.074769 -0.050000 -0.464305
v -3.074769 0.050000 -0.464305
v -3.067410 -0.050000 -0.550782
v -3.067410 0.050000 -0.550782
v -2.662626 -0.050000 -0.550782
v -2.662626 0.050000 -0.550782
v -2.669986 -0.050000 -0.464305
v -2.669986 0.050000 -0.464305
v -2.046251 -0.050000 -0.464305
v -2.046251 0.050000 -0.464305
v -2.055450 -0.050000 -0.355750
v -2.055450 0.050000 -0.355750
v -2.679185 -0.050000 -0.355750
v -2.679185 0.050000 -0.355750
v -2.697585 -0.050000 -0.145998
v -2.697585 0.050000 -0.145998
v -2.073850 -0.050000 -0.145998
v -2.073850 0.050000 -0.145998
v -2.132727 -0.050000 0.531095
v -2.132727 0.050000 0.531095
v -2.537511 -0.050000 0.531095
v -2.537511 0.050000 0.531095
v -2.515432 -0.050000 0.288225
v -2.515432 0.050000 0.288225
v -3.667226 -0.050000 0.531095
v -3.667226 0.050000 0.531095
v -3.608348 -0.050000 -0.145998
v -3.608348 0.050000 -0.145998
v -3.102368 -0.050000 -0.145998
v -3.102368 0.050000 -0.145998
v -3.139167 -0.050000 0.291905
v -3.139167 0.050000 0.291905
v -3.109728 -0.050000 -0.039282
v -3.109728 0.050000 -0.039282
v -3.271642 -0.050000 -0.039282
v -3.271642 0.050000 -0.039282
v -3.302920 -0.050000 0.326863
v -3.302920 0.050000 0.326863
v -2.706784 -0.050000 -0.039282
v -2.706784 0.050000 -0.039282
v -2.728863 -0.050000 0.205428
v -2.728863 0.050000 0.205428
v -2.504392 -0.050000 0.159430
v -2.504392 0.050000 0.159430
v -2.485993 -0.050000 -0.039282
v -2.485993 0.050000 -0.039282
v -0.272562 -0.050000 0.531095
v -0.272562 0.050000 0.531095
v -1.742663 -0.050000 0.531095
v -1.742663 0.050000 0.531095
v -1.692985 -0.050000 -0.031922
v -1.692985 0.050000 -0.031922
v -1.680105 -0.050000 -0.031922
v -1.680105 0.050000 -0.031922
v -1.339719 -0.050000 -0.088960
v -1.339719 0.050000 -0.088960
v -1.531071 -0.050000 -0.550782
v -1.531071 0.050000 -0.550782
v -1.126287 -0.050000 -0.550782
v -1.126287 0.050000 -0.550782
v -0.962534 -0.050000 -0.151518
v -0.962534 0.050000 -0.151518
v -0.211844 -0.050000 -0.276633
v -0.211844 0.050000 -0.276633
v -0.221044 -0.050000 -0.168077
v -0.221044 0.050000 -0.168077
v -1.293721 -0.050000 0.010396
v -1.293721 0.050000 0.010396
v -1.328680 -0.050000 0.422539
v -1.328680 0.050000 0.422539
v -0.263362 -0.050000 0.422539
v -0.263362 0.050000 0.422539
v 1.061385 -0.050000 0.501656
v 1.061385 0.050000 0.501656
v 0.678680 -0.050000 0.501656
v 0.678680 0.050000 0.501656
v 0.761477 -0.050000 -0.453266
v 0.761477 0.050000 -0.453266
v 0.564605 -0.050000 -0.453266
v 0.564605 0.050000 -0.453266
v 0.573804 -0.050000 -0.563661
v 0.573804 0.050000 -0.563661
v 0.770677 -0.050000 -0.563661
v 0.770677 0.050000 -0.563661
v 1.144181 -0.050000 -0.563661
v 1.144181 0.050000 -0.563661
v 1.153381 -0.050000 -0.563661
v 1.153381 0.050000 -0.563661
v 3.460649 -0.050000 0.531095
v 3.460649 0.050000 0.531095
v 3.077944 -0.050000 0.531095
v 3.077944 0.050000 0.531095
v 3.123942 -0.050000 0.008556
v 3.123942 0.050000 0.008556
v 2.717319 -0.050000 0.008556
v 2.717319 0.050000 0.008556
v 2.456049 -0.050000 0.531095
v 2.456049 0.050000 0.531095
v 2.073344 -0.050000 0.531095
v 2.073344 0.050000 0.531095
v 2.334614 -0.050000 0.008556
v 2.334614 0.050000 0.008556
v 2.025506 -0.050000 0.008556
v 2.025506 0.050000 0.008556
v 2.036546 -0.050000 -0.101840
v 2.036546 0.050000 -0.101840
v 2.389812 -0.050000 -0.101840
v 2.389812 0.050000 -0.101840
v 2.772516 -0.050000 -0.101840
v 2.772516 0.050000 -0.101840
v 3.133142 -0.050000 -0.101840
v 3.133142 0.050000 -0.101840
v 3.515846 -0.050000 -0.101840
v 3.515846 0.050000 -0.101840
v 2.367733 -0.050000 -0.153358
v 2.367733 0.050000 -0.153358
v 1.985028 -0.050000 -0.153358
v 1.985028 0.050000 -0.153358
v 2.257337 -0.050000 -0.572861
v 2.257337 0.050000 -0.572861
v 2.640041 -0.050000 -0.572861
v 2.640041 0.050000 -0.572861
v 3.640962 -0.050000 -0.153358
v 3.640962 0.050000 -0.153358
v 3.258257 -0.050000 -0.153358
v 3.258257 0.050000 -0.153358
v 3.105543 -0.050000 -0.462465
v 3.105543 0.050000 -0.462465
v 2.910511 -0.050000 -0.462465
v 2.910511 0.050000 -0.462465
v 2.919710 -0.050000 -0.572861
v 2.919710 0.050000 -0.572861
v 3.052185 -0.050000 -0.572861
v 3.052185 0.050000 -0.572861
v 3.243537 -0.050000 -0.572861
v 3.243537 0.050000 -0.572861
v 3.434890 -0.050000 -0.572861
v 3.434890 0.050000 -0.572861
vn -0.0000 1.0000 -0.0000
vn -0.0000 -1.0000 -0.0000
vn -0.7364 -0.0000 0.6766
vn -0.7374 -0.0000 0.6755
vn -0.6766 -0.0000 -0.7364
vn -0.7363 -0.0000 0.6766
vn -0.6765 -0.0000 -0.7365
vn -0.6766 -0.0000 -0.7363
vn -0.6764 -0.0000 -0.7365
vn 0.7365 -0.0000 -0.6764
vn 0.7365 -0.0000 -0.6765
vn 0.7364 -0.0000 -0.6766
vn 0.6766 -0.0000 0.7364
vn 0.6755 -0.0000 0.7373
vn 0.6766 -0.0000 0.7363
vn 0.7374 -0.0000 -0.6755
vn 0.7371 -0.0000 -0.6758
vn 0.6758 -0.0000 0.7371
vn -0.7384 -0.0000 0.6743
vn -0.6645 -0.0000 0.7473
vn -0.6630 -0.0000 0.7486
vn -0.6758 -0.0000 -0.7371
vn -0.6755 -0.0000 -0.7373
vn -0.7377 -0.0000 0.6751
vn -0.7488 -0.0000 -0.6628
vn 0.6763 -0.0000 0.7366
vn 0.6615 -0.0000 -0.7499
vn 0.6664 -0.0000 -0.7456
vn 0.6746 -0.0000 0.7382
vn -0.7448 -0.0000 -0.6673
vn 0.6663 -0.0000 -0.7456
vn -0.7390 -0.0000 0.6737
vn -0.7449 -0.0000 -0.6672
vn -0.7375 -0.0000 0.6753
vn -0.6753 -0.0000 -0.7375
vn -0.0829 -0.0000 -0.9966
vn -0.8747 -0.0000 -0.4847
vn -0.8315 -0.0000 -0.5556
vn 0.5570 -0.0000 -0.8305
vn -0.8315 -0.0000 -0.5555
vn 0.4866 -0.0000 -0.8736
vn 0.6781 -0.0000 -0.7350
vn 0.7349 -0.0000 0.6782
vn 0.6780 -0.0000 -0.7350
vn 0.7349 -0.0000 0.6781
vn -0.7370 -0.0000 0.6759
vn 0.6760 -0.0000 0.7369
vn -0.7359 -0.0000 0.6771
vn -0.6771 -0.0000 -0.7359
vn -0.0000 -0.0000 -1.0000
vn 0.7369 -0.0000 -0.6760
vn -0.7375 -0.0000 0.6754
vn 0.6757 -0.0000 0.7372
vn -0.7374 -0.0000 0.6754
vn 0.5257 -0.0000 0.8506
vn 0.5257 -0.0000 0.8507
vn -0.8507 -0.0000 0.5257
vn -0.8506 -0.0000 0.5258
vn -0.7415 -0.0000 0.6710
vn -0.8506 -0.0000 0.5257
vn -0.6710 -0.0000 -0.7415
vn -0.7414 -0.0000 0.6710
vn -0.6710 -0.0000 -0.7414
vn 0.7372 -0.0000 -0.6757
vn -0.8788 -0.0000 0.4772
vn 0.4773 -0.0000 0.8788
vn 0.4772 -0.0000 0.8788
vn -0.4772 -0.0000 -0.8788
vn -0.8787 -0.0000 0.4773
vn 0.8788 -0.0000 -0.4772
vn -0.4773 -0.0000 -0.8788
vn 0.8787 -0.0000 -0.4773
vn -0.5278 -0.0000 0.8494
vn 0.8488 -0.0000 0.5287
vn 0.8488 -0.0000 0.5288
vn -0.5277 -0.0000 0.8494
vn 0.5287 -0.0000 -0.8488
vt 0.333333 0.000000
vt 0.291667 0.000000
vt 0.250000 0.000000
vt 0.125000 0.000000
vt 0.416667 0.000000
vt 0.375000 0.000000
vt 0.208333 0.000000
vt 0.166667 0.000000
vt 0.625000 0.000000
vt 0.583333 0.000000
vt 0.541667 0.000000
vt 0.666667 0.000000
vt 0.875000 0.000000
vt 0.833333 0.000000
vt 0.916667 0.000000
vt 0.791667 0.000000
vt 0.708333 0.000000
vt 1.000000 0.000000
vt 0.750000 0.000000
vt 0.958333 0.000000
vt 0.083333 0.000000
vt 0.041667 0.000000
vt 0.000000 0.000000
vt 0.500000 0.000000
vt 0.458333 0.000000
vt 0.571429 0.000000
vt 0.428571 0.000000
vt 0.285714 0.000000
vt 0.857143 0.000000
vt 0.142857 0.000000
vt 0.714286 0.000000
vt 0.640000 0.000000
vt 0.600000 0.000000
vt 0.840000 0.000000
vt 0.800000 0.000000
vt 0.680000 0.000000
vt 0.760000 0.000000
vt 0.720000 0.000000
vt 0.920000 0.000000
vt 0.080000 0.000000
vt 0.040000 0.000000
vt 0.120000 0.000000
vt 0.960000 0.000000
vt 0.560000 0.000000
vt 0.480000 0.000000
vt 0.440000 0.000000
vt 0.520000 0.000000
vt 0.400000 0.000000
vt 0.880000 0.000000
vt 0.240000 0.000000
vt 0.360000 0.000000
vt 0.320000 0.000000
vt 0.280000 0.000000
vt 0.160000 0.000000
vt 0.200000 0.000000
vt 0.055556 1.000000
vt 0.000000 1.000000
vt 0.111111 1.000000
vt 0.055556 0.000000
vt 0.166667 1.000000
vt 0.111111 0.000000
vt 0.222222 1.000000
vt 0.277778 1.000000
vt 0.222222 0.000000
vt 0.333333 1.000000
vt 0.277778 0.000000
vt 0.388889 1.000000
vt 0.444444 1.000000
vt 0.388889 0.000000
vt 0.500000 1.000000
vt 0.444444 0.000000
vt 0.555556 1.000000
vt 0.611111 1.000000
vt 0.555556 0.000000
vt 0.666667 1.000000
vt 0.611111 0.000000
vt 0.722222 1.000000
vt 0.777778 1.000000
vt 0.722222 0.000000
vt 0.833333 1.000000
vt 0.777778 0.000000
vt 0.888889 1.000000
vt 0.944444 1.000000
vt 0.888889 0.000000
vt 1.000000 1.000000
vt 0.944444 0.000000
vt 0.250000 1.000000
vt 0.750000 1.000000
vt 0.076923 1.000000
vt 0.153846 1.000000
vt 0.076923 0.000000
vt 0.230769 1.000000
vt 0.153846 0.000000
vt 0.307692 1.000000
vt 0.230769 0.000000
vt 0.384615 1.000000
vt 0.307692 0.000000
vt 0.461538 1.000000
vt 0.384615 0.000000
vt 0.538462 1.000000
vt 0.461538 0.000000
vt 0.615385 1.000000
vt 0.538462 0.000000
vt 0.692308 1.000000
vt 0.615385 0.000000
vt 0.769231 1.000000
vt 0.692308 0.000000
vt 0.846154 1.000000
vt 0.769231 0.000000
vt 0.923077 1.000000
vt 0.846154 0.000000
vt 0.923077 0.000000
vt 0.125000 1.000000
vt 0.375000 1.000000
vt 0.625000 1.000000
vt 0.875000 1.000000
s 0
f 9/1/1 8/2/1 7/3/1
f 4/4/1 11/5/1 10/6/1
f 7/3/1 6/7/1 5/8/1
f 5/8/1 4/4/1 7/3/1
f 4/4/1 10/6/1 7/3/1
f 9/1/1 7/3/1 10/6/1
f 16/9/1 15/10/1 14/11/1
f 14/11/1 17/12/1 16/9/1
f 22/13/1 21/14/1 23/15/1
f 23/15/1 21/14/1 20/16/1
f 18/17/1 25/18/1 19/19/1
f 24/20/1 19/19/1 25/18/1
f 3/21/1 2/22/1 1/23/1
f 1/23/1 13/24/1 3/21/1
f 3/21/1 13/24/1 12/25/1
f 19/19/1 24/20/1 20/16/1
f 23/15/1 20/16/1 24/20/1
f 11/5/1 4/4/1 3/21/1
f 3/21/1 12/25/1 11/5/1
f 30/26/1 29/27/1 28/28/1
f 33/18/1 32/29/1 26/23/1
f 28/28/1 27/30/1 26/23/1
f 26/23/1 32/29/1 28/28/1
f 32/29/1 31/31/1 28/28/1
f 30/26/1 28/28/1 31/31/1
f 36/8/1 35/21/1 37/3/1
f 37/3/1 35/21/1 45/15/1
f 41/10/1 44/14/1 43/19/1
f 43/19/1 42/12/1 41/10/1
f 45/15/1 35/21/1 34/23/1
f 34/23/1 46/18/1 45/15/1
f 37/3/1 45/15/1 44/14/1
f 38/1/1 37/3/1 44/14/1
f 44/14/1 41/10/1 38/1/1
f 41/10/1 40/24/1 38/1/1
f 39/5/1 38/1/1 40/24/1
f 63/32/1 62/33/1 68/34/1
f 68/34/1 67/35/1 63/32/1
f 63/32/1 67/35/1 64/36/1
f 66/37/1 65/38/1 70/39/1
f 66/37/1 64/36/1 67/35/1
f 49/40/1 48/41/1 47/23/1
f 47/23/1 50/42/1 49/40/1
f 71/43/1 61/44/1 59/45/1
f 59/45/1 58/46/1 71/43/1
f 72/18/1 71/43/1 58/46/1
f 59/45/1 61/44/1 60/47/1
f 57/48/1 69/49/1 72/18/1
f 72/18/1 58/46/1 57/48/1
f 53/50/1 56/51/1 55/52/1
f 55/52/1 54/53/1 53/50/1
f 70/39/1 65/38/1 61/44/1
f 61/44/1 71/43/1 70/39/1
f 66/37/1 70/39/1 69/49/1
f 64/36/1 66/37/1 69/49/1
f 69/49/1 57/48/1 64/36/1
f 47/23/1 64/36/1 57/48/1
f 57/48/1 56/51/1 47/23/1
f 50/42/1 47/23/1 56/51/1
f 56/51/1 53/50/1 50/42/1
f 51/54/1 50/42/1 53/50/1
f 53/50/1 52/55/1 51/54/1
f 68/34/1 62/33/1 65/38/1
f 62/33/1 61/44/1 65/38/1
f 81/1/2 79/3/2 80/2/2
f 76/4/2 82/6/2 83/5/2
f 79/3/2 77/8/2 78/7/2
f 77/8/2 79/3/2 76/4/2
f 76/4/2 79/3/2 82/6/2
f 81/1/2 82/6/2 79/3/2
f 88/9/2 86/11/2 87/10/2
f 86/11/2 88/9/2 89/12/2
f 94/13/2 95/15/2 93/14/2
f 95/15/2 92/16/2 93/14/2
f 90/17/2 91/19/2 97/18/2
f 96/20/2 97/18/2 91/19/2
f 75/21/2 73/23/2 74/22/2
f 73/23/2 75/21/2 85/24/2
f 75/21/2 84/25/2 85/24/2
f 91/19/2 92/16/2 96/20/2
f 95/15/2 96/20/2 92/16/2
f 83/5/2 75/21/2 76/4/2
f 75/21/2 83/5/2 84/25/2
f 102/26/2 100/28/2 101/27/2
f 105/18/2 98/23/2 104/29/2
f 100/28/2 98/23/2 99/30/2
f 98/23/2 100/28/2 104/29/2
f 104/29/2 100/28/2 103/31/2
f 102/26/2 103/31/2 100/28/2
f 108/8/2 109/3/2 107/21/2
f 109/3/2 117/15/2 107/21/2
f 113/10/2 115/19/2 116/14/2
f 115/19/2 113/10/2 114/12/2
f 117/15/2 106/23/2 107/21/2
f 106/23/2 117/15/2 118/18/2
f 109/3/2 116/14/2 117/15/2
f 110/1/2 116/14/2 109/3/2
f 116/14/2 110/1/2 113/10/2
f 113/10/2 110/1/2 112/24/2
f 111/5/2 112/24/2 110/1/2
f 135/32/2 140/34/2 134/33/2
f 140/34/2 135/32/2 139/35/2
f 135/32/2 136/36/2 139/35/2
f 138/37/2 142/39/2 137/38/2
f 138/37/2 139/35/2 136/36/2
f 121/40/2 119/23/2 120/41/2
f 119/23/2 121/40/2 122/42/2
f 143/43/2 131/45/2 133/44/2
f 131/45/2 143/43/2 130/46/2
f 144/18/2 130/46/2 143/43/2
f 131/45/2 132/47/2 133/44/2
f 129/48/2 144/18/2 141/49/2
f 144/18/2 129/48/2 130/46/2
f 125/50/2 127/52/2 128/51/2
f 127/52/2 125/50/2 126/53/2
f 142/39/2 133/44/2 137/38/2
f 133/44/2 142/39/2 143/43/2
f 138/37/2 141/49/2 142/39/2
f 136/36/2 141/49/2 138/37/2
f 141/49/2 136/36/2 129/48/2
f 119/23/2 129/48/2 136/36/2
f 129/48/2 119/23/2 128/51/2
f 122/42/2 128/51/2 119/23/2
f 128/51/2 122/42/2 125/50/2
f 123/54/2 125/50/2 122/42/2
f 125/50/2 123/54/2 124/55/2
f 140/34/2 137/38/2 134/33/2
f 134/33/2 137/38/2 133/44/2
s 1
f 148/56/3 145/23/4 146/57/4
f 150/58/5 147/59/6 148/56/3
f 152/60/7 149/61/8 150/58/5
f 154/62/9 151/8/9 152/60/7
f 156/63/10 153/64/7 154/62/9
f 158/65/11 155/66/11 156/63/10
f 160/67/12 157/1/10 158/65/11
f 162/68/13 159/69/12 160/67/12
f 164/70/14 161/71/15 162/68/13
f 166/72/16 163/24/14 164/70/14
f 168/73/17 165/74/16 166/72/16
f 170/75/18 167/76/17 168/73/17
f 172/77/19 169/12/18 170/75/18
f 174/78/20 171/79/19 172/77/19
f 176/80/21 173/81/20 174/78/20
f 178/82/22 175/14/21 176/80/21
f 180/83/23 177/84/22 178/82/22
f 146/85/4 179/86/23 180/83/23
f 184/87/24 181/23/25 182/57/25
f 186/70/26 183/3/24 184/87/24
f 188/88/27 185/24/26 186/70/26
f 182/85/25 187/19/27 188/88/27
f 192/87/28 189/23/29 190/57/29
f 194/70/30 191/3/31 192/87/28
f 196/88/32 193/24/33 194/70/30
f 190/85/29 195/19/32 196/88/32
f 200/89/34 197/23/13 198/57/13
f 202/90/35 199/91/34 200/89/34
f 204/92/36 201/93/35 202/90/35
f 206/94/37 203/95/36 204/92/36
f 208/96/38 205/97/37 206/94/37
f 210/98/39 207/99/40 208/96/38
f 212/100/41 209/101/39 210/98/39
f 214/102/42 211/103/41 212/100/41
f 216/104/43 213/105/44 214/102/42
f 218/106/43 215/107/45 216/104/43
f 220/108/12 217/109/43 218/106/43
f 222/110/12 219/111/12 220/108/12
f 198/85/13 221/112/12 222/110/12
f 226/113/46 223/23/47 224/57/47
f 228/87/46 225/4/46 226/113/46
f 230/114/48 227/3/46 228/87/46
f 232/70/49 229/6/48 230/114/48
f 234/115/50 231/24/49 232/70/49
f 236/88/50 233/9/50 234/115/50
f 238/116/51 235/19/50 236/88/50
f 224/85/47 237/13/51 238/116/51
f 242/89/52 239/23/53 240/57/53
f 244/90/54 241/91/54 242/89/52
f 246/92/55 243/93/52 244/90/54
f 248/94/56 245/95/56 246/92/55
f 250/96/57 247/97/55 248/94/56
f 252/98/58 249/99/58 250/96/57
f 254/100/59 251/101/60 252/98/58
f 256/102/61 253/103/62 254/100/59
f 258/104/50 255/105/63 256/102/61
f 260/106/50 257/107/50 258/104/50
f 262/108/50 259/109/50 260/106/50
f 264/110/64 261/111/50 262/108/50
f 240/85/53 263/112/64 264/110/64
f 268/87/65 265/23/66 266/57/67
f 270/70/68 267/3/69 268/87/65
f 272/88/70 269/24/71 270/70/68
f 266/85/67 271/19/72 272/88/70
f 276/113/73 273/23/74 274/57/75
f 278/87/73 275/4/73 276/113/73
f 280/114/48 277/3/76 278/87/73
f 282/70/49 279/6/48 280/114/48
f 284/115/50 281/24/49 282/70/49
f 286/88/50 283/9/50 284/115/50
f 288/116/77 285/19/50 286/88/50
f 274/85/75 287/13/77 288/116/77
f 148/56/3 147/59/6 145/23/4
f 150/58/5 149/61/8 147/59/6
f 152/60/7 151/8/9 149/61/8
f 154/62/9 153/64/7 151/8/9
f 156/63/10 155/66/11 153/64/7
f 158/65/11 157/1/10 155/66/11
f 160/67/12 159/69/12 157/1/10
f 162/68/13 161/71/15 159/69/12
f 164/70/14 163/24/14 161/71/15
f 166/72/16 165/74/16 163/24/14
f 168/73/17 167/76/17 165/74/16
f 170/75/18 169/12/18 167/76/17
f 172/77/19 171/79/19 169/12/18
f 174/78/20 173/81/20 171/79/19
f 176/80/21 175/14/21 173/81/20
f 178/82/22 177/84/22 175/14/21
f 180/83/23 179/86/23 177/84/22
f 146/85/4 145/18/4 179/86/23
f 184/87/24 183/3/24 181/23/25
f 186/70/26 185/24/26 183/3/24
f 188/88/27 187/19/27 185/24/26
f 182/85/25 181/18/25 187/19/27
f 192/87/28 191/3/31 189/23/29
f 194/70/30 193/24/33 191/3/31
f 196/88/32 195/19/32 193/24/33
f 190/85/29 189/18/29 195/19/32
f 200/89/34 199/91/34 197/23/13
f 202/90/35 201/93/35 199/91/34
f 204/92/36 203/95/36 201/93/35
f 206/94/37 205/97/37 203/95/36
f 208/96/38 207/99/40 205/97/37
f 210/98/39 209/101/39 207/99/40
f 212/100/41 211/103/41 209/101/39
f 214/102/42 213/105/44 211/103/41
f 216/104/43 215/107/45 213/105/44
f 218/106/43 217/109/43 215/107/45
f 220/108/12 219/111/12 217/109/43
f 222/110/12 221/112/12 219/111/12
f 198/85/13 197/18/13 221/112/12
f 226/113/46 225/4/46 223/23/47
f 228/87/46 227/3/46 225/4/46
f 230/114/48 229/6/48 227/3/46
f 232/70/49 231/24/49 229/6/48
f 234/115/50 233/9/50 231/24/49
f 236/88/50 235/19/50 233/9/50
f 238/116/51 237/13/51 235/19/50
f 224/85/47 223/18/47 237/13/51
f 242/89/52 241/91/54 239/23/53
f 244/90/54 243/93/52 241/91/54
f 246/92/55 245/95/56 243/93/52
f 248/94/56 247/97/55 245/95/56
f 250/96/57 249/99/58 247/97/55
f 252/98/58 251/101/60 249/99/58
f 254/100/59 253/103/62 251/101/60
f 256/102/61 255/105/63 253/103/62
f 258/104/50 257/107/50 255/105/63
f 260/106/50 259/109/50 257/107/50
f 262/108/50 261/111/50 259/109/50
f 264/110/64 263/112/64 261/111/50
f 240/85/53 239/18/53 263/112/64
f 268/87/65 267/3/69 265/23/66
f 270/70/68 269/24/71 267/3/69
f 272/88/70 271/19/72 269/24/71
f 266/85/67 265/18/66 271/19/72
f 276/113/73 275/4/73 273/23/74
f 278/87/73 277/3/76 275/4/73
f 280/114/48 279/6/48 277/3/76
f 282/70/49 281/24/49 279/6/48
f 284/115/50 283/9/50 281/24/49
f 286/88/50 285/19/50 283/9/50
f 288/116/77 287/13/77 285/19/50
f 274/85/75 273/18/74 287/13/77
