{
	"asset":{
		"generator":"Khronos glTF Blender I/O v4.4.56",
		"version":"2.0"
	},
	"scene":0,
	"scenes":[
		{
			"name":"Scene",
			"nodes":[
				0
			]
		}
	],
	"nodes":[
		{
			"mesh":0,
			"name":"horse_statue_01"
		}
	],
	"materials":[
		{
			"doubleSided":true,
			"name":"horse_statue_01",
			"normalTexture":{
				"index":0
			},
			"pbrMetallicRoughness":{
				"baseColorTexture":{
					"index":1
				},
				"metallicFactor":0,
				"metallicRoughnessTexture":{
					"index":2
				}
			}
		},
		{
			"doubleSided":true,
			"name":"horse_statue_01_base",
			"normalTexture":{
				"index":3
			},
			"pbrMetallicRoughness":{
				"baseColorTexture":{
					"index":4
				},
				"metallicFactor":0,
				"metallicRoughnessTexture":{
					"index":5
				}
			}
		}
	],
	"meshes":[
		{
			"name":"Plane",
			"primitives":[
				{
					"attributes":{
						"POSITION":0,
						"NORMAL":1,
						"TEXCOORD_0":2
					},
					"indices":3,
					"material":0
				},
				{
					"attributes":{
						"POSITION":4,
						"NORMAL":5,
						"TEXCOORD_0":6
					},
					"indices":7,
					"material":1
				}
			]
		}
	],
	"textures":[
		{
			"sampler":0,
			"source":0
		},
		{
			"sampler":0,
			"source":1
		},
		{
			"sampler":0,
			"source":2
		},
		{
			"sampler":0,
			"source":0
		},
		{
			"sampler":0,
			"source":1
		},
		{
			"sampler":0,
			"source":2
		}
	],
	"images":[
		{
			"mimeType":"image/png",
			"name":"horse_statue_01_nor_gl",
			"uri":"horse_statue_01_nor_gl.png"
		},
		{
			"mimeType":"image/jpeg",
			"name":"horse_statue_01_diff",
			"uri":"horse_statue_01_diff.jpg"
		},
		{
			"mimeType":"image/png",
			"name":"horse_statue_01_rough",
			"uri":"horse_statue_01_rough.png"
		}
	],
	"accessors":[
		{
			"bufferView":0,
			"componentType":5126,
			"count":12255,
			"max":[
				0.07783335447311401,
				0.21999721229076385,
				0.053308602422475815
			],
			"min":[
				-0.08515907824039459,
				0.011014513671398163,
				-0.05248892307281494
			],
			"type":"VEC3"
		},
		{
			"bufferView":1,
			"componentType":5126,
			"count":12255,
			"type":"VEC3"
		},
		{
			"bufferView":2,
			"componentType":5126,
			"count":12255,
			"type":"VEC2"
		},
		{
			"bufferView":3,
			"componentType":5123,
			"count":65724,
			"type":"SCALAR"
		},
		{
			"bufferView":4,
			"componentType":5126,
			"count":337,
			"max":[
				0.05958269536495209,
				0.011499738320708275,
				0.053880687803030014
			],
			"min":[
				-0.059524279087781906,
				1.830275505199097e-05,
				-0.05391017720103264
			],
			"type":"VEC3"
		},
		{
			"bufferView":5,
			"componentType":5126,
			"count":337,
			"type":"VEC3"
		},
		{
			"bufferView":6,
			"componentType":5126,
			"count":337,
			"type":"VEC2"
		},
		{
			"bufferView":7,
			"componentType":5123,
			"count":1440,
			"type":"SCALAR"
		}
	],
	"bufferViews":[
		{
			"buffer":0,
			"byteLength":147060,
			"byteOffset":0,
			"target":34962
		},
		{
			"buffer":0,
			"byteLength":147060,
			"byteOffset":147060,
			"target":34962
		},
		{
			"buffer":0,
			"byteLength":98040,
			"byteOffset":294120,
			"target":34962
		},
		{
			"buffer":0,
			"byteLength":131448,
			"byteOffset":392160,
			"target":34963
		},
		{
			"buffer":0,
			"byteLength":4044,
			"byteOffset":523608,
			"target":34962
		},
		{
			"buffer":0,
			"byteLength":4044,
			"byteOffset":527652,
			"target":34962
		},
		{
			"buffer":0,
			"byteLength":2696,
			"byteOffset":531696,
			"target":34962
		},
		{
			"buffer":0,
			"byteLength":2880,
			"byteOffset":534392,
			"target":34963
		}
	],
	"samplers":[
		{
			"magFilter":9729,
			"minFilter":9987
		}
	],
	"buffers":[
		{
			"byteLength":537272,
			"uri":"horse.bin"
		}
	]
}
