{
	"asset":{
		"generator":"Khronos glTF Blender I/O v4.4.56",
		"version":"2.0"
	},
	"scene":0,
	"scenes":[
		{
			"name":"Scene",
			"nodes":[
				0
			]
		}
	],
	"nodes":[
		{
			"mesh":0,
			"name":"Cube"
		}
	],
	"materials":[
		{
			"doubleSided":true,
			"name":"Material"
		}
	],
	"meshes":[
		{
			"name":"Cube",
			"primitives":[
				{
					"attributes":{
						"POSITION":0,
						"NORMAL":1,
						"TEXCOORD_0":2
					},
					"indices":3,
					"material":0
				}
			]
		}
	],
	"accessors":[
		{
			"bufferView":0,
			"componentType":5126,
			"count":10936,
			"max":[
				1.4166970252990723,
				1.3860256671905518,
				1.4009521007537842
			],
			"min":[
				-1.4257164001464844,
				-1.3771491050720215,
				-1.3230466842651367
			],
			"type":"VEC3"
		},
		{
			"bufferView":1,
			"componentType":5126,
			"count":10936,
			"type":"VEC3"
		},
		{
			"bufferView":2,
			"componentType":5126,
			"count":10936,
			"type":"VEC2"
		},
		{
			"bufferView":3,
			"componentType":5123,
			"count":63504,
			"type":"SCALAR"
		}
	],
	"bufferViews":[
		{
			"buffer":0,
			"byteLength":131232,
			"byteOffset":0,
			"target":34962
		},
		{
			"buffer":0,
			"byteLength":131232,
			"byteOffset":131232,
			"target":34962
		},
		{
			"buffer":0,
			"byteLength":87488,
			"byteOffset":262464,
			"target":34962
		},
		{
			"buffer":0,
			"byteLength":127008,
			"byteOffset":349952,
			"target":34963
		}
	],
	"buffers":[
		{
			"byteLength":476960,
			"uri":"ice_highPolygon.bin"
		}
	]
}
