# Blender 5.2.1 LTS
# www.blender.org
mtllib energy.mtl
o Sphere
v 0.000000 2.000000 0.000000
v 0.000000 1.831470 -0.555570
v 0.000000 1.555570 -0.831470
v 0.000000 1.195090 -0.980785
v 0.000000 1.000000 -1.000000
v 0.000000 0.804910 -0.980785
v 0.000000 0.444430 -0.831470
v 0.000000 0.000000 0.000000
v 0.038060 1.980785 -0.191342
v 0.074658 1.923880 -0.375330
v 0.108386 1.831470 -0.544895
v 0.137950 1.707107 -0.693520
v 0.162212 1.555570 -0.815493
v 0.180240 1.382684 -0.906127
v 0.191342 1.195090 -0.961940
v 0.195090 1.000000 -0.980785
v 0.191342 0.804910 -0.961940
v 0.180240 0.617317 -0.906127
v 0.162212 0.444430 -0.815493
v 0.137950 0.292893 -0.693520
v 0.108386 0.168530 -0.544895
v 0.074658 0.076120 -0.375330
v 0.038060 0.019215 -0.191342
v 0.074658 1.980785 -0.180240
v 0.146447 1.923880 -0.353553
v 0.212608 1.831470 -0.513280
v 0.270598 1.707107 -0.653281
v 0.318190 1.555570 -0.768178
v 0.353553 1.382684 -0.853553
v 0.375330 1.195090 -0.906127
v 0.382683 1.000000 -0.923879
v 0.375330 0.804910 -0.906127
v 0.353553 0.617317 -0.853553
v 0.318190 0.444430 -0.768178
v 0.270598 0.292893 -0.653281
v 0.212608 0.168530 -0.513280
v 0.146447 0.076120 -0.353553
v 0.074658 0.019215 -0.180240
v 0.108386 1.980785 -0.162212
v 0.212608 1.923880 -0.318190
v 0.308658 1.831470 -0.461940
v 0.392847 1.707107 -0.587938
v 0.461940 1.555570 -0.691342
v 0.513280 1.382684 -0.768178
v 0.544895 1.195090 -0.815493
v 0.555570 1.000000 -0.831469
v 0.544895 0.804910 -0.815493
v 0.513280 0.617317 -0.768178
v 0.461940 0.444430 -0.691342
v 0.392847 0.292893 -0.587938
v 0.308658 0.168530 -0.461940
v 0.212608 0.076120 -0.318190
v 0.108386 0.019215 -0.162212
v 0.137950 1.980785 -0.137950
v 0.270598 1.923880 -0.270598
v 0.392847 1.831470 -0.392847
v 0.500000 1.707107 -0.500000
v 0.587938 1.555570 -0.587938
v 0.653281 1.382684 -0.653281
v 0.693520 1.195090 -0.693520
v 0.707107 1.000000 -0.707107
v 0.693520 0.804910 -0.693520
v 0.653281 0.617317 -0.653281
v 0.587938 0.444430 -0.587938
v 0.500000 0.292893 -0.500000
v 0.392847 0.168530 -0.392847
v 0.270598 0.076120 -0.270598
v 0.137950 0.019215 -0.137950
v 0.162212 1.980785 -0.108386
v 0.318190 1.923880 -0.212608
v 0.461940 1.831470 -0.308658
v 0.587938 1.707107 -0.392847
v 0.691342 1.555570 -0.461940
v 0.768178 1.382684 -0.513280
v 0.815493 1.195090 -0.544895
v 0.831470 1.000000 -0.555570
v 0.815493 0.804910 -0.544895
v 0.768178 0.617317 -0.513280
v 0.691342 0.444430 -0.461940
v 0.587938 0.292893 -0.392847
v 0.461940 0.168530 -0.308658
v 0.318190 0.076120 -0.212608
v 0.162212 0.019215 -0.108386
v 0.180240 1.980785 -0.074658
v 0.353553 1.923880 -0.146447
v 0.513280 1.831470 -0.212607
v 0.653281 1.707107 -0.270598
v 0.768178 1.555570 -0.318190
v 0.853553 1.382684 -0.353553
v 0.906127 1.195090 -0.375330
v 0.923879 1.000000 -0.382683
v 0.906127 0.804910 -0.375330
v 0.853553 0.617317 -0.353553
v 0.768178 0.444430 -0.318190
v 0.653281 0.292893 -0.270598
v 0.513280 0.168530 -0.212607
v 0.353553 0.076120 -0.146447
v 0.180240 0.019215 -0.074658
v 0.191342 1.980785 -0.038060
v 0.375330 1.923880 -0.074658
v 0.544895 1.831470 -0.108386
v 0.693520 1.707107 -0.137950
v 0.815493 1.555570 -0.162212
v 0.906127 1.382684 -0.180240
v 0.961940 1.195090 -0.191342
v 0.980785 1.000000 -0.195090
v 0.961940 0.804910 -0.191342
v 0.906127 0.617317 -0.180240
v 0.815493 0.444430 -0.162212
v 0.693520 0.292893 -0.137950
v 0.544895 0.168530 -0.108386
v 0.375330 0.076120 -0.074658
v 0.191342 0.019215 -0.038060
v 0.195090 1.980785 0.000000
v 0.382683 1.923880 0.000000
v 0.555570 1.831470 0.000000
v 0.707107 1.707107 -0.000000
v 0.831469 1.555570 0.000000
v 0.923879 1.382684 -0.000000
v 0.980785 1.195090 0.000000
v 1.000000 1.000000 0.000000
v 0.980785 0.804910 0.000000
v 0.923879 0.617317 -0.000000
v 0.831469 0.444430 0.000000
v 0.707107 0.292893 -0.000000
v 0.555570 0.168530 0.000000
v 0.382683 0.076120 0.000000
v 0.195090 0.019215 0.000000
v 0.191342 1.980785 0.038060
v 0.375330 1.923880 0.074658
v 0.544895 1.831470 0.108386
v 0.693520 1.707107 0.137950
v 0.815493 1.555570 0.162212
v 0.906127 1.382684 0.180240
v 0.961940 1.195090 0.191342
v 0.980785 1.000000 0.195090
v 0.961940 0.804910 0.191342
v 0.906127 0.617317 0.180240
v 0.815493 0.444430 0.162212
v 0.693520 0.292893 0.137950
v 0.544895 0.168530 0.108386
v 0.375330 0.076120 0.074658
v 0.191342 0.019215 0.038060
v 0.180240 1.980785 0.074658
v 0.353553 1.923880 0.146447
v 0.513280 1.831470 0.212608
v 0.653281 1.707107 0.270598
v 0.768178 1.555570 0.318190
v 0.853553 1.382684 0.353553
v 0.906127 1.195090 0.375330
v 0.923879 1.000000 0.382683
v 0.906127 0.804910 0.375330
v 0.853553 0.617317 0.353553
v 0.768178 0.444430 0.318190
v 0.653281 0.292893 0.270598
v 0.513280 0.168530 0.212608
v 0.353553 0.076120 0.146447
v 0.180240 0.019215 0.074658
v 0.162212 1.980785 0.108386
v 0.318190 1.923880 0.212608
v 0.461940 1.831470 0.308658
v 0.587938 1.707107 0.392847
v 0.691341 1.555570 0.461940
v 0.768178 1.382684 0.513280
v 0.815493 1.195090 0.544895
v 0.831469 1.000000 0.555570
v 0.815493 0.804910 0.544895
v 0.768178 0.617317 0.513280
v 0.691341 0.444430 0.461940
v 0.587938 0.292893 0.392847
v 0.461940 0.168530 0.308658
v 0.318190 0.076120 0.212608
v 0.162212 0.019215 0.108386
v 0.137950 1.980785 0.137950
v 0.270598 1.923880 0.270598
v 0.392847 1.831470 0.392847
v 0.500000 1.707107 0.500000
v 0.587938 1.555570 0.587938
v 0.653281 1.382684 0.653281
v 0.693520 1.195090 0.693520
v 0.707106 1.000000 0.707107
v 0.693520 0.804910 0.693520
v 0.653281 0.617317 0.653281
v 0.587938 0.444430 0.587938
v 0.500000 0.292893 0.500000
v 0.392847 0.168530 0.392847
v 0.270598 0.076120 0.270598
v 0.137950 0.019215 0.137950
v 0.108386 1.980785 0.162212
v 0.212607 1.923880 0.318190
v 0.308658 1.831470 0.461940
v 0.392847 1.707107 0.587938
v 0.461940 1.555570 0.691342
v 0.513280 1.382684 0.768178
v 0.544895 1.195090 0.815493
v 0.555570 1.000000 0.831469
v 0.544895 0.804910 0.815493
v 0.513280 0.617317 0.768178
v 0.461940 0.444430 0.691342
v 0.392847 0.292893 0.587938
v 0.308658 0.168530 0.461940
v 0.212607 0.076120 0.318190
v 0.108386 0.019215 0.162212
v 0.074658 1.980785 0.180240
v 0.146447 1.923880 0.353553
v 0.212607 1.831470 0.513280
v 0.270598 1.707107 0.653281
v 0.318189 1.555570 0.768178
v 0.353553 1.382684 0.853553
v 0.375330 1.195090 0.906127
v 0.382683 1.000000 0.923879
v 0.375330 0.804910 0.906127
v 0.353553 0.617317 0.853553
v 0.318189 0.444430 0.768178
v 0.270598 0.292893 0.653281
v 0.212607 0.168530 0.513280
v 0.146447 0.076120 0.353553
v 0.074658 0.019215 0.180240
v 0.038060 1.980785 0.191342
v 0.074658 1.923880 0.375330
v 0.108386 1.831470 0.544895
v 0.137950 1.707107 0.693520
v 0.162212 1.555570 0.815493
v 0.180240 1.382684 0.906127
v 0.191342 1.195090 0.961939
v 0.195090 1.000000 0.980785
v 0.191342 0.804910 0.961939
v 0.180240 0.617317 0.906127
v 0.162212 0.444430 0.815493
v 0.137950 0.292893 0.693520
v 0.108386 0.168530 0.544895
v 0.074658 0.076120 0.375330
v 0.038060 0.019215 0.191342
v -0.000000 1.980785 0.195090
v -0.000000 1.923880 0.382683
v -0.000000 1.831470 0.555570
v -0.000000 1.707107 0.707107
v -0.000000 1.555570 0.831469
v 0.000000 1.382684 0.923879
v -0.000000 1.195090 0.980785
v -0.000000 1.000000 0.999999
v -0.000000 0.804910 0.980785
v 0.000000 0.617317 0.923879
v -0.000000 0.444430 0.831469
v -0.000000 0.292893 0.707107
v -0.000000 0.168530 0.555570
v -0.000000 0.076120 0.382683
v -0.000000 0.019215 0.195090
v -0.038060 1.980785 0.191342
v -0.074658 1.923880 0.375330
v -0.108386 1.831470 0.544895
v -0.137950 1.707107 0.693520
v -0.162212 1.555570 0.815493
v -0.180240 1.382684 0.906127
v -0.191342 1.195090 0.961939
v -0.195091 1.000000 0.980785
v -0.191342 0.804910 0.961939
v -0.180240 0.617317 0.906127
v -0.162212 0.444430 0.815493
v -0.137950 0.292893 0.693520
v -0.108386 0.168530 0.544895
v -0.074658 0.076120 0.375330
v -0.038060 0.019215 0.191342
v -0.074658 1.980785 0.180240
v -0.146447 1.923880 0.353553
v -0.212608 1.831470 0.513280
v -0.270598 1.707107 0.653281
v -0.318190 1.555570 0.768177
v -0.353553 1.382684 0.853553
v -0.375330 1.195090 0.906127
v -0.382683 1.000000 0.923879
v -0.375330 0.804910 0.906127
v -0.353553 0.617317 0.853553
v -0.318190 0.444430 0.768177
v -0.270598 0.292893 0.653281
v -0.212608 0.168530 0.513280
v -0.146447 0.076120 0.353553
v -0.074658 0.019215 0.180240
v -0.108386 1.980785 0.162212
v -0.212608 1.923880 0.318190
v -0.308658 1.831470 0.461939
v -0.392847 1.707107 0.587938
v -0.461940 1.555570 0.691341
v -0.513280 1.382684 0.768178
v -0.544895 1.195090 0.815493
v -0.555570 1.000000 0.831469
v -0.544895 0.804910 0.815493
v -0.513280 0.617317 0.768178
v -0.461940 0.444430 0.691341
v -0.392847 0.292893 0.587938
v -0.308658 0.168530 0.461939
v -0.212608 0.076120 0.318190
v -0.108386 0.019215 0.162212
v -0.137950 1.980785 0.137950
v -0.270598 1.923880 0.270598
v -0.392847 1.831470 0.392847
v -0.500000 1.707107 0.500000
v -0.587938 1.555570 0.587937
v -0.653281 1.382684 0.653281
v -0.693520 1.195090 0.693520
v -0.707106 1.000000 0.707106
v -0.693520 0.804910 0.693520
v -0.653281 0.617317 0.653281
v -0.587938 0.444430 0.587937
v -0.500000 0.292893 0.500000
v -0.392847 0.168530 0.392847
v -0.270598 0.076120 0.270598
v -0.137950 0.019215 0.137950
v -0.162212 1.980785 0.108386
v -0.318190 1.923880 0.212607
v -0.461940 1.831470 0.308658
v -0.587938 1.707107 0.392847
v -0.691341 1.555570 0.461939
v -0.768177 1.382684 0.513280
v -0.815493 1.195090 0.544895
v -0.831469 1.000000 0.555569
v -0.815493 0.804910 0.544895
v -0.768177 0.617317 0.513280
v -0.691341 0.444430 0.461939
v -0.587938 0.292893 0.392847
v -0.461940 0.168530 0.308658
v -0.318190 0.076120 0.212607
v -0.162212 0.019215 0.108386
v -0.180240 1.980785 0.074658
v -0.353553 1.923880 0.146447
v -0.513280 1.831470 0.212607
v -0.653281 1.707107 0.270598
v -0.768177 1.555570 0.318189
v -0.853553 1.382684 0.353553
v -0.906127 1.195090 0.375330
v -0.923879 1.000000 0.382683
v -0.906127 0.804910 0.375330
v -0.853553 0.617317 0.353553
v -0.768177 0.444430 0.318189
v -0.653281 0.292893 0.270598
v -0.513280 0.168530 0.212607
v -0.353553 0.076120 0.146447
v -0.180240 0.019215 0.074658
v -0.191342 1.980785 0.038060
v -0.375330 1.923880 0.074658
v -0.544895 1.831470 0.108386
v -0.693520 1.707107 0.137950
v -0.815493 1.555570 0.162211
v -0.906127 1.382684 0.180240
v -0.961939 1.195090 0.191341
v -0.980784 1.000000 0.195090
v -0.961939 0.804910 0.191341
v -0.906127 0.617317 0.180240
v -0.815493 0.444430 0.162211
v -0.693520 0.292893 0.137950
v -0.544895 0.168530 0.108386
v -0.375330 0.076120 0.074658
v -0.191342 0.019215 0.038060
v -0.195090 1.980785 -0.000000
v -0.382683 1.923880 -0.000000
v -0.555570 1.831470 -0.000000
v -0.707107 1.707107 -0.000000
v -0.831469 1.555570 -0.000000
v -0.923879 1.382684 -0.000000
v -0.980785 1.195090 -0.000000
v -0.999999 1.000000 -0.000000
v -0.980785 0.804910 -0.000000
v -0.923879 0.617317 -0.000000
v -0.831469 0.444430 -0.000000
v -0.707107 0.292893 -0.000000
v -0.555570 0.168530 -0.000000
v -0.382683 0.076120 -0.000000
v -0.195090 0.019215 -0.000000
v -0.191342 1.980785 -0.038060
v -0.375330 1.923880 -0.074658
v -0.544895 1.831470 -0.108386
v -0.693520 1.707107 -0.137950
v -0.815493 1.555570 -0.162212
v -0.906127 1.382684 -0.180240
v -0.961939 1.195090 -0.191342
v -0.980784 1.000000 -0.195091
v -0.961939 0.804910 -0.191342
v -0.906127 0.617317 -0.180240
v -0.815493 0.444430 -0.162212
v -0.693520 0.292893 -0.137950
v -0.544895 0.168530 -0.108386
v -0.375330 0.076120 -0.074658
v -0.191342 0.019215 -0.038060
v -0.180240 1.980785 -0.074658
v -0.353553 1.923880 -0.146447
v -0.513279 1.831470 -0.212607
v -0.653281 1.707107 -0.270598
v -0.768177 1.555570 -0.318190
v -0.853553 1.382684 -0.353553
v -0.906127 1.195090 -0.375330
v -0.923878 1.000000 -0.382683
v -0.906127 0.804910 -0.375330
v -0.853553 0.617317 -0.353553
v -0.768177 0.444430 -0.318190
v -0.653281 0.292893 -0.270598
v -0.513279 0.168530 -0.212607
v -0.353553 0.076120 -0.146447
v -0.180240 0.019215 -0.074658
v -0.162212 1.980785 -0.108386
v -0.318189 1.923880 -0.212607
v -0.461939 1.831470 -0.308658
v -0.587938 1.707107 -0.392847
v -0.691341 1.555570 -0.461940
v -0.768177 1.382684 -0.513280
v -0.815493 1.195090 -0.544895
v -0.831468 1.000000 -0.555570
v -0.815493 0.804910 -0.544895
v -0.768177 0.617317 -0.513280
v -0.691341 0.444430 -0.461940
v -0.587938 0.292893 -0.392847
v -0.461939 0.168530 -0.308658
v -0.318189 0.076120 -0.212607
v -0.162212 0.019215 -0.108386
v -0.137950 1.980785 -0.137950
v -0.270598 1.923880 -0.270598
v -0.392847 1.831470 -0.392847
v -0.500000 1.707107 -0.500000
v -0.587937 1.555570 -0.587938
v -0.653281 1.382684 -0.653281
v -0.693519 1.195090 -0.693520
v -0.707106 1.000000 -0.707106
v -0.693519 0.804910 -0.693520
v -0.653281 0.617317 -0.653281
v -0.587937 0.444430 -0.587938
v -0.500000 0.292893 -0.500000
v -0.392847 0.168530 -0.392847
v -0.270598 0.076120 -0.270598
v -0.137950 0.019215 -0.137950
v -0.108386 1.980785 -0.162212
v -0.212607 1.923880 -0.318190
v -0.308658 1.831470 -0.461939
v -0.392847 1.707107 -0.587938
v -0.461939 1.555570 -0.691341
v -0.513280 1.382684 -0.768177
v -0.544895 1.195090 -0.815493
v -0.555569 1.000000 -0.831469
v -0.544895 0.804910 -0.815493
v -0.513280 0.617317 -0.768177
v -0.461939 0.444430 -0.691341
v -0.392847 0.292893 -0.587938
v -0.308658 0.168530 -0.461939
v -0.212607 0.076120 -0.318190
v -0.108386 0.019215 -0.162212
v -0.074658 1.980785 -0.180240
v -0.146446 1.923880 -0.353553
v -0.212607 1.831470 -0.513279
v -0.270598 1.707107 -0.653281
v -0.318189 1.555570 -0.768177
v -0.353553 1.382684 -0.853553
v -0.375330 1.195090 -0.906127
v -0.382683 1.000000 -0.923879
v -0.375330 0.804910 -0.906127
v -0.353553 0.617317 -0.853553
v -0.318189 0.444430 -0.768177
v -0.270598 0.292893 -0.653281
v -0.212607 0.168530 -0.513279
v -0.146446 0.076120 -0.353553
v -0.074658 0.019215 -0.180240
v -0.038060 1.980785 -0.191342
v -0.074658 1.923880 -0.375330
v -0.108386 1.831470 -0.544895
v -0.137950 1.707107 -0.693520
v -0.162211 1.555570 -0.815493
v -0.180240 1.382684 -0.906127
v -0.191341 1.195090 -0.961939
v -0.195090 1.000000 -0.980784
v -0.191341 0.804910 -0.961939
v -0.180240 0.617317 -0.906127
v -0.162211 0.444430 -0.815493
v -0.137950 0.292893 -0.693520
v -0.108386 0.168530 -0.544895
v -0.074658 0.076120 -0.375330
v -0.038060 0.019215 -0.191342
v 0.000000 1.980785 -0.195090
v 0.000000 1.923880 -0.382683
v 0.000000 1.707107 -0.707107
v 0.000000 1.382684 -0.923879
v 0.000000 0.617317 -0.923879
v 0.000000 0.292893 -0.707107
v 0.000000 0.168530 -0.555570
v 0.000000 0.076120 -0.382683
v 0.000000 0.019215 -0.195090
vn 0.0759 0.6326 -0.7708
vn 0.0624 -0.7715 -0.6332
vn 0.0865 0.4696 -0.8786
vn 0.0464 -0.8810 -0.4709
vn 0.0938 0.2890 -0.9527
vn 0.0286 -0.9565 -0.2902
vn 0.0975 0.0975 -0.9904
vn 0.0097 0.9951 -0.0980
vn 0.0097 -0.9951 -0.0980
vn 0.0975 -0.0976 -0.9904
vn 0.0286 0.9565 -0.2902
vn 0.0938 -0.2890 -0.9527
vn 0.0464 0.8810 -0.4709
vn 0.0865 -0.4696 -0.8786
vn 0.0624 0.7715 -0.6332
vn 0.0759 -0.6326 -0.7708
vn 0.1847 0.7715 -0.6088
vn 0.2248 -0.6326 -0.7412
vn 0.2248 0.6326 -0.7412
vn 0.1847 -0.7715 -0.6088
vn 0.2563 0.4696 -0.8448
vn 0.1374 -0.8810 -0.4528
vn 0.2779 0.2890 -0.9161
vn 0.0846 -0.9565 -0.2790
vn 0.2889 0.0976 -0.9524
vn 0.0286 0.9951 -0.0942
vn 0.0286 -0.9951 -0.0942
vn 0.2889 -0.0976 -0.9524
vn 0.0846 0.9565 -0.2790
vn 0.2779 -0.2890 -0.9161
vn 0.1374 0.8810 -0.4528
vn 0.2563 -0.4696 -0.8448
vn 0.4691 0.0975 -0.8777
vn 0.0464 0.9951 -0.0869
vn 0.0464 -0.9951 -0.0869
vn 0.4691 -0.0975 -0.8777
vn 0.1374 0.9565 -0.2571
vn 0.4513 -0.2890 -0.8443
vn 0.2231 0.8810 -0.4173
vn 0.4162 -0.4696 -0.7786
vn 0.2999 0.7715 -0.5611
vn 0.3651 -0.6326 -0.6831
vn 0.3651 0.6326 -0.6831
vn 0.2999 -0.7715 -0.5611
vn 0.4162 0.4696 -0.7786
vn 0.2230 -0.8810 -0.4173
vn 0.4513 0.2890 -0.8443
vn 0.1374 -0.9565 -0.2571
vn 0.4913 -0.6326 -0.5987
vn 0.4913 0.6326 -0.5987
vn 0.4036 -0.7715 -0.4918
vn 0.5601 0.4696 -0.6825
vn 0.3002 -0.8810 -0.3658
vn 0.6073 0.2890 -0.7400
vn 0.1850 -0.9565 -0.2254
vn 0.6314 0.0975 -0.7693
vn 0.0625 0.9951 -0.0761
vn 0.0625 -0.9951 -0.0761
vn 0.6314 -0.0975 -0.7693
vn 0.1850 0.9565 -0.2254
vn 0.6073 -0.2890 -0.7400
vn 0.3002 0.8810 -0.3658
vn 0.5601 -0.4696 -0.6825
vn 0.4036 0.7715 -0.4918
vn 0.0761 0.9951 -0.0625
vn 0.0761 -0.9951 -0.0625
vn 0.7693 -0.0975 -0.6314
vn 0.2254 0.9565 -0.1850
vn 0.7400 -0.2890 -0.6073
vn 0.3658 0.8810 -0.3002
vn 0.6825 -0.4696 -0.5601
vn 0.4918 0.7715 -0.4036
vn 0.5987 -0.6326 -0.4913
vn 0.5987 0.6326 -0.4913
vn 0.4918 -0.7715 -0.4036
vn 0.6825 0.4696 -0.5601
vn 0.3658 -0.8810 -0.3002
vn 0.7400 0.2890 -0.6073
vn 0.2254 -0.9566 -0.1850
vn 0.7693 0.0975 -0.6314
vn 0.6831 0.6326 -0.3651
vn 0.5611 -0.7715 -0.2999
vn 0.7786 0.4696 -0.4162
vn 0.4173 -0.8810 -0.2230
vn 0.8443 0.2890 -0.4513
vn 0.2571 -0.9565 -0.1374
vn 0.8777 0.0975 -0.4691
vn 0.0869 0.9951 -0.0464
vn 0.0869 -0.9951 -0.0464
vn 0.8777 -0.0975 -0.4691
vn 0.2571 0.9565 -0.1374
vn 0.8443 -0.2890 -0.4513
vn 0.4173 0.8810 -0.2230
vn 0.7786 -0.4696 -0.4162
vn 0.5611 0.7715 -0.2999
vn 0.6831 -0.6326 -0.3651
vn 0.9524 -0.0975 -0.2889
vn 0.2790 0.9565 -0.0846
vn 0.9161 -0.2890 -0.2779
vn 0.4528 0.8810 -0.1374
vn 0.8448 -0.4696 -0.2563
vn 0.6088 0.7715 -0.1847
vn 0.7412 -0.6326 -0.2248
vn 0.7412 0.6326 -0.2248
vn 0.6088 -0.7715 -0.1847
vn 0.8448 0.4696 -0.2563
vn 0.4528 -0.8810 -0.1374
vn 0.9161 0.2890 -0.2779
vn 0.2790 -0.9565 -0.0846
vn 0.9524 0.0975 -0.2889
vn 0.0942 0.9951 -0.0286
vn 0.0942 -0.9951 -0.0286
vn 0.6332 -0.7715 -0.0624
vn 0.8786 0.4696 -0.0865
vn 0.4709 -0.8810 -0.0464
vn 0.9527 0.2890 -0.0938
vn 0.2902 -0.9565 -0.0286
vn 0.9904 0.0975 -0.0975
vn 0.0980 0.9951 -0.0097
vn 0.0980 -0.9951 -0.0097
vn 0.9904 -0.0975 -0.0975
vn 0.2902 0.9565 -0.0286
vn 0.9527 -0.2890 -0.0938
vn 0.4709 0.8810 -0.0464
vn 0.8786 -0.4696 -0.0865
vn 0.6332 0.7715 -0.0624
vn 0.7708 -0.6326 -0.0759
vn 0.7708 0.6326 -0.0759
vn 0.9527 -0.2890 0.0938
vn 0.4709 0.8810 0.0464
vn 0.8786 -0.4696 0.0865
vn 0.6332 0.7715 0.0624
vn 0.7708 -0.6326 0.0759
vn 0.7708 0.6326 0.0759
vn 0.6332 -0.7715 0.0624
vn 0.8786 0.4696 0.0865
vn 0.4709 -0.8810 0.0464
vn 0.9527 0.2890 0.0938
vn 0.2902 -0.9565 0.0286
vn 0.9904 0.0975 0.0976
vn 0.0980 0.9951 0.0097
vn 0.0980 -0.9951 0.0097
vn 0.9904 -0.0975 0.0976
vn 0.2902 0.9565 0.0286
vn 0.4528 -0.8810 0.1374
vn 0.9161 0.2890 0.2779
vn 0.2790 -0.9565 0.0846
vn 0.9524 0.0975 0.2889
vn 0.0942 0.9951 0.0286
vn 0.0942 -0.9951 0.0286
vn 0.9524 -0.0975 0.2889
vn 0.2790 0.9565 0.0846
vn 0.9161 -0.2890 0.2779
vn 0.4528 0.8810 0.1374
vn 0.8448 -0.4696 0.2563
vn 0.6088 0.7715 0.1847
vn 0.7412 -0.6326 0.2248
vn 0.7412 0.6326 0.2248
vn 0.6088 -0.7715 0.1847
vn 0.8448 0.4696 0.2563
vn 0.4173 0.8810 0.2231
vn 0.7786 -0.4696 0.4162
vn 0.5611 0.7715 0.2999
vn 0.6831 -0.6326 0.3651
vn 0.6831 0.6326 0.3651
vn 0.5611 -0.7715 0.2999
vn 0.7786 0.4696 0.4162
vn 0.4173 -0.8810 0.2230
vn 0.8443 0.2890 0.4513
vn 0.2571 -0.9565 0.1374
vn 0.8777 0.0975 0.4691
vn 0.0869 0.9951 0.0464
vn 0.0869 -0.9951 0.0464
vn 0.8777 -0.0975 0.4691
vn 0.2571 0.9565 0.1374
vn 0.8443 -0.2890 0.4513
vn 0.7400 0.2890 0.6073
vn 0.2254 -0.9565 0.1850
vn 0.7693 0.0975 0.6314
vn 0.0761 0.9951 0.0625
vn 0.0761 -0.9951 0.0625
vn 0.7693 -0.0975 0.6314
vn 0.2254 0.9565 0.1850
vn 0.7400 -0.2890 0.6073
vn 0.3658 0.8810 0.3002
vn 0.6825 -0.4696 0.5601
vn 0.4918 0.7715 0.4036
vn 0.5987 -0.6326 0.4913
vn 0.5987 0.6326 0.4913
vn 0.4918 -0.7715 0.4036
vn 0.6825 0.4696 0.5601
vn 0.3658 -0.8810 0.3002
vn 0.5601 -0.4696 0.6825
vn 0.4036 0.7715 0.4918
vn 0.4913 -0.6326 0.5987
vn 0.4913 0.6326 0.5987
vn 0.4036 -0.7715 0.4918
vn 0.5601 0.4696 0.6825
vn 0.3002 -0.8810 0.3658
vn 0.6073 0.2890 0.7400
vn 0.1850 -0.9565 0.2254
vn 0.6314 0.0975 0.7693
vn 0.0625 0.9951 0.0761
vn 0.0625 -0.9951 0.0761
vn 0.6314 -0.0975 0.7693
vn 0.1850 0.9565 0.2254
vn 0.6073 -0.2890 0.7400
vn 0.3002 0.8810 0.3658
vn 0.1374 -0.9565 0.2571
vn 0.4691 0.0975 0.8777
vn 0.0464 0.9951 0.0869
vn 0.0464 -0.9951 0.0869
vn 0.4691 -0.0975 0.8777
vn 0.1374 0.9565 0.2571
vn 0.4513 -0.2890 0.8443
vn 0.2230 0.8810 0.4173
vn 0.4162 -0.4696 0.7786
vn 0.2999 0.7715 0.5611
vn 0.3651 -0.6326 0.6831
vn 0.3651 0.6326 0.6831
vn 0.2999 -0.7715 0.5611
vn 0.4162 0.4696 0.7786
vn 0.2230 -0.8810 0.4173
vn 0.4513 0.2890 0.8443
vn 0.1847 0.7715 0.6088
vn 0.2248 -0.6326 0.7412
vn 0.2248 0.6326 0.7412
vn 0.1847 -0.7715 0.6088
vn 0.2563 0.4696 0.8448
vn 0.1374 -0.8810 0.4528
vn 0.2779 0.2890 0.9161
vn 0.0846 -0.9565 0.2790
vn 0.2889 0.0975 0.9524
vn 0.0286 0.9951 0.0942
vn 0.0286 -0.9951 0.0942
vn 0.2889 -0.0975 0.9524
vn 0.0846 0.9565 0.2790
vn 0.2779 -0.2890 0.9161
vn 0.1374 0.8810 0.4528
vn 0.2563 -0.4696 0.8448
vn 0.0975 0.0975 0.9904
vn 0.0097 0.9951 0.0980
vn 0.0097 -0.9951 0.0980
vn 0.0975 -0.0975 0.9904
vn 0.0286 0.9565 0.2902
vn 0.0938 -0.2890 0.9527
vn 0.0464 0.8810 0.4709
vn 0.0865 -0.4696 0.8786
vn 0.0624 0.7715 0.6332
vn 0.0759 -0.6326 0.7708
vn 0.0759 0.6326 0.7708
vn 0.0624 -0.7715 0.6332
vn 0.0865 0.4696 0.8786
vn 0.0464 -0.8810 0.4709
vn 0.0938 0.2890 0.9527
vn 0.0286 -0.9565 0.2902
vn -0.0759 -0.6326 0.7708
vn -0.0759 0.6326 0.7708
vn -0.0624 -0.7715 0.6332
vn -0.0865 0.4696 0.8786
vn -0.0464 -0.8810 0.4709
vn -0.0938 0.2890 0.9527
vn -0.0286 -0.9565 0.2902
vn -0.0976 0.0975 0.9904
vn -0.0097 0.9951 0.0980
vn -0.0097 -0.9951 0.0980
vn -0.0975 -0.0975 0.9904
vn -0.0286 0.9565 0.2902
vn -0.0938 -0.2890 0.9527
vn -0.0464 0.8810 0.4709
vn -0.0865 -0.4696 0.8786
vn -0.0624 0.7715 0.6332
vn -0.0286 -0.9951 0.0942
vn -0.2889 -0.0975 0.9524
vn -0.0846 0.9565 0.2790
vn -0.2779 -0.2890 0.9161
vn -0.1374 0.8810 0.4528
vn -0.2563 -0.4696 0.8448
vn -0.1847 0.7715 0.6088
vn -0.2248 -0.6326 0.7412
vn -0.2248 0.6326 0.7412
vn -0.1847 -0.7715 0.6088
vn -0.2563 0.4696 0.8448
vn -0.1374 -0.8810 0.4528
vn -0.2779 0.2890 0.9161
vn -0.0846 -0.9565 0.2790
vn -0.2889 0.0975 0.9524
vn -0.0286 0.9951 0.0942
vn -0.2999 -0.7715 0.5611
vn -0.4162 0.4696 0.7786
vn -0.2230 -0.8810 0.4173
vn -0.4513 0.2890 0.8443
vn -0.1374 -0.9565 0.2571
vn -0.4691 0.0975 0.8777
vn -0.0464 0.9951 0.0869
vn -0.0464 -0.9951 0.0869
vn -0.4691 -0.0975 0.8777
vn -0.1374 0.9565 0.2571
vn -0.4513 -0.2890 0.8443
vn -0.2230 0.8810 0.4173
vn -0.4162 -0.4696 0.7786
vn -0.2999 0.7715 0.5611
vn -0.3651 -0.6326 0.6831
vn -0.3651 0.6326 0.6831
vn -0.1850 0.9565 0.2254
vn -0.6073 -0.2890 0.7400
vn -0.3002 0.8810 0.3658
vn -0.5601 -0.4696 0.6825
vn -0.4036 0.7715 0.4918
vn -0.4913 -0.6326 0.5987
vn -0.4913 0.6326 0.5987
vn -0.4036 -0.7715 0.4918
vn -0.5601 0.4696 0.6825
vn -0.3002 -0.8810 0.3658
vn -0.6073 0.2890 0.7400
vn -0.1850 -0.9565 0.2254
vn -0.6314 0.0975 0.7693
vn -0.0625 0.9951 0.0761
vn -0.0625 -0.9951 0.0761
vn -0.6314 -0.0975 0.7693
vn -0.6825 0.4696 0.5601
vn -0.3658 -0.8810 0.3002
vn -0.7400 0.2890 0.6073
vn -0.2254 -0.9566 0.1850
vn -0.7693 0.0975 0.6314
vn -0.0761 0.9951 0.0625
vn -0.0761 -0.9951 0.0625
vn -0.7693 -0.0975 0.6314
vn -0.2254 0.9565 0.1850
vn -0.7400 -0.2890 0.6073
vn -0.3658 0.8810 0.3002
vn -0.6825 -0.4696 0.5601
vn -0.4918 0.7715 0.4036
vn -0.5987 -0.6326 0.4913
vn -0.5987 0.6326 0.4913
vn -0.4918 -0.7715 0.4036
vn -0.8443 -0.2890 0.4513
vn -0.4173 0.8810 0.2230
vn -0.7786 -0.4696 0.4162
vn -0.5611 0.7715 0.2999
vn -0.6831 -0.6326 0.3651
vn -0.6831 0.6326 0.3651
vn -0.5611 -0.7715 0.2999
vn -0.7786 0.4696 0.4162
vn -0.4173 -0.8810 0.2231
vn -0.8443 0.2890 0.4513
vn -0.2571 -0.9565 0.1374
vn -0.8777 0.0975 0.4691
vn -0.0869 0.9951 0.0464
vn -0.0869 -0.9951 0.0464
vn -0.8777 -0.0975 0.4691
vn -0.2571 0.9565 0.1374
vn -0.4528 -0.8810 0.1374
vn -0.9161 0.2890 0.2779
vn -0.2790 -0.9565 0.0846
vn -0.9524 0.0975 0.2889
vn -0.0942 0.9951 0.0286
vn -0.0942 -0.9951 0.0286
vn -0.9524 -0.0975 0.2889
vn -0.2790 0.9565 0.0846
vn -0.9161 -0.2890 0.2779
vn -0.4528 0.8810 0.1374
vn -0.8448 -0.4696 0.2563
vn -0.6088 0.7715 0.1847
vn -0.7412 -0.6326 0.2248
vn -0.7412 0.6326 0.2248
vn -0.6088 -0.7715 0.1847
vn -0.8448 0.4696 0.2563
vn -0.4709 0.8810 0.0464
vn -0.8786 -0.4696 0.0865
vn -0.6332 0.7715 0.0624
vn -0.7708 -0.6326 0.0759
vn -0.7708 0.6326 0.0759
vn -0.6332 -0.7715 0.0624
vn -0.8786 0.4696 0.0865
vn -0.4709 -0.8810 0.0464
vn -0.9527 0.2890 0.0938
vn -0.2902 -0.9565 0.0286
vn -0.9904 0.0975 0.0975
vn -0.0980 0.9951 0.0097
vn -0.0980 -0.9951 0.0097
vn -0.9904 -0.0975 0.0976
vn -0.2902 0.9565 0.0286
vn -0.9527 -0.2890 0.0938
vn -0.9527 0.2890 -0.0938
vn -0.2902 -0.9565 -0.0286
vn -0.9904 0.0975 -0.0975
vn -0.0980 0.9951 -0.0097
vn -0.0980 -0.9951 -0.0097
vn -0.9904 -0.0975 -0.0976
vn -0.2902 0.9565 -0.0286
vn -0.9527 -0.2890 -0.0938
vn -0.4709 0.8810 -0.0464
vn -0.8786 -0.4696 -0.0865
vn -0.6332 0.7715 -0.0624
vn -0.7708 -0.6326 -0.0759
vn -0.7708 0.6326 -0.0759
vn -0.6332 -0.7715 -0.0624
vn -0.8786 0.4696 -0.0865
vn -0.4709 -0.8810 -0.0464
vn -0.8448 -0.4696 -0.2563
vn -0.6088 0.7715 -0.1847
vn -0.7412 -0.6326 -0.2248
vn -0.7412 0.6326 -0.2248
vn -0.6088 -0.7715 -0.1847
vn -0.8448 0.4696 -0.2563
vn -0.4528 -0.8810 -0.1374
vn -0.9161 0.2890 -0.2779
vn -0.2790 -0.9565 -0.0846
vn -0.9524 0.0975 -0.2889
vn -0.0942 0.9951 -0.0286
vn -0.0942 -0.9951 -0.0286
vn -0.9524 -0.0975 -0.2889
vn -0.2790 0.9565 -0.0846
vn -0.9161 -0.2890 -0.2779
vn -0.4528 0.8810 -0.1374
vn -0.2571 -0.9565 -0.1374
vn -0.8777 0.0975 -0.4691
vn -0.0869 0.9951 -0.0464
vn -0.0869 -0.9951 -0.0464
vn -0.8777 -0.0975 -0.4691
vn -0.2571 0.9565 -0.1374
vn -0.8443 -0.2890 -0.4513
vn -0.4173 0.8810 -0.2231
vn -0.7786 -0.4696 -0.4162
vn -0.5611 0.7715 -0.2999
vn -0.6831 -0.6326 -0.3651
vn -0.6831 0.6326 -0.3651
vn -0.5611 -0.7715 -0.2999
vn -0.7786 0.4696 -0.4162
vn -0.4173 -0.8810 -0.2231
vn -0.8443 0.2890 -0.4513
vn -0.5987 -0.6326 -0.4913
vn -0.5987 0.6326 -0.4913
vn -0.4918 -0.7715 -0.4036
vn -0.6825 0.4696 -0.5601
vn -0.3658 -0.8810 -0.3002
vn -0.7400 0.2890 -0.6073
vn -0.2254 -0.9565 -0.1850
vn -0.7693 0.0975 -0.6314
vn -0.0761 0.9951 -0.0625
vn -0.0761 -0.9951 -0.0625
vn -0.7693 -0.0975 -0.6314
vn -0.2254 0.9565 -0.1850
vn -0.7400 -0.2890 -0.6073
vn -0.3658 0.8810 -0.3002
vn -0.6825 -0.4696 -0.5601
vn -0.4918 0.7715 -0.4036
vn -0.0625 0.9951 -0.0761
vn -0.0625 -0.9951 -0.0761
vn -0.6314 -0.0975 -0.7693
vn -0.1850 0.9565 -0.2254
vn -0.6073 -0.2890 -0.7400
vn -0.3002 0.8810 -0.3658
vn -0.5601 -0.4696 -0.6825
vn -0.4036 0.7715 -0.4918
vn -0.4913 -0.6326 -0.5987
vn -0.4913 0.6326 -0.5987
vn -0.4036 -0.7715 -0.4918
vn -0.5601 0.4696 -0.6825
vn -0.3002 -0.8810 -0.3658
vn -0.6073 0.2890 -0.7400
vn -0.1850 -0.9565 -0.2254
vn -0.6314 0.0975 -0.7693
vn -0.3651 0.6326 -0.6831
vn -0.2999 -0.7715 -0.5611
vn -0.4162 0.4696 -0.7786
vn -0.2230 -0.8810 -0.4173
vn -0.4513 0.2890 -0.8443
vn -0.1374 -0.9565 -0.2571
vn -0.4691 0.0975 -0.8777
vn -0.0464 0.9951 -0.0869
vn -0.0464 -0.9951 -0.0869
vn -0.4691 -0.0975 -0.8777
vn -0.1374 0.9565 -0.2571
vn -0.4513 -0.2890 -0.8443
vn -0.2230 0.8810 -0.4173
vn -0.4162 -0.4696 -0.7786
vn -0.2999 0.7715 -0.5611
vn -0.3651 -0.6326 -0.6831
vn -0.2889 -0.0975 -0.9524
vn -0.0846 0.9565 -0.2790
vn -0.2779 -0.2890 -0.9161
vn -0.1374 0.8810 -0.4528
vn -0.2563 -0.4696 -0.8448
vn -0.1847 0.7715 -0.6088
vn -0.2248 -0.6326 -0.7412
vn -0.2248 0.6326 -0.7412
vn -0.1847 -0.7715 -0.6088
vn -0.2563 0.4696 -0.8448
vn -0.1374 -0.8810 -0.4528
vn -0.2779 0.2890 -0.9161
vn -0.0846 -0.9565 -0.2790
vn -0.2889 0.0975 -0.9524
vn -0.0286 0.9951 -0.0942
vn -0.0286 -0.9951 -0.0942
vn -0.0624 -0.7715 -0.6332
vn -0.0865 0.4696 -0.8786
vn -0.0464 -0.8810 -0.4709
vn -0.0938 0.2890 -0.9527
vn -0.0286 -0.9565 -0.2902
vn -0.0976 0.0975 -0.9904
vn -0.0097 0.9951 -0.0980
vn -0.0097 -0.9951 -0.0980
vn -0.0976 -0.0975 -0.9904
vn -0.0286 0.9565 -0.2902
vn -0.0938 -0.2890 -0.9527
vn -0.0464 0.8810 -0.4709
vn -0.0865 -0.4696 -0.8786
vn -0.0624 0.7715 -0.6332
vn -0.0759 -0.6326 -0.7708
vn -0.0759 0.6326 -0.7708
vn 0.0975 0.0976 -0.9904
vn 0.0975 -0.0975 -0.9904
vn 0.2230 0.8810 -0.4173
vn 0.2231 -0.8810 -0.4173
vn 0.2254 -0.9565 -0.1850
vn 0.4173 0.8810 0.2230
vn 0.4173 -0.8810 0.2231
vn 0.2231 -0.8810 0.4173
vn -0.0975 0.0975 0.9904
vn -0.0976 -0.0975 0.9904
vn -0.2231 -0.8810 0.4173
vn -0.2231 0.8810 0.4173
vn -0.2254 -0.9565 0.1850
vn -0.4173 -0.8810 0.2230
vn -0.9904 0.0975 0.0976
vn -0.9904 -0.0975 0.0975
vn -0.9904 0.0975 -0.0976
vn -0.9904 -0.0975 -0.0975
vt 0.750000 0.687500
vt 0.718750 0.750000
vt 0.718750 0.687500
vt 0.750000 0.250000
vt 0.718750 0.187500
vt 0.750000 0.187500
vt 0.750000 0.625000
vt 0.718750 0.625000
vt 0.718750 0.125000
vt 0.750000 0.125000
vt 0.750000 0.562500
vt 0.718750 0.562500
vt 0.718750 0.062500
vt 0.750000 0.062500
vt 0.718750 0.500000
vt 0.750000 0.500000
vt 0.750000 0.937500
vt 0.734375 1.000000
vt 0.718750 0.937500
vt 0.734375 0.000000
vt 0.718750 0.437500
vt 0.750000 0.437500
vt 0.750000 0.875000
vt 0.718750 0.875000
vt 0.718750 0.375000
vt 0.750000 0.375000
vt 0.750000 0.812500
vt 0.718750 0.812500
vt 0.718750 0.312500
vt 0.750000 0.312500
vt 0.750000 0.750000
vt 0.718750 0.250000
vt 0.687500 0.750000
vt 0.687500 0.250000
vt 0.687500 0.687500
vt 0.687500 0.187500
vt 0.687500 0.625000
vt 0.687500 0.125000
vt 0.687500 0.562500
vt 0.687500 0.062500
vt 0.687500 0.500000
vt 0.703125 1.000000
vt 0.687500 0.937500
vt 0.703125 0.000000
vt 0.687500 0.437500
vt 0.687500 0.875000
vt 0.687500 0.375000
vt 0.687500 0.812500
vt 0.687500 0.312500
vt 0.656250 0.500000
vt 0.671875 1.000000
vt 0.656250 0.937500
vt 0.671875 0.000000
vt 0.656250 0.062500
vt 0.656250 0.437500
vt 0.656250 0.875000
vt 0.656250 0.375000
vt 0.656250 0.812500
vt 0.656250 0.312500
vt 0.656250 0.750000
vt 0.656250 0.250000
vt 0.656250 0.687500
vt 0.656250 0.187500
vt 0.656250 0.625000
vt 0.656250 0.125000
vt 0.656250 0.562500
vt 0.625000 0.250000
vt 0.625000 0.687500
vt 0.625000 0.187500
vt 0.625000 0.625000
vt 0.625000 0.125000
vt 0.625000 0.562500
vt 0.625000 0.062500
vt 0.625000 0.500000
vt 0.640625 1.000000
vt 0.625000 0.937500
vt 0.640625 0.000000
vt 0.625000 0.437500
vt 0.625000 0.875000
vt 0.625000 0.375000
vt 0.625000 0.812500
vt 0.625000 0.312500
vt 0.625000 0.750000
vt 0.609375 1.000000
vt 0.593750 0.937500
vt 0.609375 0.000000
vt 0.593750 0.062500
vt 0.593750 0.437500
vt 0.593750 0.875000
vt 0.593750 0.375000
vt 0.593750 0.812500
vt 0.593750 0.312500
vt 0.593750 0.750000
vt 0.593750 0.250000
vt 0.593750 0.687500
vt 0.593750 0.187500
vt 0.593750 0.625000
vt 0.593750 0.125000
vt 0.593750 0.562500
vt 0.593750 0.500000
vt 0.562500 0.750000
vt 0.562500 0.687500
vt 0.562500 0.187500
vt 0.562500 0.625000
vt 0.562500 0.125000
vt 0.562500 0.562500
vt 0.562500 0.062500
vt 0.562500 0.500000
vt 0.578125 1.000000
vt 0.562500 0.937500
vt 0.578125 0.000000
vt 0.562500 0.437500
vt 0.562500 0.875000
vt 0.562500 0.375000
vt 0.562500 0.812500
vt 0.562500 0.312500
vt 0.562500 0.250000
vt 0.531250 0.437500
vt 0.531250 0.937500
vt 0.531250 0.875000
vt 0.531250 0.375000
vt 0.531250 0.812500
vt 0.531250 0.312500
vt 0.531250 0.750000
vt 0.531250 0.250000
vt 0.531250 0.687500
vt 0.531250 0.187500
vt 0.531250 0.625000
vt 0.531250 0.125000
vt 0.531250 0.562500
vt 0.531250 0.062500
vt 0.531250 0.500000
vt 0.546875 1.000000
vt 0.546875 0.000000
vt 0.500000 0.250000
vt 0.500000 0.187500
vt 0.500000 0.625000
vt 0.500000 0.125000
vt 0.500000 0.562500
vt 0.500000 0.062500
vt 0.500000 0.500000
vt 0.515625 1.000000
vt 0.500000 0.937500
vt 0.515625 0.000000
vt 0.500000 0.437500
vt 0.500000 0.875000
vt 0.500000 0.375000
vt 0.500000 0.812500
vt 0.500000 0.312500
vt 0.500000 0.750000
vt 0.500000 0.687500
vt 0.468750 0.375000
vt 0.468750 0.812500
vt 0.468750 0.312500
vt 0.468750 0.750000
vt 0.468750 0.250000
vt 0.468750 0.687500
vt 0.468750 0.187500
vt 0.468750 0.625000
vt 0.468750 0.125000
vt 0.468750 0.562500
vt 0.468750 0.062500
vt 0.468750 0.500000
vt 0.484375 1.000000
vt 0.468750 0.937500
vt 0.484375 0.000000
vt 0.468750 0.437500
vt 0.468750 0.875000
vt 0.437500 0.125000
vt 0.437500 0.625000
vt 0.437500 0.562500
vt 0.437500 0.062500
vt 0.437500 0.500000
vt 0.453125 1.000000
vt 0.437500 0.937500
vt 0.453125 0.000000
vt 0.437500 0.437500
vt 0.437500 0.875000
vt 0.437500 0.375000
vt 0.437500 0.812500
vt 0.437500 0.312500
vt 0.437500 0.750000
vt 0.437500 0.250000
vt 0.437500 0.687500
vt 0.437500 0.187500
vt 0.406250 0.875000
vt 0.406250 0.812500
vt 0.406250 0.375000
vt 0.406250 0.312500
vt 0.406250 0.750000
vt 0.406250 0.250000
vt 0.406250 0.687500
vt 0.406250 0.187500
vt 0.406250 0.625000
vt 0.406250 0.125000
vt 0.406250 0.562500
vt 0.406250 0.062500
vt 0.406250 0.500000
vt 0.421875 1.000000
vt 0.406250 0.937500
vt 0.421875 0.000000
vt 0.406250 0.437500
vt 0.375000 0.625000
vt 0.375000 0.562500
vt 0.375000 0.125000
vt 0.375000 0.062500
vt 0.375000 0.500000
vt 0.390625 1.000000
vt 0.375000 0.937500
vt 0.390625 0.000000
vt 0.375000 0.437500
vt 0.375000 0.875000
vt 0.375000 0.375000
vt 0.375000 0.812500
vt 0.375000 0.312500
vt 0.375000 0.750000
vt 0.375000 0.250000
vt 0.375000 0.687500
vt 0.375000 0.187500
vt 0.343750 0.375000
vt 0.343750 0.312500
vt 0.343750 0.750000
vt 0.343750 0.250000
vt 0.343750 0.687500
vt 0.343750 0.187500
vt 0.343750 0.625000
vt 0.343750 0.125000
vt 0.343750 0.562500
vt 0.343750 0.062500
vt 0.343750 0.500000
vt 0.359375 1.000000
vt 0.343750 0.937500
vt 0.359375 0.000000
vt 0.343750 0.437500
vt 0.343750 0.875000
vt 0.343750 0.812500
vt 0.312500 0.062500
vt 0.312500 0.562500
vt 0.312500 0.500000
vt 0.328125 1.000000
vt 0.312500 0.937500
vt 0.328125 0.000000
vt 0.312500 0.437500
vt 0.312500 0.875000
vt 0.312500 0.375000
vt 0.312500 0.812500
vt 0.312500 0.312500
vt 0.312500 0.750000
vt 0.312500 0.250000
vt 0.312500 0.687500
vt 0.312500 0.187500
vt 0.312500 0.625000
vt 0.312500 0.125000
vt 0.281250 0.750000
vt 0.281250 0.250000
vt 0.281250 0.687500
vt 0.281250 0.187500
vt 0.281250 0.625000
vt 0.281250 0.125000
vt 0.281250 0.562500
vt 0.281250 0.062500
vt 0.281250 0.500000
vt 0.296875 1.000000
vt 0.281250 0.937500
vt 0.296875 0.000000
vt 0.281250 0.437500
vt 0.281250 0.875000
vt 0.281250 0.375000
vt 0.281250 0.812500
vt 0.281250 0.312500
vt 0.250000 0.562500
vt 0.250000 0.500000
vt 0.265625 1.000000
vt 0.250000 0.937500
vt 0.265625 0.000000
vt 0.250000 0.062500
vt 0.250000 0.437500
vt 0.250000 0.875000
vt 0.250000 0.375000
vt 0.250000 0.812500
vt 0.250000 0.312500
vt 0.250000 0.750000
vt 0.250000 0.250000
vt 0.250000 0.687500
vt 0.250000 0.187500
vt 0.250000 0.625000
vt 0.250000 0.125000
vt 0.218750 0.250000
vt 0.218750 0.750000
vt 0.218750 0.687500
vt 0.218750 0.187500
vt 0.218750 0.625000
vt 0.218750 0.125000
vt 0.218750 0.562500
vt 0.218750 0.062500
vt 0.218750 0.500000
vt 0.234375 1.000000
vt 0.218750 0.937500
vt 0.234375 0.000000
vt 0.218750 0.437500
vt 0.218750 0.875000
vt 0.218750 0.375000
vt 0.218750 0.812500
vt 0.218750 0.312500
vt 0.203125 0.000000
vt 0.187500 0.062500
vt 0.187500 0.437500
vt 0.187500 0.937500
vt 0.187500 0.875000
vt 0.187500 0.375000
vt 0.187500 0.812500
vt 0.187500 0.312500
vt 0.187500 0.750000
vt 0.187500 0.250000
vt 0.187500 0.687500
vt 0.187500 0.187500
vt 0.187500 0.625000
vt 0.187500 0.125000
vt 0.187500 0.562500
vt 0.187500 0.500000
vt 0.203125 1.000000
vt 0.156250 0.250000
vt 0.156250 0.187500
vt 0.156250 0.625000
vt 0.156250 0.125000
vt 0.156250 0.562500
vt 0.156250 0.062500
vt 0.156250 0.500000
vt 0.171875 1.000000
vt 0.156250 0.937500
vt 0.171875 0.000000
vt 0.156250 0.437500
vt 0.156250 0.875000
vt 0.156250 0.375000
vt 0.156250 0.812500
vt 0.156250 0.312500
vt 0.156250 0.750000
vt 0.156250 0.687500
vt 0.125000 0.875000
vt 0.125000 0.375000
vt 0.125000 0.812500
vt 0.125000 0.312500
vt 0.125000 0.750000
vt 0.125000 0.250000
vt 0.125000 0.687500
vt 0.125000 0.187500
vt 0.125000 0.625000
vt 0.125000 0.125000
vt 0.125000 0.562500
vt 0.125000 0.062500
vt 0.125000 0.500000
vt 0.140625 1.000000
vt 0.125000 0.937500
vt 0.140625 0.000000
vt 0.125000 0.437500
vt 0.093750 0.625000
vt 0.093750 0.125000
vt 0.093750 0.562500
vt 0.093750 0.062500
vt 0.093750 0.500000
vt 0.109375 1.000000
vt 0.093750 0.937500
vt 0.109375 0.000000
vt 0.093750 0.437500
vt 0.093750 0.875000
vt 0.093750 0.375000
vt 0.093750 0.812500
vt 0.093750 0.312500
vt 0.093750 0.750000
vt 0.093750 0.250000
vt 0.093750 0.687500
vt 0.093750 0.187500
vt 0.062500 0.375000
vt 0.062500 0.812500
vt 0.062500 0.312500
vt 0.062500 0.750000
vt 0.062500 0.250000
vt 0.062500 0.687500
vt 0.062500 0.187500
vt 0.062500 0.625000
vt 0.062500 0.125000
vt 0.062500 0.562500
vt 0.062500 0.062500
vt 0.062500 0.500000
vt 0.078125 1.000000
vt 0.062500 0.937500
vt 0.078125 0.000000
vt 0.062500 0.437500
vt 0.062500 0.875000
vt 0.031250 0.125000
vt 0.031250 0.625000
vt 0.031250 0.562500
vt 0.031250 0.062500
vt 0.031250 0.500000
vt 0.046875 1.000000
vt 0.031250 0.937500
vt 0.046875 0.000000
vt 0.031250 0.437500
vt 0.031250 0.875000
vt 0.031250 0.375000
vt 0.031250 0.812500
vt 0.031250 0.312500
vt 0.031250 0.750000
vt 0.031250 0.250000
vt 0.031250 0.687500
vt 0.031250 0.187500
vt 0.000000 0.875000
vt 0.000000 0.812500
vt 0.000000 0.375000
vt 0.000000 0.312500
vt 0.000000 0.750000
vt 0.000000 0.250000
vt 0.000000 0.687500
vt 0.000000 0.187500
vt 0.000000 0.625000
vt 0.000000 0.125000
vt 0.000000 0.562500
vt 0.000000 0.062500
vt 0.000000 0.500000
vt 0.015625 1.000000
vt 0.000000 0.937500
vt 0.015625 0.000000
vt 0.000000 0.437500
vt 1.000000 0.562500
vt 0.968750 0.625000
vt 0.968750 0.562500
vt 1.000000 0.125000
vt 0.968750 0.062500
vt 1.000000 0.062500
vt 1.000000 0.500000
vt 0.968750 0.500000
vt 1.000000 0.937500
vt 0.984375 1.000000
vt 0.968750 0.937500
vt 0.984375 0.000000
vt 0.968750 0.437500
vt 1.000000 0.437500
vt 0.968750 0.875000
vt 1.000000 0.875000
vt 0.968750 0.375000
vt 1.000000 0.375000
vt 1.000000 0.812500
vt 0.968750 0.812500
vt 1.000000 0.312500
vt 0.968750 0.312500
vt 0.968750 0.750000
vt 1.000000 0.750000
vt 0.968750 0.250000
vt 1.000000 0.250000
vt 1.000000 0.687500
vt 0.968750 0.687500
vt 1.000000 0.187500
vt 0.968750 0.187500
vt 1.000000 0.625000
vt 0.968750 0.125000
vt 0.937500 0.375000
vt 0.937500 0.312500
vt 0.937500 0.750000
vt 0.937500 0.250000
vt 0.937500 0.687500
vt 0.937500 0.187500
vt 0.937500 0.625000
vt 0.937500 0.125000
vt 0.937500 0.562500
vt 0.937500 0.062500
vt 0.937500 0.500000
vt 0.953125 1.000000
vt 0.937500 0.937500
vt 0.953125 0.000000
vt 0.937500 0.437500
vt 0.937500 0.875000
vt 0.937500 0.812500
vt 0.906250 0.062500
vt 0.906250 0.562500
vt 0.906250 0.500000
vt 0.921875 1.000000
vt 0.906250 0.937500
vt 0.921875 0.000000
vt 0.906250 0.437500
vt 0.906250 0.875000
vt 0.906250 0.375000
vt 0.906250 0.812500
vt 0.906250 0.312500
vt 0.906250 0.750000
vt 0.906250 0.250000
vt 0.906250 0.687500
vt 0.906250 0.187500
vt 0.906250 0.625000
vt 0.906250 0.125000
vt 0.875000 0.250000
vt 0.875000 0.750000
vt 0.875000 0.687500
vt 0.875000 0.187500
vt 0.875000 0.625000
vt 0.875000 0.125000
vt 0.875000 0.562500
vt 0.875000 0.062500
vt 0.875000 0.500000
vt 0.890625 1.000000
vt 0.875000 0.937500
vt 0.890625 0.000000
vt 0.875000 0.437500
vt 0.875000 0.875000
vt 0.875000 0.375000
vt 0.875000 0.812500
vt 0.875000 0.312500
vt 0.859375 1.000000
vt 0.843750 0.937500
vt 0.859375 0.000000
vt 0.843750 0.062500
vt 0.843750 0.437500
vt 0.843750 0.875000
vt 0.843750 0.375000
vt 0.843750 0.812500
vt 0.843750 0.312500
vt 0.843750 0.750000
vt 0.843750 0.250000
vt 0.843750 0.687500
vt 0.843750 0.187500
vt 0.843750 0.625000
vt 0.843750 0.125000
vt 0.843750 0.562500
vt 0.843750 0.500000
vt 0.812500 0.750000
vt 0.812500 0.687500
vt 0.812500 0.250000
vt 0.812500 0.187500
vt 0.812500 0.625000
vt 0.812500 0.125000
vt 0.812500 0.562500
vt 0.812500 0.062500
vt 0.812500 0.500000
vt 0.828125 1.000000
vt 0.812500 0.937500
vt 0.828125 0.000000
vt 0.812500 0.437500
vt 0.812500 0.875000
vt 0.812500 0.375000
vt 0.812500 0.812500
vt 0.812500 0.312500
vt 0.781250 0.437500
vt 0.781250 0.875000
vt 0.781250 0.375000
vt 0.781250 0.812500
vt 0.781250 0.312500
vt 0.781250 0.750000
vt 0.781250 0.250000
vt 0.781250 0.687500
vt 0.781250 0.187500
vt 0.781250 0.625000
vt 0.781250 0.125000
vt 0.781250 0.562500
vt 0.781250 0.062500
vt 0.781250 0.500000
vt 0.796875 1.000000
vt 0.781250 0.937500
vt 0.796875 0.000000
vt 0.765625 1.000000
vt 0.765625 0.000000
s 0
usemtl energy
f 3/1/1 12/2/1 13/3/1
f 479/4/2 21/5/2 480/6/2
f 477/7/3 13/3/3 14/8/3
f 480/6/4 22/9/4 481/10/4
f 4/11/5 14/8/5 15/12/5
f 481/10/6 23/13/6 482/14/6
f 4/11/7 16/15/7 5/16/7
f 474/17/8 1/18/8 9/19/8
f 8/20/9 482/14/9 23/13/9
f 5/16/10 17/21/10 6/22/10
f 475/23/11 9/19/11 10/24/11
f 6/22/12 18/25/12 478/26/12
f 2/27/13 10/24/13 11/28/13
f 478/26/14 19/29/14 7/30/14
f 476/31/15 11/28/15 12/2/15
f 7/30/16 20/32/16 479/4/16
f 11/28/17 27/33/17 12/2/17
f 19/29/18 35/34/18 20/32/18
f 12/2/19 28/35/19 13/3/19
f 21/5/20 35/34/20 36/36/20
f 13/3/21 29/37/21 14/8/21
f 22/9/22 36/36/22 37/38/22
f 15/12/23 29/37/23 30/39/23
f 22/9/24 38/40/24 23/13/24
f 15/12/25 31/41/25 16/15/25
f 9/19/26 1/42/26 24/43/26
f 8/44/27 23/13/27 38/40/27
f 16/15/28 32/45/28 17/21/28
f 9/19/29 25/46/29 10/24/29
f 17/21/30 33/47/30 18/25/30
f 10/24/31 26/48/31 11/28/31
f 18/25/32 34/49/32 19/29/32
f 30/39/33 46/50/33 31/41/33
f 24/43/34 1/51/34 39/52/34
f 8/53/35 38/40/35 53/54/35
f 32/45/36 46/50/36 47/55/36
f 24/43/37 40/56/37 25/46/37
f 32/45/38 48/57/38 33/47/38
f 25/46/39 41/58/39 26/48/39
f 34/49/40 48/57/40 49/59/40
f 26/48/41 42/60/41 27/33/41
f 35/34/42 49/59/42 50/61/42
f 27/33/43 43/62/43 28/35/43
f 36/36/44 50/61/44 51/63/44
f 28/35/45 44/64/45 29/37/45
f 36/36/46 52/65/46 37/38/46
f 29/37/47 45/66/47 30/39/47
f 37/38/48 53/54/48 38/40/48
f 49/59/49 65/67/49 50/61/49
f 42/60/50 58/68/50 43/62/50
f 50/61/51 66/69/51 51/63/51
f 43/62/52 59/70/52 44/64/52
f 51/63/53 67/71/53 52/65/53
f 45/66/54 59/70/54 60/72/54
f 52/65/55 68/73/55 53/54/55
f 46/50/56 60/72/56 61/74/56
f 39/52/57 1/75/57 54/76/57
f 8/77/58 53/54/58 68/73/58
f 46/50/59 62/78/59 47/55/59
f 39/52/60 55/79/60 40/56/60
f 47/55/61 63/80/61 48/57/61
f 40/56/62 56/81/62 41/58/62
f 49/59/63 63/80/63 64/82/63
f 41/58/64 57/83/64 42/60/64
f 54/76/65 1/84/65 69/85/65
f 8/86/66 68/73/66 83/87/66
f 61/74/67 77/88/67 62/78/67
f 54/76/68 70/89/68 55/79/68
f 62/78/69 78/90/69 63/80/69
f 55/79/70 71/91/70 56/81/70
f 64/82/71 78/90/71 79/92/71
f 56/81/72 72/93/72 57/83/72
f 64/82/73 80/94/73 65/67/73
f 58/68/74 72/93/74 73/95/74
f 65/67/75 81/96/75 66/69/75
f 58/68/76 74/97/76 59/70/76
f 67/71/77 81/96/77 82/98/77
f 60/72/78 74/97/78 75/99/78
f 67/71/79 83/87/79 68/73/79
f 61/74/80 75/99/80 76/100/80
f 73/95/81 87/101/81 88/102/81
f 80/94/82 96/103/82 81/96/82
f 73/95/83 89/104/83 74/97/83
f 81/96/84 97/105/84 82/98/84
f 75/99/85 89/104/85 90/106/85
f 83/87/86 97/105/86 98/107/86
f 76/100/87 90/106/87 91/108/87
f 69/85/88 1/109/88 84/110/88
f 8/111/89 83/87/89 98/107/89
f 76/100/90 92/112/90 77/88/90
f 69/85/91 85/113/91 70/89/91
f 77/88/92 93/114/92 78/90/92
f 70/89/93 86/115/93 71/91/93
f 79/92/94 93/114/94 94/116/94
f 71/91/95 87/101/95 72/93/95
f 79/92/96 95/117/96 80/94/96
f 91/108/97 107/118/97 92/112/97
f 85/113/98 99/119/98 100/120/98
f 92/112/99 108/121/99 93/114/99
f 85/113/100 101/122/100 86/115/100
f 94/116/101 108/121/101 109/123/101
f 86/115/102 102/124/102 87/101/102
f 94/116/103 110/125/103 95/117/103
f 88/102/104 102/124/104 103/126/104
f 96/103/105 110/125/105 111/127/105
f 88/102/106 104/128/106 89/104/106
f 97/105/107 111/127/107 112/129/107
f 90/106/108 104/128/108 105/130/108
f 97/105/109 113/131/109 98/107/109
f 91/108/110 105/130/110 106/132/110
f 84/110/111 1/133/111 99/119/111
f 8/134/112 98/107/112 113/131/112
f 111/127/113 125/135/113 126/136/113
f 103/126/114 119/137/114 104/128/114
f 111/127/115 127/138/115 112/129/115
f 105/130/116 119/137/116 120/139/116
f 112/129/117 128/140/117 113/131/117
f 106/132/118 120/139/118 121/141/118
f 99/119/119 1/142/119 114/143/119
f 8/144/120 113/131/120 128/140/120
f 106/132/121 122/145/121 107/118/121
f 100/120/122 114/143/122 115/146/122
f 107/118/123 123/147/123 108/121/123
f 100/120/124 116/148/124 101/122/124
f 109/123/125 123/147/125 124/149/125
f 101/122/126 117/150/126 102/124/126
f 109/123/127 125/135/127 110/125/127
f 103/126/128 117/150/128 118/151/128
f 122/145/129 138/152/129 123/147/129
f 115/146/130 131/153/130 116/148/130
f 124/149/131 138/152/131 139/154/131
f 116/148/132 132/155/132 117/150/132
f 124/149/133 140/156/133 125/135/133
f 118/151/134 132/155/134 133/157/134
f 126/136/135 140/156/135 141/158/135
f 118/151/136 134/159/136 119/137/136
f 126/136/137 142/160/137 127/138/137
f 120/139/138 134/159/138 135/161/138
f 127/138/139 143/162/139 128/140/139
f 121/141/140 135/161/140 136/163/140
f 114/143/141 1/164/141 129/165/141
f 8/166/142 128/140/142 143/162/142
f 121/141/143 137/167/143 122/145/143
f 114/143/144 130/168/144 115/146/144
f 141/158/145 157/169/145 142/160/145
f 135/161/146 149/170/146 150/171/146
f 143/162/147 157/169/147 158/172/147
f 136/163/148 150/171/148 151/173/148
f 129/165/149 1/174/149 144/175/149
f 8/176/150 143/162/150 158/172/150
f 136/163/151 152/177/151 137/167/151
f 129/165/152 145/178/152 130/168/152
f 137/167/153 153/179/153 138/152/153
f 131/153/154 145/178/154 146/180/154
f 139/154/155 153/179/155 154/181/155
f 131/153/156 147/182/156 132/155/156
f 139/154/157 155/183/157 140/156/157
f 133/157/158 147/182/158 148/184/158
f 141/158/159 155/183/159 156/185/159
f 133/157/160 149/170/160 134/159/160
f 146/180/161 160/186/161 161/187/161
f 154/181/162 168/188/162 169/189/162
f 146/180/163 162/190/163 147/182/163
f 154/181/164 170/191/164 155/183/164
f 148/184/165 162/190/165 163/192/165
f 156/185/166 170/191/166 171/193/166
f 148/184/167 164/194/167 149/170/167
f 156/185/168 172/195/168 157/169/168
f 150/171/169 164/194/169 165/196/169
f 157/169/170 173/197/170 158/172/170
f 151/173/171 165/196/171 166/198/171
f 144/175/172 1/199/172 159/200/172
f 8/201/173 158/172/173 173/197/173
f 151/173/174 167/202/174 152/177/174
f 144/175/175 160/186/175 145/178/175
f 152/177/176 168/188/176 153/179/176
f 165/196/177 179/203/177 180/204/177
f 173/197/178 187/205/178 188/206/178
f 166/198/179 180/204/179 181/207/179
f 159/200/180 1/208/180 174/209/180
f 8/210/181 173/197/181 188/206/181
f 166/198/182 182/211/182 167/202/182
f 159/200/183 175/212/183 160/186/183
f 167/202/184 183/213/184 168/188/184
f 160/186/185 176/214/185 161/187/185
f 169/189/186 183/213/186 184/215/186
f 161/187/187 177/216/187 162/190/187
f 169/189/188 185/217/188 170/191/188
f 163/192/189 177/216/189 178/218/189
f 170/191/190 186/219/190 171/193/190
f 163/192/191 179/203/191 164/194/191
f 172/195/192 186/219/192 187/205/192
f 184/215/193 198/220/193 199/221/193
f 176/214/194 192/222/194 177/216/194
f 184/215/195 200/223/195 185/217/195
f 178/218/196 192/222/196 193/224/196
f 186/219/197 200/223/197 201/225/197
f 178/218/198 194/226/198 179/203/198
f 186/219/199 202/227/199 187/205/199
f 180/204/200 194/226/200 195/228/200
f 187/205/201 203/229/201 188/206/201
f 181/207/202 195/228/202 196/230/202
f 174/209/203 1/231/203 189/232/203
f 8/233/204 188/206/204 203/229/204
f 181/207/205 197/234/205 182/211/205
f 175/212/206 189/232/206 190/235/206
f 182/211/207 198/220/207 183/213/207
f 176/214/208 190/235/208 191/236/208
f 202/227/209 218/237/209 203/229/209
f 196/230/210 210/238/210 211/239/210
f 189/232/211 1/240/211 204/241/211
f 8/242/212 203/229/212 218/237/212
f 196/230/213 212/243/213 197/234/213
f 189/232/214 205/244/214 190/235/214
f 197/234/215 213/245/215 198/220/215
f 190/235/216 206/246/216 191/236/216
f 199/221/217 213/245/217 214/247/217
f 191/236/218 207/248/218 192/222/218
f 199/221/219 215/249/219 200/223/219
f 193/224/220 207/248/220 208/250/220
f 201/225/221 215/249/221 216/251/221
f 193/224/222 209/252/222 194/226/222
f 201/225/223 217/253/223 202/227/223
f 195/228/224 209/252/224 210/238/224
f 206/246/225 222/254/225 207/248/225
f 214/247/226 230/255/226 215/249/226
f 208/250/227 222/254/227 223/256/227
f 216/251/228 230/255/228 231/257/228
f 208/250/229 224/258/229 209/252/229
f 216/251/230 232/259/230 217/253/230
f 210/238/231 224/258/231 225/260/231
f 217/253/232 233/261/232 218/237/232
f 211/239/233 225/260/233 226/262/233
f 204/241/234 1/263/234 219/264/234
f 8/265/235 218/237/235 233/261/235
f 211/239/236 227/266/236 212/243/236
f 204/241/237 220/267/237 205/244/237
f 212/243/238 228/268/238 213/245/238
f 205/244/239 221/269/239 206/246/239
f 214/247/240 228/268/240 229/270/240
f 226/262/241 240/271/241 241/272/241
f 219/264/242 1/273/242 234/274/242
f 8/275/243 233/261/243 248/276/243
f 226/262/244 242/277/244 227/266/244
f 219/264/245 235/278/245 220/267/245
f 227/266/246 243/279/246 228/268/246
f 221/269/247 235/278/247 236/280/247
f 229/270/248 243/279/248 244/281/248
f 221/269/249 237/282/249 222/254/249
f 229/270/250 245/283/250 230/255/250
f 223/256/251 237/282/251 238/284/251
f 231/257/252 245/283/252 246/285/252
f 223/256/253 239/286/253 224/258/253
f 231/257/254 247/287/254 232/259/254
f 225/260/255 239/286/255 240/271/255
f 233/261/256 247/287/256 248/276/256
f 244/281/257 260/288/257 245/283/257
f 238/284/258 252/289/258 253/290/258
f 246/285/259 260/288/259 261/291/259
f 238/284/260 254/292/260 239/286/260
f 246/285/261 262/293/261 247/287/261
f 240/271/262 254/292/262 255/294/262
f 247/287/263 263/295/263 248/276/263
f 241/272/264 255/294/264 256/296/264
f 234/274/265 1/297/265 249/298/265
f 8/299/266 248/276/266 263/295/266
f 241/272/267 257/300/267 242/277/267
f 234/274/268 250/301/268 235/278/268
f 242/277/269 258/302/269 243/279/269
f 235/278/270 251/303/270 236/280/270
f 244/281/271 258/302/271 259/304/271
f 236/280/272 252/289/272 237/282/272
f 8/305/273 263/295/273 278/306/273
f 256/296/274 272/307/274 257/300/274
f 250/301/275 264/308/275 265/309/275
f 257/300/276 273/310/276 258/302/276
f 250/301/277 266/311/277 251/303/277
f 259/304/278 273/310/278 274/312/278
f 251/303/279 267/313/279 252/289/279
f 259/304/280 275/314/280 260/288/280
f 253/290/281 267/313/281 268/315/281
f 261/291/282 275/314/282 276/316/282
f 253/290/283 269/317/283 254/292/283
f 261/291/284 277/318/284 262/293/284
f 255/294/285 269/317/285 270/319/285
f 262/293/286 278/306/286 263/295/286
f 256/296/287 270/319/287 271/320/287
f 249/298/288 1/321/288 264/308/288
f 276/316/289 290/322/289 291/323/289
f 268/315/290 284/324/290 269/317/290
f 276/316/291 292/325/291 277/318/291
f 270/319/292 284/324/292 285/326/292
f 278/306/293 292/325/293 293/327/293
f 271/320/294 285/326/294 286/328/294
f 264/308/295 1/329/295 279/330/295
f 8/331/296 278/306/296 293/327/296
f 271/320/297 287/332/297 272/307/297
f 265/309/298 279/330/298 280/333/298
f 272/307/299 288/334/299 273/310/299
f 265/309/300 281/335/300 266/311/300
f 274/312/301 288/334/301 289/336/301
f 266/311/302 282/337/302 267/313/302
f 274/312/303 290/322/303 275/314/303
f 268/315/304 282/337/304 283/338/304
f 279/330/305 295/339/305 280/333/305
f 287/332/306 303/340/306 288/334/306
f 280/333/307 296/341/307 281/335/307
f 289/336/308 303/340/308 304/342/308
f 281/335/309 297/343/309 282/337/309
f 289/336/310 305/344/310 290/322/310
f 283/338/311 297/343/311 298/345/311
f 291/323/312 305/344/312 306/346/312
f 283/338/313 299/347/313 284/324/313
f 291/323/314 307/348/314 292/325/314
f 285/326/315 299/347/315 300/349/315
f 293/327/316 307/348/316 308/350/316
f 286/328/317 300/349/317 301/351/317
f 279/330/318 1/352/318 294/353/318
f 8/354/319 293/327/319 308/350/319
f 286/328/320 302/355/320 287/332/320
f 298/345/321 314/356/321 299/347/321
f 306/346/322 322/357/322 307/348/322
f 300/349/323 314/356/323 315/358/323
f 307/348/324 323/359/324 308/350/324
f 301/351/325 315/358/325 316/360/325
f 294/353/326 1/361/326 309/362/326
f 8/363/327 308/350/327 323/359/327
f 301/351/328 317/364/328 302/355/328
f 294/353/329 310/365/329 295/339/329
f 302/355/330 318/366/330 303/340/330
f 295/339/331 311/367/331 296/341/331
f 304/342/332 318/366/332 319/368/332
f 296/341/333 312/369/333 297/343/333
f 304/342/334 320/370/334 305/344/334
f 298/345/335 312/369/335 313/371/335
f 306/346/336 320/370/336 321/372/336
f 317/364/337 333/373/337 318/366/337
f 310/365/338 326/374/338 311/367/338
f 319/368/339 333/373/339 334/375/339
f 311/367/340 327/376/340 312/369/340
f 319/368/341 335/377/341 320/370/341
f 312/369/342 328/378/342 313/371/342
f 321/372/343 335/377/343 336/379/343
f 313/371/344 329/380/344 314/356/344
f 321/372/345 337/381/345 322/357/345
f 315/358/346 329/380/346 330/382/346
f 322/357/347 338/383/347 323/359/347
f 316/360/348 330/382/348 331/384/348
f 309/362/349 1/385/349 324/386/349
f 8/387/350 323/359/350 338/383/350
f 316/360/351 332/388/351 317/364/351
f 309/362/352 325/389/352 310/365/352
f 336/379/353 352/390/353 337/381/353
f 330/382/354 344/391/354 345/392/354
f 337/381/355 353/393/355 338/383/355
f 331/384/356 345/392/356 346/394/356
f 324/386/357 1/395/357 339/396/357
f 8/397/358 338/383/358 353/393/358
f 331/384/359 347/398/359 332/388/359
f 324/386/360 340/399/360 325/389/360
f 332/388/361 348/400/361 333/373/361
f 325/389/362 341/401/362 326/374/362
f 334/375/363 348/400/363 349/402/363
f 326/374/364 342/403/364 327/376/364
f 334/375/365 350/404/365 335/377/365
f 328/378/366 342/403/366 343/405/366
f 336/379/367 350/404/367 351/406/367
f 328/378/368 344/391/368 329/380/368
f 341/401/369 355/407/369 356/408/369
f 349/402/370 363/409/370 364/410/370
f 341/401/371 357/411/371 342/403/371
f 349/402/372 365/412/372 350/404/372
f 343/405/373 357/411/373 358/413/373
f 351/406/374 365/412/374 366/414/374
f 343/405/375 359/415/375 344/391/375
f 351/406/376 367/416/376 352/390/376
f 345/392/377 359/415/377 360/417/377
f 352/390/378 368/418/378 353/393/378
f 346/394/379 360/417/379 361/419/379
f 339/396/380 1/420/380 354/421/380
f 8/422/381 353/393/381 368/418/381
f 346/394/382 362/423/382 347/398/382
f 339/396/383 355/407/383 340/399/383
f 347/398/384 363/409/384 348/400/384
f 360/424/385 374/425/385 375/426/385
f 367/427/386 383/428/386 368/429/386
f 361/430/387 375/426/387 376/431/387
f 354/432/388 1/433/388 369/434/388
f 8/435/389 368/429/389 383/428/389
f 361/430/390 377/436/390 362/437/390
f 354/432/391 370/438/391 355/439/391
f 362/437/392 378/440/392 363/441/392
f 356/442/393 370/438/393 371/443/393
f 364/444/394 378/440/394 379/445/394
f 356/442/395 372/446/395 357/447/395
f 364/444/396 380/448/396 365/449/396
f 358/450/397 372/446/397 373/451/397
f 366/452/398 380/448/398 381/453/398
f 358/450/399 374/425/399 359/454/399
f 366/452/400 382/455/400 367/427/400
f 379/445/401 393/456/401 394/457/401
f 371/443/402 387/458/402 372/446/402
f 379/445/403 395/459/403 380/448/403
f 373/451/404 387/458/404 388/460/404
f 381/453/405 395/459/405 396/461/405
f 373/451/406 389/462/406 374/425/406
f 381/453/407 397/463/407 382/455/407
f 375/426/408 389/462/408 390/464/408
f 382/455/409 398/465/409 383/428/409
f 376/431/410 390/464/410 391/466/410
f 369/434/411 1/467/411 384/468/411
f 8/469/412 383/428/412 398/465/412
f 376/431/413 392/470/413 377/436/413
f 369/434/414 385/471/414 370/438/414
f 377/436/415 393/456/415 378/440/415
f 371/443/416 385/471/416 386/472/416
f 397/463/417 413/473/417 398/465/417
f 391/466/418 405/474/418 406/475/418
f 384/468/419 1/476/419 399/477/419
f 8/478/420 398/465/420 413/473/420
f 391/466/421 407/479/421 392/470/421
f 385/471/422 399/477/422 400/480/422
f 392/470/423 408/481/423 393/456/423
f 385/471/424 401/482/424 386/472/424
f 394/457/425 408/481/425 409/483/425
f 386/472/426 402/484/426 387/458/426
f 394/457/427 410/485/427 395/459/427
f 388/460/428 402/484/428 403/486/428
f 396/461/429 410/485/429 411/487/429
f 388/460/430 404/488/430 389/462/430
f 397/463/431 411/487/431 412/489/431
f 390/464/432 404/488/432 405/474/432
f 409/483/433 425/490/433 410/485/433
f 403/486/434 417/491/434 418/492/434
f 411/487/435 425/490/435 426/493/435
f 403/486/436 419/494/436 404/488/436
f 411/487/437 427/495/437 412/489/437
f 405/474/438 419/494/438 420/496/438
f 412/489/439 428/497/439 413/473/439
f 406/475/440 420/496/440 421/498/440
f 399/477/441 1/499/441 414/500/441
f 8/501/442 413/473/442 428/497/442
f 406/475/443 422/502/443 407/479/443
f 399/477/444 415/503/444 400/480/444
f 407/479/445 423/504/445 408/481/445
f 401/482/446 415/503/446 416/505/446
f 409/483/447 423/504/447 424/506/447
f 401/482/448 417/491/448 402/484/448
f 414/500/449 1/507/449 429/508/449
f 8/509/450 428/497/450 443/510/450
f 421/498/451 437/511/451 422/502/451
f 414/500/452 430/512/452 415/503/452
f 422/502/453 438/513/453 423/504/453
f 416/505/454 430/512/454 431/514/454
f 424/506/455 438/513/455 439/515/455
f 416/505/456 432/516/456 417/491/456
f 424/506/457 440/517/457 425/490/457
f 418/492/458 432/516/458 433/518/458
f 426/493/459 440/517/459 441/519/459
f 418/492/460 434/520/460 419/494/460
f 426/493/461 442/521/461 427/495/461
f 420/496/462 434/520/462 435/522/462
f 427/495/463 443/510/463 428/497/463
f 421/498/464 435/522/464 436/523/464
f 433/518/465 447/524/465 448/525/465
f 441/519/466 455/526/466 456/527/466
f 433/518/467 449/528/467 434/520/467
f 441/519/468 457/529/468 442/521/468
f 435/522/469 449/528/469 450/530/469
f 442/521/470 458/531/470 443/510/470
f 436/523/471 450/530/471 451/532/471
f 429/508/472 1/533/472 444/534/472
f 8/535/473 443/510/473 458/531/473
f 436/523/474 452/536/474 437/511/474
f 430/512/475 444/534/475 445/537/475
f 437/511/476 453/538/476 438/513/476
f 430/512/477 446/539/477 431/514/477
f 439/515/478 453/538/478 454/540/478
f 431/514/479 447/524/479 432/516/479
f 439/515/480 455/526/480 440/517/480
f 451/532/481 467/541/481 452/536/481
f 444/534/482 460/542/482 445/537/482
f 452/536/483 468/543/483 453/538/483
f 446/539/484 460/542/484 461/544/484
f 454/540/485 468/543/485 469/545/485
f 446/539/486 462/546/486 447/524/486
f 454/540/487 470/547/487 455/526/487
f 448/525/488 462/546/488 463/548/488
f 456/527/489 470/547/489 471/549/489
f 448/525/490 464/550/490 449/528/490
f 456/527/491 472/551/491 457/529/491
f 450/530/492 464/550/492 465/552/492
f 458/531/493 472/551/493 473/553/493
f 451/532/494 465/552/494 466/554/494
f 444/534/495 1/555/495 459/556/495
f 8/557/496 458/531/496 473/553/496
f 471/549/497 479/4/497 480/6/497
f 464/550/498 3/1/498 477/7/498
f 471/549/499 481/10/499 472/551/499
f 465/552/500 477/7/500 4/11/500
f 472/551/501 482/14/501 473/553/501
f 466/554/502 4/11/502 5/16/502
f 459/556/503 1/558/503 474/17/503
f 8/559/504 473/553/504 482/14/504
f 466/554/505 6/22/505 467/541/505
f 460/542/506 474/17/506 475/23/506
f 467/541/507 478/26/507 468/543/507
f 461/544/508 475/23/508 2/27/508
f 468/543/509 7/30/509 469/545/509
f 462/546/510 2/27/510 476/31/510
f 469/545/511 479/4/511 470/547/511
f 463/548/512 476/31/512 3/1/512
f 3/1/1 476/31/1 12/2/1
f 479/4/2 20/32/2 21/5/2
f 477/7/3 3/1/3 13/3/3
f 480/6/4 21/5/4 22/9/4
f 4/11/5 477/7/5 14/8/5
f 481/10/6 22/9/6 23/13/6
f 4/11/513 15/12/513 16/15/513
f 5/16/514 16/15/514 17/21/514
f 475/23/11 474/17/11 9/19/11
f 6/22/12 17/21/12 18/25/12
f 2/27/13 475/23/13 10/24/13
f 478/26/14 18/25/14 19/29/14
f 476/31/15 2/27/15 11/28/15
f 7/30/16 19/29/16 20/32/16
f 11/28/17 26/48/17 27/33/17
f 19/29/18 34/49/18 35/34/18
f 12/2/19 27/33/19 28/35/19
f 21/5/20 20/32/20 35/34/20
f 13/3/21 28/35/21 29/37/21
f 22/9/22 21/5/22 36/36/22
f 15/12/23 14/8/23 29/37/23
f 22/9/24 37/38/24 38/40/24
f 15/12/25 30/39/25 31/41/25
f 16/15/28 31/41/28 32/45/28
f 9/19/29 24/43/29 25/46/29
f 17/21/30 32/45/30 33/47/30
f 10/24/31 25/46/31 26/48/31
f 18/25/32 33/47/32 34/49/32
f 30/39/33 45/66/33 46/50/33
f 32/45/36 31/41/36 46/50/36
f 24/43/37 39/52/37 40/56/37
f 32/45/38 47/55/38 48/57/38
f 25/46/515 40/56/515 41/58/515
f 34/49/40 33/47/40 48/57/40
f 26/48/41 41/58/41 42/60/41
f 35/34/42 34/49/42 49/59/42
f 27/33/43 42/60/43 43/62/43
f 36/36/44 35/34/44 50/61/44
f 28/35/45 43/62/45 44/64/45
f 36/36/516 51/63/516 52/65/516
f 29/37/47 44/64/47 45/66/47
f 37/38/48 52/65/48 53/54/48
f 49/59/49 64/82/49 65/67/49
f 42/60/50 57/83/50 58/68/50
f 50/61/51 65/67/51 66/69/51
f 43/62/52 58/68/52 59/70/52
f 51/63/53 66/69/53 67/71/53
f 45/66/54 44/64/54 59/70/54
f 52/65/55 67/71/55 68/73/55
f 46/50/56 45/66/56 60/72/56
f 46/50/59 61/74/59 62/78/59
f 39/52/60 54/76/60 55/79/60
f 47/55/61 62/78/61 63/80/61
f 40/56/62 55/79/62 56/81/62
f 49/59/63 48/57/63 63/80/63
f 41/58/64 56/81/64 57/83/64
f 61/74/67 76/100/67 77/88/67
f 54/76/68 69/85/68 70/89/68
f 62/78/69 77/88/69 78/90/69
f 55/79/70 70/89/70 71/91/70
f 64/82/71 63/80/71 78/90/71
f 56/81/72 71/91/72 72/93/72
f 64/82/73 79/92/73 80/94/73
f 58/68/74 57/83/74 72/93/74
f 65/67/75 80/94/75 81/96/75
f 58/68/76 73/95/76 74/97/76
f 67/71/77 66/69/77 81/96/77
f 60/72/78 59/70/78 74/97/78
f 67/71/517 82/98/517 83/87/517
f 61/74/80 60/72/80 75/99/80
f 73/95/81 72/93/81 87/101/81
f 80/94/82 95/117/82 96/103/82
f 73/95/83 88/102/83 89/104/83
f 81/96/84 96/103/84 97/105/84
f 75/99/85 74/97/85 89/104/85
f 83/87/86 82/98/86 97/105/86
f 76/100/87 75/99/87 90/106/87
f 76/100/90 91/108/90 92/112/90
f 69/85/91 84/110/91 85/113/91
f 77/88/92 92/112/92 93/114/92
f 70/89/93 85/113/93 86/115/93
f 79/92/94 78/90/94 93/114/94
f 71/91/95 86/115/95 87/101/95
f 79/92/96 94/116/96 95/117/96
f 91/108/97 106/132/97 107/118/97
f 85/113/98 84/110/98 99/119/98
f 92/112/99 107/118/99 108/121/99
f 85/113/100 100/120/100 101/122/100
f 94/116/101 93/114/101 108/121/101
f 86/115/102 101/122/102 102/124/102
f 94/116/103 109/123/103 110/125/103
f 88/102/104 87/101/104 102/124/104
f 96/103/105 95/117/105 110/125/105
f 88/102/106 103/126/106 104/128/106
f 97/105/107 96/103/107 111/127/107
f 90/106/108 89/104/108 104/128/108
f 97/105/109 112/129/109 113/131/109
f 91/108/110 90/106/110 105/130/110
f 111/127/113 110/125/113 125/135/113
f 103/126/114 118/151/114 119/137/114
f 111/127/115 126/136/115 127/138/115
f 105/130/116 104/128/116 119/137/116
f 112/129/117 127/138/117 128/140/117
f 106/132/118 105/130/118 120/139/118
f 106/132/121 121/141/121 122/145/121
f 100/120/122 99/119/122 114/143/122
f 107/118/123 122/145/123 123/147/123
f 100/120/124 115/146/124 116/148/124
f 109/123/125 108/121/125 123/147/125
f 101/122/126 116/148/126 117/150/126
f 109/123/127 124/149/127 125/135/127
f 103/126/128 102/124/128 117/150/128
f 122/145/129 137/167/129 138/152/129
f 115/146/130 130/168/130 131/153/130
f 124/149/131 123/147/131 138/152/131
f 116/148/132 131/153/132 132/155/132
f 124/149/133 139/154/133 140/156/133
f 118/151/134 117/150/134 132/155/134
f 126/136/135 125/135/135 140/156/135
f 118/151/136 133/157/136 134/159/136
f 126/136/137 141/158/137 142/160/137
f 120/139/138 119/137/138 134/159/138
f 127/138/139 142/160/139 143/162/139
f 121/141/140 120/139/140 135/161/140
f 121/141/143 136/163/143 137/167/143
f 114/143/144 129/165/144 130/168/144
f 141/158/145 156/185/145 157/169/145
f 135/161/146 134/159/146 149/170/146
f 143/162/147 142/160/147 157/169/147
f 136/163/148 135/161/148 150/171/148
f 136/163/151 151/173/151 152/177/151
f 129/165/152 144/175/152 145/178/152
f 137/167/153 152/177/153 153/179/153
f 131/153/154 130/168/154 145/178/154
f 139/154/155 138/152/155 153/179/155
f 131/153/156 146/180/156 147/182/156
f 139/154/157 154/181/157 155/183/157
f 133/157/158 132/155/158 147/182/158
f 141/158/159 140/156/159 155/183/159
f 133/157/160 148/184/160 149/170/160
f 146/180/518 145/178/518 160/186/518
f 154/181/162 153/179/162 168/188/162
f 146/180/163 161/187/163 162/190/163
f 154/181/164 169/189/164 170/191/164
f 148/184/165 147/182/165 162/190/165
f 156/185/166 155/183/166 170/191/166
f 148/184/167 163/192/167 164/194/167
f 156/185/519 171/193/519 172/195/519
f 150/171/169 149/170/169 164/194/169
f 157/169/170 172/195/170 173/197/170
f 151/173/171 150/171/171 165/196/171
f 151/173/174 166/198/174 167/202/174
f 144/175/175 159/200/175 160/186/175
f 152/177/176 167/202/176 168/188/176
f 165/196/177 164/194/177 179/203/177
f 173/197/178 172/195/178 187/205/178
f 166/198/179 165/196/179 180/204/179
f 166/198/182 181/207/182 182/211/182
f 159/200/183 174/209/183 175/212/183
f 167/202/184 182/211/184 183/213/184
f 160/186/185 175/212/185 176/214/185
f 169/189/186 168/188/186 183/213/186
f 161/187/187 176/214/187 177/216/187
f 169/189/188 184/215/188 185/217/188
f 163/192/189 162/190/189 177/216/189
f 170/191/190 185/217/190 186/219/190
f 163/192/191 178/218/191 179/203/191
f 172/195/192 171/193/192 186/219/192
f 184/215/193 183/213/193 198/220/193
f 176/214/194 191/236/194 192/222/194
f 184/215/195 199/221/195 200/223/195
f 178/218/196 177/216/196 192/222/196
f 186/219/197 185/217/197 200/223/197
f 178/218/198 193/224/198 194/226/198
f 186/219/199 201/225/199 202/227/199
f 180/204/200 179/203/200 194/226/200
f 187/205/201 202/227/201 203/229/201
f 181/207/202 180/204/202 195/228/202
f 181/207/205 196/230/205 197/234/205
f 175/212/206 174/209/206 189/232/206
f 182/211/207 197/234/207 198/220/207
f 176/214/208 175/212/208 190/235/208
f 202/227/209 217/253/209 218/237/209
f 196/230/210 195/228/210 210/238/210
f 196/230/213 211/239/213 212/243/213
f 189/232/214 204/241/214 205/244/214
f 197/234/215 212/243/215 213/245/215
f 190/235/216 205/244/216 206/246/216
f 199/221/217 198/220/217 213/245/217
f 191/236/218 206/246/218 207/248/218
f 199/221/219 214/247/219 215/249/219
f 193/224/220 192/222/220 207/248/220
f 201/225/221 200/223/221 215/249/221
f 193/224/222 208/250/222 209/252/222
f 201/225/520 216/251/520 217/253/520
f 195/228/224 194/226/224 209/252/224
f 206/246/225 221/269/225 222/254/225
f 214/247/226 229/270/226 230/255/226
f 208/250/227 207/248/227 222/254/227
f 216/251/228 215/249/228 230/255/228
f 208/250/229 223/256/229 224/258/229
f 216/251/230 231/257/230 232/259/230
f 210/238/231 209/252/231 224/258/231
f 217/253/232 232/259/232 233/261/232
f 211/239/233 210/238/233 225/260/233
f 211/239/236 226/262/236 227/266/236
f 204/241/237 219/264/237 220/267/237
f 212/243/238 227/266/238 228/268/238
f 205/244/239 220/267/239 221/269/239
f 214/247/240 213/245/240 228/268/240
f 226/262/241 225/260/241 240/271/241
f 226/262/244 241/272/244 242/277/244
f 219/264/245 234/274/245 235/278/245
f 227/266/246 242/277/246 243/279/246
f 221/269/247 220/267/247 235/278/247
f 229/270/248 228/268/248 243/279/248
f 221/269/249 236/280/249 237/282/249
f 229/270/250 244/281/250 245/283/250
f 223/256/251 222/254/251 237/282/251
f 231/257/252 230/255/252 245/283/252
f 223/256/253 238/284/253 239/286/253
f 231/257/254 246/285/254 247/287/254
f 225/260/255 224/258/255 239/286/255
f 233/261/256 232/259/256 247/287/256
f 244/281/257 259/304/257 260/288/257
f 238/284/258 237/282/258 252/289/258
f 246/285/259 245/283/259 260/288/259
f 238/284/260 253/290/260 254/292/260
f 246/285/261 261/291/261 262/293/261
f 240/271/262 239/286/262 254/292/262
f 247/287/263 262/293/263 263/295/263
f 241/272/521 240/271/521 255/294/521
f 241/272/522 256/296/522 257/300/522
f 234/274/268 249/298/268 250/301/268
f 242/277/269 257/300/269 258/302/269
f 235/278/270 250/301/270 251/303/270
f 244/281/271 243/279/271 258/302/271
f 236/280/272 251/303/272 252/289/272
f 256/296/274 271/320/274 272/307/274
f 250/301/275 249/298/275 264/308/275
f 257/300/276 272/307/276 273/310/276
f 250/301/277 265/309/277 266/311/277
f 259/304/278 258/302/278 273/310/278
f 251/303/279 266/311/279 267/313/279
f 259/304/280 274/312/280 275/314/280
f 253/290/281 252/289/281 267/313/281
f 261/291/282 260/288/282 275/314/282
f 253/290/283 268/315/283 269/317/283
f 261/291/284 276/316/284 277/318/284
f 255/294/285 254/292/285 269/317/285
f 262/293/286 277/318/286 278/306/286
f 256/296/287 255/294/287 270/319/287
f 276/316/289 275/314/289 290/322/289
f 268/315/290 283/338/290 284/324/290
f 276/316/523 291/323/523 292/325/523
f 270/319/292 269/317/292 284/324/292
f 278/306/293 277/318/293 292/325/293
f 271/320/294 270/319/294 285/326/294
f 271/320/297 286/328/297 287/332/297
f 265/309/298 264/308/298 279/330/298
f 272/307/299 287/332/299 288/334/299
f 265/309/524 280/333/524 281/335/524
f 274/312/301 273/310/301 288/334/301
f 266/311/302 281/335/302 282/337/302
f 274/312/303 289/336/303 290/322/303
f 268/315/304 267/313/304 282/337/304
f 279/330/305 294/353/305 295/339/305
f 287/332/306 302/355/306 303/340/306
f 280/333/307 295/339/307 296/341/307
f 289/336/308 288/334/308 303/340/308
f 281/335/309 296/341/309 297/343/309
f 289/336/310 304/342/310 305/344/310
f 283/338/311 282/337/311 297/343/311
f 291/323/312 290/322/312 305/344/312
f 283/338/313 298/345/313 299/347/313
f 291/323/314 306/346/314 307/348/314
f 285/326/315 284/324/315 299/347/315
f 293/327/316 292/325/316 307/348/316
f 286/328/317 285/326/317 300/349/317
f 286/328/320 301/351/320 302/355/320
f 298/345/321 313/371/321 314/356/321
f 306/346/322 321/372/322 322/357/322
f 300/349/323 299/347/323 314/356/323
f 307/348/525 322/357/525 323/359/525
f 301/351/325 300/349/325 315/358/325
f 301/351/328 316/360/328 317/364/328
f 294/353/329 309/362/329 310/365/329
f 302/355/330 317/364/330 318/366/330
f 295/339/331 310/365/331 311/367/331
f 304/342/332 303/340/332 318/366/332
f 296/341/333 311/367/333 312/369/333
f 304/342/334 319/368/334 320/370/334
f 298/345/335 297/343/335 312/369/335
f 306/346/336 305/344/336 320/370/336
f 317/364/337 332/388/337 333/373/337
f 310/365/338 325/389/338 326/374/338
f 319/368/339 318/366/339 333/373/339
f 311/367/340 326/374/340 327/376/340
f 319/368/341 334/375/341 335/377/341
f 312/369/342 327/376/342 328/378/342
f 321/372/343 320/370/343 335/377/343
f 313/371/344 328/378/344 329/380/344
f 321/372/526 336/379/526 337/381/526
f 315/358/346 314/356/346 329/380/346
f 322/357/347 337/381/347 338/383/347
f 316/360/348 315/358/348 330/382/348
f 316/360/351 331/384/351 332/388/351
f 309/362/352 324/386/352 325/389/352
f 336/379/353 351/406/353 352/390/353
f 330/382/354 329/380/354 344/391/354
f 337/381/355 352/390/355 353/393/355
f 331/384/356 330/382/356 345/392/356
f 331/384/359 346/394/359 347/398/359
f 324/386/360 339/396/360 340/399/360
f 332/388/361 347/398/361 348/400/361
f 325/389/362 340/399/362 341/401/362
f 334/375/363 333/373/363 348/400/363
f 326/374/364 341/401/364 342/403/364
f 334/375/365 349/402/365 350/404/365
f 328/378/366 327/376/366 342/403/366
f 336/379/367 335/377/367 350/404/367
f 328/378/368 343/405/368 344/391/368
f 341/401/369 340/399/369 355/407/369
f 349/402/370 348/400/370 363/409/370
f 341/401/371 356/408/371 357/411/371
f 349/402/372 364/410/372 365/412/372
f 343/405/373 342/403/373 357/411/373
f 351/406/374 350/404/374 365/412/374
f 343/405/375 358/413/375 359/415/375
f 351/406/376 366/414/376 367/416/376
f 345/392/377 344/391/377 359/415/377
f 352/390/378 367/416/378 368/418/378
f 346/394/527 345/392/527 360/417/527
f 346/394/528 361/419/528 362/423/528
f 339/396/383 354/421/383 355/407/383
f 347/398/384 362/423/384 363/409/384
f 360/424/385 359/454/385 374/425/385
f 367/427/386 382/455/386 383/428/386
f 361/430/529 360/424/529 375/426/529
f 361/430/530 376/431/530 377/436/530
f 354/432/391 369/434/391 370/438/391
f 362/437/392 377/436/392 378/440/392
f 356/442/393 355/439/393 370/438/393
f 364/444/394 363/441/394 378/440/394
f 356/442/395 371/443/395 372/446/395
f 364/444/396 379/445/396 380/448/396
f 358/450/397 357/447/397 372/446/397
f 366/452/398 365/449/398 380/448/398
f 358/450/399 373/451/399 374/425/399
f 366/452/400 381/453/400 382/455/400
f 379/445/401 378/440/401 393/456/401
f 371/443/402 386/472/402 387/458/402
f 379/445/403 394/457/403 395/459/403
f 373/451/404 372/446/404 387/458/404
f 381/453/405 380/448/405 395/459/405
f 373/451/406 388/460/406 389/462/406
f 381/453/407 396/461/407 397/463/407
f 375/426/408 374/425/408 389/462/408
f 382/455/409 397/463/409 398/465/409
f 376/431/410 375/426/410 390/464/410
f 376/431/413 391/466/413 392/470/413
f 369/434/414 384/468/414 385/471/414
f 377/436/415 392/470/415 393/456/415
f 371/443/416 370/438/416 385/471/416
f 397/463/417 412/489/417 413/473/417
f 391/466/418 390/464/418 405/474/418
f 391/466/421 406/475/421 407/479/421
f 385/471/422 384/468/422 399/477/422
f 392/470/423 407/479/423 408/481/423
f 385/471/424 400/480/424 401/482/424
f 394/457/425 393/456/425 408/481/425
f 386/472/426 401/482/426 402/484/426
f 394/457/427 409/483/427 410/485/427
f 388/460/428 387/458/428 402/484/428
f 396/461/429 395/459/429 410/485/429
f 388/460/430 403/486/430 404/488/430
f 397/463/431 396/461/431 411/487/431
f 390/464/432 389/462/432 404/488/432
f 409/483/433 424/506/433 425/490/433
f 403/486/434 402/484/434 417/491/434
f 411/487/435 410/485/435 425/490/435
f 403/486/436 418/492/436 419/494/436
f 411/487/437 426/493/437 427/495/437
f 405/474/438 404/488/438 419/494/438
f 412/489/439 427/495/439 428/497/439
f 406/475/440 405/474/440 420/496/440
f 406/475/443 421/498/443 422/502/443
f 399/477/444 414/500/444 415/503/444
f 407/479/445 422/502/445 423/504/445
f 401/482/446 400/480/446 415/503/446
f 409/483/447 408/481/447 423/504/447
f 401/482/448 416/505/448 417/491/448
f 421/498/451 436/523/451 437/511/451
f 414/500/452 429/508/452 430/512/452
f 422/502/453 437/511/453 438/513/453
f 416/505/454 415/503/454 430/512/454
f 424/506/455 423/504/455 438/513/455
f 416/505/456 431/514/456 432/516/456
f 424/506/457 439/515/457 440/517/457
f 418/492/458 417/491/458 432/516/458
f 426/493/459 425/490/459 440/517/459
f 418/492/460 433/518/460 434/520/460
f 426/493/461 441/519/461 442/521/461
f 420/496/462 419/494/462 434/520/462
f 427/495/463 442/521/463 443/510/463
f 421/498/464 420/496/464 435/522/464
f 433/518/465 432/516/465 447/524/465
f 441/519/466 440/517/466 455/526/466
f 433/518/467 448/525/467 449/528/467
f 441/519/468 456/527/468 457/529/468
f 435/522/469 434/520/469 449/528/469
f 442/521/470 457/529/470 458/531/470
f 436/523/471 435/522/471 450/530/471
f 436/523/474 451/532/474 452/536/474
f 430/512/475 429/508/475 444/534/475
f 437/511/476 452/536/476 453/538/476
f 430/512/477 445/537/477 446/539/477
f 439/515/478 438/513/478 453/538/478
f 431/514/479 446/539/479 447/524/479
f 439/515/480 454/540/480 455/526/480
f 451/532/481 466/554/481 467/541/481
f 444/534/482 459/556/482 460/542/482
f 452/536/483 467/541/483 468/543/483
f 446/539/484 445/537/484 460/542/484
f 454/540/485 453/538/485 468/543/485
f 446/539/486 461/544/486 462/546/486
f 454/540/487 469/545/487 470/547/487
f 448/525/488 447/524/488 462/546/488
f 456/527/489 455/526/489 470/547/489
f 448/525/490 463/548/490 464/550/490
f 456/527/491 471/549/491 472/551/491
f 450/530/492 449/528/492 464/550/492
f 458/531/493 457/529/493 472/551/493
f 451/532/494 450/530/494 465/552/494
f 471/549/497 470/547/497 479/4/497
f 464/550/498 463/548/498 3/1/498
f 471/549/499 480/6/499 481/10/499
f 465/552/500 464/550/500 477/7/500
f 472/551/501 481/10/501 482/14/501
f 466/554/502 465/552/502 4/11/502
f 466/554/505 5/16/505 6/22/505
f 460/542/506 459/556/506 474/17/506
f 467/541/507 6/22/507 478/26/507
f 461/544/508 460/542/508 475/23/508
f 468/543/509 478/26/509 7/30/509
f 462/546/510 461/544/510 2/27/510
f 469/545/511 7/30/511 479/4/511
f 463/548/512 462/546/512 476/31/512
